<svg id="b59376ee-520e-4183-8695-6a5489a5764e" xmlns="http://www.w3.org/2000/svg" width="512" height="512" viewBox="0 0 512 512">
  <defs>
    <style>
      .cls-1 {
        fill: #4d4d4d;
      }

      .cls-2 {
        fill: #fb8e3b;
      }
    </style>
  </defs>
  <g>
    <path class="cls-1" d="M90.67178,196.5217c28.32177.873,51.81,11.1329,73.01205,27.38678l.01872.0146a1.00772,1.00772,0,0,1-1.00235,1.709,2.5528,2.5528,0,0,1-.50734-.26206,114.62422,114.62422,0,0,0-36.60592-15.95215c-23.782-6.03977-46.77866-5.08855-67.30408,10.19712-13.52213,10.07022-22.3459,23.31874-25.405,40.20231-5.995,33.08763,18.44288,62.37511,52.29131,62.98263,20.34054.36506,38.64079-6.14188,56.02668-15.672,29.07271-15.93624,53.55932-37.62069,76.80878-61.06477,32.91054-33.18572,67.71179-64.04323,112.19372-81.43944,22.70219-8.8786,46.194-13.59945,70.52093-11.25746,50.59018,4.87036,85.86553,39.01652,96.7701,83.31305,13.06786,53.08323-17.664,95.07264-59.36981,112.97584-20.70666,8.88876-42.28049,11.12493-64.59978,8.60828-32.049-3.6139-60.0232-16.8241-85.78687-35.464-5.62218-4.06768-11.07059-8.3788-16.52222-12.67571l-.024-.0192a1.16962,1.16962,0,0,1,1.29463-1.925q.06187.03125.1224.06493c11.22035,6.2505,22.19285,12.9846,33.64485,18.772,19.70145,9.956,40.91466,16.18119,62.7328,17.48881,35.62562,2.13509,67.35107-7.8189,90.84034-36.74213,6.92412-8.52614,12.42508-18.116,13.80891-29.02182,1.04659-8.249.5411-16.8644-.45946-25.174-4.24058-35.22287-30.39552-62.88628-67.81487-69.13523-18.30155-3.05649-36.03116.122-53.40989,5.815-28.63481,9.38056-53.49644,25.436-76.051,44.90069-18.69779,16.13637-36.11318,33.74827-54.47606,50.28559-18.15476,16.35-37.559,31.14619-59.1974,42.67351-14.00145,7.45889-28.41455,14.08445-44.08917,17.42628-26.43759,5.6366-51.97882,4.58892-74.767-11.77544-20.649-14.82817-32.90291-35.13977-31.834-60.84548a79.76028,79.76028,0,0,1,66.71651-75.14886C82.73941,197.03891,87.31587,196.84644,90.67178,196.5217Z"/>
    <g>
      <g>
        <path class="cls-2" d="M371.83867,311.6233a9.35833,9.35833,0,0,1-.7209-1.683,12.5529,12.5529,0,0,0-2.3979-4.55715,9.1741,9.1741,0,0,0-.77823-.84417c-.10378.13875-.17223.22068-.2304.30938a4.94118,4.94118,0,0,1-6.44572,1.70527,8.19989,8.19989,0,0,1-2.98221-2.7276,24.94108,24.94108,0,0,1-3.47468-8.12075,1.15567,1.15567,0,0,1-.00215-.24764,1.27049,1.27049,0,0,1,1.17348.99082,13.02394,13.02394,0,0,0,2.66435,5.234,6.85661,6.85661,0,0,0,4.42747,2.48126c2.52967.32386,3.94443-1.17788,3.44325-3.68a3.43177,3.43177,0,0,0-.9694-1.97177c-.31751-.2881-.58163-.3589-.9106.0741a2.749,2.749,0,0,1-2.90156,1.24549,2.23538,2.23538,0,0,1,.61387-4.41484,6.24236,6.24236,0,0,1,5.9768,5.73544,4.28508,4.28508,0,0,0,.658,2.03124c.44646.696.83445,1.42946,1.33549,2.11126V294.59947h-16.474V292.93H392.5015v1.61979h-3.32763V311.6205l-.122.04582c-.49782-.56516-1.00831-1.12007-1.48318-1.70385a.91921.91921,0,0,1-.09048-.52987c-.00559-2.12557.0172-4.25147-.01241-6.37663a3.39,3.39,0,0,0-1.3451-2.5919,1.23113,1.23113,0,0,0-1.73669.12357l-.02824.03377c-.57162.65757-1.06055,1.38795-1.57324,2.09554a23.09614,23.09614,0,0,1-1.36052,1.90628,2.4559,2.4559,0,0,1-4.10011-.11783,20.08185,20.08185,0,0,1-1.43307-2.325.43134.43134,0,0,1,.04574-.38348c.24423-.32288.52223-.62024.82311-.9686a15.096,15.096,0,0,0,.78986,1.583c.60848.91926,1.29527.92688,1.95542.0601.60982-.80065,1.22-1.60176,1.79836-2.42494a1.31045,1.31045,0,0,0,.19126-.71223,3.55851,3.55851,0,0,0-.14883-.878,2.944,2.944,0,0,0-2.85085-2.3972c-.35275-.027-.708-.02462-1.06215-.029a2.09637,2.09637,0,0,1-1.96711-1.05041.74533.74533,0,0,0-.76932-.41084c-.85547.02891-1.71261.00926-2.64052.00926v16.97743Zm15.59345-11.54121v-5.4673H380.3576a4.45953,4.45953,0,0,1,1.9871,4.23439c.30515-.20741.5217-.34827.73168-.49835,1.45362-1.03893,2.22638-.93,3.3589.47857C386.73725,299.20493,387.03549,299.5834,387.43212,300.08209Z"/>
        <path class="cls-2" d="M422.98162,294.60269h-6.87654v16.76263l-.12294.05607a3.844,3.844,0,0,1-.42484-.52885,11.561,11.561,0,0,1-.701-1.39532,8.48885,8.48885,0,0,0-5.57582-5.09666,15.95313,15.95313,0,0,0-1.93825-.52322,1.61511,1.61511,0,0,1-1.05493-.63024c-.74347-.97243-1.52521-1.91563-2.37385-2.97271a9.053,9.053,0,0,0,4.07519-.33609,5.844,5.844,0,0,0,2.73694-1.55421,1.76627,1.76627,0,0,0-.31412-2.77069,7.36347,7.36347,0,0,1-4.49565,2.47684,4.116,4.116,0,0,1-1.80085-.064,2.1325,2.1325,0,0,1-1.42252-2.58062,1.84824,1.84824,0,0,1,2.87264-.95809,4.17253,4.17253,0,0,1,.58762,1.11271,2.62256,2.62256,0,0,0,1.82324-1.01973c.51384-.51106.98488-1.06514,1.49464-1.62212,1.53173,1.221,2.974,2.32889,3.45009,4.24513a2.79258,2.79258,0,0,1-.32826,2.24834,6.19384,6.19384,0,0,1-3.20307,2.61458A14.00485,14.00485,0,0,1,414.387,306.423V289.9464c.95435.33755,1.02756.436,1.05448,1.31936a4.602,4.602,0,0,0,.04554.66832c.13506.75435.39464.96174,1.16894.96181q4.64252.00047,9.2851.00013h.649v1.68234c-.28216,0-.55554-.00187-.82891.0003a2.49926,2.49926,0,0,0-2.80184,2.5945,41.80162,41.80162,0,0,0,.38666,4.60656c.186,1.77547.425,3.54545.60635,5.32135a2.93477,2.93477,0,0,1-.67045,2.08163,7.3145,7.3145,0,0,1-3.89549,2.75613,1.10614,1.10614,0,0,1-.85592-.16265c-.44014-.33793-.355-.68423.15821-.91724.40661-.18463.82887-.33668,1.22743-.5366a3.06413,3.06413,0,0,0,1.84907-3.52038c-.199-1.24763-.50172-2.47968-.78282-3.71305a9.41432,9.41432,0,0,1-.277-4.41677,9.23225,9.23225,0,0,1,1.71056-3.29992C422.59012,295.139,422.76092,294.903,422.98162,294.60269Z"/>
        <path class="cls-2" d="M396.84517,293.77453a3.89292,3.89292,0,0,1,3.43051,4.948,4.72143,4.72143,0,0,1-.16876.47189c-1.09209,2.55177-3.71029,2.92311-5.448.75752a4.175,4.175,0,0,1-1.04723-3.61938A3.27707,3.27707,0,0,1,396.84517,293.77453Zm-1.99531,4.74418c-.01358,1.07958.48615,1.55981,1.4054,1.26777a4.99675,4.99675,0,0,0,2.46849-1.73921.99032.99032,0,0,0-.47923-1.68975C396.7752,295.75268,394.89753,296.1859,394.84986,298.51871Z"/>
        <path class="cls-2" d="M394.3204,302.22474c1.39188,1.33672,2.855,2.608,4.15771,4.02664,1.64731,1.794,3.19385,3.68421,4.71044,5.59131.2862.35989.22894.99293.33016,1.49991l-.173.06723a4.38875,4.38875,0,0,1-.34874-.29908,46.91925,46.91925,0,0,0-8.48966-6.86473.78563.78563,0,0,1-.36925-.48517c-.03262-1.13013-.017-2.26166-.017-3.39272Z"/>
      </g>
      <g>
        <path class="cls-2" d="M187.979,234.43691h6.17985L210.85567,272.655h-7.04739l-3.84889-9.16155H182.01574l-3.90306,9.16155H171.2821Zm9.541,23.14767-6.55947-15.17877-6.5053,15.17877Z"/>
        <path class="cls-2" d="M265.34957,234.43691h6.17986L288.22629,272.655h-7.04755L277.33,263.49348H259.38635l-3.903,9.16155h-6.83058Zm9.54083,23.14767-6.5593-15.17877-6.5053,15.17877Z"/>
        <path class="cls-2" d="M294.72934,234.70787h7.10154l11.54683,17.94365,11.54684-17.94365h7.10154V272.655h-6.66794V245.4415l-11.98044,17.88934h-.217L301.28864,245.55V272.655h-6.5593Z"/>
        <path class="cls-2" d="M341.782,234.70787h6.668v19.082l18.05181-19.082h8.18571l-15.77517,16.31725L375.3923,272.655h-8.07739l-12.95628-17.07614-5.90873,6.07154V272.655h-6.668Z"/>
        <path class="cls-2" d="M381.08247,234.70787h6.66794V250.483h18.10614V234.70787h6.66794V272.655h-6.66794v-15.992H387.75041v15.992h-6.66794Z"/>
        <path class="cls-2" d="M433.44758,257.69306,418.3773,234.70787h7.86042L436.863,251.513l10.73363-16.80517h7.64346l-15.07028,22.82255V272.655h-6.72227Z"/>
        <path class="cls-2" d="M468.57473,234.43691h6.18L491.45144,272.655H484.4039l-3.84873-9.16155h-17.9435L458.7083,272.655H451.878Zm9.54083,23.14767-6.5593-15.17877-6.5053,15.17877Z"/>
      </g>
    </g>
  </g>
</svg>
