<svg id="a837f17a-82ca-43c7-b0b2-9354e52bc01c" xmlns="http://www.w3.org/2000/svg" width="512" height="512" viewBox="0 0 512 512">
  <defs>
    <style>
      .cls-1 {
        fill: #606161;
      }

      .cls-2 {
        fill: #d99937;
      }
    </style>
  </defs>
  <g id="b">
    <g id="c">
      <g>
        <g>
          <g>
            <path class="cls-1" d="M33.988,391.02471c11.74,0,16.69,5.54,16.69,13.66,0,5.76-2.51,9.23-7.16,11.08,4.73,1.92,7.39,5.61,7.39,11.37,0,7.98-4.95,13.74-16.69,13.74H12.058c-2.81,0-4.14-1.33-4.14-4.06v-41.73c0-2.73,1.33-4.06,4.14-4.06h21.93Zm-17.5,21.05h17.72c5.17,0,7.68-1.92,7.68-5.98s-2.29-6.5-7.61-6.5H17.448c-.59,0-.96.29-.96.89Zm0,19.35c0,.59.37.81.96.81h16.98c5.24,0,7.68-2.44,7.68-6.5s-2.58-6.42-7.68-6.42H16.488v12.11Z"/>
            <path class="cls-1" d="M87.898,391.02471c11.23,0,16.03,6.94,16.03,14.92,0,6.2-2.95,12.85-10.56,14.99l11.59,19.94h-9.67l-11.37-19.28h-13a1.10557,1.10557,0,0,0-1.26,1.26v18.02h-8.71v-19.72c0-5.61,2.36-7.9,7.83-7.9h19.42c4.95,0,6.94-3.4,6.94-6.94s-2.14-6.57-6.94-6.57H60.868v-8.71h27.03Z"/>
            <path class="cls-1" d="M118.688,440.87469h-9.6l17.5-44.31c1.85-4.65,5.24-6.42,10.49-6.42s8.57,1.77,10.34,6.42l16.84,44.31h-9.67l-15.14-40.1a2.37933,2.37933,0,0,0-2.44-1.7,2.52512,2.52512,0,0,0-2.51,1.7l-15.8,40.1Z"/>
            <path class="cls-1" d="M180.348,391.02471v20.31h25.48v-20.31h8.79v49.85h-8.79v-20.83h-25.48v20.83h-8.71v-49.85Z"/>
            <path class="cls-1" d="M235.298,440.87469h-8.71v-39.88c0-6.5,3.62-10.86,11.08-10.86,6.65,0,9.82,3.54,11.67,9.23l12.11,31.83a2.99551,2.99551,0,0,0,2.81,2.07,2.582,2.582,0,0,0,2.58-2.81v-29.47c0-6.5,3.62-10.86,11-10.86,6.65,0,9.82,3.54,11.82,9.23l15.44,41.5h-9.38l-14.84-40.18a3.07717,3.07717,0,0,0-2.81-2.14c-1.48,0-2.51,1.11-2.51,2.88v29.39c0,6.57-3.77,10.93-11.08,10.93-6.57,0-9.82-3.54-11.74-9.23l-12.11-31.83a3.06146,3.06146,0,0,0-2.73-2.14,2.56746,2.56746,0,0,0-2.58,2.88v39.44Z"/>
          </g>
          <g>
            <path class="cls-2" d="M350.028,391.02471v8.71h-19.28c-9.6,0-13.81,4.8-13.81,16.25s4.14,16.17,13.81,16.17h19.28v8.71h-19.28c-14.55,0-22.52-8.2-22.52-24.89s8.05-24.96,22.52-24.96h19.28Z"/>
            <path class="cls-2" d="M365.388,440.87469h-9.6l17.5-44.31c1.85-4.65,5.24-6.42,10.49-6.42s8.57,1.77,10.34,6.42l16.84,44.31h-9.67l-15.14-40.1a2.37933,2.37933,0,0,0-2.44-1.7,2.52514,2.52514,0,0,0-2.51,1.7l-15.8,40.1Z"/>
            <path class="cls-2" d="M456.818,391.02471v8.71h-25.55c-4.5,0-6.5,2.44-6.5,5.91,0,3.03,1.55,5.91,7.38,5.91h11.67c13.59,0,16.76,7.53,16.76,14.7,0,8.42-4.5,14.62-15.88,14.62h-27.77v-8.71h28.06c4.73,0,6.87-2.58,6.87-6.2,0-3.25-1.7-6.2-7.83-6.2h-11.59c-13.29,0-16.4-7.46-16.4-14.4,0-8.27,4.43-14.33,15.51-14.33h25.26Z"/>
            <path class="cls-2" d="M502.08805,391.02471v8.71h-14.55v41.14h-8.79v-41.14h-14.55v-8.71h37.89Z"/>
          </g>
        </g>
        <g>
          <path class="cls-2" d="M254.998,345.46472a147.09235,147.09235,0,0,1-104.01-251.1A147.08526,147.08526,0,1,1,254.998,345.4447Zm0-287.83c-77.6,0-140.74,63.13-140.74,140.74s63.13,140.74,140.74,140.74,140.74-63.13,140.74-140.74-63.13-140.75-140.74-140.75Z"/>
          <path class="cls-2" d="M288.508,273.9847h-67.02l-41.79-52.4,14.91-65.34,60.38-29.08,60.38,29.08,14.91,65.34-41.79,52.4Zm-63.96-6.36h60.89l37.97-47.61-13.55-59.37-54.86-26.42-54.86,26.42-13.55,59.37,37.97,47.61Z"/>
          <rect class="cls-2" x="103.29184" y="161.87748" width="159.47999" height="6.36" transform="translate(-53.25357 94.95874) rotate(-25.52)"/>
          <rect class="cls-2" x="102.94951" y="230.55592" width="154.45" height="6.36" transform="translate(-87.84306 357.27504) rotate(-77.12)"/>
          <rect class="cls-2" x="227.55247" y="204.16131" width="6.36" height="152.85001" transform="translate(-124.52298 204.69352) rotate(-38.51)"/>
          <rect class="cls-2" x="222.96804" y="267.61471" width="156.17998" height="6.36"/>
          <rect class="cls-2" x="257.02562" y="203.89626" width="161.63998" height="6.36" transform="translate(-34.74017 341.98389) rotate(-51.41)"/>
          <rect class="cls-2" x="304.92859" y="55.99318" width="6.35999" height="165.45" transform="translate(-23.15773 72.1129) rotate(-12.87)"/>
          <rect class="cls-2" x="234.54532" y="40.53851" width="6.36" height="163.64" transform="translate(24.32289 283.43097) rotate(-64.28)"/>
        </g>
      </g>
    </g>
  </g>
</svg>
