<svg id="b59376ee-520e-4183-8695-6a5489a5764e" xmlns="http://www.w3.org/2000/svg" width="512" height="512" viewBox="0 0 512 512">
  <defs>
    <style>
      .cls-1 {
        fill: #d99938;
      }

      .cls-2 {
        fill: #606060;
      }
    </style>
  </defs>
  <g id="eebbc25c-948a-4020-ae08-381e6fa574d8">
    <path class="cls-1" d="M289.02644,387.65332l13.482,36.28384a2.82626,2.82626,0,0,0,2.44306,1.90016,2.33619,2.33619,0,0,0,2.35257-2.31969q.00014-.01644,0-.03289V396.70165c0-5.88142,3.3479-9.86268,9.95318-9.86268,5.97191,0,8.95785,3.16692,10.677,8.32448l10.94849,28.77371a2.82626,2.82626,0,0,0,2.44306,1.90016,2.24011,2.24011,0,0,0,2.26209-2.21791q.00021-.02207,0-.04418V387.65332h7.96253v36.01237c0,5.97191-3.3479,9.86269-10.04367,9.86269-5.97191,0-8.86736-3.16692-10.58656-8.32448l-10.9485-28.77371a2.71767,2.71767,0,0,0-2.53352-1.90016c-1.35725,0-2.26209.99532-2.26209,2.624v26.60212c0,5.9719-3.34789,9.86268-10.04366,9.86268-5.97191,0-8.86736-3.16692-10.58657-8.32448l-13.93441-37.641Z"/>
    <path class="cls-1" d="M364.03719,432.62357h-8.68641l15.83459-40.08413c1.71918-4.16224,4.70515-5.79093,9.50076-5.79093s7.69109,1.62869,9.31978,5.79093l15.20119,40.08413h-8.77687l-13.57251-36.19335a2.054,2.054,0,0,0-2.17159-1.53823,2.22336,2.22336,0,0,0-2.26209,1.53823Z"/>
    <path class="cls-1" d="M436.24292,387.65332c10.13415,0,14.47735,6.24334,14.47735,13.482,0,5.61-2.71451,11.58186-9.50076,13.5725l10.40559,18.00622h-8.7769l-10.22461-17.46331H420.86075a1.02244,1.02244,0,0,0-1.17628.81434v16.55845h-7.87206V414.79833c0-5.06707,2.17159-7.14818,7.05769-7.14818h17.55377c4.43369,0,6.24335-3.07643,6.24335-6.24335s-1.90015-5.97191-6.24335-5.97191H411.81241v-7.87206Z"/>
    <path class="cls-1" d="M495.50954,387.65332v7.87206H472.97919c-4.70515,0-6.78626,2.1716-6.78626,5.70044,0,3.70983,2.35258,5.33852,6.87675,5.33852h22.16843v7.14818H472.8887c-4.52417,0-6.87675,1.80967-6.87675,5.429,0,3.52885,2.1716,5.70045,6.78626,5.70045H495.6V432.714h-22.8018c-10.677,0-15.02025-5.248-15.02025-12.30574,0-5.15757,2.35257-8.59593,6.42433-10.3151-4.16225-1.71918-6.33384-5.248-6.33384-10.13416,0-7.23867,4.52417-12.30574,15.11074-12.30574Z"/>
    <path class="cls-2" d="M39.92568,387.65332c10.58655,0,15.11072,4.97658,15.11072,12.30574,0,5.248-2.26208,8.32449-6.5148,10.04366,4.25272,1.71918,6.69577,5.06708,6.69577,10.31511,0,7.23867-4.43369,12.39623-15.11073,12.39623H20.10981c-2.53353,0-3.70982-1.17627-3.70982-3.70982V391.27265c0-2.44306,1.17629-3.70982,3.70982-3.70982H39.92568Zm-15.8346,19.00151H40.10664c4.70514,0,6.96722-1.71918,6.96722-5.429s-2.08111-5.88142-6.87673-5.88142H24.99592c-.5429,0-.90484.27144-.90484.81435Zm0,17.46328c0,.54291.36194.72386.90484.72386H40.37809c4.70514,0,6.96722-2.1716,6.96722-5.88142,0-3.80032-2.35256-5.79093-6.96722-5.79093h-16.287Z"/>
    <path class="cls-2" d="M88.69622,387.65332c10.13414,0,14.47735,6.24334,14.47735,13.482,0,5.61-2.71451,11.58186-9.59124,13.5725L104.0784,432.714H95.392L85.07689,415.25075H73.31405a1.02246,1.02246,0,0,0-1.17629.81434v16.55845H64.35619V414.79833c0-5.06707,2.1716-7.14818,7.0577-7.14818H88.96767c4.43369,0,6.24336-3.07643,6.24336-6.24335s-1.90015-5.97191-6.24336-5.97191h-24.702v-7.87206Z"/>
    <path class="cls-2" d="M116.47462,432.62357h-8.6864l15.83459-40.08413c1.62871-4.16224,4.70513-5.79093,9.50076-5.79093,4.70513,0,7.78157,1.62869,9.31979,5.79093l15.20121,40.08413h-8.77688l-13.663-36.19335a2.054,2.054,0,0,0-2.1716-1.53823,2.22333,2.22333,0,0,0-2.26208,1.53823Z"/>
    <path class="cls-2" d="M172.21239,387.65332V405.931h22.98277V387.56285h7.96255v45.06072h-7.96255V413.803H172.21239v18.82053h-7.87205V387.56285h7.87205Z"/>
    <path class="cls-2" d="M221.88778,432.62357h-7.87205V396.61119c0-5.88142,3.2574-9.86268,10.04366-9.86268,5.97191,0,8.86737,3.16692,10.58655,8.32448l10.9485,28.77371a2.84247,2.84247,0,0,0,2.53352,1.90016,2.3362,2.3362,0,0,0,2.35258-2.31969q.00012-.01644,0-.03289V396.61119c0-5.88142,3.2574-9.86268,9.95317-9.86268,5.97191,0,8.86736,3.16692,10.677,8.32448l13.93443,37.55061h-8.50543l-13.39153-36.28385a2.71766,2.71766,0,0,0-2.53352-1.90015c-1.35725,0-2.26209.99532-2.26209,2.624v26.60211c0,5.97191-3.43836,9.86269-10.04366,9.86269-5.97191,0-8.86738-3.16692-10.58655-8.32449l-10.9485-28.7737a2.6964,2.6964,0,0,0-2.443-1.90016,2.318,2.318,0,0,0-2.35257,2.26208v.27144Z"/>
  </g>
  <g id="a357643f-2e52-414f-9e28-3803283167f9">
    <path class="cls-1" d="M256,344.76419a67.68158,67.68158,0,1,1,67.68156-67.68159v0h0A67.69424,67.69424,0,0,1,256,344.76419Zm0-131.11042a63.42885,63.42885,0,1,0,63.42886,63.42886h0A63.50449,63.50449,0,0,0,256,213.65377Z"/>
    <path class="cls-1" d="M256,280.06857A67.68158,67.68158,0,1,1,323.68156,212.387h0A67.69424,67.69424,0,0,1,256,280.06857Zm0-131.11043A63.42886,63.42886,0,1,0,319.42886,212.387h0A63.44641,63.44641,0,0,0,256,148.95814Z"/>
    <path class="cls-1" d="M256,213.74426a67.68158,67.68158,0,1,1,67.68156-67.6816v0h0A67.69424,67.69424,0,0,1,256,213.74426Zm0-131.11043a63.42886,63.42886,0,1,0,63.42886,63.42885A63.42885,63.42885,0,0,0,256,82.63383Z"/>
    <path class="cls-1" d="M312.82359,246.68021a67.68158,67.68158,0,1,1,67.68159-67.68158A67.68159,67.68159,0,0,1,312.82359,246.68021Zm0-131.11043a63.42886,63.42886,0,1,0,63.42886,63.42885A63.42885,63.42885,0,0,0,312.82359,115.56978Z"/>
    <path class="cls-1" d="M312.28068,313.00452a67.68158,67.68158,0,1,1,67.68156-67.68159h0A67.69425,67.69425,0,0,1,312.28068,313.00452Zm0-131.11043A63.42886,63.42886,0,1,0,375.70954,245.323h0A63.50451,63.50451,0,0,0,312.28068,181.89409Z"/>
    <path class="cls-1" d="M199.71935,246.1373a67.68158,67.68158,0,1,1,67.68159-67.68158h0A67.69424,67.69424,0,0,1,199.71935,246.1373Zm0-131.11043a63.42886,63.42886,0,1,0,63.42886,63.42886h0A63.44642,63.44642,0,0,0,199.71935,115.02687Z"/>
    <path class="cls-1" d="M199.17644,312.46164A67.68158,67.68158,0,1,1,266.858,244.78005h0A67.69426,67.69426,0,0,1,199.17644,312.46164Zm0-131.11043a63.42886,63.42886,0,1,0,63.42886,63.42887h0a63.5045,63.5045,0,0,0-63.42886-63.42888Z"/>
    <path class="cls-1" d="M256.54291,209.22009c-19.6349-31.85015,0-59.44759,0-59.44759"/>
    <path class="cls-1" d="M254.91422,275.00151c19.99683-31.66919.63339-59.44759.63339-59.44759"/>
    <path class="cls-1" d="M258.7145,210.12492c18.00619-32.84547,51.666-29.31662,51.666-29.31662"/>
    <path class="cls-1" d="M310.10908,243.15136c-17.19184-33.2074-51.39455-29.95-51.39455-29.95"/>
    <path class="cls-1" d="M252.56164,213.74426c-18.00619,32.84547-51.666,29.31661-51.666,29.31661"/>
    <path class="cls-1" d="M201.61949,180.2654c17.37281,33.11691,51.57555,29.58807,51.57555,29.58807"/>
  </g>
</svg>
