<svg id="b59376ee-520e-4183-8695-6a5489a5764e" xmlns="http://www.w3.org/2000/svg" xmlns:xlink="http://www.w3.org/1999/xlink" width="512" height="512" viewBox="0 0 512 512">
  <defs>
    <style>
      .cls-1 {
        fill: none;
      }

      .cls-2 {
        clip-path: url(#clip-path);
      }

      .cls-3 {
        fill: #e18e3c;
      }

      .cls-4 {
        fill: #2e2e2e;
      }
    </style>
    <clipPath id="clip-path">
      <rect id="SVGID" class="cls-1" x="7.44495" y="201.70654" width="497.1101" height="108.58686"/>
    </clipPath>
  </defs>
  <g id="Layer_2" data-name="Layer 2">
    <g id="Layer_1-2" data-name="Layer 1-2">
      <g id="Group_6" data-name="Group 6">
        <g class="cls-2">
          <g id="Group_5" data-name="Group 5">
            <path id="Path_29" data-name="Path 29" class="cls-3" d="M106.69815,282.13488a31.25366,31.25366,0,0,0,3.54443-2.804,80.10925,80.10925,0,0,0,5.81155-6.11218l-.03413-.03413-15.501,3.66652a42.6029,42.6029,0,0,0,6.18043,5.27463"/>
            <path id="Path_30" data-name="Path 30" class="cls-3" d="M115.72988,287.74558a18.81958,18.81958,0,0,0,7.31727-2.27894,14.36262,14.36262,0,0,0,3.698-3.404l-1.43352-2.38921A47.55621,47.55621,0,0,1,119.336,275.986a51.36415,51.36415,0,0,1-7.67959,9.21945,40.03816,40.03816,0,0,0,3.79516,1.79453Z"/>
            <path id="Path_31" data-name="Path 31" class="cls-3" d="M117.74364,300.92692a18.36334,18.36334,0,0,0,1.851,1.77878,66.16292,66.16292,0,0,1,7.33171-13.15509,23.95494,23.95494,0,0,1-12.2926,3.07972l-1.46241,2.99307c1.55955,1.72627,2.97732,3.55887,4.56575,5.29695"/>
            <path id="Path_32" data-name="Path 32" class="cls-3" d="M116.72363,306.896a35.05731,35.05731,0,0,1-5.76167-6.7331l-.85985,1.76958-4.22968-1.11321a5.86275,5.86275,0,0,0-6.32746,2.93007c-.94518,1.72495-2.02952,3.81354-2.89724,5.79448H116.8641s.26255-.74564.73252-1.96912a9.07851,9.07851,0,0,1-.86248-.67082"/>
            <path id="Path_33" data-name="Path 33" class="cls-3" d="M73.46847,284.18278,66.8929,298.83571a5.70652,5.70652,0,0,1,3.94876,4.18374c-.64719,2.39445-2.128,6.90113-4.27564,7.93164h5.42954c5.41773-8.8742,3.86737-20.28464,1.47291-26.76569"/>
            <path id="Path_34" data-name="Path 34" class="cls-3" d="M62.39541,295.11668a39.21953,39.21953,0,0,1-3.66651-4.27432,35.62012,35.62012,0,0,1-3.48273,14.57154L46.607,303.72308a9.11314,9.11314,0,0,0-4.3137,7.88833H60.87393l5.17618-13.06581c-1.35607-1.16573-2.58743-2.363-3.66651-3.425"/>
            <path id="Path_35" data-name="Path 35" class="cls-3" d="M146.55984,273.00994c-7.57719-2.86835-11.06911-6.14892-10.85907-15.78451,0,0,.40958,4.92019,6.56375,8.609,2.62551,1.5753,5.68028,2.84736,8.49481,4.36358a44.80275,44.80275,0,0,1-.08139-8.54732,55.64681,55.64681,0,0,0-5.22736-11.62179c1.67507-.16147,3.27138-.37282,4.80466-.62224q-1.32849-3.56937-2.60581-7.15581a1.62921,1.62921,0,0,1,0-1.15785,107.09591,107.09591,0,0,1-12.78751-3.19655,34.02356,34.02356,0,0,0-4.59463-3.07578,24.8651,24.8651,0,0,1-5.20769,5.39148,24.31086,24.31086,0,0,0-9.44393,10.86564,21.58436,21.58436,0,0,1,5.335-12.08913c2.74759-2.976,4.3439-3.90806,5.39148-5.89819a31.19632,31.19632,0,0,0-16.24006-1.0187c-.28486.0512-.57761.09715-.86247.14441-2.88806,1.82472-6.87226,5.7761-7.76362,13.94141-1.448,13.11046-6.98252,20.49075-20.517,22.53863,0,0,10.86565-3.89493,14.55448-14.55447,2.91168-8.4108,1.10927-14.523,6.14893-21.15368-3.07053.1641-6.1975.168-9.20633.06039a18.17248,18.17248,0,0,0-2.0689,9.62509c.45552,9.32054-5.21425,16.14685-13.76551,17.09334a16.04836,16.04836,0,0,0,9.42687-11.15838c.89267-4.89132.31769-10.842.92943-15.8843-1.402-.11814-2.74234-.26255-4.00652-.4122-.57761,10.968-5.90738,15.27518-5.90738,15.27518a30.24973,30.24973,0,0,0,1.75646-15.89349,12.99612,12.99612,0,0,1-5.91657-1.8943,4.81915,4.81915,0,0,0-.86248-.98456,12.95816,12.95816,0,0,0-3.0469,7.417c-1.02526,10.04518-12.70874,14.1449-12.70874,14.1449a27.83822,27.83822,0,0,0,8.61952-12.09175c1.13028-3.84111,1.39021-7.74524,2.96945-10.94966H59.56118a13.1144,13.1144,0,0,0-2.03608,12.248c1.22874,4.9215-3.55492,8.06292-3.55492,8.06292s2.187-2.05052-.68264-9.70386a13.10916,13.10916,0,0,1,.17854-9.88371c-1.11059.24549-2.32882.52511-3.57069.8126-3.48535,4.48173-1.88117,9.45181.93074,15.08351a10.59261,10.59261,0,0,1-1.09352,11.75307,26.37718,26.37718,0,0,0-4.23756-15.71495,12.79275,12.79275,0,0,1-2.25268-9.52533c-2.11616.5146-3.58644.88349-3.58644.88349l-2.81717,2.53623a6.5283,6.5283,0,0,0,.56317-6.6202c-5.07247,3.5208-22.40079,10.28409-22.40079,10.28409l-.70363,3.33439A19.45885,19.45885,0,0,1,7.445,243.989a12.43307,12.43307,0,0,0,6.29333,6.10561L14.778,247.368c5.17487-.47,5.44661,6.1056,5.44661,6.1056l-4.22706-1.03313a14.91684,14.91684,0,0,1,3.19261,7.13874l7.23326-5.63564,6.66747.37545c6.2907-5.3534,1.03313-12.865,1.03313-12.865,6.19881,5.73016,1.96913,13.24173,1.96913,13.24173a23.1709,23.1709,0,0,1,5.42166,2.90643,9.44262,9.44262,0,0,0,.82834-6.94183c-1.50966-7.10593-4.23493-9.97691-1.64093-14.75927a14.71852,14.71852,0,0,0,3.144,11.21353,15.02576,15.02576,0,0,1,2.5126,14.62405,37.77513,37.77513,0,0,1,3.23462,3.66651l3.56937-8.45149L50.35748,268.032l2.38921,4.43185A30.62655,30.62655,0,0,0,57.38464,259.679c1.02526-9.02122,13.32443-8.19419,17.01326-20.49861,0,0,.2166,9.63428-5.53325,13.12095a14.92206,14.92206,0,0,0-7.58508,14.96537c.51329,3.58775-2.01638,9.24965-3.98682,12.99624,2.68458,3.15848,4.80467,7.0521,7.694,9.96509q1.532,1.5425,3.19654,2.93794l4.15092-10.481-2.25268-10.70548c1.69083-.56317,5.06985-6.20013,5.06985-6.20013a34.05,34.05,0,0,1-3.38165,6.38785l1.87723,9.016,5.47418-1.23661a13.95442,13.95442,0,0,1,7.23326-6.05178c5.46761-1.914,10.10818-9.56734,10.10818-9.56734s-1.50966,7.92508-5.87456,9.84564a10.02553,10.02553,0,0,0-4.24675,4.13778l4.378-.98981A24.46572,24.46572,0,0,0,102.605,261.43673c2.86312-15.06645,6.14105-20.05622,11.83708-23.938,0,0-7.45118,11.80557-6.4456,22.51237.487,5.19062-2.06627,10.4495-4.827,14.4941l11.99066-2.71214a58.52028,58.52028,0,0,1,1.12766-13.33624s.5658,11.27.94124,11.83313a19.5601,19.5601,0,0,0,5.88638,5.73017,26.35358,26.35358,0,0,1-1.77484-12.23879c1.36788-10.38648,9.02123-12.57353,10.10819-19.67945A18.33914,18.33914,0,0,1,130.36442,254.21c-1.889,3.77548-8.44755,10.81707,1.22217,24.979a19.06478,19.06478,0,0,0,3.11385.298l3.64551,2.6045c.7522-.21529,1.4729-.43058,2.128-.6695a31.506,31.506,0,0,0,10.3773-6.09773,17.47029,17.47029,0,0,0-4.298-2.3157"/>
            <path id="Path_36" data-name="Path 36" class="cls-3" d="M152.56044,294.02841c.58156.11028,1.24317.2153,2.04134.32556a29.15591,29.15591,0,0,0,9.226-.04069,19.08338,19.08338,0,0,0,.74171-3.93826c-.37545-.56316-5.44661-.18772-10.33-8.45149-.32556-.55267-.617-1.129-.89005-1.70658a30.33238,30.33238,0,0,1-8.61427,5.77611c-.19166.08795-.39383.16409-.58156.25073l8.15219,5.822Z"/>
            <path id="Path_37" data-name="Path 37" class="cls-3" d="M159.74119,300.71294a26.79218,26.79218,0,0,1-6.355-.43058l.47653,3.61269a27.88284,27.88284,0,0,0-6.7633-1.12634c-7.30808,2.43646-7.13874,7.51418-7.13874,7.51418h19.72409s1.32456-4.87293,2.58874-9.79575c-.8454.09846-1.69082.17722-2.53885.2153"/>
            <path id="Path_38" data-name="Path 38" class="cls-3" d="M157.07761,241.2755a25.81671,25.81671,0,0,1-6.07936.21529q1.444,3.60744,2.9143,7.1965,2.363-.52509,4.46335-1.21823a53.36405,53.36405,0,0,0-1.29437-6.19619"/>
            <path id="Path_39" data-name="Path 39" class="cls-3" d="M169.49623,209.39007a11.946,11.946,0,0,0-9.5332-.14177,11.12656,11.12656,0,0,0-2.6255,1.6987,2.044,2.044,0,0,0,2.15686,3.41315,10.43637,10.43637,0,0,1,6.37865-.45946,18.53729,18.53729,0,0,1,3.62188-4.5093"/>
            <path id="Path_40" data-name="Path 40" class="cls-3" d="M169.93339,215.87507a9.4518,9.4518,0,0,1,3.54443,6.8263,20.30272,20.30272,0,0,1,4.24019.73646v-.12078a14.9299,14.9299,0,0,0-3.90412-10.95228,16.63938,16.63938,0,0,0-3.8818,3.50373"/>
            <path id="Path_41" data-name="Path 41" class="cls-3" d="M172.68754,227.79747a20.27932,20.27932,0,0,1-2.59268,4.8795,36.06546,36.06546,0,0,1,2.46535,5.72622,22.59628,22.59628,0,0,0,4.46335-9.35335,17.06583,17.06583,0,0,0-4.33208-1.25236"/>
            <path id="Path_42" data-name="Path 42" class="cls-3" d="M168.48148,241.89642a42.04289,42.04289,0,0,0-1.49-5.59232,18.46374,18.46374,0,0,1-5.82336,3.81749,46.648,46.648,0,0,1,1.68425,5.59494,30.06149,30.06149,0,0,0,5.68815-3.42759c-.02364-.13128-.04463-.26255-.06827-.39383"/>
            <rect id="Rectangle_5" data-name="Rectangle 5" class="cls-4" x="212.84724" y="222.76832" width="15.54035" height="55.78668"/>
            <path id="Path_43" data-name="Path 43" class="cls-4" d="M238.589,222.76832h14.42451l22.95083,29.48834V222.76832h15.29749v55.79194H277.71423l-23.82513-30.616v30.60155H238.57717Z"/>
            <path id="Path_44" data-name="Path 44" class="cls-4" d="M301.13764,222.76832h21.5173c19.92494,0,31.48636,11.47739,31.48636,27.56778v.16016c0,16.097-11.71763,28.0535-31.80009,28.0535H301.13764Zm21.76148,42.08156c9.24439,0,15.38019-5.1,15.38019-14.10682v-.15884c0-8.92671-6.13711-14.10683-15.38019-14.10683h-6.3012v28.37249Z"/>
            <rect id="Rectangle_6" data-name="Rectangle 6" class="cls-4" x="362.42214" y="222.76832" width="15.54034" height="55.78668"/>
            <path id="Path_45" data-name="Path 45" class="cls-4" d="M407.44689,222.36925h14.905L446.09953,278.555h-16.5748l-4.063-9.96116H403.94316l-3.98552,9.95853H383.6992Zm13.5489,34.188-6.21589-15.862-6.28938,15.85935Z"/>
            <path id="Path_46" data-name="Path 46" class="cls-4" d="M451.51463,222.76832H465.9549l22.94165,29.48834V222.76832H504.1901v55.79194H490.64383l-23.8317-30.616v30.60155h-15.312Z"/>
            <path id="Path_47" data-name="Path 47" class="cls-4" d="M223.02367,304.01713h-.12209l-7.84106-11.50758v17.415h-2.37214V288.38883h2.4601l7.85026,11.75307,7.84632-11.75306h2.46009v21.53568h-2.4299V292.47936Z"/>
            <path id="Path_48" data-name="Path 48" class="cls-4" d="M254.959,290.60344H241.821v7.35141H253.574v2.208H241.821v7.54832h13.29161v2.21461H239.38844V288.39671H254.959Z"/>
            <path id="Path_49" data-name="Path 49" class="cls-4" d="M278.09228,303.3857a10.00736,10.00736,0,0,1-2.35245,3.43154,11.13247,11.13247,0,0,1-3.62975,2.27237,12.51064,12.51064,0,0,1-4.63007.82966h-7.48269V288.3862H267.48a12.75736,12.75736,0,0,1,4.63007.81522,10.95353,10.95353,0,0,1,3.62976,2.26187,10.04247,10.04247,0,0,1,2.35507,3.41316,10.80656,10.80656,0,0,1,.827,4.24937,10.93829,10.93829,0,0,1-.831,4.2625M275.77135,295.84a8.02213,8.02213,0,0,0-1.784-2.72133,8.22584,8.22584,0,0,0-2.8106-1.81685,9.89011,9.89011,0,0,0-3.69277-.65638H262.4338v17.03164H267.48a10.1083,10.1083,0,0,0,3.69277-.64719,8.034,8.034,0,0,0,2.81584-1.80109,8.1155,8.1155,0,0,0,1.784-2.69114,8.74959,8.74959,0,0,0,.63142-3.35277,8.91762,8.91762,0,0,0-.63272-3.35408"/>
            <rect id="Rectangle_7" data-name="Rectangle 7" class="cls-4" x="284.27798" y="288.38883" width="2.4299" height="21.53569"/>
            <path id="Path_50" data-name="Path 50" class="cls-4" d="M313.07317,309.92452h-2.60579l-2.52311-5.69209H296.2122l-2.5533,5.69209h-2.49423l9.81151-21.68928h2.27763Zm-10.98378-18.8288-4.92019,10.98249h9.81413Z"/>
            <path id="Path_51" data-name="Path 51" class="cls-4" d="M328.67523,295.13375a2.75674,2.75674,0,0,0,.89268,1.12371,6.49993,6.49993,0,0,0,1.784.91893,21.41969,21.41969,0,0,0,2.92219.78765,12.69689,12.69689,0,0,1,5.30744,2.21986,4.80731,4.80731,0,0,1,1.70658,3.912,5.6842,5.6842,0,0,1-2.05576,4.46335,6.733,6.733,0,0,1-2.31308,1.234,9.714,9.714,0,0,1-2.955.43189,12.894,12.894,0,0,1-4.7259-.8349,13.369,13.369,0,0,1-4.0761-2.58744l1.50966-1.78665a12.71447,12.71447,0,0,0,3.41316,2.29337,9.84539,9.84539,0,0,0,3.96844.7522,5.53452,5.53452,0,0,0,3.49193-1.01606,3.23331,3.23331,0,0,0,1.30618-2.682,3.56936,3.56936,0,0,0-.2455-1.37052,2.75666,2.75666,0,0,0-.86248-1.09352,6.15738,6.15738,0,0,0-1.70658-.894,22.067,22.067,0,0,0-2.79091-.77058,22.12587,22.12587,0,0,1-3.2215-.92549,7.94454,7.94454,0,0,1-2.26712-1.26286,4.65485,4.65485,0,0,1-1.32589-1.725,5.80359,5.80359,0,0,1-.43447-2.32881,5.3747,5.3747,0,0,1,.5251-2.37215,5.486,5.486,0,0,1,1.47816-1.86279,7.17528,7.17528,0,0,1,2.24482-1.234,8.63132,8.63132,0,0,1,2.829-.44634,11.9919,11.9919,0,0,1,4.13911.64719,12.60268,12.60268,0,0,1,3.43021,1.96256l-1.41384,1.87592a10.51261,10.51261,0,0,0-3.03115-1.78272,9.23916,9.23916,0,0,0-3.18474-.55267,6.11867,6.11867,0,0,0-1.89166.27567,4.82559,4.82559,0,0,0-1.444.7404,3.20044,3.20044,0,0,0-.91892,1.11059,3.07168,3.07168,0,0,0-.32425,1.385,3.71011,3.71011,0,0,0,.24678,1.38627"/>
            <path id="Path_52" data-name="Path 52" class="cls-4" d="M354.48394,309.92452h-2.43122v-8.52107l-8.95165-13.01331h2.95238l7.24376,10.76457,7.30676-10.76457h2.829l-8.95164,12.98312Z"/>
            <path id="Path_53" data-name="Path 53" class="cls-4" d="M383.18855,288.38883h2.37215v21.53569h-1.94156l-13.906-17.65782v17.65782H367.341V288.38883h2.27763L383.186,305.641Z"/>
            <path id="Path_54" data-name="Path 54" class="cls-4" d="M409.735,303.3857a10.01612,10.01612,0,0,1-2.35376,3.43154,11.15853,11.15853,0,0,1-3.62978,2.27237,12.51056,12.51056,0,0,1-4.63007.82966h-7.48269V288.3862h7.48269a12.75747,12.75747,0,0,1,4.63007.81522,10.97726,10.97726,0,0,1,3.62975,2.26056,10.04,10.04,0,0,1,2.35375,3.41315,10.81273,10.81273,0,0,1,.831,4.24675,10.93536,10.93536,0,0,1-.831,4.26119m-2.32225-7.54832a8.051,8.051,0,0,0-1.78272-2.72133,8.24685,8.24685,0,0,0-2.81716-1.81554,9.88517,9.88517,0,0,0-3.69147-.65637H394.0765v17.033h5.0449a10.09786,10.09786,0,0,0,3.69147-.64587,7.93957,7.93957,0,0,0,4.59463-4.49224,8.73625,8.73625,0,0,0,.63144-3.35408,8.88457,8.88457,0,0,0-.63144-3.35277"/>
            <rect id="Rectangle_8" data-name="Rectangle 8" class="cls-4" x="415.92071" y="288.38883" width="2.4299" height="21.53569"/>
            <path id="Path_55" data-name="Path 55" class="cls-4" d="M441.37889,308.063a10.68665,10.68665,0,0,1-1.95336,1.18147,11.14059,11.14059,0,0,1-2.24482.76927,11.92238,11.92238,0,0,1-2.67669.277,10.59521,10.59521,0,0,1-7.72292-3.21624,10.76441,10.76441,0,0,1-2.26187-3.52343,12.04306,12.04306,0,0,1,0-8.70617,11.13511,11.13511,0,0,1,2.26187-3.55362,10.48515,10.48515,0,0,1,3.45122-2.401,10.76471,10.76471,0,0,1,4.36885-.87691,13.11554,13.11554,0,0,1,2.66095.24548,11.12316,11.12316,0,0,1,2.20017.69182,9.86477,9.86477,0,0,1,1.87592,1.07908,16.40031,16.40031,0,0,1,1.66062,1.39939l-1.66062,1.78272a13.57216,13.57216,0,0,0-2.96945-2.1214,8.30972,8.30972,0,0,0-9.75244,1.725,8.68477,8.68477,0,0,0-1.74728,2.81717,9.50445,9.50445,0,0,0-.63013,3.49192,9.61171,9.61171,0,0,0,.63013,3.50636,8.67218,8.67218,0,0,0,1.75254,2.83161,8.2862,8.2862,0,0,0,2.64649,1.89167,7.90016,7.90016,0,0,0,3.3055.69182,8.32417,8.32417,0,0,0,3.81486-.81522,13.30622,13.30622,0,0,0,3.13878-2.29207l1.60024,1.56743a15.47446,15.47446,0,0,1-1.73808,1.553"/>
            <path id="Path_56" data-name="Path 56" class="cls-4" d="M467.41992,309.92452h-2.61236l-2.52705-5.69209H450.56026l-2.55592,5.69209h-2.49423l9.81545-21.68928h2.27632Zm-10.98378-18.8288-4.91888,10.98248h9.81413Z"/>
            <path id="Path_57" data-name="Path 57" class="cls-4" d="M477.01615,309.92452h-2.42991V290.62707h-7.22933v-2.2448h16.89116v2.2448h-7.23192Z"/>
            <path id="Path_58" data-name="Path 58" class="cls-4" d="M504.39884,290.60344h-13.138v7.35141h11.75438v2.208H491.26081v7.54832h13.29161v2.21461H488.83091V288.39671h15.56662Z"/>
          </g>
        </g>
      </g>
    </g>
  </g>
</svg>
