<svg id="bb4f553b-21c6-49f4-9e4f-926586e9a91f" data-name="b59376ee-520e-4183-8695-6a5489a5764e" xmlns="http://www.w3.org/2000/svg" width="512" height="512" viewBox="0 0 512 512">
  <defs>
    <style>
      .b1a87d2a-2579-4b27-a571-dceeec2c0013 {
        fill: #606161;
      }

      .ba220784-93af-4d87-ac95-3bd86fa305a8 {
        fill: #ef463b;
      }
    </style>
  </defs>
  <g id="f70f54d9-8a23-4404-b892-c0fce025efad" data-name="Layer 1-2">
    <g>
      <path class="b1a87d2a-2579-4b27-a571-dceeec2c0013" d="M54.64059,241.6751v50.57469H44.47868V241.6751Z"/>
      <rect class="ba220784-93af-4d87-ac95-3bd86fa305a8" x="44.47868" y="222.61085" width="10.2473" height="11.78439"/>
      <path class="b1a87d2a-2579-4b27-a571-dceeec2c0013" d="M97.16688,241.6751c17.14288,0,25.49015,8.13379,25.49015,22.13843v28.4576H112.40974v-28.4576c0-7.94165-4.58994-12.3608-15.22151-12.3608H80.62176c-.85394,0-1.23822.46966-1.23822,1.43035v39.36671H69.22164V249.53136c0-5.93489,2.00676-7.85626,7.08771-7.85626H97.16688Z"/>
      <path class="b1a87d2a-2579-4b27-a571-dceeec2c0013" d="M189.02964,219.7288v50.87357c0,14.5597-6.51131,21.64742-18.59457,21.64742H156.45178c-13.51363,0-21.9463-8.24054-21.9463-25.298s8.43267-25.298,21.9463-25.298h22.33057V219.7288Zm-10.24729,50.4039v-18.68H157.41246c-8.71021,0-12.63833,4.58993-12.63833,15.52039s3.92813,15.435,12.63833,15.435h10.05516c8.15514,0,11.31473-3.6506,11.31473-12.25406Z"/>
      <path class="b1a87d2a-2579-4b27-a571-dceeec2c0013" d="M233.66945,241.6751c13.40688,0,21.94629,8.24053,21.94629,25.298s-8.51806,25.298-21.94629,25.298H223.03787c-13.51363,0-21.9463-8.24054-21.9463-25.298s8.43267-25.298,21.9463-25.298Zm-9.67089,9.77763c-8.81694,0-12.63833,4.58993-12.63833,15.52038s3.82139,15.435,12.63833,15.435h8.71021c8.71021,0,12.63833-4.50455,12.63833-15.435s-3.92812-15.52039-12.63833-15.52039Z"/>
      <path class="ba220784-93af-4d87-ac95-3bd86fa305a8" d="M269.599,241.6751V229.69856h10.2473V241.6751h13.9833v9.77763h-13.9833v23.95306c0,5.65736,2.00677,7.57873,6.81019,7.57873h7.00232v9.28661h-9.09448c-10.43944,0-14.944-4.20566-14.944-17.44175V251.45273H262.7248V241.6751H269.599Z"/>
      <path class="ba220784-93af-4d87-ac95-3bd86fa305a8" d="M336.07838,241.6751c12.63833,0,17.63388,7.08771,17.63388,16.67321v23.76092c0,7.27985-1.92136,10.16191-10.43943,10.16191H319.61864c-11.97653,0-16.95075-5.8495-16.95075-15.41364s4.58994-14.55971,17.0575-14.55971h24.03844v-3.82138c0-3.92813-2.19889-7.00232-7.74953-7.00232H305.74207v-9.77763h30.379Zm7.66412,38.12849v-9.47876H319.89618c-5.35849,0-7.27986,2.1989-7.27986,5.9349s2.00677,6.127,7.08773,6.127h21.26316c2.00677,0,2.77532-.76855,2.77532-2.58317Z"/>
      <path class="ba220784-93af-4d87-ac95-3bd86fa305a8" d="M378.22041,219.7288v72.521h-10.1619v-72.521Z"/>
      <path class="ba220784-93af-4d87-ac95-3bd86fa305a8" d="M402.942,241.6751v50.57469H392.78013V241.6751Z"/>
      <rect class="ba220784-93af-4d87-ac95-3bd86fa305a8" x="392.73742" y="222.61085" width="10.24731" height="11.78439"/>
      <path class="ba220784-93af-4d87-ac95-3bd86fa305a8" d="M449.88744,241.6751c12.63833,0,17.63388,7.08771,17.63388,16.67321v23.76092c0,7.27985-1.92136,10.16191-10.43943,10.16191H433.4277c-11.97653,0-16.95075-5.8495-16.95075-15.41364s4.58993-14.55971,17.0575-14.55971h24.03844v-3.82138c0-3.92813-2.19889-7.00232-7.74953-7.00232H419.55112v-9.77763h30.379Zm7.66412,38.12849v-9.47876H433.70524c-5.35847,0-7.27986,2.1989-7.27986,5.9349s2.00677,6.127,7.08773,6.127h21.26316c2.00677,0,2.77532-.76855,2.77532-2.58317Z"/>
    </g>
  </g>
</svg>
