<svg id="b3b1dcdf-aca5-4072-a94b-2dc43f6f3c1b" data-name="b59376ee-520e-4183-8695-6a5489a5764e" xmlns="http://www.w3.org/2000/svg" width="512" height="512" viewBox="0 0 512 512">
  <defs>
    <style>
      .a8b41f65-820e-4eac-910a-55776bcb467e {
        fill: #606161;
      }

      .a8068eb1-9382-4896-a14c-edb98f8f4595 {
        fill: #c82027;
      }
    </style>
  </defs>
  <g id="f03c824d-8aab-4157-bb49-4cd6c32bed38" data-name="Layer 1-2">
    <path class="a8b41f65-820e-4eac-910a-55776bcb467e" d="M59.02131,266.315c.04,1.06-1.94,2.3-2.66,2.86-.21.17-3.4,2.24-3.41,1.89a8.569,8.569,0,0,0-8.33-8.49c-.7,0,1.39-2.03,1.66-2.26.92-.79,2.7-2.58,4-2.58A8.742,8.742,0,0,1,59.02131,266.315Z"/>
    <path class="a8b41f65-820e-4eac-910a-55776bcb467e" d="M64.41131,328.005v7.71a12.40644,12.40644,0,0,1-12.39-12.39v-23.9a5.84262,5.84262,0,0,0-5.83-5.83v-7.71a13.5566,13.5566,0,0,1,13.54,13.54v23.9A4.69246,4.69246,0,0,0,64.41131,328.005Z"/>
    <path class="a8b41f65-820e-4eac-910a-55776bcb467e" d="M295.47132,283.135v-7.71h-127.39v-8.1a13.55872,13.55872,0,0,0-13.55-13.54v7.71a5.84474,5.84474,0,0,1,5.84,5.83v8.1h-95.82v7.71h20.54v11.45h0c-8.57,2.2-13.64,9.92-13.64,19.16a19.9916,19.9916,0,0,0,11.18,17.87l3.37-6.94a12.14493,12.14493,0,0,1,5.3-23.07h16.73v30.75h7.71v-38.46h-22.93v-10.76h67.56v17.72a19.64151,19.64151,0,0,0-12.18-4.3,19.845,19.845,0,1,0,0,39.69,19.64144,19.64144,0,0,0,12.18-4.3v.4a12.40856,12.40856,0,0,0,12.39,12.4v-7.72a4.686,4.686,0,0,1-4.68-4.68v-49.21h93.93v8.5a19.7991,19.7991,0,0,0-11.15,17.75v11.3h7.81c0-4.24,5.55-7.82,12.14-7.82s12.14,3.58,12.14,7.82-5.56,7.82-12.14,7.82h-16v7.71h16c11.13,0,19.85-6.82,19.85-15.53s-8.72-15.53-19.85-15.53a23.48925,23.48925,0,0,0-12.14,3.23,12.09963,12.09963,0,0,1,23.02-4.17l6.97-3.3a19.94174,19.94174,0,0,0-17.96-11.38c-.34,0-.65.08-.99.1v-6.5h25.76Zm-147.28,45.4a12.14,12.14,0,1,1,12.14-12.13A12.14395,12.14395,0,0,1,148.19132,328.535Z"/>
    <path class="a8b41f65-820e-4eac-910a-55776bcb467e" d="M229.10131,293.535h7.71v42.67h-24.44a19.84919,19.84919,0,0,1-8.66-37.71l3.37,6.94a12.13581,12.13581,0,0,0,5.29,23.06h16.73v-34.96Z"/>
    <path class="a8068eb1-9382-4896-a14c-edb98f8f4595" d="M299.45131,324.575l-3.89,3.89,3.89,3.9,3.89-3.9-3.89-3.89Z"/>
    <path class="a8068eb1-9382-4896-a14c-edb98f8f4595" d="M355.12133,226.625c1.27,4.09,8.38,4.23,12.85.93a1.38956,1.38956,0,0,1,1.68.71c4.99,4.5,12.38,8.03,16.89,2.02,4.18-5.25.83-11.81.7-18.13v-.02a46.555,46.555,0,0,1-10.88.37q-.405-.015-.81-.06c-.05,0-.09-.01-.13-.01-.22-.02-.44-.05-.66-.08-.05-.01-.1-.01-.15-.02-.23-.03-.46-.06-.69-.11-.3-.05-.6-.1-.9-.17-.27-.05-.55-.12-.81-.18h-.01c-.24-.06-.46-.12-.69-.19-.06-.01-.12-.03-.17-.04-.22-.06-.43-.12-.64-.2-.39-.11-.77-.24-1.15-.38l-.42-.15c-.15-.06-.31-.12-.46-.18-1.02-.4-2.02-.86-3-1.36-.2-.11-.4-.21-.59-.31-.44-.23-.88-.47-1.31-.72-3.24,6.5-10.76,11.85-8.65,18.28Zm3.65-2.61a7.53614,7.53614,0,0,1,.4-2.04c.08-.24.18-.47.28-.7a14.25358,14.25358,0,0,1,3.31-4.32v.34l-.01.04a10.53181,10.53181,0,0,0-1.93,2.62c-.08.15-.15.29-.22.44h0a11.90154,11.90154,0,0,0-.47,1.2c-.08.27-.15.53-.21.79a7.00914,7.00914,0,0,0-.12.78,4.19164,4.19164,0,0,0-.02.61,3.35585,3.35585,0,0,0,.11.85,2.806,2.806,0,0,0,.33.75c.66,1.02,3.07-.62,4.43-1.27,4.78-1.94,8.07,3.2,12.45,4.3,1.95.66,3.35.43,4.33-.35.06-.05.13-.1.19-.16l.18-.18a1.53876,1.53876,0,0,0,.17-.19,1.55919,1.55919,0,0,0,.16-.2c.05-.07.1-.14.14-.21a1.64539,1.64539,0,0,0,.14-.22c.05-.08.09-.16.13-.24.01-.02.02-.03.02-.05a5.11986,5.11986,0,0,0,.36-.9c.05-.16.1-.33.14-.5a.93819.93819,0,0,0,.04-.16c.04-.17.08-.34.11-.52.05-.27.08-.54.11-.81.03-.24.05-.47.06-.71.02-.36.03-.73.03-1.1,0-.24,0-.49-.02-.73-.01-.09-.01-.17-.02-.25,0-.05-.01-.11-.01-.16a5.44092,5.44092,0,0,0-.05-.58,1.78878,1.78878,0,0,0-.02-.23.12672.12672,0,0,0-.01-.06c-.03-.25-.06-.49-.09-.73-.04-.26-.09-.51-.14-.76a.052.052,0,0,0,.02.04.2351.2351,0,0,1-.02-.08,20.38162,20.38162,0,0,1,.88,2.51c.05.17.1.35.14.53a3.15534,3.15534,0,0,1,.13.53,5.2305,5.2305,0,0,1,.12.54c.06.32.12.64.16.95.03.25.06.49.08.72a.27659.27659,0,0,1,.01.09c.03.28.04.55.05.82,0,.26-.01.52-.02.77a8.37707,8.37707,0,0,1-.19,1.37c-.04.16-.09.32-.14.47a3.38724,3.38724,0,0,1-2.12,2.24c-4.09,1.28-8.1-1.51-11.78-3.95-2.67-2.09-6.14,2.25-9.84.82-.66-.35-1.34-.36-1.67-1.05v-.04a6.90374,6.90374,0,0,1-.1-1.09A5.55835,5.55835,0,0,1,358.77132,224.015Z"/>
    <path class="a8068eb1-9382-4896-a14c-edb98f8f4595" d="M467.52132,283.125v-7.71h-30.03a16.01222,16.01222,0,0,0,1.04-5.81,1.531,1.531,0,0,0-.56-1.67c-.05-.04-.1-.07-.16-.11-.04-.03-.08-.05-.12-.08a8.16771,8.16771,0,0,0-.98-.5c-.11-.05-.22-.11-.33-.17-2.09-3.22-4.45-3.78-4.45-8.01v-.32a4.727,4.727,0,0,0-1.29-3c-.1-.11-.21-.21-.32-.31a3.90711,3.90711,0,0,0-.41-.3,2.1652,2.1652,0,0,0-.3-.18,3.43507,3.43507,0,0,0-.44-.19,3.57925,3.57925,0,0,0-.35-.11,4.216,4.216,0,0,0-1.15-.14c-.02-.01-.04-.01-.05-.03a5.6036,5.6036,0,0,1-.61-.38,7.36037,7.36037,0,0,1-1.08-.93,6.14614,6.14614,0,0,1-.42-.47c-2-2.44-2.78-6.1-3.05-9.05-.2-4.48,1.64-8.58,2.58-12.89a1.046,1.046,0,0,0,.14-.47,2.4282,2.4282,0,0,1,.07-.41v-.02a.04934.04934,0,0,1,.01-.03l.04.02c.01-.35.06-.7.09-1.05h.03c1.2-6.64-4.22-11.72-9.69-14.43a.04809.04809,0,0,0-.02-.06q-.02-.01-.01-.02c.84-.33,1.94.79,2.82,1.11h.01s.09.06.13.09h.02c.09.03.17.05.26.08,2.31,1.55,4.64,3.84,7.44,4.65h.01a1.66059,1.66059,0,0,1,.22.03.27659.27659,0,0,0,.01.09c.17.03.33.07.5.11,2.51.6,5.1,1.41,7.73,1.34v-.04c6.42.96,14.14-2.38,14.75-9.58.35-3.09.02-6.37,1.53-9.21-6.35,2.67-5.09,8.09-5.46,13.42-4.03,9.11-19.43-1.19-25.1-3.72a31.10553,31.10553,0,0,0-4.49-1.82c-.49-.16-.98-.29-1.46-.42-.96-.25-1.9-.45-2.84-.6-.47-.07-.93-.14-1.39-.18a43.22944,43.22944,0,0,0-11.61.52c-.01,0-.01.01-.02,0-1.13.19-2.26.39-3.4.59q-1.14.2-.01,0c-.57.1-1.14.21-1.71.32-1.14.21-2.29.43-3.46.62-.58.1-1.16.2-1.75.29.05.24.1.49.15.73.88,7.13,4.43,16-2.1,20.62a12.35,12.35,0,0,1-16.53-3.03c-.67-.36-1.67-1.05-2.36-.73-3.78,2.98-7.81,1.54-12.2.44a3.88954,3.88954,0,0,1-2.95-5.14c2.11-6.53,6.41-11.43,10.18-17.23-.14-.08-.27-.17-.41-.25-.85-.53-1.68-1.08-2.49-1.66-.41-.29-.82-.59-1.23-.87-.4-.3-.8-.59-1.2-.89-.15-.14-.3-.27-.46-.4a9.53914,9.53914,0,0,0-1.03-.73c-.35-.23-.71-.45-1.07-.66a17.47863,17.47863,0,0,1-4.08-2.81c-.1-.11-.21-.22-.3-.34a5.10859,5.10859,0,0,1-.54-.75c-.08-.13-.16-.27-.23-.41l-.39-.66h-.01c-.4-.67-.81-1.35-1.23-2.02v-.01c-.43-.67-.87-1.32-1.36-1.94-.16-.2-.33-.4-.5-.6-.2-.22-.4-.43-.61-.64a7.76219,7.76219,0,0,0-1.07-.92,7.923,7.923,0,0,0-2.57-1.27,3.8694,3.8694,0,0,0-.17-1.54c-.05-.12-.09-.24-.15-.36h0a5.56042,5.56042,0,0,0-.55-.9q-.165-.21-.36-.42c-.13-.13-.26-.27-.4-.4-.15-.13-.29-.26-.45-.39a10.16341,10.16341,0,0,0-.88-.67c-.46-.33-.95-.66-1.45-1-.16-.12-.34-.23-.51-.34-.33-.23-.68-.46-1.01-.7-2.67-1.91-5.19-4.31-4.91-8.82a.73711.73711,0,0,0-.14.04,1.1232,1.1232,0,0,0-.28.16,1.15577,1.15577,0,0,0-.25.2,3.24551,3.24551,0,0,0-.69,1.26,1.04,1.04,0,0,0-.06.16c-.05.17-.09.34-.13.51-.02.08-.04.17-.06.25-.01.09-.03.18-.04.26a2.51732,2.51732,0,0,0-.04.27c-.02.11-.04.23-.05.35-.01.1-.02.2-.03.29-.01.12-.01.23-.02.34-.02.26-.02.5-.02.72a2.17688,2.17688,0,0,0,.14.7h0a2.33826,2.33826,0,0,0,.34.6,3.37923,3.37923,0,0,0,.31.35,6.29956,6.29956,0,0,0,.94.72c.21.13.42.26.64.39.23.13.47.27.7.41a.40534.40534,0,0,1,.09.05c.2.12.4.25.58.38a2.372,2.372,0,0,1,.3.23,1.66527,1.66527,0,0,1,.14.13,1.30461,1.30461,0,0,1,.22.19h-.02a.12677.12677,0,0,0-.06-.02l.07.07a11.98331,11.98331,0,0,1-1.26-.47,16.48837,16.48837,0,0,1-1.67-.86c-1.64.64-3.57,1.45-5.47.45h.09s-.06-.03-.09-.04c1.67.03,3.33.06,4.69-.88-.24-.16-.5-.33-.74-.49a12.42182,12.42182,0,0,1-4.28.39c.04-.02.07-.03.11-.05h-.1c1.19-.56,2.37-.36,3.33-.96-.27-.18-.55-.37-.83-.55-.93.49-1.97.2-3.05.13a2.30049,2.30049,0,0,0,.26-.03c-.09-.01-.17-.01-.26-.02a10.85053,10.85053,0,0,1-1.12.05,4.69944,4.69944,0,0,1,1.12-.05,21.80839,21.80839,0,0,0,2.57-.39c-.29-.18-.58-.36-.88-.54a20.4576,20.4576,0,0,1-4.14-.02c.26,0,.52,0,.78-.01-.26-.02-.52-.03-.78-.04a15.93717,15.93717,0,0,0,3.42-.34c-.07-.04-.15-.08-.22-.12-.2-.11-.38-.21-.56-.33a5.52693,5.52693,0,0,1-2.63.16h.2a1.41574,1.41574,0,0,1-.2-.04,9.4804,9.4804,0,0,0,2.36-.28c-.18-.11-.35-.22-.52-.34a12.65436,12.65436,0,0,1-2.26-.31,1.01228,1.01228,0,0,0,.3.02l-.3-.06a4.69925,4.69925,0,0,0,1.55-.17c-.18-.14-.36-.27-.53-.41-.53-.01-1.06-.11-1.58-.12.21,0,.43.01.64,0-.21-.02-.43-.04-.64-.05a5.88183,5.88183,0,0,0,1.32-.07,2.52469,2.52469,0,0,1-.25-.21,8.55884,8.55884,0,0,1-2.41-.37h.14a1.30207,1.30207,0,0,1-.14-.05,6.83846,6.83846,0,0,0,1.72-.23c-.14-.14-.27-.29-.4-.43a4.31559,4.31559,0,0,1-1.97-.66.2201.2201,0,0,1,.08.01c-.03-.02-.05-.04-.08-.06a8.35706,8.35706,0,0,1,1.69.42c-.22-.24-.43-.49-.63-.74a5.80508,5.80508,0,0,1-2.39-1.01c.05.02.09.03.14.05a.7108.7108,0,0,1-.14-.1,18.28677,18.28677,0,0,0,1.95.51,31.85318,31.85318,0,0,1-3.74-6.32c0,.02-.01.05-.01.07-.11.49-.19.98-.25,1.46-.02.19-.04.38-.05.57a10.65692,10.65692,0,0,0-.03,1.13c.01.45.03.9.08,1.35a2.69291,2.69291,0,0,0,.04.28,14.6145,14.6145,0,0,0,.82,3.33c.04.1.07.2.11.29a14.10345,14.10345,0,0,0,.88,1.84c.15.27.3.53.46.78l.02.02c.08.13.17.26.25.38.09.13.18.26.27.38a14.67781,14.67781,0,0,0,1.18,1.41l.34.34c.22.21.44.42.67.62h.01c.23.2.47.39.72.58.19.14.38.28.57.4.2.13.4.26.6.37.09.06.18.13.27.2h.01a6.35838,6.35838,0,0,1,.75.64c.07.07.15.15.22.23a7.57416,7.57416,0,0,1,.63.75c.17.22.33.45.48.68.31.46.59.94.88,1.41.14.24.29.47.44.7a11.17807,11.17807,0,0,0,1.16,1.55c.07.08.14.15.22.23a2.391,2.391,0,0,0,.23.22c.07.06.13.11.2.17.07.05.13.11.2.16.01.01.03.02.04.03a1.62465,1.62465,0,0,0,.17.11,1.27891,1.27891,0,0,0,.21.14c.06.04.14.09.21.13.08.04.16.09.25.13s.19.08.28.13a.56377.56377,0,0,1,.12.04.37524.37524,0,0,1-.1.01,3.35921,3.35921,0,0,1-.85-.09,4.10757,4.10757,0,0,1-.46-.15,4.38306,4.38306,0,0,1-.64-.34h-.01a17.49177,17.49177,0,0,1-1.91-1.59c-.16.11-.3.21-.45.33a7.00447,7.00447,0,0,0-.71.62c-.08.08-.16.17-.25.25a9.4369,9.4369,0,0,0-1.02,1.38c-.1.16-.19.33-.28.49a14.22336,14.22336,0,0,0-.87,2c-.39,1.08-.71,2.21-1.1,3.33-.16.45-.32.9-.52,1.34,0,0,0,.03-.01.04a.0098.0098,0,0,1,.01.01c.03.02.07.03.1.05,0,.01-.01.02-.01.03a6.80365,6.80365,0,0,1-.46.79c-.07.12-.15.23-.23.35-.05.07-.11.14-.16.22-.08.09-.15.19-.23.29l-.36.42c-.08.09-.16.18-.25.27-.24.25-.49.51-.74.75l-.18.17c-.48.45-.98.89-1.48,1.33l-.3.27c-.49.43-.97.86-1.42,1.31-.11.11-.23.22-.34.33a10.11917,10.11917,0,0,0-2.02,2.81q-.165.39-.3.81c-.04.15-.08.3-.11.45a6.18838,6.18838,0,0,0-.14,1.31.40481.40481,0,0,0,0,.11v.05a.15773.15773,0,0,0,0,.07c-.01.02,0,.03,0,.05a1.10408,1.10408,0,0,0,.02.18c.02.08.03.16.05.24a3.12266,3.12266,0,0,0,.15.43.03671.03671,0,0,0,.01.03,2.78478,2.78478,0,0,0,.45.63,3.18886,3.18886,0,0,0,.6.5c.12.07.25.14.38.21a.18529.18529,0,0,0,.07.02,2.92876,2.92876,0,0,0,.77.22c.05,0,.09.02.14,0a.86015.86015,0,0,0,.16.01,1.46041,1.46041,0,0,1,.05.2h0a5.91685,5.91685,0,0,0,.55,1.4,3.62072,3.62072,0,0,0,.44.59,3.12522,3.12522,0,0,0,.62.51c.68.56,1.82.29,2.64.42,1.69-.33,3.34-.82,5.04-1.19,0-.02.02-.03.03-.05a12.14646,12.14646,0,0,1,1.45-1.56v.11c-.05.56-.55.88-.9,1.38.17-.04.34-.07.51-.1.01.01.02,0,.03,0,.16-.03.31-.06.47-.09.01,0,.03-.02.04-.04a3.09417,3.09417,0,0,0,.84-1.68l.03-.27c.01-.08.01-.17.02-.25v-.05a1.02564,1.02564,0,0,1,.05.24,1.63358,1.63358,0,0,1,.02.22c0,.04.01.07.01.11a4.02646,4.02646,0,0,1-.6,1.67c.02,0,.05-.01.07-.01a14.26807,14.26807,0,0,1,1.48-.14h.04c0-.02.01-.02.01-.04.09-.26.17-.51.25-.77a3.91281,3.91281,0,0,0,.14-.82,1.78684,1.78684,0,0,0,.01-.4,2.0522,2.0522,0,0,0-.1-.65v-.07a.98187.98187,0,0,1,.27.51.31954.31954,0,0,1,.03.14,1.47541,1.47541,0,0,1,.01.21v.21a9.017,9.017,0,0,1-.19,1.72c.16.02.32.04.48.05.15.01.31.02.47.03a.10066.10066,0,0,0,.01-.03c.19-.33.36-.65.51-.98.04-.12.09-.23.13-.35a7.635,7.635,0,0,0,.26-1.02c.02-.12.03-.24.04-.36a4.2833,4.2833,0,0,0,.02-.62,4.66873,4.66873,0,0,0-.03-.52c-.02-.12-.03-.24-.05-.36a7.644,7.644,0,0,0-.17-.77c-.02-.06-.04-.13-.06-.2a13.09791,13.09791,0,0,1,.51,1.57c.03.12.05.24.08.35a5.50011,5.50011,0,0,1,.11.69c.01.13.02.26.02.39,0,.14,0,.28-.01.42a.90837.90837,0,0,1-.03.23,3.38845,3.38845,0,0,1-.62,1.6c.55.02,1.09.02,1.62-.01a.03671.03671,0,0,0,.01-.03c.21-.46.4-.94.57-1.41.05-.15.1-.31.15-.47.09-.32.17-.63.23-.95h0a8.35358,8.35358,0,0,0,.12-.99,5.761,5.761,0,0,0,.01-.59c-.01-.12-.01-.24-.02-.36-.03-.21-.06-.43-.1-.64a3.40259,3.40259,0,0,0-.07-.34c-.03-.11-.06-.23-.09-.35a6.634,6.634,0,0,0-.37-.99,7.52313,7.52313,0,0,1,1.39,3.05,7.12122,7.12122,0,0,1,.13,1.12c0,.2,0,.4-.02.6a4.44987,4.44987,0,0,1-.73,2.25,12.742,12.742,0,0,0,2.13-.46v-.02c.07-.33.14-.67.21-.99.12-.66.23-1.3.32-1.94.04-.32.07-.64.1-.97.02-.21.04-.43.05-.64.02-.38.03-.76.02-1.14,0-.32-.02-.64-.04-.96a15.77272,15.77272,0,0,0-.32-2.2c-.06-.25-.12-.5-.19-.75,0,.01.01.01.02.02a.63093.63093,0,0,1-.02-.07,7.2702,7.2702,0,0,1,1.66,4.21c.02.22.03.43.03.65,0,.27-.01.54-.03.82a14.10449,14.10449,0,0,1-.74,3.55.03671.03671,0,0,1-.01.03h.02a7.226,7.226,0,0,0,2.03-1.36c.1-.09.19-.18.28-.27l.04-.04a4.1188,4.1188,0,0,0,.28-.31c.03-.04.07-.08.1-.12.08-1.07.1-2.2.07-3.35a28.272,28.272,0,0,0-.76-5.79c-.11-.45-.24-.89-.38-1.32-.17-.52-.36-1.03-.57-1.52-.19-.43-.4-.84-.61-1.24l-.3-.51c-.1-.16-.2-.31-.3-.46-.2-.28-.41-.55-.62-.8a8.47193,8.47193,0,0,0-8.11-2.76c.16-.04.33-.08.48-.11-.15.02-.32.04-.48.06a8.89809,8.89809,0,0,1,9.95,3.96h0a13.74507,13.74507,0,0,1,.75,1.22c.11.21.22.42.33.64q.11.22,0,.01.195.375.36.78c.17.4.33.8.47,1.22h0c.12.35.22.69.32,1.03a19.592,19.592,0,0,1,.47,2.12c.07.42.13.84.17,1.26.07.63.1,1.25.11,1.86.01.36,0,.72-.01,1.07l.09-.32a2.46382,2.46382,0,0,0,.07-.29q.105-.42.18-.87v-.05a12.84907,12.84907,0,0,0,.12-1.29v-.07l.01.01c0,.01.01.01,0,.02a2.53425,2.53425,0,0,1,.12.36,4.45909,4.45909,0,0,1,.19,1.07,2.08813,2.08813,0,0,1,.01.25v.23a1.14717,1.14717,0,0,1-.01.19v.11a1.325,1.325,0,0,0-.02.16v.05a4.54033,4.54033,0,0,1-.09.51c-.04.15-.07.29-.12.43,0,.01-.01.03-.01.04l-.03.12a.49471.49471,0,0,1-.04.13,8.42289,8.42289,0,0,1-1.46,2.54c-.09.11-.18.23-.28.34a6.97957,6.97957,0,0,1-.58.64c-.19.21-.4.41-.61.6a6.44478,6.44478,0,0,1-.64.55,7.14625,7.14625,0,0,1-.62.5c-2.92,1.56-6.4.9-9.58,1.3.01.02.02.02.02.04a18.50949,18.50949,0,0,0,1.27,1.68c.32.37.65.72.99,1.07.51.52,1.04,1.03,1.59,1.54.01-.01.02-.01.03-.02,6.31-1.86,13.49-4.07,13.86-11.47.02-.31.02-.64.01-.98-.01-.2-.02-.4-.03-.61a5.2999,5.2999,0,0,1,.07.66c.01.22.02.42.03.63,0,.25,0,.48-.01.72a9.51,9.51,0,0,1-.26,1.81,8.28412,8.28412,0,0,1-.31,1l-.18.45a8.45588,8.45588,0,0,1-.43.85h0a6.13736,6.13736,0,0,1-.46.74c-2.44,3.56-7.25,5.54-11.64,6.82q.6.555,1.2,1.08h.04a15.41733,15.41733,0,0,0,10.69-5.93c.17-.22.34-.44.5-.67.17-.24.33-.49.49-.74a18.45724,18.45724,0,0,0,2-4.37h0a20.80672,20.80672,0,0,0,.66-2.96q.105-.75.15-1.53c.03-.46.04-.92.03-1.39q-.015-.975-.12-1.95-.07-.65.01.02c.08.67-.01-.05-.01-.07.08.22.15.43.21.65a9.87258,9.87258,0,0,1,.32,1.15c.05.2.09.4.13.6a12.84348,12.84348,0,0,1,.24,1.73c.01.19.02.39.03.58.01.37,0,.73-.02,1.1a12.40217,12.40217,0,0,1-.23,1.82,13.99114,13.99114,0,0,1-2.29,5.26c-3.16,3.94-6.32,7.89-11.19,8.22.14.13.28.27.4.4l.4.4c.25.26.49.52.73.78a16.01,16.01,0,0,1,1.99,2.71c.08.14.16.28.24.43a10.03384,10.03384,0,0,1,.51,1.1,9.52529,9.52529,0,0,1,.39,1.1,5.29721,5.29721,0,0,1,.15.57.2351.2351,0,0,1,.02.08c-.01,0-.02-.02-.02-.03-.35-.53-.68-1.07-1.01-1.61a27.78856,27.78856,0,0,0-2.18-3.24c-.2-.25-.42-.48-.64-.71-.11-.12-.23-.23-.35-.34s-.24-.21-.36-.32v.06c.11.44.23.88.36,1.31.26.87.56,1.75.87,2.62.16.45.33.89.5,1.34.5,1.28,1.02,2.56,1.55,3.83.2.49.4.97.59,1.46.21.5.41.99.6,1.49a.24849.24849,0,0,1,.08.01q.03.01.01.02a14.24632,14.24632,0,0,0,1.18,2.38c.09.16.19.31.29.46,0,.01,0,.02.01.02.87,1.36,1.91,2.65,2.9,3.98.1.14.2.28.31.42a.031.031,0,0,0,.01-.02,11.88151,11.88151,0,0,1,1.56-2.44q.195-.24.39-.45.13-.14.02-.02c.16-.18.34-.35.52-.52.07-.07.15-.14.23-.21a8.17933,8.17933,0,0,1,4.24-2.04v-.03c.01-.03.03-.08.04-.12h.01a4.76649,4.76649,0,0,0,.98-.09,1.32035,1.32035,0,0,1,.28-.02.85775.85775,0,0,1,.22.02c.02-.01.03,0,.04.01a.70266.70266,0,0,1,.23.08.27867.27867,0,0,1,.13.07q.04.03.02.02l.03.03h-.05a8.00377,8.00377,0,0,0-6.06,3.11c-.11.14-.22.28-.32.42a16.43414,16.43414,0,0,0-1.26,2.21c-.19.4-.37.8-.55,1.21-.16.38-.32.76-.49,1.16-.16.39-.33.78-.5,1.17-.11.26-.23.52-.35.78-.09.2-.19.41-.29.62a15.46629,15.46629,0,0,1-1.89,3.07c-.03.12-.05.24-.07.35a.78335.78335,0,0,0-.02.14c-.01.04-.01.08-.02.11v.06a.22667.22667,0,0,0-.01.04c-.01.17-.03.34-.03.5a2.42945,2.42945,0,0,0,0,.27,2.88589,2.88589,0,0,0,.02.41,2.84851,2.84851,0,0,0,.04.4,6.1181,6.1181,0,0,0,.22,1.05,10.35618,10.35618,0,0,0,.46,1.16,9.74957,9.74957,0,0,0,.61,1.09c.1.16.21.32.32.48.23.31.46.62.71.91q.18.225.39.45a27.60329,27.60329,0,0,0,5.29,4.29,6.74388,6.74388,0,0,0,2.85.53c.97,0,1.99-.11,2.99-.08a31.32791,31.32791,0,0,0,4.07.57c.21.01.42.01.62.01.12,0,.24,0,.35-.01a1.94173,1.94173,0,0,0,.24-.02,3.88712,3.88712,0,0,0,.51-.08,3.58288,3.58288,0,0,0,.35-.11.53933.53933,0,0,0,.13-.07,1.05276,1.05276,0,0,0,.11-.07l.06-.06c.25-.23.31-.58.07-1.08-.03-.05-.06-.11-.09-.17-.04-.07-.09-.14-.14-.21a5.91261,5.91261,0,0,0-.5-.62c-.11-.1-.22-.21-.32-.32-.31-.31-.61-.66-.93-1.03-.21-.23-.42-.48-.63-.72-.12-.13-.25-.27-.36-.4-.13-.14-.26-.27-.39-.4-1.18-1.15-2.5-2.01-4.05-1.49-2.8.94-4.73.65-5.77-.35a1.47676,1.47676,0,0,1-.25-.25,2.87108,2.87108,0,0,1-.49-.8,3.9753,3.9753,0,0,1-.15-.49,1.80188,1.80188,0,0,1-.06-.32c-.02-.12-.03-.24-.04-.35a3.98683,3.98683,0,0,1,.02-.77v-.05c.01-.12.03-.24.05-.37v-.04c.02-.12.05-.24.08-.36.04-.16.08-.33.14-.5h0a2.63307,2.63307,0,0,1,.1-.3l.12-.3c.11-.27.24-.54.38-.81a2.15116,2.15116,0,0,0,.14-.26c.1-.16.2-.33.31-.5a12.77342,12.77342,0,0,1,1.44-1.78c3.11-2.4,7.18-3.01,10.97-3.69v-.02a.56363.56363,0,0,0,.01-.07c.01,0,.01-.01.02-.01l.66-.12v-.02a.56363.56363,0,0,0,.01-.07h.02a8.09721,8.09721,0,0,0,3.79-1.93,7.59537,7.59537,0,0,0,1.21-1.39,6.7268,6.7268,0,0,0,.4-.63q.165-.285.3-.57c.06-.1.1-.2.15-.3.07-.16.14-.33.2-.49a11.61282,11.61282,0,0,0,.25-7.17c.01.01.03.03.03.04h.01a.47457.47457,0,0,0,.02.05c2.16,3.18,1.13,7.75-1.4,10.65a9.32681,9.32681,0,0,1-1.29,1.23,7.943,7.943,0,0,1-.76.53c-3.76,2.25-8.67,2.08-12.38,4.23a10.2511,10.2511,0,0,0-1.1.76,8.68467,8.68467,0,0,0-1.49,1.48c-.05.06-.1.11-.15.16a1.13087,1.13087,0,0,0-.1.13.69981.69981,0,0,0-.08.1,1.15039,1.15039,0,0,0-.21.98.83054.83054,0,0,0,.06.21,1.40957,1.40957,0,0,0,.17.32,1.78461,1.78461,0,0,0,.24.32,2.31986,2.31986,0,0,0,.26.3l.41.41c.2.2.41.4.59.6,2.41,1.58,5.55,1.5,8.33,1.28,9.25-.8,18.4-3.63,27.74-3.09,1.64-.34,4.46.56,6.23.06a.60337.60337,0,0,0,.19-.06,1.80088,1.80088,0,0,0,.21-.08,1.195,1.195,0,0,0,.16-.08,1.95791,1.95791,0,0,0,.95-1.27,6.12341,6.12341,0,0,1,1.28-2.93,6.90383,6.90383,0,0,1,1.28-1.26c.07-.05.14-.1.21-.14.07-.05.15-.1.23-.15a4.13622,4.13622,0,0,1,.59-.31c.11-.05.21-.1.32-.14.1-.04.19-.07.29-.1a7.71317,7.71317,0,0,1,5,.26c.15.05.29.11.44.17.38.17.76.34,1.14.54l.33.18c.11.07.22.13.33.19.11.07.21.13.32.2.43.27.84.56,1.24.87.19.14.37.28.55.43.01.01.03.02.04.03a13.97641,13.97641,0,0,1,1.31,1.23,13.36781,13.36781,0,0,1,1.13,1.31,2.19637,2.19637,0,0,1,.18.14c.14.11.27.23.4.35a.138.138,0,0,1,.04.03c.23.21.44.41.64.61,5.79,6.03-3.31,9.85-7,15.02-1.03,1.6-2.71,3.39-2.76,5.31.02,0,.03.01.04.01v.03a16.14737,16.14737,0,0,0,4.55,1.22h-35.72a1.79357,1.79357,0,0,0,.37-.71,1.54745,1.54745,0,0,0,.06-.31,3.288,3.288,0,0,0,.01-.83c-.03-.39-.1-.78-.17-1.18a1.84942,1.84942,0,0,1-.04-.23,10.00566,10.00566,0,0,1-.17-1.17,3.76976,3.76976,0,0,1-.01-.58v-.05c.04-.22.08-.45.11-.67.03-.24.06-.48.08-.72.14-1.92-.08-3.83-.05-5.78q.045-.54.12-1.08c.04-.37.1-.74.16-1.11a10.73147,10.73147,0,0,0,.14-2.99,5.47625,5.47625,0,0,0-.4-1.54c-.01-.03-.02-.05-.03-.08-3.38-.18-7.04.59-10.3,1.11,6.67,3.21,6.7,11.84,1.27,16.25a2.93122,2.93122,0,0,0-.58,1.67h-57.51v7.71h28.37v6.7c-.5-.04-.97-.15-1.47-.15a19.8729,19.8729,0,0,0-19.85,19.85v6.83a19.85,19.85,0,0,0,39.7,0v-6.83a19.77365,19.77365,0,0,0-10.67-17.49v-8.91h37.45v11.45c-8.56,2.2-13.64,9.92-13.64,19.16a19.99166,19.99166,0,0,0,11.18,17.87l3.37-6.94a12.14494,12.14494,0,0,1,5.3-23.07h16.73v30.75h7.71v-38.46h-22.93v-10.76h58.3v6.65c-.49-.03-.97-.1-1.47-.1a19.87078,19.87078,0,0,0-19.84,19.85v6.83a19.84938,19.84938,0,0,0,37.72,8.64l-6.94-3.36a12.11885,12.11885,0,0,1-23.03-4.84h21.11v-7.71h-21.11a12.11863,12.11863,0,0,1,23.02-4.86l6.94-3.36a19.83649,19.83649,0,0,0-8.69-8.87v-8.87h16.92Zm-139.89-85.98h.01a1.34047,1.34047,0,0,1,.2.01,1.57838,1.57838,0,0,1,.18.3c-1.33,1.11-2.04,3.21-3.9,3.24-.09-.01-.19-.01-.28-.02.47-1.97,1.81-3.56,3.79-3.53Zm14.75,112.38v6.83a12.145,12.145,0,0,1-24.29,0v-6.83a12.145,12.145,0,0,1,24.29,0Zm68.49-34.11c1.89-.84-.04-3.12.2-4.59,2.78-7.42,4.36-6.78,10.27-11.16a24.57145,24.57145,0,0,0-4.17-5.35c-2.61-2.64-5.62-4.93-8.25-7.52-.61-.59-1.2-1.2-1.76-1.84-.26-.06-.53-.12-.79-.16-.2-.03-.4-.06-.59-.08-.2-.03-.4-.04-.6-.06a29.86624,29.86624,0,0,0-6.17.4,28.9858,28.9858,0,0,1-6.27.43h-.03s.04-.01.07-.02c4.42-1.21,9.29-2.38,13.91-1.56.02,0,.04.01.06.01a16.97121,16.97121,0,0,1-2.79-8.5v-.03c.2,0,.4,0,.6.02a17.13377,17.13377,0,0,0,3.79,8.86c.28.36.58.71.88,1.06q.525.6,1.08,1.17l.6.6c.32.32.66.62,1,.93,1.01.91,2.08,1.77,3.16,2.6.7.54,1.41,1.06,2.12,1.57.02.01.03.02.05.03q.165.15.33.33c1.87,1.87,3.23,4.55,5.03,6.13a9.70245,9.70245,0,0,0,1.54,1.91c.38.38.79.73,1.2,1.09.22.17.43.35.65.54q.33.255.66.54c.5.41,1,.81,1.46,1.24.17.16.34.32.5.49a7.477,7.477,0,0,1,2.3,4.28c.74,1.31,1.07,3.88,2.08,5.52a.06015.06015,0,0,1,.04.01c.01.01.01.02.02.03a.47674.47674,0,0,1,.22.05q.06.03.02,0c.22.21.13.67.31,1.02h-22.73Z"/>
  </g>
</svg>
