<svg id="Layer_1" data-name="Layer 1" xmlns="http://www.w3.org/2000/svg" viewBox="0 0 745.71394 521.99518">
  <defs>
    <style>
      .linkedin__path {
        fill: #707070;
        fill-rule: evenodd;
      }
    </style>
  </defs>
  <g id="Page-1">
    <g id="Dribbble-Light-Preview">
      <g id="icons">
        <path id="linkedin-_168_" data-name="linkedin-[#168]" class="linkedin__path" d="M324.99735,496.41865V287.17815C399.278,322.1335,456.80869,355.90546,524.84928,392.29906,468.73071,423.43117,399.278,458.33189,324.99735,496.41865M738.96441,183.11319c-12.81355-16.89508-34.65267-30.02154-57.90161-34.37276-68.33929-12.9626-494.67329-12.999-562.97446,0A99.07829,99.07829,0,0,0,68.57965,173.81c-60.09314,55.7829-41.26255,354.88775-26.778,403.33367,6.091,20.97321,13.96507,36.10232,23.8816,46.02454,12.776,13.12646,30.269,22.17479,50.36209,26.2165,56.26763,11.65179,346.14835,18.15129,563.82842,1.74777a97.61291,97.61291,0,0,0,51.8106-26.5078c55.56216-55.54622,51.77419-371.47334,7.28009-441.51146" transform="translate(-27.14296 -139.00482)"/>
      </g>
    </g>
  </g>
</svg>
