<svg id="Layer_1" data-name="Layer 1" xmlns="http://www.w3.org/2000/svg" width="3665.3636" height="3665.3636" viewBox="0 0 3665.3636 3665.3636">
  <defs>
    <style>
      .cls-1 {
        fill: #fff;
      }

      .cls-2 {
        fill: #dbdbdb;
      }
    </style>
  </defs>
  <path class="cls-1" d="M-14.376-10.63681V3675.36362H3674.28509V-10.63681ZM1666.33331,829.64682a694.5494,694.5494,0,0,1,38.81189-66.33545c37.93726-57.67114,82.68018-110.31311,128.05164-162.16241,82.16076,75.27307,153.93542,165.00494,191.84533,270.15216.02735.05462.02735.10937.05445.13672a2.55373,2.55373,0,0,0,.24609.65588c5.98584,17.00079,13.11963,33.2088,16.7,49.41675,29.929,103.86267,21.75659,229.59119-46.27344,322.52087h.05469l-.082.08191c-9.73022,18.03919-21.9751,35.53186-33.29053,52.66931-37.90991,57.69825-82.68017,110.313-128.05188,162.16236-75.87439-69.506-142.04577-151.42078-181.62292-246.373,1.06592.98389,2.15918,1.968,3.2251,2.92456-70.51709-115.12353-62.80957-275.86468,11.56164-386.615C1667.15338,829.12747,1666.74335,829.37351,1666.33331,829.64682Zm253.44055,1870.80811q14.67554,10.3872,36.51709,10.383a73.85586,73.85586,0,0,0,26.67334-4.47631,64.63673,64.63673,0,0,0,21.66089-14.14087l29.71558,32.22192q-27.21387,31.147-79.48047,31.148-32.584,0-57.64209-12.71021-25.06532-12.70348-38.6665-35.26562-13.60914-22.55531-13.60474-51.19727,0-28.27587,13.42554-51.0166a94.06786,94.06786,0,0,1,36.87719-35.44482q23.44373-12.7035,52.449-12.71021,28.27807,0,51.19726,12.17237a88.932,88.932,0,0,1,35.981,34.90722q13.06494,22.741,13.0686,52.80884,0,1.07337-1.074,15.03711H1901.15668A45.34314,45.34314,0,0,0,1919.77386,2700.45493Zm-324.00439-176.32544q-9.66687,9.12927-25.06177,9.13012-15.39843,0-25.06177-8.95068a30.32132,30.32132,0,0,1,0-44.39575q9.66725-8.94433,25.06177-8.94946,15.38966,0,25.06177,8.59228a27.54714,27.54714,0,0,1,9.66626,21.48047Q1605.43573,2515.00009,1595.76947,2524.12949Zm2.86462,35.9812v192.61523H1542.7829V2560.11069Zm-724.82751-733.0918s82.32544-84.313,156.80517-124.58447c47.82154-25.85718,113.67774-61.46582,205.052-62.37317,90.63818-.90015,156.87817,32.83582,198.03491,53.797a525.40962,525.40962,0,0,1,165.28906,132.543s-88.83154,78.43261-137.5376,110.73938a601.09815,601.09815,0,0,1-55.26587,32.6892c-98.5874,59.80311-218.41223,61.1969-323.61413,12.08082.08215.08215.21863.24621.21863.24621l.02758.02759C1002.2409,1948.51083,932.735,1891.9332,873.80658,1827.01889Zm369.67236,925.707h-52.98657v-22.91406a74.03184,74.03184,0,0,1-26.49414,19.15479,83.36924,83.36924,0,0,1-33.29566,6.624q-37.95153,0-60.1466-21.84033-22.203-21.83277-22.19861-64.80176V2560.11069h55.85132v100.60376q0,46.54578,39.0249,46.54346,20.04565,0,32.22168-13.06861,12.16809-13.06494,12.17236-38.8457v-95.23291h55.85132Zm51.91272-192.61523h53.34509v22.55542a74.09239,74.09239,0,0,1,27.56787-18.79614,96.04516,96.04516,0,0,1,36.16016-6.624q35.79675,0,57.81983,21.48169,22.0199,21.48011,22.01928,63.72827v110.27H1436.4527V2651.04819q0-22.908-10.02466-34.19165-10.0285-11.27784-29.00025-11.27783-21.12981,0-33.654,13.0686-12.536,13.07373-12.53088,38.8457v95.23291h-55.8512Zm245.39441,629.52783h-40.27173l-32.48584-89.67187-33.55981,89.67187H1394.197l-52.08423-144.44141h39.46606l34.09668,97.72657,35.43934-97.72657h35.43872l34.36547,97.72657,35.17054-97.72657h37.05005Zm208.60693-60.40771H1640.12225a34.00252,34.00252,0,0,0,13.96082,21.21q11.00592,7.79,27.38464,7.78564a55.38764,55.38764,0,0,0,20.0022-3.356,48.4871,48.4871,0,0,0,16.24292-10.60424l22.28345,24.16259q-20.40693,23.35731-59.6023,23.35743-24.43323,0-43.22461-9.53052a69.83409,69.83409,0,0,1-28.99609-26.4458q-10.2063-16.91419-10.20178-38.3916a73.82555,73.82555,0,0,1,10.068-38.25831,70.53453,70.53453,0,0,1,27.65283-26.5791q17.58124-9.527,39.33228-9.53149,21.20506,0,38.39209,9.12842a66.67725,66.67725,0,0,1,26.98217,26.176q9.79761,17.05335,9.79932,39.60083Q1750.19818,3118.76108,1749.393,3129.23081Zm-46.57788-376.50489-80.91162-192.61523h57.64063l53.345,131.03638,55.13574-131.03638h53.70361L1760.457,2752.72592ZM1962.83,3169.77133q-8.05556,10.47108-23.4917,16.24243-15.44276,5.77113-36.647,5.77247a140.31307,140.31307,0,0,1-35.17224-4.42994q-17.18316-4.42932-27.38415-11.1416l13.9602-30.06958a87.69974,87.69974,0,0,0,23.35864,10.06812,97.8305,97.8305,0,0,0,26.84766,3.89209q26.57922,0,26.5791-13.155,0-6.17286-7.24926-8.85962-7.24806-2.681-22.2837-4.56421a214.34211,214.34211,0,0,1-29.26428-6.17456,45.37449,45.37449,0,0,1-20.00036-12.3501q-8.45874-8.86011-8.45777-25.23755a39.53279,39.53279,0,0,1,7.92017-24.29687q7.91491-10.60218,23.08984-16.51123,15.16407-5.90223,35.84082-5.90674a140.75692,140.75692,0,0,1,30.47266,3.356q15.16405,3.36071,25.102,9.26294l-13.96045,29.80053a83.38172,83.38172,0,0,0-41.61426-10.73877q-13.42712,0-20.13574,3.75806-6.71374,3.76392-6.71216,9.666,0,6.71337,7.24951,9.396,7.24952,2.68727,23.08863,5.10156a248.07634,248.07634,0,0,1,28.99682,6.30909,43.596,43.596,0,0,1,19.59839,12.21557q8.31776,8.86011,8.322,24.7A38.14347,38.14347,0,0,1,1962.83,3169.77133Zm174.50756-40.54052H2028.06634a34.00682,34.00682,0,0,0,13.96143,21.21q11.005,7.79,27.38525,7.78564a55.38356,55.38356,0,0,0,20.00147-3.356,48.48434,48.48434,0,0,0,16.24219-10.60424l22.28369,24.16259q-20.406,23.35731-59.60132,23.35743-24.434,0-43.22461-9.53052a69.83173,69.83173,0,0,1-28.99658-26.4458q-10.2074-16.91419-10.2024-38.3916a73.82547,73.82547,0,0,1,10.06788-38.25831,70.53511,70.53511,0,0,1,27.65429-26.5791q17.57923-9.527,39.33106-9.53149,21.2058,0,38.39258,9.12842a66.6833,66.6833,0,0,1,26.98217,26.176q9.79761,17.05335,9.79932,39.60083Q2138.14276,3118.76108,2137.33758,3129.23081Zm3.6919-467.44239v90.9375h-55.84986V2560.11069h53.34351v25.4187a62.12408,62.12408,0,0,1,27.03174-21.12329q17.00061-7.15724,39.20264-7.16016v51.55591q-9.31422-.7141-12.53077-.717-23.9901,0-37.59253,13.427Q2141.02508,2634.936,2141.02948,2661.78842Zm165.717,467.44239h-109.27a34.00023,34.00023,0,0,0,13.96021,21.21q11.005,7.79,27.38525,7.78564a55.38351,55.38351,0,0,0,20.00146-3.356,48.48519,48.48519,0,0,0,16.24244-10.60424l22.28369,24.16259q-20.40637,23.35731-59.60157,23.35743-24.43395,0-43.22558-9.53052a69.83648,69.83648,0,0,1-28.99561-26.4458q-10.20556-16.91419-10.20215-38.3916a73.82547,73.82547,0,0,1,10.06788-38.25831,70.53448,70.53448,0,0,1,27.65405-26.5791q17.581-9.527,39.33105-9.53149,21.20617,0,38.39283,9.12842a66.68627,66.68627,0,0,1,26.98217,26.176q9.79725,17.05335,9.79908,39.60083Q2307.5517,3118.76108,2306.74652,3129.23081Zm77.02173-402.99878q-10.74243,13.964-31.32715,21.66089-20.59241,7.69482-48.87036,7.69775a187.06428,187.06428,0,0,1-46.90039-5.90845q-22.91712-5.90551-36.5188-14.85791l18.61694-40.09741q12.88879,8.23938,31.148,13.42578a130.48041,130.48041,0,0,0,35.802,5.19141q35.4441,0,35.44483-17.54322,0-8.23242-9.66626-11.81543-9.66687-3.57422-29.71558-6.08618-23.63085-3.57422-39.0249-8.23388a60.50187,60.50187,0,0,1-26.67334-16.46949q-11.27784-11.81542-11.27759-33.65405a52.716,52.716,0,0,1,10.56226-32.40088q10.55493-14.13794,30.7893-22.01806,20.22436-7.871,47.79663-7.877a187.69145,187.69145,0,0,1,40.635,4.47608q20.22181,4.48021,33.47486,12.3518l-18.61695,39.74024a111.183,111.183,0,0,0-55.49292-14.32154q-17.90587,0-26.85253,5.01221-8.95276,5.01783-8.94922,12.88941,0,8.95313,9.66626,12.531,9.66687,3.58264,30.78955,6.80152a330.70449,330.70449,0,0,1,38.66626,8.41455,58.12961,58.12961,0,0,1,26.1355,16.28881q11.09289,11.81544,11.09863,32.93848A50.85662,50.85662,0,0,1,2383.76825,2726.232Zm232.70971-54.06055H2470.76434a45.34312,45.34312,0,0,0,18.61719,28.28345q14.67553,10.3872,36.51709,10.383a73.85586,73.85586,0,0,0,26.67334-4.47631,64.61435,64.61435,0,0,0,21.65942-14.14087l29.71558,32.22192q-27.21166,31.147-79.48071,31.148-32.58142,0-57.64038-12.71021-25.06532-12.70348-38.66651-35.26562-13.61133-22.55531-13.60474-51.19727,0-28.27587,13.42554-51.0166a94.07545,94.07545,0,0,1,36.87573-35.44482q23.44593-12.7035,52.45044-12.71021,28.27807,0,51.19727,12.17237a88.93115,88.93115,0,0,1,35.9812,34.90722q13.06458,22.741,13.0669,52.80884Q2617.5517,2658.20774,2616.478,2672.17148Zm-28.93408-689.98706.02735-.02759s.13672-.16406.21875-.24621c-105.20191,49.11608-225.02661,47.72229-323.61426-12.08082a601.09564,601.09564,0,0,1-55.26563-32.6892c-48.706-32.30677-137.53759-110.73938-137.53759-110.73938a525.40652,525.40652,0,0,1,165.28906-132.543c41.15674-20.96118,107.39673-54.69715,198.03491-53.797,91.37427.90735,157.23047,36.516,205.052,62.37317,74.47974,40.27148,156.80518,124.58447,156.80518,124.58447C2737.62518,1891.9332,2668.11908,1948.51083,2587.54388,1982.18442Z"/>
  <g>
    <path class="cls-2" d="M1654.79783,2854.39507a12.9959,12.9959,0,0,1,0-18.41841,13.10706,13.10706,0,0,1,9.48242-3.70026,13.47518,13.47518,0,0,1,9.48242,3.52848,11.55643,11.55643,0,0,1,3.82618,8.86465,13.21307,13.21307,0,0,1-3.74317,9.55275,12.72664,12.72664,0,0,1-9.56543,3.873A13.09879,13.09879,0,0,1,1654.79783,2854.39507Zm-.998,18.84785h20.79444v91.91625h-20.79444Z"/>
    <path class="cls-2" d="M1708.19627,2963.43838q-10.31689-2.92524-16.46924-7.40152l7.98486-16.35306a50.44852,50.44852,0,0,0,14.38965,6.62751,57.90274,57.90274,0,0,0,16.55274,2.49581q18.62914,0,18.63183-10.156,0-4.8168-4.74121-6.71239-4.741-1.89307-15.22168-3.61538a119.47821,119.47821,0,0,1-17.8833-3.95893,27.30771,27.30771,0,0,1-11.97754-7.832q-5.07642-5.59131-5.07373-15.577a24.74383,24.74383,0,0,1,10.56348-20.91321q10.56225-7.83146,28.53027-7.832a79.74607,79.74607,0,0,1,18.29883,2.15124,50.32518,50.32518,0,0,1,14.97217,5.76661l-7.98487,16.352a48.0057,48.0057,0,0,0-25.45263-6.88518q-9.15089,0-13.89063,2.84037-4.741,2.83884-4.74121,7.4874,0,5.16388,5.07373,7.31563,5.07276,2.15377,15.7207,4.04482a118.14473,118.14473,0,0,1,17.46729,3.95893,27.25582,27.25582,0,0,1,11.72852,7.57329q4.9043,5.33819,4.90722,15.1476,0,12.909-10.813,20.65554-10.81568,7.74507-29.44531,7.74507A77.08,77.08,0,0,1,1708.19627,2963.43838Z"/>
    <path class="cls-2" d="M1897.42478,2881.93478q10.39453,9.72756,10.39649,29.34841v53.876h-19.63086V2953.9705a24.38165,24.38165,0,0,1-10.89453,9.2092,41.37124,41.37124,0,0,1-17.05274,3.18392,40.58031,40.58031,0,0,1-17.46679-3.52848,27.19187,27.19187,0,0,1-11.5625-9.81143,25.50461,25.50461,0,0,1-4.0752-14.1998q0-12.39363,8.89942-19.88154,8.89746-7.4874,28.03125-7.48741h22.957v-1.37723q0-9.63663-5.57227-14.803-5.5752-5.16388-16.55273-5.16338a46.34286,46.34286,0,0,0-14.72266,2.40991,35.8504,35.8504,0,0,0-12.22656,6.7124l-8.15235-15.66293a49.81666,49.81666,0,0,1,16.80274-8.43419,72.43661,72.43661,0,0,1,20.79492-2.92625Q1887.02341,2872.21025,1897.42478,2881.93478Zm-18.96484,65.06465a19.983,19.983,0,0,0,8.56641-10.58544v-10.67233h-21.459q-17.96776,0-17.96679,12.22135a11.09371,11.09371,0,0,0,4.49218,9.29509q4.49121,3.44513,12.47657,3.44259A26.14253,26.14253,0,0,0,1878.45994,2946.99943Z"/>
    <path class="cls-2" d="M1934.43748,2837.43978h20.79394v127.71939h-20.79394Z"/>
    <path class="cls-2" d="M1982.5117,2837.43978h20.79394v127.71939H1982.5117Z"/>
  </g>
  <g>
    <path class="cls-1" d="M2256.27264,3082.91806q-9.66467-8.18519-23.62622-8.188-14.23352,0-23.8938,8.05469-9.6665,8.05408-11.81372,22.01489h71.14746Q2265.933,3091.107,2256.27264,3082.91806Z"/>
    <path class="cls-1" d="M1979.56341,2610.412q-12.88842-10.91674-31.50634-10.91944-18.98145,0-31.86328,10.7417-12.8888,10.73988-15.75391,29.35694h94.876Q1992.447,2621.33261,1979.56341,2610.412Z"/>
    <path class="cls-1" d="M1698.919,3082.91806q-9.66485-8.18519-23.62622-8.188-14.23334,0-23.89441,8.05469-9.66467,8.05408-11.81311,22.01489h71.14686Q1708.57971,3091.107,1698.919,3082.91806Z"/>
    <path class="cls-1" d="M2086.86371,3082.91806q-9.665-8.18519-23.62647-8.188-14.23315,0-23.89477,8.05469-9.66468,8.05408-11.81275,22.01489h71.14746Q2096.52387,3091.107,2086.86371,3082.91806Z"/>
    <path class="cls-1" d="M2549.16962,2610.412q-12.88844-10.91674-31.50489-10.91944-18.98144,0-31.86474,10.7417-12.88879,10.73988-15.75245,29.35694h94.876Q2562.05243,2621.33261,2549.16962,2610.412Z"/>
  </g>
  <path class="cls-2" d="M2097.29836,1017.90164c-2.59653-99.46215-36.3793-197.749-90.22379-282.2877-69.73721-109.49125-116.2554-130.16014-158.28128-180.42033-2.06052-2.46424-8.49257-10.26613-17.39809-10.52205-8.92942-.25659-15.90443,7.20086-18.89908,10.52205C1623.87327,764.3867,1585.91161,904.08992,1585.91161,904.09a440.59653,440.59653,0,0,0-16.7274,95.417,254.02123,254.02123,0,0,0-.90187,33.50943c.81992,102.35933,34.958,203.89865,90.333,290.87,72.65164,114.10561,129.52171,141.0211,158.28119,180.393,2.04329,2.79736,9.075,12.71963,18.39694,12.63483,9.03477-.08223,15.68982-9.52321,17.92764-12.63483,51.61352-71.76737,168.00407-149.23042,226.5572-348.8964a444.85728,444.85728,0,0,0,17.62945-130.53892A22.59174,22.59174,0,0,0,2097.29836,1017.90164Zm-100.951,225.81923-.082.082c-9.78492,18.03931-22.08444,35.532-33.4274,52.66925-38.07383,57.69839-83.03545,110.313-128.62566,162.16242-76.20239-69.50595-142.67449-151.42077-182.41555-246.37309,1.066.984,2.15927,1.96792,3.25254,2.92457-70.81792-115.12351-63.08284-275.86464,11.61622-386.615-.41.246-.81994.492-1.23.7653a696.08187,696.08187,0,0,1,38.97585-66.33543c38.10119-57.67109,83.03545-110.313,128.62566-162.16237,82.51613,75.27308,154.61868,165.00491,192.69251,270.15216.02736.05465.02736.10933.05464.13667a2.54648,2.54648,0,0,0,.246.656c6.01313,17.00068,13.17417,33.20872,16.782,49.41674C2072.87768,1025.06271,2064.678,1150.79115,1996.34732,1243.72087Z"/>
  <path class="cls-2" d="M2087.746,1814.50066a1.29435,1.29435,0,0,0,.13663-.05464C2087.7186,1814.50066,2087.664,1814.50066,2087.746,1814.50066Zm-.082.02735a.27483.27483,0,0,1,.082-.02735h-.082Zm824.55993-70.05262a19.49029,19.49029,0,0,0-5.90369-14.3768c-8.391-7.68036-20.66319-7.87171-28.9995,0q-32.18365,30.46179-64.36747,60.8963c-19.97988-17.46537-40.28774-34.90328-61.11492-51.7127q41.32647-55.38888,82.62541-110.805c2.95193-3.99049,3.30726-11.20625,2.04992-15.798-1.3119-4.75579-4.9745-9.89427-9.40231-12.24489-4.75579-2.5146-10.52286-3.77186-15.79813-2.04992-5.41174,1.722-8.883,4.8925-12.27217,9.40231q-39.64539,53.216-79.34566,106.43187c-33.53675-25.14572-68.57674-48.05009-105.83064-66.55409q31.65064-64.36755,63.30147-128.735c2.46-5.00177,3.58052-10.277,2.07727-15.79805-1.31189-4.75579-5.00185-9.89427-9.42966-12.24488-9.23832-4.8925-22.98637-2.92458-28.04294,7.35238q-32.63483,66.37644-65.29684,132.75286c-12.32688-4.86514-24.8723-9.23832-37.7185-13.01018a372.32279,372.32279,0,0,0-85.57733-14.43144q-.82-79.45493-1.58532-158.88251c-.10927-10.74156-9.37495-21.01852-20.4992-20.4992-11.015.492-20.63583,8.99234-20.49921,20.4992q.779,79.4139,1.58532,158.80052c-46.46486,2.35053-92.49248,12.65485-136.306,29.27284q-33.0447-67.15542-66.062-134.31074c-4.72843-9.64829-19.18731-13.06482-28.04294-7.35239-9.89427,6.36838-12.43615,17.71134-7.35239,28.04294q31.89688,64.85951,63.7936,129.74629a517.38685,517.38685,0,0,0-55.62111,30.80344q-20.25322,12.87356-39.38581,27.35963-36.98052-49.60809-73.98848-99.24347c-3.30718-4.42781-6.69644-7.89906-12.24489-9.40231-4.91977-1.36661-11.45222-.7653-15.798,2.04992-4.37318,2.81522-8.227,7.02442-9.42967,12.24489-1.148,5.02913-1.148,11.47959,2.07728,15.798q38.78445,52.068,77.59627,104.08134a788.11139,788.11139,0,0,0-70.162,68.30332q-27.67394-26.28-55.32049-52.50527c-7.78972-7.407-21.37386-8.309-28.9995,0-7.35239,8.00833-8.309,21.10051,0,28.97222q35.95556,34.11071,71.91119,68.24868a21.56764,21.56764,0,0,0,6.09513,3.99049c86.39727,76.14767,178.06981,154.45469,290.59673,187.44476a370.2764,370.2764,0,0,0,78.2523,13.99411,216.71138,216.71138,0,0,0,22.27587,1.14791q4.09985,0,8.19968-.164c87.08058-.54668,173.47785-29.54618,247.46632-76.667,57.5344-36.62523,108.20854-83.11745,153.08808-134.28346a19.05858,19.05858,0,0,0,4.94714-12.05354,16.243,16.243,0,0,0,1.09335-7.98106q32.71665-30.95376,65.46083-61.90758a20.21743,20.21743,0,0,0,5.90369-14.62278Zm-326.074,237.68141s.13663-.164.21871-.24607c-105.66649,49.116-226.01056,47.72221-325.03532-12.08081a605.07575,605.07575,0,0,1-55.51184-32.68938c-48.92483-32.30676-93.613-70.46259-137.59064-109.13774,3.30718-3.63515,13.72077-11.17889,19.4332-13.47479a.27492.27492,0,0,1,.082-.02735c.05463,0,.082-.02736.13662-.05464h.05464l.19134-.05463a.28237.28237,0,0,1,.10936-.02736h.10935c.19134-.05464.27334-.082.21862-.05464.05463-.02736.10935-.02736.164-.05463h.02736c158.71851-59.77567,330.33778-69.94327,501.98441-48.48742,1.94066.30061,3.88114.60131,5.84915.90192,3.90849.60132,7.84435,1.17527,11.80756,1.74931a.20452.20452,0,0,1,.13663.02736c26.18436,3.71715,54.14522,7.079,81.42277,12.57286,1.69459.35533,3.41654.68331,5.11113,1.066,1.394.27334,2.8153.57395,4.23646.92929,30.20213,6.64172,59.14708,16.26273,83.39079,32.2794,4.45517,3.9085,8.93771,7.817,13.39288,11.72557-59.20163,64.91414-129.00835,121.49189-209.93917,155.16527Z"/>
  <path class="cls-2" d="M1708.97539,1748.35653a16.57617,16.57617,0,0,0-3.38918-2.84258c-7.78971-5.11113-18.85925-3.55317-25.61032,2.84258q-27.63289,26.23895-55.32049,52.50527c-.54668-.60132-1.12064-1.23-1.69459-1.8313a781.91863,781.91863,0,0,0-68.46731-66.47211q38.8255-52.027,77.59636-104.08125c3.22519-4.31846,3.22519-10.76892,2.07728-15.798-1.148-5.00177-4.72851-9.07433-8.883-11.86219a3.91006,3.91006,0,0,0-.54668-.3827c-4.34582-2.81522-10.87827-3.41653-15.79805-2.04992-5.54844,1.50325-8.93762,4.9745-12.24488,9.40231q-36.98052,49.649-73.98848,99.24347c-.656-.492-1.33926-1.01128-2.02256-1.50324-2.54188-1.91329-5.08377-3.79923-7.62573-5.63044q-14.55438-10.53661-29.73752-20.22586a517.37834,517.37834,0,0,0-55.62119-30.80344,2.98853,2.98853,0,0,1,.21866-.41q31.77377-64.69548,63.57485-129.33633c5.02913-10.195,2.5966-21.37385-6.9697-27.797-.02736-.02735-.05463-.02735-.082-.05463a2.90168,2.90168,0,0,0-.30062-.19135c-8.85563-5.71243-23.31442-2.2959-28.04293,7.35239q-33.04471,67.15542-66.0621,134.31074c-43.81362-16.618-89.84116-26.9223-136.306-29.27284,0-.46469,0-.90193.02732-1.36661q.779-78.717,1.558-157.4339a19.638,19.638,0,0,0-8.85567-16.618c-.02732,0-.02732-.02736-.05468-.05463a22.43391,22.43391,0,0,0-11.5889-3.8265c-11.12425-.51932-20.38989,9.75764-20.4992,20.4992q-.779,79.4139-1.58528,158.88251a372.323,372.323,0,0,0-85.57733,14.43143c-12.84616,3.77187-25.39169,8.14505-37.71855,13.01019-.30065-.62867-.62865-1.28462-.95662-1.91329q-32.18375-65.43342-64.34017-130.83957a16.69846,16.69846,0,0,0-6.09511-6.77843c0-.02736-.05465-.05464-.082-.05464-6.39574-4.01785-15.27875-4.01785-21.86582-.51932-4.42783,2.35054-8.11768,7.489-9.42962,12.24489-1.50328,5.52109-.38265,10.79628,2.07726,15.798q31.65076,64.36755,63.30155,128.735c-37.25388,18.50392-72.29385,41.40838-105.83056,66.5541-.492-.656-.95662-1.28462-1.44861-1.94057q-38.94848-52.23194-77.897-104.4913a28.36411,28.36411,0,0,0-6.91506-6.86043c-.02733-.02736-.05467-.05463-.082-.05463a21.36978,21.36978,0,0,0-5.27513-2.48725c-5.27513-1.722-11.04224-.46468-15.79806,2.04992-4.42783,2.35054-8.09035,7.489-9.4023,12.24489-1.25728,4.5918-.902,11.80756,2.04992,15.798q41.3264,55.38888,82.62545,110.805c-20.82718,16.80933-41.13506,34.24733-61.115,51.71269-.60131-.57395-1.20261-1.148-1.80392-1.69459l-62.56357-59.2017a24.61769,24.61769,0,0,0-3.14321-2.48725c-.05467-.05464-.082-.082-.13666-.082-8.03569-5.13849-18.36729-4.15448-25.71967,2.56924a19.48968,19.48968,0,0,0-5.90377,14.3768,20.353,20.353,0,0,0,5.90377,14.62278q32.75772,30.95374,65.46079,61.90758a16.24283,16.24283,0,0,0,1.09329,7.98106,19.05831,19.05831,0,0,0,4.94714,12.05354c33.646,38.37453,70.57192,74.1251,111.215,105.0379,2.70588,2.07719,5.43911,4.12711,8.19968,6.12248q16.44036,12.13561,33.67335,23.12316c73.98846,47.12081,160.38575,76.12031,247.46641,76.667q4.09985.1639,8.19968.164a216.76064,216.76064,0,0,0,22.27579-1.14791,370.27722,370.27722,0,0,0,78.2523-13.99411c112.527-32.99007,204.19937-111.297,290.59673-187.44476a21.56893,21.56893,0,0,0,6.09512-3.99049q35.95557-34.11071,71.9112-68.24869c8.309-7.8717,7.35239-20.96389,0-28.97222Zm-248.88766,188.784a605.07157,605.07157,0,0,1-55.51183,32.68938c-54.1999,32.744-114.79554,47.9681-175.85583,47.01153-50.53738-.81993-101.34806-12.68221-149.17954-34.93072.082.08208.13667.164.21867.24607-38.70251-16.09875-74.86309-37.44525-108.53645-62.45426-1.7766-1.312-3.52587-2.5966-5.27513-3.93585-34.68466-26.34835-66.71807-56.52312-96.12759-88.77525,4.45516-3.9085,8.93765-7.817,13.39281-11.72557,24.24373-16.01667,53.1886-25.63768,83.39077-32.2794,1.42127-.35534,2.84256-.656,4.23651-.92929,1.69461-.38269,3.41653-.71067,5.11114-1.066,27.27762-5.49381,55.23852-8.85563,81.42284-12.57286,0-.02736.082-.02736.13667-.02736,3.96317-.57395,7.899-1.148,11.80754-1.74931,1.96793-.30061,3.90852-.60131,5.8491-.90192a1292.077,1292.077,0,0,1,155.54795-10.277c118.8407-.46469,235.7682,17.08267,346.43654,58.76438h.02735a1.29569,1.29569,0,0,1,.13663.05463c0-.02736.082,0,.246.05464h.10936c.05463,0,.082.02736.10935.02736l.19134.05463h.05464a1.29526,1.29526,0,0,1,.13663.05464h0a.09547.09547,0,0,0,.05463.02735c4.18183,1.66723,10.85092,6.14977,15.44272,9.83964a35.59763,35.59763,0,0,1,3.99049,3.63515c-43.97762,38.67515-88.6659,76.831-137.59065,109.13774Z"/>
</svg>
