<svg id="universe_mask" data-name="universe masking" xmlns="http://www.w3.org/2000/svg" width="500" height="500" viewBox="0 0 500 500">
  <defs>
    <style>
      .cls-1 {
        fill: #fff;
      }

      .cls-2 {
        fill: #dbdbdb;
      }
    </style>
  </defs>
  <path id="mask" class="cls-1" d="M39.21087,35.24467V455.8454H460.11522V35.24467ZM230.9926,131.12743a79.25051,79.25051,0,0,1,4.42874-7.56938,172.181,172.181,0,0,1,14.61166-18.504c9.37517,8.58923,17.56521,18.82832,21.891,30.82642l.00621.0156a.29137.29137,0,0,0,.02808.07484,51.12382,51.12382,0,0,1,1.90559,5.63883c3.41514,11.85151,2.48258,26.19809-5.28015,36.80208H268.59l-.00936.00935c-1.11029,2.0584-2.50752,4.05445-3.7987,6.01a171.48492,171.48492,0,0,1-14.6117,18.504c-8.65784-7.93117-16.2085-17.27827-20.72456-28.113.12163.11227.24638.22457.368.33372-8.04654-13.13647-7.16705-31.47827,1.31927-44.11572C231.08618,131.06817,231.03941,131.09625,230.9926,131.12743Zm28.9195,213.47346a7.0304,7.0304,0,0,0,4.16688,1.18478,8.42746,8.42746,0,0,0,3.04363-.51078,7.37551,7.37551,0,0,0,2.47167-1.61358l3.39078,3.67677q-3.10531,3.5541-9.06933,3.55422a14.34524,14.34524,0,0,1-6.5774-1.45033,10.62165,10.62165,0,0,1-4.41214-4.02408,11.08152,11.08152,0,0,1-1.55241-5.842,11.23369,11.23369,0,0,1,1.532-5.82138,10.73365,10.73365,0,0,1,4.208-4.04453,13.02729,13.02729,0,0,1,11.82682-.06137,10.14767,10.14767,0,0,1,4.1057,3.98318,11.88527,11.88527,0,0,1,1.49123,6.02589q0,.12249-.12255,1.71585H257.78775A5.17408,5.17408,0,0,0,259.9121,344.60089Zm-36.97137-20.12008a3.996,3.996,0,0,1-2.85974,1.04182,4.04126,4.04126,0,0,1-2.85974-1.02134,3.45991,3.45991,0,0,1-.176-4.88986q.08482-.09118.176-.176a4.04616,4.04616,0,0,1,2.85974-1.0212,4.14522,4.14522,0,0,1,2.85974.98045,3.14329,3.14329,0,0,1,1.103,2.45108A3.46906,3.46906,0,0,1,222.94073,324.48081Zm.32688,4.10573v21.97887h-6.373V328.58654Zm-82.70835-83.65136s9.394-9.62075,17.89267-14.216c5.4568-2.9505,12.97149-7.01372,23.398-7.11725,10.34251-.10271,17.901,3.74682,22.5973,6.13865A59.953,59.953,0,0,1,223.308,244.8647s-10.13636,8.94976-15.69409,12.63621a68.58583,68.58583,0,0,1-6.30626,3.73008c-11.24957,6.824-24.9225,6.983-36.92683,1.37852.00937.00937.02494.02809.02494.02809l.00315.00315c-9.19426-3.8424-17.12542-10.29834-23.8496-17.70556ZM182.7417,350.56541h-6.04617v-2.61467a8.44755,8.44755,0,0,1-3.02319,2.1857,9.51308,9.51308,0,0,1-3.79929.75586,9.35953,9.35953,0,0,1-6.86318-2.49215q-2.53353-2.49129-2.533-7.39438V328.58654h6.37306V340.0662q0,5.31123,4.453,5.311a4.78786,4.78786,0,0,0,3.67674-1.49123,6.29339,6.29339,0,0,0,1.389-4.43259v-10.8668h6.37306Zm5.92363-21.97887h6.08709v2.57375a8.45456,8.45456,0,0,1,3.1457-2.14479,10.9598,10.9598,0,0,1,4.12615-.75585,9.04587,9.04587,0,0,1,6.59768,2.45123q2.51264,2.451,2.51257,7.27188v12.58265h-6.373V338.9632a5.73122,5.73122,0,0,0-1.14389-3.90153,4.19591,4.19591,0,0,0-3.30915-1.28688,5.07012,5.07012,0,0,0-3.84019,1.49123,6.17232,6.17232,0,0,0-1.42986,4.43259v10.8668h-6.37305Zm28.00138,71.83392H212.0714l-3.70689-10.23224-3.82943,10.23224h-4.59529l-5.94321-16.48186H198.5l3.89069,11.15134,4.0439-11.15134h4.04382l3.92137,11.15134L218.413,383.9386h4.2277Zm23.80364-6.893H228.00172a3.88,3.88,0,0,0,1.593,2.42022,5.27126,5.27126,0,0,0,3.12479.8884,6.31984,6.31984,0,0,0,2.28241-.38294,5.53266,5.53266,0,0,0,1.85344-1.21l2.54271,2.75713q-2.32859,2.66525-6.80108,2.66526a10.75786,10.75786,0,0,1-4.93225-1.0875,7.96848,7.96848,0,0,1-3.30868-3.01767,8.3083,8.3083,0,0,1-1.1641-4.38077,8.42412,8.42412,0,0,1,1.14883-4.36557,8.04851,8.04851,0,0,1,3.1554-3.03287,9.769,9.769,0,0,1,8.86894-.046,7.60841,7.60841,0,0,1,3.07888,2.98689,8.91172,8.91172,0,0,1,1.11817,4.51875Q240.56222,392.33282,240.47035,393.52748Zm-5.31489-42.96207-9.23264-21.97887h6.57724l6.08707,14.95225,6.2914-14.95225h6.128l-9.27369,21.97887Zm29.66968,47.58806a5.86713,5.86713,0,0,1-2.68059,1.85338,11.94944,11.94944,0,0,1-4.18169.65868,16.00959,16.00959,0,0,1-4.01342-.50549,10.48131,10.48131,0,0,1-3.12475-1.27134l1.593-3.43117a10.00709,10.00709,0,0,0,2.6654,1.14885,11.16305,11.16305,0,0,0,3.06352.44412q3.0329,0,3.03288-1.50109a1.06269,1.06269,0,0,0-.8272-1.011,12.29175,12.29175,0,0,0-2.54274-.52081,24.4578,24.4578,0,0,1-3.33927-.70456,5.17769,5.17769,0,0,1-2.2822-1.40924,4.00643,4.00643,0,0,1-.96509-2.8798,4.51089,4.51089,0,0,1,.90375-2.77246,5.815,5.815,0,0,1,2.63472-1.88406,11.26288,11.26288,0,0,1,4.08972-.674,16.06122,16.06122,0,0,1,3.47716.38294,9.74572,9.74572,0,0,1,2.86433,1.057l-1.593,3.40047a9.51464,9.51464,0,0,0-4.7485-1.22538,4.8304,4.8304,0,0,0-2.29765.42883,1.26141,1.26141,0,0,0-.7659,1.103,1.09459,1.09459,0,0,0,.82722,1.07216,14.615,14.615,0,0,0,2.63459.58213,28.30768,28.30768,0,0,1,3.30876.71991,4.97456,4.97456,0,0,1,2.23632,1.39389,3.95863,3.95863,0,0,1,.94961,2.81845A4.35251,4.35251,0,0,1,264.82514,398.15347Zm19.91263-4.626H272.2691a3.88048,3.88048,0,0,0,1.5931,2.42022,5.27118,5.27118,0,0,0,3.12486.8884,6.3194,6.3194,0,0,0,2.28232-.38294,5.53229,5.53229,0,0,0,1.85335-1.21l2.54274,2.75713q-2.32848,2.66525-6.801,2.66526a10.75752,10.75752,0,0,1-4.93226-1.0875,7.96855,7.96855,0,0,1-3.30873-3.01767,8.30743,8.30743,0,0,1-1.16417-4.38077,8.42392,8.42392,0,0,1,1.14882-4.36557,8.04848,8.04848,0,0,1,3.15557-3.03287,9.76876,9.76876,0,0,1,8.86885-.046,7.60891,7.60891,0,0,1,3.07888,2.98689,8.91172,8.91172,0,0,1,1.11817,4.51875q0,.092-.09185,1.28669Zm.42127-53.33873v10.37666h-6.37289V328.58654h6.0869V331.487a7.08878,7.08878,0,0,1,3.08452-2.41033,11.45312,11.45312,0,0,1,4.47332-.817v5.88292q-1.06282-.08148-1.42985-.08182a5.84091,5.84091,0,0,0-4.2896,1.53213,6.18861,6.18861,0,0,0-1.55237,4.59587Zm18.90958,53.33873H291.60007a3.87978,3.87978,0,0,0,1.593,2.42022,5.27111,5.27111,0,0,0,3.12487.8884,6.3194,6.3194,0,0,0,2.28232-.38294,5.53222,5.53222,0,0,0,1.85338-1.21l2.54274,2.75713q-2.32853,2.66525-6.801,2.66526a10.75837,10.75837,0,0,1-4.93237-1.0875,7.96878,7.96878,0,0,1-3.30862-3.01767,8.30971,8.30971,0,0,1-1.16414-4.38077,8.42421,8.42421,0,0,1,1.14882-4.36557,8.04841,8.04841,0,0,1,3.15554-3.03287,9.76883,9.76883,0,0,1,8.86888-.046,7.60933,7.60933,0,0,1,3.07887,2.98689,8.91161,8.91161,0,0,1,1.11815,4.51875q0,.092-.09185,1.28669Zm8.78876-45.98523a7.82393,7.82393,0,0,1-3.57466,2.47167,15.93951,15.93951,0,0,1-5.57648.87838,21.34536,21.34536,0,0,1-5.3517-.6742,13.97028,13.97028,0,0,1-4.16707-1.6954l2.12434-4.57542a13.34546,13.34546,0,0,0,3.55421,1.532,14.88835,14.88835,0,0,0,4.08529.59238q4.04444,0,4.04452-2.00181a1.41714,1.41714,0,0,0-1.103-1.34824,16.39987,16.39987,0,0,0-3.39078-.69448,32.57723,32.57723,0,0,1-4.453-.93954,6.90391,6.90391,0,0,1-3.04363-1.8793,5.34363,5.34363,0,0,1-1.28686-3.84018,6.01532,6.01532,0,0,1,1.20524-3.69719,7.755,7.755,0,0,1,3.51329-2.51243,15.02142,15.02142,0,0,1,5.454-.89882,21.41687,21.41687,0,0,1,4.63677.51076,12.99109,12.99109,0,0,1,3.81973,1.40943l-2.12433,4.53466a12.68682,12.68682,0,0,0-6.33217-1.63419,6.44136,6.44136,0,0,0-3.06408.57193,1.68143,1.68143,0,0,0-1.02117,1.47078,1.45979,1.45979,0,0,0,1.103,1.42988,19.492,19.492,0,0,0,3.51332.77611,37.73325,37.73325,0,0,1,4.41212.96016,6.63313,6.63313,0,0,1,2.98226,1.85868,5.2788,5.2788,0,0,1,1.26644,3.75853,5.80305,5.80305,0,0,1-1.22549,3.63587Zm26.554-6.16872h-16.627a5.17393,5.17393,0,0,0,2.12436,3.22736,7.03038,7.03038,0,0,0,4.16688,1.18478,8.4275,8.4275,0,0,0,3.04363-.51078,7.37334,7.37334,0,0,0,2.47151-1.61358l3.39077,3.67677q-3.10506,3.5541-9.06936,3.55422a14.34524,14.34524,0,0,1-6.5772-1.45033,10.62144,10.62144,0,0,1-4.41215-4.02408,11.07848,11.07848,0,0,1-1.5524-5.842,11.234,11.234,0,0,1,1.532-5.82138,10.73464,10.73464,0,0,1,4.2078-4.04453,13.02765,13.02765,0,0,1,11.827-.06137,10.14781,10.14781,0,0,1,4.10573,3.98318,11.88427,11.88427,0,0,1,1.491,6.02589q0,.12249-.12252,1.71585Zm-3.30159-78.73278.00312-.00315s.0156-.01872.025-.02809C324.13348,268.214,310.46057,268.055,299.211,261.231a68.58894,68.58894,0,0,1-6.30623-3.73008c-5.55773-3.68645-15.69408-12.63621-15.69408-12.63621a59.95272,59.95272,0,0,1,18.86074-15.12416c4.6963-2.39183,12.25478-6.24136,22.59729-6.13865,10.4265.10353,17.9412,4.16675,23.398,7.11725,8.4987,4.59529,17.89266,14.216,17.89266,14.216-6.72416,7.40723-14.65533,13.86317-23.84958,17.70558Z"/>
  <g>
    <path class="cls-2" d="M229.67633,362.16664a1.483,1.483,0,0,1-.00452-2.09718l.00452-.00451a1.49553,1.49553,0,0,1,1.082-.42222,1.53763,1.53763,0,0,1,1.082.40264,1.31869,1.31869,0,0,1,.43659,1.01153,1.5077,1.5077,0,0,1-.42712,1.09,1.45224,1.45224,0,0,1-1.09149.44194A1.49468,1.49468,0,0,1,229.67633,362.16664Zm-.11389,2.15069h2.3728v10.48834h-2.3728Z"/>
    <path class="cls-2" d="M235.76949,374.60933a5.95745,5.95745,0,0,1-1.87926-.84458l.91113-1.866a5.75691,5.75691,0,0,0,1.642.75624,6.60745,6.60745,0,0,0,1.88879.2848q2.12574,0,2.126-1.15888a.77228.77228,0,0,0-.541-.76594,9.08609,9.08609,0,0,0-1.73691-.41255,13.63123,13.63123,0,0,1-2.04062-.45175,3.11625,3.11625,0,0,1-1.36673-.89369,2.54736,2.54736,0,0,1-.57895-1.77745,2.82346,2.82346,0,0,1,1.20537-2.38637,5.34923,5.34923,0,0,1,3.25553-.89369,9.099,9.099,0,0,1,2.088.24546,5.74271,5.74271,0,0,1,1.70844.658l-.91113,1.86589a5.478,5.478,0,0,0-2.90434-.78566,3.12736,3.12736,0,0,0-1.585.32411.96945.96945,0,0,0-.541.85436.852.852,0,0,0,.57895.83477,8.92215,8.92215,0,0,0,1.79385.46156,13.47755,13.47755,0,0,1,1.99315.45175,3.11015,3.11015,0,0,1,1.33832.86416,2.46416,2.46416,0,0,1,.56,1.72847,2.76063,2.76063,0,0,1-1.23384,2.35695,5.67073,5.67073,0,0,1-3.35994.88378A8.79588,8.79588,0,0,1,235.76949,374.60933Z"/>
    <path class="cls-2" d="M257.36191,365.30914a4.37485,4.37485,0,0,1,1.18632,3.34887v6.14766h-2.24V373.529a2.78226,2.78226,0,0,1-1.24315,1.05085,4.7211,4.7211,0,0,1-1.94585.3633,4.6303,4.6303,0,0,1-1.99309-.40264,3.10284,3.10284,0,0,1-1.31937-1.11957,2.91018,2.91018,0,0,1-.465-1.62029,2.8167,2.8167,0,0,1,1.01549-2.26865,4.918,4.918,0,0,1,3.19858-.85435h2.61957v-.15715a2.18958,2.18958,0,0,0-.63584-1.68914,2.69,2.69,0,0,0-1.88879-.58917,5.28819,5.28819,0,0,0-1.68.275,4.091,4.091,0,0,0-1.39514.76593l-.93025-1.78724a5.68487,5.68487,0,0,1,1.91732-.9624,8.26629,8.26629,0,0,1,2.37286-.33391A4.83563,4.83563,0,0,1,257.36191,365.30914Zm-2.164,7.42437a2.28021,2.28021,0,0,0,.97749-1.20788v-1.21779h-2.44863q-2.05026,0-2.05015,1.39456a1.26585,1.26585,0,0,0,.51259,1.06064,2.28905,2.28905,0,0,0,1.42367.39283A2.98313,2.98313,0,0,0,255.19788,372.73351Z"/>
    <path class="cls-2" d="M261.58534,360.2319h2.37275v14.57377h-2.37275Z"/>
    <path class="cls-2" d="M267.071,360.2319h2.37274v14.57377H267.071Z"/>
  </g>
  <g>
    <path class="cls-1" d="M298.30919,388.24285a4.03088,4.03088,0,0,0-2.69593-.93432,4.11406,4.11406,0,0,0-2.72647.91911,3.91182,3.91182,0,0,0-1.348,2.51206h8.11847A3.95551,3.95551,0,0,0,298.30919,388.24285Z"/>
    <path class="cls-1" d="M266.73454,334.32633a5.37472,5.37472,0,0,0-3.59511-1.246,5.48609,5.48609,0,0,0-3.63584,1.22571,5.21739,5.21739,0,0,0-1.79764,3.34985H268.532A5.27308,5.27308,0,0,0,266.73454,334.32633Z"/>
    <path class="cls-1" d="M234.71088,388.24285a4.031,4.031,0,0,0-2.69593-.93432,4.11429,4.11429,0,0,0-2.72654.91911,3.91281,3.91281,0,0,0-1.348,2.51206h8.11839A3.95486,3.95486,0,0,0,234.71088,388.24285Z"/>
    <path class="cls-1" d="M278.97834,388.24285a4.03112,4.03112,0,0,0-2.696-.93432,4.11454,4.11454,0,0,0-2.72658.91911,3.91272,3.91272,0,0,0-1.34792,2.51206h8.11847A3.95547,3.95547,0,0,0,278.97834,388.24285Z"/>
    <path class="cls-1" d="M331.731,334.32633a5.37448,5.37448,0,0,0-3.595-1.246,5.48675,5.48675,0,0,0-3.636,1.22571,5.21686,5.21686,0,0,0-1.79747,3.34985h10.82607A5.2745,5.2745,0,0,0,331.731,334.32633Z"/>
  </g>
  <path class="cls-2" d="M280.169,152.60874a63.74683,63.74683,0,0,0-10.29521-32.21118c-7.95755-12.49378-13.26563-14.85226-18.0611-20.58733a2.93048,2.93048,0,0,0-1.98525-1.20065,3.04973,3.04973,0,0,0-2.15653,1.20065c-21.52331,23.87053-25.855,39.81173-25.855,39.81174a50.27606,50.27606,0,0,0-1.90872,10.88781,28.98569,28.98569,0,0,0-.10291,3.82369c.09356,11.68,3.989,23.26639,10.30768,33.19048,8.2901,13.02032,14.77942,16.09158,18.06109,20.58422.23316.3192,1.03552,1.45141,2.09923,1.44174,1.03094-.00939,1.79033-1.08667,2.04568-1.44174,5.88949-8.1892,19.17054-17.02833,25.85191-39.81173a50.76163,50.76163,0,0,0,2.01164-14.89549A2.57746,2.57746,0,0,0,280.169,152.60874Zm-11.51928,25.7677-.00936.00936c-1.11653,2.05842-2.52,4.05447-3.81432,6.01a171.30523,171.30523,0,0,1-14.67716,18.504c-8.69527-7.93116-16.28024-17.27827-20.815-28.113.12164.11228.24639.22455.37114.33371-8.08086-13.13647-7.19824-31.47826,1.3255-44.11572-.04679.02807-.09356.05614-.14035.08733a79.42586,79.42586,0,0,1,4.44744-7.56938,171.99636,171.99636,0,0,1,14.67716-18.504c9.41572,8.58923,17.64317,18.82832,21.98768,30.82642l.00624.0156a.29091.29091,0,0,0,.02807.07485,51.23326,51.23326,0,0,1,1.91495,5.63883C277.38242,153.42588,276.44677,167.77245,268.64972,178.37644Z"/>
  <path class="cls-2" d="M279.079,243.50676l.0156-.00624C279.07587,243.50676,279.06966,243.50676,279.079,243.50676Zm-.00936.00312.00936-.00312h-.00936Zm94.08859-7.99354a2.224,2.224,0,0,0-.67367-1.6405,2.38951,2.38951,0,0,0-3.30907,0q-3.67236,3.47592-7.34481,6.94874c-2.27987-1.99293-4.59715-3.98274-6.97369-5.90081q4.71567-6.32029,9.4282-12.6437a2.36125,2.36125,0,0,0,.2339-1.80267,2.38739,2.38739,0,0,0-1.07288-1.39723,2.35289,2.35289,0,0,0-1.80269-.23392,2.71409,2.71409,0,0,0-1.40035,1.07288q-4.52387,6.07235-9.054,12.14469a78.37217,78.37217,0,0,0-12.07607-7.59433q3.61156-7.34481,7.22318-14.68964a2.50146,2.50146,0,0,0,.237-1.80268,2.39238,2.39238,0,0,0-1.076-1.39724,2.36836,2.36836,0,0,0-3.19991.839q-3.72386,7.574-7.45088,15.14811c-1.40659-.55515-2.83812-1.05416-4.304-1.48456a42.48477,42.48477,0,0,0-9.765-1.64673q-.0936-9.06639-.18088-18.12971a2.33913,2.33913,0,0,0-4.67825,0q.08889,9.06174.18089,18.12035a51.27349,51.27349,0,0,0-15.55355,3.34025q-3.77064-7.66293-7.53817-15.32588a2.35019,2.35019,0,0,0-3.19992-.839,2.3948,2.3948,0,0,0-.839,3.19992q3.63968,7.401,7.27934,14.805a59.03836,59.03836,0,0,0-6.34679,3.51491q-2.31105,1.469-4.49421,3.12195-4.21974-5.66064-8.44265-11.32443a2.53917,2.53917,0,0,0-1.39724-1.07288,2.3393,2.3393,0,0,0-2.87867,1.63114,2.27527,2.27527,0,0,0,.237,1.80267q4.42559,5.94137,8.85431,11.87647a89.92743,89.92743,0,0,0-8.006,7.79393q-3.15783-2.99874-6.31249-5.99125a2.33876,2.33876,0,0,0-3.30906,3.30595q4.10279,3.89229,8.2056,7.78769a2.46169,2.46169,0,0,0,.6955.45535c9.8586,8.689,20.31911,17.62446,33.15931,21.38886a42.25044,42.25044,0,0,0,8.92917,1.59684,24.72433,24.72433,0,0,0,2.54185.131q.4678,0,.93565-.01872a53.8201,53.8201,0,0,0,28.23779-8.74829,82.237,82.237,0,0,0,17.46852-15.32276,2.17463,2.17463,0,0,0,.5645-1.37541,1.85356,1.85356,0,0,0,.12475-.9107q3.7332-3.53207,7.46959-7.06413a2.30694,2.30694,0,0,0,.67367-1.66857ZM335.95072,262.6376s.0156-.01871.025-.02808c-12.05735,5.60451-25.78952,5.44546-37.089-1.37851a69.04374,69.04374,0,0,1-6.33432-3.7301,145.65232,145.65232,0,0,1-15.70013-12.45345,8.648,8.648,0,0,1,2.21747-1.53757l.00936-.00312c.00624,0,.00936-.00312.0156-.00624h.00624l.02184-.00624.01248-.00312h.01248c.02184-.00624.0312-.00936.02493-.00624l.01872-.00624h.00312c18.111-6.82085,37.69408-7.98105,57.28025-5.53278.22144.03431.44286.06861.66743.10292.446.06862.89508.13411,1.34734.1996a.02326.02326,0,0,1,.0156.00313c2.98783.42415,6.17838.80776,9.291,1.43466.19337.04054.38985.078.58322.12164.15907.03119.32123.06549.48342.106a28.1424,28.1424,0,0,1,9.51554,3.68333c.50835.446,1.01986.892,1.52822,1.338-6.75536,7.4072-14.72083,13.86315-23.95566,17.70554Z"/>
  <path class="cls-2" d="M235.85839,235.95922a1.891,1.891,0,0,0-.38673-.32435,2.43337,2.43337,0,0,0-2.92233.32435q-3.15314,2.994-6.31249,5.99125c-.06237-.06862-.12787-.14035-.19336-.209a89.22437,89.22437,0,0,0-7.81264-7.585q4.43031-5.93667,8.85433-11.87647a2.27532,2.27532,0,0,0,.237-1.80267,2.3172,2.3172,0,0,0-1.01362-1.35356.44629.44629,0,0,0-.06238-.04367,2.37723,2.37723,0,0,0-1.80268-.23391,2.53924,2.53924,0,0,0-1.39723,1.07288q-4.21974,5.66535-8.44266,11.32443c-.07485-.05614-.15282-.11539-.23079-.17154-.29005-.21833-.58009-.43352-.87015-.64248q-1.66074-1.20234-3.39329-2.30792a59.03581,59.03581,0,0,0-6.3468-3.51491.34061.34061,0,0,1,.025-.04679q3.62562-7.38224,7.25437-14.75826a2.39467,2.39467,0,0,0-.7953-3.17185l-.00936-.00624a.331.331,0,0,0-.03431-.02184,2.35018,2.35018,0,0,0-3.19991.839q-3.77067,7.66295-7.5382,15.32588a51.27325,51.27325,0,0,0-15.55355-3.34025c0-.053,0-.10292.00312-.15594q.0889-8.98219.17777-17.9644a2.24084,2.24084,0,0,0-1.0105-1.89624l-.00624-.00624a2.55983,2.55983,0,0,0-1.32238-.43664A2.36642,2.36642,0,0,0,179.414,201.306q-.08891,9.06172-.18089,18.1297a42.4855,42.4855,0,0,0-9.765,1.64673c-1.46585.43039-2.89739.92941-4.304,1.48455-.03431-.07173-.07174-.14659-.10917-.21832q-3.6724-7.46646-7.3417-14.9298a1.90555,1.90555,0,0,0-.6955-.77347l-.00935-.00624a2.58092,2.58092,0,0,0-2.49506-.05925,2.39222,2.39222,0,0,0-1.076,1.39723,2.50153,2.50153,0,0,0,.237,1.80267q3.6116,7.34481,7.22318,14.68964a78.37093,78.37093,0,0,0-12.07607,7.59433c-.05614-.07486-.10916-.14659-.1653-.22143q-4.44432-5.96007-8.88864-11.92326a3.23667,3.23667,0,0,0-.78906-.78283l-.00935-.00624a2.43831,2.43831,0,0,0-.60193-.28382,2.35281,2.35281,0,0,0-1.80268.23391,2.38727,2.38727,0,0,0-1.07287,1.39723,2.36132,2.36132,0,0,0,.23391,1.80267q4.71566,6.32031,9.42819,12.6437c-2.37654,1.91807-4.69382,3.90788-6.97369,5.90081-.06861-.0655-.13723-.131-.20583-.19337l-7.139-6.75536a2.80975,2.80975,0,0,0-.35866-.28382c-.00624-.00624-.00935-.00936-.01559-.00936a2.39423,2.39423,0,0,0-2.93481.29317,2.22393,2.22393,0,0,0-.67367,1.64051,2.32242,2.32242,0,0,0,.67367,1.66857q3.7379,3.532,7.46957,7.06413a1.85358,1.85358,0,0,0,.12475.9107,2.17474,2.17474,0,0,0,.56451,1.37541,87.23485,87.23485,0,0,0,12.69047,11.98561c.30877.237.62065.47093.93565.69862q1.876,1.38476,3.84239,2.63853a53.82017,53.82017,0,0,0,28.2378,8.74829q.46782.01872.93565.01872a24.73275,24.73275,0,0,0,2.54184-.131A42.25053,42.25053,0,0,0,193.798,268.897c12.84019-3.76442,23.3007-12.69983,33.15931-21.38888a2.46119,2.46119,0,0,0,.6955-.45535q4.10281-3.89226,8.20562-7.78769a2.37362,2.37362,0,0,0,0-3.30594Zm-28.4,21.5417a69.04122,69.04122,0,0,1-6.33433,3.7301,37.44508,37.44508,0,0,1-20.06649,5.36437,42.02052,42.02052,0,0,1-17.02252-3.98586c.00936.00936.0156.01871.02494.02809a58.51408,58.51408,0,0,1-12.38483-7.12651c-.20272-.14971-.40233-.29628-.60193-.4491a82.43492,82.43492,0,0,1-10.96889-10.12994c.50836-.446,1.01985-.892,1.52822-1.338a28.14213,28.14213,0,0,1,9.51552-3.68333c.16218-.04055.32436-.07486.48342-.106.19336-.04367.38985-.0811.58322-.12165,3.11259-.62688,6.30313-1.01049,9.291-1.43466l.0156-.00312c.45223-.06549.90134-.131,1.34733-.1996.22455-.03431.446-.06862.66743-.10293a147.43672,147.43672,0,0,1,17.7492-1.17268,110.33953,110.33953,0,0,1,39.531,6.70547h.00312l.01559.00624c0-.00312.00936,0,.02807.00624h.01248l.01248.00312.02182.00624h.00624l.01559.00624h0l.00624.00312a8.58768,8.58768,0,0,1,1.76214,1.12277,4.06253,4.06253,0,0,1,.45534.4148,145.64972,145.64972,0,0,1-15.70015,12.45344Z"/>
</svg>
