<svg id="Layer_2" data-name="Layer 2" xmlns="http://www.w3.org/2000/svg" viewBox="0 0 124 124">
  <defs>
    <style>
      .cls-1 {
        fill: #ddd;
      }

      .cls-2 {
        fill: #707071;
      }
    </style>
  </defs>
  <g id="Layer_1-2" data-name="Layer 1-2">
    <path class="cls-1" d="M81.3071,113.578C71.41152,103.43876,63.616,87.453,69.31145,63.15924H55.81214C61.50755,87.453,53.64485,103.43876,43.69048,113.578Z"/>
    <path class="cls-2" d="M18.74993,10.42205V27.7015h0a45.91447,45.91447,0,0,1,4.86379,1.80607c12.12166,5.16619,35.57534,20.48837,39.02787,63.4308h.0504c3.33493-43.93366,27.049-58.28981,39.21269-63.4392a46.07511,46.07511,0,0,1,4.85538-1.78927V10.42205ZM62.7592,28.64234h0c-6.37585,0-11.55044-.99964-11.55044-2.22609s5.1662-2.22608,11.55044-2.22608h0c6.38424,0,11.55043.99964,11.55043,2.22608S69.135,28.64234,62.7592,28.64234Z"/>
  </g>
</svg>
