<?xml version="1.0" encoding="UTF-8"?><svg id="Layer_2" xmlns="http://www.w3.org/2000/svg" viewBox="0 0 497.23 99.07"><defs><style>.cls-1{fill:#707071;}</style></defs><g id="Layer_1-2"><path class="cls-1" d="m99.07,99.07H0V0h99.07v99.07Zm-96.47-2.6h93.88V2.6H2.6v93.88Z"/><path class="cls-1" d="m93.74,93.74H5.33V5.33h88.42v88.42Zm-85.82-2.6h83.22V7.92H7.92v83.22Z"/><path class="cls-1" d="m1.29,1.3v18.94s0,0,0,0c.11.03,2.17.63,5.33,1.98,13.29,5.66,46.06,24.57,35.36,70.23h14.8c-10.71-45.7,22.33-64.6,35.66-70.24,3.24-1.37,5.32-1.96,5.32-1.96V1.3H1.29Zm48.24,19.97h0c-6.99,0-12.66-1.09-12.66-2.44s5.67-2.44,12.66-2.44h0c6.99,0,12.67,1.09,12.67,2.44s-5.67,2.44-12.67,2.44Z"/><path class="cls-1" d="m139.97,39.97L122.42.34h4.53l16.42,37.3h-2.49L157.41.34h4.25l-17.55,39.63h-4.13Z"/><path class="cls-1" d="m167.37,39.97V.34h4.19v39.63h-4.19Z"/><path class="cls-1" d="m195.39,40.3c-2.94,0-5.77-.48-8.46-1.44-2.7-.96-4.78-2.2-6.26-3.71l1.64-3.23c1.4,1.36,3.27,2.5,5.63,3.42,2.36.93,4.84,1.39,7.44,1.39s4.52-.31,6.09-.93c1.57-.62,2.72-1.46,3.45-2.52.74-1.06,1.1-2.23,1.1-3.51,0-1.55-.44-2.79-1.33-3.74-.89-.94-2.05-1.69-3.48-2.24-1.43-.55-3.02-1.03-4.76-1.44-1.74-.41-3.47-.86-5.21-1.33-1.74-.47-3.33-1.1-4.78-1.9-1.45-.79-2.62-1.84-3.51-3.14-.89-1.3-1.33-3.01-1.33-5.12,0-1.96.52-3.76,1.56-5.41,1.04-1.64,2.63-2.96,4.78-3.96,2.15-1,4.91-1.5,8.26-1.5,2.23,0,4.43.31,6.62.93,2.19.62,4.08,1.48,5.66,2.58l-1.42,3.34c-1.7-1.13-3.5-1.96-5.41-2.49-1.91-.53-3.75-.79-5.52-.79-2.38,0-4.34.32-5.89.96-1.55.64-2.69,1.5-3.42,2.58-.74,1.08-1.1,2.29-1.1,3.65,0,1.55.44,2.79,1.33,3.74.89.94,2.06,1.68,3.51,2.21,1.45.53,3.05,1,4.78,1.41,1.74.42,3.46.87,5.18,1.36,1.72.49,3.3,1.12,4.76,1.9,1.45.77,2.62,1.8,3.51,3.09.89,1.28,1.33,2.96,1.33,5.04,0,1.92-.53,3.71-1.59,5.35-1.06,1.64-2.67,2.96-4.84,3.96-2.17,1-4.95,1.5-8.35,1.5Z"/><path class="cls-1" d="m223.47,39.97h-4.19V.34h4.19v39.63Zm25.19-18.28h-25.64v-3.68h25.64v3.68Zm-.4-21.34h4.13v39.63h-4.13V.34Z"/><path class="cls-1" d="m273.85,39.97L260.49.34h4.3l12.51,37.3h-2.15L288.06.34h3.85l12.74,37.3h-2.04L315.23.34h4.02l-13.36,39.63h-4.42l-12.17-35.38h1.13l-12.23,35.38h-4.36Z"/><path class="cls-1" d="m319.36,39.97L337.48.34h4.13l18.11,39.63h-4.42l-16.64-37.19h1.7l-16.64,37.19h-4.36Zm7.13-10.59l1.24-3.4h23.04l1.25,3.4h-25.53Z"/><path class="cls-1" d="m128.71,99.07v-39.63h17.1c4.42,0,7.84.89,10.27,2.66,2.43,1.77,3.65,4.28,3.65,7.53,0,2.15-.5,3.96-1.5,5.43-1,1.47-2.36,2.59-4.08,3.34-1.72.76-3.59,1.13-5.63,1.13l.96-1.36c2.53,0,4.71.39,6.54,1.16,1.83.77,3.25,1.92,4.27,3.45,1.02,1.53,1.53,3.42,1.53,5.69,0,3.36-1.24,5.96-3.71,7.81-2.47,1.85-6.2,2.77-11.18,2.77h-18.23Zm4.19-3.45h13.98c3.47,0,6.13-.59,7.98-1.78,1.85-1.19,2.77-3.09,2.77-5.69s-.93-4.44-2.77-5.63c-1.85-1.19-4.51-1.78-7.98-1.78h-14.43v-3.45h13.08c3.17,0,5.63-.6,7.39-1.81,1.75-1.21,2.63-3,2.63-5.38s-.88-4.22-2.63-5.41c-1.75-1.19-4.22-1.78-7.39-1.78h-12.62v32.72Z"/><path class="cls-1" d="m171.39,99.07v-39.63h14.83c3.36,0,6.25.54,8.66,1.61,2.41,1.08,4.27,2.62,5.58,4.64,1.3,2.02,1.95,4.46,1.95,7.33s-.65,5.2-1.95,7.22c-1.3,2.02-3.16,3.57-5.58,4.64-2.42,1.08-5.3,1.61-8.66,1.61h-12.51l1.87-1.92v14.49h-4.19Zm4.19-14.15l-1.87-1.98h12.4c3.96,0,6.97-.87,9.03-2.6,2.06-1.74,3.09-4.17,3.09-7.3s-1.03-5.62-3.09-7.36c-2.06-1.74-5.07-2.6-9.03-2.6h-12.4l1.87-1.98v23.83Zm22.87,14.15l-10.19-14.38h4.53l10.25,14.38h-4.59Z"/><path class="cls-1" d="m205.98,99.07l18.11-39.63h4.13l18.11,39.63h-4.42l-16.64-37.19h1.7l-16.64,37.19h-4.36Zm7.13-10.59l1.24-3.4h23.04l1.25,3.4h-25.53Z"/><path class="cls-1" d="m257.09,99.07h-4.19v-39.63h4.19v39.63Zm25.19-18.28h-25.64v-3.68h25.64v3.68Zm-.4-21.34h4.13v39.63h-4.13v-39.63Z"/><path class="cls-1" d="m298.93,99.07v-39.63h3.45l18.11,30.91h-1.81l17.94-30.91h3.45v39.63h-4.02v-33.34h.96l-16.53,28.3h-1.98l-16.64-28.3h1.08v33.34h-4.02Z"/><path class="cls-1" d="m346.65,99.07l18.11-39.63h4.13l18.11,39.63h-4.42l-16.64-37.19h1.7l-16.64,37.19h-4.36Zm7.13-10.59l1.24-3.4h23.04l1.25,3.4h-25.53Z"/><path class="cls-1" d="m393.57,99.07v-39.63h3.45l27.34,34.42h-1.81v-34.42h4.13v39.63h-3.45l-27.28-34.42h1.81v34.42h-4.19Z"/><path class="cls-1" d="m439.6,99.07v-39.63h16.13c4.23,0,7.93.84,11.12,2.52,3.19,1.68,5.67,4.01,7.44,6.99,1.77,2.98,2.66,6.42,2.66,10.3s-.89,7.32-2.66,10.3c-1.77,2.98-4.26,5.31-7.44,6.99-3.19,1.68-6.9,2.52-11.12,2.52h-16.13Zm4.19-3.62h11.72c3.51,0,6.56-.69,9.14-2.07,2.58-1.38,4.59-3.28,6.03-5.72,1.43-2.43,2.15-5.24,2.15-8.41s-.72-6.02-2.15-8.43c-1.43-2.41-3.44-4.31-6.03-5.69-2.59-1.38-5.63-2.07-9.14-2.07h-11.72v32.38Z"/><path class="cls-1" d="m490.29,73.28c-.98,0-1.89-.18-2.72-.53-.84-.35-1.57-.85-2.2-1.48s-1.11-1.37-1.46-2.2-.52-1.74-.52-2.7.18-1.87.53-2.7c.35-.84.84-1.57,1.47-2.2.63-.63,1.36-1.13,2.21-1.48.84-.35,1.75-.53,2.73-.53s1.89.17,2.73.52c.84.35,1.57.83,2.2,1.46.62.63,1.1,1.36,1.45,2.19.35.83.52,1.73.52,2.71s-.18,1.89-.53,2.73c-.35.84-.85,1.58-1.48,2.21s-1.37,1.13-2.2,1.48c-.84.35-1.74.53-2.72.53Zm-.02-.73c.89,0,1.7-.16,2.45-.48.74-.32,1.4-.76,1.97-1.32.57-.56,1.01-1.22,1.32-1.99s.47-1.58.47-2.44-.15-1.69-.46-2.43-.74-1.4-1.29-1.96c-.56-.56-1.21-1-1.96-1.3-.75-.31-1.56-.46-2.44-.46s-1.71.16-2.47.47c-.76.31-1.42.75-1.97,1.32-.56.57-.99,1.22-1.3,1.97-.31.74-.47,1.55-.47,2.43s.16,1.67.47,2.42c.31.75.75,1.41,1.3,1.98.55.57,1.21,1.01,1.96,1.32.75.31,1.56.47,2.42.47Zm-2.67-2.23v-7.92h3.06c.98,0,1.75.24,2.3.72.55.48.83,1.11.83,1.91,0,.84-.28,1.49-.83,1.96-.56.47-1.32.71-2.3.71h-2.04v2.63h-1.02Zm1-3.49h2c.69,0,1.23-.16,1.62-.47.39-.31.58-.76.58-1.33s-.19-1-.58-1.3c-.38-.31-.92-.46-1.62-.46h-2v3.57Zm4.21,3.49l-1.98-3.06h1.06l1.98,3.06h-1.06Z"/></g></svg>