<?xml version="1.0" encoding="UTF-8"?>
<svg id="Layer_2" xmlns="http://www.w3.org/2000/svg" viewBox="0 0 593.26 124.82">
  <defs>
    <style>.cls-1{fill:#ddd;}.cls-2{fill:#707071;}</style>
  </defs>
  <g id="Layer_1-2">
    <polygon class="cls-2"
      points="192.17 .91 172.6 46.56 159.89 46.56 140.39 .91 154.34 .91 166.72 30.67 179.39 .91 192.17 .91" />
    <path class="cls-2" d="m194.84,46.56V.91h12.91v45.65h-12.91Z" />
    <path class="cls-2"
      d="m232.99,47.48c-3.74,0-7.34-.47-10.79-1.4-3.46-.93-6.27-2.14-8.44-3.62l4.24-9.52c2.04,1.3,4.4,2.38,7.07,3.23,2.67.85,5.34,1.27,7.99,1.27,1.78,0,3.22-.16,4.3-.49,1.09-.33,1.88-.76,2.38-1.3.5-.54.75-1.18.75-1.92,0-1.04-.48-1.87-1.43-2.48-.96-.61-2.2-1.11-3.72-1.5-1.52-.39-3.21-.78-5.05-1.17-1.85-.39-3.7-.89-5.54-1.5-1.85-.61-3.53-1.4-5.05-2.38-1.52-.98-2.76-2.26-3.72-3.85-.96-1.59-1.44-3.6-1.44-6.03,0-2.74.75-5.22,2.25-7.43,1.5-2.22,3.75-4,6.75-5.35,3-1.35,6.74-2.02,11.22-2.02,3,0,5.94.34,8.84,1.01,2.89.67,5.47,1.66,7.73,2.97l-3.98,9.59c-2.17-1.17-4.33-2.05-6.46-2.64s-4.19-.88-6.19-.88c-1.78,0-3.22.19-4.3.55-1.09.37-1.87.86-2.35,1.47-.48.61-.72,1.3-.72,2.09,0,1,.47,1.79,1.4,2.38s2.17,1.07,3.72,1.43c1.54.37,3.24.75,5.09,1.14,1.85.39,3.7.88,5.54,1.47,1.85.59,3.53,1.37,5.05,2.35,1.52.98,2.75,2.26,3.68,3.85.93,1.59,1.4,3.58,1.4,5.97,0,2.65-.75,5.1-2.25,7.34-1.5,2.24-3.74,4.03-6.72,5.38-2.98,1.35-6.73,2.02-11.25,2.02Z" />
    <polygon class="cls-2"
      points="302.57 .91 302.57 46.56 289.66 46.56 289.66 28.76 272.05 28.76 272.05 46.56 259.14 46.56 259.14 .91 272.05 .91 272.05 18.06 289.66 18.06 289.66 .91 302.57 .91" />
    <polygon class="cls-2"
      points="383.18 .91 368.37 46.56 354.55 46.56 345.8 18.76 336.68 46.56 322.85 46.56 308.05 .91 321.35 .91 330.54 30.04 340.2 .91 352.07 .91 361.29 30.32 370.85 .91 383.18 .91" />
    <path class="cls-2"
      d="m413.63.91h-12.71l-20.16,45.65h13.18l3.56-8.87h19.35l3.56,8.87h13.44L413.63.91Zm-12.31,27.26l5.86-14.59,5.85,14.59h-11.71Z" />
    <path class="cls-1"
      d="m187.31,105.55c-1.33-1.85-3.19-3.27-5.58-4.24-.27-.11-.55-.22-.84-.31,1.82-.97,3.26-2.22,4.33-3.74,1.24-1.76,1.86-3.81,1.86-6.16,0-3.56-1.48-6.44-4.43-8.64-2.96-2.2-7.44-3.29-13.44-3.29h-23.34v45.65h24.65c6.13,0,10.79-1.1,13.98-3.3,3.2-2.19,4.8-5.27,4.8-9.22,0-2.66-.66-4.91-1.99-6.75Zm-28.66-17.06h8.87c2.17,0,3.8.36,4.89,1.08,1.08.72,1.63,1.81,1.63,3.29s-.55,2.59-1.63,3.33c-1.09.74-2.72,1.11-4.89,1.11h-8.87v-8.81Zm15.88,25.86c-1.16.76-2.84,1.14-5.06,1.14h-10.82v-9.26h10.82c2.22,0,3.9.38,5.06,1.14,1.15.76,1.72,1.93,1.72,3.49s-.57,2.73-1.72,3.49Z" />
    <path class="cls-1"
      d="m228.22,110.44c2.76-1.3,4.91-3.13,6.47-5.48,1.65-2.5,2.48-5.47,2.48-8.9s-.83-6.49-2.48-9.04c-1.66-2.54-3.99-4.48-7.01-5.83-3.03-1.35-6.62-2.02-10.8-2.02h-20.86v45.65h12.91v-12.13h7.05l8.27,12.13h13.83l-9.86-14.38Zm-19.29-21.1h7.17c2.7,0,4.71.59,6.03,1.76,1.33,1.17,1.99,2.83,1.99,4.96s-.66,3.71-1.99,4.89c-1.32,1.17-3.33,1.76-6.03,1.76h-7.17v-13.37Z" />
    <path class="cls-1"
      d="m271.66,79.17h-12.71l-20.16,45.65h13.18l3.56-8.87h19.36l3.56,8.87h13.43l-20.22-45.65Zm-12.31,27.26l5.86-14.6,5.86,14.6h-11.72Z" />
    <polygon class="cls-1"
      points="338.96 79.17 338.96 124.82 326.05 124.82 326.05 107.01 308.44 107.01 308.44 124.82 295.53 124.82 295.53 79.17 308.44 79.17 308.44 96.32 326.05 96.32 326.05 79.17 338.96 79.17" />
    <polygon class="cls-1"
      points="401.18 124.82 389.31 124.82 389.2 100.59 377.44 120.32 371.7 120.32 360.03 101.28 360.03 124.82 348.09 124.82 348.09 79.17 358.72 79.17 374.79 105.55 390.42 79.17 401.05 79.17 401.18 124.82" />
    <path class="cls-1"
      d="m437.7,79.17h-12.72l-20.15,45.65h13.17l3.56-8.87h19.36l3.56,8.87h13.43l-20.21-45.65Zm-12.32,27.26l5.86-14.61,5.86,14.61h-11.72Z" />
    <polygon class="cls-1"
      points="504.99 79.17 504.99 124.82 494.37 124.82 474.21 100.49 474.21 124.82 461.56 124.82 461.56 79.17 472.19 79.17 492.34 103.5 492.34 79.17 504.99 79.17" />
    <path class="cls-1"
      d="m514.12,124.82v-45.65h21.58c5.04,0,9.48.94,13.3,2.8,3.82,1.87,6.81,4.5,8.97,7.89,2.15,3.39,3.23,7.43,3.23,12.13s-1.08,8.68-3.23,12.1c-2.15,3.41-5.14,6.06-8.97,7.92-3.83,1.87-8.26,2.8-13.3,2.8h-21.58Zm12.91-10.3h8.15c2.61,0,4.88-.49,6.82-1.47,1.93-.98,3.44-2.41,4.53-4.3,1.09-1.89,1.63-4.14,1.63-6.75s-.54-4.91-1.63-6.78c-1.09-1.87-2.6-3.29-4.53-4.27-1.94-.98-4.21-1.47-6.82-1.47h-8.15v25.04Z" />
    <path class="cls-2"
      d="m583.36,97.72c-1.4,0-2.7-.25-3.89-.76s-2.24-1.21-3.13-2.11c-.9-.9-1.59-1.95-2.08-3.15-.49-1.19-.74-2.48-.74-3.86s.25-2.67.76-3.86c.5-1.19,1.2-2.24,2.1-3.15.9-.9,1.95-1.61,3.15-2.11,1.2-.5,2.51-.76,3.91-.76s2.7.25,3.9.74c1.2.49,2.25,1.19,3.13,2.08.89.9,1.58,1.94,2.07,3.12s.74,2.48.74,3.88-.25,2.7-.76,3.9-1.21,2.26-2.11,3.16c-.91.91-1.96,1.61-3.15,2.11s-2.49.76-3.89.76Zm0-2.13c1.1,0,2.11-.2,3.04-.6.92-.4,1.73-.95,2.42-1.65s1.23-1.53,1.61-2.48c.38-.95.57-1.98.57-3.08s-.19-2.12-.56-3.06c-.37-.94-.9-1.76-1.57-2.45-.67-.69-1.47-1.23-2.39-1.61-.92-.38-1.95-.57-3.06-.57s-2.12.2-3.05.59c-.93.39-1.75.94-2.44,1.65-.69.71-1.22,1.53-1.6,2.46s-.56,1.95-.56,3.05.19,2.1.56,3.05.9,1.78,1.58,2.48c.68.7,1.49,1.25,2.42,1.64.93.39,1.94.59,3.02.59Zm-4.42-2.41v-10.69h4.84c1.53,0,2.72.35,3.57,1.05.85.7,1.27,1.65,1.27,2.84,0,1.27-.42,2.23-1.27,2.9-.85.66-2.03.99-3.54.99h-1.43v2.91h-3.44Zm3.44-5.37h1.2c.5,0,.9-.13,1.19-.38.29-.25.43-.6.43-1.05s-.14-.82-.43-1.06c-.29-.24-.69-.36-1.19-.36h-1.2v2.85Zm3.19,5.37l-2.63-4.06h3.5l2.63,4.06h-3.5Z" />
    <path class="cls-1"
      d="m74.47,124.82c-11.78-12.07-21.06-31.1-14.28-60.02h-16.07c6.78,28.92-2.58,47.95-14.43,60.02h44.78Z" />
    <path class="cls-2"
      d="m0,2.02v20.57s0,0,0,0c.12.04,2.36.68,5.79,2.15,14.43,6.15,42.35,24.39,46.46,75.51h.06c3.97-52.3,32.2-69.39,46.68-75.52,3.52-1.49,5.78-2.13,5.78-2.13V2.02H0Zm52.39,21.69h0c-7.59,0-13.75-1.19-13.75-2.65s6.15-2.65,13.75-2.65h0c7.6,0,13.75,1.19,13.75,2.65s-6.16,2.65-13.75,2.65Z" />
  </g>
</svg>