<svg id="e65a042a-6d69-47b3-9d6b-6e1f2ff12358" data-name="Layer 1" xmlns="http://www.w3.org/2000/svg" width="512" height="512" viewBox="0 0 512 512">
  <defs>
    <style>
      .bb221ad0-7862-403f-a49b-3783de4e4b15 {
        fill: red;
      }
    </style>
  </defs>
  <g id="b8d135c9-f0fd-4c8b-a62c-5a4d47001333" data-name="g20">
    <g id="ae42969d-78df-464e-8108-454945224bcc" data-name="g4575">
      <g id="ef2abf10-97ac-4a82-850d-7a60e0dc742e" data-name="g4557">
        <path id="a48d1f95-cefc-4523-9662-8b451e1fbb6b" data-name="path4" class="bb221ad0-7862-403f-a49b-3783de4e4b15" d="M275.33068,76.17157a19.79291,19.79291,0,0,1-3.60454.44439c-5.13523.09876-21.726,4.29582-27.75,6.96219-.54315.24688-2.07384.88879-3.4564,1.43194-3.60454,1.38256-13.13434,5.92526-14.61565,7.01156a9.25233,9.25233,0,0,1-2.56761,1.18505c-.74066.19751-1.33319.54315-1.33319.74066s-.395.49377-.83941.69128a13.04227,13.04227,0,0,0-2.37011,1.28381,21.18848,21.18848,0,0,1-2.617,1.48131,14.30406,14.30406,0,0,0-2.76512,1.7282,8.58937,8.58937,0,0,1-1.92571,1.23443c-1.13568,0-17.03513,11.55427-21.52845,15.60319-3.65392,3.30828-10.41859,10.51735-10.41859,11.10987a4.92086,4.92086,0,0,1-1.03692,1.48132,89.34122,89.34122,0,0,0-7.20907,11.30737c-.54315,1.23443-1.62945,3.407-2.32073,4.88835a33.63972,33.63972,0,0,0-3.16014,16.59073c.29626,6.17215,1.67882,9.38167,5.87588,13.62811,4.39457,4.39457,9.08541,6.32028,16.492,6.71529a39.00723,39.00723,0,0,0,13.82561-1.58007c1.62945-.44439,3.802-.98754,4.839-1.2838a12.12063,12.12063,0,0,0,2.71575-.93817c1.13567-.59253,7.50533-3.4564,7.8016-3.4564.88878,0,11.30737-6.36966,20.93592-12.78869,6.36966-4.24644,11.94928-7.94973,12.44306-8.19662.44439-.29626,3.4564-2.07384,6.66592-3.99955,3.20951-1.87633,7.15969-4.14768,8.78914-4.9871s3.95017-2.07384,5.1846-2.71574c1.23443-.59253,3.55516-1.67883,5.18461-2.27135,1.62944-.64191,3.65391-1.48132,4.44394-1.827.83942-.34564,2.02447-.88879,2.71575-1.18505a41.73262,41.73262,0,0,1,10.51734-1.87633c9.18416-.59253,15.60319,3.4564,18.91146,11.94928.79,2.02446.93817,3.70328.93817,9.62855,0,7.20907-.6419,11.15924-2.56761,15.8007-.395.93816-.93817,2.27135-1.23443,2.96263-2.46886,5.92526-7.55471,14.41814-13.38122,22.121-5.53025,7.40658-17.43015,19.7015-25.28112,26.16991-2.71575,2.27135-5.72776,4.74021-6.66592,5.53025a84.52912,84.52912,0,0,1-7.1597,5.234c-1.08629.69128-2.86387,1.87633-3.95017,2.66637a132.25564,132.25564,0,0,1-15.8007,8.39412c-1.33319.59253-3.16014,1.38256-4.04893,1.77758a7.47816,7.47816,0,0,1-2.51824.69128,10.579,10.579,0,0,0-2.51824.54315,4.721,4.721,0,0,1-6.46841-4.3452c0-4.04892,1.92571-6.61654,14.0725-18.66457,13.13433-13.03558,14.56627-14.96129,14.56627-19.899,0-5.08585-2.41948-8.54225-7.851-11.30738-2.37011-1.23443-3.25889-1.38256-7.40658-1.38256-4.839,0-7.65346.69128-11.15924,2.8145-.79.49377-2.02447,1.13568-2.71575,1.48132a8.51107,8.51107,0,0,0-1.48131.88879c-.14814.14813-1.13568.88879-2.222,1.7282a66.00378,66.00378,0,0,0-9.82606,10.07295c-1.827,2.3701-3.16014,4.59207-6.2709,10.41858-2.56762,4.839-4.88834,13.82562-4.88834,19.0596,0,10.61609,5.53024,19.109,14.0725,21.52845,2.56761.74066,13.03557.74066,16.64011.04938,3.55516-.74066,12.83807-3.60454,13.43059-4.14768a2.05834,2.05834,0,0,1,1.18506-.4444c1.2838,0,15.94883-7.456,20.9853-10.71485,1.13568-.74066,2.41948-1.58007,2.91326-1.87633.44439-.24689,2.76512-1.67883,5.1846-3.16014,2.37011-1.48132,4.444-2.86388,4.59208-3.012a42.86083,42.86083,0,0,1,3.70329-2.71575c1.92571-1.33318,4.14768-2.86387,4.93772-3.407.83941-.59253,3.16014-2.37011,5.1846-3.99956,12.83807-10.22107,24.19483-21.13343,30.81137-29.62631,1.0863-1.33318,2.07384-2.56761,2.222-2.71574.395-.29627,3.75267-5.13523,6.0734-8.78914a64.23891,64.23891,0,0,0,3.50578-6.024c.93816-1.77758,2.222-4.19706,2.86387-5.43149s2.02447-4.444,3.11077-7.15969c1.03692-2.71575,2.07384-5.38212,2.27135-5.92527,1.38256-3.50578,3.50578-12.5418,4.44395-19.01022,1.03692-7.30782.24688-19.30648-1.77758-25.923a42.388,42.388,0,0,0-2.86388-7.15969,54.05778,54.05778,0,0,0-17.5289-21.23219,25.87612,25.87612,0,0,1-2.76513-2.1726c-1.77757-1.58007-10.8136-5.629-16.097-7.15969a81.15485,81.15485,0,0,0-9.33229-2.07385C289.74882,75.92468,276.96012,75.579,275.33068,76.17157Z"/>
      </g>
      <g id="b5ad9007-2f82-4774-88fa-9dbabb3884dc" data-name="g4554">
        <g id="f9ba2ae4-df4b-4411-bc3a-84c087b7e9b3" data-name="g4539">
          <path id="ef15d57f-1b8c-457a-9699-cd07278387f6" data-name="path8" class="bb221ad0-7862-403f-a49b-3783de4e4b15" d="M418.47515,320.34177c-.14813.09876-2.41948.54315-5.13523.98755-2.71574.395-7.15969,1.13567-9.87544,1.62944l-4.93772.83942v45.427c0,49.32781-.09875,47.254,2.8145,53.42612a17.98489,17.98489,0,0,0,4.49333,5.87589c5.234,4.78958,10.12232,6.2709,20.54091,6.32028,8.88789,0,8.54225.34564,8.34474-7.851l-.14813-5.92526-3.802-.34564c-6.76468-.59253-10.02357-3.30827-10.76423-8.93727-.19751-1.67883-.34564-22.81226-.29626-46.90833C419.759,323.15627,419.6602,319.15672,418.47515,320.34177Z"/>
        </g>
        <g id="b86946dd-a9bb-4210-9a25-0ad6fbc9c7aa" data-name="g4533">
          <path id="abfcf5e8-860d-4dcb-92f7-4672dc13c7f7" data-name="path10" class="bb221ad0-7862-403f-a49b-3783de4e4b15" d="M281.74971,321.32932c-10.96174,1.62944-14.61565,2.32073-15.06,2.86387-.34564.395-.395,16.14635-.24689,46.26643.24689,42.06937.34564,45.87141,1.13568,47.89588,1.87633,4.78958,2.86387,6.46841,5.38211,8.98664,5.18461,5.18461,11.80115,7.30783,22.66413,7.30783,6.024,0,6.86343-.09876,7.25845-.88879.49377-.93817.74066-9.5298.34564-11.50489-.29626-1.23443-.49377-1.2838-4.19706-1.58007-4.69084-.29626-7.456-1.87633-9.38167-5.28336l-1.23443-2.222-.14813-25.57738c-.09875-19.0596,0-25.7749.44439-26.318s2.12322-.69128,7.40658-.69128c8.14724,0,7.456.79,7.25845-8.641l-.14813-6.419-6.91281-.24689a47.88318,47.88318,0,0,1-7.50533-.6419c-.49377-.29626-.6419-3.30827-.6419-12.24554V320.58866l-1.0863.04938C286.44054,320.68741,284.07044,320.98368,281.74971,321.32932Z"/>
        </g>
        <g id="b55721de-3f19-4391-abd1-78c69d751a8b" data-name="g4527">
          <path id="b9769689-0672-43c0-8af1-899cf2ed4057" data-name="path12" class="bb221ad0-7862-403f-a49b-3783de4e4b15" d="M110.65775,343.59843a79.0299,79.0299,0,0,0-15.30693,3.65391,19.26819,19.26819,0,0,1-2.222.79c-2.1726.59252-9.38167,4.19706-9.38167,4.69083a16.13617,16.13617,0,0,0,.93817,2.56761c3.25889,7.1597,4.49332,9.72731,4.74021,9.72731a4.48505,4.48505,0,0,0,1.13567-.44439,53.44723,53.44723,0,0,1,7.99911-3.2589c1.48131-.44439,3.25889-1.03692,3.95017-1.28381,2.76512-.98754,10.12233-1.48131,13.52935-.93816,6.7153,1.0863,9.18416,4.19706,9.57918,12.14679.19751,4.39457.19751,4.49332-.93817,4.78958a88.98,88.98,0,0,1-10.073.34564c-11.75177,0-15.3563.69128-22.96039,4.39457-6.51779,3.16014-11.35675,9.13478-13.67748,16.83763a33.52484,33.52484,0,0,0,.29626,15.8007c4.444,13.43059,15.01067,21.28156,29.72507,22.0716,13.38122.74066,27.15745-3.25889,35.996-10.36921l3.20952-2.617.14813-26.12053c.14813-30.26822.09875-31.30514-3.55516-38.71172-1.62944-3.35765-7.11031-8.69039-10.51734-10.1717-1.58007-.74066-3.30827-1.48132-3.85142-1.7282C125.71779,344.14158,116.33613,343.05528,110.65775,343.59843ZM125.224,391.198c.29626.395.49377,6.2709.49377,13.38122,0,14.02312.19751,13.13433-3.4564,15.06-1.38256.74066-2.91326.88879-7.70284.93817h-5.97464l-2.46886-1.67883a14.746,14.746,0,0,1-3.45641-3.20951c-3.65391-5.33274-3.407-14.86254.4444-19.55337,1.13567-1.43194,5.48087-4.444,6.2709-4.444a2.26742,2.26742,0,0,0,1.33319-.44439c.69128-.74066,2.96263-.93817,8.73976-.83941C123.59457,390.45738,124.87838,390.60551,125.224,391.198Z"/>
        </g>
        <g id="aa3b8aa6-2cda-4301-a3ec-4046ea58224a" data-name="g4530">
          <path id="f5bbba9f-30f7-4447-a968-5204d07c2aca" data-name="path14" class="bb221ad0-7862-403f-a49b-3783de4e4b15" d="M233.85384,344.78348a54.79492,54.79492,0,0,0-25.57739,13.72686l-2.07384,1.87633v72.93011c0,.79.74066.83942,10.76423.74066l10.71485-.14813.14813-34.4159.09875-34.36653,1.87634-1.48131a16.53434,16.53434,0,0,1,6.17215-3.30827,33.78659,33.78659,0,0,1,12.73931-1.23443,18.29969,18.29969,0,0,0,4.14768.14813c.34565-.09876,1.23443-1.77758,2.02447-3.75267.74066-1.97509,1.92571-4.5427,2.51824-5.72775,1.62944-3.11076,1.48131-3.9008-.69128-4.39457-1.03693-.24689-2.91326-.69128-4.24644-.98755C248.96326,343.49968,238.24841,343.74656,233.85384,344.78348Z"/>
        </g>
        <g id="b9ec77ae-221d-4e47-b8e9-4ade75d1449c" data-name="g4536">
          <path id="b97227e8-33b1-47cc-9bee-e92600211719" data-name="path16" class="bb221ad0-7862-403f-a49b-3783de4e4b15" d="M341.24922,344.88224a10.51413,10.51413,0,0,0-3.407.93816,2.05831,2.05831,0,0,1-1.185.4444,16.90741,16.90741,0,0,0-3.9008,1.58007c-3.80205,1.87633-9.62855,7.25844-12.09741,11.258-2.1726,3.50578-4.69084,8.73976-5.08585,10.61609a18.67519,18.67519,0,0,1-.74066,2.46886c-.19751.54315-.79,2.66637-1.28381,4.69084-1.33318,5.33273-1.33318,22.41724-.04938,27.40434,1.18506,4.59207,3.85142,11.60364,4.3452,11.60364a.50262.50262,0,0,1,.44439.54314c0,1.87634,5.87589,9.33229,10.02357,12.68994a35.4996,35.4996,0,0,0,8.98665,4.64146,59.63693,59.63693,0,0,0,13.875,2.3701c7.01156,0,19.65212-3.012,23.84918-5.67837a16.66692,16.66692,0,0,1,3.012-1.48132c1.48132-.44439,4.74021-2.46886,5.13523-3.16014.44439-.69128-5.08585-11.8999-5.82651-11.8999a4.68311,4.68311,0,0,0-1.92571.98754,4.41328,4.41328,0,0,1-1.92571.98755,3.627,3.627,0,0,0-1.62945.69128,47.133,47.133,0,0,1-5.67837,2.27135c-4.39457,1.53069-5.13523,1.62944-11.60364,1.67882-6.12278,0-7.1597-.09875-9.13478-1.03692-6.91281-3.30827-10.863-11.653-10.863-22.911a32.217,32.217,0,0,1,.14814-4.49332c.04937-.09875,11.01111-.24689,24.29357-.395l24.19483-.24688-.14814-4.93772c-.29626-9.67793-2.86387-22.71351-5.08585-25.67614-.19751-.29626-.88879-1.53069-1.53069-2.76512-2.66637-5.28336-8.29537-9.82606-14.96129-12.048C356.60553,344.33909,347.66826,343.84532,341.24922,344.88224Zm10.6161,15.70194c2.07384.54315,6.419,4.04893,6.419,5.13523a6.54933,6.54933,0,0,0,.74066,1.92571c1.13568,2.222,2.02447,9.5298,1.23443,10.468-.49377.6419-2.41948.74065-12.39367.74065H336.06462l-.29626-1.23443c-.64191-2.51823,1.08629-9.28291,3.06138-11.8999,2.1726-2.91325,4.09831-4.39457,6.96219-5.234a12.3684,12.3684,0,0,1,3.4564-.6419C349.54459,359.94228,350.72964,360.28792,351.86532,360.58418Z"/>
        </g>
        <g id="ac5f2e9a-f282-4cab-8b8f-87d4d8856489" data-name="g4524">
          <path id="a05b9bf0-4e1a-46b9-9e92-a2381cc92665" data-name="path6" class="bb221ad0-7862-403f-a49b-3783de4e4b15" d="M171.14481,310.1207c-3.75267,1.92571-4.88835,2.86387-6.51779,5.28335-1.58007,2.41949-1.62945,2.617-1.62945,7.65347v5.234l1.87633,2.56761a12.30323,12.30323,0,0,0,6.96219,5.234c4.39457,1.43194,8.19661.88879,12.59118-1.87634,5.28336-3.35765,7.11032-11.94928,3.9008-18.26956-1.13568-2.222-2.12322-3.25889-5.08585-5.13522C180.57585,309.08377,173.81117,308.68876,171.14481,310.1207Z"/>
          <path id="ba88b3d3-9ea0-4a49-ab85-f15f50510092" data-name="path18" class="bb221ad0-7862-403f-a49b-3783de4e4b15" d="M183.24222,345.771a38.663,38.663,0,0,1-4.93772.93816c-1.87633.24689-5.33274.74066-7.65347,1.0863a26.17333,26.17333,0,0,0-4.59207.88879c-.4444.395-.49378,84.28686-.09876,85.02752.19751.24689,4.59208.4444,10.36921.4444,10.07295,0,10.12232,0,10.36921-1.13568.14813-.59253.19751-20.54091.14813-44.29134-.14813-42.81-.14813-43.205-1.13567-43.30379A8.17485,8.17485,0,0,0,183.24222,345.771Z"/>
        </g>
      </g>
    </g>
  </g>
</svg>
