<svg id="Layer_1" data-name="Layer 1" xmlns="http://www.w3.org/2000/svg" width="512" height="512" viewBox="0 0 512 512">
  <defs>
    <style>
      .cls-1, .cls-4 {
        fill: #00adef;
      }

      .cls-2, .cls-5 {
        fill: #fff;
      }

      .cls-2, .cls-3, .cls-4 {
        fill-rule: evenodd;
      }

      .cls-3 {
        fill: purple;
      }

      .cls-6 {
        fill: none;
        stroke: #fff;
        stroke-miterlimit: 3.26625;
        stroke-width: 0.38375px;
      }
    </style>
  </defs>
  <g id="g10">
    <path id="path98" class="cls-1" d="M494.36886,290.9904V289.576a3.63167,3.63167,0,0,1-1.24953,1.27555,3.10112,3.10112,0,0,1-1.61612.40783,2.96506,2.96506,0,0,1-2.81144-1.82439,18.26721,18.26721,0,0,1,0-11.34115,2.9618,2.9618,0,0,1,2.81144-1.82439,3.20142,3.20142,0,0,1,1.63132.39915,3.51454,3.51454,0,0,1,1.23433,1.256v-9.8183h2.65524v22.884Zm-3.8939-7.21947a11.5238,11.5238,0,0,0,.45338,3.89608,1.61778,1.61778,0,0,0,3.07393,0,16.7693,16.7693,0,0,0,0-7.80083,1.61778,1.61778,0,0,0-3.07393,0A11.54893,11.54893,0,0,0,490.475,283.77093Zm-7.45591,2.37974v.18872a5.27729,5.27729,0,0,1-1.15191,3.60323,3.95552,3.95552,0,0,1-3.14334,1.31677,3.88482,3.88482,0,0,1-3.55985-1.80921c-.74842-1.204-1.13021-3.13248-1.13021-5.779a10.96066,10.96066,0,0,1,1.13021-5.5838,3.72689,3.72689,0,0,1,3.41016-1.84609,3.86456,3.86456,0,0,1,3.51427,1.67688q1.08033,1.67253,1.07814,5.48618v.84169h-6.62289v.42953a7.87684,7.87684,0,0,0,.50979,3.29951,1.72435,1.72435,0,0,0,1.63784,1.02609,1.52474,1.52474,0,0,0,1.36449-.70937,4.06015,4.06015,0,0,0,.50979-2.12809l2.45348-.013Zm-6.47539-3.98937h4.05011v-.36661a5.23178,5.23178,0,0,0-.47291-2.58582,1.63184,1.63184,0,0,0-1.51636-.79613,1.66411,1.66411,0,0,0-1.54022.95232,5.97269,5.97269,0,0,0-.52065,2.79624Zm-10.88126,8.82909V278.47348h-1.447v-1.96539h1.447v-3.92645h2.65523v3.92645h1.99361v1.96539h-1.99361v12.51691Zm-8.8204-14.4823h2.65308V290.9904H456.842Zm-.37312-4.32344a1.69042,1.69042,0,0,1,.48377-1.22565,1.59677,1.59677,0,0,1,1.21266-.50545,1.56174,1.56174,0,0,1,1.18879.50545,1.66153,1.66153,0,0,1,.49026,1.22565,1.64216,1.64216,0,0,1-.4946,1.2018,1.70195,1.70195,0,0,1-2.39711.00651A1.64018,1.64018,0,0,1,456.46888,272.18465Zm-20.45441,18.80574v-14.4823h2.62269V277.955a3.41294,3.41294,0,0,1,1.24086-1.19529,3.5677,3.5677,0,0,1,1.72678-.39915,3.12129,3.12129,0,0,1,1.66819.42518,3.69625,3.69625,0,0,1,1.25387,1.3363,3.94635,3.94635,0,0,1,1.38183-1.32545,3.76653,3.76653,0,0,1,1.81788-.436,2.97488,2.97488,0,0,1,2.36888.88725,4.02045,4.02045,0,0,1,.77228,2.70295V290.9904h-2.65309v-9.725a3.6927,3.6927,0,0,0-.38178-2.00877,1.55144,1.55144,0,0,0-1.34281-.53148,1.6563,1.6563,0,0,0-1.33414.55317,2.54092,2.54092,0,0,0-.45338,1.64434V290.9904h-2.62488v-9.725a3.69653,3.69653,0,0,0-.38179-1.99359,1.47606,1.47606,0,0,0-1.3016-.54666,1.54783,1.54783,0,0,0-1.28855.55317,2.62286,2.62286,0,0,0-.436,1.64434V290.9904h-2.6552Zm-8.67724-14.4823h2.65308V290.9904h-2.65308Zm-.3753-4.32344a1.68725,1.68725,0,0,1,.49026-1.22565,1.68145,1.68145,0,0,1,2.4036,0,1.69593,1.69593,0,0,1,.49026,1.22565,1.64413,1.64413,0,0,1-.49678,1.2018,1.702,1.702,0,0,1-2.39711.00651,1.63723,1.63723,0,0,1-.49026-1.20831Zm-13.441,18.80574V269.43614h2.90687v18.86865h6.22591v2.6856h-9.13278Zm-20.808,0v-14.4823h2.6227V277.955a3.50172,3.50172,0,0,1,1.29507-1.19529,3.7179,3.7179,0,0,1,1.75932-.39915,2.97792,2.97792,0,0,1,2.36888.88725,3.997,3.997,0,0,1,.78095,2.70295V290.9904h-2.67476v-9.725a3.67262,3.67262,0,0,0-.38179-2.00877,1.53279,1.53279,0,0,0-1.3298-.53148,1.65059,1.65059,0,0,0-1.33847.55317,2.58071,2.58071,0,0,0-.44686,1.64434V290.9904Zm-14.99208-7.25851a10.274,10.274,0,0,1,1.24734-5.58163,4.38994,4.38994,0,0,1,7.24334,0,13.19092,13.19092,0,0,1,0,11.18929,4.376,4.376,0,0,1-7.24334,0A10.35836,10.35836,0,0,1,377.72081,283.73188Zm2.69863-.03254a10.68183,10.68183,0,0,0,.52279,3.89175,1.74624,1.74624,0,0,0,1.64652,1.2365,1.77134,1.77134,0,0,0,1.67905-1.24084,14.19649,14.19649,0,0,0,0-7.75745,1.76915,1.76915,0,0,0-1.67905-1.23868,1.74407,1.74407,0,0,0-1.64652,1.23434A10.62246,10.62246,0,0,0,380.41944,283.69934Zm-10.61011-7.19125h2.65308V290.9904h-2.65308Zm-.3753-4.32344a1.66336,1.66336,0,0,1,.49245-1.22565,1.67627,1.67627,0,0,1,2.39923,0,1.67854,1.67854,0,0,1,.49025,1.22565,1.63563,1.63563,0,0,1-.49678,1.2018,1.68567,1.68567,0,0,1-2.88518-1.2018Zm-8.79438,18.80574V278.47348h-1.44694v-1.96539h1.44694v-3.92645h2.65523v3.92645h1.99361v1.96539h-1.99361v12.51691Zm-12.54512-7.25851a11.49293,11.49293,0,0,0,.46424,3.9091,1.59212,1.59212,0,0,0,3.0544-.00651,16.61719,16.61719,0,0,0,.00867-7.80084,1.61426,1.61426,0,0,0-3.06741,0A11.378,11.378,0,0,0,348.09453,283.73188Zm3.89609,7.25851V289.576a3.62237,3.62237,0,0,1-1.2452,1.27555,3.13085,3.13085,0,0,1-1.61831.40783,2.97338,2.97338,0,0,1-2.768-1.90682,17.14588,17.14588,0,0,1-.01082-11.21315,2.98435,2.98435,0,0,1,2.7789-1.89815,3.21748,3.21748,0,0,1,1.63132.397,3.50958,3.50958,0,0,1,1.23215,1.256v-1.38619h2.65523v14.48231Zm-16.7948,0v-14.4823H337.76v2.1129a4.24285,4.24285,0,0,1,1.4057-1.73544,3.95743,3.95743,0,0,1,2.09337-.64429v2.80708h-.44471a2.95662,2.95662,0,0,0-2.27126.77662,3.46173,3.46173,0,0,0-.72236,2.42746v8.738Zm-15.02247-7.25851a10.25156,10.25156,0,0,1,1.25168-5.58163,4.38582,4.38582,0,0,1,7.239,0,13.17033,13.17033,0,0,1,0,11.18929,4.37188,4.37188,0,0,1-7.239,0A10.33563,10.33563,0,0,1,320.17335,283.73188Zm2.69863-.03254a10.62474,10.62474,0,0,0,.525,3.89175,1.74426,1.74426,0,0,0,1.64651,1.2365,1.76873,1.76873,0,0,0,1.67686-1.24084,14.14135,14.14135,0,0,0,0-7.75745,1.76657,1.76657,0,0,0-1.67686-1.23868A1.74213,1.74213,0,0,0,323.397,279.825,10.56632,10.56632,0,0,0,322.872,283.69934Zm-16.57571,13.12649V276.50809h2.67043v1.38619a3.54934,3.54934,0,0,1,1.23433-1.256,3.22007,3.22007,0,0,1,1.63351-.397,2.97577,2.97577,0,0,1,2.80925,1.82222,18.19088,18.19088,0,0,1,0,11.34331,2.97248,2.97248,0,0,1-2.80925,1.82222,3.072,3.072,0,0,1-1.61613-.41,3.87486,3.87486,0,0,1-1.25168-1.27121v7.278h-2.67046Zm2.56848-13.094a11.12335,11.12335,0,0,0,.46857,3.90259,1.61678,1.61678,0,0,0,3.0739,0,16.76971,16.76971,0,0,0,0-7.80084,1.61874,1.61874,0,0,0-3.0739,0A11.11124,11.11124,0,0,0,308.86475,283.73188Zm-13.2241,7.25851v-14.4823h2.56629v2.1129a4.25226,4.25226,0,0,1,1.40137-1.73544,3.97136,3.97136,0,0,1,2.09556-.64429v2.80708h-.44253a2.95339,2.95339,0,0,0-2.27126.77662,3.45124,3.45124,0,0,0-.72455,2.42746v8.738Zm-15.02028-7.25851a10.274,10.274,0,0,1,1.24734-5.58163,4.38582,4.38582,0,0,1,7.239,0,13.14943,13.14943,0,0,1,0,11.18929,4.37188,4.37188,0,0,1-7.239,0A10.35836,10.35836,0,0,1,280.62037,283.73188Zm2.70078-.03254a10.73854,10.73854,0,0,0,.52064,3.89175,1.74488,1.74488,0,0,0,1.64867,1.2365,1.77013,1.77013,0,0,0,1.67471-1.24084,14.19649,14.19649,0,0,0,0-7.75745,1.76792,1.76792,0,0,0-1.67471-1.23868,1.74265,1.74265,0,0,0-1.64867,1.23434A10.67953,10.67953,0,0,0,283.32115,283.69934Zm-6.92878,6.80946a6.4501,6.4501,0,0,1-1.4621.564,6.38516,6.38516,0,0,1-1.56406.18656,5.3957,5.3957,0,0,1-4.9395-2.70079q-1.63677-2.7073-1.63565-8.15227,0-5.55452,1.74194-8.4039a5.704,5.704,0,0,1,5.176-2.84831,6.79278,6.79278,0,0,1,1.41.14535,6.41979,6.41979,0,0,1,1.2734.42953v2.76152a6.48391,6.48391,0,0,0-1.19095-.45989,4.3387,4.3387,0,0,0-1.06512-.14535,3.55468,3.55468,0,0,0-3.37978,2.03264c-.70936,1.34932-1.063,3.50778-1.063,6.46238a14.12286,14.12286,0,0,0,1.0109,6.11745,3.29465,3.29465,0,0,0,3.11947,1.98492,3.84642,3.84642,0,0,0,1.22567-.20175,6.84185,6.84185,0,0,0,1.34281-.60958v2.83746Zm-25.67378-7.19125-2.844-6.80946h2.78972l1.44476,4.18026,1.46863-4.18026h2.75937l-2.81144,6.80946,3.31689,7.67285h-2.80491l-1.92854-5.04582-1.90681,5.04582H247.3865l3.332-7.67285Zm-10.55152-6.80946h2.65523V290.9904h-2.65523Zm-.371-4.32344a1.68357,1.68357,0,0,1,.48592-1.22565,1.5967,1.5967,0,0,1,1.21266-.50545,1.57287,1.57287,0,0,1,1.19094.50545,1.67851,1.67851,0,0,1,.49026,1.22565,1.64216,1.64216,0,0,1-.4946,1.2018,1.68254,1.68254,0,0,1-2.88518-1.2018Zm-10.47777,18.80574v-14.4823h2.562v2.1129a4.24652,4.24652,0,0,1,1.40788-1.73544,3.94518,3.94518,0,0,1,2.09338-.64429v2.80708h-.44472a2.94821,2.94821,0,0,0-2.2691.77662,3.45128,3.45128,0,0,0-.72455,2.42746v8.738Zm-9.16749,0V278.47348h-1.4426v-1.96539h1.4426v-3.92645h2.65523v3.92645h1.99359v1.96539h-1.99359v12.51691Zm-14.86193,0v-14.4823h2.627V277.955a3.51253,3.51253,0,0,1,1.2929-1.19529,3.70851,3.70851,0,0,1,1.76148-.39915,2.981,2.981,0,0,1,2.36889.88725,4.0205,4.0205,0,0,1,.77228,2.70295V290.9904h-2.66826v-9.725a3.7169,3.7169,0,0,0-.37964-2.00877,1.54694,1.54694,0,0,0-1.33412-.53148,1.6476,1.6476,0,0,0-1.33845.55317,2.58059,2.58059,0,0,0-.44688,1.64434V290.9904Zm-17.38268,0,5.04364-21.55425h2.729l5.0458,21.55425h-2.93507l-1.03258-4.23666h-4.91349l-1.00438,4.23666Zm6.41465-15.99-1.94152,9.33454h3.87439l-1.93285-9.33454"/>
    <path id="path100" class="cls-2" d="M57.38542,216.88464l139.51262.37963-39.1018,73.52439H18.47454l38.9109-73.904"/>
    <path id="path102" class="cls-3" d="M167.2848,216.88464c-50.96359,7.124-102.78187,18.1441-140.17642,57.28061l30.27705-57.2806H167.2848"/>
    <path id="path104" class="cls-4" d="M148.49641,281.10052l-11.38888,9.68813h14.61464ZM67.44669,273.7856l-9.4929,17.003H72.191Zm-17.17876-2.37539L34.60769,290.78864h12.339ZM196.898,217.26426l-39.1018,73.52439h-1.70942l-4.36465-12.25443L165.76629,266.757h-7.2108l-8.44728,6.93311L147.735,266.757h-4.17592l3.60756,9.59268L129.9857,290.69319l-3.03487.09545,13.47791-24.0316h-4.74645l-13.66666,24.0316h-2.37106l-8.06766-9.49723,4.74427.18873a10.50909,10.50909,0,0,0,9.4929-7.31491c.75708-3.70518-.37964-7.124-5.50788-7.50581l-37.01059.09762-8.54273,15.10272L70.577,266.757H66.49649l-13.47575,24.0316H51.691l3.51211-24.0316H48.84483L45.52362,269.985,27.49015,290.78864H18.47451c34.35534-46.83321,87.78758-59.84473,140.55387-68.77577,12.6232-1.13889,24.96224-3.703,37.86962-4.74861ZM97.33978,270.83969H86.04852l-11.29559,19.949H85.85545Zm80.99765-27.0079H176.3113l-7.7119,13.8814h-2.742l7.71406-13.88141h-2.38407l1.16057-2.09122h7.14787Zm-6.69232,0h-2.54676l-2.178,3.91994a6.57642,6.57642,0,0,1-.96534,1.35581,4.43581,4.43581,0,0,1-1.34931.93064,6.39058,6.39058,0,0,1-1.54456.49027c-.19742.04339-.48159.08677-.85471.13016.06291.39264.10631.70936.12365.948.11281.73973.21259,1.2864.29937,1.63348.16269.60741.3471,1.21916.55317,1.82873.07593.2191.18872.5228.33841.91328l-2.99148,1.57058c-.14968-.63561-.27333-1.15408-.36878-1.57058q-.41649-1.89055-.69851-3.85486-.18222-1.36992-.24513-3.13465-.03255-.58572-.026-1.59878l2.781-1.31027a11.61831,11.61831,0,0,0-.07159,1.243c.05424.85037.295,1.27556.72889,1.27556a1.858,1.858,0,0,0,1.358-.62259,5.18027,5.18027,0,0,0,.44254-.62042l1.96105-3.5273h-6.69233l1.16493-2.09121h11.942Zm-1.56189,6.63157h-3.037l-.36011-2.05867h4.54037Zm-11.14374-.62042a.95671.95671,0,0,0-.36444-.1627,4.10243,4.10243,0,0,0-1.32978-.1974,4.50794,4.50794,0,0,0-2.12593.948q-.45556.29286-1.27555.948l-3.52513,6.33438h-2.7073l2.11074-3.78761c-.436.19524-.77879.33624-1.02392.42518a6.30911,6.30911,0,0,1-2.09556.423,2.49723,2.49723,0,0,1-2.52508-1.20614q-.615-1.31135.56837-3.43184a8.58471,8.58471,0,0,1,5.00893-4.08264,13.21808,13.21808,0,0,1,3.01317-.49244l-.61174,2.15846a8.79685,8.79685,0,0,0-1.83741.19741,4.45217,4.45217,0,0,0-2.95893,2.15412,2.56652,2.56652,0,0,0-.45556,1.84609c.13233.44688.52714.66814,1.17794.66814a4.51169,4.51169,0,0,0,2.24306-.75058,10.91772,10.91772,0,0,0,1.07381-.75058l4.02841-7.252h-8.90936l1.16059-2.09122h13.74257l-1.16492,2.09122h-2.11941l-2.614,4.70523a10.10042,10.10042,0,0,1,1.01307-.59005,5.01153,5.01153,0,0,1,2.15412-.58789,3.54184,3.54184,0,0,1,1.11285.1627,1.14076,1.14076,0,0,1,.41435.19741Zm-22.03583,11.16978-2.64656,1.76581-1.66819-4.28-6.64461,4.59026-1.2647-1.45343,7.27368-4.57508h2.51206ZM147.5593,243.8318h-3.165l-2.55979,4.60544h-5.80941a3.17856,3.17856,0,0,0-1.88514.68551,5.55093,5.55093,0,0,0-1.551,1.79618,3.02051,3.02051,0,0,0-.23863,2.98931,2.36941,2.36941,0,0,0,2.28429,1.32328,5.93571,5.93571,0,0,0,2.33635-.653,8.79946,8.79946,0,0,0,2.49471-1.69857l1.269,1.47079a15.05924,15.05924,0,0,1-3.64444,2.18883,9.6978,9.6978,0,0,1-3.64661.71805q-2.8407,0-3.87222-1.95889-1.0315-1.96215.49026-4.7074a8.33722,8.33722,0,0,1,2.87-3.01967,6.78429,6.78429,0,0,1,3.6336-1.16058h3.81365l1.43826-2.57931H132.1225l1.16276-2.09121h15.43463ZM131.26562,249.843h-4.93085l-1.08682,1.95889-.19958.35793a1.746,1.746,0,0,1-.49677.57487,1.4068,1.4068,0,0,1-.82216.21042q-.68658,0-1.17577-1.69857a3.37577,3.37577,0,0,1-.07375-2.44915,2.30749,2.30749,0,0,1,1.115-1.01307,3.47313,3.47313,0,0,1,.66381-.19523h8.25639Zm1.28207-6.01115h-9.03951l1.1584-2.09122h9.04168Zm13.61892-1.96106h-3.52513q-.77119-.71913-1.49683-1.46862a18.82632,18.82632,0,0,0-4.10433-2.77671,13.32569,13.32569,0,0,0-6.00247-1.53587,11.52317,11.52317,0,0,0-4.4319.75058,6.32106,6.32106,0,0,0-3.15852,2.80925,5.85108,5.85108,0,0,0-.57052,1.43825,2.92761,2.92761,0,0,0-.102.653h2.31683l-1.15841,2.09122h-2.02613l-7.71189,13.88141h-2.742l7.71407-13.88141h-2.38407l1.16059-2.09122H120.328a3.23825,3.23825,0,0,1,.03688-.653,5.47011,5.47011,0,0,1,.6356-1.73111,9.38973,9.38973,0,0,1,4.85925-4.28,17.58576,17.58576,0,0,1,6.43418-1.01307,13.83233,13.83233,0,0,1,6.70968,2.02613,27.82844,27.82844,0,0,1,5.09353,3.75724q1.038,1.012,2.06953,2.024Zm-28.9234,1.96106h-2.15847l-3.02836,5.45364a6.90654,6.90654,0,0,1-.58137.75275,4.66287,4.66287,0,0,1-1.05212.833,7.12175,7.12175,0,0,1-1.27121.58788,3.46371,3.46371,0,0,1-.95016.24513l-.93714-1.666c.20825-.02169.423-.05424.64211-.09761a3.89856,3.89856,0,0,0,.6638-.19524,1.67686,1.67686,0,0,0,.72022-.47291q.1692-.24731.26032-.41l2.79624-5.03062h-4.63581l-4.21064,7.57739,3.857,6.10227a1.6115,1.6115,0,0,1-.04337.57269,3.29575,3.29575,0,0,1-.37747,1.00223,4.54326,4.54326,0,0,1-1.95238,1.781,3.80773,3.80773,0,0,1-2.19318.57053l-.781-1.46862c.36661,0,.64428-.013.833-.03254a2.30225,2.30225,0,0,0,1.39269-.68767,3.23294,3.23294,0,0,0,.282-.39048c.16921-.3037.19958-.512.08243-.62259l-4.04575-6.40163,4.44709-8.00258H102.7175l1.16276-2.09121h14.52135Zm1.45126,27.00789c3.22793.28635,2.089,3.2301.95017,4.75079-1.04561,1.42524-3.22793,1.80486-5.41243,1.80486l-6.73571.09328-1.70942,3.421,7.59258,9.879H91.17244l11.29126-19.949h16.23077"/>
    <path id="path106" class="cls-5" d="M178.33741,243.83179h-2.02613l-7.71189,13.8814h-2.742l7.71406-13.88141h-2.38406l1.16057-2.09122h7.14787l-1.15841,2.09122"/>
    <path id="path108" class="cls-6" d="M178.33741,243.83179h-2.02613l-7.71189,13.8814h-2.742l7.71406-13.88141h-2.38406l1.16057-2.09122h7.14787Z"/>
    <path id="path110" class="cls-5" d="M171.6451,243.83179h-2.54676l-2.178,3.91994a6.57644,6.57644,0,0,1-.96535,1.35581,4.43569,4.43569,0,0,1-1.34931.93064,6.39058,6.39058,0,0,1-1.54456.49027c-.19741.04339-.48159.08677-.8547.13016.06291.39264.1063.70936.12365.948.11281.73973.21259,1.2864.29936,1.63348.16269.60741.3471,1.21916.55317,1.82873.07593.2191.18873.5228.33841.91328l-2.99147,1.57058c-.14969-.63561-.27334-1.15408-.36878-1.57058q-.41651-1.89055-.69852-3.85486-.18222-1.36992-.24513-3.13465-.03253-.58572-.026-1.59878l2.781-1.31027a11.61763,11.61763,0,0,0-.07158,1.243c.05423.85037.295,1.27556.72888,1.27556a1.858,1.858,0,0,0,1.358-.62259,5.17913,5.17913,0,0,0,.44254-.62042l1.96106-3.5273H159.6987l1.16493-2.09121h11.942l-1.16058,2.09121"/>
    <path id="path112" class="cls-6" d="M171.6451,243.83179h-2.54676l-2.178,3.91994a6.57644,6.57644,0,0,1-.96535,1.35581,4.43569,4.43569,0,0,1-1.34931.93064,6.39058,6.39058,0,0,1-1.54456.49027c-.19741.04339-.48159.08677-.8547.13016.06291.39264.1063.70936.12365.948.11281.73973.21259,1.2864.29936,1.63348.16269.60741.3471,1.21916.55317,1.82873.07593.2191.18873.5228.33841.91328l-2.99147,1.57058c-.14969-.63561-.27334-1.15408-.36878-1.57058q-.41651-1.89055-.69852-3.85486-.18222-1.36992-.24513-3.13465-.03253-.58572-.026-1.59878l2.781-1.31027a11.61763,11.61763,0,0,0-.07158,1.243c.05423.85037.295,1.27556.72888,1.27556a1.858,1.858,0,0,0,1.358-.62259,5.17913,5.17913,0,0,0,.44254-.62042l1.96106-3.5273H159.6987l1.16493-2.09121h11.942Z"/>
    <path id="path114" class="cls-5" d="M170.08321,250.46337h-3.037l-.3601-2.05868h4.54036l-1.14322,2.05868"/>
    <path id="path116" class="cls-6" d="M170.08321,250.46337h-3.037l-.3601-2.05868h4.54036Z"/>
    <path id="path118" class="cls-5" d="M158.93945,249.84294a.95677.95677,0,0,0-.36444-.1627,4.1025,4.1025,0,0,0-1.32979-.1974,4.508,4.508,0,0,0-2.12593.948q-.45555.29286-1.27555.948l-3.52512,6.33438h-2.7073l2.11073-3.78761c-.436.19524-.77878.33624-1.02391.42518a6.30916,6.30916,0,0,1-2.09556.423,2.49723,2.49723,0,0,1-2.52508-1.20614q-.615-1.31135.56836-3.43184a8.58477,8.58477,0,0,1,5.00893-4.08264,13.21818,13.21818,0,0,1,3.01317-.49244l-.61174,2.15846a8.79682,8.79682,0,0,0-1.8374.19741,4.45221,4.45221,0,0,0-2.95894,2.15412,2.5665,2.5665,0,0,0-.45555,1.84609c.13232.44688.52713.66814,1.17793.66814a4.51166,4.51166,0,0,0,2.24306-.75058,10.91881,10.91881,0,0,0,1.07382-.75058l4.02841-7.252h-8.90936l1.16059-2.09122h13.74257l-1.16492,2.09122H158.037l-2.614,4.70523a10.1004,10.1004,0,0,1,1.01308-.59005,5.01153,5.01153,0,0,1,2.15411-.58789,3.5419,3.5419,0,0,1,1.11286.1627,1.14065,1.14065,0,0,1,.41434.19741l-1.17793,2.12375"/>
    <path id="path120" class="cls-6" d="M158.93945,249.84294a.95677.95677,0,0,0-.36444-.1627,4.1025,4.1025,0,0,0-1.32979-.1974,4.508,4.508,0,0,0-2.12593.948q-.45555.29286-1.27555.948l-3.52512,6.33438h-2.7073l2.11073-3.78761c-.436.19524-.77878.33624-1.02391.42518a6.30916,6.30916,0,0,1-2.09556.423,2.49723,2.49723,0,0,1-2.52508-1.20614q-.615-1.31135.56836-3.43184a8.58477,8.58477,0,0,1,5.00893-4.08264,13.21818,13.21818,0,0,1,3.01317-.49244l-.61174,2.15846a8.79682,8.79682,0,0,0-1.8374.19741,4.45221,4.45221,0,0,0-2.95894,2.15412,2.5665,2.5665,0,0,0-.45555,1.84609c.13232.44688.52713.66814,1.17793.66814a4.51166,4.51166,0,0,0,2.24306-.75058,10.91881,10.91881,0,0,0,1.07382-.75058l4.02841-7.252h-8.90936l1.16059-2.09122h13.74257l-1.16492,2.09122H158.037l-2.614,4.70523a10.1004,10.1004,0,0,1,1.01308-.59005,5.01153,5.01153,0,0,1,2.15411-.58789,3.5419,3.5419,0,0,1,1.11286.1627,1.14065,1.14065,0,0,1,.41434.19741Z"/>
    <path id="path122" class="cls-5" d="M136.90362,261.01272l-2.64656,1.76581-1.6682-4.28-6.6446,4.59026-1.26471-1.45343,7.27369-4.57508h2.51205l2.43831,3.95248"/>
    <path id="path124" class="cls-6" d="M136.90362,261.01272l-2.64656,1.76581-1.6682-4.28-6.6446,4.59026-1.26471-1.45343,7.27369-4.57508h2.51205Z"/>
    <path id="path126" class="cls-5" d="M147.55925,243.83179h-3.165l-2.55979,4.60544H136.025a3.17856,3.17856,0,0,0-1.88514.68551,5.551,5.551,0,0,0-1.551,1.79618,3.02051,3.02051,0,0,0-.23863,2.98931,2.36941,2.36941,0,0,0,2.28429,1.32328,5.93571,5.93571,0,0,0,2.33635-.653,8.79925,8.79925,0,0,0,2.49471-1.69857l1.269,1.47079a15.05873,15.05873,0,0,1-3.64444,2.18883,9.6978,9.6978,0,0,1-3.64661.71805q-2.8407,0-3.87222-1.95889-1.03151-1.96213.49026-4.7074a8.33717,8.33717,0,0,1,2.87-3.01968,6.78429,6.78429,0,0,1,3.6336-1.16058h3.81365l1.43826-2.5793h-9.69465l1.16276-2.09122h15.43463l-1.16059,2.09122"/>
    <path id="path128" class="cls-6" d="M147.55925,243.83179h-3.165l-2.55979,4.60544H136.025a3.17856,3.17856,0,0,0-1.88514.68551,5.551,5.551,0,0,0-1.551,1.79618,3.02051,3.02051,0,0,0-.23863,2.98931,2.36941,2.36941,0,0,0,2.28429,1.32328,5.93571,5.93571,0,0,0,2.33635-.653,8.79925,8.79925,0,0,0,2.49471-1.69857l1.269,1.47079a15.05873,15.05873,0,0,1-3.64444,2.18883,9.6978,9.6978,0,0,1-3.64661.71805q-2.8407,0-3.87222-1.95889-1.03151-1.96213.49026-4.7074a8.33717,8.33717,0,0,1,2.87-3.01968,6.78429,6.78429,0,0,1,3.6336-1.16058h3.81365l1.43826-2.5793h-9.69465l1.16276-2.09122h15.43463Z"/>
    <path id="path130" class="cls-5" d="M131.26558,249.84294h-4.93084l-1.08682,1.95889-.19959.35794a1.74592,1.74592,0,0,1-.49676.57486,1.40682,1.40682,0,0,1-.82216.21042q-.68659,0-1.17577-1.69857a3.37572,3.37572,0,0,1-.07375-2.44915,2.30742,2.30742,0,0,1,1.115-1.01306,3.47286,3.47286,0,0,1,.6638-.19524h8.25639l-1.24951,2.25391"/>
    <path id="path132" class="cls-6" d="M131.26558,249.84294h-4.93084l-1.08682,1.95889-.19959.35794a1.74592,1.74592,0,0,1-.49676.57486,1.40682,1.40682,0,0,1-.82216.21042q-.68659,0-1.17577-1.69857a3.37572,3.37572,0,0,1-.07375-2.44915,2.30742,2.30742,0,0,1,1.115-1.01306,3.47286,3.47286,0,0,1,.6638-.19524h8.25639Z"/>
    <path id="path134" class="cls-5" d="M132.54764,243.83179h-9.03951l1.1584-2.09122h9.04168l-1.16059,2.09122"/>
    <path id="path136" class="cls-6" d="M132.54764,243.83179h-9.03951l1.1584-2.09122h9.04168Z"/>
    <path id="path138" class="cls-5" d="M146.16656,241.87073h-3.52513q-.7712-.71913-1.49683-1.46861a18.82637,18.82637,0,0,0-4.10433-2.77672,13.32569,13.32569,0,0,0-6.00247-1.53587,11.52317,11.52317,0,0,0-4.4319.75058,6.32109,6.32109,0,0,0-3.15851,2.80925,5.85087,5.85087,0,0,0-.57053,1.43825,2.92761,2.92761,0,0,0-.102.653h2.31683l-1.15841,2.09122h-2.02613l-7.71189,13.8814h-2.742l7.71407-13.88141h-2.38407l1.16059-2.09122h2.38406a3.23825,3.23825,0,0,1,.03688-.653,5.47006,5.47006,0,0,1,.6356-1.7311,9.38971,9.38971,0,0,1,4.85925-4.28005,17.58576,17.58576,0,0,1,6.43418-1.01307,13.83233,13.83233,0,0,1,6.70968,2.02613,27.82937,27.82937,0,0,1,5.09353,3.75724q1.038,1.012,2.06953,2.024"/>
    <path id="path140" class="cls-6" d="M146.16656,241.87073h-3.52513q-.7712-.71913-1.49683-1.46861a18.82637,18.82637,0,0,0-4.10433-2.77672,13.32569,13.32569,0,0,0-6.00247-1.53587,11.52317,11.52317,0,0,0-4.4319.75058,6.32109,6.32109,0,0,0-3.15851,2.80925,5.85087,5.85087,0,0,0-.57053,1.43825,2.92761,2.92761,0,0,0-.102.653h2.31683l-1.15841,2.09122h-2.02613l-7.71189,13.8814h-2.742l7.71407-13.88141h-2.38407l1.16059-2.09122h2.38406a3.23825,3.23825,0,0,1,.03688-.653,5.47006,5.47006,0,0,1,.6356-1.7311,9.38971,9.38971,0,0,1,4.85925-4.28005,17.58576,17.58576,0,0,1,6.43418-1.01307,13.83233,13.83233,0,0,1,6.70968,2.02613,27.82937,27.82937,0,0,1,5.09353,3.75724q1.038,1.012,2.06953,2.024Z"/>
    <path id="path142" class="cls-5" d="M117.24316,243.83179h-2.15847l-3.02836,5.45364a6.90654,6.90654,0,0,1-.58137.75275,4.66259,4.66259,0,0,1-1.05212.833,7.12177,7.12177,0,0,1-1.27121.58789,3.464,3.464,0,0,1-.95016.24512l-.93714-1.666c.20825-.02169.423-.05423.64211-.09761a3.89856,3.89856,0,0,0,.6638-.19524,1.67686,1.67686,0,0,0,.72022-.47291q.1692-.24731.26032-.41l2.79624-5.03063h-4.63581l-4.21064,7.57739,3.857,6.10227a1.6113,1.6113,0,0,1-.04337.5727,3.2956,3.2956,0,0,1-.37747,1.00222,4.5432,4.5432,0,0,1-1.95238,1.781,3.80765,3.80765,0,0,1-2.19318.57053l-.781-1.46862c.36661,0,.64428-.013.833-.03254a2.30217,2.30217,0,0,0,1.39269-.68767,3.23294,3.23294,0,0,0,.282-.39048c.16921-.3037.19958-.512.08243-.62258l-4.04575-6.40164,4.44709-8.00257h-2.28429l1.16276-2.09122h14.52135l-1.1584,2.09122"/>
    <path id="path144" class="cls-6" d="M117.24316,243.83179h-2.15847l-3.02836,5.45364a6.90654,6.90654,0,0,1-.58137.75275,4.66259,4.66259,0,0,1-1.05212.833,7.12177,7.12177,0,0,1-1.27121.58789,3.464,3.464,0,0,1-.95016.24512l-.93714-1.666c.20825-.02169.423-.05423.64211-.09761a3.89856,3.89856,0,0,0,.6638-.19524,1.67686,1.67686,0,0,0,.72022-.47291q.1692-.24731.26032-.41l2.79624-5.03063h-4.63581l-4.21064,7.57739,3.857,6.10227a1.6113,1.6113,0,0,1-.04337.5727,3.2956,3.2956,0,0,1-.37747,1.00222,4.5432,4.5432,0,0,1-1.95238,1.781,3.80765,3.80765,0,0,1-2.19318.57053l-.781-1.46862c.36661,0,.64428-.013.833-.03254a2.30217,2.30217,0,0,0,1.39269-.68767,3.23294,3.23294,0,0,0,.282-.39048c.16921-.3037.19958-.512.08243-.62258l-4.04575-6.40164,4.44709-8.00257h-2.28429l1.16276-2.09122h14.52135Z"/>
  </g>
</svg>
