<svg id="bd674151-c97f-4f1f-84e0-19b7e571c374" data-name="Layer 1" xmlns="http://www.w3.org/2000/svg" width="512" height="512" viewBox="0 0 512 512">
  <defs>
    <style>
      .bffaa4eb-ddb0-4140-b25b-881ddbdfffc0 {
        fill: #68a9d5;
      }

      .a3a1244a-c4d9-422c-a430-9e7feffa5702 {
        fill: #003b77;
        fill-rule: evenodd;
      }
    </style>
  </defs>
  <g>
    <path class="bffaa4eb-ddb0-4140-b25b-881ddbdfffc0" d="M408.48657,289.53228h16.65675l4.6891-22.18568c1.18977-7.13862,5.38895-13.22742,12.38759-13.22742,4.6191-.20995,6.50872,2.65947,6.50872,5.52892a35.85436,35.85436,0,0,1-1.11978,7.27857l-4.61911,22.53562h17.21665l4.40914-22.46563c1.04979-5.109,1.32973-6.92864,1.32973-10.148,0-9.44816-5.249-16.65675-14.97708-16.65675-8.74829,0-13.78732,3.56929-18.54638,8.95825H432.212l1.25974-7.83847h-15.397c-.48991,4.33915-1.18977,8.39838-2.0296,12.59756Zm-.5599-27.7146c0-12.10763-8.6783-21.5558-25.05511-21.5558-18.89632,0-31.07394,11.47777-31.07394,28.41445,0,12.10764,7.20859,21.97572,25.05511,21.97572,17.9865,0,31.07394-8.81827,31.07394-28.83437M390.71,261.60773c0,10.91787-4.899,17.35661-12.66753,17.35661-5.6689.07-9.09823-4.26917-9.09823-10.70791,0-7.6985,4.969-16.3768,13.01747-16.3768,6.50872,0,8.74829,4.75906,8.74829,9.7281m-43.1116,14.69713a26.114,26.114,0,0,1-10.70791,2.0996c-6.99864,0-11.47776-4.6891-11.47776-10.428,0-10.008,6.08882-15.537,14.69714-15.537a25.11724,25.11724,0,0,1,10.7079,2.5895l3.56931-11.54775a44.50728,44.50728,0,0,0-15.11706-3.21937c-18.47639,0-31.07394,12.59754-31.07394,28.41446,0,12.10764,8.67831,21.97572,22.74557,21.97572,6.43875,0,10.91788-.69986,14.20722-1.81965Zm-42.27177-14.48718c0-12.10763-8.67831-21.5558-25.05512-21.5558-18.82633,0-31.07395,11.47777-31.07395,28.41445,0,12.10764,7.2086,21.97572,25.05512,21.97572,18.05649,0,31.07395-8.81827,31.07395-28.83437M288.18,261.60773c0,10.91787-4.899,17.35661-12.66754,17.35661-5.59891.07-9.02824-4.26917-9.02824-10.70791,0-7.6985,4.969-16.3768,13.01747-16.3768,6.43875,0,8.67831,4.75906,8.67831,9.7281m-55.9191-28.06454h16.79672l2.5895-12.17762H234.8504Zm-11.68773,55.98909h16.79673l10.008-48.15062H230.58124Zm-37.23274-27.36467h4.19918c7.76848,0,11.82769.83984,11.82769,6.50872,0,6.29878-5.80887,8.67831-14.48717,8.67831H180.261Zm-22.74557,27.36467,29.39427-.34993c14.76712-.20995,26.52483-6.6487,26.52483-20.296,0-7.13862-5.109-11.3378-12.45757-12.45757v-.20995c10.148-1.18978,16.9367-7.6985,16.9367-16.3768,0-12.17763-11.54775-14.76713-18.19646-14.76713h-28.6944Zm27.99454-52.3498h4.40915c6.43874,0,10.70791.83983,10.70791,6.01882,0,4.40913-4.26916,7.27858-11.47776,7.27858H185.72Z"/>
    <path class="a3a1244a-c4d9-422c-a430-9e7feffa5702" d="M109.57481,185.39257a11.53885,11.53885,0,0,0,7.83847,12.73752h0c8.88827,2.72946,16.02688,11.68772,14.13725,20.716-1.81965,8.7483-11.96767,13.85731-20.99591,12.87749h-.07a11.70742,11.70742,0,0,0-10.008,3.70928,11.10386,11.10386,0,0,0-2.51951,10.91787,10.47208,10.47208,0,0,0,2.72947,4.6191,13.32526,13.32526,0,0,0,4.89905,3.0794,21.62133,21.62133,0,0,1,10.63793,7.83848c2.65948,3.49932,4.26916,8.18841,3.28936,12.73753-1.11979,5.109-4.19919,8.04843-7.90846,10.288a21.36348,21.36348,0,0,1-12.94748,2.72946h-.07a11.53285,11.53285,0,1,0,9.44816,14.90709h0a20.40821,20.40821,0,0,1,21.62579-14.06726h0a11.56588,11.56588,0,0,0,12.45757-9.02824A11.34457,11.34457,0,0,0,134.35,266.01686v-.07c-8.67831-2.79946-15.81692-11.61774-13.92729-20.436,1.88964-9.02823,12.10764-14.06726,21.27586-13.01747h0a11.5064,11.5064,0,0,0,4.54911-22.46562v-.07a20.22019,20.22019,0,0,1-13.99727-21.27583h0a11.45755,11.45755,0,0,0-22.67558-3.28936"/>
    <path class="a3a1244a-c4d9-422c-a430-9e7feffa5702" d="M90.81846,326.55507A11.56168,11.56168,0,0,0,82.91,313.81754h0c-8.88827-2.72947-16.02688-11.68773-14.13725-20.716,1.88963-8.7483,11.96767-13.85729,20.99591-12.87749l.07-.07a11.512,11.512,0,0,0,10.008-3.70927,11.26877,11.26877,0,0,0,2.51951-10.91787,10.47213,10.47213,0,0,0-2.72947-4.61911,12.76947,12.76947,0,0,0-4.89905-3.07939h0A21.20912,21.20912,0,0,1,84.09976,249.99c-2.65948-3.49932-4.26916-8.2584-3.28935-12.73752,1.04979-5.109,4.19918-8.04843,7.90846-10.288a20.7395,20.7395,0,0,1,12.94748-2.65949h0a11.49931,11.49931,0,1,0-4.26917-21.34584,11.40085,11.40085,0,0,0-5.109,6.43874h0a20.40824,20.40824,0,0,1-21.62579,14.06727h0a11.46923,11.46923,0,0,0-4.54911,22.39563v.07c8.67831,2.79946,15.81692,11.61775,13.92729,20.436-1.88963,9.02824-12.10764,14.06727-21.27586,13.01747h0a11.58713,11.58713,0,0,0-12.17762,7.76849,11.70364,11.70364,0,0,0,7.62851,14.76713v.07a20.40046,20.40046,0,0,1,13.8573,21.34584h0a11.59365,11.59365,0,0,0,9.58813,12.8075,11.72544,11.72544,0,0,0,13.15744-9.58814"/>
  </g>
</svg>
