<svg id="Layer_1" data-name="Layer 1" xmlns="http://www.w3.org/2000/svg" width="512" height="512" viewBox="0 0 512 512">
  <defs>
    <style>
      .cls-1 {
        fill: #a7423b;
      }

      .cls-2 {
        fill: #faa634;
      }

      .cls-3 {
        fill: #df6d36;
      }

      .cls-4 {
        fill: #ba683d;
      }

      .cls-5 {
        fill: #111;
      }

      .cls-6 {
        fill: none;
      }

      .cls-7 {
        fill: #9d9fa2;
      }
    </style>
  </defs>
  <g>
    <g>
      <path class="cls-1" d="M430.99084,355.16929h28.22465a10.63263,10.63263,0,0,0,10.62723-10.62215V316.31741a10.63481,10.63481,0,0,0-10.62723-10.61707H430.99084a10.62939,10.62939,0,0,0-10.61708,10.61707v28.22973A10.63052,10.63052,0,0,0,430.99084,355.16929Z"/>
      <path class="cls-2" d="M412.2064,344.54721a18.80681,18.80681,0,0,0,18.77944,18.78952h28.22465A18.8122,18.8122,0,0,0,478,344.54721v-28.2298A18.81112,18.81112,0,0,0,459.21049,297.533H430.98584a18.80572,18.80572,0,0,0-18.77944,18.78443Zm8.16736-28.2298a10.62939,10.62939,0,0,1,10.61708-10.61707h28.22465a10.63481,10.63481,0,0,1,10.62723,10.61707v28.22973a10.63263,10.63263,0,0,1-10.62723,10.62215H430.99084a10.63052,10.63052,0,0,1-10.61708-10.62215Z"/>
      <path class="cls-3" d="M430.99084,281.49118h28.22465a10.63156,10.63156,0,0,0,10.62723-10.61708V242.64437a10.6305,10.6305,0,0,0-10.62723-10.61208H430.99084a10.62507,10.62507,0,0,0-10.61708,10.61208V270.8741A10.62945,10.62945,0,0,0,430.99084,281.49118Z"/>
      <path class="cls-2" d="M430.98584,289.65853h28.22465A18.81107,18.81107,0,0,0,478,270.8741V242.64437a18.8068,18.8068,0,0,0-18.78951-18.77943H430.98584a18.8014,18.8014,0,0,0-18.77944,18.77943V270.8741A18.80572,18.80572,0,0,0,430.98584,289.65853Zm-10.61208-47.01416a10.62507,10.62507,0,0,1,10.61708-10.61208h28.22465a10.6305,10.6305,0,0,1,10.62723,10.61208V270.8741a10.63156,10.63156,0,0,1-10.62723,10.61708H430.99084a10.62945,10.62945,0,0,1-10.61708-10.61708Z"/>
      <path class="cls-4" d="M459.21549,158.54109H430.99084a10.62935,10.62935,0,0,0-10.61708,10.61708v28.22465a10.63487,10.63487,0,0,0,10.61708,10.62723h28.22465a10.637,10.637,0,0,0,10.62723-10.62723V169.15817A10.63481,10.63481,0,0,0,459.21549,158.54109Z"/>
      <path class="cls-2" d="M459.21049,150.37366H430.98584a18.80252,18.80252,0,0,0-18.77944,18.78451v28.22465a18.80681,18.80681,0,0,0,18.77944,18.78951h28.22465A18.8122,18.8122,0,0,0,478,197.38282V169.15817A18.80792,18.80792,0,0,0,459.21049,150.37366Zm10.63223,47.00916a10.637,10.637,0,0,1-10.62723,10.62723H430.99084a10.63487,10.63487,0,0,1-10.61708-10.62723V169.15817a10.62935,10.62935,0,0,1,10.61708-10.61708h28.22465a10.63481,10.63481,0,0,1,10.62723,10.61708Z"/>
    </g>
    <g>
      <g id="blackmagic">
        <path class="cls-5" d="M70.73375,192.04231q0-7.43247-5.18735-11.65249-5.18225-4.22008-15.25385-4.22263h-12.794v61.39428h17.9864q9.49325,0,15.04677-4.41455a14.38381,14.38381,0,0,0,5.56618-11.88486q0-12.47083-14.19828-15.54683Q70.73379,200.9194,70.73375,192.04231Zm.28283,29.14906a11.127,11.127,0,0,1-4.09633,9.05631q-4.09882,3.39422-11.98086,3.38922H42.22112V208.61447H52.87358Q71.0267,208.61447,71.01658,221.19137ZM48.8177,204.61413H42.22112V180.09684h6.41975q16.94844,0,16.94591,12.27884Q65.58678,204.6116,48.8177,204.61413Z"/>
        <rect class="cls-5" x="82.15394" y="176.16719" width="4.35386" height="61.39428"/>
        <path class="cls-5" d="M99.84228,217.71624q-6.099,3.81858-6.09646,10.42517a9.67036,9.67036,0,0,0,3.15684,7.2784,10.79927,10.79927,0,0,0,7.71784,2.99523q6.27325,0,12.63744-5.01559a11.28482,11.28482,0,0,0,.83341,4.02564,2.20392,2.20392,0,0,0,2.0709.98995q2.59105,0,8.17243-4.19733v-3.5912q-4.51557,3.576-5.74794,3.571c-.6415,0-.96479-.68688-.96479-2.06581V206.8921a9.27069,9.27069,0,0,0-3.5609-7.8643,14.51436,14.51436,0,0,0-9.04624-2.70732q-6.18994,0-13.05164,4.29332v4.42962q6.62931-5.1519,12.33945-5.152,8.95535,0,8.95532,8.28866V213.327Q105.93881,213.91037,99.84228,217.71624Zm17.42073-.81311v12.7132q-5.705,5.22769-11.23835,5.22774a8.51863,8.51863,0,0,1-5.70756-1.9446,6.0332,6.0332,0,0,1-2.278-4.76814q0-5.04586,5.46-8.28858Q108.96178,216.6,117.263,216.90313Z"/>
        <path class="cls-5" d="M150.29119,200.538a26.307,26.307,0,0,1,10.49585,2.571v-4.78322a34.41416,34.41416,0,0,0-10.72315-2.00528,18.20432,18.20432,0,0,0-14.08206,6.05608q-5.50045,6.06118-5.51056,15.61251,0,9.15981,5.47018,14.79418,5.455,5.63684,14.31943,5.63687a34.68045,34.68045,0,0,0,11.23828-2.0759v-4.50039a28.4945,28.4945,0,0,1-10.87968,2.35373q-7.10676,0-11.33435-4.51054-4.2276-4.51559-4.23271-12.18285,0-7.5385,4.23778-12.24853A14.0893,14.0893,0,0,1,150.29119,200.538Z"/>
        <rect class="cls-5" x="167.25225" y="176.16719" width="4.28317" height="61.39428"/>
        <path class="cls-5" d="M194.48187,197.10844l-22.29994,19.22895,25.53763,21.22408h10.122V209.19029q5.1444-8.65225,12.188-8.65226a9.37264,9.37264,0,0,1,7.733,3.63159c1.92437,2.41941,2.87394,5.86924,2.87394,10.35447v23.03738h4.359V209.98332a27.06986,27.06986,0,0,1,5.70248-7.20263,10.00314,10.00314,0,0,1,6.49552-2.24266,9.06687,9.06687,0,0,1,7.76329,3.75789q2.7654,3.7655,2.76794,10.314v22.95153H262.013V212.72088q0-7.43247-3.859-11.91517a12.69439,12.69439,0,0,0-10.13218-4.48523q-8.34155,0-14.03152,9.70789-3.78813-9.70532-13.07688-9.70789-7.97037,0-12.90012,7.90975h-.17676v-7.12179h-4.28824v40.38585l-25.482-21.17713,22.13326-19.20872Z"/>
        <path class="cls-5" d="M274.56467,217.71624q-6.10665,3.81858-6.10162,10.42517a9.65737,9.65737,0,0,0,3.16192,7.2784,10.78269,10.78269,0,0,0,7.71784,2.99523q6.27326,0,12.63244-5.01559a11.17077,11.17077,0,0,0,.83342,4.02564,2.19532,2.19532,0,0,0,2.06582.98995q2.59868,0,8.1775-4.19733v-3.5912q-4.50807,3.576-5.74294,3.571c-.65158,0-.96979-.68688-.96979-2.06581V206.8921a9.284,9.284,0,0,0-3.561-7.8643,14.51438,14.51438,0,0,0-9.04624-2.70732q-6.19,0-13.04657,4.29332v4.42962q6.62183-5.1519,12.33438-5.152,8.963,0,8.95539,8.28866V213.327Q280.66363,213.91037,274.56467,217.71624Zm17.41058,11.90009q-5.705,5.22769-11.23836,5.22774a8.5094,8.5094,0,0,1-5.70755-1.9446,6.03829,6.03829,0,0,1-2.283-4.76814q0-5.04586,5.46511-8.28858,5.46261-3.24273,13.76384-2.93962Z"/>
        <path class="cls-5" d="M303.052,247.46635q0,4.89437,4.59639,7.85422,4.60649,2.97,13.0718,2.96493,8.50837,0,13.289-3.14169a10.46673,10.46673,0,0,0,1.79306-16.10749q-2.97747-2.80325-11.54141-3.29322-8.569-.48483-10.20795-1.54562a3.21183,3.21183,0,0,1-1.64653-2.82339,3.45867,3.45867,0,0,1,1.27786-2.64171q1.27285-1.1516,6.28337-2.44465a53.43415,53.43415,0,0,0,8.0209-2.64664,12.95385,12.95385,0,0,0,5.18735-4.29332,13.20753,13.20753,0,0,0,2.1719-8.00575q0-5.62932-5.57626-10.73322h9.15231v-3.50036H322.71531q-8.2962,0-12.72843,4.02056a13.40165,13.40165,0,0,0-4.4397,10.41,13.25746,13.25746,0,0,0,2.7527,8.15221,15.01385,15.01385,0,0,0,8.06637,5.258v.17676q-8.09913,2.33354-8.10167,6.59651,0,4.2201,6.5662,5.76317v.17676Q303.04946,239.549,303.052,247.46635Zm9.75328-28.41664a10.79218,10.79218,0,0,1-3.11638-7.7936,10.51224,10.51224,0,0,1,10.63223-10.57162,10.51727,10.51727,0,0,1,7.69261,3.15176,10.24,10.24,0,0,1,3.19723,7.59162,10.90862,10.90862,0,0,1-10.80907,10.83929A10.19531,10.19531,0,0,1,312.80527,219.04971Zm9.01593,20.67857q12.81939,0,12.81935,7.1421,0,3.523-3.69727,5.68733-3.69732,2.15931-9.9605,2.15674-13.789,0-13.78407-7.49055Q307.19871,239.72324,321.8212,239.72828Z"/>
        <rect class="cls-5" x="343.84839" y="176.16219" width="4.35901" height="7.36424"/>
        <rect class="cls-5" x="343.84839" y="197.10844" width="4.35901" height="40.45303"/>
        <path class="cls-5" d="M364.81987,229.687q-4.23508-4.51559-4.22755-12.18285,0-7.5385,4.23771-12.24853a14.082,14.082,0,0,1,11.001-4.71761,26.28772,26.28772,0,0,1,10.49585,2.571v-4.78322a34.41376,34.41376,0,0,0-10.72315-2.00528,18.20442,18.20442,0,0,0-14.08206,6.05608q-5.51556,6.06118-5.51056,15.61251,0,9.15981,5.46511,14.79418,5.4626,5.63684,14.31942,5.63687a34.6574,34.6574,0,0,0,11.23836-2.0759v-4.50039a28.4512,28.4512,0,0,1-10.87468,2.35373Q369.05254,234.19756,364.81987,229.687Z"/>
      </g>
      <g id="design">
        <path class="cls-6" d="M249.49671,296.92266a12.79066,12.79066,0,0,0-8.6068,3.11645,15.11783,15.11783,0,0,0-4.8186,8.75325H262.311Q260.00768,296.92774,249.49671,296.92266Z"/>
        <path class="cls-6" d="M219.82744,300.70077a21.26285,21.26285,0,0,0-11.73841-3.773,15.2978,15.2978,0,0,0-11.4758,4.65192,16.332,16.332,0,0,0-4.51546,11.86971,16.74327,16.74327,0,0,0,4.8186,12.25361,16.23516,16.23516,0,0,0,12.05154,4.88422A18.66417,18.66417,0,0,0,219.82744,326.9Z"/>
        <path class="cls-6" d="M339.11056,315.45457a10.45453,10.45453,0,0,0,3.18214-7.64208,10.28768,10.28768,0,0,0-3.18714-7.59161,10.53674,10.53674,0,0,0-7.69761-3.15177,10.50386,10.50386,0,0,0-10.62723,10.57162,10.77136,10.77136,0,0,0,3.11645,7.79361,10.18728,10.18728,0,0,0,7.59662,3.21745A10.398,10.398,0,0,0,339.11056,315.45457Z"/>
        <path class="cls-6" d="M318.27538,343.60853q0,7.493,13.79415,7.49054,6.26576,0,9.9605-2.15674,3.70493-2.15931,3.69727-5.68733,0-7.12947-12.82435-7.14209Q318.288,336.11291,318.27538,343.60853Z"/>
        <path class="cls-7" d="M224.18637,333.941V272.54681h-4.35893v23.406A26.3274,26.3274,0,0,0,207.9072,292.7a19.4822,19.4822,0,0,0-14.582,5.99546,22.16849,22.16849,0,0,0,.101,30.00771,19.31139,19.31139,0,0,0,14.481,6.09647,20.05018,20.05018,0,0,0,11.92024-3.94981V333.941Zm-15.21846-3.35383a16.23516,16.23516,0,0,1-12.05154-4.88422,16.74327,16.74327,0,0,1-4.8186-12.25361,16.332,16.332,0,0,1,4.51546-11.86971,15.2978,15.2978,0,0,1,11.4758-4.65192,21.26285,21.26285,0,0,1,11.73841,3.773V326.9A18.66417,18.66417,0,0,1,208.96791,330.58719Z"/>
        <path class="cls-7" d="M267.38211,312.29265q0-9.05377-5.19235-14.31943a17.9796,17.9796,0,0,0-25.98207.56574q-5.28078,5.83389-5.2782,14.72856,0,9.37961,5.71764,15.46091a18.98062,18.98062,0,0,0,14.45073,6.07124,24.85506,24.85506,0,0,0,15.562-5.349v-4.87414q-7.34155,6.00811-15.03663,6.00554a15.80027,15.80027,0,0,1-11.42534-4.70746,15.38455,15.38455,0,0,1-4.83375-11.47572,19.40505,19.40505,0,0,1,.1263-2.10628Zm-26.4922-12.25354a12.79066,12.79066,0,0,1,8.6068-3.11645q10.5312,0,12.81427,11.8697H236.07131A15.11783,15.11783,0,0,1,240.88991,300.03911Z"/>
        <path class="cls-7" d="M290.76293,328.60721a9.39141,9.39141,0,0,1-6.15715,1.9749c-3.70735,0-7.95521-1.22732-12.74351-3.71243v4.21756a22.889,22.889,0,0,0,12.15254,3.7175,14.13206,14.13206,0,0,0,9.46044-3.23768,10.02343,10.02343,0,0,0,3.83873-7.94514,10.51928,10.51928,0,0,0-2.11635-6.38944q-2.11386-2.85621-8.98563-5.54588c-4.561-1.783-7.36932-3.25791-8.38457-4.41454a5.61242,5.61242,0,0,1-1.53046-3.7882,5.99613,5.99613,0,0,1,2.50026-4.87421,9.65573,9.65573,0,0,1,6.15207-1.9749q4.91709,0,11.07167,4.14686v-4.64184q-5.849-3.42454-10.81915-3.43467a13.78056,13.78056,0,0,0-9.2483,3.23768,9.98029,9.98029,0,0,0-3.8185,7.8643,9.50884,9.50884,0,0,0,2.04567,5.9197c1.37385,1.77291,4.34378,3.571,8.93509,5.38934q6.87935,2.72755,8.47041,4.52062a5.766,5.766,0,0,1,1.57592,3.89426A6.30634,6.30634,0,0,1,290.76293,328.60721Z"/>
        <rect class="cls-7" x="304.11256" y="272.54681" width="4.35893" height="7.36424"/>
        <rect class="cls-7" x="304.11256" y="293.49306" width="4.35893" height="40.45303"/>
        <path class="cls-7" d="M314.13374,343.851q0,4.89437,4.60139,7.85421,4.59138,2.97,13.0668,2.96493,8.50075,0,13.289-3.14169a10.47561,10.47561,0,0,0,1.79306-16.10749q-2.97747-2.80324-11.54142-3.29322-8.56882-.48482-10.20794-1.54561a3.2016,3.2016,0,0,1-1.64654-2.8234A3.49225,3.49225,0,0,1,324.766,325.117c.84858-.76773,2.94978-1.58092,6.28338-2.44464a53.23864,53.23864,0,0,0,8.0209-2.64664,12.954,12.954,0,0,0,5.18735-4.29332,13.20781,13.20781,0,0,0,2.17689-8.00575q0-5.62933-5.57618-10.73323h9.15231v-3.50036H333.80206q-8.2962,0-12.73344,4.02057a14.009,14.009,0,0,0-1.687,18.56221,15.052,15.052,0,0,0,8.06636,5.258v.17676q-8.09924,2.33355-8.09666,6.59652,0,4.22008,6.5662,5.76317v.17676Q314.1211,335.93364,314.13374,343.851Zm9.76343-28.41664a10.77136,10.77136,0,0,1-3.11645-7.79361A10.50386,10.50386,0,0,1,331.408,297.06911a10.53674,10.53674,0,0,1,7.69761,3.15177,10.28768,10.28768,0,0,1,3.18714,7.59161,10.89111,10.89111,0,0,1-10.79891,10.8393A10.18728,10.18728,0,0,1,323.89717,315.43434Zm9.00578,20.67857q12.82689,0,12.82435,7.14209,0,3.523-3.69727,5.68733-3.69732,2.15933-9.9605,2.15674-13.789,0-13.79415-7.49054Q318.27538,336.10787,332.90295,336.11291Z"/>
        <path class="cls-7" d="M372.00236,292.7051q-8.27348,0-13.31933,7.82391h-.17676v-7.036h-4.28832v40.453h4.28832V305.57491q5.19747-8.65226,13.23341-8.65225,11.00091,0,11.001,13.98606v23.03737H387.034V309.28234q0-7.781-4.09633-12.17785Q378.85393,292.70256,372.00236,292.7051Z"/>
      </g>
    </g>
  </g>
</svg>
