<svg id="a49d0551-4519-4e9f-b4ab-8095fabad381" data-name="Layer 1" xmlns="http://www.w3.org/2000/svg" width="512" height="512" viewBox="0 0 512 512">
  <defs>
    <style>
      .b2cd2a85-309a-4755-85e2-52f7b1b30774 {
        fill: #fff;
      }

      .f08b462a-a2b5-464e-a34a-349fa506b955 {
        fill: #9ba1a8;
      }

      .b847a2cf-9d37-4e34-9035-c20be24df02e {
        fill: #7bc143;
      }

      .a9606569-c634-4298-8158-4b12c165cb61 {
        fill: #7ac143;
      }

      .b0f9ecf2-f30b-4cfd-a8bc-8e5185f4ff52 {
        fill: #9ca1a8;
      }

      .b05dc143-bc38-49b1-abc5-08f5a24cd36e {
        fill: #9da2a9;
      }

      .fcc93182-d092-4648-9e39-832ef92ec82a {
        fill: #7dc245;
      }

      .bc40cd5c-fea7-4f95-bd01-3f04c4db2115 {
        fill: #9ea3aa;
      }

      .aee8e68f-77ac-405c-9f28-ac94b04f0a7f {
        fill: #9fa4ab;
      }
    </style>
  </defs>
  <g id="bd858ab1-5a14-4659-98ab-9cda4f01f0e3" data-name="Layer 1-2">
    <path class="b2cd2a85-309a-4755-85e2-52f7b1b30774" d="M77.71183,256.28683c-1.78181,10.0141-8.29226,16.199-18.05793,18.63188-7.40992,1.84177-15.05113.49685-22.581.78811-2.10733.07709-1.70471-1.52482-1.71327-2.74125-.0257-5.52531-.01714-11.05919-.01714-16.58451s.1028-10.59661-.04283-15.88206c-.06853-2.33006.711-3.01537,3.01537-3.0068,2.26152.00857,2.76694.84807,2.74124,2.91257-.08566,8.9433.0771,17.8866-.09423,26.8299-.0514,2.80121.771,3.73494,3.58075,3.52935,3.75207-.27413,7.51271-.0514,11.29049-.53112,10.35675-1.31065,16.91-9.20029,16.47315-20.19095-.37692-9.38019-8.35222-17.1242-18.00653-17.45828a45.77178,45.77178,0,0,0-5.31116,0c-2.27866.17989-3.09246-.58252-3.07533-2.964.01713-2.39859,1.14789-2.62131,3.06676-2.61275,6.93877.0257,13.68051.771,19.50565,4.9942C76.85519,238.07471,79.43367,246.57256,77.71183,256.28683Z"/>
    <path class="b2cd2a85-309a-4755-85e2-52f7b1b30774" d="M96.30087,272.38306c.11993,2.1673-.13706,3.478-2.94683,3.44369-2.71554-.0257-2.71554-1.39632-2.68985-3.31519.0514-5.05417.01713-10.10833.01713-15.16249,0-4.583-.05139-9.17459.0257-13.749.03427-1.66188-.908-3.85487,2.39-3.9234,3.358-.06853,3.17813,1.97883,3.17813,4.14612q.01285,10.935,0,21.86141C96.27517,267.92,96.18951,270.15581,96.30087,272.38306Z"/>
    <path class="b2cd2a85-309a-4755-85e2-52f7b1b30774" d="M96.4465,229.48263c.59108,2.68985-.93373,2.9811-3.16956,3.0582-2.81834.1028-3.161-1.24212-3.25522-3.60644-.11993-2.93827,1.57621-2.67271,3.54648-2.80121C96.21521,225.95329,96.88339,227.16115,96.4465,229.48263Z"/>
    <path class="b2cd2a85-309a-4755-85e2-52f7b1b30774" d="M144.04987,242.10091c.00857-1.56765-.40262-2.47568-2.17586-2.35575-1.37919.09423-2.8526-.317-3.221,1.79037-.18846,1.0708.22273,2.32149-.65961,3.28092-9.97126-7.53841-19.42855-7.66691-25.92186-.40262-5.94507,6.639-5.84228,17.23556.22272,23.47188,6.836,7.033,16.36179,6.74174,25.8105-1.03653,1.32779,10.23683-3.20382,15.41092-13.02089,15.30812a19.9212,19.9212,0,0,1-11.04206-3.221c-1.66188-1.10506-2.51-.84807-3.57218.82238-1.10507,1.73041-.83094,2.647.89947,3.555,7.45275,3.91483,15.22246,5.16552,23.20632,2.15872a13.72376,13.72376,0,0,0,9.31166-13.00376C144.22977,262.35183,143.98991,252.22637,144.04987,242.10091Zm-18.25495,25.9133c-7.16149.04283-12.33559-5.01133-12.33559-12.06147a11.739,11.739,0,0,1,12.03577-12.02719c7.29855-.0771,13.45778,5.47391,13.42351,12.11286C138.89291,262.66022,133.05921,267.97994,125.79492,268.01421Z"/>
    <path class="b2cd2a85-309a-4755-85e2-52f7b1b30774" d="M163.23,272.87991c.04283,2.0388-.44546,2.97254-2.73268,2.91257-2.01311-.05139-2.97254-.42831-2.94684-2.71554.10279-9.9884.06-19.98536.03426-29.97376-.00856-2.21013.54825-3.44369,3.20383-3.42656,2.9811.01714,2.38146,1.91887,2.39,3.58075.03426,4.9428.01713,9.877.01713,14.81127s-.07709,9.877.03426,14.81127Z"/>
    <path class="b2cd2a85-309a-4755-85e2-52f7b1b30774" d="M163.90675,229.52547c.14562,2.74124-1.11363,3.28949-3.42655,2.88687-2.68129.59964-2.9811-.84808-3.12673-3.12673-.18846-2.964,1.25926-3.0839,3.58074-3.17813C163.744,225.98755,163.79538,227.39244,163.90675,229.52547Z"/>
    <path class="b2cd2a85-309a-4755-85e2-52f7b1b30774" d="M185.02287,245.23621c-1.85034,1.9617-.49685,5.60241-.59108,8.515-.11137,3.52078-.03426,7.05013-.0257,10.57948.01713,5.82514,2.93826,8.11236,8.59208,6.73317.7881-.18846,1.57621-.38548,2.37289-.58251.59108,4.46308.17132,5.07986-3.872,5.81657-7.684,1.41346-12.66967-2.71554-12.69538-10.56235-.0257-5.99646-.06853-11.99293.0257-17.998.03426-2.08163-.257-3.48652-2.81834-3.11816-1.739.24842-2.21869-.66818-2.21869-2.27866,0-1.65331.26556-2.8526,2.28723-2.57848,2.26152.29982,2.91256-.79667,2.74123-2.86117-.12849-1.52482.0257-3.06676-.04283-4.59158-.08567-1.92744-.0257-3.30662,2.68984-3.32376,2.74124-.01713,2.98967,1.18216,2.9811,3.39229-.03426,7.32426.04283,7.29856,7.684,7.40135,1.57621.01714,3.71781-.83093,3.675,2.253-.02569,1.9617-.5825,2.647-2.61274,2.65558-2.79264.00857-6.43335-1.29352-8.17232.54825Z"/>
    <path class="b2cd2a85-309a-4755-85e2-52f7b1b30774" d="M235.50455,272.68289c-.0514-6.70748.06-13.41495-.0514-20.11386-.09423-6.27059-3.615-10.9307-9.50011-12.524-5.90223-1.60191-11.616-.64248-17.25269,1.51625-2.21012.84807-1.25925,2.02167-.9166,3.33232.44545,1.71328,1.35348,1.88461,2.86974,1.1736,3.63215-1.68758,7.52984-1.82464,11.44468-1.49912a8.14505,8.14505,0,0,1,7.82111,7.65835c.09423,1.9617-.60822,2.647-2.45,2.15872-3.95767-1.0451-7.98388-.79667-11.96724-.53968-7.06726.44545-12.09572,5.46535-11.873,11.53035.23986,6.27916,5.30259,10.71654,12.327,11.11059a17.81483,17.81483,0,0,0,13.612-4.88283,4.29132,4.29132,0,0,1,.35978,1.26782c-.33409,2.42429.8652,2.89544,3.0839,2.9297,2.53566.04283,2.50139-1.32779,2.49282-3.11816Zm-6.716-5.52532c-3.19525,4.75434-11.17913,6.519-16.10479,3.54648a6.48283,6.48283,0,0,1-3.34089-6.15066c.11137-2.7498,1.84177-4.48021,4.14613-5.66238,2.39-1.225,5.02846-.98513,8.20659-.97656.57395.0257,1.74754.0514,2.92114.13706C229.97924,258.437,231.87241,262.57456,228.78851,267.15757Z"/>
    <path class="b2cd2a85-309a-4755-85e2-52f7b1b30774" d="M254.05076,227.58946c-.11993,7.64122-.0514,15.28243-.0514,22.92364s-.06853,14.81983.0514,22.22975c.03426,2.253-.57395,3.0839-2.9554,3.06677-2.30436-.01714-2.73268-.9423-2.7241-2.964.06853-14.81127.03426-29.63111.04283-44.45094.00856-1.79894-.01714-3.555,2.69841-3.53792C253.1513,224.87393,254.085,225.31081,254.05076,227.58946Z"/>
    <path class="b2cd2a85-309a-4755-85e2-52f7b1b30774" d="M308.77278,274.00211c-.01712,2.41572-1.05367,2.707-2.98111,2.56991-1.53339-.11136-3.07532-.0257-4.60871-.0257q-18.65757,0-24.54268-14.75987c-4.00051-10.02266-1.56763-21.81,5.97077-29.02289,8.515-8.1295,24.32851-8.712,33.289-1.25926,1.028.85664,1.89316,1.67044.44544,2.71554-1.15647.84807-1.41345,3.79491-3.932,1.79894a20.38787,20.38787,0,0,0-11.37615-4.34315A18.6123,18.6123,0,0,0,280.795,249.34807c-.70245,12.87527,6.776,21.95563,18.255,22.13552,2.24438.03427,4.49735.08567,6.73316-.02569,1.89316-.08567,3.00681.07709,2.98966,2.54421Z"/>
    <path class="b2cd2a85-309a-4755-85e2-52f7b1b30774" d="M319.23235,263.31127c.11994,1.9103-.07709,3.101-2.56134,2.99823-2.15017-.08566-3.22951-.41975-3.1096-2.9297.13707-2.66415,1.19074-6.08213-.47114-7.83824-1.69615-1.78181-5.1484-.59965-7.82111-.54825-2.22726.04283-2.39-.98513-2.45-2.7755-.06-2.02167.60821-2.72411,2.62131-2.56135,1.876.14563,3.77778.0257,5.67094.0257q8.09524,0,8.09524,7.9753c0,1.8846-.08567,3.77777.0257,5.65381Z"/>
    <path class="b2cd2a85-309a-4755-85e2-52f7b1b30774" d="M350.6624,245.18481c-10.588,3.298-13.1237,6.63038-13.1237,17.62961,0,3.40941-.13707,6.8274.0514,10.22825.11994,2.24439-.67676,2.83547-2.81835,2.74124-1.83322-.07709-3.01536-.04283-2.98111-2.54421.15419-10.23683.11994-20.47365.0257-30.71047-.0257-2.1416.574-2.80978,2.7755-2.81834,2.32148-.00857,3.24666.64248,2.97253,2.98966-.16276,1.38776-.0257,2.81834-.0257,5.30259,3.34946-4.95993,6.86168-8.061,12.02721-8.712.9937-.1285,2.47569-.65105,2.29578,1.05366-.17988,1.63618,1.46485,4.0005-1.19929,4.84Z"/>
    <path class="b2cd2a85-309a-4755-85e2-52f7b1b30774" d="M379.68527,239.66806a16.93786,16.93786,0,0,0-19.89971,8.8919c-4.21467,8.38649-2.15872,18.97453,4.72864,24.35422a19.11375,19.11375,0,0,0,23.55754-.66818c.88234-.771,3.221-1.37918,1.4049-3.45225-1.41345-1.61048-2.38145-2.0388-4.44595-.32552-7.547,6.262-18.29781,3.37515-21.099-5.33685-.69388-2.18443-.76242-3.49508,2.253-3.31519,3.76065.22272,7.55555.0514,11.32475.0514s7.79542.00856,11.68456-.00857c1.13932,0,2.24439.23986,2.53564-1.57621C392.93746,250.70156,387.15516,241.62977,379.68527,239.66806Zm3.58932,16.20759c-2.92114-.21416-5.87653-.0514-8.81481-.0514s-6.11641-.03427-9.17459.01713c-1.45629.0257-2.05593-.18846-1.7047-1.97026,1.0708-5.32829,5.43108-9.68,10.38245-10.02267,5.60242-.39405,9.89416,2.82691,11.65028,8.63491C386.2814,254.68492,386.2814,256.08981,383.27459,255.87565Z"/>
    <path class="b2cd2a85-309a-4755-85e2-52f7b1b30774" d="M422.0803,239.65093a16.954,16.954,0,0,0-20.14811,9.66287c-3.94054,8.82337-1.30208,19.33432,6.09068,24.28569,7.04157,4.72864,17.80951,3.73494,23.55755-2.08163,1.11361-1.13076,1.43914-1.82464.11136-3.1096-1.47342-1.422-2.253-1.43915-3.94054-.04283-7.98387,6.61325-19.17156,3.31519-21.51016-6.065-.49684-1.996-.03428-2.50138,1.89316-2.45855,3.89769.08567,7.79541.0257,11.6931.0257h12.0529c1.19929,0,2.193.08566,2.42428-1.69614C435.28965,250.34177,429.57589,241.55266,422.0803,239.65093Zm4.14613,16.21615c-3.04963-.17132-6.11641-.04283-9.18316-.04283s-6.11641-.03426-9.18316.01714c-1.37063.02569-2.15872-.06854-1.82465-1.89317,1.028-5.611,5.71379-10.0141,11.0592-10.12546,5.47393-.11993,10.00553,3.64071,11.23052,9.26882.394,1.79894.257,2.904-2.09878,2.77551Z"/>
    <path class="b2cd2a85-309a-4755-85e2-52f7b1b30774" d="M476.65668,273.33393c.06854,2.67271-1.43058,2.30436-3.1096,2.43285-2.03023.16276-2.60419-.56538-2.56134-2.55278.11994-5.87653.08567-11.76164.03427-17.64674-.06-7.32426-3.83775-11.64171-9.9884-11.52178-6.35627.12849-10.51952,4.69437-10.57091,11.676-.03428,5.64525-.06,11.29049.0257,16.93574.02569,1.9617,0,3.18669-2.68986,3.18669s-2.964-1.14789-2.94684-3.358c.09422-9.76568.06852-19.53135.01713-29.297-.00858-2.0388-.1028-3.47795,2.82689-3.51222,2.98111-.0257,2.92114,1.482,2.767,3.48652-.03427.46258,0,.93374,0,2.38145,4.42883-5.7309,9.63718-7.40991,15.805-6.04786,6.382,1.40489,10.0655,6.08213,10.27966,13.37212C476.73374,259.68769,476.46819,266.51509,476.65668,273.33393Z"/>
    <path class="f08b462a-a2b5-464e-a34a-349fa506b955" d="M144.04987,242.10091c.00857-1.56765-.40262-2.47568-2.17586-2.35575-1.37919.09423-2.8526-.317-3.221,1.79037-.18846,1.0708.22273,2.32149-.65961,3.28092-9.97126-7.53841-19.42855-7.66691-25.92186-.40262-5.94507,6.639-5.84228,17.23556.22272,23.47188,6.836,7.033,16.36179,6.74174,25.8105-1.03653,1.32779,10.23683-3.20382,15.41092-13.02089,15.30812a19.9212,19.9212,0,0,1-11.04206-3.221c-1.66188-1.10506-2.51-.84807-3.57218.82238-1.10507,1.73041-.83094,2.647.89947,3.555,7.45275,3.91483,15.22246,5.16552,23.20632,2.15872a13.72376,13.72376,0,0,0,9.31166-13.00376C144.22977,262.35183,143.98991,252.22637,144.04987,242.10091Zm-18.25495,25.9133c-7.16149.04283-12.33559-5.01133-12.33559-12.06147a11.739,11.739,0,0,1,12.03577-12.02719c7.29855-.0771,13.45778,5.47391,13.42351,12.11286C138.89291,262.66022,133.05921,267.97994,125.79492,268.01421Z"/>
    <path class="f08b462a-a2b5-464e-a34a-349fa506b955" d="M77.71183,256.28683c-1.78181,10.0141-8.29226,16.199-18.05793,18.63188-7.40992,1.84177-15.05113.49685-22.581.78811-2.10733.07709-1.70471-1.52482-1.71327-2.74125-.0257-5.52531-.01714-11.05919-.01714-16.58451s.1028-10.59661-.04283-15.88206c-.06853-2.33006.711-3.01537,3.01537-3.0068,2.26152.00857,2.76694.84807,2.74124,2.91257-.08566,8.9433.0771,17.8866-.09423,26.8299-.0514,2.80121.771,3.73494,3.58075,3.52935,3.75207-.27413,7.51271-.0514,11.29049-.53112,10.35675-1.31065,16.91-9.20029,16.47315-20.19095-.37692-9.38019-8.35222-17.1242-18.00653-17.45828a45.77178,45.77178,0,0,0-5.31116,0c-2.27866.17989-3.09246-.58252-3.07533-2.964.01713-2.39859,1.14789-2.62131,3.06676-2.61275,6.93877.0257,13.68051.771,19.50565,4.9942C76.85519,238.07471,79.43367,246.57256,77.71183,256.28683Z"/>
    <path class="b847a2cf-9d37-4e34-9035-c20be24df02e" d="M422.0803,239.65093a16.954,16.954,0,0,0-20.14811,9.66287c-3.94054,8.82337-1.30208,19.33432,6.09068,24.28569,7.04157,4.72864,17.80951,3.73494,23.55755-2.08163,1.11361-1.13076,1.43914-1.82464.11136-3.1096-1.47342-1.422-2.253-1.43915-3.94054-.04283-7.98387,6.61325-19.17156,3.31519-21.51016-6.065-.49684-1.996-.03428-2.50138,1.89316-2.45855,3.89769.08567,7.79541.0257,11.6931.0257h12.0529c1.19929,0,2.193.08566,2.42428-1.69614C435.28965,250.34177,429.57589,241.55266,422.0803,239.65093Zm4.14613,16.21615c-3.04963-.17132-6.11641-.04283-9.18316-.04283s-6.11641-.03426-9.18316.01714c-1.37063.02569-2.15872-.06854-1.82465-1.89317,1.028-5.611,5.71379-10.0141,11.0592-10.12546,5.47393-.11993,10.00553,3.64071,11.23052,9.26882.394,1.79894.257,2.904-2.09878,2.77551Z"/>
    <path class="b847a2cf-9d37-4e34-9035-c20be24df02e" d="M379.68527,239.66806a16.93786,16.93786,0,0,0-19.89971,8.8919c-4.21467,8.38649-2.15872,18.97453,4.72864,24.35422a19.11375,19.11375,0,0,0,23.55754-.66818c.88234-.771,3.221-1.37918,1.4049-3.45225-1.41345-1.61048-2.38145-2.0388-4.44595-.32552-7.547,6.262-18.29781,3.37515-21.099-5.33685-.69388-2.18443-.76242-3.49508,2.253-3.31519,3.76065.22272,7.55555.0514,11.32475.0514s7.79542.00856,11.68456-.00857c1.13932,0,2.24439.23986,2.53564-1.57621C392.93746,250.70156,387.15516,241.62977,379.68527,239.66806Zm3.58932,16.20759c-2.92114-.21416-5.87653-.0514-8.81481-.0514s-6.11641-.03427-9.17459.01713c-1.45629.0257-2.05593-.18846-1.7047-1.97026,1.0708-5.32829,5.43108-9.68,10.38245-10.02267,5.60242-.39405,9.89416,2.82691,11.65028,8.63491C386.2814,254.68492,386.2814,256.08981,383.27459,255.87565Z"/>
    <path class="f08b462a-a2b5-464e-a34a-349fa506b955" d="M235.50455,272.68289c-.0514-6.70748.06-13.41495-.0514-20.11386-.09423-6.27059-3.615-10.9307-9.50011-12.524-5.90223-1.60191-11.616-.64248-17.25269,1.51625-2.21012.84807-1.25925,2.02167-.9166,3.33232.44545,1.71328,1.35348,1.88461,2.86974,1.1736,3.63215-1.68758,7.52984-1.82464,11.44468-1.49912a8.14505,8.14505,0,0,1,7.82111,7.65835c.09423,1.9617-.60822,2.647-2.45,2.15872-3.95767-1.0451-7.98388-.79667-11.96724-.53968-7.06726.44545-12.09572,5.46535-11.873,11.53035.23986,6.27916,5.30259,10.71654,12.327,11.11059a17.81483,17.81483,0,0,0,13.612-4.88283,4.29132,4.29132,0,0,1,.35978,1.26782c-.33409,2.42429.8652,2.89544,3.0839,2.9297,2.53566.04283,2.50139-1.32779,2.49282-3.11816Zm-6.716-5.52532c-3.19525,4.75434-11.17913,6.519-16.10479,3.54648a6.48283,6.48283,0,0,1-3.34089-6.15066c.11137-2.7498,1.84177-4.48021,4.14613-5.66238,2.39-1.225,5.02846-.98513,8.20659-.97656.57395.0257,1.74754.0514,2.92114.13706C229.97924,258.437,231.87241,262.57456,228.78851,267.15757Z"/>
    <path class="a9606569-c634-4298-8158-4b12c165cb61" d="M316.34546,234.21984c-1.15647.84807-1.41345,3.79491-3.932,1.79894a20.38787,20.38787,0,0,0-11.37615-4.34315A18.6123,18.6123,0,0,0,280.795,249.34807c-.70245,12.87527,6.776,21.95563,18.255,22.13552,2.24438.03427,4.49735.08567,6.73316-.02569,1.89316-.08567,3.00681.07709,2.98966,2.54421-.01713,2.41572-1.05368,2.707-2.98111,2.56992-1.53339-.11137-3.07533-.0257-4.60872-.0257q-18.65756,0-24.54267-14.75987c-4.00051-10.02267-1.56764-21.81,5.97077-29.0229,8.515-8.12949,24.32851-8.712,33.28893-1.25926,1.028.85664,1.89317,1.67045.44545,2.71554Z"/>
    <path class="b847a2cf-9d37-4e34-9035-c20be24df02e" d="M476.65668,273.33393c.06854,2.67271-1.43058,2.30436-3.1096,2.43285-2.03023.16276-2.60419-.56538-2.56134-2.55278.11994-5.87653.08567-11.76164.03427-17.64674-.06-7.32426-3.83775-11.64171-9.9884-11.52178-6.35627.12849-10.51952,4.69437-10.57091,11.676-.03428,5.64525-.06,11.29049.0257,16.93574.02569,1.9617,0,3.18669-2.68986,3.18669s-2.964-1.14789-2.94684-3.358c.09422-9.76568.06852-19.53135.01713-29.297-.00858-2.0388-.1028-3.47795,2.82689-3.51222,2.98111-.0257,2.92114,1.482,2.767,3.48652-.03427.46258,0,.93374,0,2.38145,4.42883-5.7309,9.63718-7.40991,15.805-6.04786,6.382,1.40489,10.0655,6.08213,10.27966,13.37212C476.73374,259.68769,476.46819,266.51509,476.65668,273.33393Z"/>
    <path class="b0f9ecf2-f30b-4cfd-a8bc-8e5185f4ff52" d="M195.37106,270.48133c.59108,4.46308.17132,5.07986-3.872,5.81657-7.684,1.41345-12.66967-2.71555-12.69538-10.56235-.0257-5.99646-.06853-11.99293.0257-17.998.03426-2.08163-.257-3.48652-2.81834-3.11816-1.739.24842-2.21869-.66818-2.21869-2.27866,0-1.65331.26556-2.8526,2.28723-2.57848,2.26152.29982,2.91256-.79667,2.74123-2.86117-.12849-1.52482.0257-3.06676-.04283-4.59158-.08567-1.92744-.0257-3.30662,2.68984-3.32376,2.74124-.01713,2.98967,1.18216,2.9811,3.39229-.03426,7.32426.04283,7.29856,7.684,7.40135,1.57621.01714,3.71781-.83093,3.675,2.253-.02569,1.9617-.5825,2.647-2.61274,2.65558-2.79264.00857-6.43335-1.29352-8.17232.54825-1.85035,1.9617-.49686,5.60241-.59109,8.515-.11136,3.52078-.03426,7.05013-.0257,10.57948.01714,5.82514,2.93827,8.11236,8.59208,6.73317.78811-.18846,1.57621-.38548,2.37289-.58251Z"/>
    <path class="b847a2cf-9d37-4e34-9035-c20be24df02e" d="M350.6624,245.18481c-10.588,3.298-13.1237,6.63038-13.1237,17.62961,0,3.40941-.13707,6.8274.0514,10.22825.11994,2.24439-.67676,2.83547-2.81835,2.74124-1.83322-.07709-3.01536-.04283-2.98111-2.54421.15419-10.23683.11994-20.47365.0257-30.71047-.0257-2.1416.574-2.80978,2.7755-2.81834,2.32148-.00857,3.24666.64248,2.97253,2.98966-.16276,1.38776-.0257,2.81834-.0257,5.30259,3.34946-4.95993,6.86168-8.061,12.02721-8.712.9937-.1285,2.47569-.65105,2.29578,1.05366-.17988,1.63618,1.46485,4.0005-1.19929,4.84Z"/>
    <path class="b05dc143-bc38-49b1-abc5-08f5a24cd36e" d="M254.05076,272.74285c.03426,2.253-.57395,3.0839-2.9554,3.06677-2.30436-.01714-2.73268-.9423-2.7241-2.964.06853-14.81127.03426-29.63111.04283-44.45094.00856-1.79894-.01714-3.555,2.69841-3.53792,2.0388.01714,2.97253.454,2.93826,2.73268-.11993,7.64121-.0514,15.28242-.0514,22.92363S253.93083,265.33294,254.05076,272.74285Z"/>
    <path class="b05dc143-bc38-49b1-abc5-08f5a24cd36e" d="M93.354,275.82675c-2.71554-.0257-2.71554-1.39632-2.68985-3.31519.0514-5.05417.01713-10.10833.01713-15.16249,0-4.583-.05139-9.17459.0257-13.749.03427-1.66188-.908-3.85487,2.39-3.9234,3.358-.06853,3.17813,1.97883,3.17813,4.14612q.01285,10.935,0,21.86141c0,2.23582-.08566,4.47165.0257,6.69891C96.4208,274.55036,96.1638,275.861,93.354,275.82675Z"/>
    <path class="b05dc143-bc38-49b1-abc5-08f5a24cd36e" d="M163.23,272.87991c.04283,2.0388-.44546,2.97254-2.73268,2.91257-2.01311-.05139-2.97254-.42831-2.94684-2.71554.10279-9.9884.06-19.98536.03426-29.97376-.00856-2.21013.54825-3.44369,3.20383-3.42656,2.9811.01714,2.38146,1.91887,2.39,3.58075.03426,4.9428.01713,9.877.01713,14.81127s-.07709,9.877.03426,14.81127Z"/>
    <path class="fcc93182-d092-4648-9e39-832ef92ec82a" d="M316.671,266.3095c-2.15017-.08566-3.22952-.41975-3.1096-2.9297.13706-2.66415,1.19073-6.08213-.47115-7.83824-1.69615-1.78181-5.1484-.59965-7.8211-.54825-2.22727.04283-2.39-.98513-2.45-2.7755-.06-2.02167.60821-2.72411,2.62131-2.56135,1.876.14563,3.77778.0257,5.67094.0257q8.09526,0,8.09524,7.9753c0,1.8846-.08567,3.77777.0257,5.65381.11994,1.9103-.07709,3.101-2.56134,2.99823Z"/>
    <path class="bc40cd5c-fea7-4f95-bd01-3f04c4db2115" d="M160.4802,232.41234c-2.68129.59964-2.9811-.84808-3.12673-3.12673-.18846-2.964,1.25926-3.0839,3.58074-3.17813,2.80977-.11993,2.86117,1.285,2.97254,3.418C164.05237,232.26671,162.79312,232.815,160.4802,232.41234Z"/>
    <path class="aee8e68f-77ac-405c-9f28-ac94b04f0a7f" d="M93.27694,232.54083c-2.81834.1028-3.161-1.24212-3.25522-3.60644-.11993-2.93827,1.57621-2.67271,3.54648-2.80121,2.647-.17989,3.31519,1.028,2.87831,3.34945C97.03759,232.17248,95.51277,232.46373,93.27694,232.54083Z"/>
  </g>
</svg>
