<svg id="Layer_1" data-name="Layer 1" xmlns="http://www.w3.org/2000/svg" width="512" height="512" viewBox="0 0 512 512">
  <defs>
    <style>
      .cls-1 {
        fill: #5f5f5f;
      }

      .cls-2 {
        fill: #fff;
      }
    </style>
  </defs>
  <g>
    <path class="cls-1" d="M380.42757,82.831H135.071c-19.77631,0-27.16525,7.38895-27.16525,27.27391V350.137a56.72844,56.72844,0,0,0,.326,6.30234c.43464,4.34646.5433,8.58423,4.56376,13.36531.43464.43464,4.56376,3.5858,4.56376,3.5858,2.17322,1.08661,3.69448,1.84725,6.19368,2.93386l120.72238,50.636c6.30234,2.82519,8.9102,4.02047,13.474,3.9118,4.56376.10867,7.17164-.97794,13.474-3.9118l120.72238-50.636a65.84812,65.84812,0,0,0,6.1937-2.93386s4.1291-3.04249,4.56377-3.5858c4.02047-4.78108,4.12911-9.01885,4.56378-13.36531a56.72613,56.72613,0,0,0,.326-6.30234V110.10487c0-19.885-7.2803-27.27391-27.16526-27.27391"/>
    <path class="cls-2" d="M363.9111,324.16705l-.10867.5433-.10867.652-.10866.5433-.21732.54331-.10867.5433-.21732.54331-.21732.5433-.21732.43464-.21732.5433-.326.43464-.326.43464-.326.43464-.326.43463-.326.43464-.43463.43464-.326.326-.43464.43464-.43464.326-.43463.326-.43464.21732-.43464.326-.5433.326-.54331.21731-.5433.326-.54331.21732-.5433.21732-.54331.21732v-.10867l-.5433.21732-.54331.10867-.97794.21731-.54331.10867-.5433.10867-.54331.10867-.5433.10867-.652.10866-.54331.10867H346.96l-.5433-.10867h-.652l-.5433-.10866-.54331-.10867-.652-.10867-.5433-.10867-.54331-.10867-.5433-.10866-.54331-.10867-.5433-.10867-.54331-.10867-.5433-.21731-.54331-.10867-.5433-.21732-.54331-.21732-.5433-.21732-.54331-.21732-.5433-.21732-.54331-.21731-.5433-.21732-.54331-.21732-.5433-.21732-.54331-.21732-.5433-.326-.43464-.326-.54331-.326-.43463-.326-.43464-.326-.43464-.326-.43464-.326-.43463-.326-.43464-.326-.43464-.326-.43464-.43464.326-.43464.43464-.43463.326-.43464.43464-.43464.326-.43464.326-.43463.43464-.43464.326-.43464.43464-.43464.326-.43463.43464-.43464.326-.43464.326-.43464.43464-.43463.326-.43464.43463-.43464.326-.43464.43464.326.5433.326.43464.326.5433.326.43464.326.54331.326.43463.326.54331.21732.43464.326.5433.21732.54331.21732.5433.21732.54331.21732.5433.21732.54331.21732.5433.21731.54331.21732.5433.10867,1.08661.21732.652.10867.54331.10867h.5433l.652.10866h1.19528l.652-.10866.5433-.10867.54331-.10867.5433-.10867.43464-.21732.43464-.21732.43463-.326.326-.43464.21732-.43464.21732-.5433.10867-.54331v-.10866l-.10867-.652-.21732-.5433-.326-.43464-.43463-.326-.43464-.326-.43464-.21732-.5433-.21732-.54331-.21732-.652-.326-.43464-.10867-.43464-.10867-.5433-.21732-.54331-.10867-.5433-.21731-.54331-.10867-.652-.21732-.5433-.10867-.652-.21732-.5433-.10866-.54331-.21732-.5433-.10867-.54331-.21732-.5433-.21732-.54331-.10867-.5433-.21731-.54331-.21732-.5433-.21732-.652-.21732-.54331-.21732-.5433-.21732-.54331-.21732-.5433-.326-.54331-.326-.43464-.326-.5433-.326-.43464-.326-.43464-.326-.43463-.326-.43464-.43464-.43464-.43464-.326-.43463-.326-.43464-.326-.43464-.326-.43464-.326-.5433-.21732-.43464-.21732-.43464-.10867-.5433-.21731-.43464-.10867-.5433-.10867-.54331-.10867-.5433-.10866-.54331-.10867-.652v-1.30393l.10867-.5433.10866-.54331.10867-.5433.10867-.54331.10867-.5433.21731-.54331.10867-.5433.21732-.54331.21732-.5433.21732-.54331.326-.5433.326-.54331.326-.43464.326-.43463.43464-.43464.43464-.43464.43464-.43464.43463-.43463.43464-.326.43464-.326.43464-.326.43463-.326.54331-.326.5433-.21731.54331-.326.5433-.21732.54331-.21732.5433-.21732.54331-.21732.43464-.10866.5433-.10867.54331-.10867.5433-.10867.54331-.10866.5433-.10867.54331-.10867.5433-.10867.54331-.10866h2.39053l.652.10866.652.10867h.5433l.652.10867.5433.10867.652.10866.54331.10867.5433.10867.54331.10867.54331.10866.5433.10867.54331.21732.5433.21732.54331.10867.5433.21732.54331.21731.5433.21732.54331.21732.5433.21732.54331.326.43463.21732.54331.326.5433.326.43464.326.54331.326.43463.326.43464.326.43464.326.43463.326-.326.43463-.326.43464-.326.43464-.326.43464-.326.5433-.326.43464-.326.43464-.326.43463-.326.43464-.326.43464-.326.43464-.326.43463-.326.54331-.326.43464-.326.43463-1.08661,2.39054-.326.43464-.43463-.326-.54331-.326-.43464-.326-.43463-.326-.54331-.21732-.43464-.326-.5433-.21732-.43464-.21732-.5433-.21732-.43464-.21732-.54331-.21732-.43463-.21731-.652-.21732-.5433-.21732-.54331-.21732-.5433-.10867-.326.21732-.5433-.10867-.54331-.10866-.5433-.10867-.54331-.10867h-1.19528l-.652.10867-.5433.10867-.54331.10866-.43464.21732-.43463.21732-.54331.43464-.326.5433-.21732.54331-.10867.5433v.10867l.10867.76062.21732.652.21731.326.43464.43464.54331.326.43463.326.54331.21732.652.21732.652.21732.43464.10867.43464.21732.5433.10866.54331.21732.5433.10867.652.21732.652.21732.652.21732.652.10866.5433.21732.652.21732.54331.10867.5433.21732.54331.21732.5433.21731.54331.21732.5433.21732.54331.10867.652.21732.54331.326.5433.21731.54331.326.5433.326.54331.326.43463.326.43464.326.43464.326.43464.43464.43463.43464.43464.43463.43464.43464.326.43464.326.5433.326.43464.326.54331.21732.43463.21732.54331.10867.5433.10867.54331.21731,1.08661.10867.5433.10867.652V324.819l-.76062-.652Zm-38.57466,11.08342H293.71608V294.93725h31.83768v9.12751H304.2562v6.62833h19.12434v8.58421H304.2562V326.123h21.62353v9.12752h-.54329Zm-40.31324,0H274.91773V311.45371l-.326.43464-.326.54331-.326.43463-.326.43464-.326.54331-.326.43463-.326.43464-.326.54331-.326.43463-.326.43464-.326.43464-.326.5433-.326.43464-.326.43464-.326.5433-.326.43464-.326.43464-.326.5433-.21732.43464-.326.43464-.326.5433-.326.43464-.326.43464-.326.5433-.326.43464-.21732.43464-.326.43464-.326.5433-.326.43464-.326.43464-.21732.5433-.326.43464-.326.43463-.326.54331-.326.43464h-.21732l-.326-.54331-.326-.43464-.326-.5433-.326-.43464-.326-.5433-.326-.43464-.326-.54331-.326-.43463-.326-.54331-.21732-.43463-.326-.54331-.326-.43464-.326-.5433.54331-.54331-.326-.5433-.326-.43464-.326-.5433-.326-.43464-.326-.54331-.326-.43463-.21732-.326-.326-.43464-.326-.5433-.326-.43464-.326-.54331-.326-.43463-.326-.54331-.21731-.326-.326-.54331-.326-.43464-.326-.5433-.326-.43464-.326-.5433-.326-.43464v23.6881H243.29719V294.82858h11.30093l.326.43464.326.5433.326.43464.326.5433.326.43464.326.5433.326.43464.326.54331.326.43463.326.43464.326.54331.326.43463.326.54331.326.43464.326.5433.326.43464.326.43464.326.5433.326.43464.326.5433.326.43464.326.54331.326.43463.21732.54331.326.43464.21732.43463.326.54331.326.43464.326.5433.326.43464.21731.5433.326.43464.326.54331.326.43463.326-.43463.326-.54331.326-.43464.326-.5433.326-.43464.326-.5433.326-.43464.326-.54331.326-.43463.21732-.43464.326-.54331.326-.43463.326-.54331.326-.43464.326-.5433.326-.43464.326-.5433.326-.43464.326-.43464.326-.5433.326-.43464.326-.54331.326-.43463.326-.54331.21732-.43464.326-.43463.326-.54331.326-.43464.326-.5433.326-.43464.326-.5433.326-.43464.326-.5433.326-.43464h11.30074v40.31324l-2.4992.10866Zm-63.89267-16.62514-.21732-.5433-.21732-.54331-.21732-.5433-.21732-.54331-.21731-.5433-.21732-.54331-.21732-.5433-.21732-.54331-.21732-.5433-.21732-.54331-.21732-.5433-.21732-.54331-.21731-.5433-.21732-.54331-.21732-.5433-.21732-.54331-.21732-.5433-.21732-.54331-.21732-.5433-.21731-.54331-.21732-.5433-.21732-.54331-.21732.54331-.21732.5433-.21732.54331-.21732.5433-.21732.54331-.21731.5433-.21732.54331-.21732.5433-.21732.54331-.21732.5433-.21732.54331-.21732.5433-.21732.54331-.21731.5433-.21732.54331-.21732.5433-.21732.54331-.21732.5433-.21732.54331-.21732.5433-.21731.54331-.21732.5433-.21732.54331H220.696l.43465-.54331Zm17.2771,16.62514H227.65019l-.21732-.54331-.21732-.5433-.21732-.54331-.21732-.5433-.21731-.54331-.21732-.5433-.21732-.54331-.21732-.5433-.21732-.54331-.21732-.5433-.21732-.54331-.21732-.5433-.21731-.54331-.21732-.5433-.21732-.54331H208.74318l-.21732.54331-.21732.5433-.21732.54331-.21731.5433-.21732.54331-.43465.97794-.21732.54331-.21732.5433-.21731.54331-.21732.5433-.21732.54331-.21732.5433-.21732.54331-.21732.5433h-10.8661l.21732-.5433.43465-.978.21731-.5433.21732-.54331.43465-.97794.21732-.5433.21732-.54331.21732-.5433.21731-.326.21732-.54331.21732-.5433.21732-.54331.21732-.5433.21732-.54331.21732-.5433.21731-.54331.21732-.5433.21732-.54331.21732-.5433.21732-.54331.43465-.97794.21731-.5433.21732-.54331.21732-.5433.21732-.54331.21732-.5433.21732-.54331.21732-.5433.21731-.54331.21732-.5433.21732-.54331.21732-.5433.21732-.54331.21732-.5433.21732-.54331.21732-.5433.21731-.54331.21732-.5433.21732-.54331.21732-.5433.21732-.54331.21732-.5433.21732-.54331.21732-.5433.21731-.54331.21732-.5433.21732-.54331.21732-.5433.21732-.54331.21732-.5433.21732-.54331.21731-.5433.21732-.54331.43465-.97794.21732-.54331.21732-.5433.21732-.54331.21731-.5433.21732-.54331.21732-.5433.21732-.54331.21732-.5433.21732-.54331.21732-.5433.10866-.54331.21731-.5433.21732-.54331.21732-.5433.21732-.54331.21732-.5433.21732-.54331.21732-.5433.21732-.54331.43464-.97794.21732-.5433h10.21414l.21731.5433.21732.54331.21732.5433.21732.54331.21732.5433.21732.54331.21732.5433.21732.54331.21731.5433.21732.54331.21732.5433.21732.54331.21732.5433.21732.54331.21732.5433.21731.54331.21732.5433.21732.54331.21732.5433.21732.54331.21732.5433.21732.54331.21732.5433.21731.54331.21732.5433.21732.54331.21732.5433.21732.54331.21732.5433.21732.54331.43464.97794.21732.5433.21732.54331.21732.5433.21732.54331.21732.5433.21731.54331.21732.5433.21732.54331.21732.5433.21732.54331.21732.5433.21732.54331.21731.5433.21732.54331.21732.5433.21732.54331.21732.5433.21732.54331.21732.5433.21732.54331.21731.5433.21732.54331.21732.5433.21732.54331.21732.5433.21732.54331.21732.5433.21732.54331.21731.5433.21732.54331.21732.5433.21732.54331.21732.5433.21732.54331.21732.5433.21731.54331.21732.5433.21732.54331.21732.5433.21732.54331.21732.5433.21732.54331.21732.5433.21731.54331.21732.5433.21732.54331.43465.97794-1.08661-.43464Zm-48.24549-5.21573-.43464.326-.43465.326-.43464.326-.43465.326-.43465.326-.43464.326-.43465.326-.5433.326-.54331.326-.5433.326-.54331.21732-.5433.326-.54331.21732-.5433.21732-.54331.21732-.5433.21732-.54331.21732-.5433.21732-.54331.21732-.5433.21731-.54331.21732-.5433.10867-.54331.10867-.5433.10867-.54331.10866-.5433.10867-.652.10867-.5433.10867-.652.10866-.5433.10867-.652.10867h-1.73856l-.54331-.10867-.652-.10867-.54331-.10866-.5433-.10867-.54331-.10867-.5433-.10867-.54331-.10866-.5433-.10867-.54331-.10867-.5433-.10867-.54331-.10866-.5433-.21732-.54331-.21732-.5433-.21732-.54331-.21732-.5433-.21732-.54331-.21732-.5433-.21732-.54331-.326-.43464-.21732-.54331-.326-.43464-.326-.43465-.326-.43464-.326-.43465-.326-.43465-.326-.43464-.326-.43465-.326-.43464-.43464-.43465-.326-.43464-.43464-.43465-.43464-.326-.43464-.326-.43463-.326-.43464-.326-.43464-.326-.43464-.326-.43463-.21733-.43464-.326-.54331-.326-.43463-.21732-.54331-.21733-.5433-.21732-.54331-.21732-.5433-.21732-.43464-.21733-.54331-.10866-.5433-.21732-.54331-.10866-.5433-.21732-.54331-.10866-.5433v-.54331l-.10866-.5433v-.54331l-.10866-.5433V312.649l.10866-.652.10866-.5433.10866-.54331.10866-.5433.21732-.54331.10866-.5433.21732-.54331.21733-.5433.21732-.54331.21732-.5433.21732-.54331.21733-.5433.21732-.54331.21732-.5433.326-.54331.326-.43463.21732-.43464.326-.43464.326-.43464.326-.43463.326-.43464.326-.43464.326-.43464.43465-.43463.326-.43464.43465-.43464.43464-.43464.43465-.326.43464-.43464.43465-.326.43465-.326.43464-.326.43465-.326.43464-.326.43465-.326.5433-.326.54331-.326.5433-.326.54331-.21732.5433-.21731.54331-.326.43464-.21732.54331-.21732.5433-.21732.54331-.10866.5433-.21732.54331-.10867.5433-.21732.54331-.10867.5433-.10866.54331-.10867.5433-.10867.54331-.10867.5433-.10866.54331-.10867H174.189l.652.10867.652.10866h.5433l.54331.10867.652.10867.54331.10867.5433.10866.54331.10867.5433.10867.54331.10867.5433.10866.54331.21732.5433.10867.43465.21732.5433.21732.97795.43464.54331.21731.5433.326.54331.21732.43464.326.54331.326.43464.326.54331.326.43465.326.43464.326.43465.326.43464.326.43465.43464.43464.326-.326.43464-.43465.43464-.326.43464-.43465.43463-.326.43464-.326.43464-.43465.43463-.326.43464-.326.43464-.43465.43464-.326.43463-.43465.43464-.326.43464-.326.43464-.43465.43463-.326.43464-.43465.43464-.326.43464-.43464-.326-.43465-.43464-.43464-.326-.43465-.326-.43464-.326-.43465-.326-.43465-.326-.5433-.326-.43465-.21731-.43464-.21732-.43465-.21732-.5433-.21732-.54331-.21732-.5433-.10867-.54331-.10866-.5433-.10867-.54331-.10867-.652-.10867-.652-.10866h-1.19527l-.5433.10866-.54331.10867-.5433.10867-.54331.10867-.5433.21731-.54331.21732-.43464,1.30393-.54331.21732-.43464.326-.43465.326-.43464.326-.43465.326-.43465.326-.43464.326-.326.43464-.43465.43463-.326.43464-.326.43464-.326.43464-.21732.5433-.326.43464-.21732.5433-.21733.54331-.21732.5433-.21732.54331-.10866.5433-.10866.54331-.10866.652v4.02045l.10866.54331.10866.5433.10866.54331.21732.5433.652-.21731.21732.5433.21732.54331.326.5433.54331.86929.326.43464.326.43464.43465.43463.326.43464.43465.326.43464.326.43465.326.43464.326.43465.326.5433.21732.54331.21732.5433.21732.54331.21732.5433.21732.54331.10866.5433.10867.54331.10867.652.10867h.97795l.652-.10867.652-.10867.54331-.10867.5433-.10866.54331-.10867.54331-.10867.5433-.10867.54331-.21731.43464-.21732.54331-.21732.43464-.21732.43465-.326v-5.433H172.559v-8.04091h17.92912v18.03774l-.326.21732ZM172.4504,203.77065h23.90542V185.29828H172.4504V147.59292h24.88338V129.12055h-45.203V262.4476h45.529V243.97522H172.4504V203.77065m171.03241,4.02046V237.8902c0,5.32438-2.49921,7.82359-7.60627,7.82359H332.0734c-5.32438,0-7.82358-2.49921-7.82358-7.82359V153.67793c0-5.32439,2.4992-7.82359,7.82358-7.82359h3.3685c5.10707,0,7.60627,2.4992,7.60627,7.82359v26.07864h19.885V152.48266c0-16.51647-7.93226-24.55738-24.44873-24.55738h-9.88815c-16.51647,0-24.666,8.14957-24.666,24.7747v86.05951c0,16.62514,8.14958,24.77472,24.666,24.77472h9.9968c16.51647,0,24.66605-8.14958,24.66605-24.77472v-31.077h-19.7763m-70.41232-78.5619H293.3901V262.4476H273.07049Zm-29.44713,59.22024c0,5.32439-2.4992,7.82359-7.60627,7.82359H227.6502V147.04961h8.36689c5.10707,0,7.60627,2.4992,7.60627,7.82359Zm-4.34644-59.22024H207.43924V262.4476h20.31962V214.09345h11.51806c16.51648,0,24.66605-8.14958,24.66605-24.77471V153.89526c0-16.62513-8.14957-24.77471-24.666-24.77471ZM199.94163,382.95266H316.10026L256.88,402.51164l-56.93837-19.559"/>
  </g>
</svg>
