<svg id="aa07f353-7b94-4ef6-9bb9-7a51dae85717" data-name="Layer 1" xmlns="http://www.w3.org/2000/svg" xmlns:xlink="http://www.w3.org/1999/xlink" width="512" height="512" viewBox="0 0 512 512">
  <defs>
    <style>
      .b4d55ecb-c3fd-42e5-b00d-7cd996f43b85 {
        fill: none;
      }

      .bd78d4b9-60c4-4274-84b5-85e9df652e04 {
        fill: url(#a26c6cc8-cd18-444b-927e-327542f358d7);
      }

      .ae2c3d0d-ea9b-42e5-a92d-6b6097d3312d {
        fill: url(#e169923e-c3c3-4aae-b7ba-a5cf92fc75c1);
      }

      .b8505486-cc74-40c8-90c8-ce0f86e699dc {
        fill: url(#fc745bb7-a3d9-423e-896f-883db325f2bc);
      }

      .aeb33ed3-0638-42ee-8922-5692b1cddd57 {
        clip-path: url(#b74c5cc9-92a9-4dfe-9bf8-adea1ac7c2c4);
      }

      .ae5c08f9-ca4f-48db-8d3a-1cf42efbded0 {
        fill: #63bbeb;
      }

      .e8ba9332-c05e-4950-893e-10df06d12220 {
        fill: url(#eaad2d07-b9bc-44ee-b5b6-0c164cb2b5ba);
      }

      .af84ff2b-36b3-40f4-ae41-17f1f2b01fdc {
        fill: url(#a4ce0d3c-0cce-4b3e-bfd5-665bc347b08b);
      }

      .a5224748-0f03-46ec-8ff5-9a4df456c3e3 {
        fill: #3777c5;
      }

      .a1727158-ca28-43d9-8e16-3dac6d1ae9a6 {
        fill: #4980ca;
      }

      .bf7d44b0-0d53-4d50-bc17-58b6932f764f {
        fill: #2f67ab;
      }

      .ac134071-7512-451d-835b-b9f4915e4193 {
        fill: url(#a3a0ee1a-5721-4a63-ab2c-1f63a983d5ad);
      }

      .b39b1955-8b45-421b-ad66-483504c377ab {
        fill: url(#f939b319-5656-4656-a6ad-5ddc2a921be0);
      }

      .ea942244-32a1-4918-828f-0f1e0f8a6794 {
        fill: url(#b51f16cc-0c3a-463a-b2ec-0f15ecf4cec8);
      }

      .e062d25f-3d15-498a-b81b-7c68de0b08ed {
        fill: url(#a880ca57-13d4-4aab-bbf1-57aee36794cf);
      }

      .edc1aae8-052c-403e-b5a6-a23301522361 {
        fill: url(#e08ea308-8d01-4612-94c0-da55941bfac8);
      }

      .f1c396da-16bb-4053-9d73-6ddc50b6f808 {
        fill: #72c1ed;
      }

      .a3912de6-c0e0-4485-b3be-c0d5a3d7b1dc {
        fill: #326cb3;
      }

      .a1008a12-728b-4525-8630-c6fa44ba9579 {
        fill: url(#e9c458af-ad9e-4bd6-9ba4-26d1aecea7fe);
      }

      .bd68f62d-8940-464f-9ce2-78306e9a1771 {
        fill: url(#eded260a-b396-458a-ae17-3b24fe213551);
      }

      .b5d3a086-f147-42c8-b4e2-615e4f30fd18 {
        fill: url(#f7ce2cb1-91cd-4e1c-8135-dbac98775bed);
      }

      .b48c7cae-a90f-42f6-8f55-06127e52a1ce {
        fill: url(#ff8be0ce-feac-4a79-a018-3dbe47372c43);
      }

      .abcdc6e0-61ed-4717-9af2-d15b612ae7f5 {
        fill: url(#a9cb481c-a19d-4015-9913-9672fb30ea27);
      }

      .e49be2c5-d68f-4ef0-9a9c-9071ba70fec1 {
        fill: url(#e0205a92-0093-4000-a200-84e5d2ff94b8);
      }

      .eaccec1d-6747-4e2e-909d-d023d441d4f2 {
        fill: url(#be2c4f46-3102-43f1-8fe9-e1edbf01bd87);
      }

      .ad3aeaf3-c39c-4709-b8ef-6e7ac0d0cffc {
        fill: url(#f34b475f-0c0c-48e9-8f34-19c1d0af7aa2);
      }

      .ea517597-0f37-4a36-a16d-5c8985463733 {
        fill: #af0a55;
      }

      .a1a1d73e-70b4-44eb-a84d-1e7011f631a2 {
        fill: url(#aea13bb6-c003-43e8-8419-294fa310e8e6);
      }

      .ffa4a4e9-9b2e-4a8b-bb43-756a26ced6ca {
        fill: url(#ae523246-8d74-41cb-bbec-ff9fc170a2cd);
      }

      .beaf9af2-1dce-4daf-863c-9072908abb41 {
        fill: url(#a6cd0b78-e05c-4ec0-b98e-c76b67769282);
      }

      .b2bda005-b2d3-49a4-b61b-f79d920676cb {
        fill: url(#e93b0509-506b-4621-86b7-c5b8a363368e);
      }

      .ba2aa58a-3eb2-42cf-92a4-09cf584ad024 {
        fill: url(#a79a9ffd-124a-4f9c-9ff0-9fd8d3cfecaf);
      }

      .a2e40db5-0bcf-4961-9bc8-714a78776946 {
        fill: url(#f44597d3-dc3e-411a-b7e5-72b7da297133);
      }

      .b76be8c2-4f83-4daa-89a3-dc5b93688865 {
        fill: url(#ac8b68a0-bf8b-4b83-9498-3eb7e301554d);
      }

      .e47805c2-5e15-4385-a77d-ba4072b5c95a {
        fill: url(#f8cbaea0-c0f0-4d92-b93e-4b4c60499c90);
      }

      .bc3040b5-cac5-417d-996a-2ff70c16fbf1 {
        fill: url(#f6ccae24-15b6-4e41-9458-e6c5e6aa892b);
      }

      .b0fd76fc-f01e-4deb-96ce-4c5abf7754b1 {
        fill: url(#e5ab3e62-c2c2-4960-b904-71a972742851);
      }

      .a17e0c5c-9251-4992-9fb3-b5fbc488e340 {
        fill: url(#e15aeec4-415e-4ce2-8888-b06d303018b3);
      }

      .b5e261da-9e01-44d6-919a-7004b9b9f7f9 {
        fill: url(#aeef2a4e-f440-4d41-af6e-5d197f0fb67b);
      }

      .ff5ef0eb-6800-44e0-b069-775351735bb0 {
        fill: url(#ff8fbf67-0289-4908-b4eb-7491b71af45f);
      }

      .a6fa4d37-541f-4981-a83b-5d6a94f084f9 {
        fill: url(#aae54089-5939-4e1b-a075-e2ee780dfc98);
      }

      .e027df26-9fb5-477e-acc5-b521767de133 {
        fill: url(#b1916a50-ee8a-4457-9486-578aa348b458);
      }

      .e4f1bbbc-24a3-42a6-89ae-5462826c34af {
        fill: url(#e8b70c7f-2cc1-4d7d-bdae-7ecfcd28dde0);
      }

      .bc20199d-3c5f-43d6-b2de-ec042607a57c {
        fill: url(#f0940c37-83b0-4f15-a15d-cbdc0e8ec5cc);
      }

      .f5aac1b5-3fde-4e8a-8448-0180c3e29808 {
        fill: url(#bd7db69a-d354-4dc3-8e46-753cdf0649f7);
      }

      .f93c7d11-a3d0-4923-8d5c-b610afbe34ae {
        fill: url(#e183732d-2059-4eef-a056-50148ba5915e);
      }

      .b371a423-343a-4f9c-ab9b-dcb5fceae76c {
        fill: url(#b42c0c68-e6d3-40c9-b77a-7990be1f2a6c);
      }

      .a43dc6ff-3eea-47b3-95a9-c10a152bb3d1 {
        fill: url(#a66679f0-b510-45d4-a233-c1750d0cd7f3);
      }

      .ba28ce17-2c28-47b4-979f-cc922ef3c962 {
        fill: url(#becb8e5f-9071-480e-8640-df41db7457c3);
      }

      .a9c7ed8e-3249-4a5d-b230-7906e8d823c9 {
        fill: url(#bd178168-9d17-435f-b8d9-ea796c6659d3);
      }

      .a1252fd2-aa8b-496e-8912-de80697ad220 {
        fill: url(#b111d327-24b7-4d92-9135-f22c0b320805);
      }

      .bc3f64ec-9f3c-40ca-a901-d533b8294dd6 {
        fill: #90c643;
      }
    </style>
    <radialGradient id="a26c6cc8-cd18-444b-927e-327542f358d7" cx="-223.1634" cy="755.38309" r="1" gradientTransform="matrix(286.52227, 0, 0, -286.52227, 64191.82833, 216707.37569)" gradientUnits="userSpaceOnUse">
      <stop offset="0" stop-color="#c11566"/>
      <stop offset="0.99438" stop-color="#af0a55"/>
      <stop offset="1" stop-color="#af0a55"/>
    </radialGradient>
    <radialGradient id="e169923e-c3c3-4aae-b7ba-a5cf92fc75c1" cx="-221.86204" cy="753.42343" r="1" gradientTransform="matrix(121.70186, 0, 0, -121.70186, 27279.96709, 91928.6938)" gradientUnits="userSpaceOnUse">
      <stop offset="0" stop-color="#63bbeb"/>
      <stop offset="1" stop-color="#3777c5"/>
    </radialGradient>
    <radialGradient id="fc745bb7-a3d9-423e-896f-883db325f2bc" cx="-222.34108" cy="754.1448" r="1" gradientTransform="matrix(154.3956, 0, 0, -154.3956, 34616.44327, 116682.35365)" gradientUnits="userSpaceOnUse">
      <stop offset="0" stop-color="#90c643"/>
      <stop offset="0.83093" stop-color="#5fb233"/>
      <stop offset="1" stop-color="#5fb233"/>
    </radialGradient>
    <clipPath id="b74c5cc9-92a9-4dfe-9bf8-adea1ac7c2c4">
      <rect id="e4cf4b0f-94ac-48c6-9032-20ef0eee95a2" data-name="SVGID" class="b4d55ecb-c3fd-42e5-b00d-7cd996f43b85" x="-3.29546" y="72.01555" width="1306.41575" height="390.73579"/>
    </clipPath>
    <linearGradient id="eaad2d07-b9bc-44ee-b5b6-0c164cb2b5ba" x1="-190.31826" y1="746.8722" x2="-189.31826" y2="746.8722" gradientTransform="matrix(10.818, 9.07738, 9.07738, -10.818, -4395.91832, 10071.86071)" gradientUnits="userSpaceOnUse">
      <stop offset="0" stop-color="#4980ca"/>
      <stop offset="1" stop-color="#63bbeb"/>
    </linearGradient>
    <linearGradient id="a4ce0d3c-0cce-4b3e-bfd5-665bc347b08b" x1="-254.20837" y1="771.2935" x2="-253.20837" y2="771.2935" gradientTransform="matrix(-12.81524, -7.62009, -7.62009, 12.81524, 2895.08266, -11559.64758)" gradientUnits="userSpaceOnUse">
      <stop offset="0" stop-color="#82c7ef"/>
      <stop offset="1" stop-color="#3777c5"/>
    </linearGradient>
    <linearGradient id="a3a0ee1a-5721-4a63-ab2c-1f63a983d5ad" x1="-216.77333" y1="745.76059" x2="-215.77333" y2="745.76059" gradientTransform="matrix(37.45389, 0, 0, -37.45389, 8481.30208, 28173.77902)" gradientUnits="userSpaceOnUse">
      <stop offset="0" stop-color="#2f67ab"/>
      <stop offset="1" stop-color="#2d61a2"/>
    </linearGradient>
    <linearGradient id="f939b319-5656-4656-a6ad-5ddc2a921be0" x1="-245.35689" y1="799.82483" x2="-244.35689" y2="799.82483" gradientTransform="matrix(-10.29463, 1.3197, 1.3197, 10.29463, -3221.45769, -7669.99686)" xlink:href="#e169923e-c3c3-4aae-b7ba-a5cf92fc75c1"/>
    <linearGradient id="b51f16cc-0c3a-463a-b2ec-0f15ecf4cec8" x1="-175.53664" y1="695.42045" x2="-174.53664" y2="695.42045" gradientTransform="matrix(6.33366, 0.52787, 0.52787, -6.33366, 1133.8282, 4725.17242)" gradientUnits="userSpaceOnUse">
      <stop offset="0" stop-color="#63bbeb"/>
      <stop offset="1" stop-color="#2d61a2"/>
    </linearGradient>
    <linearGradient id="a880ca57-13d4-4aab-bbf1-57aee36794cf" x1="-320.71612" y1="765.40905" x2="-319.71612" y2="765.40905" gradientTransform="matrix(-3.20629, -4.00747, -4.00747, 3.20629, 2418.86064, -3498.97684)" gradientUnits="userSpaceOnUse">
      <stop offset="0" stop-color="#5aaad7"/>
      <stop offset="1" stop-color="#2f67ab"/>
    </linearGradient>
    <linearGradient id="e08ea308-8d01-4612-94c0-da55941bfac8" x1="-143.76946" y1="703.05133" x2="-142.76946" y2="703.05133" gradientTransform="matrix(4.75127, 1.9797, 1.9797, -4.75125, -272.51666, 3830.37486)" gradientUnits="userSpaceOnUse">
      <stop offset="0" stop-color="#63bbeb"/>
      <stop offset="1" stop-color="#2b5c99"/>
    </linearGradient>
    <linearGradient id="e9c458af-ad9e-4bd6-9ba4-26d1aecea7fe" x1="-226.16039" y1="784.82677" x2="-225.16039" y2="784.82677" gradientTransform="matrix(-15.44224, 8.71103, 8.71103, 15.44224, -9900.42405, -9922.50231)" gradientUnits="userSpaceOnUse">
      <stop offset="0" stop-color="#63bbeb"/>
      <stop offset="1" stop-color="#2f67ab"/>
    </linearGradient>
    <linearGradient id="eded260a-b396-458a-ae17-3b24fe213551" x1="-62.02356" y1="756.53837" x2="-61.02356" y2="756.53837" gradientTransform="matrix(1.70306, 2.55458, 2.55458, -1.70306, -1409.05557, 1676.48737)" xlink:href="#e08ea308-8d01-4612-94c0-da55941bfac8"/>
    <linearGradient id="f7ce2cb1-91cd-4e1c-8135-dbac98775bed" x1="-205.51088" y1="728.80094" x2="-204.51089" y2="728.80094" gradientTransform="matrix(14.79158, 0, 0, -14.79158, 3237.54191, 11044.11177)" gradientUnits="userSpaceOnUse">
      <stop offset="0" stop-color="#af0a55"/>
      <stop offset="1" stop-color="#db4990"/>
    </linearGradient>
    <linearGradient id="ff8be0ce-feac-4a79-a018-3dbe47372c43" x1="-190.83095" y1="706.69499" x2="-189.83089" y2="706.69499" gradientTransform="matrix(8.26956, 0, 0, -8.26956, 1749.10244, 6098.28148)" gradientUnits="userSpaceOnUse">
      <stop offset="0" stop-color="#a2094d"/>
      <stop offset="1" stop-color="#d73585"/>
    </linearGradient>
    <linearGradient id="a9cb481c-a19d-4015-9913-9672fb30ea27" x1="-144.65079" y1="755.2929" x2="-143.65079" y2="755.2929" gradientTransform="matrix(3.5639, 5.14784, 5.14784, -3.5639, -3282.4654, 3762.40452)" xlink:href="#f7ce2cb1-91cd-4e1c-8135-dbac98775bed"/>
    <linearGradient id="e0205a92-0093-4000-a200-84e5d2ff94b8" x1="-198.38276" y1="748.00635" x2="-197.38276" y2="748.00635" gradientTransform="matrix(14.51141, 11.13182, 11.13182, -14.51141, -5322.33665, 13310.37588)" gradientUnits="userSpaceOnUse">
      <stop offset="0" stop-color="#a2094d"/>
      <stop offset="1" stop-color="#db4990"/>
    </linearGradient>
    <linearGradient id="be2c4f46-3102-43f1-8fe9-e1edbf01bd87" x1="-222.81525" y1="726.40416" x2="-221.81525" y2="726.40416" gradientTransform="matrix(13.98981, -8.44702, -8.44702, -13.98981, 9368.05677, 8583.0492)" gradientUnits="userSpaceOnUse">
      <stop offset="0" stop-color="#db4990"/>
      <stop offset="1" stop-color="#af0a55"/>
    </linearGradient>
    <linearGradient id="f34b475f-0c0c-48e9-8f34-19c1d0af7aa2" x1="-139.25582" y1="753.49322" x2="-138.25582" y2="753.49322" gradientTransform="matrix(3.43087, 4.75025, 4.75025, -3.43087, -2989.99466, 3512.54172)" xlink:href="#be2c4f46-3102-43f1-8fe9-e1edbf01bd87"/>
    <linearGradient id="aea13bb6-c003-43e8-8419-294fa310e8e6" x1="-286.37569" y1="798.28703" x2="-285.37569" y2="798.28703" gradientTransform="matrix(-6.1365, -2.57337, -2.57337, 6.1365, 487.71829, -5366.18932)" gradientUnits="userSpaceOnUse">
      <stop offset="0" stop-color="#a2094d"/>
      <stop offset="1" stop-color="#df5e9c"/>
    </linearGradient>
    <linearGradient id="ae523246-8d74-41cb-bbec-ff9fc170a2cd" x1="-156.83615" y1="721.76294" x2="-155.83615" y2="721.76294" gradientTransform="matrix(5.74297, 3.16854, 3.16854, -5.74297, -1298.02255, 4936.9264)" gradientUnits="userSpaceOnUse">
      <stop offset="0" stop-color="#db4990"/>
      <stop offset="1" stop-color="#a2094d"/>
    </linearGradient>
    <linearGradient id="a6cd0b78-e05c-4ec0-b98e-c76b67769282" x1="-252.0332" y1="792.87919" x2="-251.0332" y2="792.87919" gradientTransform="matrix(-10.88783, -0.79185, -0.79185, 10.88783, -1861.52427, -8555.62341)" xlink:href="#aea13bb6-c003-43e8-8419-294fa310e8e6"/>
    <linearGradient id="e93b0509-506b-4621-86b7-c5b8a363368e" x1="-273.4661" y1="763.22528" x2="-272.4661" y2="763.22528" gradientTransform="matrix(-6.55877, -7.55242, -7.55242, 6.55877, 4271.44983, -6791.24555)" xlink:href="#e0205a92-0093-4000-a200-84e5d2ff94b8"/>
    <linearGradient id="a79a9ffd-124a-4f9c-9ff0-9fd8d3cfecaf" x1="-340.283" y1="780.27921" x2="-339.283" y2="780.27921" gradientTransform="matrix(-2.96972, -2.96972, -2.96972, 2.96972, 1657.84747, -3043.48881)" gradientUnits="userSpaceOnUse">
      <stop offset="0" stop-color="#c01f6e"/>
      <stop offset="1" stop-color="#d63384"/>
    </linearGradient>
    <linearGradient id="f44597d3-dc3e-411a-b7e5-72b7da297133" x1="-291.56359" y1="727.53132" x2="-290.56359" y2="727.53132" gradientTransform="matrix(-1.18753, -6.6636, -6.6636, 1.18753, 4680.96577, -2532.64286)" gradientUnits="userSpaceOnUse">
      <stop offset="0" stop-color="#df5e9c"/>
      <stop offset="1" stop-color="#a2094d"/>
    </linearGradient>
    <linearGradient id="ac8b68a0-bf8b-4b83-9498-3eb7e301554d" x1="-228.40007" y1="743.25723" x2="-227.40007" y2="743.25723" gradientTransform="matrix(21.97496, -27.20734, -27.20734, -21.97496, 25599.57091, 10433.49043)" xlink:href="#f44597d3-dc3e-411a-b7e5-72b7da297133"/>
    <linearGradient id="f8cbaea0-c0f0-4d92-b93e-4b4c60499c90" x1="-149.4818" y1="700.01832" x2="-148.4818" y2="700.01832" gradientTransform="matrix(5.01241, 1.73939, 1.73939, -5.01241, -117.3266, 4068.40964)" xlink:href="#f44597d3-dc3e-411a-b7e5-72b7da297133"/>
    <linearGradient id="f6ccae24-15b6-4e41-9458-e6c5e6aa892b" x1="-217.41458" y1="746.7262" x2="-216.41456" y2="746.7262" gradientTransform="matrix(41.03322, 0, 0, -41.03322, 9273.03747, 30914.08809)" gradientUnits="userSpaceOnUse">
      <stop offset="0" stop-color="#c01f6e"/>
      <stop offset="1" stop-color="#a2094d"/>
    </linearGradient>
    <linearGradient id="e5ab3e62-c2c2-4960-b904-71a972742851" x1="-90.05388" y1="712.60553" x2="-89.05388" y2="712.60553" gradientTransform="matrix(2.772, 2.17799, 2.17799, -2.772, -999.65721, 2413.25147)" gradientUnits="userSpaceOnUse">
      <stop offset="0" stop-color="#5fb233"/>
      <stop offset="1" stop-color="#90c643"/>
    </linearGradient>
    <linearGradient id="e15aeec4-415e-4ce2-8888-b06d303018b3" x1="-204.09249" y1="671.85074" x2="-203.09249" y2="671.85074" gradientTransform="matrix(5.34547, -1.97981, -1.97981, -5.34547, 2691.45429, 3390.50288)" xlink:href="#e5ab3e62-c2c2-4960-b904-71a972742851"/>
    <linearGradient id="aeef2a4e-f440-4d41-af6e-5d197f0fb67b" x1="-67.32453" y1="672.77711" x2="-66.32453" y2="672.77711" gradientTransform="matrix(2.46495, 1.32276, 1.32276, -2.46495, -486.85333, 1998.74223)" xlink:href="#e5ab3e62-c2c2-4960-b904-71a972742851"/>
    <linearGradient id="ff8fbf67-0289-4908-b4eb-7491b71af45f" x1="-102.25927" y1="686.90199" x2="-101.25927" y2="686.90199" gradientTransform="matrix(3.16822, 1.58411, 1.58411, -3.16822, -485.87958, 2580.43882)" xlink:href="#e5ab3e62-c2c2-4960-b904-71a972742851"/>
    <linearGradient id="aae54089-5939-4e1b-a075-e2ee780dfc98" x1="-277.91145" y1="805.90503" x2="-276.91145" y2="805.90503" gradientTransform="matrix(-6.63126, -1.65777, -1.65777, 6.63126, -316.00834, -5572.44775)" xlink:href="#e5ab3e62-c2c2-4960-b904-71a972742851"/>
    <linearGradient id="b1916a50-ee8a-4457-9486-578aa348b458" x1="-210.17829" y1="735.82951" x2="-209.17839" y2="735.82951" gradientTransform="matrix(19.74204, 0, 0, -19.74204, 4327.33537, 14759.731)" gradientUnits="userSpaceOnUse">
      <stop offset="0" stop-color="#529b2b"/>
      <stop offset="0.82967" stop-color="#5fb233"/>
      <stop offset="1" stop-color="#5fb233"/>
    </linearGradient>
    <linearGradient id="e8b70c7f-2cc1-4d7d-bdae-7ecfcd28dde0" x1="-216.34667" y1="745.11808" x2="-215.34669" y2="745.11808" gradientTransform="matrix(35.39924, 0, 0, -35.39924, 7790.89747, 26593.66303)" gradientUnits="userSpaceOnUse">
      <stop offset="0" stop-color="#529b2b"/>
      <stop offset="0.03957" stop-color="#529b2b"/>
      <stop offset="0.83093" stop-color="#5aab30"/>
      <stop offset="1" stop-color="#5aab30"/>
    </linearGradient>
    <linearGradient id="f0940c37-83b0-4f15-a15d-cbdc0e8ec5cc" x1="-219.336" y1="749.61958" x2="-218.33601" y2="749.61958" gradientTransform="matrix(57.49896, 0, 0, -57.49896, 12797.156, 43333.92828)" gradientUnits="userSpaceOnUse">
      <stop offset="0" stop-color="#90c643"/>
      <stop offset="1" stop-color="#56a32e"/>
    </linearGradient>
    <linearGradient id="bd7db69a-d354-4dc3-8e46-753cdf0649f7" x1="-227.9246" y1="729.30313" x2="-226.9246" y2="729.30313" gradientTransform="matrix(13.42472, -11.85528, -11.85528, -13.42472, 11952.4176, 7326.8284)" gradientUnits="userSpaceOnUse">
      <stop offset="0" stop-color="#56a32e"/>
      <stop offset="0.5" stop-color="#83b43c"/>
      <stop offset="1" stop-color="#5aab30"/>
    </linearGradient>
    <linearGradient id="e183732d-2059-4eef-a056-50148ba5915e" x1="-236.40418" y1="766.93884" x2="-235.40418" y2="766.93884" gradientTransform="matrix(-29.93078, -9.12322, -9.12322, 29.93078, 270.3854, -24884.84148)" gradientUnits="userSpaceOnUse">
      <stop offset="0" stop-color="#56a32e"/>
      <stop offset="0.29855" stop-color="#90c643"/>
      <stop offset="0.66484" stop-color="#59a72f"/>
      <stop offset="1" stop-color="#90c643"/>
    </linearGradient>
    <linearGradient id="b42c0c68-e6d3-40c9-b77a-7990be1f2a6c" x1="-202.98643" y1="724.99939" x2="-201.98647" y2="724.99939" gradientTransform="matrix(13.02502, 0, 0, -13.02502, 2937.0838, 9661.35091)" xlink:href="#e5ab3e62-c2c2-4960-b904-71a972742851"/>
    <linearGradient id="a66679f0-b510-45d4-a233-c1750d0cd7f3" x1="-174.54377" y1="753.81243" x2="-173.54377" y2="753.81243" gradientTransform="matrix(6.03959, 7.99447, 7.99447, -6.03959, -4754.44326, 6187.1238)" gradientUnits="userSpaceOnUse">
      <stop offset="0" stop-color="#56a32e"/>
      <stop offset="0.49451" stop-color="#90c643"/>
      <stop offset="1" stop-color="#90c643"/>
    </linearGradient>
    <linearGradient id="becb8e5f-9071-480e-8640-df41db7457c3" x1="-174.53417" y1="753.81187" x2="-173.53417" y2="753.81187" gradientTransform="matrix(6.03842, 7.99292, 7.99292, -6.03842, -4756.36521, 6188.0342)" xlink:href="#e5ab3e62-c2c2-4960-b904-71a972742851"/>
    <linearGradient id="bd178168-9d17-435f-b8d9-ea796c6659d3" x1="-302.53018" y1="765.64261" x2="-301.53018" y2="765.64261" gradientTransform="matrix(-4.05461, -4.83208, -4.83208, 4.05461, 2718.47431, -4382.75706)" gradientUnits="userSpaceOnUse">
      <stop offset="0" stop-color="#5fb233"/>
      <stop offset="0.81319" stop-color="#9bcb52"/>
      <stop offset="1" stop-color="#9bcb52"/>
    </linearGradient>
    <linearGradient id="b111d327-24b7-4d92-9135-f22c0b320805" x1="-378.2354" y1="728.79743" x2="-377.2354" y2="728.79743" gradientTransform="matrix(-1.25562, -2.91863, -2.91863, 1.25562, 1849.24074, -1829.35416)" gradientUnits="userSpaceOnUse">
      <stop offset="0" stop-color="#5aab30"/>
      <stop offset="1" stop-color="#90c643"/>
    </linearGradient>
  </defs>
  <g id="b10bc47c-87eb-4454-a99f-5cc8ffb61051" data-name="layer1">
    <g id="a5d2e1eb-272d-41b4-b8a7-96dff578a18b" data-name="g3963">
      <g id="a5db26b5-4f0f-441c-81c1-c6b5be53365f" data-name="g12">
        <g id="ad79caf6-1dda-4924-9a2a-77a8c779cc78" data-name="g14">
          <g id="e090ae52-dbfa-44d7-a54c-b553fdc35c00" data-name="g20">
            <g id="f9c6d06a-f6dd-4fc1-9657-36d4cf311ad1" data-name="g22">
              <path id="f929c5c7-a95f-4b98-8e9e-151a52bc8f42" data-name="path34" class="bd78d4b9-60c4-4274-84b5-85e9df652e04" d="M89.9134,267.55042c0,12.67525,11.85009,14.263,18.05205,14.263h0c16.36554,0,23.64035-7.54754,26.86726-7.54754h0c3.22413,0-1.92307,7.67557-6.79056,10.74106h0c-40.56806,24.517-73.9142,45.63036-73.9142,65.16994h0c0,8.83747,8.1626,9.4219,14.37012,9.4219h0c6.21031,0,36.56469-3.8837,83.03-75.904h0c2.18189-3.38136,5.7678-5.33783,9.20344-7.81193h0c3.43425-2.47271,14.51065-10.5713,16.70508-10.58383h0c2.18467-.0139,2.10813.94622,2.02464,1.92864h0c-.12245,1.41794-1.60581,4.55858-1.60581,8.37967h0c0,3.828,3.89345,8.26417,10.222,8.26417h0c14.11825,0,24.421-10.05088,32.873-19.12351h0c-2.79415-.58861-5.98766-1.29131-9.5402-2.12763h0c-3.35214,2.84842-6.64306,4.983-8.39636,5.02475h0c-3.23247.08211-4.2288-1.763-4.36794-3.42868h0a10.49672,10.49672,0,0,1,.83074-4.55581h0c-6.43017-1.68233-13.58253-3.68749-21.33741-6.06279h0c-2.04552,1.26627-4.19818,2.23058-5.7678,2.01352h0c-.4912-.06958-.79316-.52738.29639-2.0803h0c.14054-.19759.48007-.6721.95875-1.33864h0c-5.5716-1.76166-11.42151-3.70977-17.501-5.85408h0c-11.76939,10.80785-25.3213,21.64354-32.75057,21.64354h0c-2.96948,0-5.74137-1.98151-5.74137-6.728h0c0-3.14064,4.1481-13.3585,12.35243-24.89688h0q-9.234-3.79674-18.848-8.17372h0C96.626,243.6095,89.9134,257.58861,89.9134,267.55042M73.6063,341.8598c0-8.6705,30.13174-31.42028,33.70653-31.45229h0c.924-.01253,1.16608.35483,1.17165,1.08955h0c.03618,6.94641-21.97193,34.52334-30.81079,34.52334h0c-2.79972,0-4.06738-1.5237-4.06738-4.16061M341.9686,271.18364c-.0334,5.08318,1.22035,13.22768,9.86023,13.22768h0c17.05714,0,38.28042-21.6157,39.29343-21.77155h0c.70412-.11132.81958.18091.81958.8697h0c0,.7709-2.40176,9.32451-27.34455,39.61071h0c-24.94416,30.29038-37.01967,42.1669-37.01967,48.70143h0a8.65359,8.65359,0,0,0,8.11528,8.907h0c2.5743,0,13.46146-.59417,39.39363-42.7583h0c18.51126-30.09973,27.25129-48.66665,37.07815-63.62675h0c-17.74034,7.727-40.0532,12.75876-70.19608,16.84m-103.641-2.70509c0,6.07254,2.01353,14.76948,16.13455,14.76948h0c7.82724,0,14.974-4.20793,21.073-10.31388h0a352.5182,352.5182,0,0,1-37.19782-4.91064h0c-.00556.15166-.00975.30613-.00975.455m52.43625,5.28217c-1.84237,2.80111-3.41754,5.1792-4.496,6.85875h0s-1.31777,1.58494.66235,1.58494h18.47506a3.15,3.15,0,0,0,2.24451-1.58494h0c.22543-.31866,2.1151-3.20325,4.52659-6.90327h0c-6.90189.2449-14.04172.27273-21.41254.04452"/>
            </g>
          </g>
        </g>
      </g>
      <g id="a5f94f53-bfda-4bf5-9ea1-6cbc62945617" data-name="g36">
        <g id="b00dcf49-91f0-44b9-b77c-ba9a0418f65c" data-name="g38">
          <g id="b111be6c-10f9-481c-91f3-a47bf61720d5" data-name="g44">
            <g id="ee4efedd-e482-4410-ba15-31df142576c1" data-name="g46">
              <path id="b5682b93-64b1-49d4-b8a2-d3c75f1f9247" data-name="path54" class="ae2c3d0d-ea9b-42e5-a92d-6b6097d3312d" d="M429.62534,210.37609c0,3.1643,4.8313,5.342,6.43989,5.342h0c2.47413,0,10.68678-5.342,10.68678-12.66552h0c0-2.67588-1.8813-5.64537-4.65043-5.64537h0c-3.85867,0-12.47628,8.71225-12.47628,12.96886m-21.87313,25.43679c-11.67754,12.66968-25.73455,29.6962-38.40706,29.6962h0c-4.68242,0-6.13376-2.96808-6.13376-5.94175h0c0-2.17353,1.70461-4.18843,4.9482-5.1472h0c11.9475-3.52192,30.687-19.09151,30.687-29.69342h0c0-2.77189-1.38314-5.76085-4.9468-5.76085h0c-5.17642,0-19.6036,2.40731-37.57492,23.89361h0c-2.0149,2.40453-4.18287,4.041-5.7845,4.041h0c-1.67815,0-3.65967-3.16846-3.65967-9.50261h0c0-.6721.02643-1.308.06679-1.92307h0A281.854,281.854,0,0,1,307.23376,246.572h0c-4.40274,8.64963-11.43543,19.52149-16.4699,27.1887h0c7.37082.22821,14.51065.20038,21.41254-.04452h0c4.64486-7.12592,11.22809-17.25193,11.57457-17.77652h0a2.68453,2.68453,0,0,1,2.10813-1.31777h0c2.90547,0-.65539,7.39169,10.165,7.39169h0c3.03766,0,6.04193-1.55292,6.83788-1.55292h0c.79177,0,.89056.69435.89056,1.28437h0c0,1.18417-1.48474,3.91292-1.72129,7.72148h0c-.03478.51347-.05428,1.09512-.06262,1.71711h0c30.14288-4.08129,52.45574-9.113,70.19608-16.84005h0c3.93659-6.00018,9.696-13.93875,13.80379-17.93656h0c7.7215-7.52388,9.69742-11.48413,9.69742-13.26248h0c0-2.30851-1.38595-4.5544-4.15644-4.5544h0c-2.77329,0-12.07553,4.5544-23.75723,17.22271M369.867,245.22642c0-3.48434,11.6539-14.6999,15.56684-14.6999h0c.54963,0,1.31078.43693,1.31078,1.08956h0c0,4.46395-11.64833,15.02274-15.35391,15.02274h0a1.46013,1.46013,0,0,1-1.52371-1.41238M111.13809,228.18323q9.59932,4.38327,18.848,8.17372h0q1.55919-2.19788,3.32292-4.45005h0c-6.64167-2.2598-13.02035-4.5892-19.08037-6.92136h0c-1.07146,1.07425-2.09422,2.136-3.09054,3.19769m44.9875,18.155c6.07951,2.14431,11.9294,4.09242,17.501,5.85408h0c1.1299-1.57241,3.08219-4.27054,5.32809-7.35551h0c-5.68988-1.2635-11.3088-2.65639-16.82614-4.137h0c-1.9175,1.83818-3.931,3.739-6.003,5.6384m27.7272,2.83867a37.66,37.66,0,0,1-5.71354,4.42083h0c7.75488,2.3753,14.90724,4.38046,21.3374,6.06279h0a38.57611,38.57611,0,0,1,6.298-9.94234h0c-6.42183-.89334-12.81023-1.99124-19.12769-3.25334h0c-.91284.878-1.84237,1.77695-2.79415,2.71206m96.35924,1.58772c-4.44866,8.10972-10.76889,15.53619-18.36932,15.55428h0c-2.367.007-3.87536-1.27462-3.94632-3.51914h0c-.08767-2.73152,1.77139-6.69733,4.28029-10.61444h0q-10.643.52392-21.08694.31448h0c-.41328,2.09979-2.63414,10.01748-2.7524,15.52369h0a352.52607,352.52607,0,0,0,37.19782,4.91064h0c6.59854-6.6041,11.97255-15.429,15.64751-23.568h0q-5.49369.80151-10.97066,1.39847M211.4102,262.6203c3.55252.8363,6.746,1.539,9.54019,2.12763h0c4.791-5.13883,8.98636-9.97155,12.94383-12.47628h0q-6.33693-.27969-12.56115-.80845h0c-1.60581,3.11-5.80955,7.66861-9.92285,11.15713"/>
            </g>
          </g>
        </g>
      </g>
      <g id="aa2bb6b9-921d-4c69-b023-6215e34d79e3" data-name="g56">
        <g id="ec8a6ee9-b84f-405e-90aa-5a2a10d3bef9" data-name="g58">
          <g id="ebc7ae97-e3ed-4089-8d20-a895efae8f2b" data-name="g64">
            <g id="b75c5675-ea88-4c7e-8ecd-9c51eb676153" data-name="g66">
              <path id="a2c88f3c-3a5d-44c7-96d4-a4451a646096" data-name="path78" class="b8505486-cc74-40c8-90c8-ce0f86e699dc" d="M137.79662,205.0633a196.90748,196.90748,0,0,0-23.568,19.92224h0c6.06,2.33216,12.43871,4.66156,19.08037,6.92136h0a114.91489,114.91489,0,0,1,12.53472-13.61452h0c18.70746-17.22271,40.38577-25.63578,53.84725-25.63578h0a98.17367,98.17367,0,0,1,13.39468,1.25513h0c.693.09742.92534-.03478,1.22175-.52738h0c.41189-.686,10.50034-18.61978,10.50034-18.61978h0a.34922.34922,0,0,0-.17394-.56774h0a17.59984,17.59984,0,0,0-5.68155-.70966h0c-15.10344,0-48.02516,7.49189-81.1556,31.57613m95.44919-14.28663c0,9.50123,5.69127,22.5188,29.59741,30.48519h0c.59278.199,1.18557.27274,1.18557.76812h0c0,1.01442-11.28236,16.257-21.47934,18.03953h0a1.74986,1.74986,0,0,1-1.97872-1.87992h0c0-1.08956,1.58494-4.25664,1.58494-9.10743h0c0-4.84941-1.48613-11.67894-10.691-11.67894h0c-8.89034,0-19.0776,4.24967-44.81772,29.06166h0c6.31745,1.2621,12.70587,2.36,19.12769,3.25335h0c8.00952-9.72248,20.2715-19.28911,23.37318-19.367h0c1.91611-.05009,2.70509.76393,2.77467,1.59745h0c.28943,3.4245-4.63232,5.8179-7.68392,8.02345h0c-3.56366,2.5729-4.71443,3.38136-4.35681,5.54238h0c.20038,1.18695,1.91889,1.50562,2.129,3.60122h0a4.6172,4.6172,0,0,1-.67766,2.34748h0q6.22.53016,12.56116.80845h0a9.93089,9.93089,0,0,1,5.25156-1.79365h0c1.45969,0,2.01074.6401,2.01074,1.56544h0a2.7484,2.7484,0,0,1-.0668.45642h0q10.43006.20247,21.08695-.31448h0c3.68471-5.74415,8.77345-11.37837,11.20581-12.8464h0c4.09242-2.47132,6.33137-4.90646,6.28545-6.29657h0c-.04315-1.39011-2.95974-3.26031-3.25335-4.62261h0c-.33953-1.58493.93787-2.43792,3.78073-1.71989h0c4.07016,1.02972,7.02572,1.15912,7.12314,4.15225h0c.07792,2.44489-2.51585,11.544-7.10643,19.9125h0q5.477-.597,10.97066-1.39847h0c3.52748-7.80081,5.49508-14.96707,5.49508-18.92732h0a1.6745,1.6745,0,0,1,1.86183-1.90358h0c1.57936,0,5.97237.47311,7.91491.66654h0a5.52776,5.52776,0,0,1,4.88978,5.88748h0c0,2.49219-1.64478,6.64028-4.11051,11.48273h0a281.85168,281.85168,0,0,0,39.71366-11.09729h0c.56218-8.3769,4.68244-11.79443,4.68244-14.54683h0c0-1.88411-.77368-2.63552-2.99174-2.63552h0c-5.047,0-14.92673,12.07551-16.70507,12.07551h0c-1.44717,0-3.11143-5.52848-4.74922-7.7201h0c-2.37949-3.16846-5.64674-3.96023-14.949-3.96023h0c-4.65182,0-7.32351.39937-11.48135.39937h0c-4.73391,0-5.84155-.20037-6.73074-2.27929h0c-.892-2.07614-14.75-38.60326-46.32474-38.60326h0c-7.0285,0-14.45221,3.07106-14.45221,12.57229m15.83816,4.46117c0-4.20374,2.85676-6.62916,6.888-6.62916h0c19.12769,0,28.66648,27.211,28.66648,28.93644h0c0,.86272-.51069,1.34558-1.88827,1.34558h0c-6.98677,0-33.66618-10.39876-33.66618-23.65288m-71.7643,30.37943c-2.14014,2.06918-7.97057,8.14869-15.19111,15.08258h0c5.51733,1.48056,11.13624,2.87347,16.82613,4.137h0c5.12075-7.02851,11.74294-16.02045,13.51017-18.02979h0c2.87068-3.26587,4.35543-4.85219,4.35543-5.94175h0c0-1.25375-1.78113-2.27511-3.96023-2.27511h0a26.09471,26.09471,0,0,0-15.54037,7.02712"/>
            </g>
          </g>
        </g>
      </g>
      <g id="fefcbf37-5f1d-41f4-993a-e01307044371" data-name="g80">
        <g class="aeb33ed3-0638-42ee-8922-5692b1cddd57">
          <g id="bc50b30f-9f29-4b93-bfc7-2e3aa87c8d81" data-name="g82">
            <g id="a135258b-e28f-40cc-9712-fdf991eeb7a8" data-name="g88">
              <path id="b0e1edca-6927-4111-abb1-fc691e845fcb" data-name="path90" class="ae5c08f9-ca4f-48db-8d3a-1cf42efbded0" d="M183.21577,248.52418a34.10368,34.10368,0,0,1-6.24509,4.71165c.77785.24212,1.54735.4759,2.31408.70967a42.41066,42.41066,0,0,0,5.20424-4.11887c1.1146-1.09233,2.19024-2.13318,3.25057-3.15177q-1.08955-.2129-2.17493-.43415c-.7709.74446-1.55154,1.50144-2.34887,2.28347"/>
            </g>
          </g>
        </g>
      </g>
      <g id="f12d0406-3fff-481f-a0ed-9bdd157bceef" data-name="g92">
        <g id="b3d473fb-3323-420e-80e2-543bb7170e18" data-name="g94">
          <g id="ad48c1c5-3be7-4af8-98d1-c22cfc5a0ee3" data-name="g100">
            <g id="b0fd017d-08fb-489b-a362-502dabfe077e" data-name="g102">
              <path id="e97cdf0c-d351-41c8-8e9c-c5b8310c4dac" data-name="path110" class="e8ba9332-c05e-4950-893e-10df06d12220" d="M322.98982,255.43455l-3.97972,6.1115c-2.31129,3.55114-5.44637,8.36855-7.94969,12.20771h0c.74446-.02365,1.48752-.05149,2.22642-.07793h0c2.0664-3.17125,4.60311-7.06887,7.24837-11.13763h0l3.97-6.09342a1.83949,1.83949,0,0,1,1.35394-.91422h0c.22125,0,.327.10854.66376,1.3275h0c.62758,2.26676,1.67537,6.06279,9.49983,6.06279h0a17.89726,17.89726,0,0,0,5.65093-1.18695h0a11.26531,11.26531,0,0,1,1.13824-.34928h0a1.91819,1.91819,0,0,1,.02365.36041h0a8.66939,8.66939,0,0,1-.45363,1.73382h0a23.35173,23.35173,0,0,0-1.2635,5.92922h0c-.03756.60393-.05984,1.23985-.06262,1.898h0c.60809-.08211,1.219-.16,1.82288-.2449h0c.00974-.55659.02783-1.07981.05565-1.53761h0a21.981,21.981,0,0,1,1.18139-5.48951h0a8.39059,8.39059,0,0,0,.54409-2.289h0c0-1.98151-1.26072-2.19581-1.802-2.19581h0a6.48686,6.48686,0,0,0-1.77279.4592h0a16.37655,16.37655,0,0,1-5.06231,1.09234h0c-6.43713,0-7.1621-2.623-7.74375-4.72974h0c-.327-1.18557-.73612-2.66195-2.41984-2.66195h0a3.568,3.568,0,0,0-2.86928,1.72548"/>
            </g>
          </g>
        </g>
      </g>
      <g id="a98e0fb1-8a53-42d4-9c08-24427c65e606" data-name="g112">
        <g id="b807ca1c-b9ac-475b-a4dd-2d32ce3f4340" data-name="g114">
          <g id="e23247cc-f2e4-4869-bd69-4614b5998fe9" data-name="g120">
            <g id="af6677c7-9948-4daf-abbe-4a80b06acecb" data-name="g122">
              <path id="b3e252c5-3216-48e9-91dc-fea71ef30c5e" data-name="path130" class="af84ff2b-36b3-40f4-ae41-17f1f2b01fdc" d="M279.12387,250.87736a44.08478,44.08478,0,0,1-6.49278,9.00863h0c-3.53026,3.6555-7.1621,5.51317-10.79254,5.5229h0c-1.10209.00278-2.95974-.33676-3.03348-2.6397h0c-.08627-2.68841,1.87993-6.70847,4.47232-10.63948h0q-1.11878.05846-2.23477.11133h0c-2.41009,3.87257-4.14809,7.77437-4.05764,10.58938h0c.08627,2.719,1.94672,4.40692,4.85775,4.39856h0c4.14391-.01113,8.21268-2.05665,12.09919-6.07811h0a47.87655,47.87655,0,0,0,7.38613-10.51424h0c-.73472.08489-1.46944.16281-2.20415.24073"/>
            </g>
          </g>
        </g>
      </g>
      <g id="aebfd9e1-c20b-4ec3-81f7-1f8b742f233a" data-name="g132">
        <g class="aeb33ed3-0638-42ee-8922-5692b1cddd57">
          <g id="abcbe551-5120-406e-a97b-c26727ba7e81" data-name="g134">
            <g id="eff791a3-b56a-4174-9521-3a3fad15dd30" data-name="g140">
              <path id="b919c7be-e272-466a-98a4-0827ca820fc8" data-name="path142" class="a5224748-0f03-46ec-8ff5-9a4df456c3e3" d="M198.59709,259.4293c.59557.15446,1.18417.31031,1.76722.462a38.613,38.613,0,0,1,6.4733-10.03278c-.70689-.096-1.41517-.192-2.12205-.29222a38.37667,38.37667,0,0,0-6.11847,9.863"/>
            </g>
            <g id="e34453c6-7797-4477-a1d1-e91edbef54a1" data-name="g144">
              <path id="a4f563cf-bcf9-4f86-b99f-9f7ab4b955b8" data-name="path146" class="ae5c08f9-ca4f-48db-8d3a-1cf42efbded0" d="M155.15724,245.99525c.64426.22821,1.28992.45642,1.92863.68184,2.0149-1.86184,4.03677-3.77516,6.04889-5.71075q-1.01859-.27135-2.03439-.54269c-1.90219,1.82149-3.899,3.69724-5.94313,5.5716"/>
            </g>
            <g id="a71e3f93-f4fe-4e46-961f-c27e46121634" data-name="g148">
              <path id="fe738c87-cce9-4656-b6bb-b5871ac3abf2" data-name="path150" class="ae5c08f9-ca4f-48db-8d3a-1cf42efbded0" d="M220.35167,251.3737a27.75867,27.75867,0,0,1-3.40363,4.56554,60.54855,60.54855,0,0,1-6.65559,6.42043q1.12922.26508,2.20972.519a64.91969,64.91969,0,0,0,5.81094-5.73441,25.6324,25.6324,0,0,0,3.99363-5.59943c-.65122-.05288-1.30245-.11132-1.95507-.17116"/>
            </g>
            <g id="fd0028fd-7ffc-4eda-b1e4-fa6f41cd4945" data-name="g152">
              <path id="ef8b0ea7-844b-4bfd-9735-911fcf7fb109" data-name="path154" class="a1727158-ca28-43d9-8e16-3dac6d1ae9a6" d="M222.23633,262.01931c-.75976.821-1.53622,1.66007-2.328,2.50889.71663.15168,1.41516.30057,2.08031.43833q.80568-.86622,1.58493-1.71156c4.41665-4.78262,8.38106-9.07681,12.03377-10.91639q-1.60721-.06053-3.20882-.13915c-3.22274,2.31269-6.547,5.90557-10.1622,9.81988"/>
            </g>
            <g id="fd20de92-e75e-4e7f-867a-16623f6cc709" data-name="g156">
              <path id="feaf88b4-5421-4e13-9a75-74a912cfe4e4" data-name="path158" class="bf7d44b0-0d53-4d50-bc17-58b6932f764f" d="M129.10581,235.99446q.87456.36109,1.745.71941,1.58839-2.225,3.37858-4.49736c-.61644-.20872-1.22731-.41745-1.83958-.62618q-1.73451,2.22086-3.284,4.40413"/>
            </g>
          </g>
        </g>
      </g>
      <g id="ef8c3660-862a-4aca-8a21-b6104622fb88" data-name="g160">
        <g id="bd4940f6-3add-4c61-be3d-468b9ba76eba" data-name="g162">
          <g id="a753b785-5a7f-4adf-8f20-ebb47b0d546a" data-name="g168">
            <g id="f3527d2a-4c6e-4bbc-843b-b817021a5650" data-name="g170">
              <path id="ff68fee9-37d2-4432-8969-52e21cf1e0d3" data-name="path178" class="ac134071-7512-451d-835b-b9f4915e4193" d="M397.93092,224.72673c0,10.2916-18.7339,25.48828-30.033,28.821h0c-3.50659,1.03389-5.59942,3.28534-5.59942,6.01967h1.82012c0-1.8827,1.60579-3.48017,4.297-4.27332h0c11.80558-3.483,31.33678-19.21118,31.33678-30.56728H397.931Z"/>
            </g>
          </g>
        </g>
      </g>
      <g id="a207000b-8c0f-4bd8-b7ad-cd7e8acf421a" data-name="g180">
        <g id="affe0ef2-c726-427a-9db8-f10427de4417" data-name="g182">
          <g id="be1b04ed-621a-49b9-abc4-58a1dfb0e317" data-name="g188">
            <g id="ab30169d-2a18-41ab-9cb4-502da49df40e" data-name="g190">
              <path id="b55e7401-f89c-4b0a-aade-15574f743c59" data-name="path198" class="b39b1955-8b45-421b-ad66-483504c377ab" d="M355.62349,242.27364c-1.91613,2.29182-3.86562,3.714-5.08459,3.714h0c-.93093,0-2.7524-2.59377-2.7524-8.59117h0c0-.79734.0334-1.55154.09323-2.26677h0c-.622.22681-1.2454.455-1.8674.67767h0c-.03061.51485-.0487,1.03944-.0487,1.5891h0c0,7.15514,2.37252,10.41266,4.57527,10.41266h0c2.46158,0,5.11656-2.73571,6.48026-4.36655h0c2.28625-2.73293,4.51544-5.15137,6.6723-7.29152h0l-.77368-1.809c-2.35441,2.30713-4.78819,4.93708-7.29429,7.9316"/>
            </g>
          </g>
        </g>
      </g>
      <g id="a224b067-0a72-459e-9909-ef3c922a7e2e" data-name="g200">
        <g id="bd1cf75f-e0ee-43b1-bf8d-376b52551e8e" data-name="g202">
          <g id="b798cc1d-3cef-436e-8562-bfb57ccf5004" data-name="g208">
            <g id="a12f7150-e6a4-45ba-9fc6-787bbf5ffa3b" data-name="g210">
              <path id="ae1f60f3-6b5a-4784-8f9b-6dd096761f2e" data-name="path218" class="ea942244-32a1-4918-828f-0f1e0f8a6794" d="M362.91778,234.342l.77368,1.809c15.09508-14.97263,26.68082-16.27509,30.2055-16.27509h0c3.84058,0,4.034,4.04095,4.034,4.85081h1.82148c0-3.32152-1.81175-6.6709-5.85549-6.6709h0c-4.67409,0-16.16793,1.75607-30.97917,16.28621"/>
            </g>
          </g>
        </g>
      </g>
      <g id="b1e1a485-f7aa-49ca-ae69-ade54d477a95" data-name="g220">
        <g id="eda20121-471b-4ab3-b93a-9e2f66f6b268" data-name="g222">
          <g id="a1f0e923-38c8-48d2-997a-af1d3ccb7863" data-name="g228">
            <g id="b57ad01b-3f32-430b-8a3d-290c082592cf" data-name="g230">
              <path id="a7fd7615-f7f0-41b7-b9f1-c0aa945301e2" data-name="path238" class="e062d25f-3d15-498a-b81b-7c68de0b08ed" d="M368.95277,245.22644a2.36427,2.36427,0,0,0,2.43654,2.3266h0c4.28447,0,16.26259-10.92058,16.26259-15.93834h0a2.17864,2.17864,0,0,0-2.21806-1.99822h0c-4.31229,0-16.481,11.52448-16.481,15.61m1.82147,0c0-3.09472,11.37141-13.78986,14.65956-13.78986h0a.595.595,0,0,1,.40215.20733h0c-.00557,3.9004-11.20028,14.08625-14.44664,14.08625h0c-.256,0-.615-.15725-.615-.50372"/>
            </g>
          </g>
        </g>
      </g>
      <g id="b495e0f6-d386-4926-9acb-1b188fb3454f" data-name="g240">
        <g id="f0a4f48a-288f-4e48-aa87-fbd3e4ebf0f1" data-name="g242">
          <g id="ba60aa24-0941-4d4f-9fe0-e50f00de2caa" data-name="g248">
            <g id="a68aa3c1-cfe9-47a1-87d0-505abe725de8" data-name="g250">
              <path id="e3b73ec4-6ae7-4f77-ada9-358117235b88" data-name="path258" class="edc1aae8-052c-403e-b5a6-a23301522361" d="M428.71531,210.37331c0,3.764,5.22788,6.25623,7.34436,6.25623h0c2.80527,0,11.60242-5.63422,11.60242-13.57975h0c0-3.16429-2.23615-6.554-5.56187-6.554h0c-4.50432,0-13.38491,9.209-13.38491,13.87753m1.82147,0c0-3.604,8.10556-12.056,11.56344-12.056h0c2.20277,0,3.739,2.495,3.739,4.73252h0c0,6.75718-7.73539,11.75825-9.77955,11.75825h0c-1.35253,0-5.52289-1.99543-5.52289-4.43473"/>
            </g>
          </g>
        </g>
      </g>
      <g id="bdac424e-e654-40b8-99b4-59e1bb82f185" data-name="g260">
        <g class="aeb33ed3-0638-42ee-8922-5692b1cddd57">
          <g id="eb9d13ea-7ecf-49b1-81a6-dfc9f61d499e" data-name="g262">
            <g id="fcdfe126-cd24-4c5c-856b-f5f156b54380" data-name="g268">
              <path id="e27979a7-180c-432b-bea4-62064fc06141" data-name="path270" class="f1c396da-16bb-4053-9d73-6ddc50b6f808" d="M289.692,273.72482q1.07286.03757,2.13458.06818c5.175-7.88568,12.21049-18.80346,16.52974-27.45726q-1.13339.23586-2.26538.46059c-4.54328,8.75955-11.66363,19.72325-16.39894,26.92849"/>
            </g>
            <g id="bc7052d1-9262-44e2-bd63-0faf4a2b12f3" data-name="g272">
              <path id="ec736545-ac75-40aa-a1fa-6bbbc8ff57e9" data-name="path274" class="ae5c08f9-ca4f-48db-8d3a-1cf42efbded0" d="M110.24711,227.77106c.57608.26439,1.15356.53295,1.72825.79316,1.00885-1.0659,2.06918-2.14571,3.16151-3.23108-.61922-.23656-1.23148-.47312-1.84514-.70967-1.0478,1.05754-2.072,2.10813-3.04462,3.14759"/>
            </g>
            <g id="ac428188-3c95-4bdd-a9c8-b58ea6af8fed" data-name="g276">
              <path id="b4248428-4d9f-4994-b986-d9c199e4c640" data-name="path278" class="a3912de6-c0e0-4485-b3be-c0d5a3d7b1dc" d="M177.98661,244.61738c-2.27233,3.12254-4.21627,5.81094-5.27382,7.28316.60948.19342,1.22314.38962,1.827.57886,1.187-1.64615,3.15455-4.36377,5.38932-7.42926q-.97268-.21291-1.94255-.43276"/>
            </g>
            <g id="bf15f5f4-95eb-49a1-b193-c49e870e803b" data-name="g280">
              <path id="b623dc93-3af1-44fe-a5af-2ea6f1da5735" data-name="path282" class="ae5c08f9-ca4f-48db-8d3a-1cf42efbded0" d="M239.72537,254.36336c-.7709,3.21856-2.16937,9.074-2.296,13.4879.6053.1141,1.212.231,1.81452.34231.06123-4.24132,1.48057-10.18028,2.25147-13.4058.28526-1.18835.4425-1.85489.51625-2.27512-.61783-.01113-1.23149-.02366-1.84793-.03618-.096.455-.26856,1.17443-.43832,1.88689"/>
            </g>
            <g id="a4ef1393-6bb3-4860-8502-70cd1745ce07" data-name="g284">
              <path id="b81872e2-337b-40c8-aff0-bd11bab486ff" data-name="path286" class="a1727158-ca28-43d9-8e16-3dac6d1ae9a6" d="M290.11458,249.52021a93.69645,93.69645,0,0,1-6.15743,11.29766,68.3867,68.3867,0,0,1-9.64316,12.01569c.77368.06262,1.55571.13637,2.32382.19342,6.593-6.77109,11.95585-15.65031,15.60578-23.82125-.70828.10854-1.41934.21429-2.129.31448"/>
            </g>
          </g>
        </g>
      </g>
      <g id="ef8161e5-032d-4285-aa5d-d385a5a4c7df" data-name="g288">
        <g id="ad769c06-ea1f-4ab3-acba-3143c56c11f5" data-name="g290">
          <g id="aabe1016-8b8f-405b-a719-bb449386467a" data-name="g296">
            <g id="e7000f5f-2e4d-4d29-9311-390ed82b3959" data-name="g298">
              <path id="e88a8275-6d7d-4932-88a9-6a0cbbadb41d" data-name="path306" class="a1008a12-728b-4525-8630-c6fa44ba9579" d="M407.08152,235.19505l-3.61513,3.95744c-10.844,11.92663-23.13525,25.44376-34.1212,25.44376h0c-4.31785,0-5.22652-2.73432-5.22652-5.02892h-1.82012c0,3.9505,2.23615,6.42877,6.03639,6.79752h0c3.93239.0821,6.46218-.615,10.79948-2.73153h0c8.76233-4.65182,17.611-14.38264,25.68029-23.25629h0l3.604-3.94772c11.67754-12.66691,20.74461-16.9291,23.08654-16.9291h0v-1.8201c-3.20046,0-12.66135,4.7534-24.42378,17.51494"/>
            </g>
          </g>
        </g>
      </g>
      <g id="bc3d91ed-c1ef-4a7c-9e7a-8b3b6329e8be" data-name="g308">
        <g id="bb1a60f3-b3c6-4e8b-91cd-413d2bd1edbf" data-name="g310">
          <g id="f48ea42e-2d78-4ca8-b534-7c9c9f589367" data-name="g316">
            <g id="ab2bc7f3-5ec5-43ec-8948-5159daefca8f" data-name="g318">
              <path id="b70ac960-423f-4c22-b4ca-54f13cefdffa" data-name="path326" class="bd68f62d-8940-464f-9ce2-78306e9a1771" d="M431.50529,219.50021c2.24451,0,3.2478,1.82983,3.2478,3.64436h0c0,.80152-.68046,4.08826-9.42606,12.60985h0c-4.38745,4.27473-10.421,12.67387-14.6554,19.22649h0q1.55711-.66583,3.05438-1.32889h0c3.62349-5.41019,9.12133-12.93686,12.87146-16.59376h0c6.52758-6.3578,9.9785-11.171,9.9785-13.91369h0c0-2.71762-1.74079-5.46446-5.07068-5.46446h0Z"/>
            </g>
          </g>
        </g>
      </g>
      <g id="ba757b5a-eddd-415d-8a8a-1fa372c1b097" data-name="g328">
        <g id="ee69d444-5adf-4a7f-b49b-036558989e9b" data-name="g330">
          <g id="b93b184e-63e5-4ecd-8045-79c91aacb732" data-name="g336">
            <g id="b85d8c2a-dc68-4d43-9061-0901c35bf2d5" data-name="g338">
              <path id="be71892f-5226-4b44-b7fd-f4ed4fcd8bf2" data-name="path346" class="b5d3a086-f147-42c8-b4e2-615e4f30fd18" d="M197.73727,264.29429c.22959,2.74684,2.21111,4.34013,5.29886,4.2608h0c2.23615-.05287,5.98072-2.6383,9.46643-5.676h0q-1.08328-.25462-2.21111-.52041h0c-3.0989,2.559-5.94869,4.3429-7.30124,4.37908h0c-2.13179.05149-3.28815-.821-3.43841-2.59517h0a9.77208,9.77208,0,0,1,.81124-4.25105h0q-.87458-.2296-1.76582-.462h0a11.35069,11.35069,0,0,0-.85995,4.86472"/>
            </g>
          </g>
        </g>
      </g>
      <g id="bdbc6d35-f8a4-4062-a274-be3ed15050f5" data-name="g348">
        <g id="f8491017-7694-4fa4-9699-55f6610f2902" data-name="g350">
          <g id="bacfea83-ba48-4696-b49a-24b1e4d70ce1" data-name="g356">
            <g id="b709a733-896e-4d37-954a-663745238040" data-name="g358">
              <path id="ad9c6933-56ed-4d57-a5fa-0d77e4357035" data-name="path366" class="b48c7cae-a90f-42f6-8f55-06127e52a1ce" d="M171.922,253.00775c-.83908,1.1953-1.0826,2.03021-.7876,2.70369h0a1.36786,1.36786,0,0,0,1.11042.79874h0c2.04413.28386,4.71442-1.02973,7.03964-2.56594h0c-.76671-.23239-1.53483-.46754-2.31407-.70828h0a9.77756,9.77756,0,0,1-3.96163,1.47084h0a5.57085,5.57085,0,0,1,.40354-.654h0c.14193-.20177.5413-.76115,1.12851-1.57241h0c-.6053-.19062-1.21757-.38684-1.82845-.58027h0c-.39658.55382-.67627.94344-.79037,1.10765"/>
            </g>
          </g>
        </g>
      </g>
      <g id="f09c9acd-746c-48e3-be45-d99c123188e6" data-name="g368">
        <g id="bdcaea1b-042a-4372-b911-3edfa1f2e89b" data-name="g370">
          <g id="a93dca5c-1edd-4fcf-8d20-642d4bf02e37" data-name="g376">
            <g id="abb8ebeb-2663-4084-bb87-e4206d429681" data-name="g378">
              <path id="b75c07fd-ea45-42d1-b94f-6fee53bad9ff" data-name="path386" class="abcdc6e0-61ed-4717-9af2-d15b612ae7f5" d="M107.30448,309.49468c-2.38087.02087-11.59822,6.61245-18.77423,12.70448h0c-5.91392,5.02335-15.834,14.25184-15.834,19.66064h0c0,3.27,1.76722,5.06788,4.97743,5.06788h0c4.11191,0,9.96043-5.00805,14.14191-9.2118h0c8.31984-8.363,17.604-21.3541,17.58033-26.22439h0a2.02756,2.02756,0,0,0-.52321-1.47917h0a2.064,2.064,0,0,0-1.51814-.519h0c-.0167,0-.0334,0-.0501.00139M74.51774,341.8598c0-8.03319,29.36223-30.45179,32.80343-30.545h0s.14332.01669.23656.02365h0l.01531.16h0v.0167c0,3.92684-8.43255,16.25561-17.04738,24.915h0c-5.48533,5.51316-10.17054,8.67745-12.852,8.67745h0c-2.18328,0-3.156-1.00189-3.156-3.24778"/>
            </g>
          </g>
        </g>
      </g>
      <g id="a466c692-d303-4645-9dfa-17456e97c935" data-name="g388">
        <g id="b6112786-bd1f-4a3e-bd9b-7829629b5586" data-name="g390">
          <g id="b9c6a23f-016b-413f-9b2a-2e8b253b18b6" data-name="g396">
            <g id="ef3692dd-a161-42ee-876c-9c44075a4857" data-name="g398">
              <path id="ee778e58-ca4f-44b7-9ba5-04ff1308a92a" data-name="path406" class="e49be2c5-d68f-4ef0-9a9c-9071ba70fec1" d="M116.72222,261.25105c0,5.64118,3.58452,7.64217,6.6528,7.64217h0c7.574,0,20.48441-10.00217,33.7107-22.21684h0c-.6387-.22543-1.28436-.45224-1.92863-.68045h0c-11.55093,10.58521-24.68956,21.0758-31.78208,21.0758h0c-3.02654,0-4.83271-2.17632-4.83271-5.82068h0c0-3.16846,4.24131-13.25274,12.30929-24.53788h0c-.58165-.23656-1.1633-.47867-1.74495-.71941h0c-8.20016,11.56066-12.38443,21.84253-12.38443,25.25729"/>
            </g>
          </g>
        </g>
      </g>
      <g id="fb0c78ef-93c3-49c2-873f-9e663030b1ef" data-name="g408">
        <g id="fdeb6f9b-2d46-4440-a2b8-6b2086c3d742" data-name="g410">
          <g id="e7d201f2-6dd6-49ac-ade7-7e6f8d6aaaa6" data-name="g416">
            <g id="a531b946-9206-4eb1-b5df-87f94a251b39" data-name="g418">
              <path id="a3a03cea-54e6-45f0-9e5d-c954321a2fdd" data-name="path426" class="eaccec1d-6747-4e2e-909d-d023d441d4f2" d="M53.21791,350.17685H55.038c0-18.553,30.45179-38.39174,73.47308-64.39349h0l-.95457-1.54876c-43.52224,26.30232-74.3386,46.43607-74.3386,65.94225"/>
            </g>
          </g>
        </g>
      </g>
      <g id="ed6e8bb5-85cb-4bcc-b8a6-c9ca070a4bb5" data-name="g428">
        <g id="ae893c96-7ae2-4606-9cf6-a0a274a16d4b" data-name="g430">
          <g id="e709faa5-7519-40e9-8f3b-5954db41b954" data-name="g436">
            <g id="ee033303-55a4-4bf9-abdd-32230e799b0b" data-name="g438">
              <path id="a3561a82-c705-4403-951f-7007e8d0cc9a" data-name="path446" class="ad3aeaf3-c39c-4709-b8ef-6e7ac0d0cffc" d="M89.00335,267.5518c0,9.64177,6.91163,15.17163,18.9621,15.17163h0v-1.8201c-6.40233,0-17.14061-1.7352-17.14061-13.35153h0c0-9.081,5.95009-22.91538,21.15093-38.98731h0c-.57469-.26021-1.15217-.52878-1.72825-.79317h0c-15.26485,16.31129-21.24417,30.4379-21.24417,39.78048"/>
            </g>
          </g>
        </g>
      </g>
      <g id="be73e465-f54a-49d7-b5c4-ce909d79e885" data-name="g448">
        <g class="aeb33ed3-0638-42ee-8922-5692b1cddd57">
          <g id="bec60163-e75b-4ca5-a07b-2475d7435f6c" data-name="g450">
            <g id="f826d55b-1884-4b0b-8451-06868e32aa0e" data-name="g456">
              <path id="eb1eae1a-a6a1-4a60-96c7-c5072167ea1e" data-name="path458" class="ea517597-0f37-4a36-a16d-5c8985463733" d="M128.51206,285.78364c4.034-2.5409,8.88479-8.63988,8.15285-11.17243a1.77332,1.77332,0,0,0-1.834-1.25375c-1.21339,0-2.67169.75559-4.68938,1.802a44.56645,44.56645,0,0,1-22.17649,5.74276v1.82149a46.2369,46.2369,0,0,0,23.01418-5.94731,13.18632,13.18632,0,0,1,3.85169-1.63085c.0988,0,.13637.07375.13637.18507,0,1.31359-3.26031,6.28962-7.41118,8.90427"/>
            </g>
          </g>
        </g>
      </g>
      <g id="a0424d93-4739-4ad0-9533-9c6f3dc77b31" data-name="g460">
        <g id="af37db4e-5876-450c-bdf5-2f886aeebf69" data-name="g462">
          <g id="b9241053-2eb3-4916-8c3a-2c081003d209" data-name="g468">
            <g id="a4230933-a6b1-4cad-900b-a1169ba2ee66" data-name="g470">
              <path id="f94faeca-3d24-4e72-86d1-3b38f52506b7" data-name="path478" class="a1a1d73e-70b4-44eb-a84d-1e7011f631a2" d="M188.07743,282.95722c-6.07673,0-9.312-4.27194-9.312-7.35273H176.944c0,4.42779,4.47369,9.17422,11.13347,9.17422h0c14.70408,0,25.32965-10.57269,33.91108-19.81231h0c-.66514-.13776-1.36368-.28665-2.0803-.43833h0c-8.20712,8.77485-18.31087,18.42915-31.83078,18.42915"/>
            </g>
          </g>
        </g>
      </g>
      <g id="a5a2bb8b-e3a4-481b-9cbc-e6570dabd2b5" data-name="g480">
        <g id="ae071835-2c78-42eb-a269-4ab658eb656e" data-name="g482">
          <g id="b7f6c922-d5a7-4047-a460-e2246aa5da8b" data-name="g488">
            <g id="b4cc0480-0ec3-4b43-9e93-a04919b69650" data-name="g490">
              <path id="bedb72e3-20fb-456a-91ff-70844a2ab544" data-name="path498" class="ffa4a4e9-9b2e-4a8b-bb43-756a26ced6ca" d="M161.00839,274.56224l-.80986.58027-2.10675,1.46525c-2.82615,1.93-5.49785,3.75429-7.32908,6.59436h0c-46.35534,71.84362-76.65963,75.4838-82.26463,75.4838h0c-8.0791,0-13.46007-1.44578-13.46007-8.50907H53.21791c0,10.332,10.32082,10.332,15.28016,10.332h0c3.35493,0,12.69335-1.084,26.9424-11.10981h0c17.96438-12.64047,37.08929-34.58179,56.8515-65.2103h0c1.63364-2.53116,4.15644-4.25385,6.82674-6.07811h0l2.14432-1.48892.80986-.58444c11.23923-8.11528,14.3715-9.68769,15.36226-9.82961h0c.80986-.11411.99771.07932,1.06869.13219h0l1.28575-1.28715c-.57747-.58721-1.123-.66653-2.35444-.66653h0c-1.68233,0-6.28822,2.854-16.42676,10.17611"/>
            </g>
          </g>
        </g>
      </g>
      <g id="b0debcbd-45d0-4251-a836-406ad3692965" data-name="g500">
        <g id="e72fd93d-ca6d-4784-84ca-bc8212af8c51" data-name="g502">
          <g id="f03b7a8a-b060-4c09-bf5d-be890ab78df7" data-name="g508">
            <g id="ee3ce719-75c6-4102-9771-4597eb1886ab" data-name="g510">
              <path id="b136c798-3771-4d17-9252-984e1d558b7e" data-name="path518" class="beaf9af2-1dce-4daf-863c-9072908abb41" d="M237.41616,268.47855c0,10.25681,5.89442,15.68091,17.0432,15.68091h0c8.25026,0,15.78946-4.57527,22.17926-11.13347h0c-.76949-.05706-1.55154-.12942-2.32522-.192h0c-5.35732,5.19588-12.12561,9.504-19.85406,9.504h0c-10.24151,0-15.22033-4.53353-15.22033-13.85944h0c0-.09184.00278-.18925.00418-.28527h0c-.60114-.11132-1.20782-.2268-1.81453-.34091h0c-.00556.2115-.01253.423-.01253.62618"/>
            </g>
          </g>
        </g>
      </g>
      <g id="e19e4d70-f6c7-46c5-8f36-09f3c6e2621f" data-name="g520">
        <g id="b7f616c2-2058-48be-b070-75f461ad0e54" data-name="g522">
          <g id="a9475e9a-5026-49a4-847e-54abd48e3bf7" data-name="g528">
            <g id="e381a2b6-2b60-4c8f-ac0b-69c706c3a916" data-name="g530">
              <path id="a5644437-8c2e-4a68-96bf-2a07f3efbaae" data-name="path538" class="b2bda005-b2d3-49a4-b61b-f79d920676cb" d="M311.06041,273.75376c-2.22364,3.412-3.9491,6.04749-4.15366,6.33553h0c-.63314.88779-1.19113,1.20088-1.50421,1.20088H286.90659c.02365-.032.04174-.06679.064-.09183h0l.02783-.03756,3.06688-4.68522c.55522-.84464,1.148-1.74495,1.76166-2.68282h0c-.70828-.01809-1.42072-.04314-2.13457-.0668h0c-.39937.60809-.78621,1.19392-1.148,1.74635h0s-3.00148,4.59337-3.02932,4.63373h0a2.56777,2.56777,0,0,0-.58861,1.482h0a1.419,1.419,0,0,0,.13357.60809h0c.19481.41884.67767.9184,1.866.9184h18.47646a3.90168,3.90168,0,0,0,2.98479-1.96481h0c.24352-.33954,2.15823-3.26588,4.8995-7.4738h0c-.7389.02643-1.482.05427-2.22642.07792"/>
            </g>
          </g>
        </g>
      </g>
      <g id="e9634de6-6971-48fe-a672-258aea98a536" data-name="g540">
        <g id="bbdd33ef-1c41-46ca-a54a-2152ed6acfc8" data-name="g542">
          <g id="aa4f1c5d-e45e-4f5c-838e-1451a1111390" data-name="g548">
            <g id="a591a572-e26a-4b91-9e77-e03177cf9008" data-name="g550">
              <path id="a1986dc7-241e-443f-b291-274aefa60621" data-name="path558" class="ba2aa58a-3eb2-42cf-92a4-09cf584ad024" d="M341.05578,271.30611c0,.04175-.0014.07933-.0014.11967h0c0,3.73064.68879,8.11806,3.38694,10.99153h0a9.69027,9.69027,0,0,0,7.38475,2.90686h0v-1.82288a7.9356,7.9356,0,0,1-6.05585-2.33216h0c-2.46436-2.623-2.92078-6.99511-2.89156-10.10792h0c-.60393.08489-1.21479.16282-1.82288.2449"/>
            </g>
          </g>
        </g>
      </g>
      <g id="f17df145-b1a9-43b9-a9aa-b239e0ea2c1a" data-name="g560">
        <g id="eac8558c-0594-488a-8628-8e14c48eb124" data-name="g562">
          <g id="b3773880-c5e3-4969-b9a1-96f4bd91907b" data-name="g568">
            <g id="be9134c8-1ad9-490a-a243-055bc0284a7d" data-name="g570">
              <path id="ebcbcfa6-f43a-45e2-b244-8bcb973c52c0" data-name="path578" class="a2e40db5-0bcf-4961-9bc8-714a78776946" d="M179.15507,265.67606l-.65123.65957a.71827.71827,0,0,1,.13916.5566h0a4.534,4.534,0,0,1-.13638.70688h0c-.05009.22264-.21986.956-.46894,1.79922h0a21.36034,21.36034,0,0,0-1.09372,6.20892h1.82149a19.54174,19.54174,0,0,1,1.01858-5.69267h0a16.80079,16.80079,0,0,0,.56774-2.367h0l.03618-.49538a2.58985,2.58985,0,0,0-.59834-1.9996h0l-.63452.6234Z"/>
            </g>
          </g>
        </g>
      </g>
      <g id="ea87a5a6-ac10-468e-830a-a991dcad5d44" data-name="g580">
        <g id="ffb7dcda-0c8d-467b-82a3-9aad3bc41878" data-name="g582">
          <g id="a022990d-655d-46e1-ae17-0765bf001c93" data-name="g588">
            <g id="ed047de7-df61-47f7-807a-f56fd47d79cf" data-name="g590">
              <path id="b88e2bd5-8491-4810-9f11-55872692a107" data-name="path598" class="b76be8c2-4f83-4daa-89a3-dc5b93688865" d="M363.89046,302.5427c-6.63473,8.05406-12.24111,14.67207-17.19072,20.50667h0c-13.75508,16.23475-20.03634,23.64175-20.03634,28.77224h0a9.71262,9.71262,0,0,0,2.026,6.15464h0l1.14661-1.5a8.0152,8.0152,0,0,1-1.35115-4.6546h0c0-4.46118,6.55124-12.1938,19.60777-27.59224h0c4.9482-5.84294,10.56155-12.46375,17.20183-20.53033h0c8.89313-10.79533,14.91558-18.82016,18.99269-24.73129h0l-1.88827-.47589c-4.02008,5.78034-9.90478,13.60339-18.50845,24.05084"/>
            </g>
          </g>
        </g>
      </g>
      <g id="e3a59469-5dc8-47a8-bb9e-107cdb181f8e" data-name="g600">
        <g id="e9f27d2f-d684-4bf1-b249-bb24e52b794c" data-name="g602">
          <g id="ab7155e1-76f2-400f-a901-ed07ca9449f3" data-name="g608">
            <g id="ab7ab62f-0c08-4dfa-83b1-487187407085" data-name="g610">
              <path id="f8b743db-33b0-4cb6-9738-045e0ffab078" data-name="path618" class="e47805c2-5e15-4385-a77d-ba4072b5c95a" d="M410.67159,254.98231c-4.62538,7.1607-7.48352,12.69752-13.12052,22.69414h0c-6.44826,11.434-13.75508,24.39037-23.241,39.81247h0c-22.64961,36.82906-33.91666,42.32692-38.61859,42.32692h0a7.91814,7.91814,0,0,1-5.85548-3.33963h0l-1.14661,1.50005a9.6211,9.6211,0,0,0,7.00207,3.66385h0c8.90009,0,22.79015-14.93785,40.17008-43.19384h0c9.50539-15.4555,16.82059-28.42714,23.27577-39.8751h0c6.24786-11.082,9.52488-17.36187,14.58859-24.91915h0q-1.49448.66374-3.05437,1.33027"/>
            </g>
          </g>
        </g>
      </g>
      <g id="bf6f0ade-e1b6-4ab3-89c4-fbc7fae48466" data-name="g620">
        <g id="a08ac131-134f-499f-8b19-61979fa55914" data-name="g622">
          <g id="e4d04aed-ac52-4244-9158-bfeb67da9235" data-name="g628">
            <g id="eb0121ec-c38e-43c9-a621-a653ecb8f118" data-name="g630">
              <path id="a2a6839b-1a57-4b53-bf99-659d94c90e04" data-name="path638" class="bc3040b5-cac5-417d-996a-2ff70c16fbf1" d="M390.9845,261.74505c-.37293.1141-.718.29639-2.84565,2.136h0c-6.20336,5.367-22.683,19.62029-36.32119,19.62029h0v1.82287c14.31446,0,31.16983-14.57745,37.5137-20.06418h0c.60811-.526,1.17443-1.01441,1.59051-1.35811h0c-.3785,1.17443-1.99265,5.19451-8.523,14.59h0l1.88827.47589c8.42-12.20214,8.56474-15.41375,8.56474-15.45967h0a1.837,1.837,0,0,0-.51485-1.47918h0a1.45831,1.45831,0,0,0-.95734-.334h0a1.45876,1.45876,0,0,0-.39519.05009"/>
            </g>
          </g>
        </g>
      </g>
      <g id="a429f570-17df-4cd7-8608-125ed7b87155" data-name="g640">
        <g id="b8fbf599-30db-499a-850e-3726f3c82dc3" data-name="g642">
          <g id="e3006060-f403-4097-af35-495f2939bfa0" data-name="g648">
            <g id="b7dad97c-d073-4bfe-8de8-e6cbdb63b49a" data-name="g650">
              <path id="b9c58826-fb58-4f14-a138-baa6e69c75e3" data-name="path658" class="b0fd76fc-f01e-4deb-96ce-4c5abf7754b1" d="M295.76633,230.43747c0,3.98112-2.03717,11.23087-5.6523,19.08176h0c.70966-.10019,1.42072-.20593,2.129-.3131h0c3.42868-7.6672,5.34617-14.70408,5.34617-18.76868h0c0-.7695.2115-.99355.94762-.99355h0c1.32055,0,4.82157.35623,6.9144.57053h0l.91005.09183a4.61626,4.61626,0,0,1,4.07017,4.98161h0c0,2.45183-1.75329,6.72237-4.34012,11.70954h0q1.13132-.22544,2.26539-.46058h0c2.34747-4.70469,3.89623-8.74146,3.89623-11.249h0a6.43767,6.43767,0,0,0-5.71076-6.79336h0l-.90588-.09183c-2.264-.231-5.6871-.57887-7.09948-.57887h0a2.56565,2.56565,0,0,0-2.7705,2.81364"/>
            </g>
          </g>
        </g>
      </g>
      <g id="b84f35ed-bb7c-49d0-a488-a1cb1e229900" data-name="g660">
        <g id="b29b41a2-9f2d-4095-94bc-53d4ee0c1b86" data-name="g662">
          <g id="ef5df3f0-1eeb-415b-92b8-9088e00794fb" data-name="g668">
            <g id="bc928f75-b09f-4fa7-ae3a-b97dd4841c29" data-name="g670">
              <path id="e602c11b-ecf9-4bd9-ba60-a6a642d82538" data-name="path678" class="a17e0c5c-9251-4992-9fb3-b5fbc488e340" d="M248.17114,195.23508c0,14.11547,27.35011,24.5657,34.57761,24.5657h0c2.43374,0,2.79833-1.41517,2.79833-2.257h0c0-1.79922-9.5068-29.84649-29.57792-29.84649h0c-4.73671,0-7.798,2.95973-7.798,7.53781m1.82149,0c0-3.52608,2.29042-5.71632,5.97653-5.71632h0c18.155,0,27.62007,26.20769,27.75644,28.04309h0c0,.19621,0,.41745-.97683.41745h0c-6.42042,0-32.75612-10.21645-32.75612-22.74422"/>
            </g>
          </g>
        </g>
      </g>
      <g id="aac4cc1d-7e18-4a51-8d8b-f507f4b79322" data-name="g680">
        <g id="b6cb99ab-ef2d-442d-ad3c-44efa27bfc18" data-name="g682">
          <g id="f98651ab-e776-43c2-b5b5-9d1f6d54c819" data-name="g688">
            <g id="a43dbd64-162a-4764-8693-bc037d075832" data-name="g690">
              <path id="fe57e542-ae4c-4387-9acd-a534f3ce640b" data-name="path698" class="b5e261da-9e01-44d6-919a-7004b9b9f7f9" d="M232.39839,252.19929q1.603.07724,3.21022.13916h0a7.906,7.906,0,0,1,3.53443-.9518h0c1.10068,0,1.10068.3785,1.10068.654h0a4.29169,4.29169,0,0,1-.07932.43415h0c.61642.01391,1.23009.02643,1.84652.03756h0a2.87535,2.87535,0,0,0,.05427-.47173h0c0-.58027-.21012-2.4755-2.92217-2.4755h0a11.84168,11.84168,0,0,0-6.74465,2.63413"/>
            </g>
          </g>
        </g>
      </g>
      <g id="a2d7e9ed-0363-4c11-95d7-0552afcbf848" data-name="g700">
        <g id="b66d1e4c-51ec-4158-a4ea-1f0b31b7c0c0" data-name="g702">
          <g id="a09111c5-8b1e-491b-b7e9-0a9cc869df9a" data-name="g708">
            <g id="aeed4de2-0936-4596-9809-8324ad488548" data-name="g710">
              <path id="bf47cc57-8b45-4b1a-9469-5afd26c91a82" data-name="path718" class="ff5ef0eb-6800-44e0-b069-775351735bb0" d="M276.12239,226.288a2.399,2.399,0,0,0-.597,2.32243h0a6.256,6.256,0,0,0,1.809,2.591h0c.52738.55244,1.4096,1.47918,1.42213,1.8688h0c.02365.74168-1.5418,2.88738-5.84712,5.48812h0c-2.64944,1.59884-8.08607,7.60321-11.86679,13.68272h0q1.11459-.05427,2.23477-.11132h0c3.56922-5.41438,8.32956-10.659,10.57548-12.0143h0c4.26914-2.57846,6.785-5.23485,6.72517-7.10365h0c-.03478-1.08537-.95318-2.0469-1.92585-3.06688h0a6.37875,6.37875,0,0,1-1.34837-1.71573h0c-.064-.302-.03618-.51485.08349-.629h0c.25327-.2463,1.0826-.398,2.58125-.01949h0l1.82843.43415c3.43981.7848,4.5544,1.1786,4.60868,2.86512h0c.06679,2.13179-2.50751,11.49248-7.28177,19.99739h0c.73471-.07793,1.46943-.15585,2.20415-.24074h0c4.46395-8.30731,6.9826-17.17122,6.89771-19.8151h0c-.10436-3.23109-2.84564-3.85727-6.02246-4.58364h0l-1.78669-.42162a8.26557,8.26557,0,0,0-2.01909-.28248h0a3.13653,3.13653,0,0,0-2.27511.75421"/>
            </g>
          </g>
        </g>
      </g>
      <g id="bcc0ad24-c0f8-4226-9be5-d694a312a499" data-name="g720">
        <g id="a31f2aa8-bdec-4506-bea0-b6615e88e292" data-name="g722">
          <g id="efa1ba97-f254-42c6-8dbc-34354d3466fb" data-name="g728">
            <g id="bc97caf1-5650-468c-8405-bfe0cd1be8f3" data-name="g730">
              <path id="b13b6d6c-e56d-4381-b20e-7a2486cb6c67" data-name="path738" class="a6fa4d37-541f-4981-a83b-5d6a94f084f9" d="M176.68653,224.96328l-3.33823,3.341c-2.95418,2.98617-7.28734,7.36666-12.24668,12.11865h0q1.01232.27554,2.03438.54269h0c3.9185-3.771,7.79942-7.63243,11.50779-11.38115h0l3.309-3.31318A25.41913,25.41913,0,0,1,192.86,219.50023h0c1.78532,0,3.04741.77508,3.04741,1.36923h0l1.82009-.00418c0-1.98291-2.44766-3.18517-4.8675-3.18517h0a27.01868,27.01868,0,0,0-16.17351,7.28315"/>
            </g>
          </g>
        </g>
      </g>
      <g id="e1020f3d-ece4-460a-b09d-b7aa8c48b261" data-name="g740">
        <g id="a47c5ea9-9140-4180-bc37-af6e540ab7b2" data-name="g742">
          <g id="aadb48e8-3bee-4574-a2a4-fc5506c89895" data-name="g748">
            <g id="f3a5e01a-cd29-4ad9-a828-1afb2eb7e3ce" data-name="g750">
              <path id="a63bd866-5cbe-4655-8e49-89b3032c419c" data-name="path762" class="e027df26-9fb5-477e-acc5-b521767de133" d="M195.90745,220.86946c0,.64845-1.43743,2.2793-3.42728,4.53772h0l-.70132.79595c-1.82565,2.07752-8.63848,11.33523-13.79124,18.41384h0q.96851.22126,1.94116.43137h0c5.07762-6.96451,11.51613-15.706,13.21934-17.64295h0l.69994-.79317c2.66335-3.02514,3.87952-4.40692,3.87952-5.74694h0l-1.8201.00418Z"/>
            </g>
          </g>
        </g>
      </g>
      <g id="b1733a35-7476-4bc3-9aa2-ee22d2103d9f" data-name="g764">
        <g id="f0143779-5186-4790-b61f-274e7693adec" data-name="g766">
          <g id="b76c4916-41bd-4c62-a969-15ee86ec0f76" data-name="g772">
            <g id="b85a57f3-7dc3-4690-afc2-6fcfc32b10ab" data-name="g774">
              <path id="a25c43a9-130a-40cc-aaa3-665ff1dff966" data-name="path788" class="e4f1bbbc-24a3-42a6-89ae-5462826c34af" d="M145.22729,217.62168a116.21322,116.21322,0,0,0-12.83668,13.968h0c.61088.20872,1.22314.41884,1.83819.62618h0a114.10271,114.10271,0,0,1,12.23-13.25412h0a111.291,111.291,0,0,1,21.33045-15.45689h0l-.821-1.61553a112.82761,112.82761,0,0,0-21.74094,15.7324"/>
            </g>
          </g>
        </g>
      </g>
      <g id="f3d7fcf4-651a-4017-99f9-3b72f4863d2f" data-name="g790">
        <g id="a8da446e-8b49-4bfd-b0ad-d4dc3fb71b78" data-name="g792">
          <g id="bcee52f7-f38f-47c4-a516-c0493350ec23" data-name="g798">
            <g id="b43046e9-efc2-40ed-a959-acb1cfaa7541" data-name="g800">
              <path id="ae55c927-7cc0-4c31-bed4-6b6915493a4f" data-name="path808" class="bc20199d-3c5f-43d6-b2de-ec042607a57c" d="M185.56437,246.24085q1.08539.22127,2.17493.43415h0c24.55319-23.60973,34.75573-28.36313,43.724-28.36313h0c3.91014,0,6.65838,1.31637,8.22521,3.92407h0a13.21168,13.21168,0,0,1,1.55292,6.84484h0a24.44491,24.44491,0,0,1-1.16052,7.17323h0a7.79275,7.79275,0,0,0-.423,1.93282h0a2.937,2.937,0,0,0,1.00189,2.24033h0l1.17164-1.39291a1.1227,1.1227,0,0,1-.35206-.84742h0a9.0851,9.0851,0,0,1,.34928-1.42629h0a26.037,26.037,0,0,0,1.23426-7.67974h0a16.03516,16.03516,0,0,0-1.31777-6.8156h0c-1.76722-3.76682-5.271-5.77338-10.28187-5.77338h0c-9.54019,0-20.23254,4.944-45.89894,29.74908"/>
            </g>
          </g>
        </g>
      </g>
      <g id="a2d7b366-ca47-456c-8e5c-7c407e4604e8" data-name="g810">
        <g id="b49c5950-3b7c-44ed-9eea-b6be92d609df" data-name="g812">
          <g id="f265f851-ac2e-471a-ae9b-537888af9124" data-name="g818">
            <g id="bb8a3cff-58f0-4e2c-b3f3-fb022a03bf08" data-name="g820">
              <path id="e08fc622-5cd2-4ed9-a59b-f7ff6f9a487b" data-name="path832" class="f5aac1b5-3fde-4e8a-8448-0180c3e29808" d="M262.93367,222.247c-1.58632,2.655-11.49386,15.34419-20.54285,16.92632h0a.65349.65349,0,0,1-.55938-.13916h0l-1.17164,1.3943a2.46354,2.46354,0,0,0,2.0469.53712h0c10.59357-1.85071,22.23215-17.28532,22.23215-18.93566h0l-2.00516.21708Z"/>
            </g>
          </g>
        </g>
      </g>
      <g id="a5558add-4165-4c43-9a9d-688ea792635c" data-name="g834">
        <g id="b48091f6-5774-44b7-b9b3-040f727fdfa3" data-name="g836">
          <g id="b8ac521c-1e7c-4d69-b982-5ad39a6653d0" data-name="g842">
            <g id="fc19753f-f4cf-4f3e-bfb8-d000eeb25fee" data-name="g844">
              <path id="bec5e4bb-7698-48e2-9cb5-a1ad9da73a0b" data-name="path856" class="f93c7d11-a3d0-4923-8d5c-b610afbe34ae" d="M336.00322,225.92341a33.07439,33.07439,0,0,1-4.03955,3.483h0c-.51486-.35206-1.45135-2.32659-2.02465-3.54557h0a23.6636,23.6636,0,0,0-2.03161-3.75847h0c-2.54507-3.39529-5.91392-4.32341-15.67536-4.32341h0c-2.41705,0-4.30254.10436-6.12541.20734h0l.1002,1.81871c1.79922-.10158,3.65967-.20594,6.02523-.20594h0c9.15336,0,12.07692.74028,14.21845,3.59566h0a22.51012,22.51012,0,0,1,1.83958,3.44259h0c1.22036,2.59378,2.18606,4.64208,3.64019,4.64208h0c.94483,0,2.07336-.9838,5.31974-4.027h0c3.41615-3.206,8.57864-8.04848,11.38533-8.04848h0c1.89106,0,2.08171.49676,2.08171,1.72129h0a8.54864,8.54864,0,0,1-1.26628,3.24779h0a26.40315,26.40315,0,0,0-3.43841,11.63442h0c.622-.22265,1.2454-.45086,1.8674-.67767h0a24.51874,24.51874,0,0,1,3.18654-10.11349h0a9.42906,9.42906,0,0,0,1.47222-4.091h0a3.77315,3.77315,0,0,0-.65958-2.36278h0a3.8647,3.8647,0,0,0-3.2436-1.18h0c-3.52748,0-8.57586,4.73531-12.63212,8.54109"/>
            </g>
          </g>
        </g>
      </g>
      <g id="b4ba5abb-9c56-433f-95f3-eea078d487e2" data-name="g858">
        <g id="b3df1b92-7dbe-4ed3-9510-f040ba5ce793" data-name="g860">
          <g id="ac4f5670-cab0-4b50-a921-fca13bc8df63" data-name="g866">
            <g id="ac25fb19-e078-495c-8929-cbf603580033" data-name="g868">
              <path id="f19ed314-a694-4ef8-9257-541d842ae220" data-name="path876" class="b371a423-343a-4f9c-ab9b-dcb5fceae76c" d="M293.18229,217.16664c1.16608,2.7204,3.04741,2.82755,7.56841,2.82755h0l5.45612-.18925-.1002-1.82009-5.35592.18924c-4.80489,0-5.25712-.23933-5.893-1.72408h0Z"/>
            </g>
          </g>
        </g>
      </g>
      <g id="be2c5e85-0d2b-4be7-931b-26a6bbd062ed" data-name="g878">
        <g id="e8c02196-5b47-43e5-be3b-3df01962e9e2" data-name="g880">
          <g id="ab95847c-b0e0-4023-9064-e56c83b09434" data-name="g886">
            <g id="ab167c60-e96d-4c47-beb6-3e489b453140" data-name="g888">
              <path id="e8c7a7e8-da8f-46a7-bbd6-9bfe95a10d1c" data-name="path898" class="a43dc6ff-3eea-47b3-95a9-c10a152bb3d1" d="M229.12415,229.43836c-3.21022.08071-13.31673,7.91351-20.93944,16.13734h0c-.334.3604-.661.718-.98239,1.077h0c-.81683.91143-1.65728,1.88967-2.48663,2.91243h0c.70688.103,1.41516.19621,2.122.29361h0c.54687-.654,1.116-1.315,1.7199-1.99125h0q.9497-1.05825,1.93141-2.08727h0c7.74654-8.11528,16.54923-14.46752,18.681-14.52039h0c1.07841-.02784,1.8034.27135,1.84374.76115h0a2.00114,2.00114,0,0,1,.00975.20315h0c0,2.15406-2.86513,4.03955-5.40323,5.708h0l-1.9161,1.29968-.09183.0668c-3.17821,2.29182-4.70747,3.39806-4.70747,5.48811h0a5.38238,5.38238,0,0,0,.07792.87526h0a3.14256,3.14256,0,0,0,1.09094,1.73242h0a2.99835,2.99835,0,0,1,.94762,1.38176h1.85487a4.53044,4.53044,0,0,0-1.52649-2.68282h0c-.33257-.32282-.53712-.53434-.56912-.73194h0c-.24908-1.48334.25883-1.95925,3.89623-4.58642h0l.09323-.0668,1.85071-1.25375c3.04045-2.001,6.48582-4.26636,6.20893-7.5865h0c-.09742-1.13408-1.0812-2.43236-3.52887-2.43236h0c-.05705,0-.11688.0014-.17672.00278"/>
            </g>
          </g>
        </g>
      </g>
      <g id="f030565b-52f8-4019-b571-77fc36611da1" data-name="g900">
        <g id="b507f19b-7532-4fbc-a032-dbdba863737b" data-name="g902">
          <g id="fd0b87ae-33b6-46bd-b930-20721dea6112" data-name="g908">
            <g id="fde2628c-fa33-43a2-8d02-bff894dbf1a9" data-name="g910">
              <path id="aa9ba709-d3d3-4bb5-b18f-4eeb4840d74f" data-name="path918" class="ba28ce17-2c28-47b4-979f-cc922ef3c962" d="M221.0214,248.77617a2.51991,2.51991,0,0,1,.0821.42858h0a.91608.91608,0,0,1,.00419.10714h0a4.82361,4.82361,0,0,1-.75559,2.06083h0c.65261.06124,1.30246.11829,1.95507.17254h0a4.99573,4.99573,0,0,0,.60808-2.52h0c-.007-.089-.02643-.16559-.039-.24908h-1.85487Z"/>
            </g>
          </g>
        </g>
      </g>
      <g id="b6b61076-d640-4ca7-99ac-d9c3d3012b50" data-name="g920">
        <g id="b4907cce-a3bb-41cc-a7d0-6a1f10cbc580" data-name="g922">
          <g id="e722168b-320d-495b-ac95-4c69fab6ad83" data-name="g928">
            <g id="f510b31a-ac35-4e64-b38f-bafb91b57eda" data-name="g930">
              <path id="ada896a5-1c89-43b5-ad7b-6a8d655c7358" data-name="path940" class="a9c7ed8e-3249-4a5d-b230-7906e8d823c9" d="M233.38219,185.10768a14.67584,14.67584,0,0,0-1.04782,5.66761h0c0,7.94691,3.92685,22.587,30.218,31.35071h0l.33119.103s.04037.01391.05009.01669h0l2.00516-.21568c0-1.08956-1.00049-1.38733-1.53623-1.54736h0l-.27414-.08348c-25.20858-8.40333-28.97261-22.16676-28.97261-29.62385h0a12.81,12.81,0,0,1,.949-5.10127h0c2.50331-5.8193,9.30641-6.55958,12.59176-6.55958h0c27.737,0,41.71884,28.86407,45.34512,37.70991h0l.14054.34231,1.67537-.71662-.1308-.31588c-3.73481-9.11161-18.16058-38.83981-47.03023-38.83981h0c-7.215,0-12.24807,2.8345-14.31446,7.81333"/>
            </g>
          </g>
        </g>
      </g>
      <g id="b75cba6b-87a0-4c77-b59e-b79b1fb0ef0e" data-name="g942">
        <g id="be99a903-b2ec-4bf7-9fac-0cf90e5e42ed" data-name="g944">
          <g id="a84f7808-93df-432a-92de-1cb44cc36124" data-name="g950">
            <g id="bbeb2990-4867-42b2-96f2-4f02afb2d18c" data-name="g952">
              <path id="ab3122f5-ef08-456e-aa81-d62f2708d3f8" data-name="path960" class="a1252fd2-aa8b-496e-8912-de80697ad220" d="M222.06781,174.57813a14.1933,14.1933,0,0,1,1.63084.30057h0c-3.579,6.3578-9.86441,17.51909-10.17471,18.034h0s-.04314.064-.07514.1127h0c-.071-.00556-.23517-.01669-.23517-.01669h0l-.4105-.06123a90.81193,90.81193,0,0,0-13.11357-1.20089h0c-8.32541,0-20.19638,3.22-32.72134,10.14272h0l.821,1.61553c12.23972-6.7822,23.80733-9.93815,31.90036-9.93815h0a89.345,89.345,0,0,1,12.84084,1.18139h0l.4258.064a2.29613,2.29613,0,0,0,1.21479-.09183h0a1.93624,1.93624,0,0,0,.91422-.86829h0c.41327-.68879,10.10235-17.90872,10.51564-18.64065h0a1.30662,1.30662,0,0,0,.12245-1.12156h0a1.25625,1.25625,0,0,0-.80986-.75977h0a14.69838,14.69838,0,0,0-2.84563-.583h0Z"/>
            </g>
          </g>
        </g>
      </g>
      <g id="e1cd5d12-5570-4021-a3a1-3b54d17ad23c" data-name="g962">
        <g class="aeb33ed3-0638-42ee-8922-5692b1cddd57">
          <g id="b8930758-0660-4d50-ae77-9a1676dd7a7b" data-name="g964">
            <g id="aac5be66-1ecb-4263-9b03-97db8248df10" data-name="g970">
              <path id="ec21fdc0-544b-4c34-809d-ae6612d89f8b" data-name="path972" class="bc3f64ec-9f3c-40ca-a901-d533b8294dd6" d="M138.33,205.79984c34.10032-24.78974,66.72148-31.40358,80.62126-31.40358a19.5127,19.5127,0,0,1,3.1309.18368v-1.83123a21.26068,21.26068,0,0,0-3.1309-.17394c-14.11964,0-47.21391,6.68759-81.69273,31.75146a196.73439,196.73439,0,0,0-23.966,20.29795q.91839.35482,1.84375.70967a197.46445,197.46445,0,0,1,23.19368-19.534"/>
            </g>
          </g>
        </g>
      </g>
    </g>
  </g>
</svg>
