<svg id="a0f9d115-1725-4d34-9c0d-ddd99acff136" data-name="Layer 1" xmlns="http://www.w3.org/2000/svg" width="512" height="512" viewBox="0 0 512 512">
  <defs>
    <style>
      .a15dcae7-b9a9-4b08-8ca9-a0647d87299c {
        fill: #fcfcfb;
      }

      .e5b255b8-af90-438f-aa36-3f028fb84973 {
        fill: #1e1d19;
      }

      .f00e4799-223b-448d-8e81-56aa595f9833 {
        fill: #1f1d1a;
      }

      .a5f5cadc-9b00-4e68-865b-38b8ea973ac2 {
        fill: #201f1b;
      }

      .ba63b95a-0e69-4eb0-9b46-1af2f71cf5a9 {
        fill: #1f1e1a;
      }

      .efc6d4a2-26d2-4474-978e-9a7d901f3396 {
        fill: #383532;
      }

      .b1d8f5fc-707f-455e-aa16-e57020363017 {
        fill: #2f2c29;
      }

      .a6b4e376-83c0-4181-867b-60ecba14fdb1 {
        fill: #474340;
      }
    </style>
  </defs>
  <g id="e4eb5595-c0ab-4e6d-b870-657113ecb76f" data-name="Layer 1-2">
    <path class="a15dcae7-b9a9-4b08-8ca9-a0647d87299c" d="M71.1984,337.63025c.01578.67831.39437,1.55381-.85183,1.75888-1.45917.2524-1.90086,1.3724-1.90086,2.729.00789,2.58706-.03155,5.17411.05521,7.75327a2.08088,2.08088,0,0,1-.92282,1.94029,17.11591,17.11591,0,0,1-8.41582,3.50988,8.725,8.725,0,0,1-8.00568-3.72283,20.56472,20.56472,0,0,1-3.95945-10.94767c-.53634-5.58426-.35493-11.12907,1.74311-16.44516a15.811,15.811,0,0,1,2.81578-4.764c3.40735-3.8648,8.15554-4.51945,12.43049-1.65635.70987.48113,1.13578.58367,1.50649-.26028.29972-.67832.91493-.53634,1.41184-.44959.60733.10254.32338.67043.32338,1.00958.03155,1.94818.01578,3.90425.01578,5.85243h.04732c0,1.81409.03944,3.62819-.02366,5.44227-.01578.4417.50479,1.22255-.58367,1.30142-1.04113.07887-.88338-.71776-.99381-1.24621a37.21561,37.21561,0,0,0-1.94029-6.6175,10.08824,10.08824,0,0,0-1.41972-2.46085c-1.93241-2.39776-4.71665-2.35044-6.52285.1262a12.15968,12.15968,0,0,0-2.00339,5.13467,50.39749,50.39749,0,0,0,.631,22.21082,9.43246,9.43246,0,0,0,1.52227,3.15495,4.09167,4.09167,0,0,0,6.78313-.347,1.89119,1.89119,0,0,0,.18141-1.04113c.00789-2.26368.01578-4.53524,0-6.80681-.01577-1.97184-.489-2.8-2.34255-3.29691-1.23043-.33915-.93071-1.13578-.92282-1.88508.02366-.97014.82029-.51267,1.23832-.52057,2.94987-.04732,5.89975-.03944,8.84962-.00788.45747,0,1.23043-.36282,1.262.55211Z"/>
    <path class="a15dcae7-b9a9-4b08-8ca9-a0647d87299c" d="M95.77543,331.72262c-.45747-4.33017-1.5617-8.46314-4.34594-11.93359-4.0541-5.0558-10.30878-5.09524-14.46543-.13408a15.76964,15.76964,0,0,0-2.67381,4.693,33.6436,33.6436,0,0,0-.98592,19.90771A15.99074,15.99074,0,0,0,78.51,353.27091a8.48786,8.48786,0,0,0,7.09074,1.94818c3.62819-.61521,5.78144-3.03664,7.39835-6.03383,2.311-4.29861,2.87889-8.99949,2.95776-14.12628-.04732-.89127-.04732-2.1217-.18141-3.33635Zm-7.3037,15.964a9.66791,9.66791,0,0,1-1.79832,3.76228,3.15736,3.15736,0,0,1-5.14256-.04732,11.254,11.254,0,0,1-2.17691-5.48172,57.38942,57.38942,0,0,1,.347-22.00575,9.18428,9.18428,0,0,1,1.77466-3.92,3.20827,3.20827,0,0,1,5.40284.16564,15.21645,15.21645,0,0,1,2.35833,6.99609,83.643,83.643,0,0,1,.56789,8.52624c-.18141,4.04623-.20507,8.08455-1.34086,12.00457Z"/>
    <path class="a15dcae7-b9a9-4b08-8ca9-a0647d87299c" d="M121.55134,331.75416a21.62071,21.62071,0,0,0-4.2434-11.83105c-1.85353-2.33466-4.1803-3.9279-7.27215-3.9279-4.204,0-6.862,2.47663-8.78652,5.89186a27.83263,27.83263,0,0,0-3.17072,12.78542,32.45364,32.45364,0,0,0,1.0569,9.81976c.97015,3.39946,2.39776,6.55442,5.23721,8.84962a8.64076,8.64076,0,0,0,11.72852-.55213,15.01078,15.01078,0,0,0,3.38368-5.04,33.19126,33.19126,0,0,0,2.07437-16.00346Zm-7.21694,15.66431a10.04806,10.04806,0,0,1-1.77465,3.92,3.20758,3.20758,0,0,1-5.40285-.13409,13.65147,13.65147,0,0,1-2.22424-6.33356,57.83866,57.83866,0,0,1,.43381-20.54659,10.6392,10.6392,0,0,1,1.63269-3.991c1.64057-2.32677,4.21974-2.311,5.8051.03944,1.56958,2.32677,1.97184,5.02425,2.33466,7.71384a60.29707,60.29707,0,0,1,.35493,7.73751,44.78971,44.78971,0,0,1-1.15945,11.59442Z"/>
    <path class="a15dcae7-b9a9-4b08-8ca9-a0647d87299c" d="M123.27868,317.39128c0-.6231.631-.33915.978-.33915,1.94818-.03155,3.90424.04732,5.85243-.03944a1.73106,1.73106,0,0,1,1.9324,1.191c3.4941,7.48511,7.0513,14.95445,10.58484,22.41589q.1893.41409.40226.85183c.45747-.17352.26028-.54423.26028-.80451q0-7.82032-.0631-15.64853a14.07814,14.07814,0,0,0-.32338-2.6896,3.51246,3.51246,0,0,0-2.5634-2.88677c-1.15155-.32339-.9386-1.20677-.84394-1.95607.10253-.85972.87549-.418,1.31718-.43381,2.40565-.04732,4.8113-.02366,7.217-.02366.4338,0,1.01746-.1183.87549.6231-.10254.54423.44959,1.36451-.56,1.55381-2.23212.41015-2.83945,2.04283-2.94987,3.97523-.52057,9.20455-.11831,18.40911-.23662,27.61367-.01577,1.00169-.02366,1.99551.00789,2.98932.01577.56789-.17353.74931-.76508.80451a2.34673,2.34673,0,0,1-2.78424-1.59324c-3.91213-8.542-7.95835-17.02094-11.96513-25.50774-.18141-.37859-.20507-.8755-.78874-1.13578.1262,7.13017-.18929,14.18937.19719,21.24067.11831,2.01126.78873,3.7386,2.97353,4.37747,1.04113.30762.68621,1.12789.702,1.78256.03155.85182-.66254.56-1.08846.56789q-3.67946.03549-7.351,0c-.38648,0-1.07268.2445-.93071-.53634.09465-.55212-.56789-1.38818.54423-1.64845,2.20057-.51268,2.89466-2.16113,2.95776-4.15665.26029-7.6192.11042-15.23838.09465-22.85758,0-2.47663-.7493-4.65354-3.2496-5.79722-.93859-.42591-.4338-1.28564-.4338-1.92452Z"/>
    <path class="a15dcae7-b9a9-4b08-8ca9-a0647d87299c" d="M150.65572,352.143a12.42913,12.42913,0,0,1-.79662-8.85751,4.37087,4.37087,0,0,1,.65465-1.333,2.22221,2.22221,0,0,1,3.98312.03944,6.629,6.629,0,0,1,.39437,6.13637,21.25141,21.25141,0,0,1-1.333,2.50818,1.29611,1.29611,0,0,0,1.21465,2.098,2.68436,2.68436,0,0,0,2.38987-1.538,9.4581,9.4581,0,0,0,1.3093-4.92172c.0631-3.991.02366-7.982.02366-11.973h.05522c0-3.90425.00788-7.80061,0-11.70485,0-2.00339-.33127-2.60284-2.24-3.20227-1.20676-.37859-.844-1.20677-.82817-1.92452.03154-.844.773-.42591,1.16732-.42591,3.13129-.03944,6.26257-.03155,9.39386-.00789.41014,0,1.13578-.31549,1.07268.56-.04732.6231.40225,1.38029-.76508,1.6879-2.10592.56-2.19268.80451-2.19268,3.09973-.00789,6.71214.00788,13.4243-.00789,20.13644a17.896,17.896,0,0,1-1.56959,7.91892c-1.15944,2.37411-2.8079,4.21975-5.56059,4.73242a5.63621,5.63621,0,0,1-6.3651-3.03664Z"/>
    <path class="a15dcae7-b9a9-4b08-8ca9-a0647d87299c" d="M176.15557,349.91878a7.22132,7.22132,0,0,1-1.23832,4.08565c-1.08056,1.4355-2.50029,1.49072-3.62819.1262a7.46,7.46,0,0,1-.00788-8.37638,2.099,2.099,0,0,1,3.62819.09464,7.14412,7.14412,0,0,1,1.2462,4.07778Z"/>
    <path class="a15dcae7-b9a9-4b08-8ca9-a0647d87299c" d="M185.0683,345.63593c1.8141,2.04283,1.8062,6.53075-.00788,8.59724a2.04166,2.04166,0,0,1-3.36791-.02366,6.68416,6.68416,0,0,1-1.41183-4.26707,6.77162,6.77162,0,0,1,1.41183-4.29861,2.03391,2.03391,0,0,1,3.36791,0Z"/>
    <path class="a15dcae7-b9a9-4b08-8ca9-a0647d87299c" d="M209.92139,189.80524c-1.6879-1.60113-1.27775-3.849-1.86931-5.8051C209.94505,185.5224,208.9197,187.96749,209.92139,189.80524Z"/>
    <path class="a15dcae7-b9a9-4b08-8ca9-a0647d87299c" d="M209.94505,190.12863c.68619,1.11211.63887,2.38987,1.66423,3.10762C210.087,193.67794,209.49547,192.64469,209.94505,190.12863Z"/>
    <path class="a15dcae7-b9a9-4b08-8ca9-a0647d87299c" d="M214.94565,352.32442c.01577-.74142-.65466-.50481-1.01747-.56a1.63357,1.63357,0,0,1-1.49859-1.65635c-.09465-.99381-.11043-1.99551-.11043-2.98931.02366-4.03833.13409-8.07667.07888-12.10711-.08676-5.17411-2.42931-7.64286-7.004-7.57976-4.34594.0631-7.57976,3.65185-6.85413,7.6113.31549,1.71944,1.30931,2.60284,2.82368,2.49241,1.35663-.09464,2.24-1.16732,2.34255-2.83945a10.86159,10.86159,0,0,0-.30761-3.23383,1.32561,1.32561,0,0,1,.9386-1.68789,1.54966,1.54966,0,0,1,2.04283.53633,4.05842,4.05842,0,0,1,.631,1.49071,28.08847,28.08847,0,0,1,.27606,5.01637,1.32679,1.32679,0,0,1-.79662,1.404c-1.32507.6862-2.61861,1.44339-3.96734,2.06649-5.42651,2.48451-5.46594,8.07666-4.24341,11.68119,1.19888,3.56508,4.7482,4.3065,7.422,1.65636a24.86909,24.86909,0,0,0,1.64057-1.99551c1.1831,3.52566,3.95946,4.51158,6.98032,2.61072.83606-.52846.61522-1.22253.6231-1.90086Zm-7.69019-3.95157a2.785,2.785,0,0,1-1.39606,2.34254,1.4693,1.4693,0,0,1-2.27157-.65465c-1.8693-3.19438.11042-8.43947,3.66762-9.70146v8.01357Z"/>
    <path class="a15dcae7-b9a9-4b08-8ca9-a0647d87299c" d="M211.562,184.994c-.284-.33127-.70986-.57578-.20507-.9386a.71511.71511,0,0,1,1.15156.213c.51268,1.05691,1.63269,1.19888,2.51607,1.70367.22085.1262.44959.18141.5679-.071a.50667.50667,0,0,0-.18931-.44958c-1.191-.49691-.15774-1.04113-.02366-1.52226-.3707-.5048-1.00958.35493-1.15156-.48113-.0631-.35494-.26028-.69409.11831-.98592.489-.3786.82817.00788,1.20676.2445,1.18311.73353,2.13749,1.97185,3.8096,1.65635.32339-.0631.82818.16563.702.61521-.16564.61522-.1893,1.38029-.96226,1.64846-.20507.071-.45747.03944-.66254.1262-.29972.11831-.59943.284-.56789.67043.03155.39436.41015.24451.61521.36281a4.08106,4.08106,0,0,0,1.98762.24451c.29973.01578.72564-.10253.7493.34705a.63387.63387,0,0,1-.67043.702,11.13079,11.13079,0,0,1-2.27945-.13408A12.42807,12.42807,0,0,1,211.562,184.994Z"/>
    <path class="a15dcae7-b9a9-4b08-8ca9-a0647d87299c" d="M222.22568,168.044c.347-.978.40225-1.75888,1.262-2.39776A2.33938,2.33938,0,0,1,222.22568,168.044Z"/>
    <path class="a15dcae7-b9a9-4b08-8ca9-a0647d87299c" d="M223.606,196.32021a25.30633,25.30633,0,0,1-7.06709-.92282c2.84734-1.964,6.25468-2.50819,9.00737-4.95327a2.75214,2.75214,0,0,0,.14987,2.38987c.55211,1.13578-.89916,3.502-2.09805,3.48622Z"/>
    <path class="a15dcae7-b9a9-4b08-8ca9-a0647d87299c" d="M227.17106,171.7905a3.94659,3.94659,0,0,1,.32339-2.39776C228.78009,170.355,228.03868,171.08064,227.17106,171.7905Z"/>
    <path class="a15dcae7-b9a9-4b08-8ca9-a0647d87299c" d="M236.93561,160.09354a.88944.88944,0,0,1-.35493-.702c0-1.53015-.88338-2.78424-1.2462-4.18819a9.5874,9.5874,0,0,0-3.41523-4.89017c-.53634-.44958-1.01747-.89127-1.51437-1.38029-.44959-.44169-1.333-.26028-1.97185-.67042-1.54593-.96226-1.90874-.74141-2.32677.978a1.93617,1.93617,0,0,0,.04733,1.44339c-1.262.31549-1.262,2.10593-2.99721,2.09015.5679.48113.97015.71775.89128,1.38818-.95438-.489-1.751-1.35663-1.35663-2.00339.98592-1.609-.38648-2.53185-.70986-3.73861-.16564-.60733-.57577-.79663-1.20676-.76508a39.15329,39.15329,0,0,0-4.062.213,3.61059,3.61059,0,0,0-2.06649.69409,11.738,11.738,0,0,1-2.04282,1.74311,2.76782,2.76782,0,0,0-1.47493,2.30311c-.10254,1.01747-.78086,1.82987-.80452,2.86311a1.03639,1.03639,0,0,1-.98592,1.10423c.1262-1.77466.18141-3.47833.39437-5.17411.13408-1.08057-.30761-1.27775-1.19888-1.10423-.347.0631-.78086.37859-1.00959.25239-.9938-.4969-.69409.32339-.72563,1.191-.8755-1.80621-1.333-.72564-1.99551-.29184-1.04113.6862-.55211,2.32678-1.94029,2.77636,1.94818.38648,3.95946-.3786,5.9234.46535-1.23832,1.22254-1.15156,2.81579-1.8062,4.10932a4.17228,4.17228,0,0,0-.71775,2.82368c.8755,3.09973-.89128,6.12848-.11042,9.20455.04732.18141-.16564.418-.16564.63888-.03944,1.45916-.42592,2.94987.41014,4.33016.1893.3155.37071.49691.73352.44958.32339-.04732.44169-.26817.52057-.55211a10.83748,10.83748,0,0,0,.74142-2.87889c-.04733-1.92452.92282-3.41523,1.75888-4.96115.41014-.76508.63887-1.74311,1.609-2.05072.37859.42592-.57577.9386.11043,1.20677.55211.213.60733-.52846.94648-.773.42591-.3155.33126-1.01747.92282-1.23043-.01578,2.49241-1.07268,5.72623-2.07438,6.29412-.04733-.70987.75719-1.27776.33126-2.02706-1.08056.844-1.60113,2.75269-.79662,3.084a1.80813,1.80813,0,0,1,.99381,1.92452c-.04732.76508-.18141,1.44339.54423,1.77466a2.56372,2.56372,0,0,0,2.20846-.30761c.23663-.11042.33915-.85972.773-.23662.31549.45747.94648.8124.59944,1.51437-.15775.32339-.37071.60733-.56.91494a1.299,1.299,0,0,0,2.00338-.59155,29.96737,29.96737,0,0,0,2.89467-6.19159c.57577-1.964.82028-4.07777,2.16114-5.76566a.62821.62821,0,0,0,0-.907c-.67831,2.01917-3.13917,2.3741-3.73862,4.50369-.85972-1.77466-1.48283.01577-2.26367.16563a.91111.91111,0,0,1,.50479-1.07268c.98592-.33127,1.34085-1.30141,2.09805-1.85353.20506-.142.55211-.26028.38648-.59944-.13408-.26817-.50479.26028-.67831-.11831a4.06249,4.06249,0,0,0,.62309-1.01747c.12621-.48113.54423-.71775.71776-1.12.13408-.3076.45747-.85183-.29973-.86761a3.43453,3.43453,0,0,1-2.53185-2.19268c-.38648-1.36452.85972-1.70368,1.41184-2.46875.13408-.18141.63887-.37859.39437-.52057-1.04114-.59944-.03944-.78085.16564-1.12789.15774-.26028.42591-.60733.20506-.82817-.59155-.59156-.17352-.83606.27607-1.11212.37859-.22874.773-.70987,1.191-.418.53634.36282-.20506.78085-.142,1.21465.02366.1262.04732.26029.0631.37071.489.26817.94648-.80451,1.26986-.11042.284.6231-.62309.72563-.92282,1.12789-.13408.1893-.489.19718-.71775.33127-.11042.0631-.35493.28394-.11042.39437.92282.39436.33126.7493-.03155,1.01747-.36282.276-.44169.56-.20506.91493.26028.39437.54423.14986.81239-.01577.2524-.15775.41015-.30761.80452-.07888.57577.33127.20507,1.70367,1.41183,1.23832a3.84482,3.84482,0,0,1-.83606,2.2479c-.01578.02366.03944.10253.02366.0631,1.41184-.15775,1.61692-1.53015,2.47664-2.3741-.27607,1.01747-.907,2.00339.3707,2.82368.29973.19718-.2524.67831-.489,1.00169-.31549.43381-.9386.773-.47325,1.51438.52846-.40226,1.04114-.78874,1.56959-1.191.11043.39437.19719.69409.284,1.00959.51267-.2524.35493-.88339.83606-.95438.52845.37071.10254,1.31719,1.11212,1.55381-.75719-1.38817.8755-2.1217.96226-3.02874a8.80976,8.80976,0,0,1,.47325,3.50987c-.6231-.55211.00788-1.35662-.78086-1.893.27606,3.50987-.631,6.79891-.51267,10.39555a4.409,4.409,0,0,0,.82817-1.65635,12.378,12.378,0,0,0,.45747-2.88678c.49691-2.76846,1.29353-5.5527.33915-8.39215a.76831.76831,0,0,1,.31549-.844c.53634-.33916.37071-.45747.67043-.80451.631-.74141-.13408-1.4986.20507-2.32678.46535.74142.56,1.72734,1.31719,1.90875,1.29353.31549,1.22254,1.049.773,1.90085a9.77679,9.77679,0,0,0-.97014,3.44678c-.31549,2.5634-.52057,5.17411-1.78254,7.5561-.39437.7493-1.07269,1.20677-1.44339,2.01128a5.09078,5.09078,0,0,1-2.00339,2.5555c-.07888-1.30141-.07888-1.3093-1.0569-.95437-.35493.1262-.52057-.12619-.65466-.32338-.489-.69409-1.3093-.978-1.90874-1.5617-.50479-.48113-1.74311-.20507-2.73691-.27605a6.26885,6.26885,0,0,0,.31549,2.9972c.33915.61521.631,1.79043,1.78254.80451a.98743.98743,0,0,1,1.01746-.09465,3.47691,3.47691,0,0,1,2.95776,3.45467c.00789.0631.10254.11831.19719.23662,1.70367-1.94818,2.35832-4.34594,3.1786-6.68849.41015,3.55721-1.2462,6.791-1.64057,10.2378a5.90649,5.90649,0,0,0,1.9403-2.24c1.01746-2.53973,2.19269-5.00848,3.06818-7.61131.80452-2.382,2.39776-4.45636,2.78424-7.0513.27606-1.822,1.61691-3.39946,1.42761-5.35553-.10254-1.04113.56-2.32677-.978-2.91832Zm-28.497-1.15156a1.42713,1.42713,0,0,1,.22872-1.6248A1.66726,1.66726,0,0,1,208.43856,158.942Zm23.85928-3.42312c-.02366.07888-.20507.11043-.33127.18141-.32338-.18929-1.01746-.03943-.54423-.78873a.86759.86759,0,0,0,.0631-.38648c.03154-.32339-.85184-.3155-.31549-.773.23662-.20507.51267.03944.631.30761.213.47324.66254.86761.49691,1.45916Z"/>
    <path class="a15dcae7-b9a9-4b08-8ca9-a0647d87299c" d="M241.1948,330.366a4.01919,4.01919,0,0,0-1.893,2.6896c-1.84564,6.7989-3.88058,13.5426-5.33975,20.43616-.142.67043-.27606,1.28565-1.15156,1.08057-.78085-.18142-1.822.59945-2.21634-.97016-1.70368-6.791-3.54144-13.5426-5.324-20.31a4.11455,4.11455,0,0,0-1.98762-2.92622c-.85972-.43381-.44958-1.20677-.42591-1.8062.01578-.6231.63888-.33127.978-.33127q3.73862-.04731,7.493,0c.3707,0,1.02536-.284.98592.49691-.03155.59943.38648,1.404-.67832,1.64057-.91493.19719-1.44339.7493-1.1831,1.75888q1.77465,6.87384,3.5572,13.73191c.07888,0,.15774.00788.2445.00788q1.36058-5.37129,2.72114-10.7347c.15775-.61522.22085-1.24621.40225-1.85354a2.07689,2.07689,0,0,0-1.38817-2.82368c-1.07268-.38648-.67831-1.17522-.65465-1.79832.03154-.82028.76507-.40225,1.16733-.418,1.35662-.05521,2.72113-.04732,4.08565,0,.347.00789.97014-.29972,1.00169.29973.03944.60733.42592,1.39606-.37859,1.83775Z"/>
    <path class="a15dcae7-b9a9-4b08-8ca9-a0647d87299c" d="M238.379,164.86539c-.03154-.35493-.20506-1.11212.6862-.98592.0631.00789.24451-.27606.24451-.418-.03944-1.47494.87549-1.22254,1.92452-1.34874,2.08226-.26028,4.06988.22874,6.09693.33916.57577.03155,1.21464.13408.9307,1.04113-.1262.41014.36282.55212.52057.85972a1.59477,1.59477,0,0,1-1.43551,2.524c-1.23832.04733-2.44509.02366-3.29691-1.36451,0,.78873.17352,1.49071-.46535,1.78254-.54423.2524-.8755-.32338-1.27775-.59944a5.02887,5.02887,0,0,0-2.8158-1.09634c-.54423,0-1.0569-.18141-1.11212-.73353Z"/>
    <path class="a15dcae7-b9a9-4b08-8ca9-a0647d87299c" d="M257.93178,331.88036c-1.51439-2.71325-3.70707-4.46425-6.94877-4.43269a7.32813,7.32813,0,0,0-6.8699,4.54312,21.19087,21.19087,0,0,0,.03154,18.61419,7.18418,7.18418,0,0,0,6.70426,4.54313c3.33637.03155,5.51326-1.77466,7.04342-4.51947,1.63269-2.92622,2.01916-6.15215,2.05072-9.662a18.81444,18.81444,0,0,0-2.01917-9.09413Zm-4.32229,17.76236a7.35549,7.35549,0,0,1-.79663,2.13746c-1.02535,1.65636-2.658,1.64057-3.6124-.06308a11.051,11.051,0,0,1-1.191-4.6851,55.64279,55.64279,0,0,1,.37859-13.92909,6.766,6.766,0,0,1,.844-2.26367c.99382-1.64058,2.67383-1.61691,3.63607.0631a11.552,11.552,0,0,1,1.21466,4.81918c.16563,1.84564.18142,3.70706.26817,5.73412-.18929,2.61861-.07888,5.43439-.74931,8.18708Z"/>
    <path class="a15dcae7-b9a9-4b08-8ca9-a0647d87299c" d="M268.01972,314.42562a5.6306,5.6306,0,0,1,1.3724,4.11721,5.50187,5.50187,0,0,1-1.30931,3.8727,2.12709,2.12709,0,0,1-3.39945.09464c-1.82987-1.90874-1.81408-6.20735.03156-8.11609A2.0852,2.0852,0,0,1,268.01972,314.42562Z"/>
    <path class="a15dcae7-b9a9-4b08-8ca9-a0647d87299c" d="M262.87717,354.32781c-.489,0-1.0648.1262-1.00169-.68619.04733-.59156-.23661-1.3172.75718-1.43551,1.19888-.14986,1.55382-1.0569,1.56171-2.05072.03156-5.48172.04732-10.96343,0-16.44516a2.86108,2.86108,0,0,0-2.02706-2.91833c-1.00168-.3076-.61521-1.049-.65464-1.64057-.06309-.83606.62311-.59943,1.0648-.63887,1.71157-.18141,3.431-.28395,5.13468-.51268,1.18311-.15774,1.71157.05522,1.66423,1.43551-.10254,3.30481-.03156,6.60961-.03156,9.92231,0,3.26536.01577,6.52285-.00789,9.78822-.01577,1.3803.31549,2.51606,1.72733,3.05242.94649.36281.489,1.15944.5048,1.751.01577.65465-.61521.37071-.94649.37861-2.58706.02366-5.17411.01576-7.75327.01576Z"/>
    <path class="a15dcae7-b9a9-4b08-8ca9-a0647d87299c" d="M288.36912,349.13a25.5147,25.5147,0,0,1-1.49073,2.8789c-3.46256,5.28454-8.99948,3.13918-11.137-.142a16.82051,16.82051,0,0,1-2.39777-7.6823,20.37279,20.37279,0,0,1,2.36621-12.71443c1.8693-3.17861,4.94537-4.58256,8.10821-3.79382a5.30878,5.30878,0,0,1,3.80959,3.36,8.65354,8.65354,0,0,1,.32339,5.324c-.29973,1.24621-.97016,2.09015-2.28734,2.10593a2.62779,2.62779,0,0,1-2.59495-2.01916c-.47324-1.34085-.09464-2.6896.03156-4.03833.01577-.13409.08675-.26029.10254-.39437.06309-.85972.56-1.95606-.63888-2.33467-1.16733-.3707-1.822.52057-2.27156,1.45917a14.15148,14.15148,0,0,0-1.22253,5.111,31.57708,31.57708,0,0,0,.40226,10.26146,10.10747,10.10747,0,0,0,1.36452,3.218c1.38029,2.07439,3.68341,2.10594,5.15835.07888a18.54288,18.54288,0,0,0,1.65635-3.36791,1.81482,1.81482,0,0,1,.72565,2.6817Z"/>
    <path class="a15dcae7-b9a9-4b08-8ca9-a0647d87299c" d="M305.08245,346.70072c-.489.8755-.88338,1.6879-1.3724,2.43719-.844,1.30931-1.90085,2.37411-3.62819,2.18479a4.09112,4.09112,0,0,1-3.43888-2.91044,20.2317,20.2317,0,0,1-1.14368-7.05919c-.01576-.80451.26028-.97014,1.00169-.96226,2.76847.03944,5.53692.01578,8.3054.01578.53633,0,1.08056.13409,1.08056-.75719a20.19685,20.19685,0,0,0-1.08056-7.47722c-.86762-2.19269-2.20059-3.96734-4.66934-4.51946-3.431-.75719-6.29412.74142-8.124,4.18819a18.19953,18.19953,0,0,0-2.05072,7.80849c-.18929,4.25129.1183,8.4316,2.54763,12.14655,2.46085,3.76227,8.02933,5.01635,11.46823.489a29.25733,29.25733,0,0,0,1.68791-2.77635,1.86731,1.86731,0,0,0-.59155-2.82368Zm-9.52006-10.96343a13.28351,13.28351,0,0,1,.91494-4.622c.33128-.75719.75718-1.538,1.72733-1.46705.89128.0631,1.21467.82028,1.48283,1.57747a12.66988,12.66988,0,0,1,.56,4.02256q.10254,2.75271-2.42143,2.78424c-2.382.03155-2.41353.03155-2.25577-2.30311Z"/>
    <path class="a15dcae7-b9a9-4b08-8ca9-a0647d87299c" d="M156.05857,206.75519c.02366-1.1831,1.26987-2.11381,2.83946-2.11381H303.73374a2.05659,2.05659,0,0,1,2.35831,2.1217,2.22934,2.22934,0,0,1-2.3741,2.5634c-3.17861,0-6.35722.05521-9.53582-.03155-1.15945-.03155-1.53015.52057-1.64846,1.48282a10.51708,10.51708,0,0,0-.01577,1.22254V261.951a5.21464,5.21464,0,0,0,3.86481,5.39495,3.54,3.54,0,0,1,1.70367,1.08057,2.60878,2.60878,0,0,1,.60732,2.524,2.074,2.074,0,0,1-1.9955,1.40395,7.95386,7.95386,0,0,1-5.30821-1.07268c-2.61861-1.77466-5.6-1.58535-8.50258-.72563-1.467.4338-2.88677,1.01746-4.37747,1.4355a3.98834,3.98834,0,0,1-2.524-.16564,2.18345,2.18345,0,0,1-1.64846-2.48451,2.45647,2.45647,0,0,1,2.38987-2.453,7.012,7.012,0,0,0,5.16622-2.90255,1.81614,1.81614,0,0,0,.31549-1.27775q0-16.39784,0-32.79567c0-2.07437-.2524-2.3741-2.30312-2.83156-5.90763-1.32508-11.839-2.26367-18.25136-1.404a29.59351,29.59351,0,0,1,6.72793,8.28174c4.00677,7.46933,5.04791,15.49866,4.37747,23.81984a15.01834,15.01834,0,0,1-3.93578,9.18089,9.912,9.912,0,0,1-6.64118,3.32847,4.37645,4.37645,0,0,1-1.84564-.284,22.87586,22.87586,0,0,0-9.15722-.74141c-2.76057.1893-5.50537.52845-8.266.70986a16.98272,16.98272,0,0,1-6.52286-1.02536c-4.14086-1.34875-6.71214-8.93639-2.82368-12.82485,1.404-1.404,2.83946-2.65016,5.06369-2.84734,1.91663-.17353,3.04453-1.822,4.10932-3.3127.844-1.16732,1.41184-1.21464,2.382-.1183a4.0997,4.0997,0,0,1,.702,3.73072,14.03117,14.03117,0,0,1-1.45127,4.06988c-.631,1.191-.35493,1.76678.95437,2.04283a5.8192,5.8192,0,0,0,4.551-.64677,4.83968,4.83968,0,0,1,4.06989-.31549c.74141.19718,1.42761.57577,2.169.773,2.96566.78873,4.02256.49691,5.56059-2.04283,3.26538-5.40285,3.09185-11.01865,1.12-16.7291a37.23426,37.23426,0,0,0-6.52284-11.50767,12.30107,12.30107,0,0,0-4.99269-3.65974c-2.02706-.80451-3.47833-.16563-4.22763,1.86142a6.93981,6.93981,0,0,0-.44959,3.32058c.142,1.15156.2524,2.54762-.94648,3.1865-1.23043.66253-2.35832-.142-3.31269-.9386a23.01952,23.01952,0,0,1-4.58256-5.529c-.71775-1.12-.08676-3.00509,1.32507-4.18819a15.06621,15.06621,0,0,1,6.40454-2.81579,50.54745,50.54745,0,0,1,9.96963-1.23832c2.09015-.08676,4.10931-.67042,6.21525-.6862a58.526,58.526,0,0,1,18.77982,3.28114c.98592.3155,1.29354.27606,1.26985-.89127-.07888-3.35213-.06309-6.71215,0-10.06428.01577-.91493-.27606-1.11212-1.14368-1.11212q-27.2469.03549-54.5017-.01577c-1.16733,0-1.16733.48113-1.16733,1.34874q.02367,24.70323.01578,49.40646a8.64345,8.64345,0,0,1-.02366,1.35663c-.36282,2.41353-.03154,3.17072,2.10593,4.39326a15.36571,15.36571,0,0,0,1.69577.83606,2.65487,2.65487,0,0,1,1.80621,3.02875c-.142,1.47493-1.23043,1.8062-2.38988,1.94818a7.17284,7.17284,0,0,1-3.84114-.58367,11.90659,11.90659,0,0,0-6.85412-1.24621,2.95435,2.95435,0,0,0-1.44339.52057c8.87329.6231,15.1753,5.955,21.43,11.31838a104.0934,104.0934,0,0,1,11.90993,12.328c1.96394,2.33467,3.78592,2.84734,5.92342,1.77466a1.69716,1.69716,0,0,0,1.11212-1.77466c-.05522-1.59325.702-2.31888,2.3741-2.57127a2.1176,2.1176,0,0,1,2.47665,1.822c.631,2.61071.72565,5.04791-1.51439,7.23271-4.68509,4.551-10.64794,5.26876-16.05867,1.57747-5.73412-3.91214-10.56119-8.84962-15.38037-13.795-2.0586-2.10593-3.85692-4.50369-6.08116-6.42032a23.505,23.505,0,0,0-13.08514-5.73412,12.15689,12.15689,0,0,0-8.65244,2.11381c-2.52395,1.8141-3.71495,4.56678-2.68959,6.78314,1.71944,3.6834,4.58255,4.75608,8.27385,3.43889,1.77465-.631,2.098-2.05072,1.22254-3.75438-.86761-1.68-.64677-3.54143-.45747-5.33185a1.3015,1.3015,0,0,1,1.30141-1.01747c.631-.0631,1.26987-.00788,1.90086-.04732,1.04114-.0631,1.38029.347,1.37241,1.42761a8.78827,8.78827,0,0,0,1.538,4.42481c1.28565,2.24791.347,6.34933-1.8062,7.79272a17.89869,17.89869,0,0,1-10.11161,3.502c-5.01636-.02366-8.95216-2.34255-12.115-6.05749-.89916-1.05691-.85184-2.55552-.91494-3.89637-.284-6.59383,2.91832-11.01076,9.63048-13.43218a32.76655,32.76655,0,0,1,8.06089-1.69578c-.46536-2.10592-.44959-2.08226,1.404-3.23382a25.40694,25.40694,0,0,0,4.84284-4.35383,1.47583,1.47583,0,0,0,.28394-1.14367q.18932-25.7207.40226-51.4414c0-.80451-.142-1.08845-1.01747-1.08845q-7.631,0-15.26206-.142c-1.23042-.02367-1.08846.39436-.71775,1.22254a83.89808,83.89808,0,0,1,5.78932,16.737c1.37241,6.30989,1.94818,12.64345-.1183,18.92179a19.75023,19.75023,0,0,1-13.17978,13.21923,1.93632,1.93632,0,0,1-1.55382,0c-3.1234-1.44339-6.444-1.333-9.74878-1.0648a34.24829,34.24829,0,0,0-6.54652,1.1831,2.75939,2.75939,0,0,1-.67043.10254c-1.82987,0-3.79382.09465-4.89806-1.68-1.08056-1.71944-.0631-3.32847.83606-4.79552a8.90367,8.90367,0,0,0,1.03325-3.76228c.57577-4.71665.32338-9.29131-3.21805-12.95894a6.33234,6.33234,0,0,1-1.70368-3.27326c-.41014-2.00339.48113-2.88678,2.46086-2.39776a4.69162,4.69162,0,0,1,1.64057.6231c3.28115,2.382,6.84624,1.82987,10.45076,1.11213,1.95607-.38648,3.778-1.26987,5.76566-1.51438.82029-.10253,1.6879-.26816,2.23213.53634.52057.76508.01578,1.4986-.33915,2.15326-.42591.78873-1.01747,1.4986-1.49859,2.26367-.31549.51268-.78874.489-1.29353.54423a3.45116,3.45116,0,0,0-3.40735,3.53355,6.10731,6.10731,0,0,0,5.08735,6.90933,5.84381,5.84381,0,0,0,5.21355-1.30142,17.1194,17.1194,0,0,0,6.09693-9.99329c1.21465-5.74989,1.40395-11.50766-.6231-17.155a16.78616,16.78616,0,0,0-6.33355-8.43948,4.069,4.069,0,0,0-2.40565-.73352q-12.87219.03549-25.75225.01577a2.68194,2.68194,0,0,1-2.83156-2.56339Z"/>
    <path class="a15dcae7-b9a9-4b08-8ca9-a0647d87299c" d="M312.8673,355.37682c.1183-.86761-.04732-1.11212-.92283-1.0648a2.41279,2.41279,0,0,1-2.38987-1.49072,6.3952,6.3952,0,0,1,.15775-6.11271c1.03325-1.8141,2.95776-1.82987,4.11721-.03944,1.1831,1.822,1.21466,3.92791,1.34873,6.04961a16.79924,16.79924,0,0,1-4.275,10.81357c-.29973.33915-.74142,1.14368-1.16734.67043a1.36225,1.36225,0,0,1-.07888-2.1217,10.83713,10.83713,0,0,0,3.21016-6.70426Z"/>
    <path class="a15dcae7-b9a9-4b08-8ca9-a0647d87299c" d="M326.544,259.009a7.79581,7.79581,0,0,1-7.38256,7.89525c-4.03044.03944-7.52456-3.67551-7.46934-7.94257a7.43557,7.43557,0,1,1,14.85192.05522Z"/>
    <path class="a15dcae7-b9a9-4b08-8ca9-a0647d87299c" d="M343.57281,352.37963c.05522-.76507-.60732-.55212-.978-.59945a1.62706,1.62706,0,0,1-1.538-1.609,26.84118,26.84118,0,0,1-.11044-2.98143c.01577-4.07776.142-8.15553.071-12.2333-.09465-5.15833-2.47665-7.6113-7.05131-7.51666-4.28284.09465-7.41412,3.54932-6.8068,7.51666.26027,1.72734,1.24619,2.658,2.729,2.59494,1.44338-.0631,2.34255-1.12789,2.44509-2.87888a10.58111,10.58111,0,0,0-.30762-3.22593c-.22874-.89916.19718-1.34875.95436-1.67212a1.54345,1.54345,0,0,1,1.95608.43381,3.7305,3.7305,0,0,1,.702,1.59325,28.00146,28.00146,0,0,1,.27606,5.00848,1.32128,1.32128,0,0,1-.78874,1.404c-1.44338.75719-2.89467,1.49071-4.30649,2.28733a9.17723,9.17723,0,0,0-3.72284,11.94148c1.49072,3.10763,4.62988,3.69129,7.11439,1.30142a27.84271,27.84271,0,0,0,1.82988-2.17693c.87549,4.36961,4.71665,4.05412,6.98032,2.61862.78874-.49691.51268-1.16734.56-1.79832Zm-7.706-3.8096a2.83364,2.83364,0,0,1-2.18479,2.453c-.94649.03943-1.71157-.87548-1.893-2.27156-.5679-4.22763.64677-6.77524,4.09354-8.44737,0,2.78423.03156,5.529-.01577,8.27385Z"/>
    <path class="a15dcae7-b9a9-4b08-8ca9-a0647d87299c" d="M338.84039,259.07209a7.39089,7.39089,0,1,1,14.74938-.03154,7.3929,7.3929,0,1,1-14.75725.02366Z"/>
    <path class="a15dcae7-b9a9-4b08-8ca9-a0647d87299c" d="M365.01856,353.823c.05521.78874-.61522.48112-.98592.489-2.453.03156-4.89805.02366-7.351.01577-.41014,0-1.01748.17352-.89918-.59945.08675-.54423-.41013-1.38029.61522-1.50649a1.372,1.372,0,0,0,1.22253-1.54592c-.02366-5.43439.35494-10.86878-.19718-16.2953a2.953,2.953,0,0,0-1.02535-2.14536,1.73613,1.73613,0,0,0-2.26367.08676,4.4418,4.4418,0,0,0-1.9955,3.65974c.02366,4.39327.01576,8.79441,0,13.19556,0,1.30929.06308,2.53185,1.59323,3.09974.72565.26817.32339,1.04114.35495,1.58537.03942.68619-.55213.45745-.89918.45745-2.53973.02366-5.08736.0079-7.62709.01577-.48112,0-.96226.03156-.87548-.67043.06308-.52847-.30762-1.30141.60731-1.41185,1.44338-.18141,1.71944-1.23042,1.72734-2.35831.03943-5.30819.06309-10.60851-.0079-15.90882-.02366-1.41183-.44169-2.78424-2.06648-3.33635-.8124-.27606-.30762-1.00958-.40227-1.53015-.08674-.48113.26028-.57577.67831-.61521,1.94028-.16564,3.88059-.32339,5.82088-.54423.86761-.10254,1.13578.26028,1.10422,1.0648-.03942.85972-.00789,1.71944-.00789,2.94987.82816-1.12788,1.38029-1.9955,2.05072-2.76846a4.34037,4.34037,0,0,1,7.53242,1.09635,13.54661,13.54661,0,0,1,1.08846,5.5527c.02366,4.53523.03156,9.07047,0,13.59782-.00789,1.30142.33128,2.32677,1.67212,2.76846.92283.30762.47325,1.05691.52057,1.609Z"/>
    <path class="a15dcae7-b9a9-4b08-8ca9-a0647d87299c" d="M389.74545,346.73228c-.45745.83605-.82816,1.609-1.28564,2.32677-.85972,1.34085-1.91662,2.47663-3.70707,2.26368a4.16236,4.16236,0,0,1-3.42312-2.91832,20.12748,20.12748,0,0,1-1.12788-7.32736c-.01577-.85184.55212-.65465,1.00168-.65465,2.76848-.00789,5.53693-.03155,8.2975.01577.82817.01578,1.09636-.22084,1.08057-1.0648a24.97234,24.97234,0,0,0-.56789-5.529c-.70986-2.81579-1.94818-5.33185-5.0637-6.15214-3.37579-.8755-6.38088.62309-8.1792,4.03044a21.14234,21.14234,0,0,0-2.06648,12.115,16.74069,16.74069,0,0,0,2.3741,7.82427c2.6817,4.08565,8.39217,5.21354,11.87048.23661.54423-.773.92283-1.65635,1.42761-2.46085a1.72151,1.72151,0,0,0-.63888-2.72114ZM380.28062,335.69a12.01992,12.01992,0,0,1,1.02534-4.84284c.31549-.63887.74142-1.191,1.4986-1.19888.85182,0,1.26985.67043,1.50649,1.35663a12.46622,12.46622,0,0,1,.64677,4.45635q.03946,2.54761-2.35832,2.58706c-2.42142.03154-2.4293.03154-2.31888-2.35833Z"/>
    <path class="a15dcae7-b9a9-4b08-8ca9-a0647d87299c" d="M412.46106,318.5586a66.68951,66.68951,0,0,0-.32339,8.96c-.01576.58367.16563.8124.76508.773.6783-.03944,1.37239.0631,2.04282-.02366,1.15945-.15775,1.404.32338,1.41972,1.41973.03156,1.23042-.29972,1.59325-1.54592,1.538-2.658-.10254-2.658-.03154-2.658,2.6265v15.1043c0,2.16114.22874,2.53972,2.33466,3.19438,1.04114.32339.61521,1.05691.65464,1.65635.05522.78874-.60732.49691-.978.50481-2.81579.02366-5.63159.01576-8.43949,0-.41013,0-1.01748.19718-.91494-.57579.07888-.54423-.40226-1.37239.61522-1.51438,1.28564-.18142,1.58537-1.08057,1.58537-2.16114.01576-5.9865,0-11.973.02366-17.95953,0-.6862-.142-.94648-.89128-.92282-1.81408.05522-3.63606.04732-5.45017,0-.70986-.02366-.91494.19718-.907.907.03155,5.71046,0,11.4288.03155,17.14714.01577,1.9324.33915,2.42141,2.18479,2.89466,1.00169.26027.8203.87549.844,1.53015.03155.96226-.69409.64677-1.15155.65464q-4.09353.03549-8.1713,0c-.418,0-1.12.30762-1.11212-.54423,0-.60732-.34705-1.44337.74931-1.56958a1.56168,1.56168,0,0,0,1.42761-1.55381,11.13585,11.13585,0,0,0,.1262-1.34874c.0079-5.671-.01577-11.342.03156-17.00516,0-.89916-.24451-1.23832-1.12789-1.09634a1.40428,1.40428,0,0,1-.54423,0c-.49691-.10254-1.26986.33126-1.45127-.29973a5.87326,5.87326,0,0,1,0-2.28733c.06308-.46535.58365-.29972.9307-.31549,2.11381-.09464,2.08228-.09464,2.21635-2.21635a20.75413,20.75413,0,0,1,1.93241-7.9899c1.05691-2.13748,2.53184-3.85692,5.03214-4.37749,2.72116-.56789,4.693.69409,5.16622,3.40734a6.37346,6.37346,0,0,1-.47325,3.72284,1.97849,1.97849,0,0,1-1.822,1.38817,2.03313,2.03313,0,0,1-1.93241-1.262,19.14361,19.14361,0,0,1-1.37239-4.10143c-.05522-.20506,0-.45747-.38648-.65465a6.69465,6.69465,0,0,0-.97015,3.51777c-.1262,2.48452-.11044,4.98482-.19719,7.47722-.03155.78874.142,1.13578,1.03325,1.10423,1.76676-.071,3.54142-.0631,5.3082,0,.8124.03154.93071-.284.97016-1.0017a22.64754,22.64754,0,0,1,2.1217-9.457,7.18377,7.18377,0,0,1,5.30821-4.22763,3.9405,3.9405,0,0,1,4.77184,3.90425,6.98907,6.98907,0,0,1-.26817,2.82368c-.347.907-.74141,1.78254-1.893,1.8693-1.20676.09464-1.80621-.64677-2.2479-1.61692a35.99886,35.99886,0,0,1-1.404-4.46425,3.68023,3.68023,0,0,0-.98592,2.4372Z"/>
    <path class="a15dcae7-b9a9-4b08-8ca9-a0647d87299c" d="M434.79808,336.80208a15.00488,15.00488,0,0,0-2.26367-5.90764c-3.32057-4.72453-9.55158-4.61411-12.72232.213-3.46257,5.27665-3.37579,15.4198.18929,20.60969a7.07424,7.07424,0,0,0,5.84454,3.431c3.502.06308,6.30989-1.96395,7.82428-5.65524a21.33106,21.33106,0,0,0,1.44337-8.73131,24.59764,24.59764,0,0,0-.31549-3.95946Zm-5.97861,12.77755a6.30836,6.30836,0,0,1-.85182,2.26367c-1.00959,1.56958-2.58706,1.5617-3.54142-.071a13.00089,13.00089,0,0,1-1.32508-5.75778c-.1183-1.62479-.02366-3.25748-.02366-4.88228a32.795,32.795,0,0,1,.50481-8.10032,7.656,7.656,0,0,1,.8045-2.14537c1.02535-1.71944,2.729-1.70367,3.70707.05522a10.80792,10.80792,0,0,1,1.12,4.57467,52.44184,52.44184,0,0,1-.39437,14.05528Z"/>
    <path class="a15dcae7-b9a9-4b08-8ca9-a0647d87299c" d="M451.85056,329.75866a8.52382,8.52382,0,0,1-.13407,6.72792c-.41016.92282-.97015,1.63269-2.1217,1.5617a2.45021,2.45021,0,0,1-2.18479-1.77466,7.90225,7.90225,0,0,1-.16563-4.15664,3.39155,3.39155,0,0,0-2.70536,3.02086c-.03156,4.94538,0,9.88287.01577,14.82037a1.99354,1.99354,0,0,0,1.94028,2.19268c1.15944.11831.87549.907.89917,1.59324.03156.89128-.65464.56-1.0648.56789-2.76847.03156-5.53692.02366-8.2975.0079-.41013,0-1.00958.17352-.94649-.57579.04732-.56-.34705-1.38818.63887-1.50649,1.29354-.16563,1.64846-1.07267,1.65636-2.1217.03942-5.4344.06308-10.87667-.01577-16.31107a3.02991,3.02991,0,0,0-2.07438-3.17861c-.78874-.2524-.34705-1.00169-.41014-1.53015-.05521-.48113.31549-.56.71776-.59943,1.94028-.16564,3.88059-.33127,5.82088-.54423.85182-.09465,1.15155.22873,1.12,1.049-.03942.80451-.00789,1.609-.00789,2.41353.91494-.907,1.50649-1.91662,2.36621-2.71326,1.90086-1.75887,4.03835-1.34084,4.969,1.05691Z"/>
    <path class="a15dcae7-b9a9-4b08-8ca9-a0647d87299c" d="M464.51767,353.38132a7.07224,7.07224,0,0,1-4.63777,1.67212c-2.40564-.11044-3.95158-1.90876-4.36959-4.89805-.45748-3.29691-.11043-6.60962-.23661-9.3623,0-3.14706-.06311-5.73412.03153-8.31328.03943-1.10422-.30761-1.41183-1.34875-1.3093-.44959.04732-1.20679.31549-1.34876-.22873a6.10861,6.10861,0,0,1,.02369-2.42143c.06311-.38648.631-.22084.978-.22873a1.61369,1.61369,0,0,0,1.751-1.82987c0-1.68.03154-3.36-.01579-5.03215-.01579-.77295.11833-1.1831,1.03325-1.11212a21.83687,21.83687,0,0,0,3.13126,0c.70988-.03944.9386.18141.92281.90705-.04733,1.9955.03942,3.991-.03943,5.9865-.03943.9386.29972,1.18311,1.14368,1.08057a13.568,13.568,0,0,1,1.49862-.00788,1.72923,1.72923,0,0,1,1.6879,2.59493.42746.42746,0,0,1-.38647.29973c-.18139.01578-.36284.00788-.54423.01578-1.08057.03154-2.58708-.36283-3.13916.1893-.72562.72563-.2445,2.22424-.22871,3.38367.07885,4.622-.28394,9.25188.22871,13.866.23661,2.11382.89128,2.61073,3.02088,2.48453.39437-.02366,1.06477-.44959,1.1831.1183.13407.6862.41806,1.56171-.33915,2.13747Z"/>
    <path class="e5b255b8-af90-438f-aa36-3f028fb84973" d="M306.08416,206.75519a2.22934,2.22934,0,0,1-2.37411,2.5634c-3.1786,0-6.35721.05521-9.53582-.03155-1.15944-.03155-1.53015.52057-1.64845,1.48282a10.51487,10.51487,0,0,0-.01577,1.22254v49.95069a5.21464,5.21464,0,0,0,3.8648,5.395,3.53992,3.53992,0,0,1,1.70368,1.08056,2.60883,2.60883,0,0,1,.60732,2.524,2.07405,2.07405,0,0,1-1.99551,1.404,7.95388,7.95388,0,0,1-5.3082-1.07268c-2.61861-1.77466-5.6-1.58536-8.50258-.72564-1.467.43381-2.88678,1.01747-4.37748,1.43551a3.98835,3.98835,0,0,1-2.524-.16564,2.18345,2.18345,0,0,1-1.64845-2.48452,2.45648,2.45648,0,0,1,2.38987-2.453,7.012,7.012,0,0,0,5.16621-2.90254,1.81611,1.81611,0,0,0,.31549-1.27775q0-16.39783,0-32.79567c0-2.07438-.2524-2.3741-2.30312-2.83156-5.90763-1.32508-11.83894-2.26368-18.25135-1.404a29.59358,29.59358,0,0,1,6.72792,8.28173c4.00677,7.46934,5.04791,15.49867,4.37748,23.81984a15.0184,15.0184,0,0,1-3.93579,9.1809,9.912,9.912,0,0,1-6.64117,3.32846,4.3766,4.3766,0,0,1-1.84564-.28394,22.876,22.876,0,0,0-9.15722-.74142c-2.76058.18931-5.50538.52846-8.266.70986a16.98226,16.98226,0,0,1-6.52285-1.02536c-4.14087-1.34874-6.71215-8.93638-2.82368-12.82485,1.404-1.404,2.83946-2.65015,5.06369-2.84734,1.91662-.17352,3.04452-1.822,4.10932-3.31269.844-1.16733,1.41183-1.21465,2.382-.11831a4.09968,4.09968,0,0,1,.702,3.73072,14.03065,14.03065,0,0,1-1.45127,4.06989c-.631,1.191-.35493,1.76677.95438,2.04282a5.81917,5.81917,0,0,0,4.551-.64677,4.83972,4.83972,0,0,1,4.06988-.31549c.74142.19719,1.42761.57578,2.169.773,2.96565.78874,4.02256.49691,5.56058-2.04282,3.26538-5.40285,3.09186-11.01865,1.12-16.7291a37.23408,37.23408,0,0,0-6.52285-11.50767,12.30092,12.30092,0,0,0-4.99269-3.65974c-2.02706-.80451-3.47833-.16564-4.22763,1.86142a6.9399,6.9399,0,0,0-.44958,3.32058c.142,1.15155.2524,2.54762-.94648,3.18649-1.23043.66254-2.35833-.142-3.31269-.93859a23.01929,23.01929,0,0,1-4.58256-5.52905c-.71776-1.12-.08676-3.00508,1.32507-4.18819a15.06633,15.06633,0,0,1,6.40454-2.81579,50.54743,50.54743,0,0,1,9.96963-1.23831c2.09014-.08677,4.10931-.67043,6.21524-.68621a58.5262,58.5262,0,0,1,18.77982,3.28115c.98592.3155,1.29354.27606,1.26986-.89127-.07888-3.35213-.06309-6.71215,0-10.06428.01576-.91494-.27607-1.11212-1.14368-1.11212q-27.24691.03549-54.50171-.01577c-1.16732,0-1.16732.48113-1.16732,1.34873q.02367,24.70323.01578,49.40646a8.64343,8.64343,0,0,1-.02366,1.35663c-.36283,2.41353-.03155,3.17073,2.10592,4.39327a15.36675,15.36675,0,0,0,1.69578.83606,2.65486,2.65486,0,0,1,1.8062,3.02874c-.142,1.47494-1.23043,1.80621-2.38987,1.94818a7.17262,7.17262,0,0,1-3.84114-.58367,11.9066,11.9066,0,0,0-6.85413-1.2462,2.95425,2.95425,0,0,0-1.44339.52057c8.87329.6231,15.1753,5.955,21.43,11.31837a104.09264,104.09264,0,0,1,11.90992,12.328c1.964,2.33467,3.78593,2.84734,5.92342,1.77466a1.69717,1.69717,0,0,0,1.11212-1.77466c-.05521-1.59325.702-2.31889,2.37411-2.57128a2.1176,2.1176,0,0,1,2.47664,1.822c.631,2.61072.72565,5.04791-1.51438,7.23272-4.6851,4.551-10.648,5.26875-16.05868,1.57747-5.73412-3.91214-10.56118-8.84963-15.38036-13.795-2.05861-2.10592-3.85692-4.50369-6.08117-6.42031a23.505,23.505,0,0,0-13.08513-5.73412,12.1568,12.1568,0,0,0-8.65244,2.11381c-2.524,1.81409-3.715,4.56678-2.6896,6.78314,1.71944,3.68339,4.58256,4.75608,8.27385,3.43889,1.77466-.631,2.098-2.05072,1.22255-3.75438-.86762-1.68-.64677-3.54144-.45747-5.33186a1.30146,1.30146,0,0,1,1.30141-1.01746c.631-.0631,1.26986-.00789,1.90086-.04733,1.04113-.0631,1.38028.347,1.3724,1.42761a8.78831,8.78831,0,0,0,1.538,4.42482c1.28564,2.2479.347,6.34933-1.80621,7.79272a17.89875,17.89875,0,0,1-10.1116,3.502c-5.01637-.02366-8.95217-2.34255-12.115-6.05749-.89916-1.0569-.85184-2.55551-.91494-3.89636-.28394-6.59384,2.91833-11.01077,9.63048-13.43218a32.76629,32.76629,0,0,1,8.06089-1.69578c-.46535-2.10593-.44958-2.08227,1.40395-3.23383a25.406,25.406,0,0,0,4.84284-4.35383,1.4758,1.4758,0,0,0,.28395-1.14366q.1893-25.72069.40225-51.4414c0-.80451-.142-1.08846-1.01746-1.08846q-7.631,0-15.26206-.142c-1.23043-.02366-1.08846.39437-.71776,1.22254a83.8982,83.8982,0,0,1,5.78933,16.737c1.3724,6.30989,1.94818,12.64344-.11831,18.92178a19.75019,19.75019,0,0,1-13.17978,13.21923,1.93625,1.93625,0,0,1-1.55381,0c-3.1234-1.44339-6.444-1.333-9.74879-1.0648a34.249,34.249,0,0,0-6.54651,1.18311,2.76,2.76,0,0,1-.67043.10254c-1.82988,0-3.79382.09464-4.89806-1.68-1.08057-1.71944-.0631-3.32847.83606-4.79552a8.90365,8.90365,0,0,0,1.03324-3.76227c.57577-4.71665.32339-9.29132-3.21805-12.95895a6.33226,6.33226,0,0,1-1.70367-3.27325c-.41015-2.0034.48113-2.88678,2.46085-2.39776a4.69129,4.69129,0,0,1,1.64058.6231c3.28114,2.382,6.84624,1.82987,10.45076,1.11212,1.95606-.38648,3.778-1.26987,5.76566-1.51437.82028-.10254,1.6879-.26817,2.23213.53634.52056.76507.01577,1.4986-.33916,2.15325-.42591.78874-1.01746,1.4986-1.49859,2.26368-.31549.51268-.78874.489-1.29353.54423a3.45117,3.45117,0,0,0-3.40735,3.53354,6.10732,6.10732,0,0,0,5.08735,6.90934,5.84383,5.84383,0,0,0,5.21355-1.30142,17.11941,17.11941,0,0,0,6.09693-9.99329c1.21465-5.74989,1.404-11.50767-.62309-17.155A16.78614,16.78614,0,0,0,187.048,210.06a4.069,4.069,0,0,0-2.40565-.73353q-12.87217.03549-25.75224.01578a2.68193,2.68193,0,0,1-2.83156-2.5634c.02366-1.1831,1.26986-2.11381,2.83945-2.11381H303.73372a2.05659,2.05659,0,0,1,2.35831,2.1217Z"/>
    <path class="e5b255b8-af90-438f-aa36-3f028fb84973" d="M236.93561,160.09354a.88944.88944,0,0,1-.35493-.702c0-1.53015-.88338-2.78424-1.2462-4.18819a9.5874,9.5874,0,0,0-3.41523-4.89017c-.53634-.44958-1.01747-.89127-1.51437-1.38029-.44959-.44169-1.333-.26028-1.97185-.67042-1.54593-.96226-1.90874-.74141-2.32677.978a1.93617,1.93617,0,0,0,.04733,1.44339c-1.262.31549-1.262,2.10593-2.99721,2.09015.5679.48113.97015.71775.89128,1.38818-.95438-.489-1.751-1.35663-1.35663-2.00339.98592-1.609-.38648-2.53185-.70986-3.73861-.16564-.60733-.57577-.79663-1.20676-.76508a39.15329,39.15329,0,0,0-4.062.213,3.61059,3.61059,0,0,0-2.06649.69409,11.738,11.738,0,0,1-2.04282,1.74311,2.76782,2.76782,0,0,0-1.47493,2.30311c-.10254,1.01747-.78086,1.82987-.80452,2.86311a1.03639,1.03639,0,0,1-.98592,1.10423c.1262-1.77466.18141-3.47833.39437-5.17411.13408-1.08057-.30761-1.27775-1.19888-1.10423-.347.0631-.78086.37859-1.00959.25239-.9938-.4969-.69409.32339-.72563,1.191-.8755-1.80621-1.333-.72564-1.99551-.29184-1.04113.6862-.55211,2.32678-1.94029,2.77636,1.94818.38648,3.95946-.3786,5.9234.46535-1.23832,1.22254-1.15156,2.81579-1.8062,4.10932a4.17228,4.17228,0,0,0-.71775,2.82368c.8755,3.09973-.89128,6.12848-.11042,9.20455.04732.18141-.16564.418-.16564.63888-.03944,1.45916-.42592,2.94987.41014,4.33016.1893.3155.37071.49691.73352.44958.32339-.04732.44169-.26817.52057-.55211a10.83748,10.83748,0,0,0,.74142-2.87889c-.04733-1.92452.92282-3.41523,1.75888-4.96115.41014-.76508.63887-1.74311,1.609-2.05072.37859.42592-.57577.9386.11043,1.20677.55211.213.60733-.52846.94648-.773.42591-.3155.33126-1.01747.92282-1.23043-.01578,2.49241-1.07268,5.72623-2.07438,6.29412-.04733-.70987.75719-1.27776.33126-2.02706-1.08056.844-1.60113,2.75269-.79662,3.084a1.80813,1.80813,0,0,1,.99381,1.92452c-.04732.76508-.18141,1.44339.54423,1.77466a2.56372,2.56372,0,0,0,2.20846-.30761c.23663-.11042.33915-.85972.773-.23662.31549.45747.94648.8124.59944,1.51437-.15775.32339-.37071.60733-.56.91494a1.299,1.299,0,0,0,2.00338-.59155,29.96737,29.96737,0,0,0,2.89467-6.19159c.57577-1.964.82028-4.07777,2.16114-5.76566a.62821.62821,0,0,0,0-.907c-.67831,2.01917-3.13917,2.3741-3.73862,4.50369-.85972-1.77466-1.48283.01577-2.26367.16563a.91111.91111,0,0,1,.50479-1.07268c.98592-.33127,1.34085-1.30141,2.09805-1.85353.20506-.142.55211-.26028.38648-.59944-.13408-.26817-.50479.26028-.67831-.11831a4.06249,4.06249,0,0,0,.62309-1.01747c.12621-.48113.54423-.71775.71776-1.12.13408-.3076.45747-.85183-.29973-.86761a3.43453,3.43453,0,0,1-2.53185-2.19268c-.38648-1.36452.85972-1.70368,1.41184-2.46875.13408-.18141.63887-.37859.39437-.52057-1.04114-.59944-.03944-.78085.16564-1.12789.15774-.26028.42591-.60733.20506-.82817-.59155-.59156-.17352-.83606.27607-1.11212.37859-.22874.773-.70987,1.191-.418.53634.36282-.20506.78085-.142,1.21465.02366.1262.04732.26029.0631.37071.489.26817.94648-.80451,1.26986-.11042.284.6231-.62309.72563-.92282,1.12789-.13408.1893-.489.19718-.71775.33127-.11042.0631-.35493.28394-.11042.39437.92282.39436.33126.7493-.03155,1.01747-.36282.276-.44169.56-.20506.91493.26028.39437.54423.14986.81239-.01577.2524-.15775.41015-.30761.80452-.07888.57577.33127.20507,1.70367,1.41183,1.23832a3.84482,3.84482,0,0,1-.83606,2.2479c-.01578.02366.03944.10253.02366.0631,1.41184-.15775,1.61692-1.53015,2.47664-2.3741-.27607,1.01747-.907,2.00339.3707,2.82368.29973.19718-.2524.67831-.489,1.00169-.31549.43381-.9386.773-.47325,1.51438.52846-.40226,1.04114-.78874,1.56959-1.191.11043.39437.19719.69409.284,1.00959.51267-.2524.35493-.88339.83606-.95438.52845.37071.10254,1.31719,1.11212,1.55381-.75719-1.38817.8755-2.1217.96226-3.02874a8.80976,8.80976,0,0,1,.47325,3.50987c-.6231-.55211.00788-1.35662-.78086-1.893.27606,3.50987-.631,6.79891-.51267,10.39555a4.409,4.409,0,0,0,.82817-1.65635,12.378,12.378,0,0,0,.45747-2.88678c.49691-2.76846,1.29353-5.5527.33915-8.39215a.76831.76831,0,0,1,.31549-.844c.53634-.33916.37071-.45747.67043-.80451.631-.74141-.13408-1.4986.20507-2.32678.46535.74142.56,1.72734,1.31719,1.90875,1.29353.31549,1.22254,1.049.773,1.90085a9.77679,9.77679,0,0,0-.97014,3.44678c-.31549,2.5634-.52057,5.17411-1.78254,7.5561-.39437.7493-1.07269,1.20677-1.44339,2.01128a5.09078,5.09078,0,0,1-2.00339,2.5555c-.07888-1.30141-.07888-1.3093-1.0569-.95437-.35493.1262-.52057-.12619-.65466-.32338-.489-.69409-1.3093-.978-1.90874-1.5617-.50479-.48113-1.74311-.20507-2.73691-.27605a6.26885,6.26885,0,0,0,.31549,2.9972c.33915.61521.631,1.79043,1.78254.80451a.98743.98743,0,0,1,1.01746-.09465,3.47691,3.47691,0,0,1,2.95776,3.45467c.00789.0631.10254.11831.19719.23662,1.70367-1.94818,2.35832-4.34594,3.1786-6.68849.41015,3.55721-1.2462,6.791-1.64057,10.2378a5.90649,5.90649,0,0,0,1.9403-2.24c1.01746-2.53973,2.19269-5.00848,3.06818-7.61131.80452-2.382,2.39776-4.45636,2.78424-7.0513.27606-1.822,1.61691-3.39946,1.42761-5.35553-.10254-1.04113.56-2.32677-.978-2.91832Zm-28.497-1.15156a1.42713,1.42713,0,0,1,.22872-1.6248A1.66726,1.66726,0,0,1,208.43856,158.942Zm23.85928-3.42312c-.02366.07888-.20507.11043-.33127.18141-.32338-.18929-1.01746-.03943-.54423-.78873a.86759.86759,0,0,0,.0631-.38648c.03154-.32339-.85184-.3155-.31549-.773.23662-.20507.51267.03944.631.30761.213.47324.66254.86761.49691,1.45916Z"/>
    <path class="e5b255b8-af90-438f-aa36-3f028fb84973" d="M418.9918,320.34114c-.34705.90705-.74142,1.78254-1.893,1.86931-1.20676.09464-1.80621-.64677-2.2479-1.61692a35.99886,35.99886,0,0,1-1.404-4.46425,3.68023,3.68023,0,0,0-.98592,2.4372,66.68936,66.68936,0,0,0-.32339,8.96c-.01576.58367.16563.8124.76508.773.6783-.03944,1.37239.0631,2.04282-.02366,1.15945-.15774,1.404.32339,1.41972,1.41973.03156,1.23043-.29972,1.59325-1.54592,1.538-2.658-.10254-2.658-.03154-2.658,2.6265v15.1043c0,2.16114.22874,2.53972,2.33466,3.19438,1.04114.32339.61521,1.05691.65464,1.65635.05522.78874-.60732.49691-.978.50481-2.81579.02366-5.63159.01576-8.43949,0-.41013,0-1.01748.19718-.91494-.57579.07888-.54423-.40226-1.37239.61522-1.51438,1.28564-.18142,1.58537-1.08057,1.58537-2.16113.01576-5.98651,0-11.973.02366-17.95954,0-.6862-.142-.94648-.89128-.92282-1.81408.05522-3.63606.04732-5.45017,0-.70986-.02366-.91494.19718-.907.907.03155,5.71046,0,11.4288.03155,17.14714.01577,1.9324.33915,2.42142,2.18479,2.89466,1.00169.26027.8203.87549.844,1.53015.03155.96226-.69409.64677-1.15155.65464q-4.09353.03549-8.1713,0c-.418,0-1.12.30762-1.11212-.54423,0-.60732-.34705-1.44337.74931-1.56957a1.56169,1.56169,0,0,0,1.42761-1.55382,11.13585,11.13585,0,0,0,.1262-1.34874c.0079-5.671-.01577-11.342.03156-17.00516,0-.89916-.24451-1.23832-1.12789-1.09634a1.40408,1.40408,0,0,1-.54423,0c-.49691-.10254-1.26986.33126-1.45127-.29973a5.87326,5.87326,0,0,1,0-2.28733c.06308-.46535.58365-.29972.9307-.31549,2.11381-.09464,2.08228-.09464,2.21635-2.21635a20.75413,20.75413,0,0,1,1.93241-7.9899c1.05691-2.13748,2.53184-3.85692,5.03214-4.37749,2.72116-.56789,4.693.69409,5.16622,3.40735a6.37342,6.37342,0,0,1-.47325,3.72283,1.97851,1.97851,0,0,1-1.822,1.38818,2.03315,2.03315,0,0,1-1.93241-1.262,19.14361,19.14361,0,0,1-1.37239-4.10143c-.05522-.20506,0-.45746-.38648-.65465a6.69465,6.69465,0,0,0-.97015,3.51777c-.1262,2.48452-.11044,4.98482-.19719,7.47722-.03155.78874.142,1.13578,1.03325,1.10423,1.76676-.071,3.54142-.0631,5.3082,0,.8124.03154.93071-.284.97016-1.0017a22.64758,22.64758,0,0,1,2.1217-9.457A7.18377,7.18377,0,0,1,414.496,313.629a3.9405,3.9405,0,0,1,4.77184,3.90425,6.98907,6.98907,0,0,1-.26817,2.82368Z"/>
    <path class="e5b255b8-af90-438f-aa36-3f028fb84973" d="M121.55134,331.75416a21.62071,21.62071,0,0,0-4.2434-11.83105c-1.85353-2.33466-4.1803-3.9279-7.27215-3.9279-4.204,0-6.862,2.47663-8.78652,5.89186a27.83263,27.83263,0,0,0-3.17072,12.78542,32.45364,32.45364,0,0,0,1.0569,9.81976c.97015,3.39946,2.39776,6.55442,5.23721,8.84962a8.64076,8.64076,0,0,0,11.72852-.55213,15.01078,15.01078,0,0,0,3.38368-5.04,33.19126,33.19126,0,0,0,2.07437-16.00346Zm-7.21694,15.66431a10.04806,10.04806,0,0,1-1.77465,3.92,3.20758,3.20758,0,0,1-5.40285-.13409,13.65147,13.65147,0,0,1-2.22424-6.33356,57.83866,57.83866,0,0,1,.43381-20.54659,10.6392,10.6392,0,0,1,1.63269-3.991c1.64057-2.32677,4.21974-2.311,5.8051.03944,1.56958,2.32677,1.97184,5.02425,2.33466,7.71384a60.29707,60.29707,0,0,1,.35493,7.73751,44.78971,44.78971,0,0,1-1.15945,11.59442Z"/>
    <path class="e5b255b8-af90-438f-aa36-3f028fb84973" d="M95.77543,331.72262c-.45747-4.33017-1.5617-8.46314-4.34594-11.93359-4.0541-5.0558-10.30878-5.09524-14.46543-.13408a15.76964,15.76964,0,0,0-2.67381,4.693,33.6436,33.6436,0,0,0-.98592,19.90771A15.99074,15.99074,0,0,0,78.51,353.27091a8.48786,8.48786,0,0,0,7.09074,1.94818c3.62819-.61521,5.78144-3.03664,7.39835-6.03383,2.311-4.29861,2.87889-8.99949,2.95776-14.12628-.04732-.89127-.04732-2.1217-.18141-3.33635Zm-7.3037,15.964a9.66791,9.66791,0,0,1-1.79832,3.76228,3.15736,3.15736,0,0,1-5.14256-.04732,11.254,11.254,0,0,1-2.17691-5.48172,57.38942,57.38942,0,0,1,.347-22.00575,9.18428,9.18428,0,0,1,1.77466-3.92,3.20827,3.20827,0,0,1,5.40284.16564,15.21645,15.21645,0,0,1,2.35833,6.99609,83.643,83.643,0,0,1,.56789,8.52624c-.18141,4.04623-.20507,8.08455-1.34086,12.00457Z"/>
    <path class="e5b255b8-af90-438f-aa36-3f028fb84973" d="M148.34473,319.21326c-2.23213.41014-2.83945,2.04282-2.94988,3.97522-.52057,9.20456-.11831,18.40911-.23662,27.61368-.01577,1.00169-.02366,1.9955.00789,2.98932.01577.56789-.17352.74931-.76508.8045a2.34673,2.34673,0,0,1-2.78424-1.59324c-3.91213-8.542-7.95834-17.02094-11.96513-25.50774-.18141-.37859-.20507-.8755-.78873-1.13578.1262,7.13017-.1893,14.18938.19718,21.24067.11831,2.01127.78874,3.7386,2.97353,4.37748,1.04114.30762.68621,1.12789.702,1.78255.03155.85183-.66254.56-1.08846.56789q-3.67945.03549-7.351,0c-.38648,0-1.07268.24451-.93071-.53633.09465-.55213-.56789-1.38819.54423-1.64846,2.20058-.51267,2.89466-2.16113,2.95776-4.15664.26029-7.6192.11043-15.23839.09465-22.85759,0-2.47663-.74929-4.65354-3.24959-5.79722-.9386-.42591-.43381-1.28564-.43381-1.92451s.631-.33916.978-.33916c1.94818-.03154,3.90424.04733,5.85243-.03943a1.73106,1.73106,0,0,1,1.9324,1.191c3.4941,7.48512,7.0513,14.95444,10.58484,22.4159q.1893.41409.40226.85183c.45747-.17352.26028-.54423.26028-.80451q0-7.82032-.0631-15.64853a14.07814,14.07814,0,0,0-.32338-2.6896,3.51249,3.51249,0,0,0-2.5634-2.88678c-1.15155-.32338-.9386-1.20676-.84394-1.95606.10253-.85972.87549-.418,1.31718-.43381,2.40565-.04732,4.8113-.02366,7.217-.02366.4338,0,1.01746-.1183.87549.6231-.10254.54423.44959,1.36451-.56,1.55381Z"/>
    <path class="e5b255b8-af90-438f-aa36-3f028fb84973" d="M70.33868,339.38914c-1.45916.2524-1.90086,1.37241-1.90086,2.729.00789,2.58706-.03155,5.17411.05521,7.75329a2.08083,2.08083,0,0,1-.92282,1.94028,17.11593,17.11593,0,0,1-8.41582,3.50989,8.725,8.725,0,0,1-8.00567-3.72284,20.56462,20.56462,0,0,1-3.95946-10.94767c-.53634-5.58425-.35493-11.12907,1.74311-16.44516a15.81082,15.81082,0,0,1,2.81579-4.764c3.40734-3.86481,8.15553-4.51946,12.43049-1.65635.70986.48113,1.13578.58366,1.50648-.26029.29972-.67831.91494-.53633,1.41184-.44958.60733.10254.32338.67043.32338,1.00958.03155,1.94818.01578,3.90424.01578,5.85242h.04732c0,1.8141.03944,3.62819-.02366,5.44228-.01578.44169.50479,1.22254-.58367,1.30141-1.04113.07888-.88338-.71775-.9938-1.24621a37.217,37.217,0,0,0-1.9403-6.6175,10.08828,10.08828,0,0,0-1.41972-2.46085c-1.93241-2.39775-4.71665-2.35043-6.52285.1262a12.15981,12.15981,0,0,0-2.00339,5.13467,50.39738,50.39738,0,0,0,.631,22.21083,9.4322,9.4322,0,0,0,1.52226,3.15494,4.09166,4.09166,0,0,0,6.78313-.347,1.89121,1.89121,0,0,0,.18141-1.04114c.00789-2.26367.01578-4.53524,0-6.8068-.01577-1.97184-.489-2.8-2.34255-3.29691-1.23042-.33916-.93071-1.13579-.92282-1.88508.02366-.97015.82029-.51268,1.23832-.52057,2.94987-.04733,5.89975-.03944,8.84962-.00789.45747,0,1.23043-.36282,1.262.55212.01578.67831.39437,1.55381-.85183,1.75888Z"/>
    <path class="e5b255b8-af90-438f-aa36-3f028fb84973" d="M365.01856,353.823c.05521.78874-.61522.48112-.98592.489-2.453.03156-4.89805.02366-7.351.01577-.41014,0-1.01748.17352-.89918-.59945.08675-.54423-.41013-1.38029.61522-1.50649a1.372,1.372,0,0,0,1.22253-1.54592c-.02366-5.43439.35494-10.86878-.19718-16.2953a2.953,2.953,0,0,0-1.02535-2.14536,1.73613,1.73613,0,0,0-2.26367.08676,4.4418,4.4418,0,0,0-1.9955,3.65974c.02366,4.39327.01576,8.79441,0,13.19556,0,1.30929.06308,2.53185,1.59323,3.09974.72565.26817.32339,1.04114.35495,1.58537.03942.68619-.55213.45745-.89918.45745-2.53973.02366-5.08736.0079-7.62709.01577-.48112,0-.96226.03156-.87548-.67043.06308-.52847-.30762-1.30141.60731-1.41185,1.44338-.18141,1.71944-1.23042,1.72734-2.35831.03943-5.30819.06309-10.60851-.0079-15.90882-.02366-1.41183-.44169-2.78424-2.06648-3.33635-.8124-.27606-.30762-1.00958-.40227-1.53015-.08674-.48113.26028-.57577.67831-.61521,1.94028-.16564,3.88059-.32339,5.82088-.54423.86761-.10254,1.13578.26028,1.10422,1.0648-.03942.85972-.00789,1.71944-.00789,2.94987.82816-1.12788,1.38029-1.9955,2.05072-2.76846a4.34037,4.34037,0,0,1,7.53242,1.09635,13.54661,13.54661,0,0,1,1.08846,5.5527c.02366,4.53523.03156,9.07047,0,13.59782-.00789,1.30142.33128,2.32677,1.67212,2.76846.92283.30762.47325,1.05691.52057,1.609Z"/>
    <path class="e5b255b8-af90-438f-aa36-3f028fb84973" d="M166.35947,319.3c-2.10593.56-2.19269.80451-2.19269,3.09973-.00788,6.71214.00788,13.4243-.00788,20.13644a17.89625,17.89625,0,0,1-1.56959,7.91892c-1.15945,2.37411-2.8079,4.21975-5.5606,4.73242a5.63624,5.63624,0,0,1-6.36511-3.03664,12.42918,12.42918,0,0,1-.79662-8.85751,4.37108,4.37108,0,0,1,.65466-1.333,2.22221,2.22221,0,0,1,3.98312.03944,6.62905,6.62905,0,0,1,.39437,6.13637,21.25284,21.25284,0,0,1-1.333,2.50817,1.29611,1.29611,0,0,0,1.21465,2.098,2.68434,2.68434,0,0,0,2.38987-1.538,9.458,9.458,0,0,0,1.3093-4.92172c.06311-3.991.02367-7.982.02367-11.973h.05521c0-3.90424.00789-7.8006,0-11.70485,0-2.00338-.33126-2.60283-2.24-3.20227-1.20676-.37859-.844-1.20676-.82817-1.92452.03154-.844.773-.42591,1.16733-.42591,3.13128-.03944,6.26257-.03154,9.39385-.00788.41015,0,1.13578-.31549,1.07268.56-.04732.62309.40225,1.38029-.76507,1.68789Z"/>
    <path class="e5b255b8-af90-438f-aa36-3f028fb84973" d="M214.94565,352.32442c.01577-.74142-.65466-.50481-1.01747-.56a1.63357,1.63357,0,0,1-1.49859-1.65635c-.09465-.99381-.11043-1.99551-.11043-2.98931.02366-4.03833.13409-8.07667.07888-12.10711-.08676-5.17411-2.42931-7.64286-7.004-7.57976-4.34594.0631-7.57976,3.65185-6.85413,7.6113.31549,1.71944,1.30931,2.60284,2.82368,2.49241,1.35663-.09464,2.24-1.16732,2.34255-2.83945a10.86159,10.86159,0,0,0-.30761-3.23383,1.32561,1.32561,0,0,1,.9386-1.68789,1.54966,1.54966,0,0,1,2.04283.53633,4.05842,4.05842,0,0,1,.631,1.49071,28.08847,28.08847,0,0,1,.27606,5.01637,1.32679,1.32679,0,0,1-.79662,1.404c-1.32507.6862-2.61861,1.44339-3.96734,2.06649-5.42651,2.48451-5.46594,8.07666-4.24341,11.68119,1.19888,3.56508,4.7482,4.3065,7.422,1.65636a24.86909,24.86909,0,0,0,1.64057-1.99551c1.1831,3.52566,3.95946,4.51158,6.98032,2.61072.83606-.52846.61522-1.22253.6231-1.90086Zm-7.69019-3.95157a2.785,2.785,0,0,1-1.39606,2.34254,1.4693,1.4693,0,0,1-2.27157-.65465c-1.8693-3.19438.11042-8.43947,3.66762-9.70146v8.01357Z"/>
    <path class="e5b255b8-af90-438f-aa36-3f028fb84973" d="M343.57281,352.37963c.05522-.76507-.60732-.55212-.978-.59945a1.62706,1.62706,0,0,1-1.538-1.609,26.84118,26.84118,0,0,1-.11044-2.98143c.01577-4.07776.142-8.15553.071-12.2333-.09465-5.15833-2.47665-7.6113-7.05131-7.51666-4.28284.09465-7.41412,3.54932-6.8068,7.51666.26027,1.72734,1.24619,2.658,2.729,2.59494,1.44338-.0631,2.34255-1.12789,2.44509-2.87888a10.58111,10.58111,0,0,0-.30762-3.22593c-.22874-.89916.19718-1.34875.95436-1.67212a1.54345,1.54345,0,0,1,1.95608.43381,3.7305,3.7305,0,0,1,.702,1.59325,28.00146,28.00146,0,0,1,.27606,5.00848,1.32128,1.32128,0,0,1-.78874,1.404c-1.44338.75719-2.89467,1.49071-4.30649,2.28733a9.17723,9.17723,0,0,0-3.72284,11.94148c1.49072,3.10763,4.62988,3.69129,7.11439,1.30142a27.84271,27.84271,0,0,0,1.82988-2.17693c.87549,4.36961,4.71665,4.05412,6.98032,2.61862.78874-.49691.51268-1.16734.56-1.79832Zm-7.706-3.8096a2.83364,2.83364,0,0,1-2.18479,2.453c-.94649.03943-1.71157-.87548-1.893-2.27156-.5679-4.22763.64677-6.77524,4.09354-8.44737,0,2.78423.03156,5.529-.01577,8.27385Z"/>
    <path class="e5b255b8-af90-438f-aa36-3f028fb84973" d="M434.79808,336.80208a15.00488,15.00488,0,0,0-2.26367-5.90764c-3.32057-4.72453-9.55158-4.61411-12.72232.213-3.46257,5.27665-3.37579,15.4198.18929,20.60969a7.07424,7.07424,0,0,0,5.84454,3.431c3.502.06308,6.30989-1.96395,7.82428-5.65524a21.33106,21.33106,0,0,0,1.44337-8.73131,24.59764,24.59764,0,0,0-.31549-3.95946Zm-5.97861,12.77755a6.30836,6.30836,0,0,1-.85182,2.26367c-1.00959,1.56958-2.58706,1.5617-3.54142-.071a13.00089,13.00089,0,0,1-1.32508-5.75778c-.1183-1.62479-.02366-3.25748-.02366-4.88228a32.795,32.795,0,0,1,.50481-8.10032,7.656,7.656,0,0,1,.8045-2.14537c1.02535-1.71944,2.729-1.70367,3.70707.05522a10.80792,10.80792,0,0,1,1.12,4.57467,52.44184,52.44184,0,0,1-.39437,14.05528Z"/>
    <path class="e5b255b8-af90-438f-aa36-3f028fb84973" d="M257.93178,331.88036c-1.51439-2.71325-3.70707-4.46425-6.94877-4.43269a7.32813,7.32813,0,0,0-6.8699,4.54312,21.19087,21.19087,0,0,0,.03154,18.61419,7.18418,7.18418,0,0,0,6.70426,4.54313c3.33637.03155,5.51326-1.77466,7.04342-4.51947,1.63269-2.92622,2.01916-6.15215,2.05072-9.662a18.81444,18.81444,0,0,0-2.01917-9.09413Zm-4.32229,17.76236a7.35549,7.35549,0,0,1-.79663,2.13746c-1.02535,1.65636-2.658,1.64057-3.6124-.06308a11.051,11.051,0,0,1-1.191-4.6851,55.64279,55.64279,0,0,1,.37859-13.92909,6.766,6.766,0,0,1,.844-2.26367c.99382-1.64058,2.67383-1.61691,3.63607.0631a11.552,11.552,0,0,1,1.21466,4.81918c.16563,1.84564.18142,3.70706.26817,5.73412-.18929,2.61861-.07888,5.43439-.74931,8.18708Z"/>
    <path class="e5b255b8-af90-438f-aa36-3f028fb84973" d="M389.74545,346.73228c-.45745.83605-.82816,1.609-1.28564,2.32677-.85972,1.34085-1.91662,2.47663-3.70707,2.26368a4.16236,4.16236,0,0,1-3.42312-2.91832,20.12748,20.12748,0,0,1-1.12788-7.32736c-.01577-.85184.55212-.65465,1.00168-.65465,2.76848-.00789,5.53693-.03155,8.2975.01577.82817.01578,1.09636-.22084,1.08057-1.0648a24.97234,24.97234,0,0,0-.56789-5.529c-.70986-2.81579-1.94818-5.33185-5.0637-6.15214-3.37579-.8755-6.38088.62309-8.1792,4.03044a21.14234,21.14234,0,0,0-2.06648,12.115,16.74069,16.74069,0,0,0,2.3741,7.82427c2.6817,4.08565,8.39217,5.21354,11.87048.23661.54423-.773.92283-1.65635,1.42761-2.46085a1.72151,1.72151,0,0,0-.63888-2.72114ZM380.28062,335.69a12.01992,12.01992,0,0,1,1.02534-4.84284c.31549-.63887.74142-1.191,1.4986-1.19888.85182,0,1.26985.67043,1.50649,1.35663a12.46622,12.46622,0,0,1,.64677,4.45635q.03946,2.54761-2.35832,2.58706c-2.42142.03154-2.4293.03154-2.31888-2.35833Z"/>
    <path class="e5b255b8-af90-438f-aa36-3f028fb84973" d="M305.08245,346.70072c-.489.8755-.88338,1.6879-1.3724,2.43719-.844,1.30931-1.90085,2.37411-3.62819,2.18479a4.09112,4.09112,0,0,1-3.43888-2.91044,20.2317,20.2317,0,0,1-1.14368-7.05919c-.01576-.80451.26028-.97014,1.00169-.96226,2.76847.03944,5.53692.01578,8.3054.01578.53633,0,1.08056.13409,1.08056-.75719a20.19685,20.19685,0,0,0-1.08056-7.47722c-.86762-2.19269-2.20059-3.96734-4.66934-4.51946-3.431-.75719-6.29412.74142-8.124,4.18819a18.19953,18.19953,0,0,0-2.05072,7.80849c-.18929,4.25129.1183,8.4316,2.54763,12.14655,2.46085,3.76227,8.02933,5.01635,11.46823.489a29.25733,29.25733,0,0,0,1.68791-2.77635,1.86731,1.86731,0,0,0-.59155-2.82368Zm-9.52006-10.96343a13.28351,13.28351,0,0,1,.91494-4.622c.33128-.75719.75718-1.538,1.72733-1.46705.89128.0631,1.21467.82028,1.48283,1.57747a12.66988,12.66988,0,0,1,.56,4.02256q.10254,2.75271-2.42143,2.78424c-2.382.03155-2.41353.03155-2.25577-2.30311Z"/>
    <path class="e5b255b8-af90-438f-aa36-3f028fb84973" d="M288.36912,349.13a25.5147,25.5147,0,0,1-1.49073,2.8789c-3.46256,5.28454-8.99948,3.13918-11.137-.142a16.82051,16.82051,0,0,1-2.39777-7.6823,20.37279,20.37279,0,0,1,2.36621-12.71443c1.8693-3.17861,4.94537-4.58256,8.10821-3.79382a5.30878,5.30878,0,0,1,3.80959,3.36,8.65354,8.65354,0,0,1,.32339,5.324c-.29973,1.24621-.97016,2.09015-2.28734,2.10593a2.62779,2.62779,0,0,1-2.59495-2.01916c-.47324-1.34085-.09464-2.6896.03156-4.03833.01577-.13409.08675-.26029.10254-.39437.06309-.85972.56-1.95606-.63888-2.33467-1.16733-.3707-1.822.52057-2.27156,1.45917a14.15148,14.15148,0,0,0-1.22253,5.111,31.57708,31.57708,0,0,0,.40226,10.26146,10.10747,10.10747,0,0,0,1.36452,3.218c1.38029,2.07439,3.68341,2.10594,5.15835.07888a18.54288,18.54288,0,0,0,1.65635-3.36791,1.81482,1.81482,0,0,1,.72565,2.6817Z"/>
    <path class="e5b255b8-af90-438f-aa36-3f028fb84973" d="M464.51767,353.38132a7.07224,7.07224,0,0,1-4.63777,1.67212c-2.40564-.11044-3.95158-1.90876-4.36959-4.89805-.45748-3.29691-.11043-6.60962-.23661-9.3623,0-3.14706-.06311-5.73412.03153-8.31328.03943-1.10422-.30761-1.41183-1.34875-1.3093-.44959.04732-1.20679.31549-1.34876-.22873a6.10861,6.10861,0,0,1,.02369-2.42143c.06311-.38648.631-.22084.978-.22873a1.61369,1.61369,0,0,0,1.751-1.82987c0-1.68.03154-3.36-.01579-5.03215-.01579-.77295.11833-1.1831,1.03325-1.11212a21.83687,21.83687,0,0,0,3.13126,0c.70988-.03944.9386.18141.92281.90705-.04733,1.9955.03942,3.991-.03943,5.9865-.03943.9386.29972,1.18311,1.14368,1.08057a13.568,13.568,0,0,1,1.49862-.00788,1.72923,1.72923,0,0,1,1.6879,2.59493.42746.42746,0,0,1-.38647.29973c-.18139.01578-.36284.00788-.54423.01578-1.08057.03154-2.58708-.36283-3.13916.1893-.72562.72563-.2445,2.22424-.22871,3.38367.07885,4.622-.28394,9.25188.22871,13.866.23661,2.11382.89128,2.61073,3.02088,2.48453.39437-.02366,1.06477-.44959,1.1831.1183.13407.6862.41806,1.56171-.33915,2.13747Z"/>
    <path class="e5b255b8-af90-438f-aa36-3f028fb84973" d="M451.71649,336.48658c-.41016.92282-.97015,1.63269-2.1217,1.5617a2.45021,2.45021,0,0,1-2.18479-1.77466,7.90225,7.90225,0,0,1-.16563-4.15664,3.39155,3.39155,0,0,0-2.70536,3.02086c-.03156,4.94538,0,9.88287.01577,14.82037a1.99354,1.99354,0,0,0,1.94028,2.19268c1.15944.11831.87549.907.89917,1.59324.03156.89128-.65464.56-1.0648.56789-2.76847.03156-5.53692.02366-8.2975.0079-.41013,0-1.00958.17352-.94649-.57579.04732-.56-.34705-1.38818.63887-1.50649,1.29354-.16563,1.64846-1.07267,1.65636-2.1217.03942-5.4344.06308-10.87667-.01577-16.31107a3.02991,3.02991,0,0,0-2.07438-3.17861c-.78874-.2524-.34705-1.00169-.41014-1.53015-.05521-.48113.31549-.56.71776-.59943,1.94028-.16564,3.88059-.33127,5.82088-.54423.85182-.09465,1.15155.22873,1.12,1.049-.03942.80451-.00789,1.609-.00789,2.41353.91494-.907,1.50649-1.91662,2.36621-2.71326,1.90086-1.75887,4.03835-1.34084,4.969,1.05691a8.52382,8.52382,0,0,1-.13407,6.72792Z"/>
    <path class="e5b255b8-af90-438f-aa36-3f028fb84973" d="M241.1948,330.366a4.01919,4.01919,0,0,0-1.893,2.6896c-1.84564,6.7989-3.88058,13.5426-5.33975,20.43616-.142.67043-.27606,1.28565-1.15156,1.08057-.78085-.18142-1.822.59945-2.21634-.97016-1.70368-6.791-3.54144-13.5426-5.324-20.31a4.11455,4.11455,0,0,0-1.98762-2.92622c-.85972-.43381-.44958-1.20677-.42591-1.8062.01578-.6231.63888-.33127.978-.33127q3.73862-.04731,7.493,0c.3707,0,1.02536-.284.98592.49691-.03155.59943.38648,1.404-.67832,1.64057-.91493.19719-1.44339.7493-1.1831,1.75888q1.77465,6.87384,3.5572,13.73191c.07888,0,.15774.00788.2445.00788q1.36058-5.37129,2.72114-10.7347c.15775-.61522.22085-1.24621.40225-1.85354a2.07689,2.07689,0,0,0-1.38817-2.82368c-1.07268-.38648-.67831-1.17522-.65465-1.79832.03154-.82028.76507-.40225,1.16733-.418,1.35662-.05521,2.72113-.04732,4.08565,0,.347.00789.97014-.29972,1.00169.29973.03944.60733.42592,1.39606-.37859,1.83775Z"/>
    <path class="e5b255b8-af90-438f-aa36-3f028fb84973" d="M353.58975,259.04843a7.3929,7.3929,0,1,1-14.75726.02366,7.39089,7.39089,0,1,1,14.74939-.03154Z"/>
    <path class="e5b255b8-af90-438f-aa36-3f028fb84973" d="M326.544,259.009a7.79581,7.79581,0,0,1-7.38256,7.89525c-4.03044.03944-7.52456-3.67551-7.46934-7.94257a7.43557,7.43557,0,1,1,14.85192.05522Z"/>
    <path class="e5b255b8-af90-438f-aa36-3f028fb84973" d="M271.57693,353.94132c.01577.65464-.61521.3707-.94649.3786-2.58705.02366-5.17411.01576-7.75327.01576-.489,0-1.0648.1262-1.00169-.68619.04733-.59156-.23661-1.3172.75718-1.43551,1.19888-.14986,1.55382-1.0569,1.56171-2.05072.03156-5.48172.04732-10.96343,0-16.44516a2.86106,2.86106,0,0,0-2.02706-2.91832c-1.00168-.30761-.61521-1.049-.65464-1.64058-.06309-.83606.62311-.59943,1.0648-.63887,1.71157-.18141,3.431-.284,5.13468-.51268,1.18311-.15774,1.71157.05522,1.66423,1.43551-.10254,3.30481-.03156,6.60962-.03156,9.92231,0,3.26537.01577,6.52285-.00789,9.78822-.01577,1.38028.31549,2.51606,1.72733,3.05242.94649.36281.489,1.15944.5048,1.751Z"/>
    <path class="e5b255b8-af90-438f-aa36-3f028fb84973" d="M315.17829,352.71089a16.79924,16.79924,0,0,1-4.275,10.81357c-.29973.33915-.74142,1.14368-1.16734.67043a1.36225,1.36225,0,0,1-.07888-2.1217,10.83713,10.83713,0,0,0,3.21016-6.70426c.11831-.86762-.04732-1.11212-.92283-1.0648a2.41281,2.41281,0,0,1-2.38987-1.49073,6.39518,6.39518,0,0,1,.15776-6.1127c1.03324-1.8141,2.95776-1.82988,4.1172-.03944,1.18311,1.822,1.21467,3.9279,1.34874,6.0496Z"/>
    <path class="e5b255b8-af90-438f-aa36-3f028fb84973" d="M176.15557,349.91878a7.22132,7.22132,0,0,1-1.23832,4.08565c-1.08056,1.4355-2.50029,1.49072-3.62819.1262a7.46,7.46,0,0,1-.00788-8.37638,2.099,2.099,0,0,1,3.62819.09464,7.14412,7.14412,0,0,1,1.2462,4.07778Z"/>
    <path class="e5b255b8-af90-438f-aa36-3f028fb84973" d="M185.06042,354.23317a2.04166,2.04166,0,0,1-3.36791-.02366,6.68416,6.68416,0,0,1-1.41183-4.26707,6.77162,6.77162,0,0,1,1.41183-4.29861,2.03391,2.03391,0,0,1,3.36791,0c1.81409,2.04282,1.8062,6.53075-.00789,8.59723Z"/>
    <path class="e5b255b8-af90-438f-aa36-3f028fb84973" d="M269.39212,318.54283a5.50187,5.50187,0,0,1-1.30931,3.8727,2.12709,2.12709,0,0,1-3.39945.09464c-1.82987-1.90874-1.81408-6.20735.03156-8.11609a2.0852,2.0852,0,0,1,3.3048.03154A5.6306,5.6306,0,0,1,269.39212,318.54283Z"/>
    <path class="f00e4799-223b-448d-8e81-56aa595f9833" d="M247.33905,166.87667c-1.23832.04732-2.44509.02366-3.29691-1.36451,0,.78873.17352,1.49071-.46535,1.78254-.54423.2524-.8755-.32338-1.27775-.59944a5.02887,5.02887,0,0,0-2.8158-1.09634c-.54423,0-1.0569-.18141-1.11212-.73353-.03154-.35493-.20507-1.11212.6862-.98592.0631.00789.2445-.27606.2445-.418-.03944-1.47494.8755-1.22254,1.92452-1.34874,2.08227-.26028,4.06989.22874,6.09693.33916.57578.03155,1.21465.13408.93071,1.04113-.1262.41014.36282.55212.52056.85972a1.59477,1.59477,0,0,1-1.4355,2.524Z"/>
    <path class="a5f5cadc-9b00-4e68-865b-38b8ea973ac2" d="M221.224,188.37763a.63387.63387,0,0,1-.67043.702,11.13009,11.13009,0,0,1-2.27945-.13408A12.428,12.428,0,0,1,211.562,184.994c-.284-.33127-.70986-.57578-.20507-.9386a.71511.71511,0,0,1,1.15156.213c.51268,1.05691,1.63269,1.19888,2.51607,1.70367.22085.1262.44959.18141.5679-.071a.50667.50667,0,0,0-.18931-.44958c-1.191-.49691-.15774-1.04113-.02366-1.52226-.3707-.5048-1.00958.35493-1.15156-.48113-.0631-.35494-.26028-.69409.11831-.98592.489-.3786.82817.00788,1.20676.2445,1.18311.73353,2.13749,1.97185,3.8096,1.65635.32339-.0631.82818.16563.702.61521-.16564.61522-.1893,1.38029-.96226,1.64846-.20507.071-.45747.03944-.66254.1262-.29972.11831-.59943.284-.56789.67043.03155.39436.41015.24451.61521.36281a4.08106,4.08106,0,0,0,1.98762.24451C220.77441,188.04636,221.20032,187.92805,221.224,188.37763Z"/>
    <path class="ba63b95a-0e69-4eb0-9b46-1af2f71cf5a9" d="M223.606,196.32021a25.30633,25.30633,0,0,1-7.06709-.92282c2.84734-1.964,6.25468-2.50819,9.00737-4.95327a2.75214,2.75214,0,0,0,.14987,2.38987c.55211,1.13578-.89916,3.502-2.09805,3.48622Z"/>
    <path class="efc6d4a2-26d2-4474-978e-9a7d901f3396" d="M209.92139,189.80524c-1.6879-1.60113-1.27775-3.849-1.86931-5.8051C209.94505,185.5224,208.9197,187.96749,209.92139,189.80524Z"/>
    <path class="efc6d4a2-26d2-4474-978e-9a7d901f3396" d="M211.60928,193.22836c-1.52225.44169-2.11381-.59155-1.66423-3.10762C210.63124,191.23286,210.58392,192.51061,211.60928,193.22836Z"/>
    <path class="b1d8f5fc-707f-455e-aa16-e57020363017" d="M227.17106,171.7905a3.94659,3.94659,0,0,1,.32339-2.39776C228.78009,170.355,228.03868,171.08064,227.17106,171.7905Z"/>
    <path class="a6b4e376-83c0-4181-867b-60ecba14fdb1" d="M223.47977,165.64624a2.33938,2.33938,0,0,1-1.262,2.39776C222.56483,167.066,222.62,166.28512,223.47977,165.64624Z"/>
  </g>
</svg>
