<svg id="bb37ef64-ce64-4342-ac4c-406e916df59c" data-name="Layer 1" xmlns="http://www.w3.org/2000/svg" width="512" height="512" viewBox="0 0 512 512">
  <defs>
    <style>
      .be1da180-286d-47d6-b5ed-d1b60a999c87 {
        fill: #fff;
      }

      .bdb69df2-eef5-4d1c-8a14-3e3d7eec6da4 {
        fill: #741215;
      }

      .e4f80677-a8a9-4e2b-85e5-3aab74a4e323 {
        fill: #751316;
      }

      .af1e449c-e0ae-4e70-bfd5-ce32c2ab9d4a {
        fill: #751315;
      }

      .ada59ae6-29cc-43a4-8018-8d69001b7191 {
        fill: #771a19;
      }
    </style>
  </defs>
  <g id="a8b1b28a-22a4-435b-a737-96a119ee3376" data-name="Layer 1-2">
    <path class="be1da180-286d-47d6-b5ed-d1b60a999c87" d="M95.69743,234.828c.12711,14.15706-1.15,15.86389-15.06495,19.85257a42.45216,42.45216,0,0,1-23.006.27236c-14.00574-3.83735-21.88019-16.26941-21.42019-32.27857.79289-27.29123,23.50229-36.37014,44.89827-29.41569C87.593,195.365,91.9085,200.12838,94.039,206.68336c.2421.75658.83526,1.71289.58105,2.26368-1.19842,2.54815-4.03709,1.8642-5.92551,1.9792-2.37868.14526-5.12051,3.1413-7.38418-.18763-5.2113-7.6505-10.02313-9.90813-18.26678-7.941-7.17235,1.70684-11.39707,6.57919-12.68628,13.67285a35.82083,35.82083,0,0,0,.52658,15.77311c3.78894,14.19337,19.26546,16.17258,30.20858,8.55839,2.63289-1.82789,1.47079-4.83,1.15-7.16629-.29658-2.15473-2.68131-.87158-4.11578-1.05316a17.302,17.302,0,0,0-4.84209-.00605c-4.58182.75052-5.44129-1.24684-5.59866-5.52-.18158-5.01157,1.34368-6.63972,6.22208-5.986a62.47122,62.47122,0,0,0,8.24971.06053v.351c4.33367,0,10.15628-1.69473,12.62575.44184C97.70084,224.44777,95.66111,230.37933,95.69743,234.828Z"/>
    <path class="be1da180-286d-47d6-b5ed-d1b60a999c87" d="M110.88344,255.51583c-3.86157.10894-4.47288-1.30132-4.42446-4.70894q.29052-18.56638,0-37.13882c-.04842-3.28657.70815-4.85419,4.21867-4.28525a9.81633,9.81633,0,0,0,2.421.006c3.47421-.31473,6.49445-.18157,4.22472,6.28262,6.72445-7.30551,10.56787-8.49787,16.445-6.23419,2.08815.805,3.3592,1.77341,1.91867,4.19446a12.47032,12.47032,0,0,0-1.10763,3.17157c-.85342,3.17762-1.78551,5.05392-6.01629,3.38946-4.10972-1.6221-7.35392,1.156-8.49786,6.16761-1.58579,6.97866-.89579,14.08442-.96843,21.14177C119.01209,255.52188,119.07262,255.29188,110.88344,255.51583Z"/>
    <path class="be1da180-286d-47d6-b5ed-d1b60a999c87" d="M170.20507,269.30368c-6.03445,16.73546-12.17785,33.42857-18.04283,50.22457-1.06525,3.05657-2.306,4.20051-5.68945,4.12183-9.90207-.2179-9.93234-.02421-13.24916-9.206q-9.22419-25.54808-18.38784-51.10825c-.25421-.72026-.38132-1.48289-.67789-2.651,4.17025,0,8.03182.15737,11.87522-.04842,2.97183-.16342,2.86894,2.17288,3.43183,3.795,4.74524,13.62443,9.3876,27.27912,14.40522,41.92644,2.881-8.34049,5.48366-15.78521,8.01971-23.25413,2.01552-5.91945,4.1884-11.79654,5.81051-17.81889.95026-3.51656,2.421-4.81787,6.216-4.70287,9.39366.28447,9.41181.07868,6.28866,8.72181Z"/>
    <path class="be1da180-286d-47d6-b5ed-d1b60a999c87" d="M180.05267,250.60111c-1.33763-2.6692-.96236-5.6713-.99867-8.54024-.08474-6.43392.115-12.86785-.07869-19.28967-.10894-3.686-.5871-7.34787-3.69815-10.09576-6.63366-5.871-24.4586-5.67129-30.88042.43579a14.92566,14.92566,0,0,0-4.11578,6.43393c-.18158.59921-.59315,1.31342-.41763,1.80368.61737,1.731,10.61023,2.421,11.621.75052,2.68736-4.43051,6.7063-4.47288,11.046-3.54077a4.78251,4.78251,0,0,1,4.1884,5.0963c.006,2.9113-2.46341,2.5542-4.146,2.996-5.30208,1.3921-10.77365,2.26367-15.95468,3.99472-6.27051,2.08815-9.12129,7.79576-8.07418,14.70784a12.76327,12.76327,0,0,0,12.081,10.56786c6.11919.37526,12.03865.02421,17.31652-5.75.6658,6.791,4.90867,4.92682,8.18314,5.26577,3.9463.41763,6.2584-.16947,3.92815-4.836ZM166.743,237.1401c-.16947,6.7184-4.54551,10.93707-10.12,10.16839-2.92341-.40552-5.175-1.81578-5.61077-5.066-.42974-3.226,1.64026-4.70287,4.24288-5.526,2.59656-.82921,5.32024-1.265,7.941-2.02157,2.89315-.83526,4.54551-.48421,3.54683,2.44526Z"/>
    <path class="be1da180-286d-47d6-b5ed-d1b60a999c87" d="M190.094,320.3635c.06053,2.48763-.63552,3.22-3.20788,3.26236-9.3876.16343-9.3876.27843-9.3876-9.18181,0-10.78575.12711-21.56545-.07868-32.34515-.06053-3.341.85342-4.4063,4.29735-4.35788,8.31629.12711,8.32234-.04842,8.32234,8.34655v14.9681c-.006,6.43393-.115,12.87391.05447,19.30783Z"/>
    <path class="be1da180-286d-47d6-b5ed-d1b60a999c87" d="M190.28764,266.24106c.07869,5.53208-2.07,5.88919-6.63366,5.99814-5.03577.12711-6.24024-1.30131-6.39761-6.30077-.18158-5.82867,2.71157-5.74393,6.89393-5.10841C188.6716,259.6316,190.22106,261.054,190.28764,266.24106Z"/>
    <path class="be1da180-286d-47d6-b5ed-d1b60a999c87" d="M229.76277,298.2291c4.97525,8.056,9.60549,16.32389,14.835,25.32412-3.9463,0-7.16023-.16342-10.35.04843-2.4392.16342-3.74051-.70211-4.8784-2.86289-2.996-5.67735-6.29472-11.20338-9.51471-16.86257-4.29736,2.54209-5.99208,5.96787-5.73788,11.05206.43579,8.78234.115,8.79445-8.8005,8.625a5.74668,5.74668,0,0,0-.96842.00605c-2.191.3329-2.69342-.68394-2.68736-2.73578q.09985-28.75293,0-57.50586c-.0121-2.17894.79289-2.58446,2.81446-2.69341,9.76286-.51447,9.76286-.58105,9.76286,8.87313v23.85939c3.795-4.21867,7.20866-7.49314,9.97471-11.2397a9.92428,9.92428,0,0,1,9.91418-4.33972c2.68736.27843,5.41709.05447,8.93366.05447-3.88578,5.62288-8.37075,9.7205-12.60758,13.96337-2.26973,2.27578-2.33026,3.77684-.69,6.43393Z"/>
    <path class="be1da180-286d-47d6-b5ed-d1b60a999c87" d="M244.7914,246.04954c0-6.76682.0121-13.53364-.0121-20.30046-.01816-3.61341-.77473-6.80918-5.07815-7.57787-3.5771-.63552-7.596,2.11237-8.8005,6.07077a26.64093,26.64093,0,0,0-1.035,8.10445c.07263,6.6034-.07869,13.21285.07263,19.81625.06052,2.48762-.67184,3.25025-3.2442,3.32288-9.34523.26026-9.32707.36921-9.34523-8.9155q-.01815-10.6314-.09078-21.26282c-.02422-3.49236-.92-6.62761-4.98131-7.09366a8.057,8.057,0,0,0-8.70366,4.79367c-1.31946,2.69946-1.16815,5.64708-1.19842,8.52813-.07263,6.6034-.17553,13.2189.04841,19.81625.1029,3.15946-.8292,4.15815-4.07341,4.14-8.54629-.03026-8.55234.12711-8.55234-8.24365,0-11.276.10289-22.55809-.06053-33.8341-.04238-3.03841.63552-4.58183,3.95841-4.031a8.11566,8.11566,0,0,0,2.421,0c3.571-.52052,6.10709.16342,5.39288,4.73314,12.70443-7.88655,18.90231-7.6505,26.922.96842,5.47761-5.38077,11.71787-8.23155,19.59836-5.68945,5.55025,1.79157,8.87919,5.44129,9.0426,11.18522.30869,10.62233.17553,21.25677.29657,31.88516.02422,1.80973-.50841,2.40289-2.4271,2.58446-10.15628.94421-10.15022,1.01079-10.15022-9.00023Z"/>
    <path class="be1da180-286d-47d6-b5ed-d1b60a999c87" d="M288.83626,306.83592c-.13922-5.94366.4842-11.87522-.12106-17.831-.62342-6.10708-3.91-9.79918-9.66-11.14891a36.48219,36.48219,0,0,0-19.61652.39948c-4.64236,1.46473-7.43866,4.90866-9.17576,9.27865a3.392,3.392,0,0,0-.345,2.2092c.76868,1.74315,10.45285,2.46946,11.42733.76868,2.77209-4.84814,7.03919-4.39419,11.46365-3.51656,2.65711.52657,3.60735,2.48157,3.78288,4.93287.19369,2.67525-2.03973,2.47552-3.64972,2.875-5.30814,1.32552-10.74945,2.22736-15.93048,3.92815-6.45208,2.11236-9.2847,7.30551-8.64313,14.41732a12.78417,12.78417,0,0,0,10.61023,11.05813c4.65446.805,9.30286.5871,13.69706-1.68868,2.2092-1.15,4.951-5.36866,6.71235.59316.1029.33289,1.46474.40552,2.23947.41763,3.06262.04842,6.1313.0242,10.05338.0242-3.04447-5.78024-2.71762-11.26391-2.84474-16.71731Zm-19.1081,8.58865c-3.73447,1.15-7.82-.60526-8.67338-3.87367-1.07131-4.09156,1.45262-5.8226,4.836-6.89392.454-.14527.92605-.2421,1.39815-.345q4.42143-.97146,8.861-1.94289c1.17421,7.66865-.62342,11.26391-6.42181,13.05547Z"/>
    <path class="be1da180-286d-47d6-b5ed-d1b60a999c87" d="M337.44478,316.27193a14.58954,14.58954,0,0,1-7.22076,6.22814,31.71038,31.71038,0,0,1-24.08939-.18158,15.64584,15.64584,0,0,1-9.7689-11.90549c2.03973-.39947,3.916-.8171,5.81051-1.11368,3.40156-.54473,6.40971-1.42841,8.60075,3.111,1.92473,4.00682,11.16708,4.32761,14.53233,1.29525a3.15575,3.15575,0,0,0,1.30131-3.35314c-.47211-1.91263-1.94289-2.53-3.48631-2.8992-5.81655-1.37394-11.69969-2.49367-17.21969-4.86024-7.69286-3.30473-10.34391-11.42733-6.04655-18.39994a13.06328,13.06328,0,0,1,7.40839-5.9134,36.84677,36.84677,0,0,1,21.48071.16947,10.453,10.453,0,0,1,3.35919,1.89447c2.83868,2.22736,6.40366,5.61078,4.86631,8.47971-1.27106,2.37867-6.446,1.82183-9.94444,2.28184-.44789.05447-1.21052-.55684-1.47684-1.0471-2.77814-5.13867-7.52339-4.18841-11.99022-3.75262-1.725.16947-3.795.83526-3.78894,3.02026,0,1.78551,1.67053,2.60867,3.29262,3.06867,6.05261,1.71894,12.25654,3.02631,18.12152,5.21735,7.88655,2.94157,10.586,11.68154,6.2584,18.6602Z"/>
    <path class="be1da180-286d-47d6-b5ed-d1b60a999c87" d="M475.523,229.23539c.92-4.025-.95632-7.9955-2.34236-12.10522-6.17973-18.32126-27.09149-31.60069-46.35692-29.74253-9.30892.89578-17.19546,4.10972-23.19967,11.37285-2.09422,2.53-3.97657,2.63894-6.37944.14527a27.45661,27.45661,0,0,0-10.37419-6.95445c-19.84047-7.14814-39.90486-1.43447-51.50166,16.34205-7.06945,10.82812-11.20943,22.86676-5.27182,35.98277A46.01335,46.01335,0,0,0,340.3682,258.1245c1.87026,1.80973,1.93684,3.00209.29053,5.19314-5.94367,7.89261-3.571,16.06363,5.6713,19.556a6.917,6.917,0,0,1,4.70289,4.80577c1.79158,5.47156,5.38684,9.12129,11.46364,9.58129,2.13053.16342,3.04448,1.01683,3.4742,3.14736,1.13789,5.6834,4.836,8.9518,10.56181,9.7447,2.39685.32684,3.49237,1.21053,4.19446,3.7042,2.83867,10.11392,11.07627,13.27338,19.93124,7.7655,1.846-1.15,3.00813-1.58578,5.04789-.09079,8.33446,6.1313,17.54046,2.96578,20.49414-7.02708.74446-2.51183,1.93078-3.80709,4.43051-4.35788,5.37472-1.18631,8.171-5.04787,9.18786-10.04733.52657-2.59657,1.64027-3.15342,4.05526-3.67394,4.92077-1.0471,8.54022-4.3942,9.36943-9.26655.61738-3.58919,2.26973-4.715,5.3626-5.67129,8.98209-2.77815,12.305-11.25181,6.54893-18.55731-3.80708-4.836-1.79761-7.28735,1.30735-10.68891C472.25459,245.90428,476.38248,238.76825,475.523,229.23539Zm-124.139,46.29642a5.00021,5.00021,0,0,1-4.42446-2.76605,3.95953,3.95953,0,0,1,.74446-4.8784c3.105-3.45,6.19181-6.93024,9.51469-10.16839,2.34236-2.28183,5.28392-2.79631,7.68682-.18763,2.26973,2.46341,1.19235,5.02972-.805,7.251-2.5663,2.85683-5.14472,5.71366-7.76551,8.52207a6.11139,6.11139,0,0,1-4.951,2.22736Zm17.27414,11.5c-2.66918,2.80236-5.59866,2.12446-8.15285-.06053-2.7963-2.39684-1.42235-5.01156.49026-7.12392,3.01419-3.32289,6.27656-6.41578,9.44206-9.59945a5.69629,5.69629,0,0,1,4.74526-1.67051,4.40081,4.40081,0,0,1,3.9584,2.45131,4.67412,4.67412,0,0,1-.75052,5.37472Q373.61517,281.79627,368.65808,287.03177Zm15.646,13.50338c-1.1137,1.21657-2.38473,2.25157-3.98869,1.82789-2.86893.1392-4.49709-1.45869-5.74392-3.38947-1.43447-2.22736-.55077-4.6363.87763-6.26446a107.21809,107.21809,0,0,1,10.30762-10.2047c2.66918-2.306,5.33235-1.36184,7.66259,1.11368,2.25155,2.38473,1.86421,4.64235-.05449,6.85155-2.9658,3.40157-6.00418,6.74261-9.06074,10.0655Zm23.16937,2.57235c-3.20787,3.60131-6.39761,7.20867-9.61761,10.79786a5.26777,5.26777,0,0,1-4.18233,2.03973c-1.955-.05447-3.22-1.77947-4.40632-3.49841a3.773,3.773,0,0,1,.12106-4.92078c3.40762-3.85551,6.85762-7.67471,10.43469-11.37285,2.58448-2.66314,5.22947-1.74315,7.711.351C410.1608,298.72541,409.41631,300.92251,407.47344,303.1075Zm11.41522,8.12867c-.23606,2.68736-2.29393,3.98866-4.46077,4.78156-2.31816-.52053-4.58789-1.56158-4.07946-3.5771.5992-2.36051,2.63287-4.7392,5.21129-5.08419C417.50864,307.09618,419.07629,309.10564,418.88866,311.23617Zm39.5054-38.96066c-2.2213,3.02026-4.98734,2.37867-7.77759.96842a11.865,11.865,0,0,1-2.37867-1.65236c-3.63763-3.18367-7.29339-6.34919-10.84627-9.6297q-8.71573-8.04393-17.29837-16.23311c-2.33024-2.2213-4.63026-2.93551-7.06339-.28447-2.56024,2.7842-.52657,4.57577,1.45866,6.39761q13.88165,12.774,27.70884,25.60255a16.31112,16.31112,0,0,1,2.94762,3.78893c1.01077,1.76736,1.21052,3.7163-.23606,5.405a5.16012,5.16012,0,0,1-5.65918,1.77341c-2.9113-.805-5.15078-2.651-7.28733-4.59392-8.3526-7.596-16.63862-15.25258-24.97914-22.85466-2.20316-2.01552-4.27314-4.93893-7.596-1.32552-3.17762,3.456-.05449,5.15076,1.9429,7.03313,8.80049,8.31629,17.67969,16.54783,26.49229,24.83991a29.55511,29.55511,0,0,1,3.54683,3.94025c1.47683,2.01552.81106,4.00682-.59921,5.756-1.44658,1.77946-3.30474,2.60867-5.58049,1.65236a15.99093,15.99093,0,0,1-7.29944-6.81524c-2.84474-4.6242-6.02842-8.8126-11.85709-9.85365-1.97315-.351-2.4271-1.94894-2.89316-3.49236-1.731-5.71367-5.79235-8.83682-11.506-9.64786-2.54816-.36316-3.60737-1.45263-4.146-3.75262a11.99032,11.99032,0,0,0-9.72049-9.59339,5.41362,5.41362,0,0,1-4.06131-3.64972c-4.11577-9.72049-13.76969-11.845-21.37177-4.56367-2.65711,2.54815-4.38814,2.25762-6.87576-.03632-11.05811-10.2047-12.47442-23.98044-4.43051-37.048,7.27525-11.83285,17.73414-17.24389,30.947-17.64941,7.9592.2421,14.40521,2.74183,19.8223,8.31629,2.53605,2.60867,1.961,4.1763-.1392,6.2705-5.4776,5.47761-10.99152,10.931-16.336,16.52968-4.75128,4.97525-4.58183,6.93629,1.44053,10.18655,16.2331,8.746,22.19491,6.34918,33.67067-4.69683,7.021-6.75472,6.22813-5.175,12.02048.224,11.44547,10.67075,23.36307,20.84519,34.37277,31.982,1.88235,1.90052,3.63762,3.91,1.56764,6.70629Zm-1.52527-21.35361c-1.834,1.69473-2.88711.1271-4.031-.90789q-10.21379-9.25142-20.39731-18.527c-4.17631-3.78894-8.35865-7.56577-12.51073-11.37891-2.23342-2.04579-4.37-2.4392-6.73656-.12711-4.03708,3.9342-8.08022,7.8684-12.29891,11.60891-4.93892,4.376-10.72521,4.87235-15.59759,1.7492-1.43447-.92-2.49368-1.9792-.92607-3.36525,10.97339-9.70839,19.52573-21.86808,31.23752-30.80173,5.10234-3.89183,11.2397-4.74525,17.49206-4.0492,16.93519,1.88841,27.87832,11.41522,34.19119,26.801.96238,2.34236.60526,4.75735,1.01683,7.00287.19975,9.48444-4.9934,16.05758-11.43944,21.99519Z"/>
    <path class="bdb69df2-eef5-4d1c-8a14-3e3d7eec6da4" d="M475.523,229.23539c.92-4.025-.95632-7.9955-2.34236-12.10522-6.17973-18.32126-27.09149-31.60069-46.35692-29.74253-9.30892.89578-17.19546,4.10972-23.19967,11.37285-2.09422,2.53-3.97657,2.63894-6.37944.14527a27.45661,27.45661,0,0,0-10.37419-6.95445c-19.84047-7.14814-39.90486-1.43447-51.50166,16.34205-7.06945,10.82812-11.20943,22.86676-5.27182,35.98277A46.01335,46.01335,0,0,0,340.3682,258.1245c1.87026,1.80973,1.93684,3.00209.29053,5.19314-5.94367,7.89261-3.571,16.06363,5.6713,19.556a6.917,6.917,0,0,1,4.70289,4.80577c1.79158,5.47156,5.38684,9.12129,11.46364,9.58129,2.13053.16342,3.04448,1.01683,3.4742,3.14736,1.13789,5.6834,4.836,8.9518,10.56181,9.7447,2.39685.32684,3.49237,1.21053,4.19446,3.7042,2.83867,10.11392,11.07627,13.27338,19.93124,7.7655,1.846-1.15,3.00813-1.58578,5.04789-.09079,8.33446,6.1313,17.54046,2.96578,20.49414-7.02708.74446-2.51183,1.93078-3.80709,4.43051-4.35788,5.37472-1.18631,8.171-5.04787,9.18786-10.04733.52657-2.59657,1.64027-3.15342,4.05526-3.67394,4.92077-1.0471,8.54022-4.3942,9.36943-9.26655.61738-3.58919,2.26973-4.715,5.3626-5.67129,8.98209-2.77815,12.305-11.25181,6.54893-18.55731-3.80708-4.836-1.79761-7.28735,1.30735-10.68891C472.25459,245.90428,476.38248,238.76825,475.523,229.23539Zm-124.139,46.29642a5.00021,5.00021,0,0,1-4.42446-2.76605,3.95953,3.95953,0,0,1,.74446-4.8784c3.105-3.45,6.19181-6.93024,9.51469-10.16839,2.34236-2.28183,5.28392-2.79631,7.68682-.18763,2.26973,2.46341,1.19235,5.02972-.805,7.251-2.5663,2.85683-5.14472,5.71366-7.76551,8.52207a6.11139,6.11139,0,0,1-4.951,2.22736Zm17.27414,11.5c-2.66918,2.80236-5.59866,2.12446-8.15285-.06053-2.7963-2.39684-1.42235-5.01156.49026-7.12392,3.01419-3.32289,6.27656-6.41578,9.44206-9.59945a5.69629,5.69629,0,0,1,4.74526-1.67051,4.40081,4.40081,0,0,1,3.9584,2.45131,4.67412,4.67412,0,0,1-.75052,5.37472Q373.61517,281.79627,368.65808,287.03177Zm15.646,13.50338c-1.1137,1.21657-2.38473,2.25157-3.98869,1.82789-2.86893.1392-4.49709-1.45869-5.74392-3.38947-1.43447-2.22736-.55077-4.6363.87763-6.26446a107.21809,107.21809,0,0,1,10.30762-10.2047c2.66918-2.306,5.33235-1.36184,7.66259,1.11368,2.25155,2.38473,1.86421,4.64235-.05449,6.85155-2.9658,3.40157-6.00418,6.74261-9.06074,10.0655Zm23.16937,2.57235c-3.20787,3.60131-6.39761,7.20867-9.61761,10.79786a5.26777,5.26777,0,0,1-4.18233,2.03973c-1.955-.05447-3.22-1.77947-4.40632-3.49841a3.773,3.773,0,0,1,.12106-4.92078c3.40762-3.85551,6.85762-7.67471,10.43469-11.37285,2.58448-2.66314,5.22947-1.74315,7.711.351C410.1608,298.72541,409.41631,300.92251,407.47344,303.1075Zm11.41522,8.12867c-.23606,2.68736-2.29393,3.98866-4.46077,4.78156-2.31816-.52053-4.58789-1.56158-4.07946-3.5771.5992-2.36051,2.63287-4.7392,5.21129-5.08419C417.50864,307.09618,419.07629,309.10564,418.88866,311.23617Zm39.5054-38.96066c-2.2213,3.02026-4.98734,2.37867-7.77759.96842a11.865,11.865,0,0,1-2.37867-1.65236c-3.63763-3.18367-7.29339-6.34919-10.84627-9.6297q-8.71573-8.04393-17.29837-16.23311c-2.33024-2.2213-4.63026-2.93551-7.06339-.28447-2.56024,2.7842-.52657,4.57577,1.45866,6.39761q13.88165,12.774,27.70884,25.60255a16.31112,16.31112,0,0,1,2.94762,3.78893c1.01077,1.76736,1.21052,3.7163-.23606,5.405a5.16012,5.16012,0,0,1-5.65918,1.77341c-2.9113-.805-5.15078-2.651-7.28733-4.59392-8.3526-7.596-16.63862-15.25258-24.97914-22.85466-2.20316-2.01552-4.27314-4.93893-7.596-1.32552-3.17762,3.456-.05449,5.15076,1.9429,7.03313,8.80049,8.31629,17.67969,16.54783,26.49229,24.83991a29.55511,29.55511,0,0,1,3.54683,3.94025c1.47683,2.01552.81106,4.00682-.59921,5.756-1.44658,1.77946-3.30474,2.60867-5.58049,1.65236a15.99093,15.99093,0,0,1-7.29944-6.81524c-2.84474-4.6242-6.02842-8.8126-11.85709-9.85365-1.97315-.351-2.4271-1.94894-2.89316-3.49236-1.731-5.71367-5.79235-8.83682-11.506-9.64786-2.54816-.36316-3.60737-1.45263-4.146-3.75262a11.99032,11.99032,0,0,0-9.72049-9.59339,5.41362,5.41362,0,0,1-4.06131-3.64972c-4.11577-9.72049-13.76969-11.845-21.37177-4.56367-2.65711,2.54815-4.38814,2.25762-6.87576-.03632-11.05811-10.2047-12.47442-23.98044-4.43051-37.048,7.27525-11.83285,17.73414-17.24389,30.947-17.64941,7.9592.2421,14.40521,2.74183,19.8223,8.31629,2.53605,2.60867,1.961,4.1763-.1392,6.2705-5.4776,5.47761-10.99152,10.931-16.336,16.52968-4.75128,4.97525-4.58183,6.93629,1.44053,10.18655,16.2331,8.746,22.19491,6.34918,33.67067-4.69683,7.021-6.75472,6.22813-5.175,12.02048.224,11.44547,10.67075,23.36307,20.84519,34.37277,31.982,1.88235,1.90052,3.63762,3.91,1.56764,6.70629Zm-1.52527-21.35361c-1.834,1.69473-2.88711.1271-4.031-.90789q-10.21379-9.25142-20.39731-18.527c-4.17631-3.78894-8.35865-7.56577-12.51073-11.37891-2.23342-2.04579-4.37-2.4392-6.73656-.12711-4.03708,3.9342-8.08022,7.8684-12.29891,11.60891-4.93892,4.376-10.72521,4.87235-15.59759,1.7492-1.43447-.92-2.49368-1.9792-.92607-3.36525,10.97339-9.70839,19.52573-21.86808,31.23752-30.80173,5.10234-3.89183,11.2397-4.74525,17.49206-4.0492,16.93519,1.88841,27.87832,11.41522,34.19119,26.801.96238,2.34236.60526,4.75735,1.01683,7.00287.19975,9.48444-4.9934,16.05758-11.43944,21.99519Z"/>
    <path class="bdb69df2-eef5-4d1c-8a14-3e3d7eec6da4" d="M95.69743,234.828c.12711,14.15706-1.15,15.86389-15.06495,19.85257a42.45216,42.45216,0,0,1-23.006.27236c-14.00574-3.83735-21.88019-16.26941-21.42019-32.27857.79289-27.29123,23.50229-36.37014,44.89827-29.41569C87.593,195.365,91.9085,200.12838,94.039,206.68336c.2421.75658.83526,1.71289.58105,2.26368-1.19842,2.54815-4.03709,1.8642-5.92551,1.9792-2.37868.14526-5.12051,3.1413-7.38418-.18763-5.2113-7.6505-10.02313-9.90813-18.26678-7.941-7.17235,1.70684-11.39707,6.57919-12.68628,13.67285a35.82083,35.82083,0,0,0,.52658,15.77311c3.78894,14.19337,19.26546,16.17258,30.20858,8.55839,2.63289-1.82789,1.47079-4.83,1.15-7.16629-.29658-2.15473-2.68131-.87158-4.11578-1.05316a17.302,17.302,0,0,0-4.84209-.00605c-4.58182.75052-5.44129-1.24684-5.59866-5.52-.18158-5.01157,1.34368-6.63972,6.22208-5.986a62.47122,62.47122,0,0,0,8.24971.06053v.351c4.33367,0,10.15628-1.69473,12.62575.44184C97.70084,224.44777,95.66111,230.37933,95.69743,234.828Z"/>
    <path class="bdb69df2-eef5-4d1c-8a14-3e3d7eec6da4" d="M257.36872,252.46531c.02422,1.80973-.50841,2.40289-2.4271,2.58446-10.15628.94421-10.15022,1.01079-10.15022-9.00023,0-6.76682.0121-13.53364-.0121-20.30046-.01816-3.61341-.77473-6.80919-5.07815-7.57787-3.5771-.63552-7.596,2.11236-8.8005,6.07077a26.64085,26.64085,0,0,0-1.035,8.10445c.07263,6.6034-.07869,13.21285.07263,19.81625.06052,2.48762-.67184,3.25025-3.2442,3.32288-9.34523.26026-9.32707.36921-9.34523-8.9155q-.01815-10.6314-.09078-21.26282c-.02422-3.49236-.92-6.62761-4.98131-7.09366a8.057,8.057,0,0,0-8.70366,4.79367c-1.31946,2.69946-1.16815,5.64708-1.19842,8.52813-.07263,6.6034-.17553,13.2189.04841,19.81625.1029,3.15946-.8292,4.15815-4.07341,4.14-8.54629-.03026-8.55234.12711-8.55234-8.24365,0-11.276.10289-22.55809-.06053-33.8341-.04238-3.03841.63552-4.58183,3.95841-4.031a8.11566,8.11566,0,0,0,2.421,0c3.571-.52052,6.10709.16342,5.39288,4.73314,12.70443-7.88655,18.90231-7.6505,26.922.96842,5.47761-5.38077,11.71787-8.23155,19.59836-5.68945,5.55025,1.79157,8.87919,5.44129,9.0426,11.18522.30869,10.62233.17553,21.25677.29657,31.88516Z"/>
    <path class="bdb69df2-eef5-4d1c-8a14-3e3d7eec6da4" d="M170.20507,269.30368c-6.03445,16.73546-12.17785,33.42857-18.04283,50.22457-1.06525,3.05657-2.306,4.20051-5.68945,4.12183-9.90207-.2179-9.93234-.02421-13.24916-9.206q-9.22419-25.54808-18.38784-51.10825c-.25421-.72026-.38132-1.48289-.67789-2.651,4.17025,0,8.03182.15737,11.87522-.04842,2.97183-.16342,2.86894,2.17288,3.43183,3.795,4.74524,13.62443,9.3876,27.27912,14.40522,41.92644,2.881-8.34049,5.48366-15.78521,8.01971-23.25413,2.01552-5.91945,4.1884-11.79654,5.81051-17.81889.95026-3.51656,2.421-4.81787,6.216-4.70287,9.39366.28447,9.41181.07868,6.28866,8.72181Z"/>
    <path class="bdb69df2-eef5-4d1c-8a14-3e3d7eec6da4" d="M244.59771,323.55322c-3.9463,0-7.16023-.16342-10.35.04843-2.4392.16342-3.74051-.70211-4.8784-2.86289-2.996-5.67735-6.29471-11.20338-9.51471-16.86257-4.29735,2.54209-5.99208,5.96787-5.73788,11.05206.43579,8.78234.115,8.79445-8.8005,8.625a5.74669,5.74669,0,0,0-.96842.00605c-2.191.3329-2.69342-.68394-2.68736-2.73578q.09985-28.75293,0-57.50586c-.0121-2.17894.79289-2.58446,2.81446-2.69341,9.76286-.51447,9.76286-.58105,9.76286,8.87313v23.85939c3.795-4.21867,7.20866-7.49314,9.97471-11.2397a9.92428,9.92428,0,0,1,9.91418-4.33972c2.68736.27843,5.4171.05447,8.93366.05447-3.88578,5.62288-8.37075,9.7205-12.60758,13.96337-2.26973,2.27578-2.33026,3.77684-.69,6.43393,4.97525,8.056,9.6055,16.3239,14.835,25.32413Z"/>
    <path class="bdb69df2-eef5-4d1c-8a14-3e3d7eec6da4" d="M180.05267,250.60111c-1.33763-2.6692-.96236-5.6713-.99867-8.54024-.08474-6.43392.115-12.86785-.07869-19.28967-.10894-3.686-.5871-7.34787-3.69815-10.09576-6.63366-5.871-24.4586-5.67129-30.88042.43579a14.92566,14.92566,0,0,0-4.11578,6.43393c-.18158.59921-.59315,1.31342-.41763,1.80368.61737,1.731,10.61023,2.421,11.621.75052,2.68736-4.43051,6.7063-4.47288,11.046-3.54077a4.78251,4.78251,0,0,1,4.1884,5.0963c.006,2.9113-2.46341,2.5542-4.146,2.996-5.30208,1.3921-10.77365,2.26367-15.95468,3.99472-6.27051,2.08815-9.12129,7.79576-8.07418,14.70784a12.76327,12.76327,0,0,0,12.081,10.56786c6.11919.37526,12.03865.02421,17.31652-5.75.6658,6.791,4.90867,4.92682,8.18314,5.26577,3.9463.41763,6.2584-.16947,3.92815-4.836ZM166.743,237.1401c-.16947,6.7184-4.54551,10.93707-10.12,10.16839-2.92341-.40552-5.175-1.81578-5.61077-5.066-.42974-3.226,1.64026-4.70287,4.24288-5.526,2.59656-.82921,5.32024-1.265,7.941-2.02157,2.89315-.83526,4.54551-.48421,3.54683,2.44526Z"/>
    <path class="bdb69df2-eef5-4d1c-8a14-3e3d7eec6da4" d="M288.83626,306.83592c-.13922-5.94366.4842-11.87522-.12106-17.831-.62342-6.10708-3.91-9.79918-9.66-11.14891a36.48219,36.48219,0,0,0-19.61652.39948c-4.64236,1.46473-7.43866,4.90866-9.17576,9.27865a3.392,3.392,0,0,0-.345,2.2092c.76868,1.74315,10.45285,2.46946,11.42733.76868,2.77209-4.84814,7.03919-4.39419,11.46365-3.51656,2.65711.52657,3.60735,2.48157,3.78288,4.93287.19369,2.67525-2.03973,2.47552-3.64972,2.875-5.30814,1.32552-10.74945,2.22736-15.93048,3.92815-6.45208,2.11236-9.2847,7.30551-8.64313,14.41732a12.78417,12.78417,0,0,0,10.61023,11.05813c4.65446.805,9.30286.5871,13.69706-1.68868,2.2092-1.15,4.951-5.36866,6.71235.59316.1029.33289,1.46474.40552,2.23947.41763,3.06262.04842,6.1313.0242,10.05338.0242-3.04447-5.78024-2.71762-11.26391-2.84474-16.71731Zm-19.1081,8.58865c-3.73447,1.15-7.82-.60526-8.67338-3.87367-1.07131-4.09156,1.45262-5.8226,4.836-6.89392.454-.14527.92605-.2421,1.39815-.345q4.42143-.97146,8.861-1.94289c1.17421,7.66865-.62342,11.26391-6.42181,13.05547Z"/>
    <path class="bdb69df2-eef5-4d1c-8a14-3e3d7eec6da4" d="M337.44478,316.27193a14.58954,14.58954,0,0,1-7.22076,6.22814,31.71038,31.71038,0,0,1-24.08939-.18158,15.64584,15.64584,0,0,1-9.7689-11.90549c2.03973-.39947,3.916-.8171,5.81051-1.11368,3.40156-.54473,6.40971-1.42841,8.60075,3.111,1.92473,4.00682,11.16708,4.32761,14.53233,1.29525a3.15575,3.15575,0,0,0,1.30131-3.35314c-.47211-1.91263-1.94289-2.53-3.48631-2.8992-5.81655-1.37394-11.69969-2.49367-17.21969-4.86024-7.69286-3.30473-10.34391-11.42733-6.04655-18.39994a13.06328,13.06328,0,0,1,7.40839-5.9134,36.84677,36.84677,0,0,1,21.48071.16947,10.453,10.453,0,0,1,3.35919,1.89447c2.83868,2.22736,6.40366,5.61078,4.86631,8.47971-1.27106,2.37867-6.446,1.82183-9.94444,2.28184-.44789.05447-1.21052-.55684-1.47684-1.0471-2.77814-5.13867-7.52339-4.18841-11.99022-3.75262-1.725.16947-3.795.83526-3.78894,3.02026,0,1.78551,1.67053,2.60867,3.29262,3.06867,6.05261,1.71894,12.25654,3.02631,18.12152,5.21735,7.88655,2.94157,10.586,11.68154,6.2584,18.6602Z"/>
    <path class="e4f80677-a8a9-4e2b-85e5-3aab74a4e323" d="M135.687,213.63176a12.47046,12.47046,0,0,0-1.10763,3.17157c-.85342,3.17762-1.78551,5.05392-6.01629,3.38946-4.10972-1.6221-7.35392,1.156-8.49786,6.16761-1.58579,6.97866-.89579,14.08442-.96843,21.14177-.08473,8.01971-.0242,7.78971-8.21339,8.01366-3.86156.10894-4.47288-1.30132-4.42446-4.70894q.29054-18.56638,0-37.13882c-.04842-3.28657.70816-4.85419,4.21867-4.28525a9.81641,9.81641,0,0,0,2.42105.006c3.4742-.31473,6.49445-.18157,4.22472,6.28262,6.72445-7.30551,10.56787-8.49787,16.445-6.23419C135.85651,210.24229,137.12756,211.21071,135.687,213.63176Z"/>
    <path class="af1e449c-e0ae-4e70-bfd5-ce32c2ab9d4a" d="M186.88607,323.62586c-9.3876.16343-9.3876.27843-9.3876-9.18181,0-10.78575.12711-21.56545-.07868-32.34515-.06053-3.341.85342-4.4063,4.29735-4.35788,8.31629.12711,8.32234-.04842,8.32234,8.34655v14.9681c-.006,6.43393-.115,12.87391.05447,19.30783.06053,2.48762-.63552,3.22-3.20788,3.26235Z"/>
    <path class="ada59ae6-29cc-43a4-8018-8d69001b7191" d="M190.28764,266.24106c.07869,5.53208-2.07,5.88919-6.63366,5.99814-5.03577.12711-6.24024-1.30131-6.39761-6.30077-.18158-5.82867,2.71157-5.74393,6.89393-5.10841C188.6716,259.6316,190.22106,261.054,190.28764,266.24106Z"/>
  </g>
</svg>
