<svg id="a2b0ed9b-274c-4f04-b190-6511867e5ada" data-name="Layer 1" xmlns="http://www.w3.org/2000/svg" width="512" height="512" viewBox="0 0 512 512">
  <defs>
    <style>
      .bd5cec98-b23e-4991-847a-5ef0ea7888fb {
        fill: #006cb7;
      }
    </style>
  </defs>
  <g id="b412cc75-5003-4c85-89a8-4db836366cda" data-name="#006cb7ff">
    <path class="bd5cec98-b23e-4991-847a-5ef0ea7888fb" d="M254.5131,230.82024c19.74782-3.96254,40.13241-3.9017,60.0749-1.52093,8.24144,1.07073,16.81953,2.15364,24.0835,6.50554,4.24241,2.45783,7.52356,6.9233,7.67768,11.94036-13.59512.27985-27.19025.13789-40.78133.09734-4.05989-4.74127-10.54921-6.2257-16.52344-6.49744-8.0062-.26768-16.32876.33663-23.6617,3.82465-6.19729,2.93641-11.51449,8.37528-13.153,15.16879-.799,3.09459,1.20054,6.29464,3.91793,7.6939,5.2523,2.6809,11.27521,2.9932,17.05882,3.20816,7.56816.30419,15.45269-1.1113,21.87713-5.30908.63677-.361,1.19242-1.0464,2.00358-.945q20.61777-.073,41.23965.03244c-4.73317,5.29691-11.0278,8.935-17.582,11.50638-8.21711,3.22844-16.94523,4.92378-25.66526,6.0878a219.91126,219.91126,0,0,1-29.1695,1.71967c-13.18551-.073-26.52105-.92879-39.24013-4.61959-5.86473-1.82917-11.78218-4.63175-15.60683-9.62042a13.91507,13.91507,0,0,1-1.54527-14.26434c2.7093-6.00262,8.01026-10.34236,13.57081-13.61136A105.341,105.341,0,0,1,254.5131,230.82024Z"/>
    <path class="bd5cec98-b23e-4991-847a-5ef0ea7888fb" d="M81.5402,229.54671c14.28867-.23118,28.58141.13384,42.87414.07706-2.62818,5.93368-5.29691,11.85518-7.93319,17.78886,13.90742.02433,27.81485-.04867,41.72229.0365,2.72145-5.9134,5.25634-11.92007,7.98186-17.83347,14.68614-.01622,29.36824-.05273,44.05439.00406q-11.95455,26.4156-23.84015,52.85553c-12.30132.26769-24.6067.10545-36.908.142a46.51168,46.51168,0,0,1-6.972-.24741c3.25278-6.91924,6.323-13.92365,9.45008-20.89562q-20.922-.00609-41.848-.00406c-3.02565,6.99225-6.14863,13.94394-9.07694,20.97268-14.455.30825-28.90994.19063-43.3649.10951C65.51562,264.82835,73.65567,247.24228,81.5402,229.54671Z"/>
    <path class="bd5cec98-b23e-4991-847a-5ef0ea7888fb" d="M366.95277,229.45748h44.30588q-8.97352,20.125-18.0444,40.20541,30.52824.01825,61.0605.05678-2.902,6.4366-5.80389,12.86914-52.64262.0426-105.28116-.00405C351.01338,264.83241,359.01148,247.15711,366.95277,229.45748Z"/>
  </g>
</svg>
