<svg id="Layer_1" data-name="Layer 1" xmlns="http://www.w3.org/2000/svg" width="512" height="512" viewBox="0 0 512 512">
  <defs>
    <style>
      .cls-1 {
        fill: #981a1d;
      }

      .cls-2, .cls-3 {
        fill: #fff;
      }

      .cls-2 {
        fill-rule: evenodd;
      }
    </style>
  </defs>
  <g id="surface1">
    <rect class="cls-1" x="36.04077" y="171.50513" width="443.41706" height="170.70021"/>
    <path class="cls-2" d="M68.15943,205.53381H169.34949V308.17663H68.15943Zm7.95616,8.06975h85.2791V300.1069H76.11558V213.60356"/>
    <path class="cls-2" d="M85.10485,222.80263h67.29921v16.94543H85.10485V222.80263"/>
    <path class="cls-2" d="M85.10485,248.38184H127.147v16.94677H85.10485V248.38184"/>
    <path class="cls-2" d="M85.10485,273.96236h16.86524v16.94543H85.10485V273.96236"/>
    <path class="cls-3" d="M194.88191,249.2038H201.841V214.1542h-6.95906v35.0496"/>
    <path class="cls-3" d="M208.42461,214.1542v35.0496h14.01182c10.43936,0,14.48226-5.6213,14.48226-17.69653,0-12.56307-3.809-17.353-14.43548-17.353Zm12.36659,6.01289c8.08713,0,9.07475,1.85639,9.07475,11.38961,0,8.94517-1.55167,11.63418-8.32231,11.63418h-6.15991V220.167h5.40743"/>
    <path class="cls-3" d="M242.37426,249.2038h6.95779V234.39272H263.956v-6.01425h-14.6239v-8.21142h16.73961v-6.01288H242.37426v35.04959"/>
    <path class="cls-3" d="M291.60406,237.66716c-.564,4.64432-2.77325,6.15989-7.42825,6.15989-6.49,0-8.37047-4.05757-8.37047-11.3415,0-9.3862,2.53937-12.95464,8.27691-12.95464,5.73623,0,6.72256,2.395,7.52181,5.52374h6.95914c-1.128-8.01765-6.20669-11.68365-14.48091-11.68365-10.48615,0-15.32961,5.8672-15.32961,18.47839,0,12.90655,5.12545,18.13763,15.2815,18.13763,10.39127,0,14.05994-5.47558,14.529-12.31982h-6.95914"/>
    <path class="cls-3" d="M317.18462,249.2038h6.95906V234.39272H338.7676v-6.01425H324.14368v-8.21142h16.7396v-6.01288H317.18462v35.04959"/>
    <path class="cls-3" d="M345.44479,249.2038h6.95779V214.1542h-6.95779v35.0496"/>
    <path class="cls-3" d="M358.98617,249.2038h6.95914V235.41918h6.25341l8.27691,13.78462H388.937l-8.79282-14.22565c3.8558-.92887,6.58624-3.47088,6.58624-10.31373,0-10.31507-6.11447-10.5102-13.12041-10.5102H358.98617Zm13.63625-29.03669c5.87656,0,7.0527.73239,7.0527,4.25272,0,4.39975-1.88045,4.98648-7.47636,4.98648h-6.25345v-9.2392h6.67714"/>
    <path class="cls-3" d="M390.8188,238.20443c.425,7.2839,3.4321,11.78255,14.43549,11.78255,5.0319,0,13.16579-.92885,13.16579-10.80423,0-6.9912-4.04422-8.94649-8.83823-10.26561l-7.52312-2.10232c-1.974-.53727-3.43214-1.271-3.43214-3.813,0-2.78659,1.78554-3.47089,5.31393-3.47089,6.01822,0,6.15855,1.95529,6.486,4.8889h6.9591c-.139-6.25746-3.24232-11.04877-13.16448-11.04877-10.43938,0-12.64992,5.28049-12.64992,10.31506,0,6.40447,3.6206,8.45734,7.71293,9.58134l8.17935,2.29744c2.963.83131,3.9039,2.00474,3.9039,4.1552,0,3.56979-2.58613,4.107-6.11313,4.107-6.67581,0-7.19168-1.95529-7.47636-5.62263h-6.95907"/>
    <path class="cls-3" d="M430.27079,249.2038h6.95914v-28.891h10.1079V214.1542H420.11344v6.15857h10.15735v28.891"/>
    <path class="cls-3" d="M194.64535,264.65367v35.04959h16.27454c9.3675,0,11.92288-4.3503,11.92288-10.11862,0-3.666-1.04114-6.98987-5.20432-8.65246,1.46615-.63483,3.87852-1.76017,3.87852-7.18633,0-6.64772-3.64323-9.09218-10.31373-9.09218Zm13.53066,6.01288c5.914,0,6.57556.68429,6.57556,3.61654,0,3.61791-1.04114,4.15649-5.25108,4.15649h-7.8532v-7.77306Zm1.13465,13.78461c5.10941,0,6.4352.53862,6.4352,4.74322,0,4.00814-1.41936,4.49731-7.80647,4.49731h-6.29223v-9.24053h7.66348"/>
    <path class="cls-3" d="M233.72312,281.76347c.33146-2.19985.99436-2.98173,4.25809-2.98173,3.07531,0,4.25808.68428,4.25808,3.07929v1.56372l-8.23149,1.32046c-3.64323.58672-7.2398,2.7372-7.2398,8.45734,0,4.39976,2.13039,7.13689,8.09115,7.13689,3.97341,0,6.38711-1.22156,7.66346-2.59147v1.95529h6.29351V280.83463c0-5.62266-3.64323-7.5285-10.55029-7.5285-6.71857,0-10.40862,1.80828-10.74008,8.45734Zm8.51616,8.11519c0,3.17685-.993,5.42616-5.01455,5.42616-2.93365,0-3.87985-1.07586-3.87985-3.03119,0-2.7372,1.79761-3.27575,4.30487-3.66732l4.58953-.78184v2.05426"/>
    <path class="cls-3" d="M270.72,299.70326h6.57686V283.96337c0-7.82251-1.65731-10.6572-8.043-10.6572-4.58953,0-6.5288,1.46612-8.32636,3.96V273.941H254.682v25.7623h6.57554V287.48234c0-6.061.52125-8.603,5.20431-8.603,4.21128,0,4.25808,2.05285,4.25808,6.01289V299.7033"/>
    <path class="cls-3" d="M283.684,299.70326h6.57556V291.54l2.83872-3.03119,6.05565,11.19448h7.61668l-9.036-15.98449,8.7046-9.77781H298.3493l-8.08983,9.53324V264.65367h-6.57555v35.04959"/>
  </g>
</svg>
