<svg id="Layer_1" data-name="Layer 1" xmlns="http://www.w3.org/2000/svg" xmlns:xlink="http://www.w3.org/1999/xlink" width="512" height="512" viewBox="0 0 512 512">
  <defs>
    <style>
      .cls-1 {
        fill: none;
      }

      .cls-2 {
        clip-path: url(#clip-path);
      }

      .cls-3 {
        clip-path: url(#clip-path-2);
      }

      .cls-4 {
        fill: #165b99;
      }
    </style>
    <clipPath id="clip-path">
      <rect class="cls-1" x="-151.98333" y="-32.88462" width="819.46525" height="579.47972"/>
    </clipPath>
    <clipPath id="clip-path-2">
      <rect class="cls-1" x="-151.98333" y="-32.88462" width="819.46593" height="579.47972"/>
    </clipPath>
  </defs>
  <g class="cls-2">
    <g class="cls-3">
      <path class="cls-4" d="M453.89493,359.61642l-5.57255-1.87151c-22.30254-7.4826-60.589-15.38369-92.5203-16.86769a36.03431,36.03431,0,0,0,12.7158-17.43689,36.024,36.024,0,0,0,17.894-22.57721,1.85169,1.85169,0,0,0,.44532.04957,2.00554,2.00554,0,0,0,1.78962-1.0896A207.28558,207.28558,0,0,0,400.75,271.65684a2.009,2.009,0,0,0-.18035-1.62786,33.03728,33.03728,0,0,0,5.08938-22.59714,2.004,2.004,0,0,0,.83215-1.38351c.63324-5.02739,1.03314-10.13671,1.18387-15.16412.05647-1.64024.08125-3.319.08125-4.99643,0-.3882,0-.77641-.00621-1.1708a1.747,1.747,0,0,0,.06263-.51348,161.5939,161.5939,0,0,0-3.92542-32.5074,2.05744,2.05744,0,0,0-.53824-.95814c-.37583-12.56646-7.74553-21.09389-12.5231-25.33868-.69449-16.63572-12.722-25.6078-18.0123-28.75753a33.638,33.638,0,0,0-18.80874-20.38008A36.44685,36.44685,0,0,0,338.8222,104.3718c-5.78521-8.35262-12.61115-12.69719-19.15353-14.7759-.02478-.01928-.05024-.04406-.075-.06263-7.40687-5.49134-25.41993-10.85048-37.19687-12.25327-6.10462-2.92942-17.463-3.79464-24.39431-3.79464-4.99574,0-15.55852.39507-22.68321,3.44431-10.87593.044-33.63484,6.25464-42.21254,12.6036-.02548.01857-.044.04335-.06953.06263-6.54924,2.07871-13.37312,6.42328-19.15835,14.7759a36.49253,36.49253,0,0,0-15.18408,11.88987,33.656,33.656,0,0,0-18.808,20.38008c-5.28414,3.14973-17.31852,12.12181-18.00683,28.75753-4.78373,4.24479-12.14658,12.77222-12.52858,25.33868a1.99472,1.99472,0,0,0-.532.95814,161.0101,161.0101,0,0,0-3.93162,32.5074,1.98306,1.98306,0,0,0,.06194.51348v1.1708c0,1.6843.02616,3.36239.07571,4.99023.15006,5.03361.55135,10.13673,1.18872,15.17032a2.00542,2.00542,0,0,0,.82734,1.38351,33.008,33.008,0,0,0,5.09623,22.59714,2.033,2.033,0,0,0-.18791,1.62786,208.32455,208.32455,0,0,0,12.10252,28.16625,2.018,2.018,0,0,0,1.79786,1.0896,1.83075,1.83075,0,0,0,.444-.05644,36.06122,36.06122,0,0,0,17.88773,22.58408c1.63473,4.64539,5.30962,12.27114,12.923,17.57456-31.38685,1.77241-68.22028,9.44773-89.92745,16.73l-5.57326,1.87151,25.37655,8.89776-7.61955,21.73814,3.98873-1.43993c20.2225-7.3002,59.84976-15.12076,86.59673-15.12076a231.09808,231.09808,0,0,1,58.74845,7.30019l7.26857,1.94791-16.31018-16.30395a137.3027,137.3027,0,0,1,76.1916,0l-16.31018,16.30395,7.26992-1.94791a231.01031,231.01031,0,0,1,58.7478-7.30019c26.747,0,66.368,7.82056,86.59742,15.12076l3.98874,1.43993-7.62025-21.73814Zm-88.01257-39.09453a34.82674,34.82674,0,0,1-1.91625,5.1286,33.32039,33.32039,0,0,1-4.71422,7.46882,28.57591,28.57591,0,0,1-7.79581,6.51208c-4.33217-2.08488-8.83441-4.01352-13.46671-5.779h-.00689c-1.00767-.3951-2.02778-.77641-3.0492-1.14535q.69483-.95814,1.50257-1.91625c.15073-.18172.307-.35724.46393-.53894a30.81234,30.81234,0,0,1,13.17284-8.83375c.31936-.11358.64562-.21957.97117-.32006a34.80473,34.80473,0,0,1,4.06931-1.01388c1.01385-.18791,2.0477-.34415,3.11112-.45153a47.50434,47.50434,0,0,1,7.93344-.16243c-.06881.29458-.16313.65112-.2753,1.05172m-45.61213-3.24262a.936.936,0,0,0-.02546-.22577,3.2035,3.2035,0,0,0-.14385-.50659,1.58392,1.58392,0,0,0-.09431-.24435,2.53609,2.53609,0,0,0-.413-.62017l-.0936-.15624-.15695-.10668-.08121-.08741-.11288-.05713a3.14715,3.14715,0,0,0-.63878-.35655l-.20027-.06264a2.88382,2.88382,0,0,0-.73855-.12528,31.26067,31.26067,0,0,0,8.87776-11.6145c.37651-.826.70142-1.64574.99533-2.46689a38.35717,38.35717,0,0,1,9.17927-4.49534c.62017-.212,1.25891-.4123,1.91-.60091.7833-.23127,1.5776-.44395,2.39808-.64356.26912-.0702.55063-.13215.826-.19548a34.61293,34.61293,0,0,1-1.11438,10.09955c-.17552.68211-.37579,1.37111-.61328,2.07868-.29391.88931-.63873,1.80336-1.03935,2.71744a1.20944,1.20944,0,0,0-.06264.137,29.94965,29.94965,0,0,1-2.279,4.19524,28.22319,28.22319,0,0,1-9.16688,8.76561,33.70028,33.70028,0,0,1-4.61445,2.323h-.00617c-.89551.37512-1.81509.72-2.7739,1.03313a19.17678,19.17678,0,0,1-2.44143.97052,37.451,37.451,0,0,0,2.586-8.959v-.01926a2.68707,2.68707,0,0,0,.05024-.63876ZM234.536,319.18245a2.50815,2.50815,0,0,0,.00622.74475,2.07771,2.07771,0,0,0,.05642.26293,3.4114,3.4114,0,0,0,.16934.49489c.00618.02478.01857.04337.02475.06333q-6.65832.62878-13.19208,1.63335a27.48928,27.48928,0,0,1-4.88357-4.03211,29.71634,29.71634,0,0,1-2.15441-2.48548c-.04268-.06195-.09293-.11908-.13767-.18172v-.00687a34.78632,34.78632,0,0,1-6.192-13.73656c.3944-.00551.78329-.0124,1.1708-.00551,1.3147.00551,2.59217.05645,3.83872.16244a36.34029,36.34029,0,0,1,14.0683,3.86278,31.316,31.316,0,0,1,9.71067,7.96993c.45154.5582.8769,1.12125,1.2713,1.67878-.77641.46943-1.559.97052-2.34783,1.49637-.05575.03787-.12527.06883-.18169.11288a2.731,2.731,0,0,0-.6195.563l-.126.16931a2.58548,2.58548,0,0,0-.338.65115l-.06263.10669-.01857.11908-.06882.17482Zm-38.59273-1.02007c.669.00618,1.33324.031,1.98439.06262.93953.04338,1.85981.11841,2.76012.212.27669.03166.54514.06333.81493.09429a36.19884,36.19884,0,0,1,13.4234,4.25719h.00689c.31319.17552.61945.35724.92575.54515q-6.67793,1.1832-13.17284,2.7491-1.972.46976-3.913.98221c-.08742-.17552-.16863-.34965-.24366-.52517v-.0062a34.61062,34.61062,0,0,1-2.586-8.3712m-3.46908-.10668v.01926a37.12524,37.12524,0,0,0,2.5853,8.959,19.21833,19.21833,0,0,1-2.44143-.97052c-.95126-.31317-1.8784-.658-2.7739-1.03313a33.404,33.404,0,0,1-4.61441-2.31684,28.17736,28.17736,0,0,1-9.17927-8.77181,29.87551,29.87551,0,0,1-2.2783-4.19524c-.01928-.04886-.044-.0936-.06264-.14318-.40059-.914-.74475-1.82193-1.04-2.71124q-.35721-1.06136-.61878-2.08557a34.71767,34.71767,0,0,1-1.10267-10.09266c.276.06333.55753.12528.82665.19548.82046.19961,1.61545.41229,2.39808.64356.65112.18861,1.283.3889,1.90935.60778a38.27294,38.27294,0,0,1,9.17859,4.48847c.2884.815.61466,1.634.9898,2.46138a31.24635,31.24635,0,0,0,8.88467,11.62,2.975,2.975,0,0,0-.74544.12528l-.1934.06264a2.99341,2.99341,0,0,0-.63945.35655l-.11219.05713-.08123.08741-.15693.10668-.0998.15624a2.381,2.381,0,0,0-.40748.62017c-.03716.08192-.06884.15626-.10049.24435a4.3235,4.3235,0,0,0-.13767.50659,1.41521,1.41521,0,0,0-.031.22577l-.00619.13767a2.401,2.401,0,0,0,.05024.63876M155.744,303.98735c.43228.03718.86383.08053,1.28438.13011.25606.02615.51279.05711.76334.08809a44.52067,44.52067,0,0,1,7.19695,1.48812,37.1137,37.1137,0,0,1,4.25031,1.54319c.0998.3242.20718.65665.31937.98841A32.21133,32.21133,0,0,0,188.07243,327.979c.031.04819.05161.09843.08054.14592.05161.08535.0991.1707.14178.25673.02752.05575.05369.11219.07776.16933a3.21224,3.21224,0,0,1,.13217.36755c.01032.03235.0179.0647.02685.097a3.2669,3.2669,0,0,1,.075.39784c.00412.03718.00895.073.0117.10944a3.26742,3.26742,0,0,1,.00412.49216c-2.82758.88034-5.14578,1.65813-6.9464,2.29a.255.255,0,0,0-.02134.0172l-.00825-.00758-.0062.00208-.10669-.10669c-.01033-.011-.02065-.01859-.031-.02959a34.7993,34.7993,0,0,0-18.14793-14.09381c-.02684-.00895-.05163-.01926-.07915-.0289-.05369-.01721-.11082-.03166-.16451-.04956-.552-.18241-1.11437-.35587-1.69254-.51623v-.00138c-.54927-.14937-1.10544-.29322-1.67328-.424a33.93881,33.93881,0,0,1-3.08707-7.8825v-.0062a32.35727,32.35727,0,0,1-.91408-5.19054m8.58045-92.35579-.50728-.13147c-.10669-.02548-.21337-.05025-.31937-.08123a35.97063,35.97063,0,0,0,2.07938-22.88484,36.38214,36.38214,0,0,0,11.726-25.52664,37.7958,37.7958,0,0,0,11.4149-16.86077,37.57633,37.57633,0,0,0,18.18235-15.87238c8.30167-.38823,18.351-3.55582,27.31618-13.7999a150.19777,150.19777,0,0,0,16.56758,5.18432,13.76378,13.76378,0,0,0,7.72624,2.52957c2.96111,0,5.77836-1.45854,8.42077-3.87589,3.9137-1.12674,7.78271-2.429,11.55256-3.838,8.97208,10.24408,19.01519,13.41167,27.31689,13.7999a37.5786,37.5786,0,0,0,18.18854,15.87238,37.7288,37.7288,0,0,0,11.41422,16.86077A36.37691,36.37691,0,0,0,347.13008,188.534a35.96486,35.96486,0,0,0,2.07249,22.88484c-.10667.031-.21337.05575-.31937.08123l-.50106.13147a2.01514,2.01514,0,0,0-1.515,1.79028,1.87306,1.87306,0,0,0,.07574.72616,3.09379,3.09379,0,0,0-.03167.43847,98.62972,98.62972,0,0,1-2.48617,22.00107c-.0124.03785-.031.075-.04336.11357a126.73913,126.73913,0,0,1-7.70217,21.4876,2.03793,2.03793,0,0,0,.14452,2.04772c.28773.413.57064.826.86383,1.23895-9.61014,6.3111-14.01806,14.19566-15.86478,21.30934-10.494,3.67625-16.76171,9.657-20.47994,15.78014a41.99512,41.99512,0,0,0-14.72015,3.08638c-4.5518-13.07373-11.76459-38.49708-15.89784-77.20339,0,0-3.80636-34.24814-2.85443-42.28139h-.02479c.0055-1.1832-.04474-6.19822-1.43993-6.19822h-.77023c12.43429-4.1333,12.79155-15.4711,12.79705-15.60944l.03164-1.74694H257.75329c.15763-.05987,11.36053-4.44027-.00689-25.9733-11.3612,21.533-.16451,25.91343-.00756,25.9733H237.02763l.03168,1.74694c0,.13834.36343,11.47614,12.79772,15.60944h-.764c-1.40275,0-1.4585,6.19822-1.4585,6.19822.00618.0812.01924.16245.01924.24433v.00622h.00551c.84526,8.45862-2.89292,42.03084-2.89292,42.03084C240.516,264.28713,233.00243,290.056,228.4878,302.7663a40.70434,40.70434,0,0,0-17.12372-4.20144c-3.72583-6.13007-9.99286-12.10389-20.48061-15.78014-1.84672-7.11368-6.25466-14.99824-15.8593-21.30934.28839-.413.56992-.826.85831-1.23895a2.01913,2.01913,0,0,0,.137-2.04772,126.85123,126.85123,0,0,1-7.70079-21.4876.78662.78662,0,0,0-.03785-.11357,98.27147,98.27147,0,0,1-2.49169-22.00107,3.31936,3.31936,0,0,0-.031-.43847,1.99245,1.99245,0,0,0-1.43376-2.51644M141.5896,204.7877c-3.39955-1.28989-7.04346-2.81793-11.06318-4.68324a35.67214,35.67214,0,0,0,4.19455-19.36554,39.34649,39.34649,0,0,1,10.91382-10.32462A51.31933,51.31933,0,0,1,148.834,182.066a34.051,34.051,0,0,0-7.24444,22.72173m4.48364-38.56244a36.6406,36.6406,0,0,0,2.70436-15.052.45828.45828,0,0,1,.05093-.05575,38.95548,38.95548,0,0,1,14.5185-9.39194,51.21053,51.21053,0,0,1,.62567,12.41568A34.5762,34.5762,0,0,0,149.81075,170.521c-.25742-.69587-.52037-1.39657-.81358-2.10417a1.89649,1.89649,0,0,0-.08741-.225,2.95119,2.95119,0,0,0-.48871-.81426l-.14454-.18174a3.24273,3.24273,0,0,0-.65182-.51278l-.11219-.09432-.11839-.05024-.18172-.11217-.2065-.03785a2.79308,2.79308,0,0,0-.82665-.15624c-.03716-.00689-.06951,0-.106-.00689m1.81507,24.07423a35.92285,35.92285,0,0,1,9.85519-12.41568c6.09222,11.38255,6.93746,22.22684,2.52885,32.21351-.06195.15073-.137.29391-.19962.44464-4.72041-1.22727-9.49177-2.54881-14.84473-4.4272a29.20958,29.20958,0,0,1,2.66031-15.81527m12.7103-14.58181c-.031-.05642-.06264-.13145-.0998-.18787a2.72291,2.72291,0,0,0-.52587-.70141l-.15074-.14385a3.85655,3.85655,0,0,0-.65115-.40679l-.106-.06953-.11978-.031-.16863-.08121-.19478-.01928a2.705,2.705,0,0,0-.76954-.06264c-.0936.00689-.181.01857-.26843.03167a3.77581,3.77581,0,0,0-.52726.13146.9254.9254,0,0,0-.23057.08742l-.126.05714a2.3096,2.3096,0,0,0-.55684.36894l-.01306.00617a35.08768,35.08768,0,0,0-4.01974,3.59367c-.13078-.60778-.26843-1.221-.42536-1.84122a29.10525,29.10525,0,0,1,8.15231-14.63827,35.74851,35.74851,0,0,1,13.55485-8.22046c1.75932,12.78533-1.21418,23.24763-8.809,31.09293a.04522.04522,0,0,0-.02546.02478,53.15692,53.15692,0,0,0-3.91922-8.99069m51.37253-58.76086-.02474-.13145-.05647-.106-.06331-.19481-.1246-.15006a2.75673,2.75673,0,0,0-.50107-.61945,2.70557,2.70557,0,0,0-.21959-.1817,3.15706,3.15706,0,0,0-.46872-.307.86015.86015,0,0,0-.232-.10049l-.13213-.05574a2.10382,2.10382,0,0,0-.66973-.15692l-.01857-.00621a40.0839,40.0839,0,0,0-10.08029-.25056c.06884-.06264.13767-.12527.20031-.18791a37.73193,37.73193,0,0,0,9.69895-6.21746,29.73669,29.73669,0,0,1,4.08166-1.29541,169.50454,169.50454,0,0,0,17.25657,8.07661c-6.18033,6.68694-13.444,10.53111-21.68238,11.46375a55.98538,55.98538,0,0,0,2.97345-7.47569c.0255-.075.06264-.14317.08125-.2127a3.11491,3.11491,0,0,0,.14385-.88929v-.2182a3.40522,3.40522,0,0,0-.16246-.7833m-3.7189,1.50879c-3.62534,10.98264-9.74919,18.72127-18.2264,23.08449a54.85087,54.85087,0,0,0,1.334-9.97979c0-.075.0117-.15007.0117-.22577a3.06592,3.06592,0,0,0-.08742-.91408l-.06264-.2127a3.1454,3.1454,0,0,0-.35655-.71376l-.05575-.13146-.0881-.0812-.11288-.16935-.16313-.12528a3.122,3.122,0,0,0-.65732-.4756c-.08812-.04407-.16933-.075-.25675-.11221a3.89228,3.89228,0,0,0-.54444-.17553,1.68435,1.68435,0,0,0-.24367-.044l-.15075-.01929a3.30887,3.30887,0,0,0-.70138.03168l-.0055-.0055a41.30925,41.30925,0,0,0-11.227,2.948,30.31045,30.31045,0,0,1,15.24672-11.2132,37.00846,37.00846,0,0,1,16.34731-1.46542m-20.62378,13.49292c-.59538,10.90689-4.06446,19.64085-10.31223,26.04627-.0881-1.74694-.25673-3.5627-.53274-5.45349-.01239-.06881-.01928-.14385-.031-.21888a2.6443,2.6443,0,0,0-.24436-.83286l-.106-.19477a2.7845,2.7845,0,0,0-.45773-.60092l-.0812-.106-.10049-.06881-.12459-.14456-.17552-.06881a2.51273,2.51273,0,0,0-.97052-.3944,3.26228,3.26228,0,0,0-.53893-.06815,1.434,1.434,0,0,0-.2368.00618l-.15073.0055a2.75974,2.75974,0,0,0-.63943.157l-.0179-.00622a35.61062,35.61062,0,0,0-4.97164,1.95964,55.84379,55.84379,0,0,0-.7014-10.32462,31.62037,31.62037,0,0,1,4.8216-3.93231,37.36638,37.36638,0,0,1,15.57159-5.75975m194.55165,68.14593c-4.02659,1.86531-7.66982,3.39335-11.06385,4.68324a34.05078,34.05078,0,0,0-7.24379-22.72173,51.2566,51.2566,0,0,1,3.19309-11.65167,39.337,39.337,0,0,1,10.91933,10.32462,35.62214,35.62214,0,0,0,4.19522,19.36554m-14.70709,6.0103c-5.35367,1.87839-10.11813,3.19993-14.83924,4.4272-.06882-.15073-.13763-.29391-.20716-.44464-4.401-9.98667-3.55581-20.831,2.53574-32.21351a36.05273,36.05273,0,0,1,9.85519,12.41568,29.143,29.143,0,0,1,2.65547,15.81527m-.9526-39.88261a2.83243,2.83243,0,0,0-.826.15624l-.20649.03785-.17552.11217-.1191.05024-.11906.09432a3.70075,3.70075,0,0,0-.65113.51278l-.14456.18174a3.06928,3.06928,0,0,0-.48733.81426,1.69474,1.69474,0,0,0-.08809.225c-.28841.7076-.55135,1.4083-.80808,2.10417a34.57516,34.57516,0,0,0-14.1688-16.37967,51.7153,51.7153,0,0,1,.63185-12.41568,39.01187,39.01187,0,0,1,14.52055,9.39194c.01857.01928.031.03785.04957.05575a36.44848,36.44848,0,0,0,2.70572,15.052c-.03852.00689-.075,0-.11356.00689m-13.61063-4.421a29.12446,29.12446,0,0,1,8.14547,14.63827c-.15074.62017-.29463,1.23344-.4199,1.84122a34.88351,34.88351,0,0,0-4.02592-3.59367l-.00617-.00617a2.2995,2.2995,0,0,0-.55753-.36894l-.13078-.05714a1.01558,1.01558,0,0,0-.22577-.08742,3.73654,3.73654,0,0,0-.52585-.13146c-.08742-.0131-.17552-.02478-.26912-.03167a2.69933,2.69933,0,0,0-.771.06264l-.19337.01928-.17552.08121-.11221.031-.11356.06953a3.59828,3.59828,0,0,0-.64495.40679l-.15557.14385a2.666,2.666,0,0,0-.52035.70141,1.38141,1.38141,0,0,0-.09982.18787,52.13,52.13,0,0,0-3.91992,8.99069l-.02478-.02478c-7.59408-7.8453-10.56825-18.3076-8.81584-31.09293a35.76083,35.76083,0,0,1,13.56241,8.22046m-8.1461-9.83591a34.97105,34.97105,0,0,0-4.97167-1.95964l-.01857.00622a2.67932,2.67932,0,0,0-.63873-.157l-.14389-.0055a1.46584,1.46584,0,0,0-.23816-.00618,3.362,3.362,0,0,0-.54513.06815,2.556,2.556,0,0,0-.96361.3944l-.17552.06881-.1315.14456-.10049.06881-.0812.106a2.9685,2.9685,0,0,0-.45637.60092l-.10116.19477a2.71543,2.71543,0,0,0-.24984.83286c-.01311.075-.01311.15007-.02479.21888q-.414,2.83619-.53274,5.45349c-6.25468-6.40542-9.71685-15.13938-10.31156-26.04627a37.34669,37.34669,0,0,1,15.5647,5.75975,31.979,31.979,0,0,1,4.82782,3.93231,56.35463,56.35463,0,0,0-.70759,10.32462m-19.94165-23.779-.00622.0055a3.32737,3.32737,0,0,0-.70138-.03168l-.15006.01929a1.968,1.968,0,0,0-.25055.044,3.81014,3.81014,0,0,0-.53892.17553,2.31974,2.31974,0,0,0-.25673.11221,2.98453,2.98453,0,0,0-.65734.4756l-.16246.12528-.11288.16935-.08743.0812-.05642.13146a2.709,2.709,0,0,0-.35722.71376l-.06264.2127a2.8868,2.8868,0,0,0-.09364.91408c.00622.0757.01172.15073.01861.22577a54.86593,54.86593,0,0,0,1.32776,9.97979c-8.47173-4.36322-14.59492-12.10185-18.22643-23.08449a37.0047,37.0047,0,0,1,16.348,1.46542,30.31164,30.31164,0,0,1,15.246,11.2132,41.35791,41.35791,0,0,0-11.22008-2.948M303.23943,114.947l-.01239.00621a2.1182,2.1182,0,0,0-.67659.15692l-.13149.05574a.85646.85646,0,0,0-.23127.10049,4.10775,4.10775,0,0,0-.46943.307,1.93444,1.93444,0,0,0-.21266.1817,2.42163,2.42163,0,0,0-.50111.61945l-.13145.15006-.06264.19481-.04957.106-.03235.13145a3.46755,3.46755,0,0,0-.15691.7833v.2182a2.9566,2.9566,0,0,0,.14452.88929,1.73551,1.73551,0,0,0,.0757.2127,56.54289,56.54289,0,0,0,2.98039,7.47569c-8.24042-.93264-15.50278-4.77681-21.68238-11.46375a169.33621,169.33621,0,0,0,17.25517-8.07661,29.6345,29.6345,0,0,1,4.07616,1.29541,37.92774,37.92774,0,0,0,9.69828,6.21746c.06953.06264.13145.12527.20031.18791a40.12538,40.12538,0,0,0-10.08029.25056m41.887,178.95941V293.894a2.391,2.391,0,0,0-.08121-.63187l-.04335-.13834a.9807.9807,0,0,0-.06886-.21268,4.11269,4.11269,0,0,0-.24433-.46943,1.19185,1.19185,0,0,0-.15074-.21338,2.48577,2.48577,0,0,0-.53207-.52656l-.12595-.13078-.16863-.075-.09982-.06264-.12595-.03718a2.51378,2.51378,0,0,0-.70692-.20718l-.12527-.01859a31.16441,31.16441,0,0,0,5.26557-10.01968v-.00689a37.446,37.446,0,0,1,3.193-3.4436,102.9317,102.9317,0,0,0,13.15494,11.366,31.68234,31.68234,0,0,1-1.14534,3.58814,37.97317,37.97317,0,0,0-6.2925,7.92037,47.29354,47.29354,0,0,0-12.35375,2.617,37.27148,37.27148,0,0,0,.65113-9.28529m.92714-21.68582a32.26886,32.26886,0,0,1-.49489,4.40242c-.10049.53824-.21266,1.0772-.33793,1.603a28.17681,28.17681,0,0,1-7.38213,13.28848c-.33177.33795-.67042.67591-1.02625,1.00219a43.962,43.962,0,0,0-8.03326,3.35617,38.17585,38.17585,0,0,0,.61878-11.84163l-.0055-.0062a3.03843,3.03843,0,0,0-.10667-.63325l-.05646-.13078a.88179.88179,0,0,0-.08738-.21338,3.6169,3.6169,0,0,0-.26295-.45015,1.01006,1.01006,0,0,0-.16935-.20717,2.15837,2.15837,0,0,0-.54992-.50109l-.13217-.12458-.17552-.06333-.09982-.06264-.13212-.02479a2.48856,2.48856,0,0,0-.70692-.1755l-.20716-.01239a2.60848,2.60848,0,0,0-.839.09979,1.09718,1.09718,0,0,0-.17485.05645c2.32922-7.00147,7.01869-12.806,13.98781-17.33918q3.07982,4.18974,6.3737,7.97131ZM187.0138,281.58224a1.10726,1.10726,0,0,0-.1817-.05645,2.55859,2.55859,0,0,0-.83287-.09979l-.2051.01239a2.59624,2.59624,0,0,0-.71515.1755l-.12458.02479-.09982.06264-.1762.06333-.137.12458a2.39181,2.39181,0,0,0-.552.50109,1.38341,1.38341,0,0,0-.16243.20717,3.10365,3.10365,0,0,0-.263.45015.93094.93094,0,0,0-.0936.21338l-.05025.13078a2.71385,2.71385,0,0,0-.10668.63325l-.0062.0062a38.19871,38.19871,0,0,0,.62086,11.84783,44.36748,44.36748,0,0,0-8.03945-3.36237c-.35172-.32628-.68968-.65115-1.01457-.9898a28.102,28.102,0,0,1-7.39448-13.31326c-.12458-.52585-.23885-1.05242-.338-1.59066a31.08286,31.08286,0,0,1-.48871-4.39624q3.26775-3.785,6.37443-7.9768c6.96843,4.52631,11.651,10.33771,13.98641,17.33229m-16.96129,9.58812-.13145.01859a2.6035,2.6035,0,0,0-.7069.20718l-.126.03718-.0936.06264-.17552.075-.12459.13078a2.50248,2.50248,0,0,0-.53274.52656,1.63147,1.63147,0,0,0-.14387.21338,4.00939,4.00939,0,0,0-.24366.46943.90251.90251,0,0,0-.075.21268l-.04474.13834a2.38258,2.38258,0,0,0-.07434.63187l-.00689.01239a37.28678,37.28678,0,0,0,.65115,9.2791,47.7858,47.7858,0,0,0-12.35239-2.617,38.52448,38.52448,0,0,0-6.28631-7.90868,31.08077,31.08077,0,0,1-1.146-3.59364,105.14168,105.14168,0,0,0,13.15425-11.35986,36.79728,36.79728,0,0,1,3.2,3.44982,31.25266,31.25266,0,0,0,5.25867,10.01418m19.92377,11.927v-.0062q-.71448-1.40826-1.29677-2.91084c-.21268-.56372-.40679-1.12127-.58851-1.6781a33.4317,33.4317,0,0,1-.98909-3.93849,34.68909,34.68909,0,0,1-.46323-9.5441c.46943.13217.93884.27051,1.39588.41437,1.25892.38821,2.4731.81976,3.6439,1.28369a34.11432,34.11432,0,0,1,15.63425,11.82238,2.32783,2.32783,0,0,0-.72.137l-.18724.07572a2.47864,2.47864,0,0,0-.63941.36961l-.11221.06128-.075.08879-.15691.11219-.08742.15693a2.38562,2.38562,0,0,0-.39512.63186,2.17509,2.17509,0,0,0-.08738.25054,2.76816,2.76816,0,0,0-.12528.5128.9593.9593,0,0,0-.02546.23264l-.01172.13767a2.71505,2.71505,0,0,0,.08121.63187v.01306A38.43079,38.43079,0,0,0,211.5575,317.492a41.65268,41.65268,0,0,0-9.82973-2.36572c-.55753-.31319-1.102-.63945-1.62784-.9836a28.32735,28.32735,0,0,1-10.12365-11.04528M240.134,318.49345q1.47439-.88173,2.9487-1.62784c8.7911-4.452,17.49334-5.26488,25.93406-2.40358.57614.1941,1.13228.4068,1.67742.62567a39.94773,39.94773,0,0,0-2.21016,3.913c-1.7903.201-3.55026.43845-5.04665.7193q-2.83618-.064-5.68476-.06747-6.54578,0-13.05446.35654c-1.21483.06264-2.4297.13767-3.63769.22508-.69519.04405-1.3835.09429-2.07937.15006-.27463-.26845-.51279-.51279-.7131-.72549.6195-.40746,1.24584-.79569,1.866-1.1653m1.12055-4.5263q-.91166-1.31435-2.00984-2.63l.08809-.0062c6.18516-13.37312,18.56987-126.38438,18.56987-126.38438S269.023,288.96571,275.3843,309.22125a33.81935,33.81935,0,0,0-2.68026,3.0492h-.00622c-7.676-3.275-18.58365-4.909-31.4433,1.6967m31.24921,4.64538c.38818-.68831.82047-1.3897,1.28986-2.10347.56992-.85143,1.19559-1.71526,1.89012-2.58046a1.944,1.944,0,0,1,.13834-.16176,31.056,31.056,0,0,1,11.94007-8.92186,37.66591,37.66591,0,0,1,11.702-2.74909c1.24651-.106,2.52331-.15693,3.838-.16244.382-.00689.77641,0,1.1653.00551a34.6317,34.6317,0,0,1-6.18032,13.72486c-.04957.06884-.09982.13145-.15073.20029a28.09688,28.09688,0,0,1-2.14685,2.4793,27.36159,27.36159,0,0,1-4.38313,3.70033c-2.09795-.30011-4.20694-.5761-6.32967-.81357q-6.71517-.78055-13.54317-1.16532c.232-.46874.48871-.95743.77023-1.45232m25.26365,4.176h.00621a36.20625,36.20625,0,0,1,13.42407-4.25719l.80808-.09429c.901-.0936,1.82811-.16863,2.767-.212.65735-.03165,1.32087-.05644,1.99128-.06262a34.865,34.865,0,0,1-2.53641,8.26451h-.00551a.79343.79343,0,0,0-.12527-.031q-2.00916-.49869-4.03831-.95813-6.2092-1.40929-12.585-2.47927c.10049-.05714.20031-.11289.29391-.17m14.83925-8.64584c-.5259.34415-1.071.67041-1.63474.9836a41.82514,41.82514,0,0,0-9.82423,2.36572,38.43026,38.43026,0,0,0,6.7881-15.53995V301.939a2.38529,2.38529,0,0,0,.075-.63187l-.01239-.13767a1.34963,1.34963,0,0,0-.01929-.23264,2.66571,2.66571,0,0,0-.12456-.5128,2.10484,2.10484,0,0,0-.09431-.25054,2.52459,2.52459,0,0,0-.38823-.63186l-.0936-.15693-.15073-.11219-.07432-.08879-.11977-.06128a2.5535,2.5535,0,0,0-.63189-.36961l-.18859-.07572a2.31643,2.31643,0,0,0-.72-.137,34.02564,34.02564,0,0,1,15.63355-11.81618v-.0062q1.748-.6959,3.6384-1.28369h.00622c.46389-.14386.92092-.2822,1.39657-.41437a34.73185,34.73185,0,0,1-.46943,9.5441,32.11485,32.11485,0,0,1-.98978,3.93162c-.17552.5582-.36894,1.12125-.58853,1.685q-.58227,1.50222-1.29537,2.91084v.0062a28.31835,28.31835,0,0,1-10.11813,11.04528M324.63341,327.979a32.21569,32.21569,0,0,0,18.50794-19.75376c.11288-.33176.22026-.65732.31937-.98291a41.34066,41.34066,0,0,1,11.44585-3.03061v-.0062c.25055-.031.50728-.06194.76334-.08809.42608-.04958.85765-.09293,1.28991-.13011a33.41111,33.41111,0,0,1-.9079,5.18365,34.67054,34.67054,0,0,1-3.09323,7.89559q-.85281.19617-1.67809.43156a34.655,34.655,0,0,0-19.64707,14.04976q-3.7004-1.27716-7.4943-2.41047a3.301,3.301,0,0,1,.49418-1.15841M381.986,302.31477a31.77764,31.77764,0,0,1-12.34069,15.95361c-.01307-.05644-.03168-.11289-.04407-.16244a1.8708,1.8708,0,0,0-.08188-.25124,2.21413,2.21413,0,0,0-.35588-.64426l-.08809-.16933-.15074-.11286-.07432-.09362-.1067-.06951a2.76986,2.76986,0,0,0-.62017-.39373l-.19409-.0819a2.518,2.518,0,0,0-.8143-.18172c-.075-.0055-.14313,0-.212-.0055a50.17908,50.17908,0,0,0-9.81112.23747,39.22984,39.22984,0,0,0,3.19922-11.40114c.075-.5892.106-1.03246.12528-1.30227l-.00685-.01309a2.41587,2.41587,0,0,0,.00685-.63806l-.02546-.13765a1.01094,1.01094,0,0,0-.04335-.232,3.33173,3.33173,0,0,0-.11978-.35035,34.09382,34.09382,0,0,1,6.349-7.63266v-.00619a33.65371,33.65371,0,0,1,2.661-2.18468,89.73674,89.73674,0,0,0,13.612,7.05585q-.35724,1.38968-.86383,2.81724m5.83478-9.88618c-.66424,1.37112-1.3147,2.69268-1.941,3.93232-.73855-.28772-1.47093-.58919-2.20326-.90238a84.76457,84.76457,0,0,1-10.72524-5.48443q-1.813-1.08927-3.57573-2.279c-.23131-.14456-.46258-.3008-.689-.46393-1.20727-.82045-2.39668-1.67189-3.57438-2.5674A100.33029,100.33029,0,0,1,354.155,275.0385q-1.3897-1.40829-2.73533-2.8799c-.67042-.71446-1.32154-1.44131-1.9665-2.17917q-1.91627-2.19915-3.77536-4.53458c-.83975-1.06343-1.67808-2.153-2.49789-3.26119-.68209-.91477-1.35321-1.84743-2.02291-2.79247-.10671-.15763-.21888-.31319-.33176-.47563a126.69265,126.69265,0,0,0,6.17893-16.624c5.82995,8.32164,15.89785,15.12076,21.91437,18.7089,9.16688,5.45967,19.55414,9.85452,27.2611,11.58285a202.68189,202.68189,0,0,1-8.3588,19.8453m-32.79513-46.9247q4.7803,1.21105,9.58536,2.02844a27.73372,27.73372,0,0,1-1.80337,4.57655,68.61052,68.61052,0,0,1-7.782-6.605m10.80645,8.73463a31.04625,31.04625,0,0,1,2.77936-6.07983,123.98537,123.98537,0,0,0,14.93285,1.20866c.01306.48182.01306.96982,0,1.4716a28.15319,28.15319,0,0,1-2.88607,11.83271c-3.24951-1.53424-6.53-3.26808-9.67278-5.14028-1.81025-1.0827-3.51935-2.1785-5.15336-3.29286m31.40611,14.43725a74.01267,74.01267,0,0,1-12.68551-4.25649c-.06264-.45154-.12461-.90927-.17552-1.378-.00551-.09429-.0124-.19409-.01861-.29458a31.94716,31.94716,0,0,0,2.5612-13.367,114.48143,114.48143,0,0,0,15.31418-1.18389,29.62124,29.62124,0,0,1-4.99574,20.47992m6.39849-37.91684c-.13146,4.40794-.45633,8.87161-.97667,13.28573a109.4934,109.4934,0,0,1-16.94892,1.303,122.65844,122.65844,0,0,1-37.05987-5.85407c-.23816-.0757-.47015-.15693-.70692-.23194a102.44266,102.44266,0,0,0,2.97971-22.60336,118.42106,118.42106,0,0,0,15.85928,5.47895,127.457,127.457,0,0,0,32.48954,4.31429c1.484,0,2.96728-.044,4.43888-.10049-.00618,1.4778-.02475,2.95491-.075,4.40792m.08742-8.44a122.185,122.185,0,0,1-35.907-4.08855,109.90908,109.90908,0,0,1-12.61048-4.18215c11.8024-3.118,24.26214-7.11849,45.31268-18.80872a156.85883,156.85883,0,0,1,3.20476,27.07942m-7.54454-44.78546a29.15645,29.15645,0,0,1,3.6508,13.46125c-5.34746,2.999-10.13671,5.49682-14.49439,7.61268-.10049-.18033-.201-.36205-.30147-.55063-5.015-9.69824-4.82643-20.57354.54514-32.30713a35.80655,35.80655,0,0,1,10.59992,11.78383M381.635,149.233a29.11334,29.11334,0,0,1,5.38463,13.22376,2.45571,2.45571,0,0,0-.56992-.33244l-.13145-.05024c-.075-.02479-.14939-.05575-.23127-.075a3.714,3.714,0,0,0-.53278-.0936c-.08739-.00689-.1872-.0124-.2753-.0124a2.70109,2.70109,0,0,0-.75784.106l-.19342.02478-.1693.10049-.11288.03164-.11221.08125a3.35261,3.35261,0,0,0-.60778.44464l-.15006.15006a2.93793,2.93793,0,0,0-.48867.73234c-.031.05646-.04958.13767-.08125.19481a50.82635,50.82635,0,0,0-3.9261,11.68262,44.33549,44.33549,0,0,0-6.66143-6.267c-5.15958-8.60935-5.97245-18.78324-2.40429-30.27867A35.641,35.641,0,0,1,381.635,149.233M358.4252,122.77375a29.15667,29.15667,0,0,1,10.06172,12.39639,2.49563,2.49563,0,0,0-.40679.13839l-.18174.04953-.15692.11977-.11288.04886-.08742.09432a3.15258,3.15258,0,0,0-.55682.51345l-.126.17553a2.79641,2.79641,0,0,0-.38751.78195c-.01928.06948-.03785.14452-.05642.21337a53.05045,53.05045,0,0,0-2.0787,8.97275,43.511,43.511,0,0,0-14.3815-8.42761H349.948a2.509,2.509,0,0,0-.41368-.12528c-3.65626-5.68543-5.60351-12.67862-5.7921-20.91837a35.86686,35.86686,0,0,1,14.683,5.967m-22.68455-15.41467a32.66654,32.66654,0,0,1,10.65706,6.36752c-1.33394-.3008-2.31065-.45082-2.77386-.508l-.01857-.00621a3.30467,3.30467,0,0,0-.65117-.05025l-.15691.01928c-.075.00622-.15074.01857-.23817.031a2.90349,2.90349,0,0,0-.5135.15073,1.64731,1.64731,0,0,0-.25672.106,3.36466,3.36466,0,0,0-.64357.426l-.15691.11288-.10671.16246-.0881.08121-.06264.11288a3.72056,3.72056,0,0,0-.36272.66974l-.05646.20716a2.47529,2.47529,0,0,0-.11906.86383c0,.075.00618.14456.01307.21887a46.82438,46.82438,0,0,0,3.224,17.20565c-.65117-.21266-1.30847-.44393-1.972-.70688a34.44373,34.44373,0,0,0-18.32-15.90406,52.37261,52.37261,0,0,1-4.97166-11.70124,39.87872,39.87872,0,0,1,17.57458,2.14135M319.074,93.25221a31.52858,31.52858,0,0,1,13.44885,9.0595,44.57945,44.57945,0,0,0-15.55234-.932l-.00618.0055a2.82534,2.82534,0,0,0-.72687.14385l-.15624.05713a1.96971,1.96971,0,0,0-.24367.106,5.46183,5.46183,0,0,0-.52652.3132c-.07575.06263-.15628.1191-.232.19409a3.107,3.107,0,0,0-.5692.64495l-.14389.16246-.06949.201-.05579.12456-.044.13217a3.56694,3.56694,0,0,0-.18725.839l-.01306.24366a3.2023,3.2023,0,0,0,.12527.95815c.0179.08121.05642.15.08121.23194a61.11435,61.11435,0,0,0,2.0911,6.12251c-.43776-.16245-.86934-.33108-1.28919-.51278A34.19994,34.19994,0,0,1,305.581,105.299c-.40679-.36965-.81425-.75166-1.21416-1.13984,6.68-3.96327,11.85815-7.82606,14.70709-10.90693m-36.37022-1.13985c1.15774-3.15519,2.02778-5.82238,2.55363-7.50051.3008-.945.52657-1.70288.67659-2.22255.06814-.24434.13767-.48178.19413-.72,9.94262,1.74073,22.69006,5.66615,29.43963,9.74849-4.145,4.11334-12.50932,9.57367-22.19521,14.41939a166.96191,166.96191,0,0,1-21.776,9.04093c4.45745-6.33038,8.23975-14.94524,11.10721-22.7658M258.00246,77.437c12.05913,0,21.35679,2.06559,24.05566,4.16976-2.06559,7.2747-12.87893,38.63057-23.54771,38.63057-12.93606,0-23.19116-31.349-24.5884-38.00423,3.75675-2.93081,12.98009-4.7961,24.08045-4.7961m-28.14287,3.72511a1.64937,1.64937,0,0,0-.02546.50107c.20031,2.31686,3.11117,12.77844,7.82673,22.527a62.03757,62.03757,0,0,0,7.23757,11.88433c-20.74284-6.33656-40.553-17.46238-47.7665-24.65037,7.51976-4.55181,22.48357-8.90949,32.72766-10.262M193.6257,93.25221c2.84891,3.08087,8.03321,6.94366,14.71393,10.90693a34.36459,34.36459,0,0,1-11.92766,7.70078,63.84021,63.84021,0,0,0,2.09108-6.12251c.01926-.08192.05644-.15073.0757-.23194a3.17965,3.17965,0,0,0,.12458-.95815l-.0055-.24366a3.58308,3.58308,0,0,0-.19478-.839l-.03718-.13217-.05645-.12456-.0757-.201-.137-.16246a3.28277,3.28277,0,0,0-.56992-.64495,2.33318,2.33318,0,0,0-.23814-.19409,5.47932,5.47932,0,0,0-.51967-.3132,2.00768,2.00768,0,0,0-.25056-.106l-.15-.05713a2.87883,2.87883,0,0,0-.72618-.14385l-.01307-.0055a44.54479,44.54479,0,0,0-15.54612.932,31.518,31.518,0,0,1,13.44266-9.0595M176.959,107.35908a39.90764,39.90764,0,0,1,17.58145-2.14135A52.37168,52.37168,0,0,1,189.5688,116.919,34.45185,34.45185,0,0,0,171.2426,132.823c-.66422.263-1.31468.49422-1.9658.70688a47.11051,47.11051,0,0,0,3.224-17.20565c0-.07431.0124-.14384.0124-.21887a2.64646,2.64646,0,0,0-.11839-.86383l-.06264-.20716a3.3427,3.3427,0,0,0-.35724-.66974l-.06262-.11288-.09362-.08121-.106-.16246-.15074-.11288a3.29155,3.29155,0,0,0-.65115-.426,1.33138,1.33138,0,0,0-.25122-.106,2.78605,2.78605,0,0,0-.519-.15073c-.08812-.0124-.16313-.02475-.23816-.031l-.15-.01928a3.36273,3.36273,0,0,0-.65734.05025l-.01307.00621c-.46874.05714-1.44545.20716-2.77321.508a32.6351,32.6351,0,0,1,10.65021-6.36752m-22.6839,15.41467a35.86169,35.86169,0,0,1,14.68232-5.967c-.18792,8.23975-2.12895,15.23294-5.78592,20.91837a2.1649,2.1649,0,0,0-.4123.12528h-.01309a43.64174,43.64174,0,0,0-14.38151,8.42761,52.333,52.333,0,0,0-2.07938-8.97275,1.29847,1.29847,0,0,0-.05575-.21337,2.74013,2.74013,0,0,0-.3827-.78195l-.13078-.17553a2.97589,2.97589,0,0,0-.55753-.51345l-.0874-.09432-.10669-.04886-.15626-.11977-.181-.04953a2.449,2.449,0,0,0-.41366-.13839,29.16147,29.16147,0,0,1,10.06167-12.39639M131.07156,149.233A35.70149,35.70149,0,0,1,143.086,138.896c3.56887,11.49543,2.76079,21.66932-2.40358,30.27867a44.90224,44.90224,0,0,0-6.66214,6.267,50.75535,50.75535,0,0,0-3.9199-11.68262c-.03029-.05714-.05577-.13835-.08743-.19481a2.64551,2.64551,0,0,0-.488-.73234l-.15006-.15006a3.14074,3.14074,0,0,0-.60088-.44464l-.11289-.08125-.11908-.03164-.16243-.10049-.19548-.02478a2.69737,2.69737,0,0,0-.76334-.106c-.08742,0-.18172.00551-.26912.0124a3.5772,3.5772,0,0,0-.53207.0936c-.08123.01928-.15693.05024-.23816.075l-.12458.05024a2.49646,2.49646,0,0,0-.57612.33244,29.12339,29.12339,0,0,1,5.39083-13.22376M116.52,177.53344A35.82173,35.82173,0,0,1,127.12,165.74961c5.37913,11.73359,5.56085,22.60889.54447,32.30713-.09293.18858-.19342.3703-.29324.55063-4.35768-2.11586-9.1538-4.61373-14.49508-7.61268A29.06559,29.06559,0,0,1,116.52,177.53344m-4.33908,17.706c21.05671,11.69023,33.50958,15.69068,45.3182,18.80872a109.58574,109.58574,0,0,1-12.616,4.18215,122.16894,122.16894,0,0,1-35.90765,4.08855,158.15339,158.15339,0,0,1,3.20546-27.07942m-3.11806,35.51328c-.04266-1.43995-.06881-2.91775-.075-4.40175,1.4778.05645,2.95627.10049,4.43958.10049a127.44758,127.44758,0,0,0,32.48884-4.31429,118.75418,118.75418,0,0,0,15.86549-5.47895,102.76556,102.76556,0,0,0,2.97419,22.60336c-.232.075-.46392.15624-.69519.23194a122.7945,122.7945,0,0,1-37.07229,5.85407,109.55,109.55,0,0,1-16.9482-1.303c-.51348-4.41412-.839-8.87779-.97741-13.2919m48.61176,14.75113a69.06272,69.06272,0,0,1-7.77581,6.605,27.82926,27.82926,0,0,1-1.81024-4.57655q4.80921-.826,9.58605-2.02844m-28.4987,5.33163c-.01307-.5011-.01307-.9891-.0062-1.47093.43778,0,.87553-.01306,1.32087-.03165a121.18921,121.18921,0,0,0,13.62437-1.15843,30.86409,30.86409,0,0,1,2.78559,6.07363c-1.63337,1.10819-3.3624,2.204-5.17126,3.28049-3.13732,1.87287-6.424,3.61293-9.67417,5.14647-.06194.031-.13078.06334-.19342.0943.0124-.137.02479-.28221.03785-.41919a28.21126,28.21126,0,0,1-2.72363-11.51469m-18.69031-2.64242a111.58908,111.58908,0,0,0,15.30935,1.19008,31.9039,31.9039,0,0,0,2.5667,13.38622c-.00689.09362-.01239.18172-.02478.276-.05025.46874-.106.93267-.17553,1.38281a73.81352,73.81352,0,0,1-12.691,4.251,29.58515,29.58515,0,0,1-4.98473-20.48611m16.33423,48.16781A211.8045,211.8045,0,0,1,116.52,272.58329c7.70768-1.72833,18.09494-6.12318,27.26732-11.58285,6.0165-3.58814,16.08439-10.38726,21.91367-18.7089a125.05049,125.05049,0,0,0,6.18032,16.624c-.11288.16244-.22507.318-.33176.47563-.66972.945-1.34013,1.8777-2.02226,2.79247q-1.24,1.67154-2.50474,3.26808c-1.23346,1.55833-2.49236,3.06159-3.76849,4.52769-.64565.73786-1.29677,1.46471-1.96719,2.17917q-1.34219,1.47437-2.74153,2.8799a100.35471,100.35471,0,0,1-10.951,9.62528q-1.7655,1.334-3.582,2.5674c-1.40208.96432-2.81655,1.8722-4.25719,2.736a84.6633,84.6633,0,0,1-10.73141,5.49132q-1.09854.46979-2.204.90238m18.77017,19.74686a2.52144,2.52144,0,0,0-.81978.18172l-.18722.0819a2.59535,2.59535,0,0,0-.62017.39373l-.10668.06951-.075.09362-.15.11286-.08742.16933a2.24832,2.24832,0,0,0-.35792.64426,1.45293,1.45293,0,0,0-.0874.25124c-.01239.04955-.02479.106-.03649.16244a31.74946,31.74946,0,0,1-12.34755-15.95361c-.10669-.30011-.20718-.59469-.30011-.8948-.10049-.2946-.18791-.5954-.276-.88861-.05644-.18859-.11288-.382-.16243-.5706-.04475-.15626-.08743-.31319-.126-.46323a89.714,89.714,0,0,0,13.60647-7.05585h.0062q1.38867,1.04071,2.6603,2.19707c.15074.13836.30011.27051.44465.40748-.15-.14386-.30078-.28771-.45084-.42538.3063.27465.614.55686.90718.84457a.78414.78414,0,0,1,.07573.08121.835.835,0,0,1-.07573-.06884c.04474.03718.08262.08192.126.12461.25056.23814.49489.48319.73856.733h.00689c.18722.19478.37511.3944.55683.59538.0055,0,.01239.0055.0055.01239q.27363.30043.54514.60088c.18172.20031.35724.4068.52587.61328v.0062c.05025.06333.10669.11977.15074.18171.00619.0062.00619.01309.01239.01309,0,.0055.0062.0055.0062.01237l.02478.02479c.11289.126.21957.26295.31937.3944v.0062c.05025.06263.10118.11908.14454.18241a.39406.39406,0,0,1,.04957.06125l.01307.01376c.09982.12527.20031.24986.29391.382.25055.32488.49421.65664.72616.99459.41988.5954.82116,1.20248,1.20178,1.82815v.01309c-.04266.11288-.0812.23127-.11219.34415a.7756.7756,0,0,0-.05024.232l-.02479.13765a3.13978,3.13978,0,0,0,.0062.63806v.01309c.01859.26981.05644.72.12528,1.31467a39.08486,39.08486,0,0,0,3.2,11.38254,50.70028,50.70028,0,0,0-9.81114-.23127c-.075.0055-.14456,0-.21407.0055m7.86461,17.01154a33.36261,33.36261,0,0,1-4.72042-7.46882,34.47963,34.47963,0,0,1-1.90385-5.1224c-.11908-.4006-.2072-.75715-.28152-1.05792a48.09774,48.09774,0,0,1,7.93205.15693c1.06481.11288,2.098.26292,3.10565.457a34.85112,34.85112,0,0,1,4.07,1.01388c.32625.10049.658.20648.97671.32006a30.85421,30.85421,0,0,1,13.17423,8.83375c.15554.17553.30561.35722.45634.53275a32.54019,32.54019,0,0,1,2.07869,2.74222c-.17483.06951-.35036.13147-.52518.20029-.15694.06264-.31318.11908-.47011.18791-.22576.0819-.444.16313-.66421.25673-.15626.05027-.31319.11289-.46943.17485l.00619.00687c-.32489.11839-.65045.24436-.97051.37514-.24367.095-.49489.19409-.73856.29458-.38753.15076-.76953.307-1.15223.46323-.07434.03168-.15.06264-.22508.09363-.26292.11288-.52656.21957-.78329.33245-.11839.04336-.23127.09429-.34966.14385-.21268.08122-.41988.17552-.63186.26361q-.52761.2158-1.05312.45017-.666.2901-1.33326.583c-.71307.3125-1.41516.63187-2.11586.95056q-2.639,1.21209-5.19672,2.48617c.307-.16313.61259-.31319.92028-.46323a28.158,28.158,0,0,1-9.13523-7.20728m16.49185,36.54021c-26.34085,0-62.71793,7.03176-83.999,13.99949L92.1209,366.0404,74.176,359.74858c22.42164-6.79362,56.56309-13.46813,85.47067-14.83925a.99979.99979,0,0,0,.08121.08123c.75783.59538,1.528,1.1777,2.29758,1.74692.29527.22577.58918.43845.88378.65115.47563.35722.95124.70757,1.43375,1.05242.3944.28082.7888.55753,1.1832.839.39509.27465.77573.55134,1.17081.826.47632.33176.96364.65113,1.44614.98359.307.20581.614.41918.92647.62566.58229.38821,1.1708.76954,1.75931,1.15224.21338.13767.42606.28152.63874.41919.67041.42536,1.34015.84593,2.01676,1.26509.13765.08743.26843.17553.40679.25606.73236.45084,1.46471.89,2.19776,1.32843.08741.04955.16864.10532.24986.15626.78261.45634,1.5659.91338,2.354,1.358.03785.02476.08122.05024.126.075.826.4701,1.65882.93334,2.49167,1.38418a.00606.00606,0,0,0,.00619.00619,159.37834,159.37834,0,0,0,18.15758,8.45243l10.63088,5.322a247.3855,247.3855,0,0,0-40.15863-3.23092m87.80607-17.06108c-20.52464,0-40.33417,3.80014-57.37045,10.99434a155.71019,155.71019,0,0,1-35.61994-19.84116,175.45041,175.45041,0,0,1,18.85275-7.85843q4.02867-1.42686,8.18261-2.67959,2.76081-.84454,5.57254-1.60925c.57612-.15624,1.15222-.31319,1.73453-.46254q.83526-.22715,1.67189-.433c.37512-.09982.75784-.20031,1.13917-.28771l.00618-.0062c5.99862-1.49639,12.14655-2.75462,18.40191-3.75679.48249-.0819.96982-.15693,1.45853-.22576.90169-.14318,1.80958-.28152,2.71744-.4006q1.83984-.27154,3.68794-.4942,5.07975-.64737,10.231-1.06414c.2182-.01926.43775-.03785.65667-.05711,1.47089-.11221,2.94321-.2189,4.42031-.30011.92093-.06263,1.84051-.11288,2.767-.15073q5.72089-.28083,11.48993-.28154,3.22128,0,6.42949.08812c.77023.01859,1.54113.04336,2.30514.0757q3.49389.12185,6.96845.34966,5.05284.33866,10.05478.88862c.583.06333,1.15913.12595,1.73522.19548,1.09582.12389,2.19092.26225,3.28052.4061h.00617c1.0015.13216,1.99128.26981,2.98589.41368.43292.05575.85833.12525,1.28436.1934q8.86471,1.31536,17.42452,3.31834c.6952.15693,1.38422.31937,2.07253.488.98907.23883,1.9596.48319,2.9356.73992h.00689c.157.03718.31319.075.47011.11908q2.66685.69381,5.29653,1.45232,4.292,1.24,8.46484,2.64862c.53274.17483,1.06481.36273,1.59.55064h.00689c.55131.18172,1.09577.37581,1.64023.56923q7.157,2.56464,13.868,5.61729,2.10418.94781,4.15741,1.95343c-.05646.04335-.1191.08671-.17485.12458a155.44879,155.44879,0,0,1-35.44442,19.71658c-17.0363-7.1942-36.8465-10.99434-57.36429-10.99434M429.55775,383.659c-21.288-6.96773-57.6713-13.99949-84.00526-13.99949a247.58937,247.58937,0,0,0-40.41609,3.275l11.57735-5.64136c.01856-.0062.031-.0124.05024-.01929q1.27716-.50589,2.54125-1.03315a.22918.22918,0,0,1,.05713-.02477c.85144-.35654,1.69666-.72,2.54192-1.08959.01239-.0062.031-.0117.04335-.0179.84594-.36961,1.68431-.74544,2.52335-1.13434a.17676.17676,0,0,0,.05642-.02476c.83287-.38134,1.65885-.76954,2.48617-1.17083.03029-.01237.05646-.02477.08125-.03716.81976-.3882,1.62784-.78949,2.4421-1.19628a1.40038,1.40038,0,0,1,.13078-.06884c.7888-.40059,1.5776-.80119,2.36089-1.21416.06814-.03167.13078-.06953.20031-.10668.75712-.4006,1.52118-.80189,2.27208-1.21488.09432-.05575.18863-.106.2829-.15693.72549-.3999,1.44547-.80119,2.16542-1.21418.13149-.07571.25677-.15.38272-.21957.68209-.39371,1.3704-.78811,2.04631-1.19559.16313-.0943.33248-.20029.49493-.29391.63874-.3882,1.27819-.77021,1.91-1.16461.20649-.12528.413-.25675.62017-.382.58714-.36894,1.177-.73924,1.76484-1.12058.25673-.16312.50795-.33176.75851-.49419.53757-.35105,1.07581-.6952,1.60856-1.05242.31319-.2065.61949-.42607.93268-.63256q.70515-.47908,1.409-.95812c.382-.26915.764-.54446,1.14534-.81359.3944-.27532.7833-.55133,1.17081-.83284.48249-.34416.95881-.6952,1.43375-1.04555q.4326-.319.8645-.63807c.764-.56992,1.52118-1.146,2.279-1.73522.03168-.02478.05025-.05644.08125-.08123,28.90823,1.37112,63.04968,8.04563,85.47132,14.83925L423.3781,366.0404Z"/>
      <path class="cls-4" d="M165.71994,338.82957q.574-.27255,1.146-.52586c.15694-.075.307-.15006.46324-.21887-.53825.24364-1.07721.49489-1.60925.74473"/>
      <rect class="cls-4" x="195.30387" y="342.54391" width="2.8645" height="12.62023" transform="translate(-114.05436 96.24066) rotate(-21.47466)"/>
      <path class="cls-4" d="M210.3927,340.10735l-.65734-2.18537-1.80887.54446-.70209.21338,1.05931,3.51243q.11148.3758.225.73236a42.96337,42.96337,0,0,0,1.5274,4.25718l-.05025.01926a37.72331,37.72331,0,0,0-3.23644-3.54408l-3.82632-3.68107-3.19235.96432,3.63771,12.08394,2.50957-.75784-1.08893-3.61912c-.59467-1.972-1.15085-3.68726-1.72144-5.25316l.0757-.02479a42.3789,42.3789,0,0,0,3.38029,3.637l4.00113,3.86417,2.84893-.85763-1.62167-5.38533Z"/>
      <path class="cls-4" d="M220.04116,340.98391c-.11221-.01857-.22443-.03785-.338-.05642-.2306-.03168-.45086-.06884-.65113-.10671-1.27062-.21888-1.8715-.4763-2.00917-1.13915a.99417.99417,0,0,1,.14384-.764,1.45129,1.45129,0,0,1,.34415-.36961,2.61244,2.61244,0,0,1,1.04553-.43778,6.107,6.107,0,0,1,2.54814-.00689c.05642.01309.11288.01929.16313.03168l.11905-2.37948a5.74006,5.74006,0,0,0-1.07031-.13148h-.00689a8.34013,8.34013,0,0,0-2.20394.20718,6.10447,6.10447,0,0,0-2.29758.96363c-.03785.02548-.06953.05026-.106.075a3.53222,3.53222,0,0,0-1.46543,3.66386,3.04651,3.04651,0,0,0,1.36494,1.98992h.00617a6.77574,6.77574,0,0,0,2.84272.934c1.57075.19339,2.2604.52448,2.41664,1.27612.17485.80806-.38818,1.484-1.6712,1.76a6.4244,6.4244,0,0,1-1.77858.12528,6.85493,6.85493,0,0,1-1.47782-.22577l-.06881,2.42973a8.232,8.232,0,0,0,3.66319.0117,6.54928,6.54928,0,0,0,2.83511-1.26443,3.53924,3.53924,0,0,0,1.378-2.91153,3.384,3.384,0,0,0-.08742-.73855c-.351-1.64643-1.50257-2.56051-3.63836-2.93634"/>
      <polygon class="cls-4" points="234.305 335.668 233.947 333.301 230.165 333.871 226.609 334.41 224.337 334.754 224.562 336.225 224.7 337.12 225.846 336.945 225.852 336.945 227.806 336.651 228.068 336.613 228.194 337.459 228.2 337.471 228.337 338.385 229.189 344.02 229.596 346.719 232.426 346.293 232.301 345.454 230.899 336.181 231.3 336.118 234.305 335.668"/>
      <polygon class="cls-4" points="240.372 338.699 239.752 332.712 236.903 333.007 238.206 345.561 241.054 345.266 240.459 339.506 240.372 338.699"/>
      <polygon class="cls-4" points="252.5 333.433 252.418 332.055 252.405 331.855 251.836 331.887 249.105 332.037 242.701 332.394 242.838 334.785 246.238 334.597 246.388 337.24 246.463 338.68 246.651 342.01 246.708 343.037 246.807 344.804 249.244 344.671 249.669 344.647 249.563 342.73 249.244 337.008 249.187 336.025 249.1 334.434 251.29 334.316 252.543 334.247 252.5 333.44 252.5 333.433"/>
      <path class="cls-4" d="M263.0308,333.151l-.05647,3.24951-.00617.413-.04407,2.38568c-.03718,2.21016-.87622,3.24331-2.37329,3.21783-1.43925-.02409-2.28451-1.13845-2.24733-3.29217l.04407-2.53641.04335-2.767.0124-.6952v-.20718l.01928-1.09579-1.85361-.03166-.98911-.01859-.01928.98978-.03718,2.323-.00618.43158-.01928.996v.21887l-.03718,2.11656c-.04474,2.39807.59471,3.99426,1.791,4.90214a5.297,5.297,0,0,0,3.149.93333c2.32926.03785,4.01352-.83354,4.8216-2.71744h.00622a7.44246,7.44246,0,0,0,.53824-2.77388,1.04942,1.04942,0,0,0,.00551-.13147l.03235-2.016.075-4.22.01239-.8769-2.84271-.04337Z"/>
      <polygon class="cls-4" points="269.06 332.13 269.06 332.162 268.847 334.516 272.24 334.823 271.909 338.529 271.834 339.337 271.327 345.003 274.182 345.259 275.096 335.079 278.527 335.386 278.74 333.001 269.141 332.137 269.06 332.13"/>
      <polygon class="cls-4" points="282.716 333.545 281.833 333.408 281.419 336.101 281.413 336.112 279.979 345.429 279.911 345.88 285.282 346.706 287.869 347.107 288.201 344.934 288.207 344.934 288.225 344.791 283.098 344.007 283.098 344.001 283.555 341.046 287.048 341.579 288.144 341.748 288.313 340.64 288.495 339.456 283.906 338.749 284.306 336.156 285.083 336.275 287.405 336.632 289.153 336.901 289.359 335.549 289.508 334.591 286.285 334.097 282.716 333.545"/>
      <path class="cls-4" d="M305.33675,338.03411c-.22505-.08741-.45632-.16174-.7007-.23127-3.57577-.97052-6.68072.97671-7.70768,4.75277,0,.00619-.00617.01789-.00617.02478a7.31441,7.31441,0,0,0-.11221,3.606,5.53914,5.53914,0,0,0,4.18148,4.12573c3.26879.88929,6.56233-.6071,7.66982-4.68877a6.70312,6.70312,0,0,0-.594-5.44107,5.44379,5.44379,0,0,0-2.73055-2.14821m.40751,6.83765c-.59471,2.204-2.10417,3.81323-4.05142,3.28185a2.93057,2.93057,0,0,1-2.07181-2.96247,6.197,6.197,0,0,1,.23127-1.897,5.54936,5.54936,0,0,1,1.44-2.61762,2.78136,2.78136,0,0,1,1.29608-.73858l.00689-.00617a2.63921,2.63921,0,0,1,1.33943.02476,2.60819,2.60819,0,0,1,1.8784,1.92864,5.66538,5.66538,0,0,1-.06881,2.98657"/>
      <polygon class="cls-4" points="309.438 352.611 312.124 353.613 313.902 348.86 318.147 350.457 318.955 348.296 314.71 346.706 315.731 343.989 320.27 345.692 321.09 343.501 313.871 340.79 309.438 352.611"/>
      <polygon class="cls-4" points="97.026 360.658 99.947 372.391 102.693 371.857 99.773 360.124 97.026 360.658"/>
      <path class="cls-4" d="M110.70906,358.04974l.82665,3.41747a44.80388,44.80388,0,0,0,1.4248,4.87321l-.05438.01034a37.227,37.227,0,0,0-2.97005-3.65561l-3.54134-3.83938-3.19926.59743,2.84616,11.75218,2.51646-.47011-.85352-3.52207c-.46323-1.91833-.90513-3.58541-1.37042-5.121l.07159-.01309a45.31772,45.31772,0,0,0,3.1077,3.75748l3.699,4.02867,2.85784-.53274-2.84614-11.75287Z"/>
      <path class="cls-4" d="M125.65277,356.59322a8.52982,8.52982,0,0,0-5.28345-.38064,25.30653,25.30653,0,0,0-3.63635.89343l2.66859,11.56289a24.96249,24.96249,0,0,0,3.17653-.37719,8.65236,8.65236,0,0,0,5.23528-2.50062,5.7451,5.7451,0,0,0,.9175-5.1224,5.61068,5.61068,0,0,0-3.0781-4.07547m-2.97761,9.51929a8.07348,8.07348,0,0,1-.98636.11908l-1.7779-7.70284a6.12667,6.12667,0,0,1,1.21968-.32283,3.7301,3.7301,0,0,1,4.70046,3.06228c.65046,2.81243-.6649,4.42515-3.15588,4.84431"/>
      <polygon class="cls-4" points="130.364 354.586 132.942 366.383 135.706 365.933 133.13 354.136 130.364 354.586"/>
      <path class="cls-4" d="M139.6268,353.13015l-1.506,12.34756,2.873-.3827.29735-3.158,3.5083-.46735,1.51979,2.91567,2.99964-.4006-6.05712-11.33919Zm1.68842,6.76742.24917-2.62862c.05506-.69176.0819-1.63268.11631-2.34094l.05508-.00689c.31111.66146.69587,1.51151,1.04691,2.18468l1.22244,2.43317Z"/>
      <path class="cls-4" d="M158.04642,351.46979l.39026,3.47047a43.88853,43.88853,0,0,0,.8005,4.97853l-.05506.00275a36.74126,36.74126,0,0,0-2.49995-3.9743l-3.0485-4.23034-3.2743.18447,1.3429,11.93182,2.57358-.14454-.402-3.57646c-.21888-1.94652-.446-3.64389-.71516-5.21531l.07365-.00342a45.15482,45.15482,0,0,0,2.6252,4.09267l3.18206,4.43545,2.92392-.16382L160.62205,351.326Z"/>
      <path class="cls-4" d="M354.18461,357.27878c-1.61272-.52793-2.312-.85486-2.27489-1.58241.031-.5892.66217-1.1419,1.9094-1.17633a6.49774,6.49774,0,0,1,2.63413.48252l.73237-2.14752a7.90326,7.90326,0,0,0-3.21716-.48457c-2.98383.08053-4.89457,1.63748-4.99645,3.63012-.08944,1.71527,1.25412,2.71677,3.35,3.37065,1.48606.444,2.06837.86108,2.03123,1.57073-.03924.76264-.76405,1.28438-2.08492,1.32017a7.42009,7.42009,0,0,1-3.15448-.6422l-.69864,2.19846a8.52237,8.52237,0,0,0,3.56955.63119c3.51174-.095,5.20432-1.81853,5.30481-3.77674.086-1.64507-.89618-2.692-3.10495-3.39407"/>
      <path class="cls-4" d="M358.94563,358.42748c-.4075,3.32454,1.53765,5.93666,5.91532,6.09981a9.542,9.542,0,0,0,3.31076-.38133l-.1783-2.09383a8.00006,8.00006,0,0,1-2.43247.29183c-2.55431-.095-3.87724-1.623-3.59089-3.95983a4.06249,4.06249,0,0,1,4.51046-3.71136,6.13026,6.13026,0,0,1,2.33338.52174l.85488-2.056a7.29336,7.29336,0,0,0-3.0547-.63462c-3.8325-.14317-7.18182,1.941-7.66844,5.92357"/>
      <polygon class="cls-4" points="369.774 364.669 372.623 364.935 374.751 353.309 371.903 353.043 369.774 364.669"/>
      <polygon class="cls-4" points="384.665 356.683 385.123 354.534 377.438 353.6 374.967 365.191 382.932 366.16 383.389 364.01 378.259 363.385 378.845 360.634 383.439 361.192 383.893 359.059 379.3 358.502 379.812 356.094 384.665 356.683"/>
      <path class="cls-4" d="M394.3969,359.18305a41.024,41.024,0,0,0-.85488,4.87393l-.05507-.00758a30.58121,30.58121,0,0,0-1.15291-4.23929l-1.61-4.58275-3.28665-.43778L384.82046,366.36l2.58527.34485.78468-3.46769c.42742-1.88871.76334-3.54134,1.01662-5.08178l.073.00964a37.01371,37.01371,0,0,0,1.23756,4.37419l1.67191,4.8037,2.9377.39165,2.61628-11.57115-2.5867-.34483Z"/>
      <path class="cls-4" d="M404.2066,367.2512c-2.48067-.45771-3.53447-2.175-2.88818-4.47331a4.09013,4.09013,0,0,1,4.98818-3.07329,5.8938,5.8938,0,0,1,2.19432.85282l1.15845-1.93484a7.00054,7.00054,0,0,0-2.8854-1.07031c-3.721-.68625-7.3181.92439-8.41732,4.83948-.91752,3.26946.57337,6.16036,4.82433,6.94435a9.22311,9.22311,0,0,0,3.29287.08879l.15556-2.12137a7.72168,7.72168,0,0,1-2.42281-.05232"/>
      <polygon class="cls-4" points="418.746 363.068 419.56 360.991 412.232 358.865 407.847 370.062 415.438 372.266 416.252 370.19 411.362 368.77 412.402 366.112 416.781 367.383 417.588 365.322 413.209 364.052 414.12 361.725 418.746 363.068"/>
      <path class="cls-4" d="M168.30281,414.98839H165.8662c-.04061-5.04874-4.92415-9.10219-10.96475-9.10219-3.88824.0413-7.03175,2.23425-7.03175,4.96546a6.15927,6.15927,0,0,0,1.65195,3.72375h6.20923a4.73685,4.73685,0,0,1-1.409-3.72375c-.03924-1.94585,1.07513-3.51519,2.44279-3.51519,2.06837,0,3.72239,3.43259,3.72239,7.65192h-2.43317V414.987H92.53248v2.07044h2.07045v8.48132H89.63954v-8.06765c0-2.72983-2.776-4.96546-6.20855-4.96546-3.434.04337-6.20717,2.23563-6.20717,4.96546,0,2.73189,2.77321,4.96339,6.20717,4.96339h.82942v3.10426h-1.241c-2.5254,0-4.55248,1.57417-4.55248,3.51588.0413,2.40151,2.606,4.34323,5.79351,4.34323,2.97761,0,5.37913-1.94172,5.37913-4.34323v-1.85912h4.96339v6.40884c.04129.912-.91,1.65676-2.07045,1.65676v1.24377h9.51793v-1.24377A1.89156,1.89156,0,0,1,99.98,433.60437V417.05745h3.27015v-.00207H105.684v16.54967c.04062.912-.90994,1.65677-2.0711,1.65677v1.24308h9.5179v-1.24308a1.88879,1.88879,0,0,1-2.06767-1.65677V417.05538h7.027a6.10622,6.10622,0,0,1,6,6.20922,5.71441,5.71441,0,0,1-5.79282,5.58425,10.63029,10.63029,0,0,1-3.72236-.62154l-.41438,1.24377c1.11439,0,2.81312,1.48675,5.37777,4.134,1.77858,1.86325,3.72442,2.89985,5.37913,2.89985a7.63194,7.63194,0,0,0,6.20647-3.51794l-.82667-1.03384a4.03119,4.03119,0,0,1-3.105,1.44476c-1.36561.04681-3.10219-1.11644-4.75621-3.09945,4.67637-.78536,8.109-3.60054,8.109-6.62291-.04337-3.392-3.55923-6.287-8.109-6.62014h26.97066v4.346a11.28026,11.28026,0,0,0-6.20647-1.44819c-5.503,0-9.92884,3.805-9.92884,8.48408a10.92648,10.92648,0,0,0,4.136,8.06766l4.96615-2.482c-1.696-1.369-2.64794-3.89238-2.64794-6.82871,0-3.1022,2.10967-5.5863,4.71492-5.5863a7.72058,7.72058,0,0,1,4.96614,1.65675v10.34045c.0413.912-.90994,1.65677-2.07043,1.65677v1.24308h9.51862v-1.24308a1.89112,1.89112,0,0,1-2.07043-1.65677V417.05538h2.43523v.00068h3.26741v16.96543c.042.70138-.90927,1.239-2.07045,1.239v1.24309h9.51793v-1.24309c-1.15772.0413-2.06837-.53757-2.06837-1.239V417.05606h7.11092c2.39944,0,4.34529,1.4895,4.34529,3.3094,0,1.82194-1.94585,3.31144-4.34529,3.31144a9.64059,9.64059,0,0,1-3.51587-.41367c-.04338,5.83617,4.05412,10.55176,9.10218,10.55176,3.3087.0413,6.12388-1.40828,7.4475-3.72443v3.51519c0,.90994-.99461,1.65469-2.23564,1.65469v1.24309h9.68312v-1.24309a1.88771,1.88771,0,0,1-2.06837-1.65469V417.05606h3.2681v-2.06767H168.30281Zm-84.0424,14.06626c.03854,1.03659-.54032,1.86119-1.241,1.86119a1.87264,1.87264,0,0,1,0-3.72031h1.241Zm0-9.30868a.84929.84929,0,1,1-1.65677,0v-4.54971a.8488.8488,0,1,1,1.65677,0Zm101.75052-2.68991v10.55246a5.38248,5.38248,0,0,1-4.96616,3.51519c-2.853,0-5.17057-2.77113-5.17057-6.20373,4.34392,0,7.90109-2.02913,7.90109-4.55452-.03923-1.44545-1.85911-2.85374-4.38452-3.3094Z"/>
      <path class="cls-4" d="M213.22462,414.57506c-.33109-.37236-.1659-1.15842-.1659-2.895a4.52853,4.52853,0,0,1,4.50912-4.55178,11.38371,11.38371,0,0,1,10.75755,7.4468h5.3798c-1.98506-5.4624-8.36019-9.10218-15.93158-9.10218-6.16242,0-11.16916,2.77182-11.16916,6.20716a5.05854,5.05854,0,0,0,1.241,2.895Z"/>
      <path class="cls-4" d="M280.9773,414.98687H216.49388v-.00068H204.57721v2.07043h3.26807V433.6063c.04269.90994-.9079,1.654-2.06837,1.654v1.24376h9.51516v-1.24376a1.88826,1.88826,0,0,1-2.06766-1.654V417.05662h3.26947v-.00138h15.13727v4.55316a8.02113,8.02113,0,0,0-6.20649-2.48273c-4.54971.042-8.27688,3.35275-8.27688,7.4475.04335,4.0975,3.72717,7.45025,8.27688,7.45025a8.03265,8.03265,0,0,0,6.20649-2.482v2.06355c.0413.912-.91,1.65675-2.0677,1.65675v1.24309h9.5131v-1.24309a1.889,1.889,0,0,1-2.06833-1.65675V417.05524h24.24013v3.31146c-4.46711,0-8.77109-1.6547-13.23892-1.6547-3.63979,0-6.62013,2.02707-6.62013,4.55247,0,2.27486,2.40147,4.13674,5.3798,4.13674h3.51518a2.9257,2.9257,0,0,1,3.10222,2.69059c-.03924,1.94172-2.23288,3.51313-4.96339,3.51313a13.029,13.029,0,0,1-7.03381-1.65195l-.82943,1.44476a13.04324,13.04324,0,0,1,5.58562,3.93162,7.90116,7.90116,0,0,0,6,2.89571,5.1138,5.1138,0,0,0,4.346-2.68853l-.82736-.8246a3.05134,3.05134,0,0,1-4.96545-1.45026h2.27624c3.80636-.04129,6.86657-2.23632,6.86657-4.96339a4.67513,4.67513,0,0,0-4.7982-4.55246H250.0778a2.37018,2.37018,0,0,1-2.23633-2.48136,2.69834,2.69834,0,0,1,2.85717-2.4841c3.55719,0,6.95055,1.65469,10.54971,1.65469v11.16987c.04336.912-.90857,1.65675-2.06836,1.65675v1.24309h9.51515v-1.24309a1.89009,1.89009,0,0,1-2.06766-1.65675V417.05524h5.69989v16.54969c.042.912-.91,1.65675-2.06976,1.65675v1.24309h9.51793v-1.24309a1.88905,1.88905,0,0,1-2.06837-1.65675V417.05524h2.43659v.00138h20.52191v5.58562a22.22821,22.22821,0,0,0-11.174-2.68784,7.69942,7.69942,0,0,0-7.86189,7.44681c0,3.88825,3.52073,7.03381,7.86189,7.03381,4.264,0,7.698-3.14556,7.698-7.03381a5.87684,5.87684,0,0,0-2.937-5.172c3.10217.53758,5.29376,1.32362,6.41293,2.27487v9.10149c.03924.90995-.912,1.6547-2.06971,1.6547v1.24308h9.51515v-1.24308a1.8883,1.8883,0,0,1-2.06765-1.6547v-16.549h3.26736v-2.06837H280.9773Zm-49.34615,14.89775a5.46647,5.46647,0,0,1-3.72511,1.65676,4.72033,4.72033,0,0,1-4.30126-4.96821c.0413-2.72914,1.94448-4.96477,4.30126-4.96477a5.07021,5.07021,0,0,1,3.72511,1.65607Zm57.86056,2.89433c-.90789,0-1.40417-2.40151-1.40417-5.37774,0-3.18618.41368-5.79281,1.40417-5.79281.99457.0413,1.24307,2.60663,1.24307,5.79281,0,2.97623-.33109,5.37774-1.24307,5.37774"/>
      <path class="cls-4" d="M344.08454,411.05822a2.48307,2.48307,0,1,0-2.48138-2.48135,2.48988,2.48988,0,0,0,2.48138,2.48135"/>
      <path class="cls-4" d="M362.9095,433.4c-1.241.04336-2.89574-1.11919-4.54975-3.10289,4.67637-.87,8.109-3.72443,8.109-6.82664,0-3.2674-3.72238-6.08258-8.52264-6.413h13.654v-2.07043H319.23012v2.06837h4.17736a6.30037,6.30037,0,0,1,6.41365,6.20853c.04063,2.979-2.85649,5.37776-6.41365,5.37776a7.969,7.969,0,0,1-3.10154-.41437l-.41436,1.24378a12.40548,12.40548,0,0,1,4.75691,3.72031c1.78068,2.10966,3.807,3.31351,5.58561,3.31351a8.5086,8.5086,0,0,0,6.41437-3.31351l-1.03452-1.03177a4.21469,4.21469,0,0,1-3.31148,1.23826c-.95121.04612-2.48134-1.11644-4.136-3.09946,4.51047-.20717,8.10963-3.105,8.10963-6.62289-.04407-3.392-3.55993-6.287-8.10963-6.62015h13.23821v8.89569a3.63019,3.63019,0,0,1-2.482,1.07721,5.81708,5.81708,0,0,1-2.89506-.86865l-.41364,1.65469a6.37011,6.37011,0,0,0,3.3087.868,5.6496,5.6496,0,0,0,2.482-.66078v5.58356c.04335.912-.90992,1.65675-2.06837,1.65675V436.505h9.51792v-1.24309a1.89113,1.89113,0,0,1-2.07042-1.65675V417.05545h2.639v.00206h3.5572c3.88824.04062,7.03381,2.60525,7.03381,5.7928,0,3.1848-3.063,5.7928-6.82662,5.7928a6.67878,6.67878,0,0,1-2.68853-.41642l-.41368,1.24584a12.383,12.383,0,0,1,4.759,3.7203c1.77858,2.10967,3.80565,3.31145,5.58423,3.31145,1.86327.0413,4.01217-1.20178,5.79281-3.31145l-.828-1.239A3.59457,3.59457,0,0,1,362.9095,433.4"/>
      <path class="cls-4" d="M368.994,426.283a4.95894,4.95894,0,0,1-2.5667-.74406l-.62017,1.44683a6.35441,6.35441,0,0,0,3.10423.95193,5.93306,5.93306,0,0,0,3.10222-.74268l-.41368-1.65608a5.1029,5.1029,0,0,1-2.6059.74406"/>
      <path class="cls-4" d="M438.2752,417.05662v-2.06837H409.94168v-.00138H388.55805v2.07044h1.65263v10.96337c-.61883,2.07112-3.22678,3.5207-6.41365,3.5207-3.30871,0-5.99724-2.02913-5.99724-4.55454,5.958,0,10.75826-3.51518,10.75826-7.86117,0-2.73258-3.518-4.96339-7.86051-4.96339-3.891.03924-7.03655,2.23081-7.03655,4.96339,0,2.98038,3.14557,5.37913,7.03655,5.37913-.91269.786-2.77386,1.241-5.1726,1.241a7.40979,7.40979,0,0,1-3.518-.62017,9.277,9.277,0,0,0,9.10151,9.51516c4.13808-.03922,7.53282-1.40827,9.10219-3.72443v2.68854c.04335.912-.9079,1.65606-2.06837,1.65606v1.24378h9.51515V435.261a1.88957,1.88957,0,0,1-2.06765-1.65606V417.05731h3.26946v-.00207h2.43248v16.54969c.042.912-.91,1.65675-2.06976,1.65675v1.24309h9.51793v-1.24309a1.88905,1.88905,0,0,1-2.06837-1.65675V417.05524h2.43659v.00138h20.52191v5.58562a22.22821,22.22821,0,0,0-11.174-2.68784,7.69942,7.69942,0,0,0-7.86189,7.44681c0,3.88825,3.52073,7.03381,7.86189,7.03381,4.264,0,7.698-3.14556,7.698-7.03381a5.87684,5.87684,0,0,0-2.937-5.172c3.10217.53758,5.29376,1.32362,6.41293,2.27487v9.10149c.03924.90995-.912,1.6547-2.06971,1.6547v1.24308h9.51515v-1.24308a1.8883,1.8883,0,0,1-2.06765-1.6547v-16.549Zm-59.23508,4.3446v-4.13673c.042-.78605.99528-1.44958,2.19226-1.44958,1.07788.04337,1.94654.66353,1.94654,1.44958v4.13673c0,.78743-.86866,1.44958-1.94654,1.44958-1.197-.04337-2.19226-.66215-2.19226-1.44958m39.416,11.37773c-.90789,0-1.40417-2.40151-1.40417-5.37774,0-3.18618.41368-5.79281,1.40417-5.79281.99457.0413,1.24307,2.60663,1.24307,5.79281,0,2.97623-.33109,5.37774-1.24307,5.37774"/>
    </g>
  </g>
</svg>
