<svg id="a2373dbe-3f0e-4db8-90f2-e9906dd3f44a" data-name="Layer 1" xmlns="http://www.w3.org/2000/svg" width="512" height="512" viewBox="0 0 512 512">
  <defs>
    <style>
      .a01be25d-34a8-4711-a606-5c91993ed9c6 {
        fill: #3781c2;
        fill-rule: evenodd;
      }
    </style>
  </defs>
  <g id="e19a666c-d494-4523-a578-068db70fe9d0" data-name="g11">
    <g id="b1fea1f6-8527-44a8-ad89-8712c1d41f29" data-name="g2552">
      <path id="b63dbdd6-51ed-41ee-ba89-957a47274077" data-name="path161" class="a01be25d-34a8-4711-a606-5c91993ed9c6" d="M48.64838,191.42708l-.0033-.19937V175.26949h15.9245V292.31574l.0066.36492v15.79267H48.64508V292.51511l.0033-.19937V191.42708"/>
      <path id="f67c755c-1194-40b9-86fb-1b63aad0b841" data-name="path163" class="a01be25d-34a8-4711-a606-5c91993ed9c6" d="M210.57249,259.96339c.40874,24.20934,15.38707,43.57011,33.45716,43.24572,18.06659-.32435,32.37942-20.21219,31.97047-44.42158-.412-24.21274-15.39057-43.57346-33.46046-43.24572C224.47286,215.86621,210.16024,235.754,210.57249,259.96339Zm131.85217-29.27084c.41576.9224-.57084-1.37858-.57084-1.37858ZM353.27761,330.919c.72984-1.25015,1.74674-3.16261,2.95648-5.55145Zm.93586-108.5789c.19261.53723.41555,1.09811.6657,1.68942l5.36213,13.20786Zm-66.72522,66.48873c9.84263,8.98772,18.70527,13.63362,30.03791,13.63362,11.59949.08785,21.9117-5.619,21.9117-16.60361,0-9.16678-8.07877-14.529-22.51327-20.66836-12.23137-5.32506-21.33386-9.05866-26.09133-16.76581a60.50492,60.50492,0,0,1,.88534,10.34939c0,29.73042-21.43532,53.835-47.87826,53.835-26.44274,0-47.87806-24.10458-47.87806-53.835,0-17.9247,7.7917-33.80187,19.76962-43.587H183.33227v77.12869l.0033.30749v15.8501H168.9452V293.14019c.0101-.27032.0134-.544.0134-.82445V215.18705H156.27105v-9.7074h12.87336c1.66241-19.58376,13.72158-30.65958,30.41634-30.65958,10.82593,0,16.76921,1.13528,20.20208,2.7335V190.829c-.054.99-.054,1.59481-.054,1.59481-.14869-.01691-.5034-.02367-.5034-.02367-5.21014-4.83511-10.34934-8.43358-22.35448-8.42007-9.56216,0-15.88717,7.81526-13.67744,21.49956h53.85867a43.21588,43.21588,0,0,1,6.8082-.54063c19.18166,0,35.73124,12.68415,43.37094,31.00419q-.10671-1.52552-.10476-3.18622c0-19.11407,18.391-27.24357,37.4949-27.203.72984-.0034,1.44607,0,2.14889.01686,6.72386-.10811,16.30293,2.09827,22.15176,3.6458l11.33923,28.02069,16.205,39.76212,1.90225,6.386,2.11857-6.386,20.49266-51.03732c3.781-14.05257,18.74569-20.13448,35.27506-20.10071a58.81132,58.81132,0,0,1,21.5638,3.53428v15.43455c-8.96081-6.5516-15.37717-10.35954-25.5442-10.35954-8.93689,0-19.67826,3.9803-19.67826,17.21182-.17241,9.9439,5.75747,11.76169,23.15856,20.44868,14.30251,6.24751,27.497,13.14372,27.57472,29.11545,0,26.6286-26.07792,31.24073-38.77228,31.28125-11.33263,0-21.71908-2.81454-27.497-7.64966V287.29817l.92926.77376c10.30892,9.68374,19.41821,14.70131,31.1901,14.70131,11.60279.08786,21.91171-5.62239,21.91171-16.607,0-9.16682-8.07877-14.529-22.51327-20.66835-13.79561-6.00758-22.84757-9.98788-26.5475-19.93852-5.62569,13.80257-31.79477,77.916-37.95438,91.62052H349.946l6.38606-11.99488c3.53763-7.00767,8.68363-18.0024,13.25508-28.52074l-27.16247-65.97176c-.18231-.4021-.62838-1.41576-1.53722-3.49376-2.08476-4.77768-4.02433-9.19044-9.88986-11.41368a31.67559,31.67559,0,0,0-10.37636-1.62188c-8.93709,0-20.36768,3.9803-20.36768,17.21183-.1724,9.94389,6.44339,11.76174,23.84778,20.44532,14.30252,6.25087,27.497,13.14708,27.57472,29.1188,0,26.62865-26.08122,31.23738-38.77557,31.28131-10.07568,0-19.4081-2.22669-25.41222-6.11909V288.82879"/>
      <path id="afe1d861-3831-427a-b29c-c4ff7b27141f" data-name="path165" class="a01be25d-34a8-4711-a606-5c91993ed9c6" d="M94.28639,206.47305l.17571,11.65022-.0101.78387.15528-.0034a4.83516,4.83516,0,0,1,.67251-1.20623c5.84862-6.3083,13.22127-12.576,30.744-12.576,16.7725,0,27.62875,14.33639,28.06451,23.36128l.01691,63.833v16.15759H139.73179v-19.033l-.00351-54.34186c0-11.25148-9.81541-19.38773-21.83066-19.38773-9.98782,0-22.80714,9.04175-23.2328,18.195v58.42687l.00681.42911v15.72508H80.29116V219.887l.0035-13.41393H94.28639"/>
    </g>
  </g>
</svg>
