<svg id="Layer_1" data-name="Layer 1" xmlns="http://www.w3.org/2000/svg" width="512" height="512" viewBox="0 0 512 512">
  <defs>
    <style>
      .cls-1 {
        fill: #0e88d3;
      }

      .cls-1, .cls-2 {
        fill-rule: evenodd;
      }

      .cls-2 {
        fill: #f47216;
      }
    </style>
  </defs>
  <g id="g12">
    <path id="path76" class="cls-1" d="M170.21278,148.53989l-7.15337,14.53716,24.74558,5.5085,7.0339-14.41982Zm30.01941,6.9187-7.03817,14.535,24.74772,5.62584,6.91016-14.422Zm80.317,18.51812-6.91656,14.535,24.74559,5.74531L305.41,179.722Zm30.13675,7.03817-7.0339,14.53075,24.85653,5.6301,6.91656-14.42194Z"/>
    <path id="path84" class="cls-1" d="M283.01544,274.90687a5.72241,5.72241,0,0,0-3.8679,1.64487,5.848,5.848,0,0,0-1.64273,3.981,5.61022,5.61022,0,0,0,5.51063,5.63011,5.94789,5.94789,0,0,0,4.10256-1.64274,5.31047,5.31047,0,0,0,1.64274-3.98737,4.97392,4.97392,0,0,0-1.64274-3.981A5.45767,5.45767,0,0,0,283.01544,274.90687Zm-10.20417,14.18727V295.776h39.51742a27.06043,27.06043,0,0,0-13.72005,7.38165,28.49057,28.49057,0,0,0-5.276,8.56143c-.7067,1.63747-1.29167,3.28131-1.99262,5.15436,11.49108.12063,18.64421.58585,21.81,1.75794a27.96723,27.96723,0,0,1,5.98212,3.40067c2.45909,1.87305,3.75,3.63729,4.10044,5.39543H300.0167l-7.85527,7.85527h27.20543c7.96905-5.9811,11.8405-10.90605,11.8405-14.89343a6.81558,6.81558,0,0,0-2.2273-4.80234c-3.16576-3.1658-7.38958-5.1608-12.664-6.09733a92.71612,92.71612,0,0,0-14.30674-.82136,41.50677,41.50677,0,0,0,2.81612-4.45246c1.40766-1.75814,2.69371-2.57931,4.222-2.57931,3.51627,0,9.49729,2.34312,17.46635,6.91656l7.97474-8.08994a61.38482,61.38482,0,0,0-9.146-4.68714h93.10689v-6.68188H272.81127Zm5.39543,12.07091v34.11772h9.73268V301.16505Zm60.85593,0v34.11772h9.84788V312.069a20.63145,20.63145,0,0,1,7.85954-1.75794,10.13315,10.13315,0,0,1,6.4472,2.11q2.99054,3.16291,2.46411,9.84789L374.006,314.179c.23554-4.21723-.82059-7.50461-2.92919-9.61323a9.21762,9.21762,0,0,0-6.56668-2.57929,17.40428,17.40428,0,0,0-8.56143,2.57929,24.60571,24.60571,0,0,0-7.03817,5.03917v-8.43985Zm39.9825,0v25.44109s.23584,4.92469,3.52228,7.38378a10.87432,10.87432,0,0,0,5.389,1.29285h26.61873V310.311a9.90247,9.90247,0,0,0-2.22943-6.332,6.02094,6.02094,0,0,0-5.15862-2.814Zm24.01809,8.96892c2.54534-.0474,2.366.62776,2.366,4.62953v11.37115H390.07066s-1.52693.1213-1.87741-.34988c-.46539-.586-.23681-1.28792-.23681-4.68927v-10.904H401.7981c.48335-.02873.9015-.05078,1.26512-.05756Z"/>
    <path id="path96" class="cls-2" d="M176.54428,282.52626l88.99829-180.40974-.586,309.47744L240.45183,205.7487l-63.90755,76.77756"/>
    <path id="path98" class="cls-2" d="M215.35391,270.45015c-.57066.02065-1.15469.06095-1.75582.11947l-3.2812,7.85527c9.25306-1.67146,13.204.90877,16.69617,10.43244H97.04913v6.79709h31.308v3.87216s-12.43458-4.924-22.98338,4.56767a15.18284,15.18284,0,0,0-1.29285,18.996s6.80358-3.75287,17.588-1.99475c10.08341,1.75813,9.61747,6.56241,9.61747,6.56241s-1.40829,5.98083-9.498,4.80874c-8.08971-1.29274-7.50326-9.3764-7.50326-9.3764l-8.91131,5.97572a18.35491,18.35491,0,0,0,11.0106,7.60566l6.812,10.217h10.08469L125.50261,336.838c.88039-.15636,1.789-.35707,2.73291-.61869,19.58078-5.15949,12.66306-19.9316-1.87314-23.79835-10.08916-2.57974-20.98863,2.3425-20.98863,2.3425s1.40288-12.42756,19.4611-9.4916c10.0834,1.75239,13.72005,5.86051,13.72005,5.86051v-15.478H158.767l-8.48463,3.98737a28.73642,28.73642,0,0,1,5.86052,11.13434c1.29273,6.56715-1.52308,7.74031-3.28121,7.85527-1.17208-.81589-6.68189-8.67024-6.68189-8.67024l-3.87216,3.39641,13.95473,21.9252h9.84788s-9.02692-10.905-10.43457-12.89868a9.598,9.598,0,0,0,7.59072-3.646,13.61405,13.61405,0,0,0,5.308,1.53606A14.95117,14.95117,0,0,0,178.659,317.8143v17.46847h10.19777V295.65442H210.927l-8.5849,3.98737a25.70816,25.70816,0,0,1,5.86479,11.13434c1.287,6.56715-1.40669,7.74031-3.28548,7.85527-.93652-.81589-6.68188-8.67024-6.68188-8.67024l-3.87217,3.39641,13.83953,21.9252H218.17s-8.79011-10.905-10.19777-12.89868c3.16579-.1149,8.43988-1.638,9.37641-9.14172,1.36807-9.95444-3.076-15.86581-4.61674-17.58795h12.12v39.62195h10.20416V295.65442h5.39543v-6.79709H233.008C228.79544,274.11569,223.64852,270.14988,215.35391,270.45015Zm-54.78634,25.20427H178.659V307.145s-.00013,3.16742-6.21679,6.21253a18.42547,18.42547,0,0,1-7.61846,2.13343,14.34719,14.34719,0,0,0,.46508-2.24863C166.65683,303.28848,162.13521,297.37693,160.56757,295.65442Z"/>
  </g>
</svg>
