<svg id="Layer_1" data-name="Layer 1" xmlns="http://www.w3.org/2000/svg" width="512" height="512" viewBox="0 0 512 512">
  <defs>
    <style>
      .cls-1 {
        fill: #062f62;
      }
    </style>
  </defs>
  <g id="_062f62ff" data-name="#062f62ff">
    <path id="path6" class="cls-1" d="M143.641,279.14124Q199.72916,180.94158,255.8194,82.74611,245.34162,149.97866,234.83668,217.205c-.05007.46944-.50073.73233-.772,1.07658Q162.46017,294.9466,90.84933,371.60543,117.19092,325.341,143.641,279.14124Z"/>
    <path id="path8" class="cls-1" d="M259.5436,82.72733Q342.12669,227.17891,424.64927,371.666q-32.90427-35.10127-65.73974-70.27347-39.07268-41.79228-78.15162-83.58038a3.03061,3.03061,0,0,1-.31087-1.25392Q270.00679,149.64171,259.5436,82.72733Z"/>
    <path id="path10" class="cls-1" d="M179.48085,287.83936c1.42708-1.546,2.75193-3.19217,4.23534-4.67976,9.30735-.04589,18.61886-.01459,27.92829-.01668q-24.15715,44.26774-48.39568,88.48964-29.18635,0-58.37065-.00209Q142.192,329.74432,179.48085,287.83936Z"/>
    <path id="path12" class="cls-1" d="M220.8642,283.13874q24.37.00627,48.73574.00418,2.15628,14.7246,4.32716,29.44508-8.06176.00627-16.12146.00418-.00313,29.52121-.00209,59.04456-25.531.00623-51.06.00832c2.464-8.479,5.05111-16.92262,7.56312-25.38706q5.01982-16.74633,10.02506-33.49475-8.24643.00627-16.49075.00418Q214.35677,297.95519,220.8642,283.13874Z"/>
    <path id="path14" class="cls-1" d="M285.7986,283.58732c1.78385-.7365,3.72836-.39224,5.59776-.44858q20.23581-.00626,40.47369-.00626c7.95328,8.8859,15.86066,17.81978,23.80976,26.71193q-16.50534.00626-33.01278.00835a3.2845,3.2845,0,0,0-2.777,4.613c3.33821,6.25914,6.74111,12.487,10.096,18.73986a8.54552,8.54552,0,0,0,7.5235,4.93638q19.50658.00314,39.01113,0c1.42707.023,2.85833-.04589,4.28334.02921q14.86546,16.67122,29.64537,33.42589-49.30326.01252-98.60441.00209a25.58347,25.58347,0,0,1-4.36262-.11059,11.07027,11.07027,0,0,1-8.17862-6.12352,23.51073,23.51073,0,0,1-1.38743-4.64219q-8.503-34.11231-17.02069-68.22463A7.81671,7.81671,0,0,1,285.7986,283.58732Z"/>
    <path id="path16" class="cls-1" d="M177.05438,396.83186a14.86412,14.86412,0,0,1,11.05782-3.74924,12.91167,12.91167,0,0,1,6.86836,2.74359c.6134.44858,1.49594,1.00148,2.22826.482.941-.79075.65512-2.27,1.571-3.08159.2775.1669.68017.29.61967.7052.06467,4.09765.05007,8.20155.20237,12.29711a4.3224,4.3224,0,0,1-.22532,1.692c-.29-.09179-.68852-.11682-.75527-.48194a53.816,53.816,0,0,0-2.13437-5.80432,19.72266,19.72266,0,0,0-2.92511-4.58795,8.604,8.604,0,0,0-5.44127-2.95221c-2.76238-.25873-5.88777.55079-7.56939,2.90632a14.42759,14.42759,0,0,0-2.1135,5.71668,76.1,76.1,0,0,0-.83456,9.36994c-.04173,3.89317.01252,7.90945,1.43335,11.594a9.23681,9.23681,0,0,0,4.131,5.03652,10.43538,10.43538,0,0,0,7.052.48821,10.1056,10.1056,0,0,0,6.57628-4.69436,16.03629,16.03629,0,0,0,1.97788-7.66327,3.26577,3.26577,0,0,1,1.46256,0,2.0535,2.0535,0,0,1,.17316.86585,22.40676,22.40676,0,0,1-1.18507,5.64365,10.88705,10.88705,0,0,1-7.78636,6.739,16.31075,16.31075,0,0,1-7.51932.25454,19.53022,19.53022,0,0,1-7.90738-4.12269,9.00365,9.00365,0,0,1-2.03422-2.3117,32.84176,32.84176,0,0,1-2.54121-4.73816,19.17659,19.17659,0,0,1,.03756-13.93077A22.94649,22.94649,0,0,1,177.05438,396.83186Z"/>
    <path id="path18" class="cls-1" d="M402.17688,393.38934a12.607,12.607,0,0,1,2.3284-.12936,1.01849,1.01849,0,0,1,.79908,1.06823q.02507,15.44128.00418,30.88466c-.03963,1.05781-.07511,2.38892.94722,3.02943a9.25886,9.25886,0,0,0,4.07262.49238c.23576.3234.28166.90133-.23785.93055-3.12124.20446-6.24873.32337-9.372.47776-.57375.0626-1.30816-.13353-1.42917-.77822-.0939-1.03692.02922-2.0822-.048-3.117-.09808-.1377-.19613-.26706-.29418-.386a17.31758,17.31758,0,0,1-2.17817,2.29711,9.277,9.277,0,0,1-7.92618,1.9174,10.9582,10.9582,0,0,1-6.99771-5.39747,14.96407,14.96407,0,0,1-1.33528-11.70667,13.786,13.786,0,0,1,6.31965-7.899,9.65325,9.65325,0,0,1,7.35031-1.00356,9.31143,9.31143,0,0,1,4.88629,3.83059c.32549-.50488.14606-1.1162.16692-1.67119-.02295-2.92093.00209-5.84186-.00209-8.76279a2.3501,2.3501,0,0,0-1.47924-2.21365,15.63656,15.63656,0,0,0-3.98289-.42978c.01042-.33175-.10641-.76362.31711-.86794,2.6977-.18778,5.39331-.39016,8.091-.5654m-10.7699,11.692a5.58157,5.58157,0,0,0-3.32567,3.31526,22.61548,22.61548,0,0,0-1.42711,8.47906,32.70322,32.70322,0,0,0,.56125,6.06927,9.15947,9.15947,0,0,0,2.03214,4.37516,4.99348,4.99348,0,0,0,4.91758,1.33526,5.29807,5.29807,0,0,0,2.71021-2.05717,14.18191,14.18191,0,0,0,2.23871-6.7098,23.8095,23.8095,0,0,0-.80537-9.60359,9.07654,9.07654,0,0,0-2.96683-4.52746A4.45489,4.45489,0,0,0,391.407,405.08139Z"/>
    <path id="path20" class="cls-1" d="M259.51439,393.74819a3.5252,3.5252,0,1,1-2.57877,3.72418A3.54462,3.54462,0,0,1,259.51439,393.74819Z"/>
    <path id="path22" class="cls-1" d="M327.94349,393.73983a3.52712,3.52712,0,1,1-2.59965,2.9272A3.49408,3.49408,0,0,1,327.94349,393.73983Z"/>
    <path id="path24" class="cls-1" d="M343.5663,394.33445c.05632-.68432,1.22053-.66137,1.27687.0167.00624,3.05447-.00836,6.11308-.00209,9.16755a.73511.73511,0,0,0,.77613.83246c2.16357.03757,4.33132-.03754,6.4949.0313a.68993.68993,0,0,1,.20655,1.27686c-2.16358-.00626-4.32924-.04171-6.49073-.00208a1.02536,1.02536,0,0,0-.9827,1.19131c-.0125,6.26123.00418,12.52455-.00624,18.78786a3.19343,3.19343,0,0,0,1.5001,3.03778,4.02818,4.02818,0,0,0,4.81538-1.05154,8.57672,8.57672,0,0,0,1.4542-5.33489,1.467,1.467,0,0,1,.2921-.92007c.3046.048.726-.07511.918.2608.28169.36929.10641.85332.09808,1.281a9.607,9.607,0,0,1-2.56208,6.35719,6.4805,6.4805,0,0,1-4.46694,1.71291,10.62956,10.62956,0,0,1-5.59358-1.19758,5.30259,5.30259,0,0,1-2.66848-4.56291q.00939-8.97249.00417-17.94287c-.05633-.51533.01668-1.17672-.45066-1.51472a6.15308,6.15308,0,0,0-1.9299-.121c-.71771-.0626-1.521.22741-2.1469-.2274-.02086-.44649.08346-1.087.66975-1.04528a7.65636,7.65636,0,0,0,7.14376-4.36054A19.69587,19.69587,0,0,0,343.5663,394.33445Z"/>
    <path id="path26" class="cls-1" d="M131.95937,394.3428q15.62593.00314,31.25188.00209c-.02086,4.75278.0313,9.50553-.025,14.25622.04381.66348-.79908.79493-1.183.37139a27.24885,27.24885,0,0,0-3.41123-9.9562,6.26371,6.26371,0,0,0-3.54894-3.07741,13.05409,13.05409,0,0,0-3.65325-.32131,1.67926,1.67926,0,0,0-.49656,1.4396q.0188,14.59945.00418,29.201a2.03967,2.03967,0,0,0,1.20384,2.005c1.77968.75112,3.77635.484,5.62488.90551.08763.46108-.10223,1.0223-.68016.92007-6.401.01462-12.80411-.00415-19.20513.01044-.32547-.025-.74692.03757-.941-.29209.00626-.169.02087-.51116.02713-.68017,2.07177-.34425,4.2729-.36511,6.1736-1.36865.56332-.30045,1.231-.75736,1.19967-1.47508q.00938-14.82165.00208-29.64537c.03338-.41728-.121-.99312-.61966-1.02442a7.89788,7.89788,0,0,0-4.57543.85541,11.95853,11.95853,0,0,0-3.6616,4.84877,31.77148,31.77148,0,0,0-2.32631,7.54851c-.20238.51324-.81786.38389-1.1642.10014Q131.96146,401.65243,131.95937,394.3428Z"/>
    <path id="path28" class="cls-1" d="M105.0242,395.43188c-.05008-.37138-.06468-.943.459-.90757q8.77532-.01252,17.55481-.00208c.52576-.04172.49238.53621.45691.90339-1.61694.37973-3.37576.23576-4.903.97644a1.75962,1.75962,0,0,0-.99312,1.7004q.00314,14.19259.00209,28.38312a1.85238,1.85238,0,0,0,1.31442,1.78593,20.42354,20.42354,0,0,0,4.28125.73024.56179.56179,0,0,1,.27957.78656c-.25871.32964-.70728.24618-1.07448.27331-5.56646-.01668-11.13293.00417-16.69939-.01251a.61358.61358,0,0,1-.68433-.8429c.34634-.36512.89506-.23159,1.34154-.31923a13.66444,13.66444,0,0,0,3.37994-.67389,1.83222,1.83222,0,0,0,1.1788-1.72959q.01252-14.19887.00209-28.39566a1.867,1.867,0,0,0-1.26643-1.8214C108.17255,395.699,106.55351,395.76364,105.0242,395.43188Z"/>
    <path id="path30" class="cls-1" d="M220.29044,394.59107c6.17152-.0897,12.35137-.01668,18.525-.03754a.53884.53884,0,0,1,.37554.991c-1.75255.26706-3.60943.144-5.29314.78657a2.106,2.106,0,0,0-1.304,2.174c.00418,9.25935-.01461,18.5208.00626,27.78015a2.10291,2.10291,0,0,0,1.5627,2.13022,11.92719,11.92719,0,0,0,5.10954.3943c2.368-.29207,4.93012-.75109,6.72024-2.46609,2.56624-2.464,3.54058-6.05468,4.0893-9.45755.10014-.46111.06259-1.183.62591-1.33947.57793.15439.63009.82829.628,1.32485q0,6.16214.00209,12.32635a.7001.7001,0,0,1-.61757.84079c-9.52849.03339-19.05908.0772-28.58966.06051a8.60354,8.60354,0,0,1-1.85688-.08137.51987.51987,0,0,1,.18986-.96808,18.4443,18.4443,0,0,0,4.31046-.76569,2.028,2.028,0,0,0,1.2414-2.01127q0-13.98294,0-27.96585a2.07339,2.07339,0,0,0-1.41874-2.03631,21.27389,21.27389,0,0,0-4.11852-.68016A.53462.53462,0,0,1,220.29044,394.59107Z"/>
    <path id="path32" class="cls-1" d="M285.24988,405.51538a8.38076,8.38076,0,0,1,4.492-1.62739,8.60535,8.60535,0,0,1,5.53307,1.377,7.79462,7.79462,0,0,1,2.681,3.864,4.11206,4.11206,0,0,0,.53411,1.04319c.61965-.603.82829-1.47924,1.39161-2.12186a12.61693,12.61693,0,0,1,4.15189-3.39452,9.57772,9.57772,0,0,1,6.37182-.47361,6.86591,6.86591,0,0,1,5.41832,6.23619c.0939,1.66284-.02295,3.32777-.01877,4.99269-.192,3.61572-.11059,7.24182-.29836,10.85753a2.006,2.006,0,0,0,.95975,2.06344,15.58408,15.58408,0,0,0,3.768.83872,2.04485,2.04485,0,0,1-.00627.87836c-2.86459.1085-5.73336.01668-8.598.048-2.44941-.0313-4.9009.05843-7.34614-.048a1.74,1.74,0,0,1,.00209-.87836,19.225,19.225,0,0,0,3.70542-.749,1.788,1.788,0,0,0,1.1162-1.74213c.05425-5.00522-.00208-10.01044.02713-15.01358a7.99813,7.99813,0,0,0-.49865-4.12269,2.93372,2.93372,0,0,0-2.63092-1.69832,5.54212,5.54212,0,0,0-4.22492,2.005,13.85143,13.85143,0,0,0-3.22555,7.11038,24.78215,24.78215,0,0,0-.2754,5.24725c.00626,2.16357-.01461,4.32924.00626,6.4949a1.80681,1.80681,0,0,0,1.14333,1.72753,23.093,23.093,0,0,0,3.43418.74691.48886.48886,0,0,1-.0146.85335,5.87211,5.87211,0,0,1-1.2247.06675c-4.66516-.01459-9.3303.01045-13.99544-.00626-.49238.13144-.93678-.47776-.56333-.86168,1.34572-.4256,2.90424-.25871,4.12478-1.05987.88045-.61965.69476-1.8089.7052-2.73942.00834-5.00731-.02921-10.01462.025-15.01984a5.68726,5.68726,0,0,0-1.39787-3.94118,3.21722,3.21722,0,0,0-3.10663-.42354,6.91417,6.91417,0,0,0-3.59691,2.81037,13.25991,13.25991,0,0,0-2.21156,5.30356c-.81787,3.70124-.42772,7.5068-.51952,11.26228-.00208.96808-.15021,2.23453.822,2.8187a13.34857,13.34857,0,0,0,3.839.92428c.05216.09388.1523.28583.20237.37971-.04589.12518-.13978.37556-.18568.50074-2.15732.11684-4.3209.02085-6.48029.05215-3.2026-.01459-6.40728.03131-9.60779-.02085-.54037-.01462-.52576-.64469-.24411-.95141a17.78384,17.78384,0,0,0,3.97664-.63424,1.78532,1.78532,0,0,0,1.2873-1.79846q.00939-9.30425,0-18.61052a1.83434,1.83434,0,0,0-1.38119-1.72753,20.62182,20.62182,0,0,0-3.38619-.57791c-.71145-.10432-.4277-1.19134.16691-1.20384,3.13584-.11685,6.26957-.29,9.40332-.459a1.39434,1.39434,0,0,1,1.62737,1.11623c.1544,1.43335-.169,2.875-.01668,4.31462.25035.51951.64468.00836.774-.30878A10.11015,10.11015,0,0,1,285.24988,405.51538Z"/>
    <path id="path34" class="cls-1" d="M365.3022,403.986a11.84458,11.84458,0,0,1,9.733,2.898,11.59389,11.59389,0,0,1,3.05237,8.93595.61686.61686,0,0,1-.72188.64263c-5.21595-.025-10.42984.0313-15.6437.04171-.52368.00209-.69266.58211-.701,1.01189a17.10739,17.10739,0,0,0,1.03486,8.02006,6.02129,6.02129,0,0,0,4.04341,3.52181,8.59978,8.59978,0,0,0,8.04089-2.25539,9.61306,9.61306,0,0,0,2.41187-4.88211c.05425-.386.35676-.82413.80534-.71981.71352.10223.49656.98894.46943,1.50012a9.43343,9.43343,0,0,1-5.59151,6.84122,12.90953,12.90953,0,0,1-11.06823-.44231,13.35358,13.35358,0,0,1-6.82456-10.15857c-.94305-6.787,4.179-13.841,10.95976-14.95519m.66763,1.11621a4.543,4.543,0,0,0-2.74775,1.84229c-1.43752,2.03631-1.692,4.59421-2.00083,6.99564-.11267.60294.15854,1.48132.91175,1.42917,2.64343.02712,5.28688.00832,7.93033.00626.73023.02295,1.65866-.144,1.9132-.94722a10.679,10.679,0,0,0,.24411-3.59483,6.9062,6.9062,0,0,0-1.66077-4.6735A5.2791,5.2791,0,0,0,365.96983,405.10225Z"/>
    <path id="path36" class="cls-1" d="M259.698,404.48051c1.04528-.00832,2.08429-.2274,3.12748-.14394a1.0796,1.0796,0,0,1,.822,1.25809c.00625,7.10411-.01252,14.21033.00417,21.31444a1.61408,1.61408,0,0,0,1.18923,1.51471,32.2167,32.2167,0,0,0,4.01837.74694.47871.47871,0,0,1-.19821.90966c-5.28688.03128-10.57586.01877-15.86065.00418-.5216.06884-.53412-.52577-.42772-.87,1.23723-.34843,2.48906-.651,3.73671-.966a1.93653,1.93653,0,0,0,1.44586-1.96956q.01878-8.99126-.00209-17.98041a1.9114,1.9114,0,0,0-1.21636-1.859,18.31541,18.31541,0,0,0-3.69706-.6739c-.36929-.10432-.26706-.52159-.31922-.80116a4.8873,4.8873,0,0,1,1.72962-.22326C255.93415,404.70168,257.81189,404.5139,259.698,404.48051Z"/>
    <path id="path38" class="cls-1" d="M323.95015,404.68915c2.222-.16272,4.45233-.18569,6.67224-.37344.58-.0939,1.38328.18984,1.36451.89086.025,7.16256,0,14.32718.01459,21.48972a1.70663,1.70663,0,0,0,1.07867,1.67536,27.415,27.415,0,0,0,4.179.80326.50018.50018,0,0,1-.37136.91592c-5.2243.00418-10.44861.01671-15.67082-.00418a.47721.47721,0,0,1-.35259-.84705c1.24974-.507,2.61424-.6426,3.88275-1.087a1.90084,1.90084,0,0,0,1.19967-1.86524q.00939-8.99751,0-17.99294a1.93524,1.93524,0,0,0-1.32276-1.89651,18.05615,18.05615,0,0,0-3.58023-.6155c-.36512-.121-.28375-.54663-.32131-.83455A16.181,16.181,0,0,1,323.95015,404.68915Z"/>
  </g>
</svg>
