<svg id="Layer_1" data-name="Layer 1" xmlns="http://www.w3.org/2000/svg" width="512" height="512" viewBox="0 0 512 512">
  <defs>
    <style>
      .cls-1 {
        fill: red;
      }
    </style>
  </defs>
  <g>
    <path class="cls-1" d="M237.14474,67.5759a25.76017,25.76017,0,0,1-4.77347.65093,22.555,22.555,0,0,0-4.77348.65092,19.15146,19.15146,0,0,1-3.6452.65093c-3.12445,0-24.56164,5.64136-29.20494,7.63755a6.57228,6.57228,0,0,1-2.21316.60753,1.63263,1.63263,0,0,0-1.17166.39055,3.42956,3.42956,0,0,1-1.60563.73773,10.2575,10.2575,0,0,0-2.08294.60752c-.34716.17359-1.432.65093-2.38673,1.04149-.95464.43395-2.29995,1.04148-2.95088,1.38865a5.80427,5.80427,0,0,1-2.03957.60752,2.084,2.084,0,0,0-1.30186.65093,1.98352,1.98352,0,0,1-1.30186.65093A1.9836,1.9836,0,0,0,176.3915,84.5a2.08507,2.08507,0,0,1-1.34525.65093,2.65729,2.65729,0,0,0-1.432.65093,2.19515,2.19515,0,0,1-1.30186.65093,1.27016,1.27016,0,0,0-.9113.39056,10.208,10.208,0,0,1-2.51691,1.56222c-1.21507.60752-2.56032,1.25845-2.90747,1.51878-.34717.217-2.38675,1.38864-4.55649,2.64709a27.47749,27.47749,0,0,0-4.03576,2.64709.73061.73061,0,0,1-.60753.34717c-.56415,0-8.80922,5.46777-10.328,6.813a4.38032,4.38032,0,0,1-1.38864.99809,19.92275,19.92275,0,0,0-4.59989,3.515.86728.86728,0,0,1-.78112.39056c-.34717,0-.60753.17359-.60753.34718a6.36625,6.36625,0,0,1-1.90939,1.7358c-3.16785,2.29994-4.90371,3.90557-13.49589,12.45441-9.54693,9.59034-11.93366,12.15064-11.93366,12.71478a.645.645,0,0,1-.34718.60754A14.47776,14.47776,0,0,0,109.346,137.442a23.71537,23.71537,0,0,1-2.25654,2.51691,1.09083,1.09083,0,0,0-.56415.78112,2.26657,2.26657,0,0,1-.434.95464,75.192,75.192,0,0,0-4.77346,6.59606,3.64468,3.64468,0,0,1-.78112,1.12831,8.98787,8.98787,0,0,0-1.432,2.03957,20.37,20.37,0,0,1-1.69246,2.6905,32.48,32.48,0,0,0-2.6037,4.12254c-.26037.47735-.8245,1.432-1.30185,2.16975a15.50448,15.50448,0,0,0-1.25846,2.25655,4.17855,4.17855,0,0,1-.86791,1.21507,1.38279,1.38279,0,0,0-.47733,1.12831c0,.43394-.17359.8245-.434.8245-.217,0-.52075.47736-.69433,1.08487a3.41847,3.41847,0,0,1-.86789,1.56223,1.75,1.75,0,0,0-.60754,1.25847,1.9836,1.9836,0,0,1-.65092,1.30186,1.89682,1.89682,0,0,0-.65093,1.17166,2.21324,2.21324,0,0,1-.65092,1.25846,2.65733,2.65733,0,0,0-.65093,1.432,2.085,2.085,0,0,1-.65093,1.34524,2.34421,2.34421,0,0,0-.65092,1.56223c0,.56414-.17359,1.04148-.434,1.04148-.217,0-.56415.52074-.69431,1.17168a8.35289,8.35289,0,0,1-.86792,2.08294,3.501,3.501,0,0,0-.60752,1.7792c0,.52074-.217,1.04148-.47736,1.12831a1.54077,1.54077,0,0,0-.60753,1.21506,8.69717,8.69717,0,0,1-.8245,2.38673,5.58954,5.58954,0,0,0-.69432,1.866,3.60751,3.60751,0,0,1-.39056,1.30186c-1.30186,2.47353-5.33761,16.66374-6.76964,23.73715-.39056,1.9094-.99809,4.59989-1.34525,5.94514a21.46223,21.46223,0,0,0-.60753,4.12254,12.70124,12.70124,0,0,1-.47734,3.16785,39.77345,39.77345,0,0,0-.82451,6.29229c-.217,2.6037-.60753,6.11872-.8245,7.81113-.56416,3.732-.56416,24.21448,0,27.77287.217,1.432.56415,4.73.78111,7.37718a35.69685,35.69685,0,0,0,.86791,5.98853,10.82588,10.82588,0,0,1,.47734,3.16785,24.836,24.836,0,0,0,.60753,4.64327c.34716,1.47543.95469,4.25274,1.34525,6.16212,1.34525,6.24888,4.55649,17.792,5.72815,20.48252a7.5318,7.5318,0,0,1,.56416,1.99619,5.62928,5.62928,0,0,0,.65092,1.866,6.15067,6.15067,0,0,1,.65093,1.99618c0,.434.217.78112.434.78112.26037,0,.43394.56417.43394,1.25848a2.6627,2.6627,0,0,0,.65093,1.77919,4.28181,4.28181,0,0,1,.9113,1.99619c.13018.82452.43395,1.47543.65093,1.47543s.39056.47735.39056,1.04148a2.34412,2.34412,0,0,0,.65092,1.56224,2.08507,2.08507,0,0,1,.65093,1.34525,2.65727,2.65727,0,0,0,.65092,1.43205,2.41106,2.41106,0,0,1,.65093,1.47543,2.09332,2.09332,0,0,0,.65093,1.38866,1.98357,1.98357,0,0,1,.65092,1.30184,1.98358,1.98358,0,0,0,.65093,1.30184,2.09331,2.09331,0,0,1,.65092,1.38866,1.18758,1.18758,0,0,0,.65093,1.04148,1.24335,1.24335,0,0,1,.65092,1.04148,1.28928,1.28928,0,0,0,.47736,1.08489,4.17877,4.17877,0,0,1,.86791,1.21506,18.14932,18.14932,0,0,0,1.25845,2.25662,17.8807,17.8807,0,0,1,1.25846,2.16974,21.35447,21.35447,0,0,0,1.432,2.38673c.56415.82449,1.17167,1.8226,1.34525,2.16974.69433,1.38865,5.42439,8.63561,5.94514,9.113.13019.13018.95463,1.34524,1.90939,2.69049a9.24084,9.24084,0,0,0,2.03957,2.51691c.217,0,.39056.26036.39056.52073a6.23035,6.23035,0,0,0,1.432,2.16977c.73772.86789,1.69245,1.99619,2.03958,2.51691,1.95278,2.82068,23.78054,25.16917,24.60506,25.16917.26036,0,.56415.30377.73772.65094a1.03774,1.03774,0,0,0,.86789.65094.86736.86736,0,0,1,.78112.39054c.30377.82453,18.39954,13.92984,19.26746,13.92984a13.66546,13.66546,0,0,1,1.99618,1.30184,7.35833,7.35833,0,0,0,2.38673,1.30184c.30377,0,.56415.17359.56415.34717a8.57191,8.57191,0,0,0,2.38673,1.56224,11.60926,11.60926,0,0,1,2.60372,1.60561,1.59128,1.59128,0,0,0,1.12831.39054c.434,0,.82451.17359.82451.34718a6.82049,6.82049,0,0,0,2.38674,1.432,7.3386,7.3386,0,0,1,2.38673,1.34525c0,.217.217.34714.47735.34714a74.02641,74.02641,0,0,1,8.33187,3.732c.65094.34718,1.34525.56417,1.56222.434s.60754.04341.9113.39054a1.74288,1.74288,0,0,0,1.04149.65094,48.27888,48.27888,0,0,1,6.55267,2.38673,226.33777,226.33777,0,0,0,24.73522,7.16022,18.375,18.375,0,0,1,3.38482.8245,11.54355,11.54355,0,0,0,3.298.47735,5.0364,5.0364,0,0,1,2.51692.47735,12.42066,12.42066,0,0,0,4.07914.69434,17.40737,17.40737,0,0,1,4.4697.69435c1.08488.56416,15.05812,1.34525,23.47678,1.30184,9.50355-.0434,22.00133-.73771,23.08621-1.34525a10.2134,10.2134,0,0,1,3.68857-.52075,17.75109,17.75109,0,0,0,4.4697-.65094,12.5736,12.5736,0,0,1,3.60179-.65091,11.17536,11.17536,0,0,0,3.42821-.65094,8.67971,8.67971,0,0,1,2.64709-.6509,15.896,15.896,0,0,0,3.298-.60753c1.21507-.34718,4.77346-1.34525,7.85454-2.25655,7.11681-1.99619,13.10534-3.949,14.62417-4.77346a4.78406,4.78406,0,0,1,1.95279-.60754,3.16071,3.16071,0,0,0,1.60561-.6509,3.57688,3.57688,0,0,1,1.73579-.65094,3.28805,3.28805,0,0,0,1.73579-.65094,3.4541,3.4541,0,0,1,1.649-.6509c.43395,0,.78112-.217.78112-.43395a.446.446,0,0,1,.45688-.43492l.02048.001a109.95409,109.95409,0,0,0,12.97516-6.03193,18.30036,18.30036,0,0,1,2.16977-1.25847c1.08489-.56416,2.56032-1.38865,3.25463-1.8226.73771-.47735,1.69245-1.04148,2.16973-1.30184s1.47543-.82449,2.16978-1.30185a23.63784,23.63784,0,0,1,2.29995-1.34525c.52076-.30376.95471-.6943.95471-.9113a.39708.39708,0,0,1,.43394-.34717c.39055,0,2.6471-1.47543,8.24508-5.4244a72.48532,72.48532,0,0,0,7.59413-5.64138c.26037-.26037,1.30185-1.17167,2.38673-1.99616,3.21126-2.47354,4.12256-3.298,12.75818-11.977,10.328-10.32807,11.97705-12.10723,11.97705-12.628a.64492.64492,0,0,1,.34717-.60753c.26036-.08678,1.34525-1.432,4.12252-4.90364.17359-.217,1.60561-2.21315,3.12444-4.33955,1.5188-2.16974,3.38484-4.73,4.07915-5.72816a8.28724,8.28724,0,0,0,1.34525-2.3.4349.4349,0,0,1,.43395-.43394c.217,0,.52076-.47736.69434-1.08489.13018-.60753.43395-1.08489.65091-1.08489s.60753-.434.82452-.99811a22.24756,22.24756,0,0,1,1.30185-2.25655,18.15134,18.15134,0,0,0,1.25847-2.25661,4.17936,4.17936,0,0,1,.86789-1.21507,1.28928,1.28928,0,0,0,.47736-1.08489,1.24343,1.24343,0,0,1,.65093-1.04148,1.20473,1.20473,0,0,0,.65091-1.08489,1.31621,1.31621,0,0,1,.65094-1.08488,1.18763,1.18763,0,0,0,.6509-1.04148,2.09338,2.09338,0,0,1,.65094-1.38866,1.9835,1.9835,0,0,0,.6509-1.30184,1.98357,1.98357,0,0,1,.65094-1.30184,1.78834,1.78834,0,0,0,.65094-.99808,19.98336,19.98336,0,0,1,1.34525-3.298c1.38865-2.99426,1.5188-3.25462,2.99426-6.76964.52073-1.21507,1.08489-2.56032,1.30185-3.03767,1.25847-3.03767,4.99045-14.277,6.76964-20.39575.39054-1.432.99811-3.47162,1.30185-4.5131a12.9661,12.9661,0,0,0,.60753-3.12444,8.91576,8.91576,0,0,1,.65094-2.6905,11.24517,11.24517,0,0,0,.6509-3.515,8.12966,8.12966,0,0,1,.65094-3.12444,10.98715,10.98715,0,0,0,.6509-3.90557,6.97777,6.97777,0,0,1,.47736-3.08107,25.22127,25.22127,0,0,0,.86789-6.07534c.217-3.03766.56417-6.63946.78112-7.94127.56417-3.12444.52076-22.99943,0-26.03708-.26036-1.30186-.56416-4.73-.78112-7.59416a30.032,30.032,0,0,0-.82449-6.16211,9.00989,9.00989,0,0,1-.52076-3.38482,13.23872,13.23872,0,0,0-.6509-3.99236,10.10136,10.10136,0,0,1-.65094-3.25464,10.58972,10.58972,0,0,0-.6509-3.25464,8.74937,8.74937,0,0,1-.65094-2.60371,16.72142,16.72142,0,0,0-.60753-3.12444c-.34714-1.08489-.95464-3.08106-1.30185-4.38292-2.77727-9.80731-7.50736-23.12961-9.59032-26.99179a4.889,4.889,0,0,1-.65094-1.8226c0-.39056-.17359-.69432-.434-.69432-.217,0-.43394-.39056-.43394-.82451a2.34413,2.34413,0,0,0-.56417-1.432,4.287,4.287,0,0,1-.9113-1.7792c-.13018-.65094-.47735-1.17166-.69434-1.17166-.26036,0-.43395-.39056-.43395-.82451a2.64086,2.64086,0,0,0-.6509-1.51878,2.24624,2.24624,0,0,1-.65094-1.21507,1.76448,1.76448,0,0,0-.47736-1.08487,13.82552,13.82552,0,0,1-2.16977-3.732c-.26036-.65092-.65094-1.17166-.86789-1.17166s-.39055-.39056-.39055-.8679a1.24537,1.24537,0,0,0-.60753-1.12831,1.71472,1.71472,0,0,1-.8679-.95463,11.36031,11.36031,0,0,0-1.12829-2.03958,23.63649,23.63649,0,0,1-1.34525-2.29994c-.30376-.52074-.6943-.9547-.9113-.9547-.17358,0-.34717-.26036-.34717-.56415a25.78915,25.78915,0,0,0-2.82067-4.4263c-1.5188-2.16976-3.03767-4.25272-3.34144-4.68668-.56416-.78112-1.56224-2.12637-2.51691-3.21124a2.26643,2.26643,0,0,1-.43395-.95464,1.15576,1.15576,0,0,0-.52072-.78112,18.8,18.8,0,0,1-2.3-2.51691,14.47921,14.47921,0,0,0-2.03956-2.3.64493.64493,0,0,1-.34717-.60753,10.16061,10.16061,0,0,0-1.82261-2.38675c-3.949-4.12254-15.83921-15.88262-17.66181-17.40145-.99811-.86791-2.86408-2.47352-4.12255-3.47162-1.21507-1.04148-2.7339-2.38673-3.38481-2.95087a5.538,5.538,0,0,0-1.38865-1.04148,33.98626,33.98626,0,0,1-3.68861-2.51691c-4.81686-3.47162-8.37525-5.85834-12.194-8.24509-1.8226-1.12831-3.6452-2.29993-4.12252-2.6037-.47735-.26037-1.25847-.73772-1.73579-.9547-.47735-.26036-1.432-.8245-2.16977-1.30185-.69431-.434-2.86409-1.649-4.77346-2.6037-1.90938-.99809-3.77539-1.95278-4.12256-2.12637-2.64709-1.432-3.47161-1.7792-4.07915-1.7792-.39054,0-.69431-.17358-.69431-.434,0-.217-.52075-.56416-1.17166-.69433a6.68515,6.68515,0,0,1-1.649-.60752,6.32474,6.32474,0,0,0-1.73579-.60754,3.44723,3.44723,0,0,1-1.56224-.73771c-.13018-.26037-.78112-.47735-1.432-.56416a3.05836,3.05836,0,0,1-1.649-.60753,1.80139,1.80139,0,0,0-1.12829-.52073,6.31583,6.31583,0,0,1-1.95279-.60754,19.10147,19.10147,0,0,0-2.25661-.82449c-.47736-.13019-2.21315-.73773-3.90557-1.30186-10.11108-3.5584-26.42764-7.29039-35.36706-8.15829a49.13126,49.13126,0,0,1-5.64135-.78112C273.94381,66.708,240.09562,66.83818,237.14474,67.5759Zm19.48443,89.22043a22.547,22.547,0,0,1,7.247,3.47162,17.51038,17.51038,0,0,1,6.94323,9.89409c.82453,2.73388.78112,11.76008-.0434,14.494a20.41376,20.41376,0,0,1-12.58459,13.10532c-1.866.69431-3.34143.82451-10.41485.82451h-8.24509l-3.25464-1.56222a17.30478,17.30478,0,0,1-5.55458-3.90556,17.70866,17.70866,0,0,1-4.16592-5.77156c-2.8207-5.381-2.60373-15.1449.47733-21.04665,1.25846-2.43013,6.72626-7.81113,7.89792-7.81113a2.01719,2.01719,0,0,0,1.17166-.43394,8.38628,8.38628,0,0,1,2.60371-1.04148C241.44086,156.27559,254.4594,156.102,256.62917,156.79633ZM194.27032,173.894a22.43833,22.43833,0,0,1,13.4525,6.94321,19.3619,19.3619,0,0,1,4.12253,5.81494l1.21507,2.43014.13018,42.52725c.04339,29.29173-.04339,43.482-.39054,45.56492-1.08489,7.07341-2.29995,12.23745-3.03767,12.97516a2.27867,2.27867,0,0,0-.39056,1.25848,4.98545,4.98545,0,0,1-.60753,1.95278c-.30375.6509-1.30186,2.64709-2.16976,4.42632a34.71257,34.71257,0,0,1-5.12063,8.24507,50.41085,50.41085,0,0,1-21.61078,16.2732c-8.72243,3.08107-12.5846,3.81878-22.99943,4.38291-16.40338.9113-34.45575-4.42632-43.52535-12.80157-9.06957-8.41867-11.54312-17.53164-7.247-26.77482a12.50649,12.50649,0,0,1,1.77921-3.12444.68049.68049,0,0,0,.39056-.60754c0-.6509,4.42631-6.03193,7.0734-8.679,4.25274-4.12252,4.94705-4.20933,7.50736-.69434,2.99427,4.07914,8.98279,8.24507,14.494,10.06767a46.00836,46.00836,0,0,0,5.55458,1.17166,16.95417,16.95417,0,0,0,7.37711-.13018c5.68476-1.08488,6.94323-1.649,9.63373-4.25273,3.34143-3.25463,4.25272-5.4244,4.77348-11.67329.217-2.77731.47733-21.91455.65092-42.57066.26038-42.22348,0-39.44619,3.60179-44.04608,3.34144-4.29612,9.06959-7.464,15.709-8.679A21.21558,21.21558,0,0,1,194.27032,173.894ZM352.7928,206.57058a45.39686,45.39686,0,0,1,4.5565.82451c.82449.26036,2.69049.82451,4.12252,1.21507,15.44867,4.38292,29.85582,16.36,36.6255,30.37661.82449,1.649,1.73579,3.55839,2.03956,4.20933a4.98549,4.98549,0,0,1,.60753,1.9528,2.00424,2.00424,0,0,0,.43395,1.25847,7.15957,7.15957,0,0,1,.82449,2.34333c.26036,1.08488.65094,2.82067.9113,3.90556a42.18146,42.18146,0,0,1,1.60561,11.28274,44.27349,44.27349,0,0,1-.30377,8.46207c-.26036,1.649-.65094,4.03574-.86789,5.29418a27.91778,27.91778,0,0,1-.82449,3.68857c-2.25662,6.98664-3.12445,9.24319-4.90371,12.71481-3.90557,7.59413-11.7601,16.0996-20.26554,21.95795-2.95085,2.03959-10.6318,6.03193-11.62988,6.03193a7.07975,7.07975,0,0,0-1.95278.60753,58.48838,58.48838,0,0,1-10.02427,2.60372c-4.59987.95471-17.27127.95471-21.87114,0-8.02812-1.60561-12.7148-3.16785-18.35616-6.20551-10.6318-5.64136-21.13342-16.31657-26.0805-26.51442-2.82068-5.81494-3.42821-7.29037-3.42821-8.28848a4.31736,4.31736,0,0,0-.52073-1.8226,15.93779,15.93779,0,0,1-.86789-3.12445c-.17359-1.21507-.52072-3.03767-.73772-4.12252-.73771-3.25462-.56416-16.22979.217-19.96176a57.359,57.359,0,0,1,2.60372-9.46015,7.66516,7.66516,0,0,0,.60753-1.8226c0-.69431,2.90749-6.63944,4.07915-8.37525a11.63879,11.63879,0,0,0,1.12829-1.9094,47.117,47.117,0,0,1,3.298-4.29612c8.41866-10.41483,18.7901-17.53163,30.11625-20.69948,1.30184-.39056,3.42821-.99809,4.73-1.34525a17.8308,17.8308,0,0,1,4.33955-.73771,20.86872,20.86872,0,0,0,3.298-.39056c1.56224-.434,12.194-.21706,16.49018.34708Zm-96.55421,2.38675a20.06917,20.06917,0,0,1,14.58078,13.71286c.47735,1.649.60753,9.06958.60753,43.2216,0,44.04608.04341,43.22156-2.16977,47.5177a28.55685,28.55685,0,0,1-6.89983,7.59413c-4.68668,2.51691-7.63754,2.99427-16.53355,2.6905-7.68095-.26036-9.19978-.69431-13.10535-3.6452a21.17161,21.17161,0,0,1-7.68093-11.97705c-.34717-1.432-.47735-13.92984-.47735-41.96313,0-43.22158-.04339-42.22348,2.38673-47.08375a20.453,20.453,0,0,1,6.07532-6.98664c3.732-2.77729,6.89984-3.55839,14.75436-3.55839a55.5183,55.5183,0,0,1,8.46206.47735Z"/>
    <path class="cls-1" d="M338.47242,242.4584c-3.08107.69433-5.68476,1.60563-6.3791,2.3a1.80287,1.80287,0,0,1-1.08489.52072c-.78112,0-6.50925,5.64139-7.07341,6.98664a12.37672,12.37672,0,0,1-.82453,1.69245c-2.69049,4.38292-3.60179,12.845-2.03956,18.65993,2.34333,8.72242,7.37718,13.88646,16.09961,16.577a22.52382,22.52382,0,0,0,20.43912-4.77346c4.33955-3.99234,6.68284-8.679,7.63754-15.18831a18.99588,18.99588,0,0,0-.17359-7.63754,21.57552,21.57552,0,0,0-6.63946-13.06194,19.86761,19.86761,0,0,0-11.28274-6.11872A17.76047,17.76047,0,0,0,338.47242,242.4584Z"/>
  </g>
</svg>
