<svg id="Layer_1" data-name="Layer 1" xmlns="http://www.w3.org/2000/svg" width="512" height="512" viewBox="0 0 512 512">
  <defs>
    <style>
      .cls-1 {
        fill: red;
      }

      .cls-2 {
        fill: #666;
      }
    </style>
  </defs>
  <g>
    <path class="cls-1" d="M258.83962,149.638c-61.34087.01184-116.57094,20.93382-122.88306,48.97321-4.19623,18.65214,15.25331,37.78588,44.9783,48.98111,34.77-31.58823,74.09538-65.00813,125.39764-87.9631-46.76654,30.09212-81.26411,63.15674-109.36668,93.391a220.93027,220.93027,0,0,0,30.71582,5.98842c15.79412-24.384,33.37648-54.72478,85.31035-98.88594-37.72666,45.36911-55.32481,72.31109-70.56233,100.78866,56.15379,5.02522,121.49353-2.01325,137.05869-51.31805,6.72268-29.91448-41.82816-56.5604-108.31662-59.59211q-6.16111-.32235-12.33213-.36317Zm-2.22247,4.56336a326.33212,326.33212,0,0,1,44.40984,2.46721C252.76435,173.943,218.7602,191.62406,173.96744,216.991c.43423.43424-35.3463-5.19891-9.62411-34.78574,19.414-22.3352,60.27107-27.6328,92.27381-28.00387Zm63.0383,8.26615s32.66593,4.137,40.711,33.06067c8.85037,31.84878-75.0428,44.61908-80.6799,39.84255,15.52174-37.51744,20.10485-37.8372,39.96887-72.90322Z"/>
    <path class="cls-2" d="M90.66561,307.18443a24.38254,24.38254,0,0,0-10.63073,2.104,28.37922,28.37922,0,0,0-8.78328,7.20427v-8.10431H51.22177c-5.34892-.004-8.58985,3.80938-10.62678,9.45437,4.40151.56845,10.11755-1.40138,10.62678,6.75423v38.57144H72.79115v-27.917c0-4.16072.7224-7.18058,2.31326-9.00039a7.81942,7.81942,0,0,1,6.16212-2.70408,6.63187,6.63187,0,0,1,6.31607,4.65021,17.10908,17.10908,0,0,1,.46186,4.80416v30.16713h21.56938v-28.217c0-3.95543.75792-6.76609,2.31326-8.55433a7.78809,7.78809,0,0,1,6.15816-2.70012,6.57086,6.57086,0,0,1,5.3963,2.85012,8.23267,8.23267,0,0,1,1.53954,5.40419v31.21717h21.56937V328.80118c0-7.42928-1.69744-12.869-5.08443-16.36257-3.39094-3.48962-8.13589-5.25024-14.17168-5.25024a24.51748,24.51748,0,0,0-10.32677,1.95009c-2.787,1.29084-5.85421,3.7778-9.2412,7.35426a17.52706,17.52706,0,0,0-6.474-6.90425c-2.60933-1.54743-6.14238-2.40011-10.62679-2.40011Zm181.64222.604c-4.47256-.31185-8.48722,1.89087-8.93723,4.95023-.454,3.06329,2.76723,5.84236,7.23979,6.15817,4.47258.3079,8.48722-2.04484,8.93724-5.10417.454-3.0633-2.76722-5.69631-7.2398-6.00421Zm-61.93694.45c-4.48836,1.01058-4.03438,3.21725-5.54629,4.95023,2.45933.68293,5.44762-.03947,5.54629,6.00421v43.97562h15.71517V344.10974c0-3.63173.51318-6.10685,1.69744-7.50428a5.75789,5.75789,0,0,1,4.61862-2.104,5.13541,5.13541,0,0,1,4.00675,1.50008c.94742,1.0382,1.53954,2.75539,1.53954,5.25418v21.9128h15.71517v-25.213c0-5.23049-1.24347-9.182-3.69491-11.70841-2.45537-2.52642-5.75157-3.75016-10.01491-3.75016a18.82807,18.82807,0,0,0-7.55164,1.35005,21.23529,21.23529,0,0,0-6.31606,4.65021V308.23841Zm158.9952,0c-3.72648.079-4.15677,2.35274-5.39233,4.05019,2.85012,0,4.44493,1.879,5.39233,4.65415v10.35441a15.49019,15.49019,0,0,0-5.39233-3.60015,17.5588,17.5588,0,0,0-6.624-1.20006,16.02389,16.02389,0,0,0-12.32423,5.25024c-3.24882,3.50542-4.93048,8.55827-4.93048,15.15856a25.15518,25.15518,0,0,0,4.4686,15.00855c2.94093,4.12914,7.21612,6.15818,12.79,6.15818a16.326,16.326,0,0,0,7.54771-1.654,19.733,19.733,0,0,0,5.54629-5.10417v5.85421H385.2352V308.23844ZM178.17476,322.49694a49.13094,49.13094,0,0,0-8.16747.6,20.29217,20.29217,0,0,0-6.00816,1.80009,13.6352,13.6352,0,0,0-4.61861,3.90411,16.046,16.046,0,0,0-2.31326,6.00027l14.94145,1.50007a6.85086,6.85086,0,0,1,2.46722-3.60015,10.77039,10.77039,0,0,1,5.70025-1.20006,5.97656,5.97656,0,0,1,4.16071,1.20006,5.19032,5.19032,0,0,1,1.23164,3.90411,53.75314,53.75314,0,0,1-5.5463,1.80008c-1.7448.46187-5.5226,1.25138-11.4005,2.40012-4.9068.94741-8.3451,2.40011-10.16887,4.35414a10.50882,10.50882,0,0,0-2.61722,7.50034,10.21145,10.21145,0,0,0,3.69491,8.10825c2.52642,2.19878,6.21343,3.30014,11.0926,3.30014a26.387,26.387,0,0,0,9.707-1.65007,20.1164,20.1164,0,0,0,6.16212-4.05413,20.75673,20.75673,0,0,0,.46187,2.55406,17.45409,17.45409,0,0,0,1.23163,2.2501h14.63749a18.65134,18.65134,0,0,1-1.53954-4.05018,20.75447,20.75447,0,0,1-.30791-4.35415V337.20549a17.57548,17.57548,0,0,0-1.23163-6.00421,11.23208,11.23208,0,0,0-3.083-4.80416,15.07773,15.07773,0,0,0-7.2398-3.15014,65.86862,65.86862,0,0,0-11.25049-.75Zm140.65885,0a17.85442,17.85442,0,0,0-8.16352,1.65007,21.63806,21.63806,0,0,0-6.62792,5.70419V323.397H289.40862c-3.05935.079-3.55279,2.329-4.31467,3.75017,2.17116.24869,4.03045,1.0382,4.31467,4.50019v31.52113h15.71124V344.10974c0-3.63173.51317-6.10685,1.69744-7.50428a5.76335,5.76335,0,0,1,4.61862-2.104,5.14435,5.14435,0,0,1,4.0107,1.50008c.9474,1.0382,1.53954,2.75539,1.53954,5.25418v21.9128h15.71123v-25.213c0-5.25023-1.24349-9.19382-3.69489-11.70841s-5.83051-3.75016-10.16886-3.75016Zm100.761,0a9.35332,9.35332,0,0,0-5.54629,1.65007,15.02463,15.02463,0,0,0-4.46861,5.70419V323.397H394.94226c-3.55279.00789-3.158,2.13168-3.5449,3.90017,1.508.68292,3.387.46186,3.5449,4.20412v31.66719H410.6535V349.81c0-6.37923.85268-10.72942,2.46721-13.05452a5.39467,5.39467,0,0,1,4.77652-2.40406,12.49833,12.49833,0,0,1,4.46861,1.05l4.77652-10.80442a16.73513,16.73513,0,0,0-7.54771-2.1001Zm30.65661,0a49.11462,49.11462,0,0,0-8.16352.6,20.25516,20.25516,0,0,0-6.00817,1.80009,13.61337,13.61337,0,0,0-4.62257,3.90411,16.04632,16.04632,0,0,0-2.31325,6.00027l14.94541,1.50007a6.82551,6.82551,0,0,1,2.46327-3.60015,10.78934,10.78934,0,0,1,5.70025-1.20006,5.96266,5.96266,0,0,1,4.16071,1.20006c.79742.75,1.23162,2.02509,1.23162,3.90411a53.44684,53.44684,0,0,1-5.54629,1.80008c-1.74482.46187-5.51868,1.25138-11.40051,2.40012-4.90283.94741-8.3451,2.40011-10.16491,4.35414a10.51139,10.51139,0,0,0-2.62117,7.50034,10.21519,10.21519,0,0,0,3.69883,8.10825c2.52643,2.19878,6.21343,3.30014,11.09259,3.30014a26.35072,26.35072,0,0,0,9.70306-1.65007,20.11663,20.11663,0,0,0,6.166-4.05413,19.33417,19.33417,0,0,0,.46185,2.55406,16.511,16.511,0,0,0,1.23162,2.2501h14.63748a18.30852,18.30852,0,0,1-1.53953-4.05018,20.95768,20.95768,0,0,1-.31187-4.35415V337.20549a17.57545,17.57545,0,0,0-1.23162-6.00421,11.19049,11.19049,0,0,0-3.07908-4.80416,15.109,15.109,0,0,0-7.24374-3.15014,65.84882,65.84882,0,0,0-11.24654-.75Zm-186.57271.9v39.77149h15.71518V323.397Zm98.60171,10.50441a6.38511,6.38511,0,0,1,5.08444,2.25009c1.36191,1.53954,2.15535,3.92781,2.15535,7.05426,0,3.4541-.66713,5.98052-2.00142,7.50428a6.4886,6.4886,0,0,1-5.08444,2.2501,6.01,6.01,0,0,1-4.77653-2.2501c-1.2711-1.51191-1.84746-3.94754-1.84746-7.20427,0-3.47384.61581-5.87788,1.84746-7.35032a5.85465,5.85465,0,0,1,4.62257-2.2501ZM185.56851,344.25974v2.55011a10.00421,10.00421,0,0,1-.92373,4.65416,7.757,7.757,0,0,1-3.237,3.00013,9.51314,9.51314,0,0,1-4.77653,1.20005,5.7099,5.7099,0,0,1-3.84884-1.20005,3.51739,3.51739,0,0,1-1.23558-2.85013,3.76581,3.76581,0,0,1,1.23558-2.85407c.84477-.80135,2.82249-1.57507,6.00815-2.40012,2.337-.57634,4.61862-1.35005,6.77793-2.10009Zm272.07647,0v2.55011a9.95468,9.95468,0,0,1-.92373,4.65416,7.73336,7.73336,0,0,1-3.237,3.00013,9.5131,9.5131,0,0,1-4.77652,1.20005,5.70991,5.70991,0,0,1-3.84885-1.20005,3.51416,3.51416,0,0,1-1.23162-2.85013,3.76161,3.76161,0,0,1,1.23162-2.85407c.8487-.80135,2.82645-1.57507,6.00817-2.40012,2.337-.57634,4.62256-1.35005,6.77794-2.10009Z"/>
  </g>
</svg>
