<svg id="a258d919-086e-476e-96b5-4971fe9ac5d7" data-name="Layer 1" xmlns="http://www.w3.org/2000/svg" width="512" height="512" viewBox="0 0 512 512">
  <defs>
    <style>
      .f7aa51db-f0ee-4ee4-b80b-b34a83076939 {
        fill: #fff;
      }

      .ed8823a8-efc0-4f92-aaf8-3cf564397eba {
        fill: #1e1a1e;
      }

      .a6f808e5-9b34-4692-bf0b-b7362ec4142a {
        fill: #fedc00;
      }

      .b965187b-630a-4099-8cee-a5c291d48955 {
        fill: #fefdfd;
      }

      .bc58108c-e00a-485b-aee0-02e26b481c51 {
        fill: #fdfdfd;
      }

      .bf749411-a639-4cf2-9494-e2caf7fd97c4 {
        fill: #f8f7f7;
      }

      .f679e2d5-8b00-42d6-ada4-6e93468f781d {
        fill: #d5d3d3;
      }

      .aaf107f8-826d-4715-acbc-b060558e9668 {
        fill: #d7d5d5;
      }

      .adebd893-1336-452f-8be7-b781cfe962cb {
        fill: #2b2822;
      }

      .f0d36953-b6ac-4a3c-9e6b-ed4608c77697 {
        fill: #2f2b23;
      }
    </style>
  </defs>
  <g id="f0892dff-580c-4bfa-9438-c05eebf3635f" data-name="Layer 1-2">
    <path class="f7aa51db-f0ee-4ee4-b80b-b34a83076939" d="M368.983,309.84309a406.74482,406.74482,0,0,1-6.856-49.38654c-1.24134-14.74339-1.5087-29.67775-4.23968-44.13467-4.35427-22.99358-3.81954-46.36911-7.12342-69.38178-2.02435-13.97949-3.47579-28.03536-4.98449-42.09124-.68752-6.51229-3.2848-7.71545-9.969-6.856s-16.233,3.83863-17.9709-8.32658c-.49653-3.45668-4.04869-4.02961-6.91334-3.43758-8.05921,1.71879-16.27121,1.45142-24.33042,2.55909-3.724.53473-9.33875.43924-8.8804,7.2953.11458,1.757-2.02434,3.11292-4.16327,3.2275-8.1738.42015-16.11843,2.67368-24.46409,2.23443-5.30915-.28647-8.70853-1.73789-8.995-7.19982-.26737-5.06087-3.15112-7.44808-7.3908-6.18764-7.81094,2.32992-15.71736.93579-23.471,1.92887-3.2466.42015-7.75364.21007-9.186,4.98448-2.65457,8.88041-8.84221,13.00551-17.68443,11.97423-12.26069-1.41322-12.79542-.93578-12.96731,11.07665a31.79649,31.79649,0,0,1-.42015,6.62688C160.895,158.647,156.216,193.3092,153.14131,227.76137c-2.63547,29.50587-9.05228,58.40063-11.07664,87.88739-.47744,6.97065,1.98616,8.49845,7.3717,8.9186,3.47577.26737,6.98974.05729,10.4846.03819,6.14945.70662,15.98474-5.04178,13.502,9.43423-4.64073,27.176-7.75364,54.61931-12.60444,81.75706-1.52782,8.57485,1.03127,9.64432,8.26928,10.12176,9.60612.61114,19.00216-4.02961,28.22633-1.6424,6.5696,1.71878,12.35619.91668,18.52472-.36286,2.13894-.43924,4.64073.0382,4.96539-3.11293.22918-2.38721-.382-4.488-2.65457-5.65292-2.21534-1.14587-4.77442-1.6806-4.889-5.02269-.30557-8.28837,1.48962-16.233,3.724-24.10123.91669-3.1893,3.57126-3.78133,6.66507-4.27788A287.76221,287.76221,0,0,1,267.8227,378.098c27.27145-.05729,27.51973.0382,27.44332,27.86347-.01908,7.84913,2.29171,10.79016,10.33184,10.38913,14.09408-.66843,28.169-4.50705,42.35858-.8021,1.83339.47744,3.05564-.53473,3.89591-1.96706a4.16961,4.16961,0,0,0-1.39412-5.88208c-5.84388-4.06781-5.40464-9.969-5.69109-16.09934-.30557-6.53139-1.89068-13.00549-2.84556-19.5178-2.15805-14.91526-5.42373-29.73506-4.67892-44.975.17187-3.36119-.0955-6.41682,4.75532-6.34042,6.58869.11458,13.55935-1.79519,19.63239-1.12676,10.50371,1.14586,8.53665-4.1251,7.35261-9.79709ZM225.84607,333.14222c1.45142-10.5419,5.97756-13.97948,16.02293-12.509,4.65983.68752,9.49153.11458,15.77465.11458,7.54357-1.06946,16.69136,1.41323,25.80092-1.5469,5.82479-1.89067,4.27788,4.22058,5.06087,6.87515,3.514,12.1843,2.13892,13.61662-9.969,13.96039a320.48091,320.48091,0,0,0-43.1798,3.66675c-10.82836,1.77607-11.01934.47744-9.51064-10.561Z"/>
    <path class="ed8823a8-efc0-4f92-aaf8-3cf564397eba" d="M368.983,309.84309a406.74482,406.74482,0,0,1-6.856-49.38654c-1.24134-14.74339-1.5087-29.67775-4.23968-44.13467-4.35427-22.99358-3.81954-46.36911-7.12342-69.38178-2.02435-13.97949-3.47579-28.03536-4.98449-42.09124-.68752-6.51229-3.2848-7.71545-9.969-6.856s-16.233,3.83863-17.9709-8.32658c-.49653-3.45668-4.04869-4.02961-6.91334-3.43758-8.05921,1.71879-16.27121,1.45142-24.33042,2.55909-3.724.53473-9.33875.43924-8.8804,7.2953.11458,1.757-2.02434,3.11292-4.16327,3.2275-8.1738.42015-16.11843,2.67368-24.46409,2.23443-5.30915-.28647-8.70853-1.73789-8.995-7.19982-.26737-5.06087-3.15112-7.44808-7.3908-6.18764-7.81094,2.32992-15.71736.93579-23.471,1.92887-3.2466.42015-7.75364.21007-9.186,4.98448-2.65457,8.88041-8.84221,13.00551-17.68443,11.97423-12.26069-1.41322-12.79542-.93578-12.96731,11.07665a31.79649,31.79649,0,0,1-.42015,6.62688C160.895,158.647,156.216,193.3092,153.14131,227.76137c-2.63547,29.50587-9.05228,58.40063-11.07664,87.88739-.47744,6.97065,1.98616,8.49845,7.3717,8.9186,3.47577.26737,6.98974.05729,10.4846.03819,6.14945.70662,15.98474-5.04178,13.502,9.43423-4.64073,27.176-7.75364,54.61931-12.60444,81.75706-1.52782,8.57485,1.03127,9.64432,8.26928,10.12176,9.60612.61114,19.00216-4.02961,28.22633-1.6424,6.5696,1.71878,12.35619.91668,18.52472-.36286,2.13894-.43924,4.64073.0382,4.96539-3.11293.22918-2.38721-.382-4.488-2.65457-5.65292-2.21534-1.14587-4.77442-1.6806-4.889-5.02269-.30557-8.28837,1.48962-16.233,3.724-24.10123.91669-3.1893,3.57126-3.78133,6.66507-4.27788A287.76221,287.76221,0,0,1,267.8227,378.098c27.27145-.05729,27.51973.0382,27.44332,27.86347-.01908,7.84913,2.29171,10.79016,10.33184,10.38913,14.09408-.66843,28.169-4.50705,42.35858-.8021,1.83339.47744,3.05564-.53473,3.89591-1.96706a4.16961,4.16961,0,0,0-1.39412-5.88208c-5.84388-4.06781-5.40464-9.969-5.69109-16.09934-.30557-6.53139-1.89068-13.00549-2.84556-19.5178-2.15805-14.91526-5.42373-29.73506-4.67892-44.975.17187-3.36119-.0955-6.41682,4.75532-6.34042,6.58869.11458,13.55935-1.79519,19.63239-1.12676,10.50371,1.14586,8.53665-4.1251,7.35261-9.79709ZM225.84607,333.14222c1.45142-10.5419,5.97756-13.97948,16.02293-12.509,4.65983.68752,9.49153.11458,15.77465.11458,7.54357-1.06946,16.69136,1.41323,25.80092-1.5469,5.82479-1.89067,4.27788,4.22058,5.06087,6.87515,3.514,12.1843,2.13892,13.61662-9.969,13.96039a320.48091,320.48091,0,0,0-43.1798,3.66675c-10.82836,1.77607-11.01934.47744-9.51064-10.561Z"/>
    <path class="a6f808e5-9b34-4692-bf0b-b7362ec4142a" d="M358.09732,309.824c-14.17045,0-28.11175.0955-42.03392,0-51.48726-.382-102.89817,1.83337-154.28995,4.41155-7.98282.401-10.59921-.70661-8.63214-9.54882,6.89426-31.01459,8.25019-62.7931,12.41348-94.20873,3.66675-27.6916,8.57484-55.21132,12.39437-82.88382,1.165-8.47936,5.17547-11.85965,13.33017-12.75724,34.45217-3.76223,69.05713-5.15636,103.66206-6.37861,12.05062-.42015,24.13944-.0382,36.20914-.11459,3.60946-.0191,5.80567.61113,6.20674,5.06088,2.80736,30.9382,5.88208,61.83821,8.9186,93.17745-7.54357-1.45141-14.57152-2.80735-21.59944-4.12509-2.82645-.51564-6.054-1.33684-6.856,2.731-.66843,3.43757.42015,6.93245,4.23968,7.3526,10.02627,1.10767,5.71021,6.85605,3.43758,10.98115-8.86131,16.13751-22.688,25.57176-40.98355,27.5961-16.424,1.81427-32.92436,2.63547-49.46292.74481-15.58368-1.79518-28.58919-8.42207-38.52-20.53-3.2848-3.9914-7.40988-8.05921-4.65983-14.43782,1.08856-2.52089-.55383-5.23275-2.82646-6.455-2.4827-1.33683-3.80043,1.43232-5.55742,2.63547a29.96688,29.96688,0,0,0-8.67034,8.72763c-1.6233,2.57818-.61113,4.9272.95488,7.047,1.757,2.4063,3.68585,1.87157,5.57651,0,2.76916-2.731,3.915-1.20315,5.46193,1.60419,12.719,22.91719,33.47819,31.91218,58.49611,32.71428,14.91526.47744,29.79235.36286,44.61212-2.55908,20.721-4.0869,34.71952-16.11843,43.65724-34.73864a42.21066,42.21066,0,0,0,2.32992-5.21366c1.45141-4.507,5.38555-3.80043,8.67032-4.106,5.06087-.47744,3.24659,3.97231,3.49487,6.05395,2.96014,25.18981,5.61472,50.43691,8.403,75.64581.43924,4.04871,1.12675,8.07831,1.62331,11.61138Z"/>
    <path class="b965187b-630a-4099-8cee-a5c291d48955" d="M176.154,414.91839c-4.83171,1.06946-5.25186-1.71878-4.65983-5.42373q6.44546-40.84986,12.91-81.69976c.34376-2.11984.0955-5.09907,2.94105-5.30914,9.14777-.68752,18.33374-1.05038,27.50062-1.375,2.52089-.09549,3.323,1.77608,2.57818,3.83863-2.86465,7.83-.382,17.30249-7.35259,23.89117-.84031.8021-1.79519,2.38721-1.54691,3.30389,4.44976,16.40488-3.38028,31.56842-4.79351,47.36219-1.26046,14.03678-1.948,13.94129-16.13752,14.5524-3.80042.15278-7.58177.57294-11.43949.8785Z"/>
    <path class="bc58108c-e00a-485b-aee0-02e26b481c51" d="M321.48712,404.73934c-15.96564.53473-16.09931.53473-16.63407-13.101-.21007-5.71021-5.27094-12.54717,4.94629-16.11842,3.64766-1.27954.191-6.89426-2.80736-8.09742-4.1251-1.6424-4.77441-4.41155-5.34735-7.96371-1.83339-11.30581-2.31083-22.70711-2.67366-34.12752-.0382-.95488-.382-2.10074.01909-2.82646,5.32823-9.52972,14.7243-2.04344,21.82863-5.02267,3.80045-1.6042,5.38555,1.6424,5.32824,5.51922-.36287,23.6238,6.03486,46.4264,8.68943,69.70645,1.06947,9.28146.05729,13.23466-9.85439,11.84054a9.53888,9.53888,0,0,0-3.514.17187Z"/>
    <path class="bf749411-a639-4cf2-9494-e2caf7fd97c4" d="M282.29873,349.87178c9.30055-2.36812,8.53665,4.0487,9.45333,10.37,1.165,8.00192-3.62854,6.72238-8.38387,7.08524-18.29555,1.375-36.72478-.30557-54.98215,2.4827-2.82645.42015-8.19289,3.43758-8.59394-1.20316-.42015-4.81262-1.165-11.57318,6.66508-13.7121,10.82836-2.96015,21.9241-2.71187,32.92436-3.70495,7.54357-.66843,15.14443-.8976,22.93628-1.31775Z"/>
    <path class="f679e2d5-8b00-42d6-ada4-6e93468f781d" d="M217.92054,102.95821c-2.59728-1.948-9.51064,3.45668-9.45333-2.50179.05729-5.88208,6.85605-3.07472,10.90475-3.323,1.566-.09549,3.132-.0764,4.71713-.0573,2.97923,0,7.77274-3.68584,8.1356,2.13894.34376,5.27095-5.11817,2.92194-8.05921,3.68585-1.757.45834-3.74314.07639-6.24493.07639Z"/>
    <path class="aaf107f8-826d-4715-acbc-b060558e9668" d="M286.30925,96.42681c5.95846-3.2657,12.62355-3.09382,19.23132-3.03652,1.6806,0,3.20839.783,2.96014,2.731a3.20508,3.20508,0,0,1-3.2848,2.76916c-6.16853.07639-12.318.03819-18.48654.03819-.1337-.82119-.28645-1.66149-.42015-2.48269Z"/>
    <path class="adebd893-1336-452f-8be7-b781cfe962cb" d="M270.70647,163.95612c4.58342.8594,7.88734,3.30389,7.60086,8.07831-.26737,4.58344-3.43759,7.63906-8.15471,7.35259a7.27857,7.27857,0,0,1-7.08524-7.46718c-.07638-4.77442,3.07472-7.21891,7.63906-7.96373Z"/>
    <path class="f0d36953-b6ac-4a3c-9e6b-ed4608c77697" d="M237.47655,166.5343c4.698.47744,7.81094,3.07472,7.98282,7.69635a7.098,7.098,0,0,1-6.85605,7.62c-4.67892.42015-7.94464-2.11984-8.34568-6.97065-.401-4.9272,2.75006-7.3144,7.238-8.34567Z"/>
  </g>
</svg>
