<svg id="Layer_1" data-name="Layer 1" xmlns="http://www.w3.org/2000/svg" width="512" height="512" viewBox="0 0 512 512">
  <defs>
    <style>
      .cls-1 {
        fill: #072654;
      }

      .cls-1, .cls-2 {
        fill-rule: evenodd;
      }

      .cls-2 {
        fill: #3395ff;
      }
    </style>
  </defs>
  <g id="Page-1">
    <g id="Group">
      <path id="Fill-1" class="cls-1" d="M160.69037,257.33239a7.70293,7.70293,0,0,1-3.4184,4.83129,13.77588,13.77588,0,0,1-7.13053,1.54266h-9.731l3.416-12.74691h9.731q4.59081,0,6.30336,1.54168,1.70908,1.54335.82953,4.83128m10.07723-.27467q1.85628-6.91868-1.53813-10.62069-3.39461-3.70044-11.89143-3.69976H135.61573L122.54184,291.526h10.55344l5.27112-19.66667h6.92094a7.5071,7.5071,0,0,1,3.66692.75422,3.31222,3.31222,0,0,1,1.5814,2.672l1.88241,16.24041h11.30768l-1.83444-15.14309q-.56066-5.07126-4.63978-5.96164a19.949,19.949,0,0,0,8.7076-5.00333,18.25466,18.25466,0,0,0,4.80847-8.36018"/>
      <path id="Fill-3" class="cls-1" d="M196.41659,274.05262a15.72206,15.72206,0,0,1-4.07471,7.53733,9.25692,9.25692,0,0,1-6.59042,2.60381q-3.91073,0-5.30769-2.5696-1.405-2.56881-.09792-7.4349a15.99516,15.99516,0,0,1,4.16121-7.60693,9.36838,9.36838,0,0,1,6.69522-2.74026q3.83553,0,5.18678,2.639,1.34722,2.63723.02753,7.57155Zm4.626-17.26834-1.32166,4.93393a7.74667,7.74667,0,0,0-3.3136-4.24793,11.064,11.064,0,0,0-6.08926-1.57707,17.3259,17.3259,0,0,0-8.56387,2.2961,22.606,22.606,0,0,0-7.183,6.47541,28.26382,28.26382,0,0,0-4.50549,9.52454,20.30441,20.30441,0,0,0-.572,9.42211,10.2063,10.2063,0,0,0,3.73494,6.27034,11.83989,11.83989,0,0,0,7.39519,2.19228,16.376,16.376,0,0,0,6.91425-1.50746,16.09831,16.09831,0,0,0,5.57391-4.1795l-1.37848,5.139h10.20917l9.30945-34.74174Z"/>
      <polygon id="Fill-5" class="cls-1" points="247.963 256.784 218.292 256.784 216.218 264.528 233.485 264.528 210.655 284.262 208.707 291.526 239.337 291.526 241.413 283.783 222.913 283.783 246.09 263.774 247.963 256.784"/>
      <path id="Fill-7" class="cls-1" d="M274.08572,273.98425a15.96594,15.96594,0,0,1-4.07922,7.67536,9.20436,9.20436,0,0,1-6.53577,2.534q-8.01964,0-5.28252-10.20937a15.84125,15.84125,0,0,1,4.102-7.64,9.37312,9.37312,0,0,1,6.6498-2.57058q3.8352,0,5.17084,2.57058,1.33275,2.56881-.02517,7.64m5.97305-15.89869a16.80661,16.80661,0,0,0-9.00626-2.19229,24.18082,24.18082,0,0,0-10.28448,2.19229,22.32569,22.32569,0,0,0-8.06054,6.30454,25.55141,25.55141,0,0,0-4.79943,9.59415,18.30169,18.30169,0,0,0-.34173,9.593,10.33206,10.33206,0,0,0,4.683,6.30454,17.11163,17.11163,0,0,0,9.1089,2.19228,23.76433,23.76433,0,0,0,10.182-2.19228,22.43924,22.43924,0,0,0,8.02612-6.30454,25.5799,25.5799,0,0,0,4.79709-9.593,18.33106,18.33106,0,0,0,.34408-9.59415,10.39984,10.39984,0,0,0-4.64883-6.30454"/>
      <path id="Fill-9" class="cls-1" d="M386.843,274.05262a15.72221,15.72221,0,0,1-4.0747,7.53733,9.25919,9.25919,0,0,1-6.59279,2.60381q-3.90363,0-5.30534-2.5696-1.405-2.56881-.0979-7.4349a15.99491,15.99491,0,0,1,4.16121-7.60693,9.36832,9.36832,0,0,1,6.69522-2.74026q3.83551,0,5.18677,2.639,1.34722,2.63723.02753,7.57155Zm4.626-17.26834-1.32165,4.93393a7.74658,7.74658,0,0,0-3.3136-4.24793,11.064,11.064,0,0,0-6.08924-1.57707,17.32588,17.32588,0,0,0-8.56388,2.2961,22.60607,22.60607,0,0,0-7.183,6.47541,28.26,28.26,0,0,0-4.50547,9.52454,20.33352,20.33352,0,0,0-.572,9.42211,10.19568,10.19568,0,0,0,3.735,6.27034,11.83981,11.83981,0,0,0,7.39517,2.19228,16.3751,16.3751,0,0,0,6.91406-1.50746,16.09719,16.09719,0,0,0,5.57411-4.1795L382.16,291.526h10.20917l9.30945-34.74174Z"/>
      <path id="Fill-11" class="cls-1" d="M316.45949,266.10386l2.60243-9.45632a7.68561,7.68561,0,0,0-3.51632-.6858,14.01761,14.01761,0,0,0-6.73866,1.74773,14.7873,14.7873,0,0,0-4.77427,4.16239l1.35372-5.09239-2.956.00491h-7.25028l-9.38081,34.74154h10.35053l4.8655-18.158a11.51529,11.51529,0,0,1,3.81949-6.20093,10.5649,10.5649,0,0,1,6.86628-2.22768,10.1121,10.1121,0,0,1,4.75835,1.16457"/>
      <path id="Fill-13" class="cls-1" d="M345.27031,274.18879a15.38553,15.38553,0,0,1-4.04737,7.4349,9.29434,9.29434,0,0,1-6.58138,2.5694q-3.83877,0-5.23-2.60361-1.3947-2.603-.07078-7.53753a15.74168,15.74168,0,0,1,4.11815-7.57155,9.34647,9.34647,0,0,1,6.636-2.639q3.76683,0,5.12289,2.74164,1.35369,2.74134.05249,7.60575m7.23318-16.00015a11.40485,11.40485,0,0,0-7.33346-2.29472,16.25413,16.25413,0,0,0-7.43155,1.781,15.433,15.433,0,0,0-5.72452,4.86531l.03305-.22789,1.73888-5.5334h-2.001v.00491h-8.10262l-2.57274,9.60713c-.02969.11168-.05465.21589-.08455.32874l-10.61262,39.60724H320.761l5.34386-19.93919a7.11911,7.11911,0,0,0,3.26346,4.17832,11.54068,11.54068,0,0,0,6.10734,1.50747,17.92077,17.92077,0,0,0,8.605-2.19228,21.34691,21.34691,0,0,0,7.0922-6.27033,27.76931,27.76931,0,0,0,4.44377-9.42212,21.0162,21.0162,0,0,0,.59928-9.52455,10.59318,10.59318,0,0,0-3.71233-6.4756"/>
      <path id="Fill-15" class="cls-1" d="M444.53089,256.794l.0067-.00964h-6.26817c-.20037,0-.37713.0057-.56038.00964h-3.25322l-1.66359,2.31772c-.1333.1746-.26661.35038-.41013.55427l-.18128.26838-13.221,18.41285-2.74143-21.56286H405.4091l5.484,32.76593-12.111,16.77718H409.5715l2.93511-4.15767c.0865-.12387.16064-.22533.253-.35627l3.42509-4.85587.09809-.139,15.32537-21.72506,12.91227-18.28524.01712-.01435Z"/>
      <polygon id="Fill-17" class="cls-2" points="95.947 248.327 92.849 259.727 110.575 248.263 98.983 291.515 110.755 291.526 127.88 227.641 95.947 248.327"/>
      <path id="Fill-19" class="cls-1" d="M76.86714,273.34314l-4.87356,18.1828H96.12367s9.86981-36.98042,9.87256-36.991c-.00924.0059-29.12909,18.80824-29.12909,18.80824"/>
    </g>
  </g>
</svg>
