<svg id="Layer_1" data-name="Layer 1" xmlns="http://www.w3.org/2000/svg" width="512" height="512" viewBox="0 0 512 512">
  <defs>
    <style>
      .cls-1 {
        fill: #bfa161;
      }

      .cls-1, .cls-2 {
        fill-rule: evenodd;
      }

      .cls-2, .cls-3 {
        fill: #1f1917;
      }
    </style>
  </defs>
  <g>
    <path class="cls-1" d="M282.86517,235.56994a16.53063,16.53063,0,0,1-16.01794,1.69987,7.58589,7.58589,0,0,1-2.57925-1.86835c-1.07114-1.278-28.12385-30.4141-28.12385-30.4141l-.08766-.0863a22.88854,22.88854,0,0,0,22.249-9.34311c4.71333-6.62689,4.53937-16.0563.089-22.68318-5.338-7.22-15.75221-9.59789-24.47346-8.49523-15.1276,2.03956-25.9843,14.86734-29.36349,28.29234-3.4737,15.28787-.97937,29.73059,4.45172,43.32268a36.79965,36.79965,0,0,0,4.9818,8.40758c-15.93164-6.62278-29.99221-18.85608-37.37657-35.25345-8.187-17.66987-8.009-40.01061,1.69165-57.93526,7.65146-13.84688,21.17645-26.67466,37.908-32.11259,17.52878-6.8803,41.11191-5.43657,58.19962,3.73806,20.73265,9.854,36.39445,34.40831,36.48348,56.32443.71228,22.68181-9.79239,43.23913-28.03208,56.4066"/>
    <path class="cls-1" d="M224.66692,244.15147c-7.7405-7.98842-13.97152-18.35064-9.25271-29.13885,4.17914-8.24046,7.9172-16.65214,9.69789-26.16785.71227,9.9417,7.03234,18.77664,10.054,28.29235a22.58054,22.58054,0,0,1-.6205,14.10028,41.11347,41.11347,0,0,1-9.25683,13.59073Z"/>
    <g>
      <path class="cls-2" d="M127.0265,333.92126h-20.608q-6.8481-10.25676-12.39493-17.72193-5.81493-7.83775-11.98949-15.39882H74.20865v23.19a8.04681,8.04681,0,0,0,.59037,3.16413,4.07417,4.07417,0,0,0,2.5409,2.07382,15.93368,15.93368,0,0,0,3.38878.66846c1.62042.211,2.9847.33422,4.1079.36846v3.65725H52.45691v-3.65725c.86568-.07259,2.12038-.19177,3.75861-.36846a12.54313,12.54313,0,0,0,3.42439-.66846,4.53552,4.53552,0,0,0,2.33955-1.95052,6.52905,6.52905,0,0,0,.73693-3.28741V271.13706a8.54211,8.54211,0,0,0-.55475-3.19838,3.83,3.83,0,0,0-2.52036-2.11217,22.87688,22.87688,0,0,0-3.51753-.84377,34.06292,34.06292,0,0,0-3.66685-.49311v-3.65588H87.80076a41.89721,41.89721,0,0,1,9.11573.95061,25.32741,25.32741,0,0,1,7.71858,3.0573,15.79334,15.79334,0,0,1,5.33932,5.38315,15.30883,15.30883,0,0,1,2.00669,8.01719,19.231,19.231,0,0,1-1.36291,7.46929,15.555,15.555,0,0,1-3.97777,5.60914,23.65436,23.65436,0,0,1-5.83791,3.834,44.82388,44.82388,0,0,1-7.49394,2.75868q4.74658,5.99925,9.41023,12.06346c2.50391,3.25044,5.55847,7.22411,9.20477,11.88265a24.31286,24.31286,0,0,0,4.29556,4.57089,22.97681,22.97681,0,0,0,3.79286,2.3916,13.748,13.748,0,0,0,3.5148,1.03691,28.97392,28.97392,0,0,0,3.49973.40546ZM98.64787,279.41861c0-4.4298-1.32867-7.92816-3.99558-10.52932-2.65322-2.5861-6.42964-3.88463-11.2731-3.88463H74.20866V296.368h7.07343a17.56659,17.56659,0,0,0,12.39082-4.55444q4.97838-4.55925,4.97633-12.39631Zm77.20227,42.54877a26.41706,26.41706,0,0,1-8.94725,9.68829,23.33168,23.33168,0,0,1-12.8949,3.60247,27.28925,27.28925,0,0,1-11.25119-2.16284,21.7649,21.7649,0,0,1-7.95555-5.87078,24.70124,24.70124,0,0,1-4.67772-8.65138,35.36419,35.36419,0,0,1-1.52728-10.46082,29.91678,29.91678,0,0,1,1.63549-9.7061,26.97882,26.97882,0,0,1,4.8462-8.57879,23.192,23.192,0,0,1,7.6227-5.89,22.84056,22.84056,0,0,1,10.22387-2.2464,25.39742,25.39742,0,0,1,9.98006,1.756,17.454,17.454,0,0,1,6.74331,4.78045,19.10055,19.10055,0,0,1,3.69834,6.805,28.58647,28.58647,0,0,1,1.21634,8.49249v3.4107H139.3324a38.18656,38.18656,0,0,0,.99033,9.05136,20.982,20.982,0,0,0,3.16826,7.17754,14.90173,14.90173,0,0,0,5.49136,4.71059,17.83862,17.83862,0,0,0,8.10348,1.72315,15.54,15.54,0,0,0,8.28292-2.145c2.30667-1.42453,4.55034-3.99147,6.70634-7.7035ZM163.936,302.6086a39.14561,39.14561,0,0,0-.5164-6.18857,18.62242,18.62242,0,0,0-1.63823-5.50095,10.73055,10.73055,0,0,0-3.41069-3.86956,9.52042,9.52042,0,0,0-5.55847-1.493,11.73924,11.73924,0,0,0-9.413,4.49966c-2.50255,3.00663-3.849,7.19123-4.06818,12.55246Zm41.98991,31.31266H180.873v-3.27372c.79994-.06985,1.6533-.15341,2.56145-.23833a11.359,11.359,0,0,0,2.24092-.37258,3.76988,3.76988,0,0,0,2.18477-1.56153,5.16652,5.16652,0,0,0,.73007-2.90387l-.81774-54.23829a19.67462,19.67462,0,0,0-.626-3.60246,3.45568,3.45568,0,0,0-.47668-1.1684,4.17446,4.17446,0,0,0-.45476-.56571c-.89992-.76843.21779.29861-.62324-.415-.55475-.47256.22875-.17806-1.4355-.50681-1.65056-.32463-4.41473.40408-5.42834.337l-.09041-3.57507,18.68349-.97252.88761.726.07259,63.3869a5.422,5.422,0,0,0,.67529,2.85046,4.226,4.226,0,0,0,2.1875,1.71494,11.95794,11.95794,0,0,0,2.256.74651,17.49835,17.49835,0,0,0,2.52583.35887Zm32.19478,0h-25.509v-3.3655l2.53542-.20819a9.48515,9.48515,0,0,0,2.26558-.41915,3.73518,3.73518,0,0,0,2.22859-1.60261,5.60175,5.60175,0,0,0,.73283-2.982V294.24214a6.00415,6.00415,0,0,0-.78761-2.99977,6.57884,6.57884,0,0,0-2.1738-2.26421,9.45166,9.45166,0,0,0-2.93813-1.04512,22.05693,22.05693,0,0,0-3.52575-.54243V284.0799l18.62871-1.13416.74652.71639v41.07218a5.65136,5.65136,0,0,0,.71228,2.96416,4.26663,4.26663,0,0,0,2.28339,1.72589,18.16144,18.16144,0,0,0,2.30119.74789,15.71009,15.71009,0,0,0,2.4998.38353Zm-6.73785-70.83016a7.18278,7.18278,0,0,1-2.00807,5.07222,6.46562,6.46562,0,0,1-4.9503,2.17791,6.39007,6.39007,0,0,1-4.72977-2.07381,6.6455,6.6455,0,0,1-2.00944-4.72566,6.85983,6.85983,0,0,1,2.00944-4.89825,6.35256,6.35256,0,0,1,4.72977-2.09162,6.71046,6.71046,0,0,1,5.00373,1.95464,6.34145,6.34145,0,0,1,1.95464,4.58321Zm63.643,69.89871c-1.69439.57941-3.16826,1.05472-4.438,1.42454a16.40254,16.40254,0,0,1-4.34487.5438,10.99184,10.99184,0,0,1-6.72414-1.8793,8.62573,8.62573,0,0,1-3.20522-5.48589h-.32875a26.26186,26.26186,0,0,1-7.53367,5.66121,21.93382,21.93382,0,0,1-9.66912,1.9519,14.10218,14.10218,0,0,1-9.85266-3.49836,11.79271,11.79271,0,0,1-3.8682-9.16094,15.08038,15.08038,0,0,1,.86569-5.25577,12.6976,12.6976,0,0,1,2.59706-4.1846,13.09262,13.09262,0,0,1,3.55452-2.745,31.46023,31.46023,0,0,1,4.16269-1.9341c1.61907-.57667,4.89826-1.66837,9.83485-3.25179a75.88336,75.88336,0,0,0,10.0184-3.70794V296.368a19.32633,19.32633,0,0,0-.29587-2.56556,10.58278,10.58278,0,0,0-1.26977-3.60521,10.0738,10.0738,0,0,0-3.05867-3.32166,9.3489,9.3489,0,0,0-5.579-1.42455,12.6765,12.6765,0,0,0-4.60512.80815,8.41819,8.41819,0,0,0-2.99978,1.67111,13.06807,13.06807,0,0,0,.51778,3.03949,14.90574,14.90574,0,0,1,.51228,3.712,4.38,4.38,0,0,1-1.69439,3.28605,6.89743,6.89743,0,0,1-4.73387,1.49577,4.50962,4.50962,0,0,1-3.9586-1.82863,6.99269,6.99269,0,0,1-1.26977-4.09832,7.14988,7.14988,0,0,1,1.74917-4.53527,17.25715,17.25715,0,0,1,4.56951-3.85038,25.791,25.791,0,0,1,5.87078-2.46145,24.11293,24.11293,0,0,1,6.74332-.99993,47.78486,47.78486,0,0,1,7.91993.59447,14.80716,14.80716,0,0,1,6.11187,2.55186,11.89578,11.89578,0,0,1,4.18186,5.16536,21.17591,21.17591,0,0,1,1.43825,8.424c0,4.92154-.05754,9.26779-.16984,13.062q-.16231,5.69957-.163,12.44835a5.26186,5.26186,0,0,0,5.52286,5.71465q1.767.04931,3.5915.052ZM276.20539,305.7919q-4.588,1.29033-8.05006,2.52995a32.38,32.38,0,0,0-6.40772,3.09564,14.25434,14.25434,0,0,0-4.275,4.14763,10.20324,10.20324,0,0,0-1.56564,5.68038c0,2.8491.79446,4.95716,2.35872,6.29266a8.85689,8.85689,0,0,0,5.94748,2.00669,12.82427,12.82427,0,0,0,6.75975-1.77521,19.06083,19.06083,0,0,0,4.89826-4.20241ZM359.062,333.92124H333.00376v-3.39152c.82734-.06849,1.74643-.13972,2.72309-.20957a10.75943,10.75943,0,0,0,2.46966-.42189,3.82053,3.82053,0,0,0,2.22859-1.6163,5.50759,5.50759,0,0,0,.73693-3.008V299.14859c0-3.6052-.90267-6.38169-2.67377-8.335a8.502,8.502,0,0,0-6.49949-2.93539,15.64622,15.64622,0,0,0-5.25027.8424,18.76648,18.76648,0,0,0-4.19693,2.093,11.81711,11.81711,0,0,0-2.83814,2.55049,22.57693,22.57693,0,0,0-1.52591,2.17791v29.21966a4.998,4.998,0,0,0,.75611,2.88608,4.69288,4.69288,0,0,0,2.26421,1.73959,10.72531,10.72531,0,0,0,2.44776.77528,22.86219,22.86219,0,0,0,2.72718.3671v3.3929h-26.061v-3.3929c.82734-.06849,1.67659-.13972,2.55871-.20957a10.29288,10.29288,0,0,0,2.30118-.42189,3.8216,3.8216,0,0,0,2.23271-1.6163,5.4722,5.4722,0,0,0,.73692-3.008V293.90654a6.72926,6.72926,0,0,0-2.96827-5.62424,7.86915,7.86915,0,0,0-2.43132-.89719,22.45713,22.45713,0,0,0-3.02031-.38627v-3.33947l17.69726-1.14238.75885.71913v7.15561h.25614c.86569-.80815,1.95326-1.81082,3.23948-2.9532a28.81749,28.81749,0,0,1,3.6682-2.81074,20.02,20.02,0,0,1,4.75032-2.06148,21.87527,21.87527,0,0,1,6.20912-.82459c5.09962,0,8.89247,1.52864,11.36078,4.55307,2.4683,3.0436,3.68053,7.08712,3.68053,12.13057v26.42673a5.625,5.625,0,0,0,.66845,2.919,4.12031,4.12031,0,0,0,2.20805,1.72315,13.83745,13.83745,0,0,0,2.22859.71775,17.74149,17.74149,0,0,0,2.61625.31778Zm31.14279,1.33688q-11.547,0-18.08353-7.3145-6.52347-7.30218-6.52-19.62177a28.4662,28.4662,0,0,1,1.74917-10.01978,27.6559,27.6559,0,0,1,5.10236-8.47469,23.74518,23.74518,0,0,1,7.99116-5.89,24.34574,24.34574,0,0,1,10.45947-2.2464c5.2133,0,9.46913,1.19306,12.72778,3.58328a11.43518,11.43518,0,0,1,4.91742,9.75814,8.10222,8.10222,0,0,1-1.29029,4.55444,4.6965,4.6965,0,0,1-4.27364,1.98615,7.20583,7.20583,0,0,1-4.93387-1.54919,4.53431,4.53431,0,0,1-1.74917-3.44632,18.97756,18.97756,0,0,1,.64379-4.764,23.70481,23.70481,0,0,0,.75337-3.586,4.70172,4.70172,0,0,0-2.88745-2.12724,14.76032,14.76032,0,0,0-4.12982-.54517,11.965,11.965,0,0,0-4.9325,1.05471,12.60709,12.60709,0,0,0-4.55034,3.886,20.3812,20.3812,0,0,0-3.24222,6.96111,38.70025,38.70025,0,0,0-1.252,10.44578q0,9.59514,4.45857,15.64537a13.85635,13.85635,0,0,0,11.67581,6.05022,15.20361,15.20361,0,0,0,8.787-2.42583,24.18361,24.18361,0,0,0,6.53786-7.26382l3.46,2.16422a27.13472,27.13472,0,0,1-9.39106,9.63487,22.791,22.791,0,0,1-12.02647,3.55041Zm72.83683-13.29076a26.37087,26.37087,0,0,1-8.94727,9.68829,23.31789,23.31789,0,0,1-12.8908,3.60247,27.3072,27.3072,0,0,1-11.25393-2.16284,21.80943,21.80943,0,0,1-7.95829-5.87078,24.83161,24.83161,0,0,1-4.67635-8.65138,35.49949,35.49949,0,0,1-1.53141-10.46083,29.81492,29.81492,0,0,1,1.64235-9.70609,27.03375,27.03375,0,0,1,4.8421-8.5788,23.21671,23.21671,0,0,1,7.62542-5.89,22.841,22.841,0,0,1,10.22113-2.2464,25.37406,25.37406,0,0,1,9.98007,1.756,17.40742,17.40742,0,0,1,6.74194,4.78045,19.02165,19.02165,0,0,1,3.70108,6.80495A28.54273,28.54273,0,0,1,461.754,303.525v3.4107H426.52116a38.03406,38.03406,0,0,0,.9958,9.05136,20.95823,20.95823,0,0,0,3.16961,7.17754,14.92365,14.92365,0,0,0,5.48451,4.71059,17.85259,17.85259,0,0,0,8.10484,1.72315,15.56117,15.56117,0,0,0,8.28977-2.145c2.29981-1.42454,4.549-3.99147,6.70361-7.7035Zm-11.91414-19.35878a39.29815,39.29815,0,0,0-.515-6.18857,18.66424,18.66424,0,0,0-1.63687-5.50095,10.76888,10.76888,0,0,0-3.40659-3.86957,9.55055,9.55055,0,0,0-5.564-1.493,11.73284,11.73284,0,0,0-9.4116,4.49966c-2.50664,3.00663-3.849,7.19123-4.07228,12.55246Z"/>
      <path class="cls-3" d="M67.46671,398.319H52.47746V396.8123c.42462-.03423,1.03143-.074,1.83273-.13149a6.98607,6.98607,0,0,0,1.68754-.2534,2.359,2.359,0,0,0,1.12868-.75337,2.2202,2.2202,0,0,0,.34518-1.32593V372.52377a2.61871,2.61871,0,0,0-.25751-1.23827,2.07419,2.07419,0,0,0-1.21635-.841,14.36655,14.36655,0,0,0-1.767-.478,13.65529,13.65529,0,0,0-1.75329-.26162v-1.50674H67.46671v1.50674a16.29563,16.29563,0,0,0-1.73959.16027,12.80628,12.80628,0,0,0-1.76014.34929,1.83818,1.83818,0,0,0-1.19032.8246,2.63207,2.63207,0,0,0-.30408,1.27387v21.8038a2.29859,2.29859,0,0,0,.33559,1.23963,2.2659,2.2659,0,0,0,1.15881.86021,11.17367,11.17367,0,0,0,1.61084.3712,12.47745,12.47745,0,0,0,1.89026.22326Zm30.24014,0H86.38717v-1.39989c.36025-.026.75885-.0589,1.18347-.08766a4.78989,4.78989,0,0,0,1.07115-.1726,1.64035,1.64035,0,0,0,.96979-.66569,2.16267,2.16267,0,0,0,.32189-1.23827V383.98452a4.777,4.777,0,0,0-1.16018-3.43125,3.78644,3.78644,0,0,0-2.82444-1.21087,7.0673,7.0673,0,0,0-2.282.34791,8.18648,8.18648,0,0,0-1.82588.863,4.99819,4.99819,0,0,0-1.22868,1.0506,8.61945,8.61945,0,0,0-.66433.89583v12.04292a1.9928,1.9928,0,0,0,.326,1.19168,2.02367,2.02367,0,0,0,.98348.715,4.89277,4.89277,0,0,0,1.0643.31915,10.58761,10.58761,0,0,0,1.18621.15068v1.40125H72.18553v-1.40125c.35887-.026.726-.0589,1.11087-.08766a4.61205,4.61205,0,0,0,.99992-.1726,1.62959,1.62959,0,0,0,.96705-.66569,2.14168,2.14168,0,0,0,.3219-1.23827V381.82715a2.57983,2.57983,0,0,0-.34518-1.32728,2.72016,2.72016,0,0,0-.9424-.989,3.41876,3.41876,0,0,0-1.05745-.3712,10.52873,10.52873,0,0,0-1.31086-.16027v-1.378l7.68845-.46845.32874.29587V380.378h.10958c.37668-.33284.84925-.74651,1.41085-1.21634a12.34252,12.34252,0,0,1,1.59166-1.16019,8.86491,8.86491,0,0,1,2.06559-.84788,9.99928,9.99928,0,0,1,2.69569-.33832,6.17114,6.17114,0,0,1,4.93523,1.87382,7.42514,7.42514,0,0,1,1.60262,4.9996v10.88957a2.22188,2.22188,0,0,0,.28765,1.204,1.77142,1.77142,0,0,0,.95883.70954,6.3431,6.3431,0,0,0,.96979.29723,7.7895,7.7895,0,0,0,1.13279.13013Zm29.31966-.38353-8.06377.46845-.35339-.29723v-1.956l-.18492-.03974a9.58292,9.58292,0,0,1-3.0162,2.02176,9.07531,9.07531,0,0,1-3.69013.78487,9.7309,9.7309,0,0,1-7.00905-3.03948,10.83877,10.83877,0,0,1-2.19161-3.52029,12.39368,12.39368,0,0,1-.80816-4.54349,10.95822,10.95822,0,0,1,.86295-4.30925,11.402,11.402,0,0,1,2.39434-3.56685,10.60926,10.60926,0,0,1,3.50521-2.2738,11.07176,11.07176,0,0,1,4.23255-.84651,13.73866,13.73866,0,0,1,3.17783.36984,12.06884,12.06884,0,0,1,2.67925.94788V370.8554a3.83556,3.83556,0,0,0-.32874-1.62454,2.45185,2.45185,0,0,0-.91226-1.11635,4.99516,4.99516,0,0,0-1.76836-.58763q-1.19452-.18105-2.40118-.26026v-1.31771l9.44448-.4849.34929.31778v28.228a2.33724,2.33724,0,0,0,.32189,1.26839,2.56117,2.56117,0,0,0,.92732.87664,2.98816,2.98816,0,0,0,1.28757.31778c.5616.04109,1.07253.074,1.54509.089v1.37391Zm-8.4651-3.67643v-12.2429a5.08594,5.08594,0,0,0-.60818-1.18759,5.40651,5.40651,0,0,0-1.05745-1.1684,5.8157,5.8157,0,0,0-3.72026-1.23,5.19009,5.19009,0,0,0-2.59158.65748,6.55566,6.55566,0,0,0-2.09572,1.88753,9.13835,9.13835,0,0,0-1.378,3.02442,15.42774,15.42774,0,0,0-.50407,4.0668,13.16268,13.16268,0,0,0,.37668,3.23948,8.00438,8.00438,0,0,0,1.26429,2.70116,6.20638,6.20638,0,0,0,2.10532,1.91356,6.06619,6.06619,0,0,0,3.03264.726,5.911,5.911,0,0,0,3.10387-.74926,9.4262,9.4262,0,0,0,2.07244-1.63822m36.65471,3.67643-7.5323.46845-.34928-.29723V395.4494h-.137c-.37531.35613-.79857.73692-1.27387,1.13826a8.62992,8.62992,0,0,1-1.61358,1.09581,10.72141,10.72141,0,0,1-2.03956.86705,10.03552,10.03552,0,0,1-2.78609.29587,5.92383,5.92383,0,0,1-4.68046-1.80809,7.77212,7.77212,0,0,1-1.60262-5.27767V381.73949a2.43234,2.43234,0,0,0-.31915-1.28072,2.74766,2.74766,0,0,0-.92732-.90678,3.28459,3.28459,0,0,0-1.04787-.3671,10.977,10.977,0,0,0-1.33688-.16163v-1.38344l7.70625-.50681.3534.29587v14.54135a4.69624,4.69624,0,0,0,1.12594,3.42165,3.66938,3.66938,0,0,0,2.69842,1.14376,6.7679,6.7679,0,0,0,2.293-.36437,6.69893,6.69893,0,0,0,1.68891-.84514,7.94367,7.94367,0,0,0,1.11362-.941,5.27933,5.27933,0,0,0,.73556-.92733V381.5902a2.26934,2.26934,0,0,0-.32874-1.23963,2.77373,2.77373,0,0,0-.90952-.92047,2.73944,2.73944,0,0,0-1.25743-.3123q-.93168-.05616-1.86424-.0959v-1.38344l8.39387-.50545.352.29587v16.622a2.27142,2.27142,0,0,0,.32737,1.23278,2.8428,2.8428,0,0,0,.9191.86705,2.75894,2.75894,0,0,0,1.0013.31368c.39312.03973.82322.07944,1.29579.09313Zm19.25057-9.8691a5.427,5.427,0,0,1,1.48071,1.76014,5.29566,5.29566,0,0,1,.51092,2.44229,5.73346,5.73346,0,0,1-2.39981,4.75306,9.92,9.92,0,0,1-6.22418,1.8478,10.083,10.083,0,0,1-3.71615-.66022A10.49144,10.49144,0,0,1,161.68549,397l-.46023,1.38345h-1.76015l-.23422-7.28162h1.61631a7.62389,7.62389,0,0,0,.79994,1.92588,9.10557,9.10557,0,0,0,1.47248,2.0026,8.28366,8.28366,0,0,0,2.193,1.57111,6.40341,6.40341,0,0,0,2.87238.63693,5.66332,5.66332,0,0,0,3.47234-.92594,3.12458,3.12458,0,0,0,1.21361-2.64774,2.96129,2.96129,0,0,0-.37942-1.53413,3.65327,3.65327,0,0,0-1.13827-1.13826,9.5671,9.5671,0,0,0-1.904-.87664c-.75337-.26026-1.58207-.52051-2.50529-.77254q-1.24452-.35106-2.4505-.82186a9.8066,9.8066,0,0,1-2.30941-1.2232,6.172,6.172,0,0,1-1.68891-1.81766,4.81508,4.81508,0,0,1-.65337-2.55049,5.50521,5.50521,0,0,1,2.10943-4.35582,8.45691,8.45691,0,0,1,5.65024-1.78069,12.74993,12.74993,0,0,1,2.7765.31778,10.68209,10.68209,0,0,1,2.31216.76844l.5342-1.1095h1.693l.34929,6.731h-1.61632a6.544,6.544,0,0,0-2.1286-3.65725,5.81843,5.81843,0,0,0-3.96819-1.41359,4.77625,4.77625,0,0,0-3.02716.86843,2.59436,2.59436,0,0,0-1.104,2.10121,3.137,3.137,0,0,0,.36846,1.59575,3.07131,3.07131,0,0,0,1.089,1.07663,9.6078,9.6078,0,0,0,1.767.79994q1.07046.36777,2.64363.83691a24.8429,24.8429,0,0,1,2.91073,1.03965,9.70627,9.70627,0,0,1,2.26558,1.31771m20.92442,9.339c-1.01911.38353-1.9793.7013-2.882.96294a12.12376,12.12376,0,0,1-3.32851.39722q-2.90526,0-4.08873-1.33278a5.40585,5.40585,0,0,1-1.18483-3.74491v-14.177h-4.17777v-2.03821h4.26542v-6.51456h4.27365v6.51456h6.63374v2.03821h-6.59265V391.2114a18.66827,18.66827,0,0,0,.10959,2.19572,3.611,3.611,0,0,0,.50544,1.53412,2.27906,2.27906,0,0,0,1.12046.93418,5.27845,5.27845,0,0,0,2.01765.31916c.39039,0,.96569-.0274,1.71768-.09314a8.261,8.261,0,0,0,1.61084-.24792Zm21.15316-17.32333a3.34449,3.34449,0,0,1-.58352,1.92725,2.05128,2.05128,0,0,1-1.80808.83143,2.88472,2.88472,0,0,1-1.99984-.615,1.78222,1.78222,0,0,1-.69584-1.35468,4.397,4.397,0,0,1,.08081-.84651c.05479-.26026.10958-.51366.15067-.7698a5.57048,5.57048,0,0,0-2.57651.80406,7.342,7.342,0,0,0-2.50666,2.29708v12.18674a2.103,2.103,0,0,0,.31505,1.20539,1.89458,1.89458,0,0,0,.99993.70131,6.76266,6.76266,0,0,0,1.51221.31916c.61638.06985,1.15059.12327,1.5985.15067v1.40125H198.84426v-1.40125c.36025-.026.726-.0589,1.11362-.08766a4.61216,4.61216,0,0,0,.99992-.1726,1.64967,1.64967,0,0,0,.96842-.66569,2.17319,2.17319,0,0,0,.32053-1.23827V381.82721a2.72653,2.72653,0,0,0-.34244-1.29716,2.67318,2.67318,0,0,0-.94788-1.01911,3.44221,3.44221,0,0,0-1.05745-.3712,10.04494,10.04494,0,0,0-1.30949-.16026v-1.378l7.68981-.46845.326.29588V380.378h.11233a10.217,10.217,0,0,1,3.24084-2.608,7.37764,7.37764,0,0,1,3.25865-.89034,3.36493,3.36493,0,0,1,2.40118.86843,3.07452,3.07452,0,0,1,.926,2.33406M230.898,398.31908H219.72073v-1.39989c.35888-.026.726-.0589,1.1095-.08766a4.42927,4.42927,0,0,0,.99307-.1726,1.632,1.632,0,0,0,.97663-.66569,2.217,2.217,0,0,0,.32053-1.23827V381.82719a2.42108,2.42108,0,0,0-.34244-1.24648,2.79991,2.79991,0,0,0-.95472-.9424,4.335,4.335,0,0,0-1.28621-.43557,10.35491,10.35491,0,0,0-1.54782-.22326v-1.378l8.16375-.46845.32874.29588v17.07128a2.29167,2.29167,0,0,0,.30958,1.23277,1.86444,1.86444,0,0,0,1.00129.71638,8.10846,8.10846,0,0,0,1.00813.31094,7.47368,7.47368,0,0,0,1.09717.15889Zm-2.95046-29.43883a3.01316,3.01316,0,0,1-5.12426,2.15051,2.69251,2.69251,0,0,1-.878-1.96424,2.77513,2.77513,0,0,1,.878-2.03271,2.85762,2.85762,0,0,1,2.07381-.87253,3.02939,3.02939,0,0,1,2.19161.81363,2.56559,2.56559,0,0,1,.85884,1.904m27.48006,24.51318a11.08257,11.08257,0,0,1-3.88463,3.99009,10.53625,10.53625,0,0,1-5.6023,1.48756,12.448,12.448,0,0,1-4.89-.89034,9.52792,9.52792,0,0,1-3.45863-2.42174,10.06755,10.06755,0,0,1-2.03-3.56685,13.88637,13.88637,0,0,1-.66434-4.30651,11.69165,11.69165,0,0,1,.71228-4.00243,10.88816,10.88816,0,0,1,2.10394-3.534,10.09989,10.09989,0,0,1,3.31208-2.43,10.40822,10.40822,0,0,1,4.44349-.926,11.60071,11.60071,0,0,1,4.338.72323,7.6082,7.6082,0,0,1,2.9258,1.97246,7.69737,7.69737,0,0,1,1.61083,2.80527,11.20809,11.20809,0,0,1,.526,3.49972v1.404H239.563a14.91975,14.91975,0,0,0,.43284,3.7326,8.38732,8.38732,0,0,0,1.37523,2.95594,6.3419,6.3419,0,0,0,2.38475,1.93958,8.07581,8.07581,0,0,0,3.52164.7109,7.03071,7.03071,0,0,0,3.59835-.8835,9.02835,9.02835,0,0,0,2.91486-3.17373Zm-5.17632-7.97884a15.54106,15.54106,0,0,0-.2219-2.5491,7.40277,7.40277,0,0,0-.71228-2.27107A4.51486,4.51486,0,0,0,247.83771,379a4.32458,4.32458,0,0,0-2.41762-.615,5.20062,5.20062,0,0,0-4.08735,1.856,8.12842,8.12842,0,0,0-1.76974,5.1722Zm24.268,2.65322a5.38128,5.38128,0,0,1,1.48208,1.76014,5.27791,5.27791,0,0,1,.51228,2.44229,5.73473,5.73473,0,0,1-2.4012,4.75306,9.91867,9.91867,0,0,1-6.22554,1.8478,10.06625,10.06625,0,0,1-3.71205-.66022A10.40517,10.40517,0,0,1,261.7421,397l-.463,1.38345H259.519l-.23286-7.28162h1.61631a7.58267,7.58267,0,0,0,.80131,1.92588,9.01262,9.01262,0,0,0,1.47113,2.0026,8.25376,8.25376,0,0,0,2.19162,1.57111,6.39687,6.39687,0,0,0,2.87376.63694,5.65887,5.65887,0,0,0,3.471-.926,3.12047,3.12047,0,0,0,1.21773-2.64774,2.976,2.976,0,0,0-.38353-1.53412,3.63118,3.63118,0,0,0-1.13691-1.13826,9.58495,9.58495,0,0,0-1.904-.87665c-.75337-.26026-1.58618-.52051-2.50392-.77254q-1.244-.35054-2.44912-.82186a9.79585,9.79585,0,0,1-2.31489-1.2232,6.19417,6.19417,0,0,1-1.68618-1.81766,4.80429,4.80429,0,0,1-.65747-2.55049,5.50128,5.50128,0,0,1,2.11353-4.35582,8.45308,8.45308,0,0,1,5.64887-1.78069,12.75269,12.75269,0,0,1,2.77787.31778,10.66716,10.66716,0,0,1,2.31077.76844l.53695-1.1095h1.68891l.352,6.731h-1.61768a6.53822,6.53822,0,0,0-2.13-3.65725,5.81382,5.81382,0,0,0-3.96546-1.41359,4.76837,4.76837,0,0,0-3.02717.86843,2.60178,2.60178,0,0,0-1.104,2.10121,3.137,3.137,0,0,0,.36846,1.59576,3.06008,3.06008,0,0,0,1.08895,1.07662,9.6083,9.6083,0,0,0,1.767.79994q1.06842.36777,2.64226.83691a24.97779,24.97779,0,0,1,2.91348,1.03965,9.67241,9.67241,0,0,1,2.26147,1.31771m44.387,1.29717-.70268,8.95685h-25.998V396.811c.37531-.03288.91911-.08083,1.63137-.15068a6.11467,6.11467,0,0,0,1.48894-.27394,1.96422,1.96422,0,0,0,1.01636-.8068,2.57513,2.57513,0,0,0,.31778-1.35607v-21.5682a2.78815,2.78815,0,0,0-.27121-1.27386,1.91534,1.91534,0,0,0-1.06293-.89034,9.02738,9.02738,0,0,0-1.51358-.50406,10.14446,10.14446,0,0,0-1.60535-.28216v-1.50675h14.04v1.50675a11.4589,11.4589,0,0,0-1.69439.21095,14.00467,14.00467,0,0,0-1.51222.3397,1.7026,1.7026,0,0,0-1.09716.87117,3.06585,3.06585,0,0,0-.28766,1.31771V392.6744a11.71218,11.71218,0,0,0,.152,2.17381,1.92715,1.92715,0,0,0,.71228,1.204,3.43691,3.43691,0,0,0,1.60809.49174,28.78686,28.78686,0,0,0,2.98606.115c.58215,0,1.18211-.00547,1.80809-.03287q.89609-.04362,1.78479-.174a10.59606,10.59606,0,0,0,1.51083-.34792,2.468,2.468,0,0,0,1.01363-.56708,19.37235,19.37235,0,0,0,2.24229-2.95456,20.65388,20.65388,0,0,0,1.76973-3.2162h1.66289Zm14.04961,8.95547H321.78v-1.3999c.35886-.026.72734-.0589,1.11223-.08766a4.44464,4.44464,0,0,0,.99171-.1726,1.63356,1.63356,0,0,0,.97389-.66569,2.217,2.217,0,0,0,.31916-1.23827V381.82724a2.38246,2.38246,0,0,0-.34244-1.24649,2.78336,2.78336,0,0,0-.95061-.9424,4.353,4.353,0,0,0-1.29032-.43557,10.35867,10.35867,0,0,0-1.54509-.22326v-1.378l8.16376-.46845.32875.29587v17.07128a2.25585,2.25585,0,0,0,.31094,1.23277,1.84534,1.84534,0,0,0,.99992.71638,8.089,8.089,0,0,0,1.00677.31094,7.46633,7.46633,0,0,0,1.09855.15889ZM330.004,368.88029a3.01124,3.01124,0,0,1-5.12155,2.15051,2.68889,2.68889,0,0,1-.87938-1.96424,2.77133,2.77133,0,0,1,.87938-2.03271,2.84365,2.84365,0,0,1,2.07383-.87253,3.0339,3.0339,0,0,1,2.19162.81363,2.56764,2.56764,0,0,1,.8561,1.904m46.54435,29.4402h-11.2731v-1.3999c.35887-.026.71911-.0589,1.08622-.08766a4.45951,4.45951,0,0,0,.97663-.1726,1.62782,1.62782,0,0,0,.96978-.66569,2.1839,2.1839,0,0,0,.32051-1.23827V383.95034a4.83773,4.83773,0,0,0-1.11224-3.4148,3.66,3.66,0,0,0-2.77786-1.19442,7.203,7.203,0,0,0-2.15875.31778,6.90651,6.90651,0,0,0-1.85054.89307,5.6027,5.6027,0,0,0-1.13416,1.004,8.77322,8.77322,0,0,0-.69857.90678V394.5413a2.407,2.407,0,0,0,.2808,1.21908,1.7874,1.7874,0,0,0,.96157.73009,7.40432,7.40432,0,0,0,.97389.289,7.85141,7.85141,0,0,0,1.13826.13834v1.40125h-11.043v-1.40125c.36025-.026.71228-.0589,1.04787-.08766a4.30779,4.30779,0,0,0,.92047-.1726,1.67393,1.67393,0,0,0,.97663-.66569,2.251,2.251,0,0,0,.3123-1.23827V383.95034a4.826,4.826,0,0,0-1.115-3.4148,3.63684,3.63684,0,0,0-2.77375-1.19442,6.91265,6.91265,0,0,0-2.15463.326,7.51246,7.51246,0,0,0-1.85739.90405,5.20951,5.20951,0,0,0-1.14238,1.052c-.30956.39174-.552.68076-.70407.87664v11.99907a2.07442,2.07442,0,0,0,.32875,1.21087,1.95263,1.95263,0,0,0,.98623.7383,5.06406,5.06406,0,0,0,1.004.31916,8.66213,8.66213,0,0,0,1.14785.15067v1.40126H336.95546v-1.40126c.36025-.026.72735-.0589,1.11224-.08766a4.62671,4.62671,0,0,0,.99991-.1726,1.6615,1.6615,0,0,0,.96978-.66569,2.18378,2.18378,0,0,0,.31916-1.23827V381.73822a2.23268,2.23268,0,0,0-.34518-1.22456,3.05413,3.05413,0,0,0-.94376-.92047,4.39717,4.39717,0,0,0-1.104-.41093,7.48113,7.48113,0,0,0-1.36016-.2041v-1.378l7.73638-.46845.32875.29587v2.9943h.15753c.39448-.35613.8739-.77118,1.43551-1.2547a12.90179,12.90179,0,0,1,1.56838-1.167,7.77594,7.77594,0,0,1,2.056-.84789,10.02571,10.02571,0,0,1,2.65734-.33832,6.78213,6.78213,0,0,1,3.87094,1.09443,6.455,6.455,0,0,1,2.3231,2.64362q.83624-.752,1.48756-1.30538a12.11863,12.11863,0,0,1,1.69439-1.204,8.0404,8.0404,0,0,1,2.09846-.89034,10.06111,10.06111,0,0,1,2.68747-.33832,6.21252,6.21252,0,0,1,4.64212,1.7396c1.13552,1.1643,1.7122,2.945,1.7122,5.353v10.63478a2.33911,2.33911,0,0,0,.27806,1.21909,1.73727,1.73727,0,0,0,.96157.73008,6.23755,6.23755,0,0,0,1.06567.289,11.21009,11.21009,0,0,0,1.18211.13834Zm15.081,0H380.45211v-1.3999c.36025-.026.72871-.0589,1.11224-.08766a4.47218,4.47218,0,0,0,.99308-.1726,1.63361,1.63361,0,0,0,.9739-.66569,2.21713,2.21713,0,0,0,.32189-1.23827V381.82721a2.37324,2.37324,0,0,0-.34655-1.24648,2.789,2.789,0,0,0-.94924-.9424,4.36,4.36,0,0,0-1.28757-.43557,10.29885,10.29885,0,0,0-1.54645-.22326v-1.378l8.16238-.46845.32875.29588v17.07128a2.26779,2.26779,0,0,0,.31094,1.23277,1.85555,1.85555,0,0,0,.99992.71638,7.86809,7.86809,0,0,0,1.01089.31094,7.38648,7.38648,0,0,0,1.09307.15889Zm-2.95047-29.43884a3.01121,3.01121,0,0,1-5.12152,2.15051,2.68369,2.68369,0,0,1-.87938-1.96424,2.76608,2.76608,0,0,1,.87938-2.03271,2.85047,2.85047,0,0,1,2.07244-.87253,3.02942,3.02942,0,0,1,2.19162.81363,2.55913,2.55913,0,0,1,.85748,1.904m21.22577,28.52658c-1.015.38353-1.97384.7013-2.87922.96294a12.13055,12.13055,0,0,1-3.3285.39722c-1.93684,0-3.30522-.44517-4.08873-1.33278a5.41252,5.41252,0,0,1-1.18484-3.74491v-14.177H394.2456v-2.03821H398.511v-6.51456h4.27228v6.51456H409.417v2.03821h-6.59265V391.2114a18.93752,18.93752,0,0,0,.11094,2.19572,3.5935,3.5935,0,0,0,.50683,1.53412,2.28674,2.28674,0,0,0,1.11635.93418,5.30525,5.30525,0,0,0,2.019.31916c.39176,0,.967-.0274,1.719-.09314a8.16836,8.16836,0,0,0,1.60811-.24792Zm23.98856-4.01338a11.09365,11.09365,0,0,1-3.89011,3.99009,10.50635,10.50635,0,0,1-5.59958,1.48756,12.42443,12.42443,0,0,1-4.88729-.89034,9.47043,9.47043,0,0,1-3.45863-2.42173,10.01568,10.01568,0,0,1-2.03407-3.56686,13.94484,13.94484,0,0,1-.66159-4.30651,11.75532,11.75532,0,0,1,.71092-4.00243,10.98569,10.98569,0,0,1,2.1053-3.534,10.08269,10.08269,0,0,1,3.31483-2.43,10.37006,10.37006,0,0,1,4.438-.926,11.59541,11.59541,0,0,1,4.338.72324,7.56168,7.56168,0,0,1,2.92716,1.97245,7.69436,7.69436,0,0,1,1.60945,2.80527,11.20848,11.20848,0,0,1,.52871,3.49972v1.404H418.02317a15.04474,15.04474,0,0,0,.43557,3.7326,8.43494,8.43494,0,0,0,1.37524,2.95594,6.35578,6.35578,0,0,0,2.38336,1.93958,8.07565,8.07565,0,0,0,3.52167.7109,7.04641,7.04641,0,0,0,3.60247-.8835,9.06221,9.06221,0,0,0,2.91211-3.17373Zm-5.17768-7.97883a15.25315,15.25315,0,0,0-.22327-2.54911,7.32931,7.32931,0,0,0-.71225-2.27107,4.51734,4.51734,0,0,0-1.47932-1.593,4.326,4.326,0,0,0-2.41627-.615,5.21081,5.21081,0,0,0-4.09146,1.856,8.15984,8.15984,0,0,0-1.76972,5.17221Zm34.32611,12.52232-8.06513.46845-.35339-.29723v-1.956l-.18079-.03973a9.61164,9.61164,0,0,1-3.019,2.02176,9.07206,9.07206,0,0,1-3.68737.78486,9.71825,9.71825,0,0,1-7.00905-3.03948,10.78653,10.78653,0,0,1-2.193-3.52029,12.36506,12.36506,0,0,1-.80815-4.54348,10.93161,10.93161,0,0,1,.86433-4.30925,11.39619,11.39619,0,0,1,2.3916-3.56686,10.617,10.617,0,0,1,3.50386-2.2738,11.08791,11.08791,0,0,1,4.2353-.8465,13.706,13.706,0,0,1,3.17509.36984,11.96848,11.96848,0,0,1,2.67924.94787v-7.28026a3.85533,3.85533,0,0,0-.326-1.62454,2.46073,2.46073,0,0,0-.91224-1.11636,4.99408,4.99408,0,0,0-1.76972-.58763q-1.19322-.18064-2.39845-.26025V365.949l9.44036-.4849.352.31778v28.228a2.31413,2.31413,0,0,0,.32326,1.26839,2.54726,2.54726,0,0,0,.92323.87664,3.00329,3.00329,0,0,0,1.29167.31778c.55885.04109,1.07251.074,1.54236.089v1.378Zm-8.46647-3.67644v-12.2429a4.881,4.881,0,0,0-.60679-1.18758,5.35308,5.35308,0,0,0-1.05608-1.1684,5.8237,5.8237,0,0,0-3.72164-1.23,5.17752,5.17752,0,0,0-2.5902.65748,6.53585,6.53585,0,0,0-2.09849,1.88753,9.10906,9.10906,0,0,0-1.37523,3.02442,15.36793,15.36793,0,0,0-.5068,4.0668,13.02653,13.02653,0,0,0,.37943,3.23948,8.02378,8.02378,0,0,0,1.26153,2.70117,6.238,6.238,0,0,0,2.1053,1.91355,6.08072,6.08072,0,0,0,3.03263.726,5.91622,5.91622,0,0,0,3.10524-.74925,9.38,9.38,0,0,0,2.07106-1.63823"/>
    </g>
  </g>
</svg>
