<svg id="Layer_1" data-name="Layer 1" xmlns="http://www.w3.org/2000/svg" width="512" height="512" viewBox="0 0 512 512">
  <defs>
    <style>
      .cls-1 {
        fill: #0f0f0f;
      }
    </style>
  </defs>
  <g id="layer1">
    <path id="path3256" class="cls-1" d="M355.3584,238.35178v7.28643h7.11472a8.584,8.584,0,0,1,6.31142,3.22627c.93134,1.0431,21.4214,24.27525,21.91314,24.88623s.49187.61813.49187,1.0056v11.51246a8.15078,8.15078,0,0,1-.15714,1.57166,2.511,2.511,0,0,1-1.57894,1.40143,16.26,16.26,0,0,1-2.02715.12673l-7.122-.0088v7.28644h39.951v-7.28644h-7.51783a14.7308,14.7308,0,0,1-2.01261-.12813,2.48122,2.48122,0,0,1-1.57169-1.39995,8.196,8.196,0,0,1-.16306-1.5717V274.75483a1.5646,1.5646,0,0,1,.26783-1.07253l22.16636-25.28787c2.03409-2.26509,3.0925-2.7577,5.75989-2.7577h7.35338V238.3503h-32.925v7.27186h4.96967a1.39332,1.39332,0,0,1,1.19185,2.23528c-.10417.149-13.78463,16.23537-13.95584,16.39194s-.28219.11884-.40892-.05237c-.12673-.17151-13.643-16.33953-13.643-16.33953-.95373-1.16979-.2081-2.23528.90955-2.23528H395.519v-7.27187Z"/>
    <path id="path3254" class="cls-1" d="M257.37208,238.35178v7.28643H263.749c4.60464,0,4.91872,2.56417,4.91872,4.79941v34.10232c0,2.04154.11827,4.84305-2.81735,4.84305h-7.86854v7.27918h33.59735V289.383h-8.19595c-3.27109,0-3.42051-1.4971-3.45771-4.67862V255.48878l46.14308,41.17336h11.7351l-.61847-46.50107c.05972-3.39762.26836-4.53021,3.78509-4.53021h7.35337v-7.27915h-34.274v7.27915h7.52656c3.4572,0,4.0372,1.33378,4.082,4.53021l.4104,24.33467-40.05574-36.144Z"/>
    <path id="path3252" class="cls-1" d="M106.08144,234.686a56.25335,56.25335,0,0,0-22.35265,4.47053c-6.46738,2.89093-11.73517,7.53243-11.73517,15.22919a15.78115,15.78115,0,0,0,4.28425,10.84888c1.8702,1.72864,4.88823,4.66429,12.77128,6.39289,3.52427.74506,11.05725,1.94463,18.56027,2.7344s14.77516,1.49042,17.75547,2.28769c2.36939.60352,6.35506,1.42321,6.35506,5.89373s-4.19434,5.81125-4.92456,6.10184-5.76765,2.60055-14.813,2.60055A62.99031,62.99031,0,0,1,94.3462,288.213a21.33079,21.33079,0,0,1-10.21436-6.82514,11.72067,11.72067,0,0,1-2.12467-6.46712h-8.196V297.87h9.10547v-3.107a1.29647,1.29647,0,0,1,1.96749-1.11763,71.723,71.723,0,0,0,13.32136,4.30607,57.04658,57.04658,0,0,0,13.822,1.72155,58.97354,58.97354,0,0,0,18.52241-2.61506,32.32871,32.32871,0,0,0,11.00461-5.43245,15.0805,15.0805,0,0,0,5.8938-12.07711,16.89855,16.89855,0,0,0-4.76013-11.87774,20.95924,20.95924,0,0,0-5.87192-4.015,43.25373,43.25373,0,0,0-7.24279-2.52634,204.89648,204.89648,0,0,0-20.407-3.107C103.8466,257.471,94.61457,256.703,90.9264,255.563c-1.11762-.35017-3.398-1.42966-3.398-4.0747,0-1.88507,1.04323-3.47986,3.09968-4.76886,3.271-2.049,9.87256-3.32379,16.75722-3.32379a48.60171,48.60171,0,0,1,19.41739,3.7924,21.20608,21.20608,0,0,1,4.61894,2.7577,13.88863,13.88863,0,0,1,4.552,7.61388h7.35485V237.58486h-8.196v2.31676c0,.74509-.74506,1.72894-2.23524.9168a63.07782,63.07782,0,0,0-26.81589-6.13242Z"/>
    <path id="path3237" class="cls-1" d="M204.71681,234.686c-12.91242,0-26.62266,4.46995-34.37155,11.51106a28.61889,28.61889,0,0,0-9.35148,21.22773,28.20148,28.20148,0,0,0,9.35148,21.30193c8.345,7.503,20.86306,11.527,34.37155,11.527,13.53077,0,26.31649-3.97933,34.46031-11.527a29.55019,29.55019,0,0,0,9.22337-21.30193,28.35059,28.35059,0,0,0-9.22337-21.21172c-8.73986-7.92773-20.177-11.527-34.46031-11.527Zm0,8.5234c7.06339,0,13.86587,2.54144,18.44818,7.04922a23.79146,23.79146,0,0,1,6.74944,17.137c0,6.91444-2.10754,12.51749-6.74944,17.137a25.92822,25.92822,0,0,1-18.44818,7.0929c-7.10818,0-13.89649-2.52549-18.47877-7.0929a25.25016,25.25016,0,0,1,0-34.274C190.82032,245.72848,197.65341,243.2094,204.71681,243.2094Z"/>
  </g>
</svg>
