<svg id="f5c28e3e-45d4-461e-8383-04653d878602" data-name="Layer 1" xmlns="http://www.w3.org/2000/svg" width="512" height="512" viewBox="0 0 512 512">
  <defs>
    <style>
      .afdd6c99-dd64-4eb7-8710-f7b25596db60 {
        fill: #1b69b2;
      }
    </style>
  </defs>
  <g id="aebe64b7-c112-4157-be6c-5831adfbe9fc" data-name="#1b69b2ff">
    <path class="afdd6c99-dd64-4eb7-8710-f7b25596db60" d="M311.39555,234.10172c4.85279-.56428,10.07238.59249,13.72811,3.97414,4.0749,3.559,6.02167,8.9801,6.41262,14.26417a33.97706,33.97706,0,0,1-1.12855,13.12756c-1.43892,4.66337-4.57065,9.0325-9.11311,11.06391a20.18136,20.18136,0,0,1-12.90588.76581,15.93574,15.93574,0,0,1-10.09657-8.79067c-2.55539-5.36066-2.86169-11.51936-2.16441-17.33547a20.99327,20.99327,0,0,1,6.48116-13.454,15.37076,15.37076,0,0,1,8.78663-3.61541m.27407,7.48073c-4.01848.7779-6.79149,4.53036-7.52909,8.39164a27.38881,27.38881,0,0,0,.4756,13.49837c1.15677,3.44614,4.083,6.52952,7.7951,7.0414a9.22619,9.22619,0,0,0,9.44365-4.70367c1.96288-3.57511,2.22082-7.79109,2.07572-11.78538-.266-3.44613-.87059-7.1865-3.36955-9.77413A9.17777,9.17777,0,0,0,311.66962,241.58245Z"/>
    <path class="afdd6c99-dd64-4eb7-8710-f7b25596db60" d="M57.93735,234.06544q22.37569,0,44.74333-.00806c-.04031,4.39332.0927,8.79067-.06852,13.17592-4.30465-.0927-8.61735-.02015-12.926-.03627.00806,10.26586-.01612,20.53171.01209,30.80159-6.23126.02016-12.45848-.01209-18.68974.01613-.0403-10.27392,0-20.54784-.02015-30.82175q-6.52347,0-13.04292,0C57.93735,242.8158,57.94541,238.44264,57.93735,234.06544Z"/>
    <path class="afdd6c99-dd64-4eb7-8710-f7b25596db60" d="M115.381,234.06544q9.70358.006,19.40718,0,9.01435,21.98271,18.02469,43.96946c-6.02166-.06449-12.04736-.02822-18.07306-.02015-3.2043-8.60526-6.324-17.24277-9.5202-25.85206-3.25669,8.55689-6.23932,17.22261-9.37107,25.8319-5.96121.02822-11.92242-.00806-17.88363.01613C103.70847,263.33945,109.5931,248.72058,115.381,234.06544Z"/>
    <path class="afdd6c99-dd64-4eb7-8710-f7b25596db60" d="M148.59287,247.22524c-.1451-4.38525-.02418-8.77857-.06046-13.16786,14.88892.02821,29.7738.004,44.65868.01209q-.006,6.55976-.004,13.1195-6.3542.006-12.70435,0-.03023,15.41088-.004,30.82175-9.32875-.01815-18.65347,0c0-10.27795.03628-20.5559-.02015-30.82981C157.39966,247.22927,152.99425,247.1406,148.59287,247.22524Z"/>
    <path class="afdd6c99-dd64-4eb7-8710-f7b25596db60" d="M188.48339,277.9825c5.87254-14.61886,11.63625-29.28207,17.47654-43.909q9.69754-.01209,19.387-.004c6.04988,14.631,12.01512,29.29417,18.04888,43.92915-6.04585-.01612-12.09572.05643-18.13755-.03224-3.11562-8.61332-6.3159-17.19037-9.45168-25.79563a7.39137,7.39137,0,0,0-.44336.93912q-4.48,12.44841-8.968,24.89279C200.42193,277.99056,194.45266,278.0349,188.48339,277.9825Z"/>
    <path class="afdd6c99-dd64-4eb7-8710-f7b25596db60" d="M262.84736,234.62569c6.44487.03224,12.90185-.16525,19.33061.38693,3.67184.36679,6.67058,3.22446,7.98052,6.55774a18.84721,18.84721,0,0,1,.5804,10.61248c-.89883,3.71215-3.54288,7.28727-7.37192,8.27879-4.25628,1.04391-8.67377.70938-13.01066.76984,0,5.36871-.00807,10.73743.004,16.10614-2.507.02418-5.01.00806-7.513.01209v-42.724m7.509,7.32757c-.00807,4.00638,0,8.01277,0,12.01512,2.68435.004,5.37676.04434,8.05306-.17734a5.34271,5.34271,0,0,0,4.083-2.34982,7.11645,7.11645,0,0,0,.81418-5.05031A5.13871,5.13871,0,0,0,279.018,242.187,71.37494,71.37494,0,0,0,270.35631,241.95326Z"/>
    <path class="afdd6c99-dd64-4eb7-8710-f7b25596db60" d="M333.90222,234.62569h7.65407c1.89435,9.65321,3.55494,19.36285,5.57829,28.98381,2.2531-9.65724,4.46588-19.32657,6.727-28.98381h8.8995c2.12008,9.83861,4.29657,19.66514,6.42472,29.50375,2.05962-9.79831,3.80083-19.6732,5.72341-29.49972,2.511-.004,5.02611-.01209,7.53715.00806-2.99068,14.244-5.96927,28.49208-9.03653,42.71595-2.61987,0-5.2357-.02418-7.85557.01613-2.57957-10.56412-4.89312-21.19676-7.44848-31.76894q-3.63357,15.8764-7.30742,31.74878H342.701C339.81909,263.09762,336.75184,248.88181,333.90222,234.62569Z"/>
    <path class="afdd6c99-dd64-4eb7-8710-f7b25596db60" d="M386.18272,234.62569q13.77848,0,27.561.004v7.32354c-6.67865-.00806-13.35731.00806-20.036-.00806-.04029,3.11563-.01611,6.23529-.01208,9.35092q9.3348.01209,18.66959-.004c.03223,2.39416.01208,4.78832.01208,7.18248q-9.34084.006-18.68167.004-.01815,5.77379,0,11.54757,10.3505-.006,20.697,0,.006,3.65774.004,7.32354h-28.214Z"/>
    <path class="afdd6c99-dd64-4eb7-8710-f7b25596db60" d="M420.69243,234.62972q7.72662-.01209,15.45321-.004c3.2446.29826,6.73506-.02821,9.68544,1.6082a11.23262,11.23262,0,0,1,5.07046,9.31464c.22168,3.43-.4756,7.18247-2.99874,9.68948a12.2613,12.2613,0,0,1-6.56579,3.28491c4.34091,2.7811,6.52549,7.61374,8.94383,11.95466,1.24947,2.28937,2.46267,4.59888,3.73632,6.87615-2.9826-.00806-5.96927,0-8.95187-.004-3.18013-5.16718-5.933-10.60845-9.41946-15.57814-1.66864-2.43043-4.86086-2.30549-7.47266-2.30549q-.00606,8.94181-.004,17.8796-3.73633.006-7.4767,0V234.62972m7.48074,7.32354q-.00606,5.36872,0,10.73743c3.8774-.0927,7.79916.258,11.64834-.35872,2.95843-.60458,3.96607-4.24822,3.20431-6.83987a4.47706,4.47706,0,0,0-4.39333-3.4542C435.146,241.86056,431.65962,241.99357,428.17317,241.95326Z"/>
  </g>
</svg>
