<svg id="Layer_1" data-name="Layer 1" xmlns="http://www.w3.org/2000/svg" width="512" height="512" viewBox="0 0 512 512">
  <defs>
    <style>
      .cls-1 {
        fill: #486aae;
        fill-rule: evenodd;
      }
    </style>
  </defs>
  <path class="cls-1" d="M463.16807,209.1745a129.36261,129.36261,0,0,0-20.60544-29.27081c-19.18021-20.70156-46.24179-37.92792-78.267-49.809-32.28877-11.973-69.11688-18.30833-106.54227-18.30833s-74.25349,6.33528-106.52581,18.30833C119.186,141.97714,92.123,159.2035,72.94282,179.90369a129.51086,129.51086,0,0,0-20.62055,29.28866C94.01511,199.11,165.333,185.79822,231.55275,184.39085c6.38745-.1373,10.78535,1.90855,13.68114,5.57873,3.52738,4.46929,3.26239,20.40087,3.17588,27.52839l-1.88246,184.22291c3.72922.12357,7.4763.20321,11.2261.20321,3.78139,0,7.54906-.06179,11.27828-.18536l-1.88246-184.24214c-.09748-7.12616-.37073-23.0591,3.169-27.52839,2.90264-3.6688,7.28544-5.71467,13.67152-5.57873,66.19225,1.3964,137.49369,14.71092,179.17831,24.785"/>
  <path class="cls-1" d="M472.06959,233.13158c-61.02137-13.79509-101.77228-16.34623-141.98084-18.57745-35.04863-1.94836-35.50585,10.567-32.00731,34.4843.22931,1.45956.51076,3.29945.84443,5.39748,11.7561,69.63042,26.39565,129.55056,28.91109,139.7208C413.28224,374.625,474.90361,320.473,474.90361,256.85935a101.60408,101.60408,0,0,0-2.834-23.72777"/>
  <path class="cls-1" d="M217.45831,249.03843c3.50266-23.91589,3.05368-36.43266-31.99082-34.4843-40.22231,2.23122-80.98283,4.781-142.02753,18.58569A101.60287,101.60287,0,0,0,40.595,256.858c0,27.49408,11.1849,54.0984,32.34919,76.95566,19.18022,20.70156,46.24315,37.92793,78.28478,49.81721a282.44634,282.44634,0,0,0,36.4409,10.62746c2.36578-9.52762,17.3417-70.69452,29.2255-141.5703.21969-1.35795.42292-2.61155.563-3.64959"/>
</svg>
