<svg id="a4035342-5e12-4dec-b0ea-82b7ef154c08" data-name="Layer 1" xmlns="http://www.w3.org/2000/svg" width="512" height="512" viewBox="0 0 512 512">
  <defs>
    <style>
      .a3b05f22-7cba-4339-916c-434b24015ee8 {
        fill: #fdfdfd;
      }

      .b95586a4-5888-4c6c-8b75-23bdd13ecd6d {
        fill: #242020;
      }

      .bddde00a-d4d5-40e5-9c28-0eb801821431 {
        fill: #19c0e1;
      }

      .a8c27178-5fc5-4b91-a518-71652854c1a5 {
        fill: #18c0e1;
      }
    </style>
  </defs>
  <g id="ebf75c44-5cd3-4ba7-9a89-5d5ed6b60073" data-name="Layer 1-2">
    <path class="a3b05f22-7cba-4339-916c-434b24015ee8" d="M86.45841,233.09062c-.04044,1.35242-.04493,2.70933,0,4.06174.03594,1.09181-.40887,1.56359-1.51866,1.54112-2.08029-.03594-4.16508.05392-6.24087-.03145-1.21762-.05392-1.52765.39539-1.52765,1.55909q.05393,19.03264.02247,38.0563c0,2.05783-.08537,2.14319-2.1387,2.14769q-2.44649,0-4.884-.0045c-1.84665,0-1.98144-.13479-1.98144-2.03536q-.00675-9.48263,0-18.96075c0-6.32175-.03595-12.73336.027-19.09554.009-1.32995-.41337-1.73882-1.72085-1.67142-1.98594.10334-3.98086-.0045-5.9668.04043-1.09181.02247-1.58605-.43582-1.57257-1.51865.018-1.35242.02247-2.70932-.00449-4.06174-.018-1.06485.43583-1.56359,1.54112-1.55909q12.20543.02022,24.41534,0C85.98214,231.55849,86.48986,231.98084,86.45841,233.09062Z"/>
    <path class="a3b05f22-7cba-4339-916c-434b24015ee8" d="M99.65006,240.05488q.08088,5.01427,0,10.02853c-.02247,1.10979.40438,1.38387,1.43329,1.3614,2.44423-.0629,4.88846.01348,7.32819-.03595,1.11429-.02695,1.58156.44033,1.57707,1.50518-.009,1.312-.03145,2.61946.0045,3.93144.03594,1.19515-.46279,1.72983-1.6894,1.70736-2.43974-.04043-4.884.03145-7.32819-.03145-1.002-.02246-1.33894.28307-1.32546,1.30749q.07415,5.9578,0,11.92011c-.01348,1.05587.40887,1.30748,1.3614,1.29849,3.71128-.03594,7.41806-.018,11.12933-.01348,1.64.0045,1.78824.15277,1.79274,1.78375.009,1.39735-.009,2.79919.009,4.201.009.95253-.41786,1.41083-1.38836,1.40633q-10.24419-.00673-20.48839.0045c-1.36589,0-1.47822-.85369-1.47373-1.90506q.02022-11.24841.0045-22.49231,0-11.2484.00449-22.49679c0-1.75679.20219-1.968,1.932-1.968q9.77242-.00673,19.54485,0c1.604,0,1.83318.22016,1.85564,1.77476.018,1.17269.009,2.34988,0,3.52257-.0045,1.631-.18422,1.8152-1.77027,1.8152-3.70678.009-7.41806.04493-11.12934-.02247C99.93761,238.63956,99.63658,239.008,99.65006,240.05488Z"/>
    <path class="a3b05f22-7cba-4339-916c-434b24015ee8" d="M148.25159,278.66382q-4.44141-22.86073-8.87382-45.73045a1.43682,1.43682,0,0,0-1.64446-1.37488c-1.4917.027-2.9834.009-4.4751.009q-1.83318-.00673-3.66635-.00449c-2.278.00449-2.25552.009-2.68685,2.242q-2.93847,15.10345-5.8949,30.2114-1.37489,7.02267-2.74527,14.04533c-.37742,1.96348-.04044,2.35886,1.90955,2.36336,1.62649,0,3.25748-.04943,4.884.01348,1.13674.04493,1.73881-.301,1.932-1.51866.42235-2.66888,1.01993-5.30631,1.44228-7.9707.14378-.87615.50322-1.12327,1.321-1.10979,2.12522.03594,4.25494.08087,6.38016-.01348,1.13674-.04942,1.47821.43133,1.631,1.44228.39989,2.624.90311,5.23442,1.321,7.85837a1.339,1.339,0,0,0,1.54561,1.303c2.08479-.02695,4.16508.01348,6.24537-.01348C148.07187,280.39815,148.48523,279.85449,148.25159,278.66382Zm-13.56008-15.83357h-1.631c-3.39227,0-3.33835.009-2.76323-3.42372.80425-4.7941,1.52764-9.60169,2.27349-14.40927.05841-.39989.018-.91659.52569-.957.66048-.04942.56163.55265.62453.975.80876,5.38719,1.62649,10.77438,2.40829,16.16606C136.36742,262.82126,136.32249,262.82576,134.69151,262.83025Z"/>
    <path class="a3b05f22-7cba-4339-916c-434b24015ee8" d="M170.58214,246.32721a27.535,27.535,0,0,0-.20669-5.54c-.45829-2.278-1.968-3.4372-4.48858-3.38777-2.43075.04942-3.92694,1.25806-4.25493,3.49561a16.75551,16.75551,0,0,0-.18422,2.42176q-.02022,12.73111-.00449,25.46672c.00449.53916.08087,1.07833.10334,1.6175.1258,3.59,3.04181,4.83454,6.1555,4.00332a3.63523,3.63523,0,0,0,2.6599-3.10022,34.6346,34.6346,0,0,0,.21117-6.75308c-.00449-1.24907.46279-1.70737,1.67591-1.68041,1.941.04943,3.88651.04044,5.832.0045,1.1682-.018,1.77925.40438,1.72984,1.65794-.09435,2.606.17972,5.221-.48076,7.80446a11.48436,11.48436,0,0,1-9.77243,8.87382,21.09216,21.09216,0,0,1-7.54836-.09436c-6.33523-1.33893-9.62865-5.60286-9.66459-12.45479-.02695-4.33581,0-8.67162,0-13.00294s.10334-8.31667-.02695-12.46377c-.22017-7.27428,4.36726-11.87968,11.68647-12.5761a19.17769,19.17769,0,0,1,6.9957.4538,11.49732,11.49732,0,0,1,8.79743,10.85076c.0629,1.4872,0,2.9834.01347,4.4706a1.251,1.251,0,0,1-1.40633,1.42431c-2.12523.009-4.25044,0-6.37566.00449-1.01095,0-1.44228-.4538-1.44228-1.49619Z"/>
    <path class="a3b05f22-7cba-4339-916c-434b24015ee8" d="M213.29774,233.11758q-.02022,22.75965-.018,45.52827c0,1.50967-.319,1.77027-1.88709,1.77476q-2.64193.01348-5.29283,0c-1.5546-.00449-1.81521-.2561-1.81521-1.8107-.0045-6.142-.03145-12.28405.02246-18.42608.009-1.15921-.25161-1.613-1.4917-1.55011a58.82141,58.82141,0,0,1-5.97129,0c-1.11877-.04942-1.37488.355-1.37038,1.39285.03593,6.142.02246,12.28406.018,18.42608,0,1.74781-.21117,1.96347-1.923,1.968-1.71636.0045-3.4372.0045-5.15355,0-1.631-.00449-1.86462-.22465-1.86912-1.89607-.01348-3.34285-.0045-6.68569-.0045-10.02853V255.893q0-11.10687,0-22.22272c0-1.95448.15277-2.10275,2.0713-2.10275,1.72084-.0045,3.4372.04493,5.15805-.018,1.303-.04493,1.74781.51221,1.73881,1.77926-.04043,5.5085.01348,11.0215-.04043,16.53-.01348,1.22661.3235,1.6849,1.60851,1.61751,1.93651-.10784,3.891-.08537,5.832-.009,1.08283.04044,1.40184-.328,1.39285-1.39735-.04493-5.5085-.02246-11.02149-.02246-16.53.0045-1.78824.17074-1.96347,1.923-1.97245,1.8107-.009,3.62141.02695,5.42762-.01348,1.11877-.027,1.66692.36843,1.66692,1.56358Z"/>
    <path class="a3b05f22-7cba-4339-916c-434b24015ee8" d="M245.48609,233.46355c0,1.12776.009,2.26,0,3.38777-.018,1.54562-.292,1.82868-1.80621,1.82868-3.70678.009-7.41356.03145-11.12034-.01348-1.06486-.01348-1.43329.34148-1.41531,1.40633.04941,3.33835.04493,6.6812.00449,10.01955-.01348,1.00195.35046,1.36589,1.34792,1.34792,2.3948-.04943,4.79411.02246,7.18891-.03145,1.26256-.03145,1.85564.41336,1.80173,1.71635-.04942,1.30748-.02246,2.61946-.009,3.92694.009,1.01993-.48076,1.46474-1.50069,1.45576-2.30494-.02247-4.60989-.009-6.91484-.009a1.65745,1.65745,0,0,0-1.90057,1.83766q0,9.00411,0,18.00823c0,1.89607-.18871,2.07579-2.11175,2.07579-1.62649.0045-3.253.009-4.87946,0-1.66244-.009-1.99493-.3235-1.99493-1.968q-.00673-11.30905,0-22.61811c0-7.53937-.00449-14.80466,0-22.20924,0-1.82418.1932-2.01739,2.01739-2.01739q9.6983-.00673,19.39657,0C245.27942,231.61241,245.47711,231.8146,245.48609,233.46355Z"/>
    <path class="a3b05f22-7cba-4339-916c-434b24015ee8" d="M275.92214,255.72671c0-4.33581.027-8.67163-.009-13.00744-.05392-6.133-3.5675-10.47784-9.52082-11.78981a21.71642,21.71642,0,0,0-7.67865-.10784,11.34159,11.34159,0,0,0-10.21275,11.2821c-.07189,9.12093-.10335,18.24635.04493,27.36279.07189,4.37625,1.76578,8.08753,5.83649,10.32507a14.6866,14.6866,0,0,0,6.38017,1.604c4.46161.24712,8.67611-.3909,11.94707-3.84607,2.40828-2.54757,3.14964-5.72416,3.19456-9.08948C275.96257,264.21412,275.92214,259.96816,275.92214,255.72671Zm-9.24225,14.243c-.03594,4.14261-3.23052,5.28385-6.16,4.47509a3.66106,3.66106,0,0,1-2.78571-3.4327,27.61464,27.61464,0,0,1-.18871-3.10471q-.02022-12.51545-.0045-25.03538a9.6763,9.6763,0,0,1,.13478-1.60852c.49873-2.88455,2.09378-4.12015,5.01427-3.89549,2.42626.18421,3.96289,1.88259,3.98535,4.58742.04493,4.69076.01348,9.386.01348,14.07679s.03594,9.29166-.009,13.9375Z"/>
    <path class="a3b05f22-7cba-4339-916c-434b24015ee8" d="M311.10738,277.84159c-1.81969-6.26783-3.61692-12.54015-5.47256-18.799a1.51831,1.51831,0,0,1,.665-2.02637,9.48246,9.48246,0,0,0,3.90447-5.65678,23.689,23.689,0,0,0,.355-9.92069,10.82674,10.82674,0,0,0-3.5675-7.08557,12.80506,12.80506,0,0,0-8.06956-2.68686c-4.33583-.12131-8.68062-.05392-13.02092-.05841-1.8826,0-2.0758.1932-2.0758,2.12522q-.00675,11.10687,0,22.21374v5.14456q0,8.66714,0,17.33426c.0045,1.72085.27407,1.99043,1.941,1.99492q2.58126.01348,5.15355,0c1.65345-.00449,1.86014-.21566,1.86014-1.89158q.00675-8.39754.0045-16.79509c0-1.82419.05841-1.87361,1.93651-1.8781a7.01542,7.01542,0,0,0,.81324,0c1.10081-.14378,1.57707.328,1.86014,1.41531,1.55461,5.96231,3.21256,11.90214,4.78513,17.86a1.50391,1.50391,0,0,0,1.72085,1.30749c1.76128-.04044,3.527-.009,5.28835-.009,2.22408-.00449,2.54307-.43133,1.91855-2.58351Zm-9.75894-28.3917a4.0512,4.0512,0,0,1-3.67532,3.26646c-4.39424.76382-4.88847.37293-4.88847-3.98086V245.6173c0-1.85114.04492-3.70229-.018-5.55343-.03595-1.08733.40439-1.46025,1.44229-1.39285.90311.0629,1.81072-.009,2.7138.04493,2.7228.14827,4.04376,1.24008,4.565,3.891A16.57384,16.57384,0,0,1,301.34844,249.44989Z"/>
    <path class="a3b05f22-7cba-4339-916c-434b24015ee8" d="M327.21951,233.32426q-.04043,22.62486-.018,45.2497c0,1.63548-.22015,1.84216-1.90506,1.84665-1.85114.009-3.70678-.04043-5.55792.018-1.31647.04493-1.73881-.53468-1.73432-1.78825.03146-7.58429.0135-15.17309.0135-22.75739s0-14.90351.00449-22.353c0-1.79273.16624-1.968,1.90956-1.97246,1.85564-.009,3.71128.04044,5.56242-.018,1.303-.04044,1.72982.50772,1.72535,1.77476Z"/>
    <path class="a3b05f22-7cba-4339-916c-434b24015ee8" d="M364.485,233.6927q.00675,11.181,0,22.35751,0,11.181,0,22.362c0,1.86912-.14378,2.0084-2.01289,2.0084-1.58606.0045-3.1721-.0674-4.74917.027a2.02124,2.02124,0,0,1-2.30495-1.52765c-3.01036-7.60676-6.0971-15.18208-9.15238-22.76638-.23815-.58409-.4538-1.17269-.70541-1.7478-.11683-.27857-.1977-.61555-.638-.56163-.50322.0629-.50322.43133-.52119.79527-.009.31452,0,.63352,0,.948q0,11.45058-.00449,22.90117c0,1.77476-.16625,1.932-1.959,1.932-1.58156.0045-3.1676-.03594-4.74917.01348-1.24459.04044-1.70736-.56163-1.70287-1.71635.0135-2.57453.0045-5.14906.0045-7.72359V233.72864c0-1.98144.17973-2.16117,2.17016-2.16117,1.53662-.00449,3.07774.04044,4.61439-.018a1.71027,1.71027,0,0,1,1.8781,1.32546c3.3024,8.59973,6.65424,17.177,9.99258,25.76325.11683.29655.21116.59309.33249.88514a.57515.57515,0,0,0,.656.355c.3819-.03594.37294-.328.3864-.59758.01349-.31451,0-.63352,0-.948V233.67023c0-1.93651.15725-2.09826,2.0758-2.10276q2.10275-.00673,4.2055,0c2.0713,0,2.17913.10334,2.17913,2.12523Z"/>
    <path class="a3b05f22-7cba-4339-916c-434b24015ee8" d="M400.49249,242.08126c-.47177-4.29088-2.46219-7.5888-6.61828-9.28268a14.88335,14.88335,0,0,0-5.39618-1.14124c-4.34029-.0674-8.68061-.07189-13.02091-.08987-1.77926-.00449-2.00391.23364-2.00391,2.04884q-.00675,11.17426-.0045,22.34853,0,10.29138,0,20.58724c-.009,4.26842-.26061,3.92245,3.85956,3.85955,4.42566-.0674,8.86032.28756,13.27251-.26509,5.89491-.73237,9.4714-4.529,9.94317-10.46885.37293-4.7312.16174-9.47139.16624-14.20709C400.69019,251.009,400.98225,246.5294,400.49249,242.08126ZM391.44794,268.505c-.04942,3.36531-1.58606,4.60539-4.99179,4.62337q-4.05277.02246-4.05276-3.99434V240.70638c0-1.83318.0045-1.85564,1.8871-1.8197a14.49056,14.49056,0,0,1,2.68684.21567c3.07327.64251,4.44365,2.08029,4.47958,5.17152.08537,8.07405.10333,16.15259-.009,24.23112Z"/>
    <path class="a3b05f22-7cba-4339-916c-434b24015ee8" d="M417.86718,233.54892v44.96663c0,1.65345-.24261,1.90057-1.86014,1.90506-1.76127.009-3.527.0045-5.28835,0-1.8691,0-2.03537-.16175-2.03537-1.99042V233.46355c.0045-1.69389.1932-1.88709,1.84665-1.89608q2.71608-.01347,5.42763,0c1.72535.0045,1.90955.19321,1.90955,1.98145Z"/>
    <path class="a3b05f22-7cba-4339-916c-434b24015ee8" d="M452.958,278.82108c-.07637-.39988-.14378-.79977-.22465-1.19516q-1.94776-10.069-3.9-20.13344-2.35212-12.19194-4.68627-24.37939a1.63519,1.63519,0,0,0-1.91855-1.56808c-2.89354.06739-5.78708.05841-8.68061,0-1.14573-.02247-1.59054.48974-1.79273,1.53663q-4.42119,22.77986-8.87831,45.55522c-.23815,1.2356.1842,1.76578,1.47821,1.77926,1.80622.02246,3.61691-.04943,5.42313.02695,1.24459.04943,1.77927-.4493,1.968-1.66692.3909-2.57453.90761-5.13558,1.34792-7.70562.13929-.81774.44481-1.267,1.40633-1.24009,2.21059.0674,4.42567.04044,6.64077.01348.76833-.01348,1.12327.22466,1.24909,1.0379.39539,2.61946.90311,5.22544,1.30747,7.84939.17974,1.15472.629,1.8197,1.92752,1.70737.94353-.08087,1.89606-.01348,2.84862-.01348q1.55683-.00673,3.11819,0C452.67947,280.4251,453.16023,279.91289,452.958,278.82108Zm-13.52413-15.99083h-1.76577c-3.06877,0-3.11819-.009-2.68685-3.01485.70092-4.857,1.46475-9.705,2.251-14.54856.0674-.44032-.08537-1.29849.683-1.22661.6515.06291.53018.84021.60655,1.35242.79978,5.25239,1.58157,10.50479,2.38582,15.7527C441.1458,262.6685,441.03347,262.82575,439.43391,262.83025Z"/>
    <path class="b95586a4-5888-4c6c-8b75-23bdd13ecd6d" d="M364.485,233.6927q.00675,11.181,0,22.35751,0,11.181,0,22.362c0,1.86912-.14378,2.0084-2.01289,2.0084-1.58606.0045-3.1721-.0674-4.74917.027a2.02124,2.02124,0,0,1-2.30495-1.52765c-3.01036-7.60676-6.0971-15.18208-9.15238-22.76638-.23815-.58409-.4538-1.17269-.70541-1.7478-.11683-.27857-.1977-.61555-.638-.56163-.50322.0629-.50322.43133-.52119.79527-.009.31452,0,.63352,0,.948q0,11.45058-.00449,22.90117c0,1.77476-.16625,1.932-1.959,1.932-1.58156.0045-3.1676-.03594-4.74917.01348-1.24459.04044-1.70736-.56163-1.70287-1.71635.0135-2.57453.0045-5.14906.0045-7.72359V233.72864c0-1.98144.17973-2.16117,2.17016-2.16117,1.53662-.00449,3.07774.04044,4.61439-.018a1.71027,1.71027,0,0,1,1.8781,1.32546c3.3024,8.59973,6.65424,17.177,9.99258,25.76325.11683.29655.21116.59309.33249.88514a.57515.57515,0,0,0,.656.355c.3819-.03594.37294-.328.3864-.59758.01349-.31451,0-.63352,0-.948V233.67023c0-1.93651.15725-2.09826,2.0758-2.10276q2.10275-.00673,4.2055,0c2.0713,0,2.17913.10334,2.17913,2.12523Z"/>
    <path class="b95586a4-5888-4c6c-8b75-23bdd13ecd6d" d="M400.49249,242.08126c-.47177-4.29088-2.46219-7.5888-6.61828-9.28268a14.88335,14.88335,0,0,0-5.39618-1.14124c-4.34029-.0674-8.68061-.07189-13.02091-.08987-1.77926-.00449-2.00391.23364-2.00391,2.04884q-.00675,11.17426-.0045,22.34853,0,10.29138,0,20.58724c-.009,4.26842-.26061,3.92245,3.85956,3.85955,4.42566-.0674,8.86032.28756,13.27251-.26509,5.89491-.73237,9.4714-4.529,9.94317-10.46885.37293-4.7312.16174-9.47139.16624-14.20709C400.69019,251.009,400.98225,246.5294,400.49249,242.08126ZM391.44794,268.505c-.04942,3.36531-1.58606,4.60539-4.99179,4.62337q-4.05277.02246-4.05276-3.99434V240.70638c0-1.83318.0045-1.85564,1.8871-1.8197a14.49056,14.49056,0,0,1,2.68684.21567c3.07327.64251,4.44365,2.08029,4.47958,5.17152.08537,8.07405.10333,16.15259-.009,24.23112Z"/>
    <path class="bddde00a-d4d5-40e5-9c28-0eb801821431" d="M311.10738,277.84159c-1.81969-6.26783-3.61692-12.54015-5.47256-18.799a1.51831,1.51831,0,0,1,.665-2.02637,9.48246,9.48246,0,0,0,3.90447-5.65678,23.689,23.689,0,0,0,.355-9.92069,10.82674,10.82674,0,0,0-3.5675-7.08557,12.80506,12.80506,0,0,0-8.06956-2.68686c-4.33583-.12131-8.68062-.05392-13.02092-.05841-1.8826,0-2.0758.1932-2.0758,2.12522q-.00675,11.10687,0,22.21374v5.14456q0,8.66714,0,17.33426c.0045,1.72085.27407,1.99043,1.941,1.99492q2.58126.01348,5.15355,0c1.65345-.00449,1.86014-.21566,1.86014-1.89158q.00675-8.39754.0045-16.79509c0-1.82419.05841-1.87361,1.93651-1.8781a7.01542,7.01542,0,0,0,.81324,0c1.10081-.14378,1.57707.328,1.86014,1.41531,1.55461,5.96231,3.21256,11.90214,4.78513,17.86a1.50391,1.50391,0,0,0,1.72085,1.30749c1.76128-.04044,3.527-.009,5.28835-.009,2.22408-.00449,2.54307-.43133,1.91855-2.58351Zm-9.75894-28.3917a4.0512,4.0512,0,0,1-3.67532,3.26646c-4.39424.76382-4.88847.37293-4.88847-3.98086V245.6173c0-1.85114.04492-3.70229-.018-5.55343-.03595-1.08733.40439-1.46025,1.44229-1.39285.90311.0629,1.81072-.009,2.7138.04493,2.7228.14827,4.04376,1.24008,4.565,3.891A16.57384,16.57384,0,0,1,301.34844,249.44989Z"/>
    <path class="bddde00a-d4d5-40e5-9c28-0eb801821431" d="M275.92214,255.72671c0-4.33581.027-8.67163-.009-13.00744-.05392-6.133-3.5675-10.47784-9.52082-11.78981a21.71642,21.71642,0,0,0-7.67865-.10784,11.34159,11.34159,0,0,0-10.21275,11.2821c-.07189,9.12093-.10335,18.24635.04493,27.36279.07189,4.37625,1.76578,8.08753,5.83649,10.32507a14.6866,14.6866,0,0,0,6.38017,1.604c4.46161.24712,8.67611-.3909,11.94707-3.84607,2.40828-2.54757,3.14964-5.72416,3.19456-9.08948C275.96257,264.21412,275.92214,259.96816,275.92214,255.72671Zm-9.24225,14.243c-.03594,4.14261-3.23052,5.28385-6.16,4.47509a3.66106,3.66106,0,0,1-2.78571-3.4327,27.61464,27.61464,0,0,1-.18871-3.10471q-.02022-12.51545-.0045-25.03538a9.6763,9.6763,0,0,1,.13478-1.60852c.49873-2.88455,2.09378-4.12015,5.01427-3.89549,2.42626.18421,3.96289,1.88259,3.98535,4.58742.04493,4.69076.01348,9.386.01348,14.07679s.03594,9.29166-.009,13.9375Z"/>
    <path class="b95586a4-5888-4c6c-8b75-23bdd13ecd6d" d="M213.29774,233.11758q-.02022,22.75965-.018,45.52827c0,1.50967-.319,1.77027-1.88709,1.77476q-2.64193.01348-5.29283,0c-1.5546-.00449-1.81521-.2561-1.81521-1.8107-.0045-6.142-.03145-12.28405.02246-18.42608.009-1.15921-.25161-1.613-1.4917-1.55011a58.82141,58.82141,0,0,1-5.97129,0c-1.11877-.04942-1.37488.355-1.37038,1.39285.03593,6.142.02246,12.28406.018,18.42608,0,1.74781-.21117,1.96347-1.923,1.968-1.71636.0045-3.4372.0045-5.15355,0-1.631-.00449-1.86462-.22465-1.86912-1.89607-.01348-3.34285-.0045-6.68569-.0045-10.02853V255.893q0-11.10687,0-22.22272c0-1.95448.15277-2.10275,2.0713-2.10275,1.72084-.0045,3.4372.04493,5.15805-.018,1.303-.04493,1.74781.51221,1.73881,1.77926-.04043,5.5085.01348,11.0215-.04043,16.53-.01348,1.22661.3235,1.6849,1.60851,1.61751,1.93651-.10784,3.891-.08537,5.832-.009,1.08283.04044,1.40184-.328,1.39285-1.39735-.04493-5.5085-.02246-11.02149-.02246-16.53.0045-1.78824.17074-1.96347,1.923-1.97245,1.8107-.009,3.62141.02695,5.42762-.01348,1.11877-.027,1.66692.36843,1.66692,1.56358Z"/>
    <path class="b95586a4-5888-4c6c-8b75-23bdd13ecd6d" d="M148.25159,278.66382q-4.44141-22.86073-8.87382-45.73045a1.43682,1.43682,0,0,0-1.64446-1.37488c-1.4917.027-2.9834.009-4.4751.009q-1.83318-.00673-3.66635-.00449c-2.278.00449-2.25552.009-2.68685,2.242q-2.93847,15.10345-5.8949,30.2114-1.37489,7.02267-2.74527,14.04533c-.37742,1.96348-.04044,2.35886,1.90955,2.36336,1.62649,0,3.25748-.04943,4.884.01348,1.13674.04493,1.73881-.301,1.932-1.51866.42235-2.66888,1.01993-5.30631,1.44228-7.9707.14378-.87615.50322-1.12327,1.321-1.10979,2.12522.03594,4.25494.08087,6.38016-.01348,1.13674-.04942,1.47821.43133,1.631,1.44228.39989,2.624.90311,5.23442,1.321,7.85837a1.339,1.339,0,0,0,1.54561,1.303c2.08479-.02695,4.16508.01348,6.24537-.01348C148.07187,280.39815,148.48523,279.85449,148.25159,278.66382Zm-13.56008-15.83357h-1.631c-3.39227,0-3.33835.009-2.76323-3.42372.80425-4.7941,1.52764-9.60169,2.27349-14.40927.05841-.39989.018-.91659.52569-.957.66048-.04942.56163.55265.62453.975.80876,5.38719,1.62649,10.77438,2.40829,16.16606C136.36742,262.82126,136.32249,262.82576,134.69151,262.83025Z"/>
    <path class="b95586a4-5888-4c6c-8b75-23bdd13ecd6d" d="M452.958,278.82108c-.07637-.39988-.14378-.79977-.22465-1.19516q-1.94776-10.069-3.9-20.13344-2.35212-12.19194-4.68627-24.37939a1.63519,1.63519,0,0,0-1.91855-1.56808c-2.89354.06739-5.78708.05841-8.68061,0-1.14573-.02247-1.59054.48974-1.79273,1.53663q-4.42119,22.77986-8.87831,45.55522c-.23815,1.2356.1842,1.76578,1.47821,1.77926,1.80622.02246,3.61691-.04943,5.42313.02695,1.24459.04943,1.77927-.4493,1.968-1.66692.3909-2.57453.90761-5.13558,1.34792-7.70562.13929-.81774.44481-1.267,1.40633-1.24009,2.21059.0674,4.42567.04044,6.64077.01348.76833-.01348,1.12327.22466,1.24909,1.0379.39539,2.61946.90311,5.22544,1.30747,7.84939.17974,1.15472.629,1.8197,1.92752,1.70737.94353-.08087,1.89606-.01348,2.84862-.01348q1.55683-.00673,3.11819,0C452.67947,280.4251,453.16023,279.91289,452.958,278.82108Zm-13.52413-15.99083h-1.76577c-3.06877,0-3.11819-.009-2.68685-3.01485.70092-4.857,1.46475-9.705,2.251-14.54856.0674-.44032-.08537-1.29849.683-1.22661.6515.06291.53018.84021.60655,1.35242.79978,5.25239,1.58157,10.50479,2.38582,15.7527C441.1458,262.6685,441.03347,262.82575,439.43391,262.83025Z"/>
    <path class="b95586a4-5888-4c6c-8b75-23bdd13ecd6d" d="M179.8109,264.53312c-.09435,2.606.17972,5.221-.48076,7.80446a11.48436,11.48436,0,0,1-9.77243,8.87382,21.09216,21.09216,0,0,1-7.54836-.09436c-6.33523-1.33893-9.62865-5.60286-9.66459-12.45479-.02695-4.33581,0-8.67162,0-13.00294s.10334-8.31667-.02695-12.46377c-.22017-7.27428,4.36726-11.87968,11.68647-12.5761a19.17769,19.17769,0,0,1,6.9957.4538,11.49732,11.49732,0,0,1,8.79743,10.85076c.0629,1.4872,0,2.9834.01347,4.4706a1.251,1.251,0,0,1-1.40633,1.42431c-2.12523.009-4.25044,0-6.37566.00449-1.01095,0-1.44228-.4538-1.44228-1.49619a27.535,27.535,0,0,0-.20669-5.54c-.45829-2.278-1.968-3.43719-4.48858-3.38777-2.43075.04942-3.92694,1.25806-4.25493,3.49561a16.75551,16.75551,0,0,0-.18422,2.42176q-.02022,12.73111-.00449,25.46672c.00449.53916.08087,1.07833.10334,1.6175.1258,3.59,3.04181,4.83454,6.1555,4.00332a3.63523,3.63523,0,0,0,2.6599-3.10022,34.6346,34.6346,0,0,0,.21117-6.75308c-.00449-1.24907.46279-1.70737,1.67591-1.68041,1.941.04943,3.88651.04044,5.832.0045,1.1682-.018,1.77925.40438,1.72984,1.65794Z"/>
    <path class="b95586a4-5888-4c6c-8b75-23bdd13ecd6d" d="M113.93353,274.81776c.009,1.39734-.009,2.79918.009,4.201.009.95253-.41786,1.41082-1.38836,1.40633q-10.24419-.00675-20.48839.00449c-1.36589,0-1.47822-.85368-1.47373-1.90506q.02022-11.2484.0045-22.4923,0-11.24841.00449-22.4968c0-1.75679.20219-1.968,1.932-1.968q9.77242-.00673,19.54485,0c1.604,0,1.83318.22016,1.85564,1.77477.018,1.17269.009,2.34987,0,3.52256-.0045,1.631-.18422,1.8152-1.77027,1.8152-3.70678.009-7.41806.04493-11.12934-.02246-1.09631-.018-1.39734.35046-1.38386,1.39734q.08088,5.01427,0,10.02853c-.02247,1.10979.40438,1.38387,1.43329,1.3614,2.44423-.0629,4.88846.01348,7.32819-.03594,1.11429-.027,1.58156.44032,1.57707,1.50517-.009,1.312-.03145,2.61946.0045,3.93144.03594,1.19516-.46279,1.72983-1.6894,1.70737-2.43974-.04044-4.884.03145-7.32819-.03146-1.002-.02246-1.33894.28307-1.32546,1.30749q.07415,5.9578,0,11.92011c-.01348,1.05587.40887,1.30749,1.3614,1.2985,3.71128-.03595,7.41806-.018,11.12933-.01348C113.78076,273.0385,113.929,273.18677,113.93353,274.81776Z"/>
    <path class="a8c27178-5fc5-4b91-a518-71652854c1a5" d="M245.48609,233.46355c0,1.12776.009,2.26,0,3.38777-.018,1.54562-.292,1.82868-1.80621,1.82868-3.70678.009-7.41356.03145-11.12034-.01348-1.06486-.01348-1.43329.34148-1.41531,1.40633.04941,3.33835.04493,6.6812.00449,10.01955-.01348,1.00195.35046,1.36589,1.34792,1.34792,2.3948-.04943,4.79411.02246,7.18891-.03145,1.26256-.03145,1.85564.41336,1.80173,1.71635-.04942,1.30748-.02246,2.61946-.009,3.92694.009,1.01993-.48076,1.46474-1.50069,1.45576-2.30494-.02247-4.60989-.009-6.91484-.009a1.65745,1.65745,0,0,0-1.90057,1.83766q0,9.00411,0,18.00823c0,1.89607-.18871,2.07579-2.11175,2.07579-1.62649.0045-3.253.009-4.87946,0-1.66244-.009-1.99493-.3235-1.99493-1.968q-.00673-11.30905,0-22.61811c0-7.53937-.00449-14.80466,0-22.20924,0-1.82418.1932-2.01739,2.01739-2.01739q9.6983-.00673,19.39657,0C245.27942,231.61241,245.47711,231.8146,245.48609,233.46355Z"/>
    <path class="b95586a4-5888-4c6c-8b75-23bdd13ecd6d" d="M86.45841,237.15236c.03594,1.09181-.40887,1.56359-1.51866,1.54112-2.08029-.03594-4.16508.05392-6.24087-.03145-1.21762-.05392-1.52765.39539-1.52765,1.55909q.05393,19.03264.02247,38.0563c0,2.05783-.08537,2.14319-2.1387,2.14769q-2.44649,0-4.884-.0045c-1.84665,0-1.98144-.13479-1.98144-2.03536q-.00675-9.48263,0-18.96075c0-6.32175-.03595-12.73336.027-19.09554.009-1.32995-.41337-1.73882-1.72085-1.67142-1.98594.10334-3.98086-.0045-5.9668.04043-1.09181.02247-1.58605-.43582-1.57257-1.51865.018-1.35242.02247-2.70932-.00449-4.06174-.018-1.06485.43583-1.56359,1.54112-1.55909q12.20543.02022,24.41534,0c1.07384,0,1.58156.42235,1.55011,1.53213C86.418,234.443,86.41348,235.8,86.45841,237.15236Z"/>
    <path class="b95586a4-5888-4c6c-8b75-23bdd13ecd6d" d="M327.20155,278.574c0,1.63548-.22015,1.84216-1.90506,1.84665-1.85114.009-3.70678-.04043-5.55792.018-1.31647.04493-1.73881-.53468-1.73432-1.78825.03146-7.58429.0135-15.17309.0135-22.75739s0-14.90351.00449-22.353c0-1.79273.16624-1.968,1.90956-1.97246,1.85564-.009,3.71128.04044,5.56242-.018,1.303-.04044,1.72982.50772,1.72535,1.77476q-.04044,22.62486-.018,45.2497Z"/>
    <path class="b95586a4-5888-4c6c-8b75-23bdd13ecd6d" d="M417.86718,233.54892v44.96663c0,1.65345-.24261,1.90057-1.86014,1.90506-1.76127.009-3.527.0045-5.28835,0-1.8691,0-2.03537-.16175-2.03537-1.99042V233.46355c.0045-1.69389.1932-1.88709,1.84665-1.89608q2.71608-.01347,5.42763,0c1.72535.0045,1.90955.19321,1.90955,1.98145Z"/>
  </g>
</svg>
