<svg id="ac74d66f-9167-4a19-ab1c-7dc938e03aed" data-name="Layer 1" xmlns="http://www.w3.org/2000/svg" width="512" height="512" viewBox="0 0 512 512">
  <defs>
    <style>
      .a06fcbf0-b0d4-45fc-b0c4-9b2bb264e7a0 {
        fill: #fff;
      }

      .b2c148de-e2fb-4808-8fb5-26ba342b2560 {
        fill: #e12226;
      }

      .bead1f46-e86c-4814-9d85-a7b65bf3f130 {
        fill: #e12026;
      }

      .aa19bf3a-e0fc-469d-9ffb-b425bf451d7a {
        fill: #e12126;
      }

      .a3aff991-f136-47cf-a3fb-0597d1f10837 {
        fill: #fcc312;
      }

      .ea140d96-56b4-4879-98c9-96d19196509b {
        fill: #fcc411;
      }

      .ab62f879-87f6-43e3-af81-be4e99d675af {
        fill: #fcc311;
      }

      .e7c94930-a439-4cc0-bb1f-ff5e64da3af9 {
        fill: #fcc212;
      }

      .a79ae4eb-975f-47c9-81c0-11aa6b9f331f {
        fill: #f9ba18;
      }

      .e808f206-d3bf-47a8-86db-b4bc2cf87eb8 {
        fill: #fcc213;
      }

      .acea0357-c6cf-47eb-8382-9b34ca364041 {
        fill: #fbc212;
      }

      .bb9974d1-45e4-41f2-a2de-ea334b103956 {
        fill: #fbc312;
      }

      .fcc68e92-34bb-4825-a5db-e06b6cb61cbd {
        fill: #fcc313;
      }

      .b22d2285-234f-4769-852f-0d3292aa9789 {
        fill: #fbc114;
      }

      .a90dceab-bdb1-40a8-bb47-1f5cc3f39830 {
        fill: #f9bb17;
      }

      .b7e3a965-7d1e-4da7-b2e2-4da0e10c1fa9 {
        fill: #fabd15;
      }

      .b468074e-398b-4929-a6ae-4e4371330264 {
        fill: #e54526;
      }

      .ac2daba0-d444-4575-ac8e-3d1ac1fdba8a {
        fill: #e43d26;
      }

      .a5b286a8-b68e-4591-9a3b-564470508646 {
        fill: #f8b519;
      }

      .b472de32-5580-4f1f-a30b-f8c857396a8b {
        fill: #f9bc16;
      }

      .bca6e0de-7b68-4e3e-911a-d2f64467aed5 {
        fill: #e44128;
      }

      .a0a50e35-2639-43b3-8ee0-2fa78eba9fb6 {
        fill: #e54525;
      }

      .b0f3c00a-8edc-46a8-aaac-435f2bf8612e {
        fill: #f8b918;
      }

      .a88d1015-4400-4c0a-915a-d1478a902a93 {
        fill: #e44525;
      }

      .afe12583-fe63-4ab0-a977-4cfa58092ecf {
        fill: #fabc18;
      }

      .fdb10186-69dd-4e7e-8f1a-7998ab166da5 {
        fill: #e44326;
      }

      .a63f1d52-abde-48f1-b64b-55003ad7c8ad {
        fill: #e65025;
      }

      .ba379232-3a67-49b7-b82c-736485026f8c {
        fill: #e6512f;
      }

      .ad2c6cff-e8b1-4e9f-ad6d-e22af976c86f {
        fill: #e75627;
      }

      .eff42a3f-4718-408c-84ba-7c14e1cefbf4 {
        fill: #fbbf14;
      }

      .ad77faea-7753-4ea6-8629-77c5dee30ef2 {
        fill: #fac014;
      }

      .fba1e8b1-920e-4560-a13d-0abe0ffbd312 {
        fill: #fabe15;
      }

      .f69cef5d-4b2e-4b0b-ab31-9c9f413a242c {
        fill: #f9b718;
      }

      .bce2b7b3-0ff0-4f05-8560-ce885a6293c2 {
        fill: #fbbe15;
      }

      .a86b5424-281b-4a82-8d59-b6ecfd5c017b {
        fill: #f5a51e;
      }

      .a57623b1-c89f-411d-93cf-efc77da64b6a {
        fill: #f7b11a;
      }

      .afb9eab2-3681-4ea6-a695-5b78101bb6f9 {
        fill: #f7b31a;
      }

      .a96c0fd3-8c78-43f2-995e-925b18cb721c {
        fill: #fbc213;
      }

      .b64438db-5c40-480b-b857-d4655449c14d {
        fill: #f8b719;
      }

      .b97c60a1-fe69-4a01-a4b1-78bc64a45453 {
        fill: #f9b818;
      }

      .f3a120da-15ee-45bb-9b9b-1ae6e09e7169 {
        fill: #f8b618;
      }

      .e22d06b3-65c1-48f1-9fab-8ef576f82f91 {
        fill: #faba17;
      }

      .e5345bab-9876-4359-b342-95d10a33b49e {
        fill: #f6ab1c;
      }

      .bbf9c0b6-ef5b-426b-9a6e-51807d47752c {
        fill: #e64c25;
      }

      .a816c77b-15f1-4643-8c77-61ab28456c3b {
        fill: #f8b419;
      }

      .e0f97ebb-6c9e-4997-b45f-27edaf15ad56 {
        fill: #f8b818;
      }

      .e98f4498-deef-4d6e-9727-16044ebf6844 {
        fill: #f9ba17;
      }
    </style>
  </defs>
  <g id="fd687a4e-70e8-4755-a48b-858dbf5374ec" data-name="Layer 1-2">
    <path class="a06fcbf0-b0d4-45fc-b0c4-9b2bb264e7a0" d="M169.489,352.36192l.66486.09651c-5.27595,5.36174-9.73693,11.55991-16.11739,15.81713-6.44482,4.54677-13.73678,6.56277-21.50059,7.19547-1.17958,0-2.35916.02145-3.53875.03217-3.1956-.56835-6.38047-1.14742-9.56534-1.71577-1.46912.21447-2.76666-.01072-3.57092-1.44767a14.94186,14.94186,0,0,1-7.00244-3.9248c-.77209-.64342-1.54418-1.28682-2.30555-1.9195a13.06788,13.06788,0,0,1-4.57892-6.72363,5.013,5.013,0,0,1-1.85517-4.99714c-1.32971-2.40207-2.25192-4.88991-1.60852-7.69945-.03217-2.31628-.05361-4.62182-.08579-6.9381h0c-.02144-3.00258-.03217-5.9837-.05361-8.97555.02144-2.34844.03217-4.69689.05361-7.056h0c-.01072-2.52-.02144-4.99714-.04289-7.49572.01072-2.89533.01072-5.79067.02145-8.686q-.04825-3.29748-.08579-6.59494.08042-4.42344.15012-8.84687c-.03217-1.89806-.06434-3.78539-.10723-5.68345.02145-2.99184.0429-5.973.06434-8.96483-.02144-1.823-.03217-3.646-.05361-5.469.02144-2.92752.03217-5.855.05361-8.78254L97.90974,260.14l-10.13369-.38605c-1.26538,0-2.54147,0-3.80684.01073-3.04547,0-6.08021.01072-9.12568.01072-1.68359,0-3.3779,0-5.06148-.01072-3.60309.0965-7.21691.193-10.82.28953,2.90607-2.59508,6.50916-2.41279,10.0479-2.48785.94367.04289,1.88734.05362,2.84173.05362.58979.01073,1.1903.01073,1.7801.01073.42893,0,.85787,0,1.28681-.01073h.21447c.55762.02144,1.10452.03217,1.66214.03217,2.2841.03217,4.5682-.0429,6.85231-.03217.89.01073,1.76937.02144,2.65942.02144h.1823c.39677,0,.80426,0,1.21175.01073h.35387c.56835.02144,1.14742.02144,1.72649.02144,2.91678.02145,5.84429.02145,8.48227,1.67286a1.82746,1.82746,0,0,1,.20374.20375,3.74161,3.74161,0,0,1,.34315.37532,5.84378,5.84378,0,0,1,.96512,1.63,5.16026,5.16026,0,0,1,.21447.56834,10.76185,10.76185,0,0,1,.311,1.19031,36.94855,36.94855,0,0,1,.34315,6.61638c0,.73993,0,1.47984.03217,2.21976v.32171c.01072.77209.01072,1.53346,0,2.30555,0,.24664-.01072.49329-.01072.73992,0,.80427,0,1.60853.03217,2.41279.02145,2.134-.0429,4.25722-.05362,6.3912,0,.72919.01072,1.46911.03217,2.19832v.35387c.01072.68631,0,1.36189,0,2.04819v1.25465c0,.697.01072,1.38332.03217,2.09107.0429,2.25194-.05362,4.50386-.04289,6.7558.01072.622.03217,1.24393.05361,1.87661v.25737c.03217,1.16885,0,2.33771-.02144,3.50658-.01073.311-.02145.622-.01073.92222-.01072.84715-.01072,1.69431.0429,2.54146.04289,2.04819-.0429,4.08564-.05362,6.13383,0,.84715,0,1.705.0429,2.5522,0,.12867.01072.24663.01072.37533.02145,1.22247-.02145,2.445-.03217,3.67814-.01072.42893-.02145.8686-.02145,1.29755,0,.622.01072,1.25465.0429,1.87661.03217,1.54418-.03217,3.08837-.0429,4.63255-.01072.83643-.01072,1.6836.03217,2.52v.0965c.03217,1.88733-.03217,3.78539-.05362,5.67272-.01072.39676-.01072.79354-.01072,1.19031,0,.47183,0,.94367.01072,1.4155.03217,1.87661-.06434,3.7425-.07506,5.61911-.01072.32171,0,.65414,0,.97584,0,.35388,0,.70776.02145,1.06163a23.55946,23.55946,0,0,0,.64341,4.7505c.10723.47183.23591.93294.37532,1.394,0,.01072.01072.02146.01072.03217a38.03559,38.03559,0,0,0,1.7372,4.94353c.06434.16084.12868.311.20374.4611.17158.37533.34316.75064.52546,1.126a20.22458,20.22458,0,0,0,3.36717,5.1151,2.45676,2.45676,0,0,0,.22519.24664c.07507.06434.15013.12868.22519.20375.45039.386.9115.76137,1.39406,1.11523.23591.1823.46111.35388.70775.51473l.3217.2252a42.42126,42.42126,0,0,0,6.18745,3.65671,3.77557,3.77557,0,0,0,.45038.16084,9.65277,9.65277,0,0,0,1.02946.34316,15.19038,15.19038,0,0,0,1.52273.4075c.386.09651.77209.1823,1.16886.25737a1.37808,1.37808,0,0,0,.20374.04289,35.647,35.647,0,0,0,7.94611,1.3726c.65413,0,1.30826-.02145,1.96239-.02145.118-.01072.2252-.01072.33243-.01072.38605-.01072.76137-.02145,1.13669-.04289h.1394c.75064-.06433,1.49056-.15012,2.23049-.25736a51.20419,51.20419,0,0,0,17.27552-6.15529,21.97769,21.97769,0,0,0,3.3779-2.2412c4.70761-3.75322,8.1284-9.03989,13.39363-12.16043l.57907-.3217c.03217-.01072.07506-.02146.10723-.03217a.09043.09043,0,0,0,.07506-.02146c.02145,0,.0429-.01071.06434-.01071l-.03217.03217Z"/>
    <path class="a06fcbf0-b0d4-45fc-b0c4-9b2bb264e7a0" d="M58.96206,256.494q38.34717-39.05492,76.69433-78.12056c12.47141-12.7395,24.81414-25.59695,37.25337-38.3579,1.36188-1.40477,2.95969-2.58435,4.94353-4.30011.815,4.73978.93294,8.4501,0,12.16043.02144,1.74792.04289,3.49585.07506,5.24378.17158,10.35888.73993,20.73921.35388,31.07665-.23592,6.05877,1.90878,7.97827,7.54933,7.15256,1.4584-.21447,3.0133.20374,4.45025-.06434,9.23291-1.74793,11.03446,2.27337,11.25964,11.03446.24664,9.51173-2.99184,12.20332-11.54919,10.702-9.07206-1.59779-12.5143,1.68359-11.52774,11.16315.83643,8.07478.27881,16.29969.193,26.2618-3.89262-2.16614-2.15542-7.54933-2.40206-11.517-.28953-4.43952-.10723-8.9005-.06433-13.35073.1394-12.761.8257-13.59738,13.52231-14.24079,5.233-.26808,9.383-.97584,9.6833-7.60294.36459-7.90321-1.26536-10.06935-9.23292-10.64842-13.44725-.98656-13.8869-1.4155-13.962-14.74479-.04289-7.82814-.07506-15.667.03217-23.49514,0-.1823.01073-.35388.01073-.53618-.01073-.34315-.01073-.67558-.01073-1.01873,0-.77209.02145-1.54418.05362-2.327.01073-.49328.03217-.99728.0429-1.50128v-.53618c-.21447-2.59508.8686-5.26523-.66486-8.40721-11.77438,11.60281-23.849,22.58365-34.56178,34.77625-9.812,11.18459-20.22448,21.72578-30.88362,32.02032C95.69,221.35315,82.48937,236.6234,68.29148,250.93924c-2.55219,2.56291-4.6111,6.44482-9.34015,5.55477Z"/>
    <path class="a06fcbf0-b0d4-45fc-b0c4-9b2bb264e7a0" d="M363.51966,323.71951a4.10088,4.10088,0,0,1-.98658.38605Q341.558,346.88224,320.58283,369.6589c-1.32972,1.43694-2.70232,2.27337-4.58965,1.01873l-11.93524-.16085h-14.348c-1.705.45039-3.43151.94368-3.839-1.64069q-.09651-5.38855-.193-10.79853c-1.66215-1.823-.33243-3.54947.18229-5.30812.09651-5.10438-2.016-10.11226-.66485-15.27025.23592-.65413.47184-1.30826.70776-1.97311-.17158-3.63526-.35388-7.28124-.52546-10.92723q-21.84373,21.65071-43.666,43.26925h0l-.01071.01072c-5.8872,4.45023-12.73951,6.3912-19.84916,7.65656-1.36189.06434-2.713.12868-4.06419.20375a32.40446,32.40446,0,0,1-12.88963-.21447c-1.74794.1823-3.646.91151-4.83629-1.17959q-1.19031-2.09111.01072-.02145c1.201,2.06964-.01072.01072-.02145.02145q-3.94087-1.52808-7.89249-3.05619c-1.04017-.71848-2.09107-1.42623-3.142-2.1447a8.91152,8.91152,0,0,1-5.58693-3.89263l-3.24921-2.445h0a9.54422,9.54422,0,0,1-4.50386-4.69689,4.23235,4.23235,0,0,1-2.59508-3.63526c-.97584-.67559-1.95167-1.34044-2.91679-2.016-.05362-.07507-.09651-.15013-.15013-.2252a3.98668,3.98668,0,0,1,2.85245.77209,6.30856,6.30856,0,0,1,.80426.63268c.02145.03217.05362.05362.07507.08579.99728,1.10452,1.72648,2.41278,2.6487,3.58164l.03217.03217c.21446.26809.43966.52546.67557.78281a20.74122,20.74122,0,0,0,2.62725,2.41278c.38605.311.78282.5898,1.201.8686.12868.09651.26808.1823.40749.26809a35.40539,35.40539,0,0,1,3.2921,2.35916l.35388.28954c.118.10724.24665.20375.37532.30026a36.15075,36.15075,0,0,0,3.47441,2.50929c.23592.16084.48255.311.71847.4611q.30563.17694.61124.386c.75064.46111,1.49056.94368,2.25193,1.40478.36459.193.72919.36459,1.09379.53617.57907.26809,1.16885.52546,1.75865.75064,1.7801.71847,3.61381,1.319,5.40463,2.016a1.308,1.308,0,0,0,.18229.07507,3.63175,3.63175,0,0,0,.54689.1823,17.91367,17.91367,0,0,0,5.351.5898h.07507c.84715,0,1.705-.01072,2.55219-.02145,2.56291-.01072,5.12583-.03217,7.68874-.04289h.10724c.47183,0,.93294-.02145,1.40477-.03217.77209-.02145,1.5549-.04289,2.31628-.09651,1.27609-.193,2.54146-.42893,3.78539-.71847.63268-.12868,1.26536-.28954,1.88732-.45038a51.31091,51.31091,0,0,0,13.35073-5.53332c.32171-.1823.63268-.3646.95439-.56835.30026-.18229.5898-.36459.89005-.55762,11.517-12.61081,23.31286-24.94281,35.677-36.71721,2.27337-2.16615,4.16072-6.06949,8.24636-4.50386a2.94971,2.94971,0,0,1,.43967.1823c.21446.09651.42893.20375.65413.33243a12.6762,12.6762,0,0,1,1.25465,6.49842c-.02146.73992-.06434,1.46911-.118,2.209-.01072.18229-.03217.36459-.04289.54689a19.02125,19.02125,0,0,1-.45038,2.59508,9.76033,9.76033,0,0,0-.622,4.41807c.02145.4075.07507.815.12868,1.21176.39676,2.90607,1.38332,5.81212.92222,8.72891a4.9528,4.9528,0,0,1-.118.67558c-.04289.28954-.09651.56835-.13941.85789-.17158.94367-.35388,1.89806-.43967,2.84171a12.55206,12.55206,0,0,0-.04288,1.5549,7.74055,7.74055,0,0,0,.26808,1.69432c.56835,2.53074.386,5.13654.92222,7.64584a.44831.44831,0,0,0,.04289.10724,2.23079,2.23079,0,0,0,1.49056,1.47985,1.14084,1.14084,0,0,0,.26809.09651,10.92548,10.92548,0,0,0,1.47984.24663c2.84172.10724,5.662-.05362,8.493-.07507.8686-.03217,1.74793-.03217,2.62725-.02145.16085-.01072.311,0,.4611,0h.2252c.20375,0,.39677.01072.5898.01072.77209.03217,1.53345.03217,2.30554.03217a27.18233,27.18233,0,0,1,8.16057.79354c.97584,1.07235,1.68359,1.21176,2.27337.93294.815-.38605,1.39406-1.56564,2.09108-2.209,12.57864-11.67787,23.66671-24.782,35.51618-37.16759,1.23319-1.28681,2.445-2.62725,3.76395-3.839a20.18734,20.18734,0,0,1,2.1447-1.79082,13.50687,13.50687,0,0,1,1.19029-.79354c.0429-.03217.0965-.05362.13941-.08579a3.61329,3.61329,0,0,1,1.95168-.2788Z"/>
    <path class="a06fcbf0-b0d4-45fc-b0c4-9b2bb264e7a0" d="M451.94548,199.35929c.0429,40.0522-.06434,80.09369.17158,120.14589.02143,4.36446-2.831,5.22233-5.29741,7.02388q-20.87864,21.136-41.73577,42.29341c-1.319,1.34044-2.67013,2.34845-4.66472,1.52273q-6.35368-.01606-12.70733-.04288c-1.15812.02145-2.327.04288-3.48513.05362q-6.43408-.03217-12.87891-.07507c-1.14742.03216-2.30554.07507-3.4637.118-4.18215-2.9704-1.2761-7.14184-1.84444-10.72348-1.46911-1.79082-.36459-3.50658.16085-5.23306h0c.21448-4.37518-1.53345-8.7182-.95441-13.09338a7.37081,7.37081,0,0,1,.47184-2.08036c.06434-.193.12867-.37532.20375-.56834l.23591-.49329c-.73992-4.79339-1.45837-9.60824-2.1983-14.40162.03217.01071.05361.01071.08578.02145a13.13582,13.13582,0,0,1,2.11252,3.12053q.52545,1.09382,0,.02146a7.83124,7.83124,0,0,1,.46111,1.01872c.18231.45039.33242.90077.47183,1.37261a24.13347,24.13347,0,0,1,.80426,6.19817c.01074.37533.01074.75064.01074,1.126v.24663a19.07755,19.07755,0,0,1-.46111,2.43424,10.04376,10.04376,0,0,0-.34315,3.217q.03215.67559.12867,1.35115c.30026,2.3699,1.04018,4.72906,1.09379,7.10968a9.65064,9.65064,0,0,1-.08578,1.56563,9.38689,9.38689,0,0,1-.193,1.07235,25.0587,25.0587,0,0,0-.61125,4.6111,8.15579,8.15579,0,0,0,.22518,1.823c.02144.118.05361.23592.08578.35388.56834,1.83372.25735,3.9248,1.05091,5.68345a4.46147,4.46147,0,0,0,1.22249,1.58707c.118.03217.24666.06433.37533.0965a16.1709,16.1709,0,0,0,3.0562.34316h1.85517c2.85245,0,5.69417-.06434,8.53589-.10724h.33242c.75066,0,1.50128,0,2.25194.01072.49327,0,.97584.01072,1.45838.01072h1.99455c.53617.01071,1.07235.02145,1.60852.02145,2.35918.02145,4.72906.01072,7.08821-.10724,3.65671.16084,5.95152-2.18759,8.23562-4.49314q5.69418-5.72634,11.43124-11.37762c8.64312-8.56807,17.30768-17.09323,25.70418-25.87576.3646-.3646.71849-.71848,1.05092-1.08307a2.97371,2.97371,0,0,0,.25735-.26809c.4611-.48255.9222-.95439,1.3726-1.43694,2.92753-3.47441,2.88462-7.66728,2.88462-11.83872q0-52.08394-.02143-104.15717c-.02144-10.14441-.67559-10.54118-10.44466-10.90578-10.9058-.40749-21.36119-.41821-29.09281,9.45811-2.65944,3.39935-6.88449,4.41808-8.32143-1.74792-1.44768-6.25179-5.662-5.8872-10.35889-4.71834-6.56277,1.64069-11.80656,5.40463-16.6,10.01573-2.1018,2.016-4.3859,4.7934-7.57078,3.89263-3.5173-.98656-3.1527-4.73978-3.217-7.53861-.11794-5.8443-3.29212-7.08822-8.55735-7.678-14.33729-1.5978-25.94011,2.59508-36.04162,13.03975-8.73963,9.02917-9.55463,8.57878-16.95382-.94366-20.65342-26.55135-54.33588-21.96169-73.488-4.56821-13.62955,12.3749-26.15457,25.95083-39.33373,38.82973-2.70231,2.6487-5.41536,7.16328-9.23292,6.42336,15.19517-15.27024,29.02847-29.18932,42.90465-43.07622,28.2671-28.27783,64.995-24.54605,86.76369,9.40449,5.39391-4.99715,11.15242-9.53318,15.88148-14.95926,4.75049-5.45825,10.04791-7.88176,17.12538-6.80941a30.93775,30.93775,0,0,0,4.461.03217q17.86532,0,19.44168,17.54361c5.68343-5.1151,10.23021-10.99157,17.15757-13.82257,4.97571-2.03746,10.03716-4.35373,15.45254-3.44223,7.8496,1.32971.83643,8.92193,4.7505,12.24621,2.36988.1394,3.77465-1.84444,4.71832-3.36717,10.08007-16.20318,26.176-9.37232,40.12725-10.54119,3.88189-.33242,2.87388,2.99186,2.88462,5.10438Z"/>
    <path class="a06fcbf0-b0d4-45fc-b0c4-9b2bb264e7a0" d="M414.4669,163.70372a19.21244,19.21244,0,0,1,19.72046-18.68031,18.73567,18.73567,0,0,1,18.809,19.38806c-.26809,10.53046-9.31871,19.33443-19.54892,19.03418-10.18731-.28954-19.195-9.66186-18.98058-19.74193Z"/>
    <path class="b2c148de-e2fb-4808-8fb5-26ba342b2560" d="M177.8533,147.87586c-.48256,1.06162-1.008,2.09108-1.56563,3.08836-.60051,1.06163-1.2332,2.09108-1.9195,3.08836-5.14728,7.6244-12.36418,13.59738-18.691,19.9564-25.65057,25.81142-49.91781,52.974-76.10455,78.26-1.25465,1.21175-2.47712,2.45568-3.77467,3.59237a26.00248,26.00248,0,0,1-2.16614,1.76937,17.8858,17.8858,0,0,1-3.84973,2.134c-3.60309.09651-7.2169.193-10.82.28953V256.494q38.34717-39.05492,76.69433-78.12056c12.47141-12.7395,24.81414-25.59695,37.25337-38.3579,1.36188-1.40477,2.95969-2.58435,4.94353-4.30011C178.66828,140.45521,178.78623,144.16553,177.8533,147.87586Z"/>
    <path class="bead1f46-e86c-4814-9d85-a7b65bf3f130" d="M451.94548,199.35929c-.01074-2.11253.99727-5.4368-2.88462-5.10438-13.95126,1.16886-30.04719-5.662-40.12728,10.54118-.94368,1.52274-2.34845,3.50658-4.71833,3.36718-3.91406-3.32428,3.0991-10.91651-4.75049-12.24622-5.41535-.91149-10.47683,1.40478-15.45254,3.44224-6.92736,2.831-11.47414,8.70747-17.15757,13.82257q-1.57638-17.54362-19.44168-17.54362a30.93778,30.93778,0,0,1-4.461-.03217c-7.07751-1.07235-12.37489,1.35116-17.1254,6.80941-4.72906,5.42608-10.48757,9.96212-15.88148,14.95925-21.76867-33.95054-58.49659-37.68231-86.76369-9.40449-13.87619,13.8869-27.70947,27.806-42.90464,43.07622-.53617.5469-1.08307,1.09379-1.63,1.64069,0-.76137,0-1.50129.01073-2.2412.08579-9.96212.64341-18.187-.193-26.26181-.98656-9.47956,2.45567-12.76094,11.52774-11.16314,8.55734,1.50129,11.79584-1.1903,11.54918-10.702-.2252-8.76109-2.02673-12.78239-11.25965-11.03446-1.43694.26808-2.99185-.15013-4.45025.06434-5.64055.82571-7.78525-1.0938-7.54933-7.15256.38605-10.33744-.1823-20.71777-.35388-31.07665a6.58219,6.58219,0,0,0-1.69431.17158,6.26537,6.26537,0,0,0-1.86588.76136c-1.98384,1.19031-3.34573,3.27066-4.92208,4.91136-29.14643,30.04719-57.9068,60.46971-87.55723,90.02362-2.11252,2.1018-4.70761,4.1071-6.09094,6.87375a8.87732,8.87732,0,0,0-.66485,1.75865,9.17809,9.17809,0,0,0-.28954,2.15542c3.04547,0,6.08022-.01073,9.12568-.01073.84716-.697,1.68359-1.394,2.52-2.11252,3.528-3.00258,6.91665-6.14456,10.198-9.32943q-3.13662,3.13662-6.29468,6.32686c-.92222.93294-2.24121,1.74792-2.69159,3.01329a3.01723,3.01723,0,0,0,.07506,2.09108l10.13369.386a4.99541,4.99541,0,0,0,.90077-.20374c3.00258-.82571,4.654-3.50658,6.76652-5.50115a70.13116,70.13116,0,0,0-5.8014,7.13112c-.46111.66486-.9115,1.32971-1.35116,2.016-.02145,2.92751-.03217,5.855-.05362,8.78253a6.135,6.135,0,0,0,2.30555.118,5.52141,5.52141,0,0,0,2.77739-1.2332c-.94367,1.15814-1.87661,2.33772-2.77739,3.53875-.77209.99727-1.52273,2.016-2.25193,3.04546-.02144,2.99184-.04289,5.973-.06434,8.96483a5.21443,5.21443,0,0,0,2.31627.08579,5.39011,5.39011,0,0,0,2.6916-1.50128c-.94367,1.14742-1.84444,2.327-2.6916,3.54947-.78281,1.13669-1.52273,2.31628-2.209,3.54947q-.06435,4.42344-.15013,8.84687a6.96259,6.96259,0,0,0,2.40206-.16084c3.05619-.7721,4.82557-3.646,6.88447-5.78,9.98356-10.34815,20.35317-20.28882,30.43324-30.52975-12.50358,13.222-26.52989,25.03933-37.33916,39.81629-.78282,1.06163-1.54418,2.1447-2.29483,3.24921-.01072,2.89534-.01072,5.79068-.02144,8.686a3.41337,3.41337,0,0,0,2.34844.58979c1.52273-.21446,2.638-1.64069,3.68887-2.67015,7.13112-7.00243,14.19789-14.0692,21.33973-21.31829-.51473.52546-1.008,1.07235-1.49057,1.61924-7.75307,8.78254-16.59994,16.6-23.57021,26.04733-.79354,1.0509-1.54418,2.12325-2.27337,3.217h0c-.02145,2.36989-.03217,4.71832-.05362,7.06677a5.72363,5.72363,0,0,0,2.33772.13941c2.85245-.42893,4.4288-3.18488,6.32685-5.04,10.75566-10.46612,21.30756-21.136,32.13828-31.51632-2.949,4.1071-7.0775,7.14185-10.14442,11.06665-8.65385,11.10952-19.94567,19.8706-28.37433,31.16243-.77209,1.02946-1.512,2.08036-2.23048,3.15271h0c.03217,2.327.05361,4.63255.08579,6.94881a6.25732,6.25732,0,0,0,2.09108.16084c3.024-.32171,4.66471-3.17416,6.60566-5.1151,11.21676-11.28111,23.06621-21.92952,33.71463-33.78969-10.88434,12.0532-20.93224,24.83559-32.76024,36.04162-2.48784,2.35917-5.26523,4.5682-6.91664,7.61368a11.8602,11.8602,0,0,0-1.126,2.78811,5.01308,5.01308,0,0,0,1.85516,4.99715,4.22188,4.22188,0,0,0,2.12325.17158c1.64069-.30026,2.8739-1.58707,4.04276-2.76666,7.52788-7.56006,15.59194-14.60538,22.28339-22.96969,4.30012-5.37246,8.8147-10.56264,14.94853-14.02632-1.84444,3.49585-5.19016,5.69417-7.37775,8.77182-5.96225,8.34286-15.31313,13.98341-19.16286,23.967a.38428.38428,0,0,0,.04289.118,3.13522,3.13522,0,0,0,1.65142,2.016,3.05779,3.05779,0,0,0,.33243.12867,4.56247,4.56247,0,0,0,.57907.16085c4.35373-.33243,6.90592-3.49585,9.19-6.46626,5.82285-7.57078,12.67515-14.14427,19.43095-20.81428,1.49056-1.47985,2.90606-3.53875,6.63784-2.59508-3.88191,5.19016-8.64313,8.43937-11.98886,12.82529-7.12039,9.31871-17.38276,16.06377-22.28339,27.16258.01072.02145.01072.04289.02145.05362a2.70905,2.70905,0,0,0,.20374.51472,2.85715,2.85715,0,0,0,1.23321,1.37261,2.17456,2.17456,0,0,0,.45038.21446,3.39946,3.39946,0,0,0,.77209.21447c2.949-.118,4.94353-1.93023,6.55205-4.04276,8.4501-11.03445,19.09852-19.96711,28.68531-29.90779,2.82027-2.9275,5.39391-6.32684,9.79054-7.174,1.27609-.09651,2.55218-.15013,3.82828-.17158.47184-.02145.933-.02145,1.40477-.02145.43967-.01072.87933-.01072,1.319-.01072,1.14742,0,2.30555.01072,3.453.01072q1.54417.01608,3.08836,0a39.093,39.093,0,0,1,7.99971.37533c.24665.04289.504.09651.75064.16085a2.1904,2.1904,0,0,1,.25736.05362,8.01436,8.01436,0,0,0,.85789.08579.81261.81261,0,0,0,.16085.01071,8.60591,8.60591,0,0,0,1.57635-.03217,16.54127,16.54127,0,0,0,5.12583-3.03474c.01072,0,.02146-.01072.03217-.02145.05362-.04289.09651-.07508.15013-.118-.03217.05362-.05362.10724-.08579.16084-.01072.01072-.01072.03217-.02145.04289s-.01072.03217-.02145.04289c-9.56534,7.82814-17.33987,17.43637-26.00444,26.16528a3.797,3.797,0,0,0-1.13669,2.6058,4.17553,4.17553,0,0,0,.21447,1.46911,4.23234,4.23234,0,0,0,2.59508,3.63526,4.54062,4.54062,0,0,0,1.42622,0,7.334,7.334,0,0,0,4.01058-2.4664c9.3616-9.45812,19.47384-18.20847,27.85961-28.59952,3.7425-4.63256,7.796-8.87905,12.9218-11.99958-11.86017,13.23277-24.50316,25.62911-36.91022,38.27211-2.05891,2.1018-5.25451,3.89262-5.25451,7.20618a6.51257,6.51257,0,0,0,.45038,2.27337l3.24922,2.445a15.068,15.068,0,0,0,1.93023-.63268c5.01859-2.08036,7.84959-6.87376,11.58135-10.45539,11.18459-10.76637,22.04748-21.88663,33.62884-32.27769-.82571,3.16342-3.15271,5.01858-5.20089,7.0775-10.48757,10.48757-21.07164,20.88934-31.452,31.47343-1.94094,1.98385-4.82556,3.63526-5.08293,6.69146a5.86208,5.86208,0,0,0,.1823,2.016c1.05091.71847,2.1018,1.42622,3.142,2.14469a8.11671,8.11671,0,0,0,3.10981-.622c2.54147-1.06163,4.26795-3.335,6.12311-5.52259,11.29182-13.37218,24.3423-25.05,36.72792-37.382.92222-.91151,2.12325-2.24121,4.5146-.42894-10.03718,10.94868-20.84645,20.98586-31.141,31.5056-4.13926,4.22505-8.54661,8.25707-10.82,13.844a15.64192,15.64192,0,0,0-.60052,1.6407q-.17158.56837-.01071.02145c1.1903,2.09107,3.08836,1.36188,4.83628,1.17959a15.458,15.458,0,0,0,4.48241-2.016,25.31315,25.31315,0,0,0,6.048-5.86575c9.89777-12.72877,22.24051-23.1091,33.36075-34.65828,2.62725-2.73449,5.44753-5.469,10.66986-4.26794-12.43924,12.57864-24.73906,24.52459-36.69575,36.803-2.23049,2.29482-5.89792,4.21432-5.58694,7.9461a6.94178,6.94178,0,0,0,.61124,2.27337c1.35116-.07507,2.70232-.13941,4.06419-.20375a47.58325,47.58325,0,0,0,4.71833-3.36717,102.15354,102.15354,0,0,0,8.16057-7.40993c13.08264-12.87889,25.63985-26.294,39.41951-38.72249-9.42593,12.46068-20.80355,22.80885-31.35546,33.9291-1.53345,1.61924-5.96226,3.82829-2.87389,6.67a9.51767,9.51767,0,0,0,1.7801,1.24393h.01072q21.84374-21.65071,43.666-43.28a4.22023,4.22023,0,0,0,.75064-.12868c1.823-.45038,3.08837-1.81227,4.47169-3.00258,14.28367-12.32128,27.806-25.44681,41.1031-39.38734-.37533,5.58694-3.89263,8.8147-7.19546,12.12826q-15.667,15.73134-31.44124,31.34473a39.10915,39.10915,0,0,0-5.02931,5.74778,17.7652,17.7652,0,0,0-2.134,4.22506c-.23592.66485-.47184,1.319-.70776,1.97312-.37532,2.72375-.20375,4.86845,1.7372,4.78268a6.85572,6.85572,0,0,0,2.80955-1.02947c2.59508-1.46911,4.50386-3.82829,6.60567-5.90863,11.43123-11.3669,22.81956-22.76594,34.7548-34.61539a8.19779,8.19779,0,0,1-3.217,6.05876c-9.41522,8.611-16.65357,19.23792-26.00444,27.92393-2.74521,2.54146-6.12312,4.90064-6.18746,9.29726.01072.02145.01072.05362.02146.07507a2.24181,2.24181,0,0,0,.17158.47184,2.93916,2.93916,0,0,0,1.27609,1.47984,1.709,1.709,0,0,0,.45039.20375,2.58624,2.58624,0,0,0,.65413.20375c5.05077-.55762,7.4421-4.54676,10.20876-7.95682,6.51988-8.06406,13.97269-15.163,21.85446-22.22977,1.81227,3.30283-1.319,5.44753-.73992,8.04261a2.83526,2.83526,0,0,0,.12867.42893.47377.47377,0,0,0,.06434.17158,2.9645,2.9645,0,0,0,1.40477,1.60852,1.2218,1.2218,0,0,0,.20375.10724,4.066,4.066,0,0,0,.57906.21447c3.43151,1.40477,6.74507-5.26523,10.20876-.25737.02144.03217.05361.07507.07507.10724l.09651.16085a2.63716,2.63716,0,0,0,1.512,1.28681.4537.4537,0,0,0,.12867.04289,2.83809,2.83809,0,0,0,1.06162.06434,18.81934,18.81934,0,0,1,14.59464-3.46368.45542.45542,0,0,1,.11794.02145c.16085.02145.311.05362.47184.08579.0536.01072.11794.02145.17158.03217a2.79958,2.79958,0,0,0,2.12326-.80426,4.10081,4.10081,0,0,0,.98657-.38605h.01074a2.78614,2.78614,0,0,0,.386-.2252c.0429.10724.08577.2252.12867.33243,1.201,3.00257,2.04819,4.82556,3.04547,5.53332,1.49058,1.07235,3.28138-.311,7.00243-3.93552,13.75821-13.40435,27.20547-27.11968,41.11382-40.38463-14.04776,13.85473-26.13311,29.54319-40.63125,42.969a50.03977,50.03977,0,0,0-6.68074,7.54932c-.61125.85788-1.19029,1.7372-1.7372,2.6487l-.23592.49329c-.07507.193-.13941.37533-.20375.56834a7.37078,7.37078,0,0,0-.47183,2.08036,2.2735,2.2735,0,0,0,1.07235,2.17687,3.5656,3.5656,0,0,0,.9115.40749c2.11253.60052,3.75322-1.34043,5.16872-2.69158,10.509-10.01573,20.61054-20.42824,30.93726-30.61555,3.76395-3.721,7.42066-7.59222,12.34273-12.0532-.61124,5.7049-3.5173,7.95683-5.98369,10.44468-8.76109,8.82542-17.70447,17.46856-26.369,26.39049-5.02932,5.16873-10.82,9.6833-15.00214,15.63484a31.91343,31.91343,0,0,0-2.11253,3.37789h-.01073v.02145c-.52544,1.72648-1.63,3.44224-.16085,5.23306a4.96867,4.96867,0,0,0,1.61926.43967c2.68087.23592,3.84972-2.43424,5.351-4.17143,13.25421-15.15229,28.35289-28.46013,42.5615-43.39793.89,6.13383-2.73447,9.35087-6.04806,12.67516-12.14969,12.16042-24.37448,24.23507-36.47057,36.43838-1.43694,1.44768-3.1956,2.76666-4.25722,4.49314a6.16462,6.16462,0,0,0-.9115,4.24651c1.15812-.04289,2.31627-.08579,3.46369-.118a19.64051,19.64051,0,0,0,3.957-2.10181,38.03782,38.03782,0,0,0,5.32957-4.62182q15.6831-15.76351,31.49486-31.4198c3.07764-3.06692,6.09093-6.3483,11.97815-5.39391-11.79583,11.75294-23.152,22.94824-34.32588,34.31514-2.08036,2.11253-5.10439,3.84973-5.60839,7.01315a6.36169,6.36169,0,0,0,.0536,2.28411c1.15813-.01072,2.327-.03217,3.48513-.05362a23.35964,23.35964,0,0,0,3.77466-2.17687,41.03256,41.03256,0,0,0,5.37247-4.68615c10.20875-10.2731,20.62127-20.34245,30.6799-30.755,4.4288-4.57893,9.2758-7.174,15.70989-6.36975.10725-.01072.20375-.01072.311-.02145.12868-.01072.25736-.01072.386-.02145q.46649-.01608.93294,0a7.05027,7.05027,0,0,1,1.94095.25737c2.46639-1.80154,5.31884-2.65942,5.2974-7.02388-.23592-40.05221-.12868-80.09369-.17158-120.14589ZM105.89873,239.11123c6.34831-6.51987,12.39635-12.86817,18.423-18.34787C118.68113,226.39319,112.41861,232.61281,105.89873,239.11123Zm10.08007,4.95426c3.80684-3.957,7.45283-7.91393,10.9594-11.75294l-1.60852,1.93023A124.472,124.472,0,0,1,115.9788,244.06549Zm13.61882-.07507c-.22519.22519-.45038.46111-.67557.6863-3.96769,4.01058-8.01045,7.93538-11.97813,11.92452C121.10463,252.35474,125.37258,248.18331,129.59762,243.99042Zm7.77453,6.5306c-1.85517,1.83371-3.76395,3.62453-5.662,5.42608Q134.49291,253.19652,137.37215,250.521Zm-14.71262,14.70189c-.23592.26809-.45039.52545-.67558.79354a121.37831,121.37831,0,0,1-9.21147,9.58679C116.086,272.17173,119.35669,268.6866,122.65953,265.22291Zm16.9431,13.75822c.22519-.23592.46111-.48255.697-.72919-.27881.33243-.56834.66485-.85788.98656-3.27067,3.73177-6.68073,6.92738-9.92995,10.13369Q134.51435,284.2571,139.60263,278.98113Zm73.95985,29.03919c-4.032,5.31885-9.70475,9.26509-13.0183,15.20589C203.343,316.85646,208.40449,312.40622,213.56248,308.02032Z"/>
    <path class="aa19bf3a-e0fc-469d-9ffb-b425bf451d7a" d="M452.99639,164.41147c-.26809,10.53046-9.31871,19.33443-19.54892,19.03418-10.18731-.28954-19.195-9.66186-18.98057-19.74193a19.21244,19.21244,0,0,1,19.72046-18.68031,18.73567,18.73567,0,0,1,18.809,19.38806Z"/>
    <path class="a3aff991-f136-47cf-a3fb-0597d1f10837" d="M412.62246,324.96342c-14.29439,14.06921-28.20275,28.52447-42.22908,42.87248-.83643.85788-1.67286,1.705-2.50929,2.56291-4.18215-2.97041-1.2761-7.14184-1.84444-10.72348.4611-.4611.93294-.91151,1.394-1.38332,16.50345-16.25681,33.01761-32.52433,49.78912-49.04921,2.209,6.65928.0429,11.14169-4.60039,15.72062Z"/>
    <path class="ea140d96-56b4-4879-98c9-96d19196509b" d="M264.33817,326.35748c-13.844,14.18716-27.0339,27.62368-40.11654,41.16744-1.87661,1.95168-4.35373,3.47442-5.64055,5.90864a7.15267,7.15267,0,0,0-.79354,2.30554,32.40446,32.40446,0,0,1-12.88963-.21447l1.93023-1.99457c14.36946-14.87346,28.80327-29.68259,43.0655-44.66329C253.83988,324.72751,258.24723,325.52105,264.33817,326.35748Z"/>
    <path class="a3aff991-f136-47cf-a3fb-0597d1f10837" d="M192.27638,325.86421h0a11.83082,11.83082,0,0,1-.30026,1.17959,11.03833,11.03833,0,0,1-.79354,1.93023,8.61664,8.61664,0,0,1-.57906,1.01873,27.11091,27.11091,0,0,1-5.24379,5.56548l-.03217.03217a41.51973,41.51973,0,0,0-3.91407,3.721c-3.74249,4.25723-8.11767,7.96754-11.80655,12.31055-.16086.17158-.311.35388-.45039.53618-.06434.07507-.12868.15013-.18229.2252-.09651.10724-.193.2252-.27882.33242-.02144.02146-.03217.04289-.05362.06434-4.7505,5.276-10.58408,9.53318-14.60538,15.49543-6.44482,4.54676-13.73678,6.56277-21.50058,7.19546a4.97816,4.97816,0,0,1-.25736-1.94094,4.20082,4.20082,0,0,1,.32171-1.28682c.6863-1.65141,2.327-2.85245,3.56019-4.16071,12.31056-13.06121,26.21891-24.59967,37.22121-38.89408a8.88362,8.88362,0,0,1,2.4664-2.23048c.27881-.17158.55762-.32171.83643-.4611,2.36989-1.17959,5.10438-1.4584,7.68874-2.134C186.979,325.03851,190.13169,322.81874,192.27638,325.86421Z"/>
    <path class="ea140d96-56b4-4879-98c9-96d19196509b" d="M428.58974,324.62028c-14.53031,14.98071-28.36363,29.24294-42.16474,43.46227-.72919.76137-1.45838,1.512-2.1983,2.27337q-6.43408-.03217-12.87891-.07507c.697-.697,1.40477-1.40477,2.10179-2.10181,13.71534-13.71533,27.48429-27.38776,41.10309-41.1889,3.9677-4.032,8.3643-2.77737,14.037-2.36989Z"/>
    <path class="ea140d96-56b4-4879-98c9-96d19196509b" d="M444.87871,326.27169a5.80115,5.80115,0,0,1-1.38334,1.75865c-14.36946,14.09065-28.03116,28.89978-43.07624,42.31485q-6.35369-.01608-12.70733-.04289c.72919-.72919,1.44767-1.46911,2.16613-2.19832,13.5545-13.69389,27.15186-27.33416,40.567-41.15672,4.27866-4.40735,9.37231-2.17687,14.155-2.70232a2.58567,2.58567,0,0,1,.39676.94367,1.847,1.847,0,0,1-.11794,1.08306Z"/>
    <path class="a3aff991-f136-47cf-a3fb-0597d1f10837" d="M415.59288,305.80057c-15.95654,15.43109-30.80857,31.97741-47.3549,46.808-.67558.61125-1.35116,1.21176-2.02675,1.81227h-.01073c.21448-4.35373-1.53345-8.69674-.95441-13.07192a12.34111,12.34111,0,0,1,.47184-2.08036c.06434-.193.12867-.37533.20375-.56834-.06434,2.73449.37532,3.82829,1.17959,3.88189.79352.04289,1.96238-.93294,3.38862-2.36989q19.76875-19.88135,39.69832-39.61255c2.05892-2.04819,4.225-4.01059,7.31342-6.93809.63268,5.06148,1.57635,8.77182-1.90878,12.139Z"/>
    <path class="ab62f879-87f6-43e3-af81-be4e99d675af" d="M360.40982,324.07337c-.21448.23592-.42893.48256-.64341.71847-.55761.622-1.11525,1.25465-1.67286,1.87661-13.49013,15.19517-26.57279,30.76567-42.10038,44.00916q-5.96763-.08043-11.93524-.16084a2.29987,2.29987,0,0,1-.66485-2.40207,1.54908,1.54908,0,0,1,.118-.311,4.17812,4.17812,0,0,1,.83643-1.201c11.05591-11.29182,21.51131-23.20561,33.50015-33.543,1.95168-1.69432,3.957-3.34573,6.01586-4.93281.21448-.1823.43966-.35388.66485-.52546,4.39663-5.17944,9.2758-8.182,15.88147-3.528Z"/>
    <path class="a3aff991-f136-47cf-a3fb-0597d1f10837" d="M175.88017,327.00089a492.34842,492.34842,0,0,1-43.28,45.24237c-.48255.45039-.96511.89006-1.45839,1.32972-.70776.64342-1.42623,1.28682-2.1447,1.93023-3.1956-.56834-6.38047-1.14742-9.56534-1.71576a6.075,6.075,0,0,1,.09651-1.85516c.49328-2.27337,2.35917-3.453,4.35373-4.536.35388-.193.70775-.37533,1.06163-.56834q18.07978-18.33714,36.181-36.66359c2.06963-2.09107,4.3859-3.92479,6.59494-5.87646a3.8401,3.8401,0,0,0,2.26266.815h.02144c1.67286.13941,3.58164-.16085,5.36174,1.40477a4.63071,4.63071,0,0,1,.48255.45039C175.848,326.96873,175.86945,326.99018,175.88017,327.00089Z"/>
    <path class="ab62f879-87f6-43e3-af81-be4e99d675af" d="M330.40554,290.91637Q309.17305,312.21322,287.91912,333.51l-2.016,2.016c-.17158-3.63526-.35388-7.28124-.52546-10.92723.09651-.10724.20375-.20375.311-.311,15.14155-15.45255,30.29384-30.92652,46.9474-47.91251,1.42621,7.13111,1.19029,11.12024-2.23048,14.541Z"/>
    <path class="e7c94930-a439-4cc0-bb1f-ff5e64da3af9" d="M246.69805,325.832q-22.56756,23.48444-45.296,47.10826c-.43967.46111-.89005.92222-1.32972,1.38333q-.43965.46108-.02145.02145-3.94088-1.5281-7.89248-3.0562c.45038-.4611.90077-.9115,1.35116-1.37261,14.1121-14.32657,28.26709-28.61024,42.28269-43.01188,3.17415-3.25993,6.05876-5.87646,10.90578-1.07235Z"/>
    <path class="a3aff991-f136-47cf-a3fb-0597d1f10837" d="M330.41626,324.03049c-.20375.28953-.41821.57906-.63268.8686-2.19832,3.03474-4.52531,5.973-6.93809,8.82542-7.93537,9.383-16.78225,17.95111-25.2109,26.873-2.35917,2.49857-4.343,5.79067-7.52789,7.367q-.32171.16086-.64342.28954a8.80851,8.80851,0,0,1-3.59237.622q-.09651-5.38857-.193-10.79856a25.86554,25.86554,0,0,1,1.47984-2.69159,24.20924,24.20924,0,0,1,2.86317-3.68888,29.43088,29.43088,0,0,1,3.68888-3.32428,38.94875,38.94875,0,0,1,3.453-2.33771c.34316-.20375.6863-.4075,1.02946-.60051,11.013-11.31328,22.01531-22.63727,33.72535-34.67974,3.04546,6.0695,1.126,9.72619-1.50128,13.27568Z"/>
    <path class="a3aff991-f136-47cf-a3fb-0597d1f10837" d="M155.80581,329.82116c-10.76637,11.81728-21.80084,23.39863-32.76023,35.05506-.118.39677-.25737.78281-.39677,1.14742a9.55437,9.55437,0,0,1-6.788,6.31613,14.94169,14.94169,0,0,1-7.00244-3.9248,15.071,15.071,0,0,1,.45039-1.79082,14.56453,14.56453,0,0,1,1.66214-3.5173,19.99185,19.99185,0,0,1,5.27595-5.2974c1.36188-.98656,2.80955-1.88732,4.27867-2.75594.33243-.20375.65414-.39676.98656-.5898,9.44739-9.80126,19.0449-19.46311,28.28855-29.4574,2.88461-3.13125,6.1231-4.536,9.01844-1.76937C162.35786,326.61483,157.37144,328.1054,155.80581,329.82116Z"/>
    <path class="a3aff991-f136-47cf-a3fb-0597d1f10837" d="M329.4297,308.61011c-11.10952,11.5492-22.04747,23.25924-33.06049,34.90494-.16085.35388-.32171.697-.48256,1.04018a23.54773,23.54773,0,0,1-2.17686,3.81756,10.45182,10.45182,0,0,1-3.68888,3.32428,9.37509,9.37509,0,0,1-2.4235.84715,10.97156,10.97156,0,0,1-1.7372.2252c.09651-5.10437-2.016-10.11224-.66485-15.27024.28954,2.61653.84715,3.5602,1.60852,3.57092.8686.01071,2.02674-1.2332,3.35646-2.6058q17.77418-18.1602,35.795-36.08451c2.02674-2.00528,3.50658-4.847,6.94881-5.4797,1.91952,4.91136-.20375,8.32142-3.47441,11.71Z"/>
    <path class="ab62f879-87f6-43e3-af81-be4e99d675af" d="M342.93056,325.832c-.18231.34316-.37533.67559-.57908,1.008a43.98271,43.98271,0,0,1-4.50387,6.21963c-3.9677,4.67543-8.66458,8.72891-12.81456,13.23277-6.87375,7.4421-14.04776,14.63754-21.522,21.5113-.118.10724-.2252.21446-.34315.311-.8686.80426-1.7372,1.59781-2.61654,2.39133H289.7099a1.6421,1.6421,0,0,1-.24663-2.26265c0-.02145.03217-.04289.05362-.06434.10724-.10724.21446-.20375.32171-.32171,11.38833-10.99157,21.41479-23.35574,33.00687-34.14356,2.68087-2.49857,5.44753-4.92207,8.34287-7.2169.28954-.2252.57906-.4611.8686-.6863,2.93822-2.327,5.87648-4.49314,10.02646-3.65671,3.28138.65413,1.19029,2.30554.84716,3.66743Z"/>
    <path class="a79ae4eb-975f-47c9-81c0-11aa6b9f331f" d="M177.92836,153.11964c-.56834.57907-1.126,1.15814-1.69431,1.72648-33.32858,34.10067-67.15044,67.70806-99.43885,102.806-.65413.70776-1.29754,1.4155-1.95167,2.12326-1.68359,0-3.3779,0-5.06148-.01073.6863-.71847,1.38333-1.42622,2.06963-2.1447q41.00122-42.36846,81.99173-84.75839,11.27576-11.66179,22.48715-23.39864c.504-.52545,1.01872-1.06162,1.52273-1.58707C177.87473,149.62379,177.89618,151.37172,177.92836,153.11964Z"/>
    <path class="e808f206-d3bf-47a8-86db-b4bc2cf87eb8" d="M240.87519,366.06653a5.73659,5.73659,0,0,0,.83643,1.80154h0l-.01071.01071c-5.8872,4.45024-12.73951,6.39121-19.84916,7.65657.94367-.97584,1.88732-1.94095,2.831-2.91679,14.51958-14.9378,29.10352-29.80056,43.48372-44.867,3.142-3.29212,7.0775-3.77467,11.95667-3.94623-11.59208,12.17115-23.28068,24.2565-34.67973,36.61-1.512,1.64069-5.27595,2.62725-4.5682,5.65128Z"/>
    <path class="acea0357-c6cf-47eb-8382-9b34ca364041" d="M415.72156,288.7395c-16.31041,15.61339-30.77641,33.07122-47.816,47.9447-.57908.51472-1.15812,1.01872-1.74793,1.52273-.73993-4.7934-1.45838-9.60825-2.1983-14.40164-.01074-.10725-.03217-.20375-.04291-.311,2.99186-.21446,2.02676,1.85516,2.24121,3.453q.21441,1.59783,0,.02146a1.85631,1.85631,0,0,0,.4611,1.01872,1.726,1.726,0,0,0,.62195.42894c16.19246-16.10668,32.57794-32.40637,49.43525-49.17789,2.15543,4.26794,1.60852,7.04533-.9544,9.501Z"/>
    <path class="bb9974d1-45e4-41f2-a2de-ea334b103956" d="M231.89964,325.48888c-13.81185,14.2515-27.79526,28.35289-41.73578,42.48643-.37532.386-.76137.78281-1.14742,1.16885a8.91152,8.91152,0,0,1-5.58693-3.89263c.39677-.40749.80426-.815,1.201-1.22247q21.4416-21.84374,42.84032-43.71964c2.09107-2.15541,4.01059-3.528,6.60567-.92222,3.43151,3.43151-.75064,4.63255-2.17687,6.10166Z"/>
    <path class="a3aff991-f136-47cf-a3fb-0597d1f10837" d="M145.96166,323.934c-8.69675,9.59751-17.58651,19.02346-26.41193,28.51373-.16086.35388-.33243.70775-.51473,1.0509a25.58649,25.58649,0,0,1-2.7881,4.31084,35.71,35.71,0,0,1-5.276,5.2974c-.98656.83643-2.00529,1.63-3.05619,2.40207-.45038.33243-.90077.66485-1.36188.98656a13.0679,13.0679,0,0,1-4.57893-6.72363c.46111-.47183.93294-.94367,1.39405-1.41551,12.77167-12.954,25.51116-25.96154,38.42224-38.78683,1.69431-1.68359,3.32428-6.27324,6.84158-2.65942C151.93464,320.30944,147.67742,322.04664,145.96166,323.934Z"/>
    <path class="fcc68e92-34bb-4825-a5db-e06b6cb61cbd" d="M142.21916,311.77354c-13.83329,13.57593-26.11167,28.68531-40.58837,41.63928-.504.47183-1.008.92222-1.512,1.36188-1.32971-2.40206-2.25193-4.8899-1.60852-7.69945.697-.622,1.38333-1.24392,2.06963-1.87661,14.35874-13.10409,27.41994-27.51645,41.16744-41.532,2.831,2.70232,3.44224,5.19016.47183,8.10694Z"/>
    <path class="b22d2285-234f-4769-852f-0d3292aa9789" d="M221.21905,319.666c-10.42323,10.98085-21.26467,21.56492-31.838,32.40636-2.92751,2.99185-6.3054,5.64055-8.4501,9.32943a13.55166,13.55166,0,0,0-.75064,1.40477h0a9.54422,9.54422,0,0,1-4.50386-4.69689c.24664-.25737.504-.51472.75064-.77209,13.6081-13.99415,27.16257-28.06335,40.96371-41.8752,1.80153-1.80154,3.54946-7.24907,7.3563-3.19559,3.5173,3.75322-1.73719,5.52259-3.528,7.39919Z"/>
    <path class="acea0357-c6cf-47eb-8382-9b34ca364041" d="M140.81439,297.10382c-13.651,13.42581-25.88648,28.24565-40.17016,41.06022-.7292.66485-1.46911,1.319-2.21976,1.97312h0c-.02145-3.00258-.03217-5.98371-.05362-8.97555.7721-.82571,1.53346-1.65141,2.30555-2.47712,12.9218-13.89764,25.88649-27.84888,39.64472-42.63656,3.335,6.25179,2.80956,8.78254.49328,11.05591Z"/>
    <path class="e7c94930-a439-4cc0-bb1f-ff5e64da3af9" d="M142.15483,272.0645c.03217,1.61924-.89005,3.99986-2.55219,6.91665-.05362.08579-.09651.17158-.16085.25737-6.30541,10.88432-22.74451,28.98556-38.76539,42.93681q-1.126.9812-2.25193,1.93023h0c-.01072-2.52-.02145-4.99715-.04289-7.49572.76136-.78281,1.53345-1.5549,2.29482-2.33771C114.23088,300.48173,127.81753,286.65916,142.15483,272.0645Z"/>
    <path class="a90dceab-bdb1-40a8-bb47-1f5cc3f39830" d="M144.29952,261.19089q-21.79548,22.21369-43.61239,44.40593c-.76137.77209-1.52274,1.5549-2.28411,2.327q-.04825-3.29746-.08579-6.59493c.78282-.76138,1.56563-1.52273,2.34844-2.29483q20.58909-20.04219,41.1889-40.11654C142.66956,259.67887,143.48454,260.44024,144.29952,261.19089Z"/>
    <path class="b7e3a965-7d1e-4da7-b2e2-4da0e10c1fa9" d="M143.699,216.75278c-14.02631,15.61338-28.192,31.09809-43.70891,45.38177-.52545.49328-1.04017.97584-1.56562,1.44767L97.90974,260.14c.1823-.193.3646-.386.55762-.57907q21.39334-22.48714,42.82958-44.96355C142.10121,215.31583,142.89474,216.0343,143.699,216.75278Z"/>
    <path class="b468074e-398b-4929-a6ae-4e4371330264" d="M184.37317,324.36291c-1.39406.78281-2.84173,1.39406-4.23577,2.1447a13.11652,13.11652,0,0,0-3.18488,2.39133c-14.01559,14.87346-28.18131,29.60753-42.30413,44.37377-.70775.72919-1.4155,1.46911-2.11253,2.19832-1.17958,0-2.35916.02145-3.53875.03217.60051-.64342,1.201-1.2761,1.81227-1.9195,14.44453-15.39892,28.932-30.83,43.91265-46.77582-.25736-.09651-.51473-.1823-.76136-.2788-1.39406-.504-2.6916-.97585-3.957-1.42623h-.02144c-.76137-.2788-1.512-.54689-2.26266-.815q8.31606.03218,16.65357.07507Z"/>
    <path class="ac2daba0-d444-4575-ac8e-3d1ac1fdba8a" d="M332.05695,325.82131c-.2252.26808-.43966.52545-.66485.79354-11.68859,13.91907-25.39321,25.9401-37.7681,39.21576-.70775.76138-1.38332,1.56564-2.03746,2.38062-.622.77209-1.24392,1.54418-1.8766,2.30554-1.705.45038-3.43152.94367-3.839-1.64069.82571-.82572,1.65141-1.66215,2.47712-2.48786q20.66952-20.83035,41.37119-41.66073l.697-.697c.54689.60051,1.0938,1.19031,1.64069,1.79082Z"/>
    <path class="a5b286a8-b68e-4591-9a3b-564470508646" d="M143.11994,246.103q-21.21641,22.03676-42.44354,44.08423c-.73992.76138-1.46912,1.53345-2.209,2.29483-.03217-1.89806-.06434-3.78539-.10723-5.68345.76136-.82572,1.52273-1.64069,2.2841-2.46641q19.3827-20.8947,38.76539-41.80012C140.64282,243.72234,141.88674,244.91264,143.11994,246.103Z"/>
    <path class="b472de32-5580-4f1f-a30b-f8c857396a8b" d="M143.43092,231.64769q-21.37726,21.94024-42.76525,43.88049c-.73992.7721-1.49056,1.53345-2.24121,2.30555-.02144-1.823-.03217-3.646-.05361-5.469.76136-.80426,1.512-1.61925,2.27337-2.42351q19.5918-20.91078,39.1836-41.7894Q141.62938,229.889,143.43092,231.64769Z"/>
    <path class="bca6e0de-7b68-4e3e-911a-d2f64467aed5" d="M362.53308,324.10554q-20.97513,22.77669-41.95025,45.55335c-1.32972,1.43694-2.70232,2.27337-4.58965,1.01872.24664-.26808.48256-.52545.72919-.79354,14.10137-15.24879,27.55936-31.07664,42.9261-45.11368.24665-.23592.504-.4611.76135-.697.34316,0,.67559.01072,1.01875.01072C361.79316,324.09481,362.16849,324.09481,362.53308,324.10554Z"/>
    <path class="a0a50e35-2639-43b3-8ee0-2fa78eba9fb6" d="M344.52835,327.60141c-.18231.193-.35386.37533-.53617.56834q-18.8519,19.99392-37.70377,39.98787c-.75064.78281-1.49056,1.57635-2.23048,2.35916h-3.50659c.71847-.79354,1.42623-1.5978,2.15542-2.39133,12.77167-14.21933,25.74707-28.23493,39.47315-41.54277.24665-.25737.504-.49329.75065-.73992.53618.58979,1.06162,1.17959,1.59779,1.76936Z"/>
    <path class="b0f3c00a-8edc-46a8-aaac-435f2bf8612e" d="M98.28506,246.7678q9.0399-8.20345,18.06906-16.40693-13.28638,13.67244-26.57278,27.32343c-.66486.6863-1.32971,1.38333-2.00529,2.06963-1.26538,0-2.54147,0-3.80684.01072.78281-.70775,1.55491-1.4155,2.33772-2.12325q5.74242-5.2116,11.48485-10.43395c.16085-.1394.33243-.28953.49328-.43967Z"/>
    <path class="b0f3c00a-8edc-46a8-aaac-435f2bf8612e" d="M132.3214,215.86273q-7.97828,7.25444-15.96727,14.49814,7.52788-7.737,15.04505-15.474C131.71016,215.21931,132.02114,215.541,132.3214,215.86273Z"/>
    <path class="a88d1015-4400-4c0a-915a-d1478a902a93" d="M446.81965,326.52906q-20.87864,21.136-41.73577,42.29341c-1.319,1.34044-2.67013,2.34845-4.66472,1.52273q8.91123-9.10423,17.82242-18.19774,10.05327-10.27847,20.07436-20.59982c1.71576-1.75865,3.84973-3.19559,5.2438-5.2545a8.36514,8.36514,0,0,0,1.04018-2.04819c.21448.2252.43966.45039.65411.67559C445.77947,325.45671,446.29421,325.99288,446.81965,326.52906Z"/>
    <path class="afe12583-fe63-4ab0-a977-4cfa58092ecf" d="M200.42622,324.54521c-7.92465,10.60552-17.91894,19.32372-26.68,29.17858-.22519.24664-.43967.49329-.66486.75064-.97584-.67558-1.95167-1.34043-2.91679-2.016-.05362-.07507-.0965-.15013-.15012-.2252l-.16086-.25737c-.08579-.118-.16085-.23592-.24664-.35387a2.13489,2.13489,0,0,0-.12869-.20375c6.36975-8.33215,14.07993-15.33458,21.70433-22.44424.63268-.5898,1.27609-1.17959,1.90878-1.79082.48255-.43967.95439-.87933,1.42622-1.32972q2.57364-1.01337,5.12582-2.00528c.10725.0965.20375.18229.311.2788.02145.02145.05362.04289.07507.06434.12868.118.26809.23592.39676.35388Z"/>
    <path class="fdb10186-69dd-4e7e-8f1a-7998ab166da5" d="M121.51213,354.46373c-.21448.23592-.43967.48255-.65414.71847q-5.42072,5.96763-10.84144,11.95668c-.386.42893-.77209.84715-1.15814,1.27609-.77209-.64341-1.54418-1.28681-2.30555-1.91949.28954-.49329.58979-.96511.9115-1.43694,3.07764-4.66473,7.22762-8.36432,11.40978-12.021.22519-.193.45039-.39677.67558-.5898C120.20385,353.1233,120.858,353.78815,121.51213,354.46373Z"/>
    <path class="a63f1d52-abde-48f1-b64b-55003ad7c8ad" d="M298.1922,345.43456l-.57906.80426a57.025,57.025,0,0,1-10.49828,10.702c-.47184.38605-.95439.76138-1.437,1.13669-1.66214-1.823-.33242-3.54947.1823-5.30812.66485-.5898,1.32972-1.16886,1.99457-1.75865q3.9248-3.45831,7.86031-6.92738c.21447-.18229.43967-.37533.65413-.56834.61125.64341,1.22248,1.28681,1.823,1.9195Z"/>
    <path class="ba379232-3a67-49b7-b82c-736485026f8c" d="M170.15384,352.45843c-5.27595,5.36174-9.73693,11.55991-16.11739,15.81713a15.25218,15.25218,0,0,1,1.26537-3.39934c2.70231-5.22233,8.03188-8.25708,11.97812-12.43924a1.61308,1.61308,0,0,1,1.87661-.27881,3.21887,3.21887,0,0,1,.30026.1823c.01072.01072.02144.01072.03217.02145Z"/>
    <path class="ad2c6cff-e8b1-4e9f-ad6d-e22af976c86f" d="M124.94364,366.8279c-.20375.25737-.4075.52546-.61124.78281q-1.81764,2.28411-3.63526,4.57893c-.41822.52546-.84716,1.06163-1.26537,1.59781-1.46912.21447-2.76666-.01072-3.57092-1.44768.37532-.386.73991-.77209,1.11524-1.15814,1.823-1.88732,3.646-3.78538,5.469-5.67271.193-.21447.39677-.41822.60052-.63268.63268.65413,1.26537,1.29755,1.89806,1.95168Z"/>
    <path class="eff42a3f-4718-408c-84ba-7c14e1cefbf4" d="M366.88682,320.11642c-1.57636-3.34572-.78283-5.59766,1.35116-7.71018,16.18173-16.04234,32.33129-32.12756,48.64173-48.35218,1.84444,2.56291,1.55492,4.87919-.15014,6.58422C400.22611,287.131,383.62619,303.52719,366.88682,320.11642Z"/>
    <path class="eff42a3f-4718-408c-84ba-7c14e1cefbf4" d="M417.70541,233.61009c-.73992,7.59223-34.57249,43.93411-50.99014,55.76211-1.83371-3.32428.03217-5.56549,2.23047-7.73163,15.98871-15.7528,31.97743-31.49487,48.7704-48.0412Z"/>
    <path class="ad77faea-7753-4ea6-8629-77c5dee30ef2" d="M366.03965,303.13041c14.76622-19.85989,33.84331-35.68774,51.44054-54.53962C416.78317,255.95782,381.9962,292.95383,366.03965,303.13041Z"/>
    <path class="fba1e8b1-920e-4560-a13d-0abe0ffbd312" d="M288.40167,264.95482c-13.029,12.525-24.71763,23.7954-36.44912,35.01217-1.16885,1.11524-2.29482,3.38863-4.26794,1.90878-2.40207-1.80154-.6863-3.71033.73992-5.21161q14.65364-15.42573,29.39307-30.77639c2.33771-2.445,5.14727-2.55219,10.5948-.94366Z"/>
    <path class="f69cef5d-4b2e-4b0b-ab31-9c9f413a242c" d="M369.41757,271.36747c15.27023-14.76624,32.73879-31.645,50.19662-48.53447-.92221-.933-1.85518-1.85517-2.77738-2.78811C416.99766,224.97769,385.89956,258.20977,369.41757,271.36747Z"/>
    <path class="eff42a3f-4718-408c-84ba-7c14e1cefbf4" d="M301.39852,274.93839c8.70747-12.36417,23.51661-15.12011,31.85947-28.65314-.54689,14.348-18.65885,29.92924-31.85945,28.65314Z"/>
    <path class="fba1e8b1-920e-4560-a13d-0abe0ffbd312" d="M280.595,279.59238a7.71689,7.71689,0,0,1-1.45839,9.47955c-5.72634,5.99442-11.79583,11.65642-17.7152,17.44711-1.67286,1.63-3.60309,2.29482-5.51187.697-1.008-.84715-.42893-2.17687.43967-3.07764C264.25237,295.96714,271.30842,286.91652,280.595,279.59238Z"/>
    <path class="bce2b7b3-0ff0-4f05-8560-ce885a6293c2" d="M241.7867,287.34545c.25736-5.14728,17.61868-22.81957,25.21089-22.90536C258.16144,272.472,249.16444,280.64327,241.7867,287.34545Z"/>
    <path class="acea0357-c6cf-47eb-8382-9b34ca364041" d="M386.44647,224.656c-6.58424,6.75579-13.01832,13.36145-19.44168,19.9564C364.92443,232.82728,372.8062,224.72032,386.44647,224.656Z"/>
    <path class="a86b5424-281b-4a82-8d59-b6ecfd5c017b" d="M180.28752,297.30757q13.7207-12.9325,27.44139-25.865C199.13941,280.461,189.72418,288.84675,180.28752,297.30757Z"/>
    <path class="a57623b1-c89f-411d-93cf-efc77da64b6a" d="M204.67273,258.63869c-5.87647,8.27853-15.03433,16.54634-25.32887,23.74178C188.33013,273.96253,197.31642,265.53388,204.67273,258.63869Z"/>
    <path class="afb9eab2-3681-4ea6-a695-5b78101bb6f9" d="M179.20445,267.38906c6.5306-12.06392,17.77953-20.07436,27.495-29.47885C199.83643,249.69531,189.499,258.435,179.20445,267.38906Z"/>
    <path class="a96c0fd3-8c78-43f2-995e-925b18cb721c" d="M199.64341,323.84819c-.20375-10.54119,9.42593-14.037,14.87346-20.514a1.85986,1.85986,0,0,1,3.0133.33243c1.25464,1.89806.21447,3.34572-1.0509,4.63255-5.32957,5.43681-10.702,10.83072-16.05305,16.24607A3.04593,3.04593,0,0,0,199.64341,323.84819Z"/>
    <path class="b64438db-5c40-480b-b857-d4655449c14d" d="M272.3915,209.8683c-9.17929,9.36161-19.52745,19.91351-29.33944,29.91852C244.25308,234.87546,265.16387,213.63225,272.3915,209.8683Z"/>
    <path class="b97c60a1-fe69-4a01-a4b1-78bc64a45453" d="M209.23021,283.32414q-10.40715,10.88972-20.80356,21.79013c-.77209-.72919-1.5549-1.4584-2.327-2.18759,5.69416-8.41794,13.99413-14.41236,20.5033-22.06892.87933.82571,1.75865,1.64069,2.638,2.4664Z"/>
    <path class="a57623b1-c89f-411d-93cf-efc77da64b6a" d="M367.83049,258.44567q15.7635-16.037,31.51629-32.08465c-.73992-.75064-1.47984-1.512-2.209-2.26266q-16.02087,15.77959-32.031,31.56993Z"/>
    <path class="a90dceab-bdb1-40a8-bb47-1f5cc3f39830" d="M313.30158,289.47943c2.99184-10.63769,12.5143-15.72063,19.79554-22.71234C329.805,277.14742,320.53991,282.45554,313.30158,289.47943Z"/>
    <path class="f3a120da-15ee-45bb-9b9b-1ae6e09e7169" d="M284.45542,275.11c5.28667-5.13655,7.95682-12.45,18.01545-10.86288C297.581,270.31657,294.72852,277.36191,284.45542,275.11Z"/>
    <path class="b472de32-5580-4f1f-a30b-f8c857396a8b" d="M280.56279,217.43908q-14.911,13.22205-29.81128,26.4441l1.67286,1.705q13.88155-14.26759,27.75237-28.53518Z"/>
    <path class="f3a120da-15ee-45bb-9b9b-1ae6e09e7169" d="M265.11027,245.00915c6.20889-6.048,11.97812-11.65643,17.72591-17.25408C283.56537,233.44924,273.78556,243.33629,265.11027,245.00915Z"/>
    <path class="e22d06b3-65c1-48f1-9fab-8ef576f82f91" d="M264.1666,205.1178c-5.19017,6.97027-11.15242,11.0023-17.73664,16.46054,1.35116-11.33471,8.16057-14.39091,17.73665-16.46054Z"/>
    <path class="e5345bab-9876-4359-b342-95d10a33b49e" d="M333.23654,234.82184c-2.27337,8.77181-10.316,12.67516-16.33186,18.29426C319.93943,244.977,326.84536,240.11924,333.23654,234.82184Z"/>
    <path class="bbf9c0b6-ef5b-426b-9a6e-51807d47752c" d="M194.51759,325.85347c-.41822.45039-.84716.89006-1.26537,1.34044-.87933.93294-1.75865,1.86589-2.6487,2.79883l-5.24379,5.56549-.03217.03217q-7.737,8.18738-15.474,16.38548c-.10723.118-.22519.23591-.33242.35387l-.03217.03217h-.10724c-.1394.01072-.26808.01072-.40749.02145-.56834.01072-1.126.03217-1.69431.05362,6.91664-9.51172,15.50615-17.45782,23.94554-25.554.35387-.33243.697-.67559,1.0509-1.008h0l.01073-.01072c.73992,0,1.49056-.01072,2.23048-.01072Z"/>
    <path class="a816c77b-15f1-4643-8c77-61ab28456c3b" d="M333.02208,222.27537c-3.32429,7.72091-10.02647,12.31055-16.65357,16.99672C319.59627,231.54046,325.8159,226.479,333.02208,222.27537Z"/>
    <path class="e0f97ebb-6c9e-4997-b45f-27edaf15ad56" d="M333.48318,206.973c-6.863,6.32686-13.71533,12.65371-19.14142,17.65085C314.98517,221.57834,322.34148,213.5679,333.48318,206.973Z"/>
    <path class="b97c60a1-fe69-4a01-a4b1-78bc64a45453" d="M211.43924,292.97528c-.92222,5.82284-5.09365,8.67529-10.69131,13.07192C202.50658,298.35847,206.97827,295.6347,211.43924,292.97528Z"/>
    <path class="e98f4498-deef-4d6e-9727-16044ebf6844" d="M404.33323,219.9591c2.61653-6.23034,8.10695-9.94068,13.10409-14.09066C414.98164,212.23819,409.52339,215.98069,404.33323,219.9591Z"/>
    <path class="b97c60a1-fe69-4a01-a4b1-78bc64a45453" d="M241.776,272.41837c-1.89806-7.5386.41822-10.09079,7.51716-8.06405C248.1457,268.09681,245.38977,270.027,241.776,272.41837Z"/>
  </g>
</svg>
