<svg id="Layer_1" data-name="Layer 1" xmlns="http://www.w3.org/2000/svg" width="512" height="512" viewBox="0 0 512 512">
  <path id="path68" d="M123.24115,288.22831s-7.02113-34.8936,30.11241-77.1519c37.1369-42.257,64.9993-57.62319,95.09158-65.6274,0,0-.02549.01543-.05234.03087.03825-.01007.0765-.02081.11408-.03087,0,0-23.63886,13.7678-23.63886,34.57351,0,6.03939.96294,10.18913,2.297,12.96121,1.77022,3.68269,4.57383,4.93486,7.09092,4.94693,2.12117.01208,3.3626-.85961,6.0461-1.90174V308.71326a9.90089,9.90089,0,0,0,1.9212,3.96922c2.34866,3.09552,6.04007,6.8735,12.97463,6.91175,11.82983-.07583,26.70888-13.43832,26.70888-13.43832V214.91813c0-9.28188-6.64266-20.487-13.68191-24.33137,0,0,.95892-.06039,2.51171-.05973,4.64764-.00134,14.618.53012,20.17359,4.77448,1.5434-1.78833,26.4512-29.97216,70.77229-38.64474l-.02148.02483c.04094-.008.08052-.01677.12146-.02483,0,0-24.51458,28.86561-32.198,43.18032-1.36557.08119-1.56487,27.15781-1.33739,54.21362.22078,26.117.84081,52.21927,1.20049,54.025,0,0,2.61574,3.888,9.27652,3.92158,7.513.03825,20.17357-4.82816,40.02306-25.69292l-.00068.00067.00068-.00067s-.52342,1.18842-1.577,3.29349c-5.68843,11.36613-26.825,49.47-64.36988,71.61713l-.002-.002-.00336.002L288.44267,340.6187l-.62206-.51939L261.2607,368.261l-.04026-.004-.00336.004s-60.54961-5.12208-85.83923-41.61477l.11944.04361c-.01073-.01476-.02147-.02885-.03153-.04361a26.68984,26.68984,0,0,0,8.15184,1.57158C188.682,328.31042,194,326.46035,194,317.99849V232.20555c0-4.38124-3.01634-9.296-9.63753-9.27717-5.9548.01543-14.5039,4.02224-26.17737,15.99969-24.65012,25.28829-34.88689,49.30024-34.88689,49.30024s-.00671-.03288-.01745-.09126c-.02416.05637-.03959.09126-.03959.09126m134.508,145.45342A176.82606,176.82606,0,1,0,132.7136,381.89057a175.67029,175.67029,0,0,0,125.03557,51.79116"/>
  <path id="path72" d="M257.7493,71.88775c102.15432,0,184.96714,82.81282,184.96714,184.96714S359.90362,441.822,257.7493,441.822,72.78216,359.00921,72.78216,256.85489,155.595,71.88775,257.7493,71.88775m0,375.19328a190.22549,190.22549,0,1,0-134.51-55.7161,188.98028,188.98028,0,0,0,134.51,55.7161"/>
</svg>
