<svg id="b6dd7faf-66b1-45a8-b9ba-442ba9cea628" data-name="Layer 1" xmlns="http://www.w3.org/2000/svg" width="512" height="512" viewBox="0 0 512 512">
  <defs>
    <style>
      .a826bbd0-7221-4f59-b9f0-e90edbbbd01a {
        fill: #00aeef;
      }
    </style>
  </defs>
  <g>
    <path class="a826bbd0-7221-4f59-b9f0-e90edbbbd01a" d="M116.23583,182.33144a7.143,7.143,0,0,0-14.28541,0v31.91281a3.55261,3.55261,0,0,1-3.60412,3.60411,3.47618,3.47618,0,0,1-3.60411-3.60411V182.33144a7.07718,7.07718,0,0,0-14.15436,0v31.91281a3.60412,3.60412,0,0,1-7.20823,0V182.33144a6.937,6.937,0,0,0-6.94611-7.07718,7.13216,7.13216,0,0,0-7.07718,7.07718v42.5941a7.13215,7.13215,0,0,0,7.07718,7.07717h42.72516a7.13215,7.13215,0,0,0,7.07717-7.07717Zm0,63.95669a7.13215,7.13215,0,0,0-7.07717-7.07717H62.96043a3.55261,3.55261,0,0,0-3.60411,3.60412v3.60411a7.13215,7.13215,0,0,0,7.07717,7.07717H98.3463a3.55261,3.55261,0,0,1,3.60412,3.60412v15.92363a14.23072,14.23072,0,1,1-28.43976-.78636,17.72781,17.72781,0,0,1,2.8833-8.84647,1.71552,1.71552,0,0,0-1.37612-2.75224H66.43349a7.13215,7.13215,0,0,0-7.07717,7.07717v21.36258a7.13215,7.13215,0,0,0,7.07717,7.07717H109.0276a7.13215,7.13215,0,0,0,7.07717-7.07717V246.35364h.13106ZM94.87325,272.89307V262.21178a1.87519,1.87519,0,0,0-1.83483-1.83481c-3.60411,0-12.45058,4.456-12.45058,12.45058a7.14346,7.14346,0,0,0,14.28541.06552"/>
    <path d="M254.50285,247.20554v4.98023h9.5673a1.66448,1.66448,0,0,1,1.63823,1.63824v6.09422a3.35608,3.35608,0,0,1-3.342,3.342h-7.92906v16.25128c0,4.12834,1.245,5.70106,4.71811,5.70106a8.15918,8.15918,0,0,0,4.58706-1.245,1.361,1.361,0,0,1,2.09694.52423c.72083,1.63823,2.62118,6.4874,2.62118,6.4874a1.57919,1.57919,0,0,1-.52424,1.96588c-2.88329,2.228-8.19118,3.60412-13.17141,3.60412-9.30518,0-13.89223-4.84917-13.89223-14.80965V245.56728a1.66448,1.66448,0,0,1,1.63823-1.63823h8.58436a3.35712,3.35712,0,0,1,3.40753,3.27649ZM197.0991,239.211h-8.71541a1.69067,1.69067,0,0,0-1.63823,1.24506l-8.38776,35.648-9.04306-34.40293a3.4407,3.4407,0,0,0-3.342-2.49011H156.733a1.81629,1.81629,0,0,0-1.63824,1.24506l-9.30517,35.18927-8.06012-34.00975a3.27888,3.27888,0,0,0-3.342-2.49011h-9.56729a1.562,1.562,0,0,0-1.50717,2.09695l13.56458,52.29246a3.4407,3.4407,0,0,0,3.342,2.49011h11.53317a1.81628,1.81628,0,0,0,1.63824-1.245l8.58435-32.69916,8.32223,31.4541a3.60406,3.60406,0,0,0,3.342,2.49011h11.53317a1.81629,1.81629,0,0,0,1.63824-1.245l13.49906-51.44059A3.35842,3.35842,0,0,0,197.0991,239.211Zm255.4991,3.27647v47.31223a3.49867,3.49867,0,0,1-1.83481,2.88329c-4.456,2.88329-9.043,3.9973-15.53048,3.9973-14.15435,0-23.72165-7.798-23.72165-22.47658,0-14.54753,9.17412-22.60764,19.39671-22.60764a15.84189,15.84189,0,0,1,7.798,1.63824h.13107V240.78368a1.66449,1.66449,0,0,1,1.63823-1.63823h8.71541A3.41293,3.41293,0,0,1,452.5982,242.48743ZM438.837,264.57082a8.469,8.469,0,0,0-5.24235-1.63823c-6.09423,0-9.43623,3.9973-9.43623,10.94342,0,7.60141,3.9973,11.92635,11.53318,11.92635a18.71277,18.71277,0,0,0,3.342-.39318V264.63636Zm-216.64017,4.58706v-1.37612c0-3.86623-3.99729-5.70106-7.798-5.70106a23.32394,23.32394,0,0,0-9.56729,2.35906,1.63792,1.63792,0,0,1-2.228-.98294c-.52424-1.63824-2.228-6.48741-2.228-6.48741a1.58525,1.58525,0,0,1,.85188-1.96588,37.40882,37.40882,0,0,1,15.53047-3.342c12.31953,0,18.61034,5.24235,18.61034,15.66152v24.11481a3.4506,3.4506,0,0,1-2.75223,3.21093,47.8153,47.8153,0,0,1-15.26835,2.09695c-13.17141,0-20.64176-4.71812-20.64176-13.43352,0-9.30519,8.58435-14.2854,20.24858-14.2854C218.19957,269.02684,222.19686,269.15788,222.19686,269.15788Zm0,8.06013a25.9095,25.9095,0,0,0-4.58706-.39318c-4.71811,0-8.19117,2.49011-8.19117,5.83211,0,3.07989,3.07988,5.24235,7.33929,5.24235a38.65514,38.65514,0,0,0,5.43894-.39318Zm115.65939,15.07176,17.75847-52.1614a1.58966,1.58966,0,0,1,1.50717-1.114h11.92636a3.51878,3.51878,0,0,1,3.21093,2.228l18.02058,52.42351a1.53752,1.53752,0,0,1-1.50716,2.09695h-9.30519a4.25646,4.25646,0,0,1-3.99729-2.88329l-2.62118-8.84647H354.82836l-3.21094,10.55024a1.88745,1.88745,0,0,1-1.83481,1.37612h-9.43623a2.764,2.764,0,0,1-2.49013-3.66965Zm19.8554-18.02058h12.0574l-5.96318-20.37965Zm37.876-20.51072a1.6645,1.6645,0,0,0-1.63824,1.63824v37.28622a3.35607,3.35607,0,0,0,3.342,3.342h8.58435a1.66448,1.66448,0,0,0,1.63824-1.63823V257.10048a3.35608,3.35608,0,0,0-3.342-3.342Zm5.1113-16.25128c-3.99729,0-6.81505,2.49011-6.81505,6.35636,0,3.73519,2.75224,6.35636,6.81505,6.35636,3.9973,0,6.81506-2.49011,6.81506-6.35636S404.69623,237.50719,400.69893,237.50719Zm-78.24209,14.87516h-6.94612a1.66449,1.66449,0,0,0-1.63823,1.63824v38.66234a3.35607,3.35607,0,0,0,3.342,3.342h8.58436a1.66448,1.66448,0,0,0,1.63823-1.63823V273.876c0-5.96318,3.9973-10.41917,9.43623-10.41917a11.806,11.806,0,0,1,3.342.26211,1.52226,1.52226,0,0,0,1.83482-1.114l2.49011-8.19117a1.53264,1.53264,0,0,0-1.114-1.96588,19.26874,19.26874,0,0,0-5.83211-.85188,14.91562,14.91562,0,0,0-11.79529,6.35636v-2.35906a3.33172,3.33172,0,0,0-3.342-3.211Zm-14.54753,25.622h-26.736c.85189,5.11129,6.48741,7.92906,11.66424,7.92906a20.86656,20.86656,0,0,0,8.19117-1.50717,1.81153,1.81153,0,0,1,2.09694.85188l2.62118,6.4874a1.668,1.668,0,0,1-.85189,2.09695,28.5413,28.5413,0,0,1-13.30247,2.75224c-16.25129,0-22.60764-10.41917-22.60764-22.21446,0-14.2854,7.798-22.86975,20.77282-22.86975,11.53318,0,19.98646,7.07717,19.98646,19.72435,0,1.83482-.13105,3.342-.26211,5.24235a1.58179,1.58179,0,0,1-1.5727,1.50715ZM298.0799,269.42a8.00719,8.00719,0,0,0-8.06012-7.47035c-5.43894,0-8.84647,4.456-8.84647,7.47035Z"/>
  </g>
</svg>
