<svg id="bcadc73d-6b71-4651-bbba-e43c00c56a37" data-name="Layer 1" xmlns="http://www.w3.org/2000/svg" width="512" height="512" viewBox="0 0 512 512">
  <defs>
    <style>
      .a8ff4747-dfc0-4fa4-8518-3da53d3eb0b5 {
        fill: #272728;
      }
    </style>
  </defs>
  <g>
    <path class="a8ff4747-dfc0-4fa4-8518-3da53d3eb0b5" d="M218.395,374.14621a5.29144,5.29144,0,0,0-5.1278,3.15543l-9.86192,25.641-.78935,2.76175-.78736-2.76175L193.93905,378.091v-.39368a5.61824,5.61824,0,0,0-5.1278-3.55108H176.18759a5.25565,5.25565,0,0,0-4.73412,5.52347c0,.78736.39368,1.57671.39368,2.3621l1.57672,5.52347-5.91716,15.3814-1.183,2.76372-.78935-2.76372L158.03848,378.087v-.39368h-.39368a4.73547,4.73547,0,0,0-4.73413-3.55107H140.289a5.13058,5.13058,0,0,0-4.34043,7.88556l18.53882,56.01809a5.4498,5.4498,0,0,0,5.12979,3.94079,5.61949,5.61949,0,0,0,5.1278-3.54911l13.01734-33.13485,1.183-3.15543.78935,3.15543,11.045,32.74317a5.10989,5.10989,0,0,0,5.1278,3.94079,5.62009,5.62009,0,0,0,5.12978-3.54911l22.08991-56.8015a5.0051,5.0051,0,0,0,.39369-2.36607,5.218,5.218,0,0,0-5.12581-5.12382Zm93.48942,0a5.28768,5.28768,0,0,0-5.1278,3.15543l-9.86192,25.641-.78737,2.76175-.78737-2.76175L287.42845,378.091v-.39368a5.61551,5.61551,0,0,0-5.12582-3.55108H269.677a5.25564,5.25564,0,0,0-4.73412,5.52347,4.98936,4.98936,0,0,0,.39368,2.3621l1.5787,5.52347-5.91913,15.3814-1.185,2.76372-.78737-2.76372L251.52787,378.087l-.39369-.39368a4.73476,4.73476,0,0,0-4.73213-3.55107H233.77839a5.12792,5.12792,0,0,0-4.33845,7.88556l18.54082,56.01809a5.448,5.448,0,0,0,5.12979,3.94079,5.61674,5.61674,0,0,0,5.12581-3.54911l13.02131-33.13485,1.183-3.15543.78737,3.15543L284.277,438.04592a5.10766,5.10766,0,0,0,5.12582,3.94079,5.62011,5.62011,0,0,0,5.12979-3.54911l22.08792-56.8015a5.00522,5.00522,0,0,0,.39368-2.36607,5.22421,5.22421,0,0,0-5.12979-5.12382Zm60.74626,0H328.84257a4.55462,4.55462,0,0,0-4.73014,4.73411v57.98651a5.142,5.142,0,0,0,5.12582,4.73412h12.226a4.55671,4.55671,0,0,0,4.73411-4.73412V409.6511h18.14712a5.09237,5.09237,0,0,0,4.73213-4.73411,5.16414,5.16414,0,0,0-4.73213-5.12979H346.19837V384.4058h26.43034a5.12978,5.12978,0,0,0,.002-10.25956ZM304.78227,188.748c7.89153,8.67889,8.6769,35.50292,28.79443,24.85164,11.83233-6.31084,11.83233-33.13487-4.33845-42.99678-13.02132-7.49586-20.11952,2.76173-24.85363,15.3834-.39169,1.183-.39169,1.97238.39765,2.76173Zm-31.16248-4.33845c-8.6769,6.70651-14.20037,26.03468-29.58378,19.32817-12.62166-6.31084-13.8047-30.76879,7.88954-42.20743,14.98972-7.10019,22.48558,6.7065,22.48558,21.30056a3.01067,3.01067,0,0,1-.79134,1.5787ZM294.133,232.92785c8.28322-.78737,6.31084-8.67689,0-10.25559a56.5182,56.5182,0,0,0-20.11753-2.76174c-10.65128,0-10.2556,8.28322-4.73611,9.86192,4.34043,1.183,7.09819,1.57671,10.64929,6.31084,3.1574,6.31283,1.58068-1.97238,14.20434-3.15541ZM333.185,95.65429c10.25559-17.35579,28.40073-14.20037,37.4753-5.52148,9.8639,9.46625,11.83431,20.5112,7.89152,28.00706-5.12979,10.2556-18.53881,22.48558-27.21771,10.65127-3.9408-5.52148-11.83431-11.8343-16.56644-13.413C328.0552,112.22272,326.87415,106.30357,333.185,95.65429Z"/>
    <path class="a8ff4747-dfc0-4fa4-8518-3da53d3eb0b5" d="M374.60507,171.78594c-.78737-3.15542-2.36806-2.76174-2.36806-.39369.78936,31.55617-18.14315,65.48236-58.3782,65.876-10.2556,0-7.0982,16.17475-26.03468,7.88954-13.413-9.07258-21.30254,9.07258-30.77078-10.2556-2.36607-5.52347-5.52347-7.88954-9.46824-9.07257-39.84138-9.86192-52.465-64.693-17.35579-108.87283,6.7065,4.34044,9.46625,5.1278,16.96211-1.97239a44.46242,44.46242,0,0,1,13.8047-8.67888c8.28322-3.15542,13.01932-6.70651,5.52148-22.87926-3.45167-7.61913-8.154-11.67723-13.16446-13.413H239.95406A30.74892,30.74892,0,0,0,229.438,75.53677c-10.25561,8.28322-16.96211,21.30055-4.34243,36.68595-35.49695,24.06229-41.80778,53.64606-41.02042,79.68074.78736,27.21772-5.91715,24.85165,2.76174,52.463.78736,2.36806-1.183,2.36806-2.36607,1.58069-37.07963-23.66861-57.19716-96.25116.78935-136.09252,1.183-1.183.78935-2.76174-3.94477,0-50.099,26.43034-54.83109,77.71034-46.54787,112.42391,3.94477,16.56644-1.97238,19.72384,4.34044,41.81375,14.98972,45.75852,27.61139,49.69931,45.75653,50.88632,32.74118,0,10.25561-18.14514,11.83431-40.63071,0-1.58069,1.5787-1.97238,2.36606.78737,18.14514,40.23306,30.7688,76.921,78.104,73.36991,27.21572-3.5491,12.226-16.96212,10.25361-24.85363-20.11553-66.66142,28.79443-82.44049,14.98973-17.3558-9.07058,37.47529,19.72384,33.52856,40.23505,20.11752,20.90886-13.409,46.94751-104.5304,31.95779-154.62736ZM294.92035,251.073c-4.73411,11.8363-28.00706,7.89153-28.79641-3.94279,0-.39367.78935-.39367.78935,0,10.64929,2.36607,20.50923,3.54911,27.21573,3.54911.39766,0,.79135-.39368.79135.39368Z"/>
    <path class="a8ff4747-dfc0-4fa4-8518-3da53d3eb0b5" d="M192.754,335.48986a11.63812,11.63812,0,0,1-23.27294,0,11.86526,11.86526,0,0,1,11.8343-11.83232C187.62623,323.65555,192.754,329.177,192.754,335.48986Zm-11.43864-13.80669c-7.88954,0-14.20037,5.91915-14.20037,13.80469a14.00394,14.00394,0,0,0,28.00508,0,13.71942,13.71942,0,0,0-13.80471-13.8047Z"/>
    <path class="a8ff4747-dfc0-4fa4-8518-3da53d3eb0b5" d="M185.26016,337.46222a3.74226,3.74226,0,0,1-3.55109,3.1574,4.89166,4.89166,0,0,1-4.73412-5.12979c0-2.76175,1.57871-5.12582,4.34044-5.12582a3.91932,3.91932,0,0,1,3.94477,2.76175h1.97238c-.39566-3.15543-2.76173-4.73411-5.91715-4.73411-3.94476,0-6.7065,3.15543-6.7065,7.09821a6.83458,6.83458,0,0,0,7.10019,7.10019c2.76173,0,4.73412-1.97039,5.52347-5.1278h-1.97239ZM375.39442,353.635a11.63812,11.63812,0,0,1-23.27294,0,11.86566,11.86566,0,0,1,11.83232-11.8363C370.26264,341.79869,375.39442,347.32216,375.39442,353.635ZM363.9538,339.8283c-7.89152,0-14.20235,5.91915-14.20235,13.80669a14.00494,14.00494,0,0,0,28.00706,0A13.71984,13.71984,0,0,0,363.9538,339.8283Z"/>
    <path class="a8ff4747-dfc0-4fa4-8518-3da53d3eb0b5" d="M361.58575,354.42434h1.97039l3.55308,5.91915h2.36209l-3.94278-5.91915c1.97238-.39568,3.54911-1.185,3.54911-3.55108,0-2.76175-1.57672-3.94278-4.73213-3.94278H359.6114v13.413h1.97039l.004-5.91915Zm0-1.57671v-3.94476h2.36607c1.57671,0,3.1574,0,3.1574,1.58069,0,2.36407-1.58069,2.36407-3.1574,2.36407Z"/>
  </g>
</svg>
