<svg id="Layer_1" data-name="Layer 1" xmlns="http://www.w3.org/2000/svg" width="16" height="16" viewBox="0 0 16 16">
  <defs>
    <style>
      .cls-1 {
        fill: #707070;
      }
    </style>
  </defs>
  <g>
    <path class="cls-1" d="M.647,5.37119A8.13019,8.13019,0,0,0,.2472,7.9076h0a7.57152,7.57152,0,0,0,1.969,5.21036l3.34405-3.344Z"/>
    <path class="cls-1" d="M15.75281,7.90761h0A8.13019,8.13019,0,0,0,15.353,5.37119L10.43975,9.77394l3.344,3.344A7.57156,7.57156,0,0,0,15.75281,7.90761Z"/>
    <path class="cls-1" d="M9.16293,10.91809a1.68916,1.68916,0,0,1-2.32584,0l-.71024-.63644L2.77214,13.63637A5.158,5.158,0,0,0,6.0618,14.85488H9.93821a5.15794,5.15794,0,0,0,3.28967-1.21851L9.87316,10.28166Z"/>
    <path class="cls-1" d="M8.58147,10.17657l6.33458-5.67641a5.69676,5.69676,0,0,0-4.97784-3.355H6.0618A5.69677,5.69677,0,0,0,1.084,4.50016l6.33459,5.67641A.84817.84817,0,0,0,8.58147,10.17657Z"/>
  </g>
</svg>
