<svg id="Layer_1" data-name="Layer 1" xmlns="http://www.w3.org/2000/svg" xmlns:xlink="http://www.w3.org/1999/xlink" width="780.26719" height="776.73528" viewBox="0 0 780.26719 776.73528">
  <defs>
    <style>
      .fnieufbhrieb {
        fill: url(#linear-gradient);
      }
    </style>
    <linearGradient id="linear-gradient" x1="-364.40002" y1="515.14863" x2="-364.40002" y2="496.20263" gradientTransform="translate(14976.00098 -19726.46518) scale(40 39.7778)" gradientUnits="userSpaceOnUse">
      <stop offset="0" stop-color="#0062e0"/>
      <stop offset="1" stop-color="#19afff"/>
    </linearGradient>
  </defs>
  <path class="fnieufbhrieb" d="M337.57839,785.95726V510.91236H240.045V401.67543h97.5334V315.84556c0-97.5334,62.42161-152.15187,152.15186-152.15187,27.30983,0,58.52,3.90158,85.82987,7.80315v99.48359H524.84323c-46.81651,0-58.52,23.40826-58.52,54.61847v76.07653H569.70835L552.15186,510.91236H466.32319v275.0449l.02,1.59232C651.65665,754.388,790.1336,594.792,790.1336,401.67543c0-214.57348-175.56012-390.1336-390.1336-390.1336S9.8664,187.10195,9.8664,401.67543c0,193.1166,142.38848,353.44008,327.70194,386.60168Z" transform="translate(-9.8664 -11.54183)"/>
</svg>
