<svg id="Layer_1" data-name="Layer 1" xmlns="http://www.w3.org/2000/svg" viewBox="0 0 799.99992 799.99426">
  <defs>
    <style>
      .instagram__path {
        fill: #707070;
        fill-rule: evenodd;
      }
    </style>
  </defs>
  <g id="Page-1">
    <g id="Dribbble-Light-Preview">
      <g id="icons">
        <path id="instagram-_167_" data-name="instagram-[#167]" class="instagram__path" d="M234.78638,4.90234c-65.116,2.94922-121.554,18.86719-167.12647,64.23829C21.92749,114.76563,6.20605,171.42578,3.2605,235.85938c-1.83106,40.21484-12.53784,344.0625,18.5083,423.75,20.93506,53.75,62.16919,95.09765,116.41846,116.09375,25.31372,9.84375,54.2102,16.52343,96.59912,18.457,354.43237,16.03515,485.81665,7.30468,541.2207-134.55078,9.83154-25.25391,16.5979-54.1211,18.468-96.40625,16.19873-355.332-2.627-432.36329-64.3982-494.0625C681.08032,20.27344,623.44849-12.98828,234.78638,4.90234m3.26294,717.793c-38.80616-1.73828-59.86084-8.22265-73.91114-13.65234-35.343-13.73047-61.89087-40.17578-75.54321-75.3125C64.95239,573.18359,72.79419,285.60547,74.90356,239.082c2.0691-45.58594,11.30372-87.22656,43.46314-119.39453,39.801-39.707,91.22559-59.16016,441.35864-43.35937,45.69214,2.07031,87.44385,11.28906,119.68384,43.35937,39.801,39.707,59.54346,91.52344,43.46313,440.3125-1.7517,38.71094-8.23852,59.707-13.6914,73.73047C673.1604,726.03516,590.293,738.86719,238.04932,722.69531M563.58643,187.57813a47.7822,47.7822,0,1,0,47.76245-47.63672,47.7223,47.7223,0,0,0-47.76245,47.63672M194.50684,399.51172c0,112.59766,91.5039,203.88672,204.3811,203.88672S603.269,512.10938,603.269,399.51172s-91.5039-203.82813-204.3811-203.82813-204.3811,91.23047-204.3811,203.82813m71.72241,0c0-73.04688,59.38354-132.32422,132.65869-132.32422,73.27393,0,132.65869,59.27734,132.65869,132.32422,0,73.10547-59.38476,132.38281-132.65869,132.38281-73.27515,0-132.65869-59.27734-132.65869-132.38281" transform="translate(0.00021 0.00051)"/>
      </g>
    </g>
  </g>
</svg>
