<svg id="e3d2ec3e-4aef-41bb-8a19-c34de989382d" data-name="Layer 1" xmlns="http://www.w3.org/2000/svg" width="800" height="800" viewBox="0 0 800 800">
  <defs>
    <style>
      .b0ddee9c-b1ae-45e5-b04c-88fdb210cb86 {
        fill: #069;
      }
    </style>
  </defs>
  <path id="aaac7d5e-d046-4e09-83e6-319701c6a9d7" data-name="linkedin" class="b0ddee9c-b1ae-45e5-b04c-88fdb210cb86" d="M740.875,0H59.125C26.48126,0,0,25.675,0,57.30627V742.71252C0,774.34686,26.48438,800,59.125,800h681.75C773.53125,800,800,774.34375,800,742.70313V57.30627C800,25.675,773.53125,0,740.875,0ZM243.11249,669.49377H123.4V309.33124H243.11249V669.49377h0ZM183.28125,260.16565l-.00934-.00317h-.775c-40.17816,0-66.15314-27.65625-66.15314-62.21875,0-35.34687,26.7594-62.23127,67.73126-62.23127,40.94373,0,66.14685,26.8844,66.9281,62.23444C251.00311,232.5094,225.01874,260.16565,183.28125,260.16565ZM674.78748,669.49377h-119.7V476.83746c0-48.42181-17.33435-81.44683-60.64062-81.44683-33.07813,0-52.775,22.27191-61.425,43.78753-3.16247,7.678-3.94372,18.45618-3.94372,29.20618V669.49377H309.375l-.00311.01252s1.57184-326.37506.00934-360.16254H429.08752V360.33c15.91108-24.53675,44.38038-59.44251,107.89057-59.44251,78.7594,0,137.80939,51.47815,137.80939,162.1Z"/>
</svg>
