<svg id="Layer_1" data-name="Layer 1" xmlns="http://www.w3.org/2000/svg" width="648" height="648" viewBox="0 0 648 648">
  <defs>
    <style>
      .cls-1, .cls-2 {
        fill: #ff4136;
      }

      .cls-1 {
        stroke: #ff4136;
        stroke-miterlimit: 10;
        stroke-width: 9px;
      }

      .cls-3 {
        fill: none;
      }
    </style>
  </defs>
  <polygon id="arrow" class="cls-1" points="460.234 187.763 184.386 190.802 184.092 218.936 413.083 216.387 178.406 451.064 198.11 470.767 431.512 237.365 429.061 463.905 457.195 463.611 460.234 187.763"/>
  <g id="circle">
    <g>
      <path class="cls-2" d="M322.898,32.48838A291.28458,291.28458,0,1,1,208.99066,55.42674,291.912,291.912,0,0,1,322.898,32.48838m0-25.487C147.23362,7.00135,4.80037,149.4346,4.80037,325.099S147.23362,643.09865,322.8,643.09865,640.79959,500.66541,640.79959,325.099,498.56244,7.00135,322.898,7.00135Z"/>
      <g>
        <path class="cls-3" d="M322.89793,11.9028c-172.697,0-313.19631,140.49884-313.19631,313.19583,0,172.64338,140.45529,313.09867,313.09819,313.09867,172.64338,0,313.09867-140.45529,313.09867-313.09867C635.89848,152.40164,495.48722,11.9028,322.89793,11.9028ZM533.29846,535.49964a296.19391,296.19391,0,1,1,63.7884-94.59128A297.38309,297.38309,0,0,1,533.29846,535.49964Z"/>
        <path class="cls-3" d="M588.05766,213.10468a289.38485,289.38485,0,1,0,22.55,111.994A287.58957,287.58957,0,0,0,588.05766,213.10468Z"/>
        <path class="cls-2" d="M551.19031,96.74882A322.93152,322.93152,0,0,0-.10108,325.09863,322.86941,322.86941,0,0,0,551.10319,553.402a322.9546,322.9546,0,0,0,.08712-456.6532ZM322.79981,638.1973c-172.6429,0-313.09819-140.45529-313.09819-313.09867,0-172.697,140.49933-313.19583,313.19631-313.19583,172.58929,0,313.00055,140.49884,313.00055,313.19583C635.89848,497.742,495.44319,638.1973,322.79981,638.1973Z"/>
        <path class="cls-2" d="M597.083,209.2779A299.18483,299.18483,0,1,0,620.4104,325.09863,297.35672,297.35672,0,0,0,597.083,209.2779Zm-9.02729,227.82042a287.95341,287.95341,0,0,1-530.31753-.00478A287.84109,287.84109,0,0,1,588.05766,213.10468a289.38485,289.38485,0,0,1-.00192,223.99364Z"/>
      </g>
    </g>
  </g>
</svg>
