<?xml version="1.0" encoding="utf-8"?>
<!-- Generator: Adobe Illustrator 24.1.3, SVG Export Plug-In . SVG Version: 6.00 Build 0)  -->
<svg version="1.1" id="Layer_1" xmlns="http://www.w3.org/2000/svg" xmlns:xlink="http://www.w3.org/1999/xlink" x="0px" y="0px"
	 viewBox="0 0 648 648" style="enable-background:new 0 0 648 648;" xml:space="preserve">
<style type="text/css">
	.st0{fill:#FF4136;}
</style>
<polygon id="arrow" class="st0" points="463,185 181.6,188.1 181.3,216.8 414.9,214.2 175.5,453.6 195.6,473.7 433.7,235.6 
	431.2,466.7 459.9,466.4 "/>
<g id="circle">
	<path class="st0" d="M322.9,26.6c40.3,0,79.4,7.9,116.2,23.4c35.5,15,67.5,36.6,94.9,64c27.4,27.4,48.9,59.3,64,94.9
		c15.6,36.8,23.4,75.9,23.4,116.2s-7.9,79.4-23.4,116.2c-15,35.5-36.6,67.5-64,94.9c-27.4,27.4-59.3,48.9-94.9,64
		c-36.8,15.6-75.9,23.4-116.2,23.4s-79.4-7.9-116.2-23.4c-35.5-15-67.5-36.6-94.9-64c-27.4-27.4-48.9-59.3-64-94.9
		c-15.6-36.8-23.4-75.9-23.4-116.2s7.9-79.4,23.4-116.2c15-35.5,36.6-67.5,64-94.9c27.4-27.4,59.3-48.9,94.9-64
		C243.5,34.5,282.6,26.6,322.9,26.6 M322.9,0.6C143.7,0.6-1.6,145.9-1.6,325.1s145.3,324.4,324.4,324.4s324.4-145.3,324.4-324.4
		S502.1,0.6,322.9,0.6L322.9,0.6z"/>
</g>
</svg>
