<svg id="f66ab928-1787-4d1b-9748-0b562466b9f3" data-name="Layer 1" xmlns="http://www.w3.org/2000/svg" width="780.26721" height="776.73529" viewBox="0 0 780.26721 776.73529">
  <defs>
    <style>
      .a8092190-f365-45a9-866f-622003fc7623 {
        fill: #ff4136;
      }

      .b18a351f-ab3a-4c5e-8091-59e0c2c52f22 {
        fill: #707070;
      }
    </style>
  </defs>
  <path id="f4b6e50f-fa5f-4b05-8d97-c5fc966486be" data-name="secondary" class="a8092190-f365-45a9-866f-622003fc7623" d="M508.15184,590.15452a35.65451,35.65451,0,0,1-16.04466-3.92205L256.42891,468.57161A35.65481,35.65481,0,0,1,286.19377,403.771q.99882.45879,1.96793.97847L523.83994,522.41037a35.65481,35.65481,0,0,1,16.244,47.73531q-.09843.2-.19932.39866A35.65478,35.65478,0,0,1,508.15184,590.15452ZM272.117,376.2257a35.72433,35.72433,0,0,1-16.08675-67.54483q.19872-.10087.39865-.19932L492.10718,190.82069a35.6548,35.6548,0,1,1,33.70072,62.84362q-.96862.51944-1.96793.97848L288.16173,372.30365a35.65491,35.65491,0,0,1-16.04469,4.2786Z"/>
  <path id="ae2e0ee5-cafb-4a1b-9743-bb7549eff82e" data-name="primary" class="b18a351f-ab3a-4c5e-8091-59e0c2c52f22" d="M461.44321,174.4388A142.61922,142.61922,0,1,1,604.06243,317.058,142.61921,142.61921,0,0,1,461.44321,174.4388ZM604.06243,459.67723A142.61922,142.61922,0,1,0,746.68164,602.29645,142.61922,142.61922,0,0,0,604.06243,459.67723ZM176.20478,245.74841A142.61922,142.61922,0,1,0,318.824,388.36762,142.61922,142.61922,0,0,0,176.20478,245.74841Z"/>
</svg>
