<svg xmlns="http://www.w3.org/2000/svg" width="27" height="28.422" viewBox="0 0 27 28.422"><path d="M28.635,16.211H25.793a1.421,1.421,0,1,0,0,2.842v2.842H24.11a4.213,4.213,0,0,0,.262-1.421,4.263,4.263,0,0,0-7.955-2.131,1.421,1.421,0,1,0,2.462,1.42,1.421,1.421,0,1,1,1.23,2.132,1.421,1.421,0,0,0,0,2.842,1.421,1.421,0,1,1-1.23,2.132,1.421,1.421,0,1,0-2.462,1.42,4.263,4.263,0,0,0,7.955-2.131,4.213,4.213,0,0,0-.262-1.421h1.683V29a1.421,1.421,0,0,0,2.842,0V19.053a1.421,1.421,0,1,0,0-2.842Zm-17.01-1.076a1.421,1.421,0,0,0,2.756-.69l-2.5-9.99a3.241,3.241,0,0,0-6.288,0l-2.5,9.99a1.421,1.421,0,0,0,2.756.69l.8-3.187h4.177ZM7.362,9.105l.99-3.961a.415.415,0,0,1,.776,0l.99,3.961Zm11.325,0h1.421a1.422,1.422,0,0,1,1.421,1.421v1.421a1.421,1.421,0,1,0,2.842,0V10.526a4.268,4.268,0,0,0-4.263-4.263H18.687a1.421,1.421,0,0,0,0,2.842ZM13,21.895H11.582a1.422,1.422,0,0,1-1.421-1.421V19.053a1.421,1.421,0,0,0-2.842,0v1.421a4.268,4.268,0,0,0,4.263,4.263H13a1.421,1.421,0,1,0,0-2.842Z" transform="translate(-3.056 -2)" fill="#ff4136"/></svg>