<svg id="Layer_1" data-name="Layer 1" xmlns="http://www.w3.org/2000/svg" viewBox="0 0 19.85994 15.88786">
  <defs>
    <style>
      .twitter_path {
        fill: #707070;
        fill-rule: evenodd;
      }
    </style>
  </defs>
  <g id="Page-1">
    <g id="Dribbble-Light-Preview">
      <g id="icons">
        <path id="twitter-_154_" data-name="twitter-[#154]" class="twitter_path" d="M6.316,17.94578A11.42074,11.42074,0,0,0,17.90922,6.53165c0-.17406,0-.34716-.01192-.5188A8.21512,8.21512,0,0,0,19.93,3.93619a8.21254,8.21254,0,0,1-2.3395.63129,4.04,4.04,0,0,0,1.79136-2.21922,8.24338,8.24338,0,0,1-2.58775.97409,4.12412,4.12412,0,0,0-5.76533-.17406A3.977,3.977,0,0,0,9.85006,6.9816,11.63542,11.63542,0,0,1,1.45228,2.79046a3.97686,3.97686,0,0,0,1.2621,5.35433A4.09181,4.09181,0,0,1,.86443,7.64344v.05091a4.02958,4.02958,0,0,0,3.26894,3.93174,4.11282,4.11282,0,0,1-1.839.06837A4.0705,4.0705,0,0,0,6.1005,14.481a8.25618,8.25618,0,0,1-5.06031,1.72078A8.4426,8.4426,0,0,1,.07,16.144a11.67017,11.67017,0,0,0,6.246,1.79883" transform="translate(-0.07003 -2.05792)"/>
      </g>
    </g>
  </g>
</svg>
